# Apple ModelIO OBJ File: Radio
mtllib Radio.mtl
g Radio_PanelSG
v 1.19157 0.375882 0.388529
v 1.185 0.375021 0.413062
v 1.19157 -0.269382 0.388529
v 1.185 -0.268521 0.413062
v 1.16705 0.372655 0.431023
v 1.16705 -0.266156 0.431023
v 1.14251 0.369427 0.437594
v 1.14251 -0.262922 0.437594
v 1.05865 0.518137 0.437594
v 1.07135 0.540128 0.431023
v 0.970058 0.541869 0.437594
v 0.973293 0.566404 0.431023
v 1.08064 0.556235 0.413062
v 0.975658 0.584363 0.413062
v 1.08405 0.562127 0.388529
v 0.976521 0.590942 0.388529
v 1.19157 -0.269382 0.274022
v 1.19157 0.375882 0.274022
v 0.976521 0.590942 0.274022
v 1.08405 0.562127 0.274022
v 1.16276 0.483409 0.388529
v 1.16276 0.483409 0.274022
v 1.16276 -0.376909 0.388529
v 1.16276 -0.376909 0.274022
v 1.08405 -0.455628 0.388529
v 1.08405 -0.455628 0.274022
v 0.976521 -0.484441 0.388529
v 0.976521 -0.484441 0.274022
v 1.11877 -0.351515 0.437594
v 1.14077 -0.364212 0.431023
v 1.15687 -0.373506 0.413062
v 1.14077 0.470711 0.431023
v 1.11877 0.458015 0.437594
v 1.15687 0.480006 0.413062
v 1.05865 -0.411631 0.437594
v 1.07135 -0.433628 0.431023
v 1.08065 -0.449735 0.413062
v 0.973293 -0.459902 0.431023
v 0.970058 -0.435369 0.437594
v 0.975658 -0.477862 0.413062
v 0.316292 -0.435369 0.437594
v 0.302376 -0.434609 0.431828
v 0.316288 -0.459902 0.431023
v 0.302372 -0.456921 0.425854
v 0.296619 -0.43278 0.417908
v 0.296608 -0.449716 0.413378
v 0.30237 0.585176 0.387772
v 0.30237 0.585176 0.274022
v 0.296608 0.57126 0.385937
v 0.296608 0.57126 0.274022
v 0.316284 0.590942 0.388529
v 0.316284 0.590942 0.274022
v 0.316288 -0.477862 0.413062
v 0.316284 -0.484441 0.388529
v 0.316284 -0.484441 0.274022
v 0.316301 0.541869 0.437594
v 0.316288 0.584363 0.413062
v 0.316292 0.566404 0.431023
v 0.296608 -0.464759 0.274022
v 0.296608 -0.464759 0.385937
v 0.296608 0.556344 0.413327
v 0.296619 0.539407 0.417885
v 0.296608 -0.460219 0.402876
v 0.296608 0.566722 0.402876
v 0.302378 0.541148 0.431821
v 0.302372 -0.472694 0.410077
v 0.30237 -0.478676 0.387772
v 0.30237 -0.478676 0.274022
v 0.302374 0.563459 0.425837
v 0.302372 0.579197 0.410077
vn 0.998167 0.038258 0.046903
vn 0.868327 0.032978 0.494894
vn 0.998167 -0.038258 0.046902
vn 0.868327 -0.032977 0.494895
vn 0.516268 0.018555 0.856226
vn 0.516283 -0.018557 0.856217
vn 0.003416 0.0001 0.999994
vn 0.003416 -9.9e-05 0.999994
vn 0.0006 0.000901 0.999999
vn 0.265887 0.453886 0.850465
vn 0.000154 0.003891 0.999992
vn 0.018516 0.511591 0.85903
vn 0.42614 0.757448 0.494648
vn 0.031013 0.868314 0.495044
vn 0.497552 0.866137 0.04742
vn 0.037196 0.998205 0.046931
vn 0.999268 -0.038249 0
vn 0.999268 0.038249 0
vn 0.037504 0.999296 0
vn 0.500018 0.866015 5e-06
vn 0.86423 0.500803 0.04798
vn 0.866023 0.500003 3e-06
vn 0.864233 -0.500799 0.047971
vn 0.866025 -0.500001 -4e-06
vn 0.497548 -0.86614 0.047411
vn 0.500013 -0.866018 -5e-06
vn 0.037193 -0.998205 0.046931
vn 0.037501 -0.999297 -0
vn 0.000821 -0.000388 1
vn 0.445657 -0.251948 0.859018
vn 0.746007 -0.437592 0.501983
vn 0.44567 0.251956 0.859009
vn 0.000821 0.000388 1
vn 0.746002 0.437606 0.501979
vn 0.0006 -0.000901 0.999999
vn 0.265865 -0.45387 0.850481
vn 0.426141 -0.75744 0.49466
vn 0.018516 -0.511596 0.859027
vn 0.000154 -0.003891 0.999992
vn 0.031011 -0.868306 0.495059
vn -0.006717 -0.005324 0.999963
vn -0.692772 -0.004598 0.721142
vn -0.007169 -0.499427 0.866326
vn -0.637119 -0.398662 0.659658
vn -0.965297 -0.001605 0.261148
vn -0.999871 -0.008648 0.013557
vn -0.674575 0.737539 0.03139
vn -0.705526 0.708684 0
vn -0.99998 0.006354 0.000216
vn -0.999985 0.005531 0
vn -0.007888 0.99885 0.047299
vn -0.008525 0.999964 0
vn -0.007715 -0.865576 0.500718
vn -0.007887 -0.99885 0.047299
vn -0.008523 -0.999964 0
vn -0.006731 0.005324 0.999963
vn -0.007705 0.865589 0.500697
vn -0.007166 0.499418 0.866332
vn -0.999985 -0.005531 0
vn -0.99998 -0.006354 0.000216
vn -0.999871 0.00866 0.013525
vn -0.965327 0.001628 0.261039
vn -0.999959 -0.008219 0.003903
vn -0.999959 0.008202 0.00388
vn -0.693405 0.004622 0.720534
vn -0.655651 -0.663816 0.35982
vn -0.674573 -0.737541 0.031396
vn -0.705525 -0.708685 0
vn -0.63683 0.399097 0.659673
vn -0.654991 0.664534 0.359696
vt 0.058336 0.585642
vt 0.048277 0.585478
vt 0.059471 0.335556
vt 0.049722 0.335724
vt 0.038143 0.584798
vt 0.039877 0.336286
vt 0.510809 0.319405
vt 0.501193 0.318185
vt 0.510421 0.077647
vt 0.501201 0.078904
vt 0.469444 0.374487
vt 0.474417 0.383106
vt 0.435914 0.383481
vt 0.437154 0.393097
vt 0.035549 0.676902
vt 0.046324 0.677495
vt 0.032007 0.720796
vt 0.042468 0.72125
vt 0.056552 0.678112
vt 0.052804 0.722136
vt 0.103358 0.335278
vt 0.103728 0.586109
vt 0.099418 0.727019
vt 0.103286 0.680686
vt 0.057944 0.634288
vt 0.105003 0.63391
vt 0.059438 0.295635
vt 0.100494 0.29329
vt 0.057374 0.258083
vt 0.09611 0.253841
vt 0.053133 0.222241
vt 0.090214 0.216443
vt 0.492218 0.045386
vt 0.500832 0.040469
vt 0.050477 0.295833
vt 0.041048 0.295945
vt 0.500829 0.356698
vt 0.492203 0.35172
vt 0.047461 0.633684
vt 0.036327 0.633204
vt 0.469474 0.02262
vt 0.474459 0.013996
vt 0.04894 0.258791
vt 0.040079 0.25942
vt 0.437185 0.004
vt 0.435945 0.013616
vt 0.044918 0.223328
vt 0.036599 0.22407
vt 0.17909 0.026771
vt 0.173175 0.02709
vt 0.176082 0.015551
vt 0.170755 0.018592
vt 0.16749 0.027801
vt 0.16578 0.021406
vt 0.156316 0.41284
vt 0.113165 0.412978
vt 0.155461 0.407184
vt 0.113163 0.40723
vt 0.156913 0.418618
vt 0.113179 0.418729
vt 0.188426 0.013584
vt 0.188425 0.003968
vt 0.002262 0.012787
vt 0.010431 0.011456
vt 0.018599 0.01012
vt 0.06939 0.996032
vt 0.022735 0.990827
vt 0.055427 0.004097
vt 0.188413 0.383526
vt 0.012385 0.989666
vt 0.002035 0.988503
vt 0.188409 0.393144
vt 0.113143 0.015683
vt 0.15544 0.015729
vt 0.165782 0.401555
vt 0.167502 0.395161
vt 0.161822 0.017444
vt 0.161843 0.405469
vt 0.173195 0.395841
vt 0.178901 0.396157
vt 0.167863 0.007324
vt 0.164737 0.012562
vt 0.15689 0.004297
vt 0.156292 0.010073
vt 0.113163 0.004178
vt 0.113147 0.00993
vt 0.170755 0.404301
vt 0.17606 0.407281
vt 0.164762 0.410338
vt 0.167901 0.415564
usemtl PanelSG
f 1/1/1 2/2/2 3/3/3
f 3/3/3 2/2/2 4/4/4
f 2/2/2 5/5/5 4/4/4
f 4/4/4 5/5/5 6/6/6
f 5/7/5 7/8/7 6/9/6
f 6/9/6 7/8/7 8/10/8
f 9/11/9 10/12/10 11/13/11
f 11/13/11 10/12/10 12/14/12
f 10/15/10 13/16/13 12/17/12
f 12/17/12 13/16/13 14/18/14
f 13/16/13 15/19/15 14/18/14
f 14/18/14 15/19/15 16/20/16
f 3/3/3 17/21/17 1/1/1
f 1/1/1 17/21/17 18/22/18
f 16/20/16 15/19/15 19/23/19
f 19/23/19 15/19/15 20/24/20
f 15/19/15 21/25/21 20/24/20
f 20/24/20 21/25/21 22/26/22
f 21/25/21 1/1/1 22/26/22
f 22/26/22 1/1/1 18/22/18
f 3/3/3 23/27/23 17/21/17
f 17/21/17 23/27/23 24/28/24
f 23/27/23 25/29/25 24/28/24
f 24/28/24 25/29/25 26/30/26
f 25/29/25 27/31/27 26/30/26
f 26/30/26 27/31/27 28/32/28
f 8/10/8 29/33/29 6/9/6
f 6/9/6 29/33/29 30/34/30
f 4/4/4 31/35/31 3/3/3
f 3/3/3 31/35/31 23/27/23
f 6/6/6 30/36/30 4/4/4
f 4/4/4 30/36/30 31/35/31
f 10/12/10 9/11/9 32/37/32
f 32/37/32 9/11/9 33/38/33
f 15/19/15 13/16/13 21/25/21
f 21/25/21 13/16/13 34/39/34
f 13/16/13 10/15/10 34/39/34
f 34/39/34 10/15/10 32/40/32
f 7/8/7 5/7/5 33/38/33
f 33/38/33 5/7/5 32/37/32
f 5/5/5 2/2/2 32/40/32
f 32/40/32 2/2/2 34/39/34
f 2/2/2 1/1/1 34/39/34
f 34/39/34 1/1/1 21/25/21
f 29/33/29 35/41/35 30/34/30
f 30/34/30 35/41/35 36/42/36
f 31/35/31 37/43/37 23/27/23
f 23/27/23 37/43/37 25/29/25
f 30/36/30 36/44/36 31/35/31
f 31/35/31 36/44/36 37/43/37
f 38/45/38 36/42/36 39/46/39
f 39/46/39 36/42/36 35/41/35
f 40/47/40 37/43/37 38/48/38
f 38/48/38 37/43/37 36/44/36
f 27/31/27 25/29/25 40/47/40
f 40/47/40 25/29/25 37/43/37
f 41/49/41 42/50/42 43/51/43
f 43/51/43 42/50/42 44/52/44
f 42/50/42 45/53/45 44/52/44
f 44/52/44 45/53/45 46/54/46
f 47/55/47 48/56/48 49/57/49
f 49/57/49 48/56/48 50/58/50
f 51/59/51 52/60/52 47/55/47
f 47/55/47 52/60/52 48/56/48
f 41/61/41 43/62/43 39/46/39
f 39/46/39 43/62/43 38/45/38
f 43/63/43 53/64/53 38/48/38
f 38/48/38 53/64/53 40/47/40
f 53/64/53 54/65/54 40/47/40
f 40/47/40 54/65/54 27/31/27
f 52/66/52 51/67/51 19/23/19
f 19/23/19 51/67/51 16/20/16
f 54/65/54 55/68/55 27/31/27
f 27/31/27 55/68/55 28/32/28
f 56/69/56 41/61/41 11/13/11
f 41/61/41 39/46/39 11/13/11
f 11/13/11 39/46/39 9/11/9
f 9/11/9 39/46/39 33/38/33
f 33/38/33 39/46/39 7/8/7
f 39/46/39 35/41/35 7/8/7
f 35/41/35 29/33/29 7/8/7
f 29/33/29 8/10/8 7/8/7
f 57/70/57 14/18/14 51/67/51
f 51/67/51 14/18/14 16/20/16
f 58/71/58 12/17/12 57/70/57
f 57/70/57 12/17/12 14/18/14
f 56/69/56 11/13/11 58/72/58
f 58/72/58 11/13/11 12/14/12
f 59/73/59 60/74/60 50/58/50
f 50/58/50 60/74/60 49/57/49
f 46/54/46 45/53/45 61/75/61
f 61/75/61 45/53/45 62/76/62
f 63/77/63 64/78/64 60/74/60
f 60/74/60 64/78/64 49/57/49
f 46/54/46 61/75/61 63/77/63
f 63/77/63 61/75/61 64/78/64
f 45/53/45 42/50/42 62/76/62
f 62/76/62 42/50/42 65/79/65
f 42/50/42 41/49/41 65/79/65
f 65/79/65 41/49/41 56/80/56
f 43/51/43 44/52/44 53/81/53
f 53/81/53 44/52/44 66/82/66
f 44/52/44 46/54/46 66/82/66
f 66/82/66 46/54/46 63/77/63
f 53/81/53 66/82/66 54/83/54
f 54/83/54 66/82/66 67/84/67
f 66/82/66 63/77/63 67/84/67
f 67/84/67 63/77/63 60/74/60
f 54/83/54 67/84/67 55/85/55
f 55/85/55 67/84/67 68/86/68
f 67/84/67 60/74/60 68/86/68
f 68/86/68 60/74/60 59/73/59
f 65/79/65 69/87/69 62/76/62
f 62/76/62 69/87/69 61/75/61
f 56/80/56 58/88/58 65/79/65
f 65/79/65 58/88/58 69/87/69
f 69/87/69 70/89/70 61/75/61
f 61/75/61 70/89/70 64/78/64
f 58/88/58 57/90/57 69/87/69
f 69/87/69 57/90/57 70/89/70
f 70/89/70 47/55/47 64/78/64
f 64/78/64 47/55/47 49/57/49
f 57/90/57 51/59/51 70/89/70
f 70/89/70 51/59/51 47/55/47
s off
g Radio_SpeakerSG
v -1.14251 0.369428 0.437594
v -1.16704 0.372655 0.431023
v -1.14251 -0.262928 0.437594
v -1.16704 -0.266156 0.431023
v -1.185 0.375022 0.413062
v -1.185 -0.268522 0.413062
v -1.19158 0.375882 0.388529
v -1.19158 -0.269382 0.388529
v -1.19158 -0.269382 0.274022
v -1.19158 0.375882 0.274022
v -1.16276 0.483409 0.388529
v -1.16276 0.483409 0.274022
v -1.08405 0.562127 0.388529
v -1.08405 0.562127 0.274022
v -0.976524 0.590942 0.388529
v -0.976524 0.590942 0.274022
v -0.976524 -0.484441 0.388529
v -1.08405 -0.455628 0.388529
v -0.976524 -0.484441 0.274022
v -1.08405 -0.455628 0.274022
v -1.16276 -0.376909 0.388529
v -1.16276 -0.376909 0.274022
v -0.973293 -0.459902 0.431023
v -0.970066 -0.435369 0.437594
v -1.07135 -0.433628 0.431023
v -1.05865 -0.411631 0.437594
v -0.975658 -0.477862 0.413062
v -1.08065 -0.449735 0.413062
v -1.11877 0.458015 0.437594
v -1.14077 0.470711 0.431023
v -1.15688 0.480006 0.413062
v -1.05865 0.518137 0.437594
v -1.07135 0.540128 0.431023
v -1.08065 0.556235 0.413062
v -0.970066 0.541869 0.437594
v -0.973293 0.566404 0.431023
v -0.975658 0.584363 0.413062
v -1.14077 -0.364212 0.431023
v -1.11877 -0.351515 0.437594
v -1.15688 -0.373506 0.413062
v 0.296608 0.556211 0.413367
v 0.290844 0.563419 0.425852
v 0.296619 0.539281 0.417908
v 0.290848 0.541113 0.431828
v 0.27692 0.566404 0.431023
v 0.27692 0.541869 0.437594
v 0.290836 -0.478674 0.387772
v 0.290836 -0.478674 0.274022
v 0.296608 -0.464748 0.385935
v 0.296608 -0.464748 0.274022
v 0.276918 -0.484441 0.388529
v 0.276918 -0.484441 0.274022
v 0.276918 0.590942 0.388529
v 0.276918 0.590942 0.274022
v 0.27692 0.584363 0.413062
v 0.276917 -0.435369 0.437594
v 0.27692 -0.459902 0.431023
v 0.27692 -0.477862 0.413062
v 0.296608 0.571251 0.274022
v 0.296608 0.571251 0.385935
v 0.296608 0.566712 0.402869
v 0.296608 -0.460211 0.402869
v 0.296608 -0.449834 0.413317
v 0.296619 -0.432907 0.417885
v 0.290836 0.585175 0.274022
v 0.290836 0.585175 0.387772
v 0.29084 0.579192 0.410077
v 0.290844 -0.434648 0.431824
v 0.290844 -0.456953 0.425837
v 0.29084 -0.472691 0.410077
vn -0.001984 5.8e-05 0.999998
vn -0.5163 0.018551 0.856207
vn -0.001984 -5.8e-05 0.999998
vn -0.516302 -0.018552 0.856205
vn -0.868291 0.032971 0.494959
vn -0.86829 -0.03297 0.49496
vn -0.998165 0.038254 0.04693
vn -0.998165 -0.038254 0.04693
vn -0.999268 -0.038246 0
vn -0.999268 0.038246 0
vn -0.86423 0.500805 0.047975
vn -0.866021 0.500007 0
vn -0.49756 0.866133 0.047414
vn -0.500026 0.86601 0
vn -0.020982 0.998676 0.046979
vn -0.021167 0.999776 0
vn -0.02098 -0.998676 0.04698
vn -0.497555 -0.866135 0.047419
vn -0.021166 -0.999776 0
vn -0.500022 -0.866013 0
vn -0.864231 -0.500803 0.047977
vn -0.866022 -0.500005 0
vn -0.010354 -0.509348 0.860498
vn -8.9e-05 -0.00398 0.999992
vn -0.265871 -0.453883 0.850472
vn -0.000347 -0.000521 1
vn -0.017418 -0.868143 0.496008
vn -0.426135 -0.757436 0.494671
vn -0.000475 0.000225 1
vn -0.445673 0.251951 0.859009
vn -0.745989 0.437584 0.502016
vn -0.000347 0.000521 1
vn -0.26588 0.453886 0.850468
vn -0.426139 0.757441 0.494661
vn -8.9e-05 0.00398 0.999992
vn -0.010354 0.509341 0.860503
vn -0.017418 0.868152 0.495993
vn -0.445664 -0.251952 0.859013
vn -0.000475 -0.000225 1
vn -0.745991 -0.437584 0.502014
vn 0.999875 0.008667 0.01326
vn 0.637019 0.39887 0.659629
vn 0.965506 0.001618 0.260375
vn 0.692407 0.004609 0.721492
vn 0.003798 0.499682 0.866201
vn 0.003899 0.005843 0.999975
vn 0.674495 -0.737612 0.031388
vn 0.705436 -0.708773 0
vn 0.99998 -0.006367 0.000216
vn 0.999985 -0.005541 0
vn 0.004193 -0.998873 0.04728
vn 0.004535 -0.99999 0
vn 0.004193 0.998873 0.04728
vn 0.004535 0.99999 0
vn 0.004097 0.865781 0.500407
vn 0.003906 -0.005843 0.999975
vn 0.003795 -0.499692 0.866195
vn 0.004092 -0.865774 0.500419
vn 0.999985 0.005541 0
vn 0.99998 0.006367 0.000216
vn 0.999959 0.008232 0.003906
vn 0.999959 -0.008216 0.003884
vn 0.999875 -0.008678 0.013225
vn 0.965538 -0.001641 0.260257
vn 0.705418 0.708792 0
vn 0.674478 0.737627 0.03139
vn 0.655649 0.663825 0.359808
vn 0.693024 -0.004628 0.7209
vn 0.636747 -0.399312 0.659623
vn 0.655013 -0.664523 0.359676
vt 0.164865 0.01182
vt 0.164393 0.005319
vt 0.329596 0.01191
vt 0.330445 0.005305
vt 0.050077 0.590575
vt 0.042702 0.591267
vt 0.046455 0.416738
vt 0.039533 0.416421
vt 0.035838 0.591552
vt 0.032675 0.416392
vt 0.00174 0.41674
vt 0.00488 0.592298
vt 0.036775 0.620644
vt 0.006679 0.622585
vt 0.038892 0.648785
vt 0.009574 0.651961
vt 0.042371 0.676341
vt 0.013532 0.680672
vt 0.037372 0.331595
vt 0.034244 0.359476
vt 0.007925 0.327661
vt 0.004641 0.356905
vt 0.032675 0.387598
vt 0.002565 0.386472
vt 0.381142 0.05597
vt 0.374525 0.056816
vt 0.374271 0.03032
vt 0.368338 0.033743
vt 0.043917 0.332298
vt 0.040702 0.360018
vt 0.050536 0.332682
vt 0.047495 0.360556
vt 0.141791 0.017985
vt 0.138386 0.012
vt 0.043395 0.620333
vt 0.05038 0.620042
vt 0.126124 0.033652
vt 0.120184 0.030228
vt 0.04531 0.648154
vt 0.05207 0.647534
vt 0.119941 0.056736
vt 0.113322 0.05589
vt 0.048786 0.675551
vt 0.055274 0.675075
vt 0.356096 0.012152
vt 0.352674 0.018086
vt 0.039245 0.387759
vt 0.046155 0.387909
vt 0.400493 0.277217
vt 0.394837 0.279214
vt 0.399299 0.272813
vt 0.39533 0.273274
vt 0.391412 0.281153
vt 0.391391 0.273469
vt 0.406992 0.008035
vt 0.436676 0.007929
vt 0.407585 0.011929
vt 0.43668 0.011891
vt 0.406576 0.004059
vt 0.436665 0.003968
vt 0.090712 0.991614
vt 0.061903 0.996032
vt 0.097103 0.990634
vt 0.103493 0.989654
vt 0.113337 0.38167
vt 0.119955 0.381669
vt 0.374572 0.381648
vt 0.38119 0.381649
vt 0.088146 0.010209
vt 0.094679 0.011106
vt 0.081613 0.009314
vt 0.052163 0.005275
vt 0.436704 0.281202
vt 0.40758 0.281164
vt 0.403195 0.279963
vt 0.403197 0.013109
vt 0.40049 0.015801
vt 0.399305 0.020196
vt 0.436735 0.285173
vt 0.40694 0.285201
vt 0.436756 0.289149
vt 0.406555 0.289299
vt 0.400507 0.283635
vt 0.398183 0.287648
vt 0.395391 0.019729
vt 0.391468 0.019513
vt 0.397067 0.013915
vt 0.393421 0.011877
vt 0.401178 0.009767
vt 0.399018 0.006178
usemtl SpeakerSG
f 71/91/71 72/92/72 73/93/73
f 73/93/73 72/92/72 74/94/74
f 72/95/72 75/96/75 74/97/74
f 74/97/74 75/96/75 76/98/76
f 75/96/75 77/99/77 76/98/76
f 76/98/76 77/99/77 78/100/78
f 79/101/79 78/100/78 80/102/80
f 80/102/80 78/100/78 77/99/77
f 77/99/77 81/103/81 80/102/80
f 80/102/80 81/103/81 82/104/82
f 81/103/81 83/105/83 82/104/82
f 82/104/82 83/105/83 84/106/84
f 83/105/83 85/107/85 84/106/84
f 84/106/84 85/107/85 86/108/86
f 87/109/87 88/110/88 89/111/89
f 89/111/89 88/110/88 90/112/90
f 88/110/88 91/113/91 90/112/90
f 90/112/90 91/113/91 92/114/92
f 91/113/91 78/100/78 92/114/92
f 92/114/92 78/100/78 79/101/79
f 93/115/93 94/116/94 95/117/95
f 95/117/95 94/116/94 96/118/96
f 87/109/87 97/119/97 88/110/88
f 88/110/88 97/119/97 98/120/98
f 97/119/97 93/121/93 98/120/98
f 98/120/98 93/121/93 95/122/95
f 71/91/71 99/123/99 72/92/72
f 72/92/72 99/123/99 100/124/100
f 75/96/75 101/125/101 77/99/77
f 77/99/77 101/125/101 81/103/81
f 72/95/72 100/126/100 75/96/75
f 75/96/75 100/126/100 101/125/101
f 99/123/99 102/127/102 100/124/100
f 100/124/100 102/127/102 103/128/103
f 101/125/101 104/129/104 81/103/81
f 81/103/81 104/129/104 83/105/83
f 100/126/100 103/130/103 101/125/101
f 101/125/101 103/130/103 104/129/104
f 102/127/102 105/131/105 103/128/103
f 103/128/103 105/131/105 106/132/106
f 104/129/104 107/133/107 83/105/83
f 83/105/83 107/133/107 85/107/85
f 103/130/103 106/134/106 104/129/104
f 104/129/104 106/134/106 107/133/107
f 95/117/95 96/118/96 108/135/108
f 108/135/108 96/118/96 109/136/109
f 88/110/88 98/120/98 91/113/91
f 91/113/91 98/120/98 110/137/110
f 98/120/98 95/122/95 110/137/110
f 110/137/110 95/122/95 108/138/108
f 73/93/73 74/94/74 109/136/109
f 109/136/109 74/94/74 108/135/108
f 74/97/74 76/98/76 108/138/108
f 108/138/108 76/98/76 110/137/110
f 76/98/76 78/100/78 110/137/110
f 110/137/110 78/100/78 91/113/91
f 111/139/111 112/140/112 113/141/113
f 113/141/113 112/140/112 114/142/114
f 112/140/112 115/143/115 114/142/114
f 114/142/114 115/143/115 116/144/116
f 117/145/117 118/146/118 119/147/119
f 119/147/119 118/146/118 120/148/120
f 121/149/121 122/150/122 117/145/117
f 117/145/117 122/150/122 118/146/118
f 85/107/85 123/151/123 86/108/86
f 86/108/86 123/151/123 124/152/124
f 85/107/85 107/133/107 123/151/123
f 123/151/123 107/133/107 125/153/125
f 107/133/107 106/134/106 125/153/125
f 125/153/125 106/134/106 115/154/115
f 106/132/106 105/131/105 115/155/115
f 115/155/115 105/131/105 116/156/116
f 126/157/126 116/156/116 94/116/94
f 94/116/94 116/156/116 96/118/96
f 96/118/96 116/156/116 109/136/109
f 109/136/109 116/156/116 73/93/73
f 73/93/73 116/156/116 71/91/71
f 71/91/71 116/156/116 99/123/99
f 99/123/99 116/156/116 102/127/102
f 116/156/116 105/131/105 102/127/102
f 93/115/93 127/158/127 94/116/94
f 94/116/94 127/158/127 126/157/126
f 97/119/97 128/159/128 93/121/93
f 93/121/93 128/159/128 127/160/127
f 87/109/87 121/161/121 97/119/97
f 97/119/97 121/161/121 128/159/128
f 87/109/87 89/111/89 121/161/121
f 121/161/121 89/111/89 122/162/122
f 129/163/129 130/164/130 120/148/120
f 120/148/120 130/164/130 119/147/119
f 131/165/131 132/166/132 130/164/130
f 130/164/130 132/166/132 119/147/119
f 133/167/133 111/139/111 134/168/134
f 134/168/134 111/139/111 113/141/113
f 131/165/131 111/139/111 132/166/132
f 132/166/132 111/139/111 133/167/133
f 129/163/129 135/169/135 130/164/130
f 130/164/130 135/169/135 136/170/136
f 135/169/135 124/171/124 136/170/136
f 136/170/136 124/171/124 123/172/123
f 130/164/130 136/170/136 131/165/131
f 131/165/131 136/170/136 137/173/137
f 136/170/136 123/172/123 137/173/137
f 137/173/137 123/172/123 125/174/125
f 131/165/131 137/173/137 111/139/111
f 111/139/111 137/173/137 112/140/112
f 137/173/137 125/174/125 112/140/112
f 112/140/112 125/174/125 115/143/115
f 113/141/113 114/142/114 134/168/134
f 134/168/134 114/142/114 138/175/138
f 114/142/114 116/144/116 138/175/138
f 138/175/138 116/144/116 126/176/126
f 138/175/138 139/177/139 134/168/134
f 134/168/134 139/177/139 133/167/133
f 126/176/126 127/178/127 138/175/138
f 138/175/138 127/178/127 139/177/139
f 139/177/139 140/179/140 133/167/133
f 133/167/133 140/179/140 132/166/132
f 127/178/127 128/180/128 139/177/139
f 139/177/139 128/180/128 140/179/140
f 140/179/140 117/145/117 132/166/132
f 132/166/132 117/145/117 119/147/119
f 128/180/128 121/149/121 140/179/140
f 140/179/140 121/149/121 117/145/117
s off
g Radio_VolSG
v 1.04338 -0.281592 0.395642
v 1.01222 -0.258951 0.395642
v 1.04338 -0.281592 0.502509
v 1.01222 -0.258951 0.502509
v 0.973698 -0.258951 0.395642
v 0.973698 -0.258951 0.502509
v 0.942535 -0.281592 0.395642
v 0.942535 -0.281592 0.502509
v 0.930634 -0.318226 0.395642
v 0.930634 -0.318226 0.502509
v 0.942535 -0.35486 0.395642
v 0.942535 -0.35486 0.502509
v 0.973698 -0.377501 0.395642
v 0.973698 -0.377501 0.502509
v 1.01222 -0.377501 0.395642
v 1.01222 -0.377501 0.502509
v 1.04338 -0.35486 0.395642
v 1.04338 -0.35486 0.502509
v 1.05528 -0.318226 0.395642
v 1.05528 -0.318226 0.502509
v 1.02825 -0.292581 0.520293
v 0.992958 -0.318226 0.520293
v 1.03659 -0.318226 0.520293
v 1.00644 -0.359721 0.520293
v 0.979477 -0.359721 0.520293
v 1.00644 -0.27673 0.520293
v 0.979477 -0.27673 0.520293
v 0.957661 -0.292581 0.520293
v 0.957661 -0.343869 0.520293
v 1.02825 -0.343869 0.520293
v 0.949326 -0.318226 0.520293
v 1.03895 -0.28481 0.515086
v 1.04981 -0.318226 0.515086
v 1.01052 -0.264158 0.515086
v 0.975391 -0.264158 0.515086
v 0.946964 -0.28481 0.515086
v 0.936108 -0.318226 0.515086
v 0.946964 -0.351641 0.515086
v 0.975391 -0.372292 0.515086
v 1.01052 -0.372292 0.515086
v 1.03895 -0.351641 0.515086
v 0.477043 -0.281592 0.395642
v 0.445881 -0.258951 0.395642
v 0.477043 -0.281592 0.502509
v 0.445881 -0.258951 0.502509
v 0.40736 -0.258951 0.395642
v 0.40736 -0.258951 0.502509
v 0.376198 -0.281592 0.395642
v 0.376198 -0.281592 0.502509
v 0.364296 -0.318226 0.395642
v 0.364296 -0.318226 0.502509
v 0.376198 -0.35486 0.395642
v 0.376198 -0.35486 0.502509
v 0.40736 -0.377501 0.395642
v 0.40736 -0.377501 0.502509
v 0.445881 -0.377501 0.395642
v 0.445881 -0.377501 0.502509
v 0.477043 -0.35486 0.395642
v 0.477043 -0.35486 0.502509
v 0.488945 -0.318226 0.395642
v 0.488945 -0.318226 0.502509
v 0.461918 -0.292581 0.520293
v 0.42662 -0.318226 0.520293
v 0.470253 -0.318226 0.520293
v 0.440102 -0.359721 0.520293
v 0.413139 -0.359721 0.520293
v 0.440102 -0.27673 0.520293
v 0.413139 -0.27673 0.520293
v 0.391323 -0.292581 0.520293
v 0.391323 -0.343869 0.520293
v 0.461918 -0.343869 0.520293
v 0.382988 -0.318226 0.520293
v 0.472614 -0.28481 0.515086
v 0.483471 -0.318226 0.515086
v 0.444187 -0.264158 0.515086
v 0.409054 -0.264158 0.515086
v 0.380627 -0.28481 0.515086
v 0.36977 -0.318226 0.515086
v 0.380627 -0.351641 0.515086
v 0.409054 -0.372292 0.515086
v 0.444187 -0.372292 0.515086
v 0.472614 -0.351641 0.515086
vn 0.809022 0.587779 0
vn 0.309016 0.951057 0
vn 0.808346 0.587289 0.040849
vn 0.308763 0.950261 0.04085
vn -0.309016 0.951057 0
vn -0.308763 0.950261 0.04085
vn -0.809022 0.587779 0
vn -0.808346 0.587289 0.040848
vn -1 0 0
vn -0.999165 -1e-06 0.040852
vn -0.809027 -0.587771 0
vn -0.808349 -0.587283 0.040864
vn -0.309016 -0.951057 0
vn -0.308762 -0.950261 0.040871
vn 0.309016 -0.951057 0
vn 0.308762 -0.950261 0.040871
vn 0.809027 -0.587771 0
vn 0.808349 -0.587284 0.040863
vn 1 0 0
vn 0.999165 0 0.040851
vn 0.158827 0.115416 0.980537
vn 0 0 1
vn 0.196419 -1e-06 0.98052
vn 0.06064 -0.186753 0.980534
vn -0.060638 -0.186741 0.980536
vn 0.060617 0.186743 0.980537
vn -0.060636 0.186733 0.980538
vn -0.158847 0.115417 0.980534
vn -0.158809 -0.115417 0.98054
vn 0.158815 -0.115421 0.980539
vn -0.196419 0 0.98052
vn 0.609153 0.442583 0.658068
vn 0.752954 -0 0.658074
vn 0.232653 0.716108 0.658074
vn -0.232668 0.716091 0.658088
vn -0.609162 0.442574 0.658065
vn -0.752957 -4e-06 0.65807
vn -0.609122 -0.442547 0.65812
vn -0.232657 -0.716038 0.65815
vn 0.232658 -0.716053 0.658132
vn 0.609118 -0.442553 0.658121
vn 0.308764 0.950261 0.04085
vn -0.308762 0.950262 0.040849
vn -0.308761 -0.950261 0.040871
vn 0.308763 -0.950261 0.040872
vn 0.232657 0.716098 0.658084
vn -0.232665 0.7161 0.658079
vn -0.232654 -0.716047 0.65814
vn 0.232661 -0.716044 0.658142
vt 0.596479 0.372161
vt 0.59655 0.464419
vt 0.340669 0.372033
vt 0.340509 0.464326
vt 0.59662 0.556754
vt 0.340366 0.556652
vt 0.596698 0.649154
vt 0.340221 0.649069
vt 0.596663 0.741914
vt 0.340058 0.74154
vt 0.596557 0.83435
vt 0.339951 0.833993
vt 0.59646 0.926824
vt 0.339804 0.926501
vt 0.595644 0.003702
vt 0.596002 0.095794
vt 0.340162 0.004705
vt 0.340554 0.096775
vt 0.596355 0.187871
vt 0.341989 0.18828
vt 0.596413 0.279984
vt 0.340761 0.279854
vt 0.801998 0.05882
vt 0.739453 0.141923
vt 0.741739 0.038025
vt 0.640601 0.107662
vt 0.639335 0.172488
vt 0.838654 0.110978
vt 0.83823 0.175373
vt 0.799736 0.227429
vt 0.676506 0.225567
vt 0.679972 0.056264
vt 0.737788 0.246594
vt 0.30815 0.367937
vt 0.308204 0.283904
vt 0.821236 0.033266
vt 0.74282 0.004214
vt 0.870846 0.100581
vt 0.308033 0.376026
vt 0.307916 0.460247
vt 0.870872 0.186173
vt 0.30786 0.468351
vt 0.307767 0.552571
vt 0.81972 0.255573
vt 0.307684 0.560663
vt 0.307551 0.644975
vt 0.737258 0.281125
vt 0.307547 0.653067
vt 0.30737 0.737392
vt 0.655775 0.253109
vt 0.307362 0.745583
vt 0.30729 0.829917
vt 0.6063 0.182557
vt 0.307265 0.837968
vt 0.307089 0.922366
vt 0.608031 0.096249
vt 0.307633 0.008901
vt 0.30799 0.092867
vt 0.660557 0.027882
vt 0.307178 0.101859
vt 0.309591 0.188304
vt 0.307327 0.274797
vt 0.291869 0.837569
vt 0.291039 0.929297
vt 0.037377 0.835339
vt 0.036485 0.927066
vt 0.294557 0.004265
vt 0.295182 0.097218
vt 0.036782 0.006015
vt 0.037407 0.098927
vt 0.295775 0.190165
vt 0.038044 0.191829
vt 0.296358 0.285238
vt 0.038691 0.284686
vt 0.295645 0.377803
vt 0.039106 0.377021
vt 0.29493 0.470085
vt 0.039274 0.468997
vt 0.294199 0.562134
vt 0.039164 0.560696
vt 0.29347 0.654027
vt 0.038782 0.652289
vt 0.292696 0.745826
vt 0.03816 0.743773
vt 0.927159 0.307038
vt 0.864615 0.390141
vt 0.8669 0.286242
vt 0.765761 0.35588
vt 0.764496 0.420706
vt 0.963813 0.359195
vt 0.96339 0.423591
vt 0.924898 0.475647
vt 0.801666 0.473784
vt 0.805133 0.304481
vt 0.86295 0.494812
vt 0.005009 0.830981
vt 0.005778 0.747457
vt 0.946395 0.281484
vt 0.86798 0.252431
vt 0.996008 0.348799
vt 0.004925 0.839
vt 0.004049 0.922709
vt 0.996032 0.434391
vt 0.003968 0.010345
vt 0.004608 0.095079
vt 0.944882 0.50379
vt 0.004581 0.103249
vt 0.005197 0.188014
vt 0.862419 0.529343
vt 0.005244 0.196122
vt 0.005817 0.280824
vt 0.780936 0.501326
vt 0.006055 0.288917
vt 0.006501 0.373108
vt 0.731461 0.430774
vt 0.006617 0.381083
vt 0.006754 0.465005
vt 0.733191 0.344467
vt 0.006913 0.472983
vt 0.006792 0.556575
vt 0.785719 0.2761
vt 0.006786 0.564561
vt 0.006435 0.648139
vt 0.00648 0.65609
vt 0.005863 0.739488
usemtl VolSG
f 141/181/141 142/182/142 143/183/143
f 143/183/143 142/182/142 144/184/144
f 142/182/142 145/185/145 144/184/144
f 144/184/144 145/185/145 146/186/146
f 145/185/145 147/187/147 146/186/146
f 146/186/146 147/187/147 148/188/148
f 147/187/147 149/189/149 148/188/148
f 148/188/148 149/189/149 150/190/150
f 149/189/149 151/191/151 150/190/150
f 150/190/150 151/191/151 152/192/152
f 151/191/151 153/193/153 152/192/152
f 152/192/152 153/193/153 154/194/154
f 153/195/153 155/196/155 154/197/154
f 154/197/154 155/196/155 156/198/156
f 155/196/155 157/199/157 156/198/156
f 156/198/156 157/199/157 158/200/158
f 157/199/157 159/201/159 158/200/158
f 158/200/158 159/201/159 160/202/160
f 159/201/159 141/181/141 160/202/160
f 160/202/160 141/181/141 143/183/143
f 161/203/161 162/204/162 163/205/163
f 164/206/164 162/204/162 165/207/165
f 162/204/162 166/208/166 167/209/167
f 168/210/168 162/204/162 167/209/167
f 165/207/165 162/204/162 169/211/169
f 170/212/170 162/204/162 164/206/164
f 161/203/161 166/208/166 162/204/162
f 171/213/171 162/204/162 168/210/168
f 169/211/169 162/204/162 171/213/171
f 163/205/163 162/204/162 170/212/170
f 143/183/143 172/214/172 160/202/160
f 160/202/160 172/214/172 173/215/173
f 172/216/172 161/203/161 173/217/173
f 173/217/173 161/203/161 163/205/163
f 161/203/161 172/216/172 166/208/166
f 166/208/166 172/216/172 174/218/174
f 172/219/172 143/183/143 174/220/174
f 174/220/174 143/183/143 144/184/144
f 166/208/166 174/218/174 167/209/167
f 167/209/167 174/218/174 175/221/175
f 174/222/174 144/184/144 175/223/175
f 175/223/175 144/184/144 146/186/146
f 167/209/167 175/221/175 168/210/168
f 168/210/168 175/221/175 176/224/176
f 175/225/175 146/186/146 176/226/176
f 176/226/176 146/186/146 148/188/148
f 168/210/168 176/224/176 171/213/171
f 171/213/171 176/224/176 177/227/177
f 176/228/176 148/188/148 177/229/177
f 177/229/177 148/188/148 150/190/150
f 171/213/171 177/227/177 169/211/169
f 169/211/169 177/227/177 178/230/178
f 177/231/177 150/190/150 178/232/178
f 178/232/178 150/190/150 152/192/152
f 169/211/169 178/230/178 165/207/165
f 165/207/165 178/230/178 179/233/179
f 178/234/178 152/192/152 179/235/179
f 179/235/179 152/192/152 154/194/154
f 165/207/165 179/233/179 164/206/164
f 164/206/164 179/233/179 180/236/180
f 179/237/179 154/197/154 180/238/180
f 180/238/180 154/197/154 156/198/156
f 164/206/164 180/236/180 170/212/170
f 170/212/170 180/236/180 181/239/181
f 180/240/180 156/198/156 181/241/181
f 181/241/181 156/198/156 158/200/158
f 170/212/170 181/239/181 163/205/163
f 163/205/163 181/239/181 173/217/173
f 181/241/181 158/200/158 173/242/173
f 173/242/173 158/200/158 160/202/160
f 182/243/141 183/244/142 184/245/143
f 184/245/143 183/244/142 185/246/182
f 183/247/142 186/248/145 185/249/182
f 185/249/182 186/248/145 187/250/183
f 186/248/145 188/251/147 187/250/183
f 187/250/183 188/251/147 189/252/148
f 188/251/147 190/253/149 189/252/148
f 189/252/148 190/253/149 191/254/150
f 190/253/149 192/255/151 191/254/150
f 191/254/150 192/255/151 193/256/152
f 192/255/151 194/257/153 193/256/152
f 193/256/152 194/257/153 195/258/184
f 194/257/153 196/259/155 195/258/184
f 195/258/184 196/259/155 197/260/185
f 196/259/155 198/261/157 197/260/185
f 197/260/185 198/261/157 199/262/158
f 198/261/157 200/263/159 199/262/158
f 199/262/158 200/263/159 201/264/160
f 200/263/159 182/243/141 201/264/160
f 201/264/160 182/243/141 184/245/143
f 202/265/161 203/266/162 204/267/163
f 205/268/164 203/266/162 206/269/165
f 203/266/162 207/270/166 208/271/167
f 209/272/168 203/266/162 208/271/167
f 206/269/165 203/266/162 210/273/169
f 211/274/170 203/266/162 205/268/164
f 202/265/161 207/270/166 203/266/162
f 212/275/171 203/266/162 209/272/168
f 210/273/169 203/266/162 212/275/171
f 204/267/163 203/266/162 211/274/170
f 184/245/143 213/276/172 201/264/160
f 201/264/160 213/276/172 214/277/173
f 213/278/172 202/265/161 214/279/173
f 214/279/173 202/265/161 204/267/163
f 202/265/161 213/278/172 207/270/166
f 207/270/166 213/278/172 215/280/186
f 213/281/172 184/245/143 215/282/186
f 215/282/186 184/245/143 185/246/182
f 207/270/166 215/280/186 208/271/167
f 208/271/167 215/280/186 216/283/187
f 215/284/186 185/249/182 216/285/187
f 216/285/187 185/249/182 187/250/183
f 208/271/167 216/283/187 209/272/168
f 209/272/168 216/283/187 217/286/176
f 216/287/187 187/250/183 217/288/176
f 217/288/176 187/250/183 189/252/148
f 209/272/168 217/286/176 212/275/171
f 212/275/171 217/286/176 218/289/177
f 217/290/176 189/252/148 218/291/177
f 218/291/177 189/252/148 191/254/150
f 212/275/171 218/289/177 210/273/169
f 210/273/169 218/289/177 219/292/178
f 218/293/177 191/254/150 219/294/178
f 219/294/178 191/254/150 193/256/152
f 210/273/169 219/292/178 206/269/165
f 206/269/165 219/292/178 220/295/188
f 219/296/178 193/256/152 220/297/188
f 220/297/188 193/256/152 195/258/184
f 206/269/165 220/295/188 205/268/164
f 205/268/164 220/295/188 221/298/189
f 220/299/188 195/258/184 221/300/189
f 221/300/189 195/258/184 197/260/185
f 205/268/164 221/298/189 211/274/170
f 211/274/170 221/298/189 222/301/181
f 221/302/189 197/260/185 222/303/181
f 222/303/181 197/260/185 199/262/158
f 211/274/170 222/301/181 204/267/163
f 204/267/163 222/301/181 214/279/173
f 222/304/181 199/262/158 214/305/173
f 214/305/173 199/262/158 201/264/160
s off
g Radio_TuneSG
v 0.853666 0.221377 0.51739
v 0.852442 0.219844 0.512774
v 0.778677 0.257488 0.51739
v 0.777233 0.256059 0.512774
v 0.849491 0.21614 0.510867
v 0.773754 0.252614 0.510867
v 0.700375 0.252614 0.61361
v 0.696892 0.256059 0.611704
v 0.624634 0.21614 0.61361
v 0.621683 0.219844 0.611704
v 0.695448 0.257488 0.607085
v 0.620459 0.221377 0.607085
v 0.741034 0.332006 0.517518
v 0.740803 0.33348 0.605998
v 0.745007 0.32948 0.517518
v 0.745007 0.32948 0.606957
v 0.737062 0.334531 0.517518
v 0.737036 0.334531 0.606991
v 0.733089 0.332006 0.517518
v 0.733313 0.33348 0.607941
v 0.72912 0.32948 0.517518
v 0.72912 0.32948 0.606957
v 0.90556 0.156304 0.51739
v 0.90556 0.156304 0.607085
v 0.853666 0.221377 0.607085
v 0.778677 0.257488 0.607085
v 0.695448 0.257488 0.51739
v 0.620459 0.221377 0.51739
v 0.568565 0.156304 0.51739
v 0.568565 0.156304 0.607085
v 0.550045 0.075161 0.51739
v 0.550045 0.075161 0.607085
v 0.568565 -0.005985 0.51739
v 0.568565 -0.005985 0.607085
v 0.620459 -0.071057 0.51739
v 0.620459 -0.071057 0.607085
v 0.695448 -0.107167 0.51739
v 0.695448 -0.107167 0.607085
v 0.778677 -0.107167 0.51739
v 0.778677 -0.107167 0.607085
v 0.853666 -0.071057 0.51739
v 0.853666 -0.071057 0.607085
v 0.90556 -0.005985 0.51739
v 0.90556 -0.005985 0.607085
v 0.92408 0.075161 0.51739
v 0.92408 0.075161 0.607085
v 0.737062 0.075161 0.61361
v 0.700375 0.252614 0.510867
v 0.737064 0.328208 0.510867
v 0.773754 0.252614 0.61361
v 0.737064 0.328208 0.61361
v 0.899529 0.153399 0.510867
v 0.917385 0.075161 0.510867
v 0.899529 -0.00308 0.510867
v 0.849491 -0.065823 0.510867
v 0.777187 -0.100641 0.510867
v 0.696938 -0.100641 0.510867
v 0.624634 -0.065823 0.510867
v 0.574598 -0.00308 0.510867
v 0.55674 0.075161 0.510867
v 0.574598 0.153399 0.510867
v 0.624634 0.21614 0.510867
v 0.903793 0.155452 0.512774
v 0.922121 0.075161 0.512774
v 0.743158 0.328837 0.512789
v 0.696892 0.256059 0.512774
v 0.73097 0.328837 0.512789
v 0.621683 0.219844 0.512774
v 0.570332 0.155452 0.512774
v 0.552006 0.075161 0.512774
v 0.570332 -0.005135 0.512774
v 0.621683 -0.069524 0.512774
v 0.695887 -0.105257 0.512774
v 0.778244 -0.105257 0.512774
v 0.852442 -0.069524 0.512774
v 0.903793 -0.005135 0.512774
v 0.899529 0.153399 0.61361
v 0.903793 0.155452 0.611704
v 0.849491 0.21614 0.61361
v 0.852442 0.219844 0.611704
v 0.777233 0.256059 0.611704
v 0.743158 0.328837 0.611689
v 0.73097 0.328837 0.611689
v 0.574598 0.153399 0.61361
v 0.570332 0.155452 0.611704
v 0.55674 0.075161 0.61361
v 0.552006 0.075161 0.611704
v 0.574598 -0.00308 0.61361
v 0.570332 -0.005135 0.611704
v 0.624634 -0.065823 0.61361
v 0.621683 -0.069524 0.611704
v 0.696938 -0.100641 0.61361
v 0.695887 -0.105257 0.611704
v 0.777187 -0.100641 0.61361
v 0.778244 -0.105257 0.611704
v 0.849491 -0.065823 0.61361
v 0.852442 -0.069524 0.611704
v 0.899529 -0.00308 0.61361
v 0.903793 -0.005135 0.611704
v 0.917385 0.075161 0.61361
v 0.922121 0.075161 0.611704
v 0.737064 0.332586 0.512793
v 0.74087 0.331718 0.513657
v 0.733261 0.33172 0.513665
v 0.737051 0.332585 0.611693
v 0.733412 0.332296 0.611127
v 0.740692 0.332321 0.610518
vn 0.623325 0.781696 -0.020439
vn 0.443921 0.558393 -0.700808
vn 0.704614 0.70924 -0.02231
vn 0.456452 0.456719 -0.763584
vn 0.001208 0.001525 -0.999998
vn 0.001079 0.001079 -0.999999
vn -0.01273 0.012727 0.999838
vn -0.456448 0.456756 0.763564
vn -0.015578 0.01967 0.999685
vn -0.443988 0.558479 0.700696
vn -0.704604 0.70925 0.022308
vn -0.623325 0.781696 0.020439
vn 0.535838 0.844171 -0.015909
vn 0.531397 0.847123 -0.000111
vn 0.89392 0.447767 -0.020295
vn 0.897578 0.44037 0.020687
vn -0.003367 0.999809 -0.019237
vn -0.200287 0.979702 0.008356
vn -0.537151 0.843337 -0.015846
vn -0.543596 0.838952 0.025757
vn -0.893807 0.447994 -0.020287
vn -0.890183 0.4552 0.019166
vn 0.900781 0.433796 -0.020358
vn 0.900781 0.433796 0.020358
vn 0.623325 0.781696 0.020439
vn 0.704614 0.70924 0.022308
vn -0.704604 0.70925 -0.022309
vn -0.623325 0.781696 -0.020439
vn -0.900781 0.433796 -0.020365
vn -0.900781 0.433796 0.020365
vn -0.999793 0 -0.020358
vn -0.999793 0 0.020357
vn -0.900785 -0.433788 -0.020362
vn -0.900785 -0.433788 0.020361
vn -0.623349 -0.781678 -0.020368
vn -0.623349 -0.781678 0.020367
vn -0.222464 -0.974728 -0.020358
vn -0.222464 -0.974728 0.020358
vn 0.222462 -0.974729 -0.020352
vn 0.222462 -0.974729 0.020351
vn 0.62335 -0.781678 -0.020361
vn 0.62335 -0.781678 0.02036
vn 0.900785 -0.433789 -0.020354
vn 0.900785 -0.433789 0.020354
vn 0.999793 0 -0.020343
vn 0.999793 0 0.020343
vn 0 0 1
vn -0.001079 0.001079 -0.999999
vn 1e-06 0.053201 -0.998584
vn 0.01273 0.012729 0.999838
vn 0.000265 0.053156 0.998586
vn 0.001727 0.000832 -0.999998
vn 0.001917 -0 -0.999998
vn 0.001727 -0.000832 -0.999998
vn 0.001195 -0.001498 -0.999998
vn 0.000426 -0.001868 -0.999998
vn -0.000427 -0.001868 -0.999998
vn -0.001195 -0.001498 -0.999998
vn -0.001727 -0.000832 -0.999998
vn -0.001917 -0 -0.999998
vn -0.001727 0.000832 -0.999998
vn -0.001208 0.001525 -0.999998
vn 0.644279 0.31027 -0.699026
vn 0.715158 -0 -0.698962
vn 0.584118 0.288794 -0.758554
vn -0.456325 0.456633 -0.763711
vn -0.583898 0.288716 -0.758753
vn -0.443881 0.558345 -0.700871
vn -0.644226 0.310233 -0.699091
vn -0.715074 -0 -0.699049
vn -0.644258 -0.31026 -0.69905
vn -0.445837 -0.559087 -0.699036
vn -0.159099 -0.6972 -0.698999
vn 0.159146 -0.697195 -0.698994
vn 0.445862 -0.559107 -0.699004
vn 0.64431 -0.310297 -0.698985
vn 0.022786 0.010974 0.99968
vn 0.644434 0.310344 0.69885
vn 0.015578 0.01967 0.999685
vn 0.444028 0.558527 0.700633
vn 0.456575 0.456842 0.763436
vn 0.584125 0.289633 0.758229
vn -0.585658 0.287197 0.757972
vn -0.022785 0.010974 0.99968
vn -0.644381 0.310308 0.698915
vn -0.02529 0 0.99968
vn -0.715246 -0 0.698873
vn -0.022786 -0.010973 0.99968
vn -0.644413 -0.310335 0.698874
vn -0.015768 -0.019773 0.99968
vn -0.445944 -0.559221 0.698861
vn -0.005629 -0.024656 0.99968
vn -0.159138 -0.697368 0.698823
vn 0.005626 -0.024656 0.99968
vn 0.159184 -0.697362 0.698817
vn 0.015767 -0.019772 0.99968
vn 0.445969 -0.559242 0.698828
vn 0.022786 -0.010973 0.99968
vn 0.644465 -0.310371 0.698809
vn 0.02529 0 0.99968
vn 0.71533 -0 0.698786
vn -2.2e-05 0.628834 -0.77754
vn 0.475919 0.759361 -0.443702
vn -0.476001 0.75957 -0.443257
vn 0.042469 0.571068 0.819804
vn -0.429286 0.682153 0.591929
vn 0.473345 0.756753 0.450853
vt 0.018681 0.143175
vt 0.014799 0.142988
vt 0.021636 0.078279
vt 0.017724 0.078068
vt 0.408528 0.166446
vt 0.412501 0.165991
vt 0.430179 0.228163
vt 0.434291 0.228173
vt 0.175693 0.030484
vt 0.175738 0.026361
vt 0.238105 0.009112
vt 0.237679 0.005131
vt 0.095927 0.92477
vt 0.091963 0.924997
vt 0.091744 0.859116
vt 0.087814 0.859336
vt 0.025451 0.012624
vt 0.094269 0.015386
vt 0.025283 0.016268
vt 0.09477 0.019915
vt 0.025653 0.008974
vt 0.095199 0.012396
vt 0.025794 0.00531
vt 0.09612 0.009426
vt 0.024657 0.992298
vt 0.095672 0.987973
vt 0.024847 0.996032
vt 0.096788 0.992515
vt 0.015464 0.207776
vt 0.085011 0.211023
vt 0.088166 0.146654
vt 0.091908 0.08192
vt 0.020503 0.929135
vt 0.017219 0.863076
vt 0.013903 0.797338
vt 0.084508 0.794068
vt 0.011081 0.731514
vt 0.081693 0.728825
vt 0.008867 0.66564
vt 0.079439 0.66364
vt 0.007383 0.599767
vt 0.077861 0.598578
vt 0.006743 0.533979
vt 0.077082 0.533666
vt 0.006938 0.468334
vt 0.077123 0.468908
vt 0.007988 0.402832
vt 0.078005 0.404303
vt 0.009902 0.337543
vt 0.079738 0.339817
vt 0.012479 0.272537
vt 0.082149 0.275401
vt 0.253147 0.14976
vt 0.474975 0.268792
vt 0.412992 0.290272
vt 0.134727 0.070995
vt 0.113555 0.008623
vt 0.419471 0.103477
vt 0.452862 0.05017
vt 0.506069 0.016614
vt 0.56856 0.009459
vt 0.627961 0.030103
vt 0.672524 0.074467
vt 0.693435 0.13376
vt 0.686551 0.196242
vt 0.653241 0.24956
vt 0.599859 0.283281
vt 0.53716 0.290505
vt 0.415695 0.102161
vt 0.450026 0.047341
vt 0.011561 0.207591
vt 0.008565 0.27237
vt 0.02133 0.015833
vt 0.409036 0.287212
vt 0.474997 0.272903
vt 0.416067 0.294217
vt 0.016519 0.929371
vt 0.020634 0.992751
vt 0.013266 0.863276
vt 0.53668 0.294505
vt 0.009934 0.797522
vt 0.601927 0.288136
vt 0.007108 0.731666
vt 0.656112 0.252362
vt 0.004893 0.665751
vt 0.690331 0.197554
vt 0.003411 0.599831
vt 0.697409 0.133304
vt 0.002779 0.533991
vt 0.675907 0.072328
vt 0.002983 0.468295
vt 0.630083 0.026709
vt 0.004041 0.402743
vt 0.569001 0.005482
vt 0.00597 0.337407
vt 0.504742 0.012839
vt 0.119381 0.195752
vt 0.115594 0.197055
vt 0.112671 0.133165
vt 0.108696 0.132695
vt 0.088899 0.211207
vt 0.09204 0.146859
vt 0.130605 0.070991
vt 0.095818 0.082117
vt 0.10957 0.011675
vt 0.09875 0.019905
vt 0.099714 0.987914
vt 0.116663 0.004679
vt 0.300634 0.016519
vt 0.30198 0.012744
vt 0.088448 0.793883
vt 0.353724 0.050319
vt 0.356573 0.047502
vt 0.085631 0.728672
vt 0.386904 0.103813
vt 0.390694 0.102511
vt 0.083372 0.663525
vt 0.393593 0.166413
vt 0.397571 0.166885
vt 0.081785 0.598507
vt 0.372446 0.225707
vt 0.375823 0.22786
vt 0.080996 0.533642
vt 0.32769 0.26995
vt 0.3298 0.273355
vt 0.081028 0.468934
vt 0.268182 0.290398
vt 0.268608 0.294379
vt 0.081903 0.404383
vt 0.205687 0.283006
vt 0.204345 0.286779
vt 0.083629 0.339942
vt 0.152582 0.249224
vt 0.149733 0.252043
vt 0.086037 0.27556
vt 0.021589 0.008932
vt 0.022174 0.012509
vt 0.410388 0.292897
vt 0.408482 0.290247
vt 0.021479 0.995923
vt 0.022379 0.005482
vt 0.413042 0.294792
vt 0.110942 0.005966
vt 0.11323 0.003968
vt 0.099299 0.012858
vt 0.099069 0.009656
vt 0.099552 0.991529
vt 0.09804 0.016036
vt 0.108693 0.008156
usemtl TuneSG
f 223/306/190 224/307/191 225/308/192
f 225/308/192 224/307/191 226/309/193
f 224/310/191 227/311/194 226/312/193
f 226/312/193 227/311/194 228/313/195
f 229/314/196 230/315/197 231/316/198
f 231/316/198 230/315/197 232/317/199
f 230/318/197 233/319/200 232/320/199
f 232/320/199 233/319/200 234/321/201
f 235/322/202 236/323/203 237/324/204
f 237/324/204 236/323/203 238/325/205
f 235/322/202 239/326/206 236/323/203
f 236/323/203 239/326/206 240/327/207
f 239/326/206 241/328/208 240/327/207
f 240/327/207 241/328/208 242/329/209
f 243/330/210 244/331/211 241/332/208
f 241/332/208 244/331/211 242/333/209
f 245/334/212 223/306/190 246/335/213
f 246/335/213 223/306/190 247/336/214
f 223/306/190 225/308/192 247/336/214
f 247/336/214 225/308/192 248/337/215
f 249/338/216 250/339/217 233/319/200
f 233/319/200 250/339/217 234/321/201
f 250/339/217 251/340/218 234/321/201
f 234/321/201 251/340/218 252/341/219
f 251/340/218 253/342/220 252/341/219
f 252/341/219 253/342/220 254/343/221
f 253/342/220 255/344/222 254/343/221
f 254/343/221 255/344/222 256/345/223
f 255/344/222 257/346/224 256/345/223
f 256/345/223 257/346/224 258/347/225
f 257/346/224 259/348/226 258/347/225
f 258/347/225 259/348/226 260/349/227
f 259/348/226 261/350/228 260/349/227
f 260/349/227 261/350/228 262/351/229
f 261/350/228 263/352/230 262/351/229
f 262/351/229 263/352/230 264/353/231
f 263/352/230 265/354/232 264/353/231
f 264/353/231 265/354/232 266/355/233
f 265/354/232 267/356/234 266/355/233
f 266/355/233 267/356/234 268/357/235
f 267/356/234 245/334/212 268/357/235
f 268/357/235 245/334/212 246/335/213
f 269/358/236 229/314/196 231/316/198
f 228/313/195 270/359/237 271/360/238
f 249/338/216 233/319/200 243/330/210
f 243/330/210 233/319/200 244/331/211
f 229/314/196 272/361/239 273/362/240
f 248/337/215 225/308/192 238/325/205
f 238/325/205 225/308/192 237/324/204
f 227/311/194 274/363/241 228/313/195
f 274/363/241 275/364/242 228/313/195
f 275/364/242 276/365/243 228/313/195
f 276/365/243 277/366/244 228/313/195
f 277/366/244 278/367/245 228/313/195
f 278/367/245 279/368/246 228/313/195
f 279/368/246 280/369/247 228/313/195
f 280/369/247 281/370/248 228/313/195
f 281/370/248 282/371/249 228/313/195
f 282/371/249 283/372/250 228/313/195
f 283/372/250 284/373/251 228/313/195
f 284/373/251 270/359/237 228/313/195
f 274/363/241 285/374/252 275/364/242
f 275/364/242 285/374/252 286/375/253
f 285/376/252 245/334/212 286/377/253
f 286/377/253 245/334/212 267/356/234
f 245/334/212 285/376/252 223/306/190
f 223/306/190 285/376/252 224/307/191
f 285/374/252 274/363/241 224/310/191
f 224/310/191 274/363/241 227/311/194
f 226/309/193 287/378/254 225/308/192
f 225/308/192 287/378/254 237/324/204
f 226/312/193 228/313/195 287/379/254
f 287/379/254 228/313/195 271/360/238
f 288/380/255 289/381/256 270/359/237
f 270/359/237 289/381/256 271/360/238
f 288/382/255 249/338/216 289/383/256
f 289/383/256 249/338/216 243/330/210
f 288/382/255 290/384/257 249/338/216
f 249/338/216 290/384/257 250/339/217
f 270/359/237 284/373/251 288/380/255
f 288/380/255 284/373/251 290/385/257
f 250/339/217 290/384/257 251/340/218
f 251/340/218 290/384/257 291/386/258
f 290/385/257 284/373/251 291/387/258
f 291/387/258 284/373/251 283/372/250
f 251/340/218 291/386/258 253/342/220
f 253/342/220 291/386/258 292/388/259
f 291/387/258 283/372/250 292/389/259
f 292/389/259 283/372/250 282/371/249
f 253/342/220 292/388/259 255/344/222
f 255/344/222 292/388/259 293/390/260
f 292/389/259 282/371/249 293/391/260
f 293/391/260 282/371/249 281/370/248
f 255/344/222 293/390/260 257/346/224
f 257/346/224 293/390/260 294/392/261
f 293/391/260 281/370/248 294/393/261
f 294/393/261 281/370/248 280/369/247
f 257/346/224 294/392/261 259/348/226
f 259/348/226 294/392/261 295/394/262
f 294/393/261 280/369/247 295/395/262
f 295/395/262 280/369/247 279/368/246
f 259/348/226 295/394/262 261/350/228
f 261/350/228 295/394/262 296/396/263
f 295/395/262 279/368/246 296/397/263
f 296/397/263 279/368/246 278/367/245
f 261/350/228 296/396/263 263/352/230
f 263/352/230 296/396/263 297/398/264
f 296/397/263 278/367/245 297/399/264
f 297/399/264 278/367/245 277/366/244
f 263/352/230 297/398/264 265/354/232
f 265/354/232 297/398/264 298/400/265
f 297/399/264 277/366/244 298/401/265
f 298/401/265 277/366/244 276/365/243
f 265/354/232 298/400/265 267/356/234
f 267/356/234 298/400/265 286/377/253
f 298/401/265 276/365/243 286/375/253
f 286/375/253 276/365/243 275/364/242
f 299/402/266 300/403/267 301/404/268
f 301/404/268 300/403/267 302/405/269
f 300/406/267 246/335/213 302/407/269
f 302/407/269 246/335/213 247/336/214
f 302/405/269 303/408/270 301/404/268
f 301/404/268 303/408/270 272/361/239
f 247/336/214 248/337/215 302/407/269
f 302/407/269 248/337/215 303/409/270
f 303/408/270 304/410/271 272/361/239
f 272/361/239 304/410/271 273/362/240
f 303/409/270 248/337/215 304/411/271
f 304/411/271 248/337/215 238/325/205
f 230/318/197 305/412/272 233/319/200
f 233/319/200 305/412/272 244/331/211
f 230/315/197 229/314/196 305/413/272
f 305/413/272 229/314/196 273/362/240
f 231/316/198 232/317/199 306/414/273
f 306/414/273 232/317/199 307/415/274
f 232/320/199 234/321/201 307/416/274
f 307/416/274 234/321/201 252/341/219
f 306/414/273 307/415/274 308/417/275
f 308/417/275 307/415/274 309/418/276
f 307/416/274 252/341/219 309/419/276
f 309/419/276 252/341/219 254/343/221
f 308/417/275 309/418/276 310/420/277
f 310/420/277 309/418/276 311/421/278
f 309/419/276 254/343/221 311/422/278
f 311/422/278 254/343/221 256/345/223
f 310/420/277 311/421/278 312/423/279
f 312/423/279 311/421/278 313/424/280
f 311/422/278 256/345/223 313/425/280
f 313/425/280 256/345/223 258/347/225
f 312/423/279 313/424/280 314/426/281
f 314/426/281 313/424/280 315/427/282
f 313/425/280 258/347/225 315/428/282
f 315/428/282 258/347/225 260/349/227
f 314/426/281 315/427/282 316/429/283
f 316/429/283 315/427/282 317/430/284
f 315/428/282 260/349/227 317/431/284
f 317/431/284 260/349/227 262/351/229
f 316/429/283 317/430/284 318/432/285
f 318/432/285 317/430/284 319/433/286
f 317/431/284 262/351/229 319/434/286
f 319/434/286 262/351/229 264/353/231
f 318/432/285 319/433/286 320/435/287
f 320/435/287 319/433/286 321/436/288
f 319/434/286 264/353/231 321/437/288
f 321/437/288 264/353/231 266/355/233
f 320/435/287 321/436/288 322/438/289
f 322/438/289 321/436/288 323/439/290
f 321/437/288 266/355/233 323/440/290
f 323/440/290 266/355/233 268/357/235
f 246/335/213 300/406/267 268/357/235
f 268/357/235 300/406/267 323/440/290
f 300/403/267 299/402/266 323/439/290
f 323/439/290 299/402/266 322/438/289
f 324/441/291 239/326/206 325/442/292
f 325/442/292 239/326/206 235/322/202
f 235/322/202 237/324/204 325/442/292
f 325/442/292 237/324/204 287/378/254
f 271/360/238 324/443/291 287/379/254
f 287/379/254 324/443/291 325/444/292
f 289/383/256 243/330/210 326/445/293
f 326/445/293 243/330/210 241/332/208
f 241/328/208 239/326/206 326/446/293
f 326/446/293 239/326/206 324/441/291
f 271/360/238 289/381/256 324/443/291
f 324/443/291 289/381/256 326/447/293
f 273/362/240 327/448/294 305/413/272
f 305/413/272 327/448/294 328/449/295
f 240/327/207 242/329/209 327/450/294
f 327/450/294 242/329/209 328/451/295
f 244/331/211 305/412/272 242/333/209
f 242/333/209 305/412/272 328/452/295
f 304/411/271 238/325/205 329/453/296
f 329/453/296 238/325/205 236/323/203
f 236/323/203 240/327/207 329/453/296
f 329/453/296 240/327/207 327/450/294
f 273/362/240 304/410/271 327/448/294
f 327/448/294 304/410/271 329/454/296
f 318/432/285 269/358/236 316/429/283
f 299/402/266 269/358/236 322/438/289
f 269/358/236 306/414/273 308/417/275
f 310/420/277 269/358/236 308/417/275
f 322/438/289 269/358/236 320/435/287
f 320/435/287 269/358/236 318/432/285
f 269/358/236 301/404/268 272/361/239
f 299/402/266 301/404/268 269/358/236
f 269/358/236 272/361/239 229/314/196
f 269/358/236 231/316/198 306/414/273
f 316/429/283 269/358/236 314/426/281
f 312/423/279 269/358/236 310/420/277
f 314/426/281 269/358/236 312/423/279
s off
g Radio_NumberSG
v 0.737061 0.075161 0.519738
v 0.831375 0.120319 0.519738
v 0.802576 0.156622 0.519736
v 0.841639 0.075161 0.519738
v 0.760847 0.176885 0.519736
v 0.714401 0.176974 0.519736
v 0.67252 0.156821 0.519736
v 0.643541 0.120477 0.519736
v 0.633198 0.075161 0.519738
v 0.643541 0.029845 0.519736
v 0.67252 -0.0065 0.519738
v 0.714401 -0.026653 0.519738
v 0.760847 -0.026564 0.519736
v 0.802576 -0.006301 0.519738
v 0.831375 0.030003 0.519738
v 1.02603 0.213881 0.465676
v 1.03224 0.218557 0.451674
v 0.937569 0.325395 0.465579
v 0.940657 0.333551 0.451947
v 1.06493 0.075161 0.451565
v 1.05757 0.075161 0.465705
v 0.809389 0.387639 0.465462
v 0.808338 0.397368 0.452422
v 0.666716 0.387914 0.465384
v 0.661566 0.397368 0.453162
v 0.538061 0.326008 0.465373
v 0.529388 0.333551 0.453971
v 0.449049 0.214363 0.46538
v 0.43792 0.218557 0.454514
v 0.417276 0.075161 0.46538
v 0.40526 0.075161 0.454693
v 0.43792 -0.068233 0.454514
v 0.449049 -0.064039 0.46538
v 0.529388 -0.183229 0.453971
v 0.538061 -0.175685 0.465373
v 0.661566 -0.247044 0.453162
v 0.666716 -0.237591 0.465384
v 0.808338 -0.247044 0.452422
v 0.809389 -0.237315 0.465462
v 0.940657 -0.183229 0.451947
v 0.937569 -0.175073 0.465579
v 1.03224 -0.068233 0.451674
v 1.02603 -0.063557 0.465676
v 1.01321 0.218557 0.406613
v 0.921509 0.333551 0.406613
v 0.788984 0.397368 0.406613
v 0.641905 0.397368 0.406613
v 0.509386 0.333551 0.406613
v 0.417685 0.218557 0.406613
v 0.384954 0.075161 0.406613
v 0.417685 -0.068233 0.406613
v 0.509386 -0.183229 0.406613
v 0.641905 -0.247044 0.406613
v 0.788984 -0.247044 0.406613
v 0.921509 -0.183229 0.406613
v 1.01321 -0.068233 0.406613
v 1.04594 0.075161 0.406613
vn -0 -0 1
vn 5e-06 2e-06 1
vn 3e-06 4e-06 1
vn 5e-06 0 1
vn 1e-06 5e-06 1
vn -1e-06 5e-06 1
vn -3e-06 4e-06 1
vn -5e-06 2e-06 1
vn -5e-06 0 1
vn -5e-06 -2e-06 1
vn -3e-06 -4e-06 1
vn -1e-06 -5e-06 1
vn 1e-06 -5e-06 1
vn 3e-06 -4e-06 1
vn 5e-06 -2e-06 1
vn 0.293932 0.14048 0.945447
vn 0.891364 0.421885 -0.16578
vn 0.20226 0.250894 0.946648
vn 0.631309 0.772187 -0.071945
vn 0.980205 0 -0.197985
vn 0.327045 0 0.945009
vn 0.072536 0.308366 0.948498
vn 0.236612 0.969014 0.070897
vn -0.066992 0.302648 0.950745
vn -0.202232 0.951808 0.230573
vn -0.187979 0.238185 0.952855
vn -0.571627 0.73497 0.364776
vn -0.269057 0.130446 0.954249
vn -0.802806 0.39342 0.448021
vn -0.297522 0 0.954715
vn -0.879715 0 0.475501
vn -0.802807 -0.39342 0.448021
vn -0.269057 -0.130447 0.954249
vn -0.571629 -0.734967 0.364779
vn -0.18798 -0.238185 0.952855
vn -0.20223 -0.951807 0.230578
vn -0.066991 -0.302649 0.950745
vn 0.236609 -0.969015 0.070901
vn 0.072535 -0.308367 0.948498
vn 0.631313 -0.772184 -0.07195
vn 0.202261 -0.250894 0.946648
vn 0.891363 -0.421885 -0.165784
vn 0.293933 -0.140481 0.945446
vn 0.838318 0.414573 -0.35405
vn 0.589298 0.768619 -0.248902
vn 0.197991 0.976629 -0.083638
vn -0.245484 0.963839 0.103688
vn -0.617145 0.742414 0.26068
vn -0.846003 0.395708 0.357345
vn -0.921196 0 0.389099
vn -0.846002 -0.395709 0.357344
vn -0.617148 -0.742411 0.260681
vn -0.245481 -0.96384 0.103687
vn 0.197989 -0.97663 -0.083637
vn 0.589301 -0.768617 -0.248904
vn 0.838318 -0.414574 -0.35405
vn 0.921212 -0 -0.389061
vn 0.15166 0.189972 0.970005
vn 0.218835 0.105297 0.970064
vn 0.242776 -0 0.970082
vn 0.054233 0.237265 0.96993
vn -0.05425 0.237595 0.969848
vn -0.152125 0.190705 0.969788
vn -0.219917 0.105884 0.969755
vn -0.244125 -0 0.969744
vn -0.219918 -0.105885 0.969755
vn -0.152126 -0.190706 0.969788
vn -0.054249 -0.237596 0.969848
vn 0.054231 -0.237267 0.96993
vn 0.15166 -0.189972 0.970005
vn 0.218836 -0.105298 0.970064
vt 0.437172 0.308585
vt 0.43752 0.404964
vt 0.395842 0.395631
vt 0.479115 0.395333
vt 0.362302 0.369127
vt 0.34362 0.33063
vt 0.343559 0.287816
vt 0.362094 0.24922
vt 0.395523 0.222479
vt 0.437237 0.212877
vt 0.478991 0.222315
vt 0.512514 0.248948
vt 0.531101 0.287497
vt 0.53106 0.330246
vt 0.512499 0.368708
vt 0.060905 0.697315
vt 0.04661 0.697315
vt 0.060905 0.553499
vt 0.04661 0.553499
vt 0.04661 0.847924
vt 0.060905 0.847924
vt 0.060905 0.413736
vt 0.04661 0.413736
vt 0.060905 0.275687
vt 0.04661 0.275687
vt 0.060905 0.138731
vt 0.04661 0.138731
vt 0.060905 0.005277
vt 0.04661 0.005277
vt 0.071555 0.003968
vt 0.085491 0.003968
vt 0.071555 0.127145
vt 0.085491 0.127145
vt 0.085491 0.261354
vt 0.071555 0.261354
vt 0.085491 0.400674
vt 0.071555 0.400673
vt 0.085491 0.542014
vt 0.071555 0.542014
vt 0.085491 0.685675
vt 0.071555 0.685675
vt 0.08549 0.834666
vt 0.071555 0.834666
vt 0.08549 0.991689
vt 0.071555 0.99169
vt 0.04661 0.996031
vt 0.060905 0.996032
vt 0.002927 0.697315
vt 0.002927 0.553499
vt 0.002927 0.413736
vt 0.002927 0.275686
vt 0.002927 0.138731
vt 0.002927 0.005277
vt 0.130607 0.003968
vt 0.130607 0.127145
vt 0.130607 0.261354
vt 0.130607 0.400673
vt 0.130607 0.542014
vt 0.130607 0.685674
vt 0.130607 0.834666
vt 0.130607 0.99169
vt 0.002927 0.847923
vt 0.002927 0.996032
vt 0.305762 0.583856
vt 0.437934 0.613645
vt 0.570038 0.583347
vt 0.199489 0.499734
vt 0.140343 0.377687
vt 0.140183 0.241998
vt 0.198926 0.119726
vt 0.304852 0.034982
vt 0.437027 0.004569
vt 0.569369 0.034447
vt 0.675619 0.118811
vt 0.734577 0.240967
vt 0.734536 0.376494
vt 0.675809 0.498602
usemtl NumberSG
f 330/455/297 331/456/298 332/457/299
f 330/455/297 333/458/300 331/456/298
f 330/455/297 332/457/299 334/459/301
f 330/455/297 334/459/301 335/460/302
f 330/455/297 335/460/302 336/461/303
f 330/455/297 336/461/303 337/462/304
f 330/455/297 337/462/304 338/463/305
f 330/455/297 338/463/305 339/464/306
f 330/455/297 339/464/306 340/465/307
f 330/455/297 340/465/307 341/466/308
f 330/455/297 341/466/308 342/467/309
f 330/455/297 342/467/309 343/468/310
f 330/455/297 343/468/310 344/469/311
f 330/455/297 344/469/311 333/458/300
f 345/470/312 346/471/313 347/472/314
f 347/472/314 346/471/313 348/473/315
f 346/471/313 345/470/312 349/474/316
f 349/474/316 345/470/312 350/475/317
f 347/472/314 348/473/315 351/476/318
f 351/476/318 348/473/315 352/477/319
f 351/476/318 352/477/319 353/478/320
f 353/478/320 352/477/319 354/479/321
f 353/478/320 354/479/321 355/480/322
f 355/480/322 354/479/321 356/481/323
f 355/480/322 356/481/323 357/482/324
f 357/482/324 356/481/323 358/483/325
f 357/484/324 358/485/325 359/486/326
f 359/486/326 358/485/325 360/487/327
f 360/487/327 361/488/328 359/486/326
f 359/486/326 361/488/328 362/489/329
f 361/488/328 363/490/330 362/489/329
f 362/489/329 363/490/330 364/491/331
f 363/490/330 365/492/332 364/491/331
f 364/491/331 365/492/332 366/493/333
f 365/492/332 367/494/334 366/493/333
f 366/493/333 367/494/334 368/495/335
f 367/494/334 369/496/336 368/495/335
f 368/495/335 369/496/336 370/497/337
f 369/496/336 371/498/338 370/497/337
f 370/497/337 371/498/338 372/499/339
f 371/500/338 349/474/316 372/501/339
f 372/501/339 349/474/316 350/475/317
f 346/471/313 373/502/340 348/473/315
f 348/473/315 373/502/340 374/503/341
f 348/473/315 374/503/341 352/477/319
f 352/477/319 374/503/341 375/504/342
f 352/477/319 375/504/342 354/479/321
f 354/479/321 375/504/342 376/505/343
f 354/479/321 376/505/343 356/481/323
f 356/481/323 376/505/343 377/506/344
f 356/481/323 377/506/344 358/483/325
f 358/483/325 377/506/344 378/507/345
f 358/485/325 378/508/345 360/487/327
f 360/487/327 378/508/345 379/509/346
f 361/488/328 360/487/327 380/510/347
f 380/510/347 360/487/327 379/509/346
f 363/490/330 361/488/328 381/511/348
f 381/511/348 361/488/328 380/510/347
f 365/492/332 363/490/330 382/512/349
f 382/512/349 363/490/330 381/511/348
f 367/494/334 365/492/332 383/513/350
f 383/513/350 365/492/332 382/512/349
f 369/496/336 367/494/334 384/514/351
f 384/514/351 367/494/334 383/513/350
f 371/498/338 369/496/336 385/515/352
f 385/515/352 369/496/336 384/514/351
f 349/474/316 371/500/338 386/516/353
f 386/516/353 371/500/338 385/517/352
f 349/474/316 386/516/353 346/471/313
f 346/471/313 386/516/353 373/502/340
f 347/518/314 332/457/354 345/519/312
f 345/519/312 332/457/354 331/456/355
f 350/520/317 345/519/312 333/458/356
f 333/458/356 345/519/312 331/456/355
f 351/521/318 334/459/357 347/518/314
f 347/518/314 334/459/357 332/457/354
f 351/521/318 353/522/320 334/459/357
f 334/459/357 353/522/320 335/460/358
f 353/522/320 355/523/322 335/460/358
f 335/460/358 355/523/322 336/461/359
f 355/523/322 357/524/324 336/461/359
f 336/461/359 357/524/324 337/462/360
f 357/524/324 359/525/326 337/462/360
f 337/462/360 359/525/326 338/463/361
f 359/525/326 362/526/329 338/463/361
f 338/463/361 362/526/329 339/464/362
f 364/527/331 340/465/363 362/526/329
f 362/526/329 340/465/363 339/464/362
f 366/528/333 341/466/364 364/527/331
f 364/527/331 341/466/364 340/465/363
f 366/528/333 368/529/335 341/466/364
f 341/466/364 368/529/335 342/467/365
f 368/529/335 370/530/337 342/467/365
f 342/467/365 370/530/337 343/468/366
f 370/530/337 372/531/339 343/468/366
f 343/468/366 372/531/339 344/469/367
f 372/531/339 350/520/317 344/469/367
f 344/469/367 350/520/317 333/458/356
s off
g Radio_LegSG
v 0.804173 -0.53732 -0.405359
v 0.795721 -0.53732 -0.445053
v 0.817619 -0.591658 -0.405359
v 0.810707 -0.597896 -0.445053
v 0.850561 -0.624607 -0.405359
v 0.844326 -0.631513 -0.445053
v 0.890257 -0.643817 -0.445053
v 0.890257 -0.631513 -0.399122
v 0.850561 -0.591658 -0.372409
v 0.890257 -0.597896 -0.365503
v 0.890257 -0.53732 -0.350511
v 0.850561 -0.53732 -0.358962
v 0.929953 -0.624607 -0.405359
v 0.936188 -0.631513 -0.445053
v 0.962896 -0.591658 -0.405359
v 0.969807 -0.597896 -0.445053
v 0.984795 -0.53732 -0.445053
v 0.976349 -0.53732 -0.405359
v 0.929953 -0.591658 -0.372409
v 0.929953 -0.53732 -0.358962
v 0.890257 -0.631513 -0.490983
v 0.850561 -0.624607 -0.484748
v 0.817619 -0.591658 -0.484748
v 0.804173 -0.53732 -0.484748
v 0.850561 -0.591658 -0.517692
v 0.850561 -0.53732 -0.531139
v 0.890257 -0.53732 -0.53959
v 0.890257 -0.597896 -0.524604
v 0.976349 -0.53732 -0.484748
v 0.962896 -0.591658 -0.484748
v 0.929953 -0.624607 -0.484748
v 0.929953 -0.591658 -0.517692
v 0.929953 -0.53732 -0.531139
v 0.804173 -0.53732 0.265271
v 0.795721 -0.53732 0.225577
v 0.817619 -0.591658 0.265271
v 0.810707 -0.597896 0.225577
v 0.850561 -0.624607 0.265271
v 0.844326 -0.631513 0.225577
v 0.890257 -0.643817 0.225577
v 0.890257 -0.631513 0.271508
v 0.850561 -0.591658 0.29822
v 0.890257 -0.597896 0.305127
v 0.890257 -0.53732 0.320119
v 0.850561 -0.53732 0.311667
v 0.929953 -0.624607 0.265271
v 0.936188 -0.631513 0.225577
v 0.962896 -0.591658 0.265271
v 0.969807 -0.597896 0.225577
v 0.984795 -0.53732 0.225577
v 0.976349 -0.53732 0.265271
v 0.929953 -0.591658 0.29822
v 0.929953 -0.53732 0.311667
v 0.890257 -0.631513 0.179646
v 0.850561 -0.624607 0.185881
v 0.817619 -0.591658 0.185881
v 0.804173 -0.53732 0.185881
v 0.850561 -0.591658 0.152938
v 0.850561 -0.53732 0.139491
v 0.890257 -0.53732 0.131039
v 0.890257 -0.597896 0.146025
v 0.976349 -0.53732 0.185881
v 0.962896 -0.591658 0.185881
v 0.929953 -0.624607 0.185881
v 0.929953 -0.591658 0.152938
v 0.929953 -0.53732 0.139491
v -0.973419 -0.53732 -0.405359
v -0.981871 -0.53732 -0.445053
v -0.959972 -0.591658 -0.405359
v -0.966885 -0.597896 -0.445053
v -0.927031 -0.624607 -0.405359
v -0.933266 -0.631513 -0.445053
v -0.887335 -0.643817 -0.445053
v -0.887335 -0.631513 -0.399122
v -0.927031 -0.591658 -0.372409
v -0.887335 -0.597896 -0.365503
v -0.887335 -0.53732 -0.350511
v -0.927031 -0.53732 -0.358962
v -0.847639 -0.624607 -0.405359
v -0.841404 -0.631513 -0.445053
v -0.814695 -0.591658 -0.405359
v -0.807785 -0.597896 -0.445053
v -0.792797 -0.53732 -0.445053
v -0.801243 -0.53732 -0.405359
v -0.847639 -0.591658 -0.372409
v -0.847639 -0.53732 -0.358962
v -0.887335 -0.631513 -0.490983
v -0.927031 -0.624607 -0.484748
v -0.959972 -0.591658 -0.484748
v -0.973419 -0.53732 -0.484748
v -0.927031 -0.591658 -0.517692
v -0.927031 -0.53732 -0.531139
v -0.887335 -0.53732 -0.53959
v -0.887335 -0.597896 -0.524604
v -0.801243 -0.53732 -0.484748
v -0.814695 -0.591658 -0.484748
v -0.847639 -0.624607 -0.484748
v -0.847639 -0.591658 -0.517692
v -0.847639 -0.53732 -0.531139
v -0.973419 -0.53732 0.265271
v -0.981871 -0.53732 0.225577
v -0.959972 -0.591658 0.265271
v -0.966885 -0.597896 0.225577
v -0.927031 -0.624607 0.265271
v -0.933266 -0.631513 0.225577
v -0.887335 -0.643817 0.225577
v -0.887335 -0.631513 0.271508
v -0.927031 -0.591658 0.29822
v -0.887335 -0.597896 0.305127
v -0.887335 -0.53732 0.320119
v -0.927031 -0.53732 0.311667
v -0.847639 -0.624607 0.265271
v -0.841404 -0.631513 0.225577
v -0.814695 -0.591658 0.265271
v -0.807785 -0.597896 0.225577
v -0.792797 -0.53732 0.225577
v -0.801243 -0.53732 0.265271
v -0.847639 -0.591658 0.29822
v -0.847639 -0.53732 0.311667
v -0.887335 -0.631513 0.179646
v -0.927031 -0.624607 0.185881
v -0.959972 -0.591658 0.185881
v -0.973419 -0.53732 0.185881
v -0.927031 -0.591658 0.152938
v -0.927031 -0.53732 0.139491
v -0.887335 -0.53732 0.131039
v -0.887335 -0.597896 0.146025
v -0.801243 -0.53732 0.185881
v -0.814695 -0.591658 0.185881
v -0.847639 -0.624607 0.185881
v -0.847639 -0.591658 0.152938
v -0.847639 -0.53732 0.139491
vn -0.850542 -0.210464 0.481958
vn -0.970726 -0.240191 -2e-06
vn -0.811097 -0.35915 0.461663
vn -0.881864 -0.471504 -0
vn -0.4155 -0.80915 0.415496
vn -0.496393 -0.868098 0
vn 1e-06 -1 -0
vn -1.7e-05 -0.868097 0.496394
vn -0.461711 -0.359183 0.811055
vn -1.7e-05 -0.471565 0.881831
vn -3e-06 -0.240231 0.970716
vn -0.482008 -0.210492 0.850506
vn 0.415492 -0.809151 0.4155
vn 0.496412 -0.868087 -0
vn 0.81108 -0.359195 0.461659
vn 0.881841 -0.471547 1e-06
vn 0.970702 -0.240287 3e-06
vn 0.850531 -0.210544 0.481941
vn 0.461678 -0.35921 0.811062
vn 0.481986 -0.210517 0.850513
vn 1e-06 -0.868097 -0.496395
vn -0.415484 -0.809155 -0.415501
vn -0.811086 -0.359161 -0.461675
vn -0.850532 -0.210473 -0.481971
vn -0.461677 -0.359178 -0.811077
vn -0.48198 -0.210475 -0.850527
vn 0 -0.240186 -0.970727
vn 0 -0.471523 -0.881854
vn 0.850523 -0.210539 -0.481959
vn 0.811067 -0.359202 -0.461675
vn 0.415494 -0.809147 -0.415507
vn 0.461661 -0.35918 -0.811085
vn 0.481961 -0.210488 -0.850534
vn -0.850537 -0.210469 0.481964
vn -0.970725 -0.240196 2e-06
vn -0.811098 -0.359149 0.461663
vn -0.881863 -0.471506 0
vn -0.415497 -0.80915 0.415498
vn -0.496401 -0.868093 -2e-06
vn 7e-06 -0.868098 0.496394
vn -0.461704 -0.359185 0.811058
vn 3e-06 -0.471565 0.881832
vn -6e-06 -0.240231 0.970716
vn -0.482011 -0.210491 0.850505
vn 0.415508 -0.809145 0.415496
vn 0.496414 -0.868086 -0
vn 0.811078 -0.359196 0.461662
vn 0.881838 -0.471553 -1e-06
vn 0.970701 -0.240289 -1e-06
vn 0.850527 -0.210545 0.481949
vn 0.461688 -0.359207 0.811058
vn 9e-06 -0.868097 -0.496395
vn -0.415494 -0.809151 -0.415499
vn -0.811085 -0.359162 -0.461674
vn -0.850533 -0.210472 -0.48197
vn -0.461706 -0.359173 -0.811063
vn -0.482018 -0.21047 -0.850507
vn -5e-06 -0.240186 -0.970727
vn 4e-06 -0.471523 -0.881854
vn 0.850524 -0.210539 -0.481957
vn 0.41551 -0.80914 -0.415504
vn 0.461692 -0.359173 -0.81107
vn 0.481993 -0.210483 -0.850517
vn -0.811092 -0.359163 0.461661
vn -0.881858 -0.471515 -0
vn -0.415493 -0.809154 0.415493
vn -0.496386 -0.868102 -1e-06
vn 1e-06 -1 -2e-06
vn -1.7e-05 -0.868096 0.496397
vn -0.46171 -0.359186 0.811055
vn -1.7e-05 -0.471569 0.881829
vn -0.482009 -0.210491 0.850506
vn 0.415492 -0.80915 0.415503
vn 0.496412 -0.868087 -1e-06
vn 0.811086 -0.359177 0.461662
vn 0.881853 -0.471524 1e-06
vn 0.970708 -0.240263 3e-06
vn 0.850536 -0.210521 0.481944
vn 0.461677 -0.359208 0.811063
vn 2e-06 -0.868101 -0.496388
vn -0.415484 -0.809156 -0.4155
vn -0.811088 -0.359154 -0.461676
vn -0.850534 -0.210463 -0.481972
vn -0.461679 -0.35917 -0.811079
vn -0.481981 -0.210465 -0.850529
vn -0 -0.240189 -0.970726
vn 1e-06 -0.471525 -0.881853
vn 0.850521 -0.210549 -0.481958
vn 0.811069 -0.359196 -0.461676
vn 0.415493 -0.809147 -0.415507
vn 0.461659 -0.35919 -0.811082
vn 0.48196 -0.210501 -0.850531
vn -0.811093 -0.359161 0.461661
vn -0.881856 -0.471518 0
vn -0.415491 -0.809155 0.415495
vn -0.496395 -0.868097 -3e-06
vn 7e-06 -0.868096 0.496397
vn -0.461704 -0.359188 0.811057
vn 3e-06 -0.471568 0.88183
vn -0.482012 -0.210491 0.850505
vn 0.415507 -0.809144 0.415499
vn 0.496414 -0.868086 -1e-06
vn 0.811084 -0.359178 0.461665
vn 0.88185 -0.47153 -1e-06
vn 0.970707 -0.240265 -1e-06
vn 0.850531 -0.210522 0.481951
vn 0.461688 -0.359205 0.811059
vn 9e-06 -0.868101 -0.496388
vn -0.415493 -0.809152 -0.415499
vn -0.811088 -0.359155 -0.461676
vn -0.850535 -0.210462 -0.481971
vn -0.461707 -0.359165 -0.811065
vn -0.482019 -0.21046 -0.850508
vn -6e-06 -0.240189 -0.970726
vn 4e-06 -0.471525 -0.881853
vn 0.850522 -0.210549 -0.481956
vn 0.811069 -0.359196 -0.461677
vn 0.415509 -0.809141 -0.415504
vn 0.461691 -0.359183 -0.811067
vn 0.481993 -0.210496 -0.850514
vt 0.397553 0.162113
vt 0.399952 0.220425
vt 0.320816 0.164206
vt 0.316355 0.216381
vt 0.255616 0.15685
vt 0.255826 0.213468
vt 0.196803 0.210674
vt 0.199159 0.151838
vt 0.257116 0.089086
vt 0.200788 0.089798
vt 0.202983 0.003919
vt 0.260611 0.009354
vt 0.30247 0.102603
vt 0.375781 0.071121
vt 0.143113 0.15395
vt 0.138684 0.207949
vt 0.081832 0.156604
vt 0.081628 0.205307
vt 0.003968 0.201775
vt 0.01114 0.14814
vt 0.103939 0.101322
vt 0.038942 0.066062
vt 0.145132 0.006456
vt 0.144646 0.086365
vt 0.193613 0.269445
vt 0.250213 0.269778
vt 0.315751 0.268722
vt 0.391913 0.278231
vt 0.291542 0.328234
vt 0.361447 0.366671
vt 0.241321 0.416863
vt 0.183535 0.416856
vt 0.245334 0.33728
vt 0.189409 0.331285
vt 0.006186 0.255787
vt 0.077341 0.253801
vt 0.138082 0.262105
vt 0.133279 0.329434
vt 0.126273 0.408912
vt 0.094262 0.310901
vt 0.026337 0.340066
vt 0.80406 0.162113
vt 0.806459 0.220425
vt 0.727323 0.164206
vt 0.722863 0.216381
vt 0.662123 0.15685
vt 0.662334 0.213468
vt 0.60331 0.210674
vt 0.605666 0.151838
vt 0.663624 0.089086
vt 0.607296 0.089798
vt 0.609491 0.003919
vt 0.667118 0.009354
vt 0.708977 0.102603
vt 0.782288 0.071121
vt 0.54962 0.15395
vt 0.545191 0.207949
vt 0.488339 0.156604
vt 0.488135 0.205307
vt 0.410475 0.201775
vt 0.417647 0.14814
vt 0.510446 0.101322
vt 0.445449 0.066062
vt 0.551639 0.006456
vt 0.551154 0.086365
vt 0.60012 0.269445
vt 0.65672 0.269778
vt 0.722258 0.268722
vt 0.79842 0.278231
vt 0.698049 0.328234
vt 0.767954 0.366671
vt 0.647828 0.416863
vt 0.590042 0.416856
vt 0.651841 0.33728
vt 0.595916 0.331285
vt 0.412693 0.255787
vt 0.483848 0.253801
vt 0.544589 0.262105
vt 0.539786 0.329434
vt 0.53278 0.408912
vt 0.500769 0.310901
vt 0.432844 0.340066
vt 0.630123 0.513899
vt 0.632522 0.572211
vt 0.553386 0.515992
vt 0.548925 0.568167
vt 0.488185 0.508636
vt 0.488396 0.565254
vt 0.429372 0.56246
vt 0.431729 0.503624
vt 0.489686 0.440871
vt 0.433358 0.441584
vt 0.435553 0.355705
vt 0.49318 0.36114
vt 0.535039 0.454389
vt 0.60835 0.422907
vt 0.375683 0.505736
vt 0.371253 0.559735
vt 0.314402 0.50839
vt 0.314197 0.557093
vt 0.236538 0.553561
vt 0.24371 0.499926
vt 0.336508 0.453108
vt 0.271511 0.417848
vt 0.377701 0.358242
vt 0.377216 0.438151
vt 0.426182 0.621231
vt 0.482782 0.621564
vt 0.548321 0.620508
vt 0.624483 0.630017
vt 0.524112 0.68002
vt 0.594016 0.718457
vt 0.47389 0.768649
vt 0.416105 0.768642
vt 0.477904 0.689066
vt 0.421979 0.683071
vt 0.238756 0.607573
vt 0.309911 0.605587
vt 0.370651 0.613891
vt 0.365848 0.68122
vt 0.358843 0.760698
vt 0.326831 0.662687
vt 0.258907 0.691852
vt 0.993633 0.728879
vt 0.996032 0.787192
vt 0.916896 0.730972
vt 0.912435 0.783147
vt 0.851696 0.723616
vt 0.851906 0.780234
vt 0.792882 0.77744
vt 0.795239 0.718604
vt 0.853196 0.655852
vt 0.796868 0.656565
vt 0.799063 0.570685
vt 0.85669 0.576121
vt 0.898549 0.66937
vt 0.97186 0.637888
vt 0.739193 0.720716
vt 0.734763 0.774715
vt 0.677912 0.72337
vt 0.677707 0.772073
vt 0.600048 0.768541
vt 0.60722 0.714906
vt 0.700018 0.668088
vt 0.635021 0.632828
vt 0.741211 0.573222
vt 0.740726 0.653131
vt 0.789692 0.836212
vt 0.846292 0.836544
vt 0.911831 0.835488
vt 0.987993 0.844997
vt 0.887622 0.895
vt 0.957526 0.933437
vt 0.8374 0.983629
vt 0.779615 0.983623
vt 0.841414 0.904047
vt 0.785489 0.898051
vt 0.602266 0.822553
vt 0.673421 0.820567
vt 0.734161 0.828871
vt 0.729358 0.8962
vt 0.722353 0.975678
vt 0.690342 0.877667
vt 0.622417 0.906832
usemtl LegSG
f 387/532/368 388/533/369 389/534/370
f 389/534/370 388/533/369 390/535/371
f 389/534/370 390/535/371 391/536/372
f 391/536/372 390/535/371 392/537/373
f 392/537/373 393/538/374 391/536/372
f 391/536/372 393/538/374 394/539/375
f 391/536/372 394/539/375 395/540/376
f 395/540/376 394/539/375 396/541/377
f 396/541/377 397/542/378 395/540/376
f 395/540/376 397/542/378 398/543/379
f 395/544/376 398/545/379 389/534/370
f 389/534/370 398/545/379 387/532/368
f 389/534/370 391/536/372 395/544/376
f 394/539/375 393/538/374 399/546/380
f 399/546/380 393/538/374 400/547/381
f 399/546/380 400/547/381 401/548/382
f 401/548/382 400/547/381 402/549/383
f 402/549/383 403/550/384 401/548/382
f 401/548/382 403/550/384 404/551/385
f 401/548/382 404/551/385 405/552/386
f 405/552/386 404/551/385 406/553/387
f 406/554/387 397/542/378 405/555/386
f 405/555/386 397/542/378 396/541/377
f 405/555/386 396/541/377 399/546/380
f 399/546/380 396/541/377 394/539/375
f 399/546/380 401/548/382 405/552/386
f 407/556/388 393/538/374 408/557/389
f 408/557/389 393/538/374 392/537/373
f 408/557/389 392/537/373 409/558/390
f 409/558/390 392/537/373 390/535/371
f 390/535/371 388/533/369 409/558/390
f 409/558/390 388/533/369 410/559/391
f 409/558/390 410/559/391 411/560/392
f 411/560/392 410/559/391 412/561/393
f 412/562/393 413/563/394 411/564/392
f 411/564/392 413/563/394 414/565/395
f 411/564/392 414/565/395 408/557/389
f 408/557/389 414/565/395 407/556/388
f 408/557/389 409/558/390 411/560/392
f 415/566/396 403/550/384 416/567/397
f 416/567/397 403/550/384 402/549/383
f 416/567/397 402/549/383 417/568/398
f 417/568/398 402/549/383 400/547/381
f 400/547/381 393/538/374 417/568/398
f 417/568/398 393/538/374 407/556/388
f 417/568/398 407/556/388 418/569/399
f 418/569/399 407/556/388 414/565/395
f 414/565/395 413/563/394 418/569/399
f 418/569/399 413/563/394 419/570/400
f 418/571/399 419/572/400 416/567/397
f 416/567/397 419/572/400 415/566/396
f 416/567/397 417/568/398 418/571/399
f 420/573/401 421/574/402 422/575/403
f 422/575/403 421/574/402 423/576/404
f 422/575/403 423/576/404 424/577/405
f 424/577/405 423/576/404 425/578/406
f 425/578/406 426/579/374 424/577/405
f 424/577/405 426/579/374 427/580/407
f 424/577/405 427/580/407 428/581/408
f 428/581/408 427/580/407 429/582/409
f 429/582/409 430/583/410 428/581/408
f 428/581/408 430/583/410 431/584/411
f 428/585/408 431/586/411 422/575/403
f 422/575/403 431/586/411 420/573/401
f 422/575/403 424/577/405 428/585/408
f 427/580/407 426/579/374 432/587/412
f 432/587/412 426/579/374 433/588/413
f 432/587/412 433/588/413 434/589/414
f 434/589/414 433/588/413 435/590/415
f 435/590/415 436/591/416 434/589/414
f 434/589/414 436/591/416 437/592/417
f 434/589/414 437/592/417 438/593/418
f 438/593/418 437/592/417 439/594/387
f 439/595/387 430/583/410 438/596/418
f 438/596/418 430/583/410 429/582/409
f 438/596/418 429/582/409 432/587/412
f 432/587/412 429/582/409 427/580/407
f 432/587/412 434/589/414 438/593/418
f 440/597/419 426/579/374 441/598/420
f 441/598/420 426/579/374 425/578/406
f 441/598/420 425/578/406 442/599/421
f 442/599/421 425/578/406 423/576/404
f 423/576/404 421/574/402 442/599/421
f 442/599/421 421/574/402 443/600/422
f 442/599/421 443/600/422 444/601/423
f 444/601/423 443/600/422 445/602/424
f 445/603/424 446/604/425 444/605/423
f 444/605/423 446/604/425 447/606/426
f 444/605/423 447/606/426 441/598/420
f 441/598/420 447/606/426 440/597/419
f 441/598/420 442/599/421 444/601/423
f 448/607/427 436/591/416 449/608/397
f 449/608/397 436/591/416 435/590/415
f 449/608/397 435/590/415 450/609/428
f 450/609/428 435/590/415 433/588/413
f 433/588/413 426/579/374 450/609/428
f 450/609/428 426/579/374 440/597/419
f 450/609/428 440/597/419 451/610/429
f 451/610/429 440/597/419 447/606/426
f 447/606/426 446/604/425 451/610/429
f 451/610/429 446/604/425 452/611/430
f 451/612/429 452/613/430 449/608/397
f 449/608/397 452/613/430 448/607/427
f 449/608/397 450/609/428 451/612/429
f 453/614/368 454/615/369 455/616/431
f 455/616/431 454/615/369 456/617/432
f 455/616/431 456/617/432 457/618/433
f 457/618/433 456/617/432 458/619/434
f 458/619/434 459/620/435 457/618/433
f 457/618/433 459/620/435 460/621/436
f 457/618/433 460/621/436 461/622/437
f 461/622/437 460/621/436 462/623/438
f 462/623/438 463/624/378 461/622/437
f 461/622/437 463/624/378 464/625/439
f 461/626/437 464/627/439 455/616/431
f 455/616/431 464/627/439 453/614/368
f 455/616/431 457/618/433 461/626/437
f 460/621/436 459/620/435 465/628/440
f 465/628/440 459/620/435 466/629/441
f 465/628/440 466/629/441 467/630/442
f 467/630/442 466/629/441 468/631/443
f 468/631/443 469/632/444 467/630/442
f 467/630/442 469/632/444 470/633/445
f 467/630/442 470/633/445 471/634/446
f 471/634/446 470/633/445 472/635/387
f 472/636/387 463/624/378 471/637/446
f 471/637/446 463/624/378 462/623/438
f 471/637/446 462/623/438 465/628/440
f 465/628/440 462/623/438 460/621/436
f 465/628/440 467/630/442 471/634/446
f 473/638/447 459/620/435 474/639/448
f 474/639/448 459/620/435 458/619/434
f 474/639/448 458/619/434 475/640/449
f 475/640/449 458/619/434 456/617/432
f 456/617/432 454/615/369 475/640/449
f 475/640/449 454/615/369 476/641/450
f 475/640/449 476/641/450 477/642/451
f 477/642/451 476/641/450 478/643/452
f 478/644/452 479/645/453 477/646/451
f 477/646/451 479/645/453 480/647/454
f 477/646/451 480/647/454 474/639/448
f 474/639/448 480/647/454 473/638/447
f 474/639/448 475/640/449 477/642/451
f 481/648/455 469/632/444 482/649/456
f 482/649/456 469/632/444 468/631/443
f 482/649/456 468/631/443 483/650/457
f 483/650/457 468/631/443 466/629/441
f 466/629/441 459/620/435 483/650/457
f 483/650/457 459/620/435 473/638/447
f 483/650/457 473/638/447 484/651/458
f 484/651/458 473/638/447 480/647/454
f 480/647/454 479/645/453 484/651/458
f 484/651/458 479/645/453 485/652/459
f 484/653/458 485/654/459 482/649/456
f 482/649/456 485/654/459 481/648/455
f 482/649/456 483/650/457 484/653/458
f 486/655/401 487/656/402 488/657/460
f 488/657/460 487/656/402 489/658/461
f 488/657/460 489/658/461 490/659/462
f 490/659/462 489/658/461 491/660/463
f 491/660/463 492/661/435 490/659/462
f 490/659/462 492/661/435 493/662/464
f 490/659/462 493/662/464 494/663/465
f 494/663/465 493/662/464 495/664/466
f 495/664/466 496/665/410 494/663/465
f 494/663/465 496/665/410 497/666/467
f 494/667/465 497/668/467 488/657/460
f 488/657/460 497/668/467 486/655/401
f 488/657/460 490/659/462 494/667/465
f 493/662/464 492/661/435 498/669/468
f 498/669/468 492/661/435 499/670/469
f 498/669/468 499/670/469 500/671/470
f 500/671/470 499/670/469 501/672/471
f 501/672/471 502/673/472 500/671/470
f 500/671/470 502/673/472 503/674/473
f 500/671/470 503/674/473 504/675/474
f 504/675/474 503/674/473 505/676/387
f 505/677/387 496/665/410 504/678/474
f 504/678/474 496/665/410 495/664/466
f 504/678/474 495/664/466 498/669/468
f 498/669/468 495/664/466 493/662/464
f 498/669/468 500/671/470 504/675/474
f 506/679/475 492/661/435 507/680/476
f 507/680/476 492/661/435 491/660/463
f 507/680/476 491/660/463 508/681/477
f 508/681/477 491/660/463 489/658/461
f 489/658/461 487/656/402 508/681/477
f 508/681/477 487/656/402 509/682/478
f 508/681/477 509/682/478 510/683/479
f 510/683/479 509/682/478 511/684/480
f 511/685/480 512/686/481 510/687/479
f 510/687/479 512/686/481 513/688/482
f 510/687/479 513/688/482 507/680/476
f 507/680/476 513/688/482 506/679/475
f 507/680/476 508/681/477 510/683/479
f 514/689/483 502/673/472 515/690/484
f 515/690/484 502/673/472 501/672/471
f 515/690/484 501/672/471 516/691/485
f 516/691/485 501/672/471 499/670/469
f 499/670/469 492/661/435 516/691/485
f 516/691/485 492/661/435 506/679/475
f 516/691/485 506/679/475 517/692/486
f 517/692/486 506/679/475 513/688/482
f 513/688/482 512/686/481 517/692/486
f 517/692/486 512/686/481 518/693/487
f 517/694/486 518/695/487 515/690/484
f 515/690/484 518/695/487 514/689/483
f 515/690/484 516/691/485 517/694/486
s off
g Radio_MinSG
v -1.24842 0.407613 -0.567985
v -1.24231 0.40681 -0.590799
v -1.24842 -0.30112 -0.567985
v -1.24231 -0.300313 -0.590799
v -1.22561 0.40461 -0.607498
v -1.22561 -0.298117 -0.607498
v -1.20279 0.401607 -0.613611
v -1.20279 -0.295113 -0.613611
v -1.00922 0.621006 -0.607498
v -4e-06 0.621006 -0.607498
v -1.00621 0.598191 -0.613611
v -4e-06 0.598191 -0.613611
v -1.01141 0.637704 -0.590799
v -4e-06 0.637704 -0.590799
v -1.01222 0.643817 -0.567985
v -4e-06 0.643817 -0.567985
v 1.20279 0.401607 -0.613611
v 1.22561 0.40461 -0.607498
v 1.20279 -0.295113 -0.613611
v 1.22561 -0.298117 -0.607498
v 1.24231 0.40681 -0.590799
v 1.24231 -0.300313 -0.590799
v 1.24842 0.407613 -0.567985
v 1.24842 -0.30112 -0.567985
v -1.00621 -0.491697 0.386389
v -1.00922 -0.514508 0.380276
v 1.00621 -0.491697 0.386389
v 1.00921 -0.514508 0.380276
v -1.01141 -0.53121 0.363577
v 1.01141 -0.53121 0.363577
v -1.01222 -0.537323 0.340764
v 1.01222 -0.537323 0.340764
v -1.20279 0.401607 0.386389
v -1.22561 0.40461 0.380276
v -1.20279 -0.295113 0.386389
v -1.22561 -0.298117 0.380276
v -1.24231 0.40681 0.363577
v -1.24231 -0.300313 0.363577
v -1.24842 0.407613 0.340764
v -1.24842 -0.30112 0.340764
v -1.01222 -0.537323 -0.567985
v -1.01141 -0.53121 -0.590799
v 1.01222 -0.537323 -0.567985
v 1.01141 -0.53121 -0.590799
v -1.00922 -0.514508 -0.607498
v 1.00921 -0.514508 -0.607498
v -1.00621 -0.491697 -0.613611
v 1.00621 -0.491697 -0.613611
v 1.24842 0.407613 0.340764
v 1.24231 0.40681 0.363577
v 1.24842 -0.30112 0.340764
v 1.24231 -0.300313 0.363577
v 1.22561 0.40461 0.380276
v 1.22561 -0.298117 0.380276
v 1.20279 0.401607 0.386389
v 1.20279 -0.295113 0.386389
v 1.1067 0.571265 0.386389
v 1.11851 0.591718 0.380276
v 1.00621 0.598191 0.386389
v 1.00921 0.621006 0.380276
v 1.12715 0.606692 0.363577
v 1.01141 0.637704 0.363577
v 1.13032 0.612171 0.340764
v 1.01222 0.643817 0.340764
v 1.00921 0.621006 -0.607498
v 1.11851 0.591718 -0.607498
v 1.00621 0.598191 -0.613611
v 1.1067 0.571265 -0.613611
v 1.01141 0.637704 -0.590799
v 1.12715 0.606692 -0.590799
v 1.01222 0.643817 -0.567985
v 1.13032 0.612171 -0.567985
v -4e-06 0.643817 0.340764
v -1.21678 0.525715 0.340764
v -1.21678 0.525715 -0.567985
v -1.13032 0.612171 0.340764
v -1.13032 0.612171 -0.567985
v -1.01222 0.643817 0.340764
v 1.21677 0.525715 0.340764
v 1.21677 0.525715 -0.567985
v -1.13032 -0.505677 0.340764
v -1.13032 -0.505677 -0.567985
v -1.21678 -0.419222 0.340764
v -1.21678 -0.419222 -0.567985
v 1.21677 -0.419222 0.340764
v 1.21677 -0.419222 -0.567985
v 1.13032 -0.505677 0.340764
v 1.13032 -0.505677 -0.567985
v 1.1067 -0.46477 0.386389
v 1.17587 -0.395604 0.386389
v -1.1067 -0.46477 0.386389
v -1.17587 -0.395604 0.386389
v 1.17587 0.502097 0.386389
v -4e-06 0.598191 0.386389
v -1.17587 0.502097 0.386389
v -1.1067 0.571265 0.386389
v -1.00621 0.598191 0.386389
v 1.1067 -0.46477 -0.613611
v 1.17587 -0.395603 -0.613611
v -1.1067 -0.46477 -0.613611
v -1.17587 -0.395604 -0.613611
v -1.17587 0.502097 -0.613611
v -1.1067 0.571265 -0.613611
v 1.17587 0.502097 -0.613611
v -1.01141 0.637704 0.363577
v -4e-06 0.637704 0.363577
v -1.00922 0.621006 0.380276
v -4e-06 0.621006 0.380276
v -1.2113 0.522551 -0.590799
v -1.19633 0.513907 -0.607498
v 1.21129 -0.416057 -0.590799
v 1.19632 -0.407412 -0.607498
v -1.11851 -0.485224 0.380276
v -1.12716 -0.500195 0.363577
v -1.19633 0.513907 0.380276
v -1.2113 0.522551 0.363577
v -1.12716 -0.500195 -0.590799
v -1.11851 -0.485224 -0.607498
v 1.19632 -0.407412 0.380276
v 1.21129 -0.416057 0.363577
v -1.11851 0.591718 0.380276
v -1.12716 0.606692 0.363577
v -1.12716 0.606692 -0.590799
v -1.11851 0.591718 -0.607498
v 1.19632 0.513906 0.380276
v 1.21129 0.522551 0.363577
v 1.21129 0.522551 -0.590799
v 1.19632 0.513907 -0.607498
v -1.19633 -0.407412 0.380276
v -1.2113 -0.416057 0.363577
v -1.2113 -0.416057 -0.590799
v -1.19633 -0.407412 -0.607498
v 1.11851 -0.485224 0.380276
v 1.12715 -0.500195 0.363577
v 1.12715 -0.500195 -0.590799
v 1.11851 -0.485224 -0.607498
vn -0.999247 0.038255 -0.00648
vn -0.869548 0.033344 -0.492721
vn -0.999247 -0.038255 -0.00648
vn -0.869549 -0.033338 -0.492721
vn -0.519699 0.018632 -0.854147
vn -0.519691 -0.018633 -0.854151
vn -0.001102 3.2e-05 -0.999999
vn -0.001102 -3.2e-05 -0.999999
vn -0.014216 0.511597 -0.859108
vn 0 0.500287 -0.86586
vn -5e-05 0.001659 -0.999999
vn 0 0.002363 -0.999997
vn -0.023072 0.86922 -0.493887
vn 0 0.866138 -0.499804
vn -0.027948 0.999588 -0.006482
vn 0 0.999978 -0.00656
vn 0.001102 3.2e-05 -0.999999
vn 0.519699 0.018637 -0.854146
vn 0.001102 -3.2e-05 -0.999999
vn 0.519697 -0.018639 -0.854147
vn 0.869557 0.033351 -0.492706
vn 0.869555 -0.033346 -0.492708
vn 0.999247 0.038261 -0.00648
vn 0.999247 -0.038261 -0.00648
vn -5e-05 -0.003112 0.999995
vn -0.00747 -0.509741 0.860295
vn 5e-05 -0.003113 0.999995
vn 0.00747 -0.509748 0.860292
vn -0.012133 -0.868882 0.49487
vn 0.012133 -0.868882 0.49487
vn -0.014747 -0.99987 0.006493
vn 0.014747 -0.99987 0.006493
vn -0.001102 3.2e-05 0.999999
vn -0.519699 0.018631 0.854147
vn -0.001102 -3.2e-05 0.999999
vn -0.519692 -0.018634 0.85415
vn -0.86955 0.033344 0.492718
vn -0.869547 -0.033339 0.492724
vn -0.999247 0.038255 0.00648
vn -0.999247 -0.038255 0.00648
vn -0.014747 -0.99987 -0.006493
vn -0.012133 -0.868882 -0.49487
vn 0.014747 -0.99987 -0.006493
vn 0.012133 -0.868882 -0.49487
vn -0.00747 -0.509741 -0.860295
vn 0.00747 -0.509748 -0.860292
vn -5e-05 -0.003112 -0.999995
vn 5e-05 -0.003113 -0.999995
vn 0.999247 0.038261 0.00648
vn 0.869556 0.033351 0.492706
vn 0.999247 -0.038261 0.00648
vn 0.869555 -0.033346 0.492708
vn 0.519699 0.018637 0.854146
vn 0.519697 -0.018639 0.854147
vn 0.001102 3.2e-05 0.999999
vn 0.001102 -3.2e-05 0.999999
vn 0.000198 0.000294 1
vn 0.271331 0.454065 0.848649
vn 5e-05 0.001659 0.999999
vn 0.014217 0.511602 0.859105
vn 0.425407 0.760397 0.490739
vn 0.023072 0.86922 0.493887
vn 0.499607 0.866228 0.006494
vn 0.027948 0.999588 0.006482
vn 0.014217 0.511603 -0.859105
vn 0.271335 0.454067 -0.848646
vn 5e-05 0.001659 -0.999999
vn 0.000198 0.000294 -1
vn 0.023072 0.86922 -0.493887
vn 0.425406 0.760404 -0.49073
vn 0.027948 0.999588 -0.006482
vn 0.499607 0.866228 -0.006493
vn 0 0.999978 0.00656
vn -0.86584 0.500278 0.006632
vn -0.86584 0.500278 -0.006632
vn -0.499607 0.866228 0.006493
vn -0.499607 0.866228 -0.006493
vn -0.027948 0.999588 0.006482
vn 0.865837 0.500282 0.006634
vn 0.865838 0.500281 -0.006633
vn -0.499603 -0.86623 0.006494
vn -0.499603 -0.86623 -0.006494
vn -0.865838 -0.50028 0.006633
vn -0.865838 -0.50028 -0.006633
vn 0.865836 -0.500283 0.006634
vn 0.865836 -0.500284 -0.006635
vn 0.499603 -0.86623 0.006494
vn 0.499603 -0.86623 -0.006496
vn 0.000198 -0.000294 1
vn 0.000269 -0.000125 1
vn -0.000198 -0.000294 1
vn -0.000269 -0.000125 1
vn 0.000269 0.000125 1
vn 0 0.002363 0.999997
vn -0.000269 0.000125 1
vn -0.000198 0.000294 1
vn -5e-05 0.001659 0.999999
vn 0.000198 -0.000294 -1
vn 0.000269 -0.000125 -1
vn -0.000198 -0.000294 -1
vn -0.000269 -0.000125 -1
vn -0.000269 0.000125 -1
vn -0.000198 0.000294 -1
vn 0.000269 0.000125 -1
vn -0.023072 0.86922 0.493887
vn 0 0.866138 0.499804
vn -0.014216 0.511597 0.859108
vn 0 0.500287 0.86586
vn -0.745083 0.440288 -0.500997
vn -0.447975 0.249356 -0.858569
vn 0.745068 -0.440292 -0.501016
vn 0.447977 -0.249372 -0.858563
vn -0.27133 -0.454087 0.848637
vn -0.42541 -0.760395 0.490741
vn -0.447978 0.24936 0.858566
vn -0.745086 0.440291 0.50099
vn -0.42541 -0.760395 -0.490741
vn -0.27133 -0.454087 -0.848637
vn 0.447983 -0.249366 0.858562
vn 0.745077 -0.440286 0.501007
vn -0.271331 0.454073 0.848644
vn -0.425412 0.760408 0.490718
vn -0.425412 0.760408 -0.490718
vn -0.271331 0.454073 -0.848644
vn 0.447976 0.249367 0.858565
vn 0.745065 0.440296 0.501016
vn 0.745079 0.440289 -0.501002
vn 0.447978 0.249363 -0.858565
vn -0.447981 -0.249359 0.858564
vn -0.745082 -0.440284 0.501002
vn -0.745085 -0.440287 -0.500995
vn -0.447983 -0.249363 -0.858562
vn 0.271333 -0.454081 0.848639
vn 0.425404 -0.76039 0.490754
vn 0.425405 -0.760385 -0.490759
vn 0.271329 -0.45408 -0.848641
vt 0.14126 0.041401
vt 0.144706 0.041466
vt 0.141057 0.144101
vt 0.144489 0.14404
vt 0.148178 0.041687
vt 0.147946 0.143829
vt 0.289451 0.003968
vt 0.289036 0.007348
vt 0.188992 0.004602
vt 0.189555 0.007376
vt 0.320539 0.035022
vt 0.320572 0.179359
vt 0.317161 0.035455
vt 0.317193 0.17936
vt 0.142751 0.97866
vt 0.142935 0.835691
vt 0.146093 0.978414
vt 0.146277 0.835695
vt 0.139425 0.978747
vt 0.139593 0.835687
vt 0.289116 0.351383
vt 0.28955 0.354762
vt 0.189484 0.35138
vt 0.189048 0.354758
vt 0.146707 0.640368
vt 0.14331 0.640572
vt 0.147049 0.54003
vt 0.143651 0.539801
vt 0.139938 0.640627
vt 0.140275 0.53972
vt 0.331767 0.324544
vt 0.328391 0.324975
vt 0.331772 0.036919
vt 0.328397 0.036488
vt 0.003388 0.197234
vt 0.006791 0.196953
vt 0.003624 0.487075
vt 0.007026 0.487348
vt 0.010185 0.196853
vt 0.010419 0.487441
vt 0.45944 0.352642
vt 0.459874 0.356017
vt 0.359861 0.352639
vt 0.359427 0.356015
vt 0.002599 0.041915
vt 0.006048 0.041681
vt 0.003018 0.14394
vt 0.006472 0.144145
vt 0.009474 0.041599
vt 0.0099 0.1442
vt 0.140818 0.196823
vt 0.144212 0.196924
vt 0.140544 0.487461
vt 0.143938 0.487368
vt 0.147616 0.197205
vt 0.147341 0.487096
vt 0.158084 0.035049
vt 0.16146 0.035482
vt 0.157999 0.323694
vt 0.161377 0.323263
vt 0.010894 0.640563
vt 0.007523 0.640504
vt 0.010656 0.53968
vt 0.007282 0.539757
vt 0.004127 0.640297
vt 0.003885 0.539982
vt 0.459881 0.005447
vt 0.459448 0.008823
vt 0.359436 0.005446
vt 0.35987 0.008822
vt 0.483696 0.02256
vt 0.486723 0.020819
vt 0.487544 0.036924
vt 0.490919 0.036491
vt 0.004134 0.67516
vt 0.00767 0.675134
vt 0.004327 0.692695
vt 0.007692 0.692456
vt 0.011031 0.675123
vt 0.011039 0.692376
vt 0.320603 0.323702
vt 0.316404 0.33939
vt 0.317224 0.323269
vt 0.313377 0.337642
vt 0.143075 0.69253
vt 0.143117 0.675207
vt 0.146439 0.692773
vt 0.146654 0.675238
vt 0.139727 0.692446
vt 0.139757 0.675192
vt 0.011008 0.835618
vt 0.009373 0.023924
vt 0.141225 0.023094
vt 0.009137 0.00617
vt 0.141244 0.005325
vt 0.01092 0.99596
vt 0.011019 0.978676
vt 0.139504 0.996032
vt 0.010982 0.657854
vt 0.139829 0.657921
vt 0.010125 0.179331
vt 0.140868 0.179279
vt 0.010029 0.161779
vt 0.140948 0.161704
vt 0.010612 0.522289
vt 0.140332 0.522322
vt 0.01053 0.504876
vt 0.140424 0.504902
vt 0.335622 0.022556
vt 0.345508 0.01267
vt 0.335615 0.338906
vt 0.345499 0.348791
vt 0.473811 0.012673
vt 0.48754 0.180735
vt 0.473803 0.348795
vt 0.483688 0.338909
vt 0.487537 0.324547
vt 0.165226 0.337638
vt 0.175115 0.347529
vt 0.165315 0.021114
vt 0.175209 0.011228
vt 0.303411 0.011194
vt 0.313306 0.021085
vt 0.303486 0.347533
vt 0.007693 0.978584
vt 0.007666 0.835618
vt 0.004351 0.978335
vt 0.004324 0.835618
vt 0.490913 0.324979
vt 0.490916 0.180735
vt 0.144656 0.023178
vt 0.305161 0.008164
vt 0.14826 0.023246
vt 0.143722 0.522339
vt 0.173364 0.350557
vt 0.147292 0.522362
vt 0.332588 0.340649
vt 0.006708 0.179353
vt 0.003113 0.179394
vt 0.475549 0.35182
vt 0.006003 0.024005
vt 0.002465 0.024091
vt 0.144289 0.1793
vt 0.162291 0.01936
vt 0.14789 0.179339
vt 0.343763 0.009647
vt 0.007224 0.522304
vt 0.003656 0.522324
vt 0.486713 0.340654
vt 0.005539 0.006493
vt 0.001956 0.007286
vt 0.144867 0.005586
vt 0.316334 0.019337
vt 0.14849 0.006325
vt 0.007455 0.995681
vt 0.004001 0.994949
vt 0.142969 0.995755
vt 0.146424 0.995027
vt 0.475562 0.009645
vt 0.007617 0.657869
vt 0.004075 0.65788
vt 0.143196 0.657941
vt 0.305233 0.350562
vt 0.14674 0.657957
vt 0.343752 0.351817
vt 0.006606 0.161803
vt 0.003003 0.161824
vt 0.144376 0.161723
vt 0.17353 0.008215
vt 0.147985 0.161739
vt 0.332597 0.02081
vt 0.007129 0.504889
vt 0.003551 0.504888
vt 0.143827 0.504917
vt 0.162194 0.339383
vt 0.147407 0.504918
usemtl MinSG
f 519/696/488 520/697/489 521/698/490
f 521/698/490 520/697/489 522/699/491
f 520/697/489 523/700/492 522/699/491
f 522/699/491 523/700/492 524/701/493
f 523/702/492 525/703/494 524/704/493
f 524/704/493 525/703/494 526/705/495
f 527/706/496 528/707/497 529/708/498
f 529/708/498 528/707/497 530/709/499
f 531/710/500 532/711/501 527/712/496
f 527/712/496 532/711/501 528/713/497
f 533/714/502 534/715/503 531/710/500
f 531/710/500 534/715/503 532/711/501
f 535/716/504 536/717/505 537/718/506
f 537/718/506 536/717/505 538/719/507
f 536/720/505 539/721/508 538/722/507
f 538/722/507 539/721/508 540/723/509
f 539/721/508 541/724/510 540/723/509
f 540/723/509 541/724/510 542/725/511
f 543/726/512 544/727/513 545/728/514
f 545/728/514 544/727/513 546/729/515
f 544/730/513 547/731/516 546/732/515
f 546/732/515 547/731/516 548/733/517
f 547/731/516 549/734/518 548/733/517
f 548/733/517 549/734/518 550/735/519
f 551/736/520 552/737/521 553/738/522
f 553/738/522 552/737/521 554/739/523
f 552/740/521 555/741/524 554/742/523
f 554/742/523 555/741/524 556/743/525
f 555/741/524 557/744/526 556/743/525
f 556/743/525 557/744/526 558/745/527
f 559/746/528 560/747/529 561/748/530
f 561/748/530 560/747/529 562/749/531
f 560/747/529 563/750/532 562/749/531
f 562/749/531 563/750/532 564/751/533
f 563/752/532 565/753/534 564/754/533
f 564/754/533 565/753/534 566/755/535
f 567/756/536 568/757/537 569/758/538
f 569/758/538 568/757/537 570/759/539
f 568/757/537 571/760/540 570/759/539
f 570/759/539 571/760/540 572/761/541
f 571/762/540 573/763/542 572/764/541
f 572/764/541 573/763/542 574/765/543
f 575/766/544 576/767/545 577/768/546
f 577/768/546 576/767/545 578/769/547
f 576/770/545 579/771/548 578/772/547
f 578/772/547 579/771/548 580/773/549
f 579/771/548 581/774/550 580/773/549
f 580/773/549 581/774/550 582/775/551
f 583/776/552 584/777/553 585/778/554
f 585/778/554 584/777/553 586/779/555
f 587/780/556 588/781/557 583/782/552
f 583/782/552 588/781/557 584/783/553
f 589/784/558 590/785/559 587/780/556
f 587/780/556 590/785/559 588/781/557
f 534/715/503 591/786/560 589/784/558
f 589/784/558 591/786/560 582/775/551
f 549/734/518 559/746/528 550/735/519
f 550/735/519 559/746/528 561/748/530
f 569/758/538 542/725/511 567/756/536
f 567/756/536 542/725/511 541/724/510
f 521/698/490 558/745/527 519/696/488
f 519/696/488 558/745/527 557/744/526
f 557/744/526 592/787/561 519/696/488
f 519/696/488 592/787/561 593/788/562
f 592/787/561 594/789/563 593/788/562
f 593/788/562 594/789/563 595/790/564
f 594/791/563 596/792/565 595/793/564
f 595/793/564 596/792/565 533/714/502
f 582/775/551 581/774/550 589/784/558
f 589/784/558 581/774/550 590/785/559
f 581/774/550 597/794/566 590/785/559
f 590/785/559 597/794/566 598/795/567
f 597/794/566 567/756/536 598/795/567
f 598/795/567 567/756/536 541/724/510
f 549/734/518 599/796/568 559/746/528
f 559/746/528 599/796/568 600/797/569
f 599/796/568 601/798/570 600/797/569
f 600/797/569 601/798/570 602/799/571
f 601/798/570 558/745/527 602/799/571
f 602/799/571 558/745/527 521/698/490
f 569/758/538 603/800/572 542/725/511
f 542/725/511 603/800/572 604/801/573
f 603/800/572 605/802/574 604/801/573
f 604/801/573 605/802/574 606/803/575
f 605/802/574 550/735/519 606/803/575
f 606/803/575 550/735/519 561/748/530
f 607/804/576 608/805/577 545/728/514
f 545/728/514 608/805/577 543/726/512
f 608/805/577 574/765/543 543/726/512
f 574/765/543 573/763/542 543/726/512
f 543/726/512 573/763/542 609/806/578
f 609/806/578 573/763/542 610/807/579
f 610/807/579 573/763/542 553/738/522
f 553/738/522 573/763/542 551/736/520
f 573/763/542 611/808/580 551/736/520
f 611/808/580 575/766/544 551/736/520
f 575/766/544 577/768/546 551/736/520
f 577/768/546 612/809/581 551/736/520
f 551/736/520 612/809/581 613/810/582
f 613/810/582 612/809/581 614/811/583
f 612/809/581 615/812/584 614/811/583
f 616/813/585 566/755/535 617/814/586
f 566/755/535 565/753/534 617/814/586
f 617/814/586 565/753/534 537/718/506
f 537/718/506 565/753/534 535/716/504
f 565/753/534 618/815/587 535/716/504
f 618/815/587 619/816/588 535/716/504
f 619/816/588 526/705/495 535/716/504
f 526/705/495 525/703/494 535/716/504
f 525/703/494 620/817/589 535/716/504
f 620/817/589 621/818/590 535/716/504
f 621/818/590 529/708/498 535/716/504
f 529/708/498 530/709/499 535/716/504
f 535/716/504 530/709/499 622/819/591
f 622/819/591 530/709/499 586/779/555
f 530/709/499 585/778/554 586/779/555
f 533/714/502 596/792/565 534/715/503
f 534/715/503 596/792/565 591/786/560
f 596/792/565 623/820/592 591/786/560
f 591/786/560 623/820/592 624/821/593
f 623/820/592 625/822/594 624/821/593
f 624/821/593 625/822/594 626/823/595
f 625/824/594 615/812/584 626/825/595
f 626/825/595 615/812/584 612/809/581
f 520/697/489 519/696/488 627/826/596
f 627/826/596 519/696/488 593/788/562
f 525/703/494 523/702/492 620/817/589
f 620/817/589 523/702/492 628/827/597
f 523/700/492 520/697/489 628/828/597
f 628/828/597 520/697/489 627/826/596
f 540/723/509 542/725/511 629/829/598
f 629/829/598 542/725/511 604/801/573
f 537/718/506 538/719/507 617/814/586
f 617/814/586 538/719/507 630/830/599
f 538/722/507 540/723/509 630/831/599
f 630/831/599 540/723/509 629/829/598
f 544/727/513 543/726/512 631/832/600
f 631/832/600 543/726/512 609/806/578
f 549/734/518 547/731/516 599/796/568
f 599/796/568 547/731/516 632/833/601
f 547/731/516 544/730/513 632/833/601
f 632/833/601 544/730/513 631/834/600
f 551/736/520 613/810/582 552/737/521
f 552/737/521 613/810/582 633/835/602
f 555/741/524 634/836/603 557/744/526
f 557/744/526 634/836/603 592/787/561
f 552/740/521 633/837/602 555/741/524
f 555/741/524 633/837/602 634/836/603
f 559/746/528 600/797/569 560/747/529
f 560/747/529 600/797/569 635/838/604
f 563/752/532 636/839/605 565/753/534
f 565/753/534 636/839/605 618/815/587
f 560/747/529 635/838/604 563/750/532
f 563/750/532 635/838/604 636/840/605
f 574/765/543 608/805/577 572/764/541
f 572/764/541 608/805/577 637/841/606
f 570/759/539 638/842/607 569/758/538
f 569/758/538 638/842/607 603/800/572
f 572/761/541 637/843/606 570/759/539
f 570/759/539 637/843/606 638/842/607
f 613/810/582 614/811/583 633/835/602
f 633/835/602 614/811/583 639/844/608
f 634/836/603 640/845/609 592/787/561
f 592/787/561 640/845/609 594/789/563
f 633/837/602 639/846/608 634/836/603
f 634/836/603 639/846/608 640/845/609
f 627/826/596 593/788/562 641/847/610
f 641/847/610 593/788/562 595/790/564
f 620/817/589 628/827/597 621/818/590
f 621/818/590 628/827/597 642/848/611
f 628/828/597 627/826/596 642/849/611
f 642/849/611 627/826/596 641/847/610
f 625/824/594 639/844/608 615/812/584
f 615/812/584 639/844/608 614/811/583
f 623/820/592 640/850/609 625/822/594
f 625/822/594 640/850/609 639/851/608
f 596/792/565 594/791/563 623/820/592
f 623/820/592 594/791/563 640/850/609
f 533/714/502 531/710/500 595/793/564
f 595/793/564 531/710/500 641/852/610
f 531/710/500 527/712/496 641/852/610
f 641/852/610 527/712/496 642/853/611
f 527/706/496 529/708/498 642/848/611
f 642/848/611 529/708/498 621/818/590
f 576/767/545 575/766/544 643/854/612
f 643/854/612 575/766/544 611/808/580
f 581/774/550 579/771/548 597/794/566
f 597/794/566 579/771/548 644/855/613
f 579/771/548 576/770/545 644/855/613
f 644/855/613 576/770/545 643/856/612
f 624/821/593 580/773/549 591/786/560
f 591/786/560 580/773/549 582/775/551
f 626/823/595 578/772/547 624/821/593
f 624/821/593 578/772/547 580/773/549
f 612/809/581 577/768/546 626/825/595
f 626/825/595 577/768/546 578/769/547
f 530/709/499 528/707/497 585/778/554
f 585/778/554 528/707/497 583/776/552
f 528/713/497 532/711/501 583/782/552
f 583/782/552 532/711/501 587/780/556
f 532/711/501 534/715/503 587/780/556
f 587/780/556 534/715/503 589/784/558
f 590/785/559 598/795/567 588/781/557
f 588/781/557 598/795/567 645/857/614
f 584/777/553 646/858/615 586/779/555
f 586/779/555 646/858/615 622/819/591
f 588/781/557 645/857/614 584/783/553
f 584/783/553 645/857/614 646/859/615
f 573/763/542 571/762/540 611/808/580
f 611/808/580 571/762/540 643/854/612
f 571/760/540 568/757/537 643/856/612
f 643/856/612 568/757/537 644/855/613
f 568/757/537 567/756/536 644/855/613
f 644/855/613 567/756/536 597/794/566
f 539/721/508 645/857/614 541/724/510
f 541/724/510 645/857/614 598/795/567
f 536/720/505 646/859/615 539/721/508
f 539/721/508 646/859/615 645/857/614
f 535/716/504 622/819/591 536/717/505
f 536/717/505 622/819/591 646/858/615
f 631/832/600 609/806/578 647/860/616
f 647/860/616 609/806/578 610/807/579
f 599/796/568 632/833/601 601/798/570
f 601/798/570 632/833/601 648/861/617
f 632/833/601 631/834/600 648/861/617
f 648/861/617 631/834/600 647/862/616
f 600/797/569 602/799/571 635/838/604
f 635/838/604 602/799/571 649/863/618
f 636/839/605 650/864/619 618/815/587
f 618/815/587 650/864/619 619/816/588
f 635/838/604 649/863/618 636/840/605
f 636/840/605 649/863/618 650/865/619
f 553/738/522 554/739/523 610/807/579
f 610/807/579 554/739/523 647/860/616
f 554/742/523 556/743/525 647/862/616
f 647/862/616 556/743/525 648/861/617
f 556/743/525 558/745/527 648/861/617
f 648/861/617 558/745/527 601/798/570
f 522/699/491 649/863/618 521/698/490
f 521/698/490 649/863/618 602/799/571
f 524/701/493 650/865/619 522/699/491
f 522/699/491 650/865/619 649/863/618
f 526/705/495 619/816/588 524/704/493
f 524/704/493 619/816/588 650/864/619
f 608/805/577 607/804/576 637/841/606
f 637/841/606 607/804/576 651/866/620
f 638/842/607 652/867/621 603/800/572
f 603/800/572 652/867/621 605/802/574
f 637/843/606 651/868/620 638/842/607
f 638/842/607 651/868/620 652/867/621
f 629/829/598 604/801/573 653/869/622
f 653/869/622 604/801/573 606/803/575
f 617/814/586 630/830/599 616/813/585
f 616/813/585 630/830/599 654/870/623
f 630/831/599 629/829/598 654/871/623
f 654/871/623 629/829/598 653/869/622
f 546/729/515 651/866/620 545/728/514
f 545/728/514 651/866/620 607/804/576
f 548/733/517 652/867/621 546/732/515
f 546/732/515 652/867/621 651/868/620
f 550/735/519 605/802/574 548/733/517
f 548/733/517 605/802/574 652/867/621
f 561/748/530 562/749/531 606/803/575
f 606/803/575 562/749/531 653/869/622
f 562/749/531 564/751/533 653/869/622
f 653/869/622 564/751/533 654/871/623
f 564/754/533 566/755/535 654/870/623
f 654/870/623 566/755/535 616/813/585
s off
