# This file uses centimeters as units for non-parametric coordinates.

mtllib Shrimp1_low1.mtl
g default
v 0.117901 -0.413711 1.004579
v 0.000000 -0.409988 1.031221
v 0.000000 -0.541237 0.906070
v 0.087069 -0.554347 0.878586
v -0.143709 -0.545714 0.853049
v -0.184591 -0.413238 0.952649
v 0.176817 -0.114219 1.022662
v 0.002209 -0.099348 1.078952
v -0.255067 -0.138253 0.937728
v 0.201185 0.175366 0.905350
v 0.000457 0.223269 0.969826
v -0.268813 0.114764 0.822614
v 0.193298 0.386051 0.658988
v 0.002086 0.459616 0.708379
v -0.259004 0.295910 0.612716
v 0.200955 0.458560 0.343063
v 0.013690 0.560626 0.350766
v -0.251071 0.350271 0.349448
v 0.180784 0.394897 -0.000619
v 0.004331 0.466818 -0.017520
v -0.231043 0.280608 0.088160
v 0.164745 0.161855 -0.245879
v 0.001538 0.210010 -0.286793
v -0.237786 0.080134 -0.125536
v 0.141457 -0.167803 -0.359460
v -0.005289 -0.149323 -0.405709
v -0.221633 -0.190761 -0.228457
v 0.103484 -0.494709 -0.323073
v -0.007939 -0.500839 -0.378214
v -0.194280 -0.461713 -0.202733
v 0.102679 -0.756992 -0.180211
v -0.014834 -0.788678 -0.220240
v -0.160288 -0.674943 -0.086630
v 0.065267 -0.932305 0.121477
v 0.004945 -0.964209 0.105138
v -0.111527 -0.871958 0.138752
v 0.014522 -0.759440 0.193925
v 0.026972 -0.583099 0.060082
v 0.028860 -0.425368 0.013452
v 0.019670 -0.249880 0.018875
v 0.008245 -0.103141 0.118392
v 0.008197 -0.020916 0.225908
v 0.008099 -0.009895 0.349865
v 0.009071 -0.040097 0.434266
v 0.012877 -0.119273 0.520439
v 0.008723 -0.191491 0.550949
v 0.000000 -0.285701 0.537232
v 0.000000 -0.395578 0.546796
v -0.055804 -0.759690 0.190191
v -0.076858 -0.580685 0.054974
v -0.095925 -0.422569 0.006414
v -0.113813 -0.244814 0.007600
v -0.139219 -0.087313 0.094283
v -0.135789 0.021960 0.205766
v -0.148609 0.044800 0.341981
v -0.162102 0.006080 0.455271
v -0.162710 -0.077157 0.561742
v -0.164739 -0.191615 0.596669
v -0.139263 -0.334421 0.568611
v -0.100985 -0.417041 0.569263
v 0.047113 -0.782979 0.183003
v 0.077487 -0.608323 0.029629
v 0.093486 -0.436424 -0.020398
v 0.093672 -0.244214 -0.015042
v 0.096056 -0.082896 0.072774
v 0.099527 0.019593 0.195841
v 0.114480 0.040333 0.341421
v 0.118291 0.013737 0.451911
v 0.126255 -0.083825 0.547720
v 0.113998 -0.183434 0.587372
v 0.079198 -0.309725 0.549214
v 0.060417 -0.409635 0.557767
v 0.168420 -0.483149 0.642312
v 0.193055 -0.365894 0.656077
v 0.206295 -0.171965 0.684706
v 0.219079 -0.018831 0.625924
v 0.199308 0.110701 0.496545
v 0.191075 0.144182 0.335255
v 0.171437 0.103835 0.148208
v 0.170490 -0.032951 0.002956
v 0.164517 -0.228903 -0.082253
v 0.153976 -0.454313 -0.089450
v 0.118129 -0.646359 -0.021470
v 0.074751 -0.819895 0.167051
v -0.083401 -0.782282 0.176983
v -0.116972 -0.601530 0.020664
v -0.146116 -0.429953 -0.038982
v -0.170318 -0.232676 -0.036711
v -0.192651 -0.051870 0.046656
v -0.185048 0.081092 0.176796
v -0.206911 0.116273 0.340355
v -0.228844 0.072892 0.488701
v -0.230346 -0.033365 0.619000
v -0.242007 -0.183802 0.667269
v -0.230954 -0.371641 0.649171
v -0.168420 -0.483149 0.642312
v 0.000000 -0.526437 0.731133
v 0.019062 -0.525602 0.722549
v -0.031900 -0.525606 0.716374
v -0.045072 -0.509952 0.680291
v 0.045072 -0.509952 0.680291
v -0.029209 -0.493813 0.652857
v 0.017402 -0.490574 0.649181
v 0.000000 -0.486464 0.643499
v 0.000000 -0.505346 0.689253
v 0.000000 -0.513340 0.706819
v 0.018915 -0.506462 0.685531
v 0.000000 -0.497209 0.669629
v 0.000000 -0.497209 0.669629
v -0.014026 -0.499543 0.671345
v -0.018915 -0.506462 0.685531
v -0.014774 -0.514332 0.703634
v 0.000000 -0.551552 0.778270
v 0.041654 -0.551700 0.758699
v 0.093404 -0.514703 0.668967
v 0.035939 -0.471090 0.610915
v 0.000000 -0.462033 0.601661
v -0.060428 -0.477215 0.617255
v -0.093404 -0.514703 0.668967
v -0.069973 -0.552049 0.745255
v 0.148959 -0.272490 1.037120
v 0.000000 -0.254457 1.077947
v -0.229461 -0.279444 0.953297
v -0.239936 -0.272262 0.669758
v -0.159015 -0.258297 0.590808
v 0.001613 -0.235171 0.545033
v 0.106995 -0.245696 0.571363
v 0.207241 -0.265681 0.675341
v 0.192317 0.025591 0.982404
v 0.003241 0.064544 1.045634
v -0.265510 -0.003895 0.893419
v -0.237726 -0.101033 0.650104
v -0.165422 -0.127816 0.587636
v 0.011940 -0.153727 0.548817
v 0.120978 -0.137844 0.580005
v 0.215723 -0.098077 0.666713
v 0.198477 0.300904 0.795142
v -0.000566 0.358081 0.851768
v -0.268911 0.217818 0.727247
v -0.236105 0.023770 0.557978
v -0.167950 -0.035491 0.511048
v 0.012887 -0.078695 0.480488
v 0.124610 -0.032374 0.504635
v 0.215991 0.050202 0.566496
v 0.193040 0.443730 0.514841
v 0.013047 0.530347 0.546563
v -0.247935 0.335203 0.487032
v -0.208613 0.109416 0.418936
v -0.149051 0.040057 0.402471
v 0.007349 -0.010303 0.389775
v 0.109844 0.042131 0.403737
v 0.189285 0.138836 0.424476
v 0.199606 0.436488 0.163622
v 0.009748 0.530818 0.146711
v -0.243107 0.328861 0.210787
v -0.200151 0.106604 0.257349
v -0.145945 0.036241 0.275470
v 0.012476 -0.014360 0.311460
v 0.111900 0.033778 0.273880
v 0.186480 0.132186 0.241857
v 0.178078 0.291336 -0.130863
v -0.001845 0.353637 -0.171695
v -0.238043 0.192545 -0.031701
v -0.192095 0.023313 0.107863
v -0.139011 -0.022215 0.148221
v 0.006392 -0.047849 0.174194
v 0.099776 -0.022183 0.135262
v 0.174455 0.044356 0.073725
v 0.158681 -0.002584 -0.314969
v -0.007640 0.027793 -0.366628
v -0.234947 -0.051432 -0.191925
v -0.187349 -0.141789 -0.001140
v -0.128413 -0.163580 0.044098
v 0.013876 -0.170217 0.054798
v 0.090129 -0.154964 0.013451
v 0.160047 -0.127295 -0.054325
v 0.109182 -0.342599 -0.366237
v -0.010381 -0.330729 -0.410197
v -0.214341 -0.331150 -0.233937
v -0.161574 -0.333247 -0.045268
v -0.106759 -0.334549 0.001467
v 0.025569 -0.337617 0.008764
v 0.095392 -0.340598 -0.025661
v 0.163863 -0.344131 -0.091587
v 0.104748 -0.630643 -0.259878
v 0.001594 -0.651181 -0.317203
v -0.177701 -0.578611 -0.151107
v -0.130275 -0.521592 -0.015775
v -0.085664 -0.506628 0.024378
v 0.027770 -0.510173 0.027944
v 0.085178 -0.528356 -0.003184
v 0.134324 -0.559753 -0.063538
v 0.092324 -0.841545 -0.070817
v -0.002683 -0.878920 -0.110006
v -0.146041 -0.760008 -0.014540
v -0.110052 -0.671494 0.072636
v -0.074968 -0.646933 0.102312
v 0.026986 -0.649133 0.105144
v 0.068294 -0.678300 0.076481
v 0.101144 -0.721609 0.036135
v 0.020152 -0.709103 0.148673
v -0.063885 -0.708089 0.145084
v -0.095782 -0.733120 0.123247
v -0.127203 -0.823953 0.063523
v -0.000961 -0.934204 0.005008
v 0.075472 -0.896350 0.026117
v 0.087162 -0.778357 0.100203
v 0.057570 -0.736531 0.128622
v 0.064094 -0.947554 0.215299
v 0.002649 -0.985945 0.203015
v -0.097873 -0.900654 0.216224
v -0.072521 -0.820618 0.232737
v -0.047960 -0.801090 0.238497
v 0.008518 -0.801513 0.241709
v 0.035158 -0.820254 0.238476
v 0.059195 -0.851027 0.233211
v -0.040870 -0.835397 0.285364
v -0.060574 -0.850990 0.286115
v -0.084581 -0.919162 0.292335
v 0.000585 -0.991964 0.297073
v 0.056535 -0.956971 0.301440
v 0.045302 -0.872061 0.294279
v 0.025493 -0.848990 0.289630
v 0.003351 -0.835187 0.288013
v -0.077250 -0.877349 0.288384
v -0.090600 -0.852860 0.226151
v -0.104078 -0.819078 0.159524
v -0.118256 -0.771110 0.095559
v -0.134903 -0.708251 0.033561
v -0.146208 -0.632438 -0.027204
v -0.164186 -0.544904 -0.074927
v -0.182904 -0.443567 -0.109830
v -0.204696 -0.331989 -0.122455
v -0.212101 -0.215479 -0.115648
v -0.227369 -0.101441 -0.081628
v -0.228507 0.004768 -0.026665
v -0.228458 0.095925 0.047808
v -0.219934 0.165125 0.137651
v -0.234680 0.204547 0.236827
v -0.244458 0.218460 0.342565
v -0.246123 0.207873 0.448159
v -0.268524 0.172043 0.541278
v -0.277795 0.110096 0.631933
v -0.274523 0.029006 0.705687
v -0.283029 -0.056149 0.755940
v -0.286003 -0.168914 0.791688
v -0.272381 -0.282164 0.806746
v -0.253949 -0.403001 0.801724
v -0.195370 -0.519544 0.742105
v -0.086413 -0.534949 0.705947
v -0.041240 -0.518281 0.698276
v -0.017748 -0.510479 0.694640
v 0.017748 -0.510479 0.694640
v 0.041240 -0.518281 0.698276
v 0.086413 -0.534949 0.705947
v 0.195370 -0.519544 0.742105
v 0.249005 -0.397221 0.805238
v 0.258853 -0.275230 0.827425
v 0.255053 -0.147692 0.828784
v 0.269132 -0.041575 0.808037
v 0.266235 0.071454 0.750205
v 0.263774 0.165571 0.671003
v 0.235295 0.258280 0.567940
v 0.234623 0.275612 0.462197
v 0.230919 0.286350 0.334281
v 0.225265 0.270274 0.206263
v 0.210011 0.228432 0.084990
v 0.217783 0.152904 -0.018042
v 0.215865 0.050447 -0.104366
v 0.208908 -0.075913 -0.170467
v 0.202884 -0.201479 -0.208911
v 0.184212 -0.348314 -0.226716
v 0.163202 -0.476915 -0.205735
v 0.150473 -0.595457 -0.160662
v 0.137191 -0.701978 -0.093879
v 0.117845 -0.778262 -0.016044
v 0.100990 -0.836271 0.064614
v 0.089142 -0.873235 0.144751
v 0.074793 -0.894367 0.225803
v 0.062321 -0.908203 0.299655
v -0.087069 -0.554347 0.878586
v -0.117901 -0.413711 1.004579
v -0.131359 -0.262366 1.048443
v -0.144890 -0.106600 1.048805
v -0.156277 0.049912 1.012343
v -0.165458 0.196130 0.935997
v -0.167050 0.327029 0.827140
v -0.168865 0.422567 0.686704
v -0.184159 0.469499 0.526817
v -0.190045 0.495507 0.359784
v -0.187437 0.478600 0.178039
v -0.181803 0.412006 0.021229
v -0.179562 0.310170 -0.130932
v -0.169457 0.168568 -0.246153
v -0.160607 0.006556 -0.319660
v -0.155751 -0.156358 -0.360578
v -0.150762 -0.330352 -0.359726
v -0.156407 -0.484093 -0.308559
v -0.154378 -0.620249 -0.238481
v -0.135506 -0.739521 -0.166390
v -0.123201 -0.824264 -0.066196
v -0.100586 -0.891600 0.023994
v -0.079956 -0.937551 0.113700
v -0.070275 -0.959844 0.206182
v -0.061884 -0.968578 0.291892
v -0.019053 -0.830779 0.286582
v -0.020547 -0.794740 0.241677
v -0.021579 -0.751395 0.197005
v -0.023083 -0.698712 0.155317
v -0.025437 -0.636766 0.117117
v -0.026648 -0.573484 0.069026
v -0.029809 -0.502409 0.039067
v -0.035953 -0.420164 0.024677
v -0.042707 -0.335729 0.020596
v -0.051039 -0.249829 0.027482
v -0.060995 -0.172315 0.063498
v -0.070496 -0.105449 0.119185
v -0.075889 -0.043959 0.172427
v -0.073488 -0.012746 0.222725
v -0.081026 -0.004960 0.292172
v -0.078896 0.001023 0.347540
v -0.076380 -0.003014 0.392112
v -0.080887 -0.033737 0.436576
v -0.082566 -0.073265 0.485073
v -0.082854 -0.109207 0.530057
v -0.079935 -0.148065 0.554166
v -0.080596 -0.193473 0.558550
v -0.077215 -0.248539 0.555056
v -0.071030 -0.312332 0.544190
v -0.060417 -0.409635 0.557767
v -0.035939 -0.471090 0.610915
v -0.017402 -0.490574 0.649181
v 0.000000 -0.497209 0.669629
v -0.019062 -0.525602 0.722549
v -0.041654 -0.551700 0.758699
v 0.027615 -0.767843 0.216484
v -0.092356 -0.794418 0.209479
v -0.075225 -0.845333 0.367859
v 0.022359 -0.820383 0.379914
v -0.059561 -0.885781 0.492244
v 0.019900 -0.870268 0.500254
v -0.041095 -0.918521 0.587599
v 0.012913 -0.911640 0.589667
v -0.022625 -0.940832 0.617006
v 0.002684 -0.938987 0.615210
v 0.078378 -0.916124 0.358839
v 0.100300 -0.871266 0.197734
v 0.054122 -0.941957 0.487190
v 0.032753 -0.953981 0.578787
v 0.014399 -0.957614 0.610017
v -0.120420 -0.901984 0.184323
v -0.102162 -0.938348 0.335660
v -0.079674 -0.957067 0.476697
v -0.052468 -0.964696 0.578421
v -0.031196 -0.963574 0.614326
v -0.034842 -0.978462 0.157854
v -0.040869 -1.019559 0.321901
v -0.033091 -1.019027 0.474316
v -0.020924 -1.004262 0.578680
v -0.011829 -0.981320 0.616539
v 0.029899 -0.976384 0.156311
v 0.034672 -1.019466 0.331730
v 0.020779 -1.018725 0.477731
v 0.013348 -1.002183 0.579244
v 0.004190 -0.979059 0.614522
v -0.014703 -0.949308 0.620748
v -0.000995 -0.948059 0.618784
v -0.019837 -0.961833 0.620836
v -0.008962 -0.970177 0.621190
v 0.000032 -0.968014 0.619976
v 0.006243 -0.957711 0.616907
v -0.006366 -0.959191 0.621535
v -0.005682 -0.882119 0.124597
v 0.008768 -0.859270 0.129770
v -0.007265 -0.837560 0.136894
v -0.020220 -0.882811 0.124851
v -0.039795 -0.866073 0.130984
v -0.032777 -0.842169 0.138208
v -0.013565 -0.851948 0.130920
v -0.008485 -0.858947 0.128346
v -0.021987 -0.853430 0.131671
v -0.024280 -0.861228 0.129444
v -0.017770 -0.866252 0.127340
v -0.013004 -0.865997 0.127036
v -0.014650 -0.854912 0.129888
v -0.019012 -0.855778 0.130275
v -0.012254 -0.858417 0.128401
v -0.014759 -0.861940 0.127896
v -0.017065 -0.862545 0.128021
v -0.020254 -0.859956 0.129133
v -0.016629 -0.859231 0.128770
v -0.010354 -0.845826 0.133280
v -0.001936 -0.858095 0.129017
v -0.010566 -0.871009 0.126164
v -0.018168 -0.872731 0.126215
v -0.029490 -0.862764 0.129933
v -0.025322 -0.848677 0.134135
v 0.001112 -0.897421 0.123332
v 0.027441 -0.858152 0.132627
v 0.001348 -0.821145 0.144857
v -0.043389 -0.829801 0.145988
v -0.055510 -0.870936 0.133337
v -0.022299 -0.901367 0.123176
v 0.014991 -0.936486 0.129861
v 0.063647 -0.860786 0.144394
v 0.009088 -0.797856 0.161519
v -0.063751 -0.812220 0.163538
v -0.085187 -0.882531 0.143931
v -0.028776 -0.936455 0.129962
v -0.088745 -0.807605 0.269385
v 0.026043 -0.781312 0.279645
v 0.093044 -0.887402 0.250737
v 0.040681 -0.996388 0.213795
v -0.036910 -0.999802 0.212458
v -0.116253 -0.914988 0.238532
v 0.025502 -0.800996 0.331903
v -0.082681 -0.827351 0.319557
v -0.109329 -0.929357 0.286776
v -0.042578 -1.010954 0.266252
v 0.048429 -1.005495 0.275851
v 0.087143 -0.902602 0.307180
v -0.070204 -0.860650 0.410803
v 0.021405 -0.839150 0.423339
v 0.068946 -0.927401 0.406531
v 0.026071 -1.023354 0.386215
v -0.040742 -1.023095 0.376430
v -0.095135 -0.946493 0.385351
v 0.060799 -0.936502 0.448677
v 0.021009 -0.855692 0.463011
v -0.064326 -0.873842 0.452953
v -0.087459 -0.954270 0.436391
v -0.033673 -1.023690 0.427943
v 0.022599 -1.021557 0.436380
v -0.053581 -0.895131 0.529153
v 0.017176 -0.882314 0.534356
v 0.048034 -0.945726 0.522401
v 0.017720 -1.015504 0.516122
v -0.028518 -1.015451 0.514075
v -0.070155 -0.961462 0.517115
v 0.041160 -0.950745 0.553285
v 0.017008 -0.897518 0.565055
v -0.048861 -0.907666 0.561466
v -0.061427 -0.963932 0.550006
v -0.024372 -1.011091 0.548384
v 0.016192 -1.009805 0.550463
v -0.032094 -0.930620 0.606769
v 0.008093 -0.926753 0.606326
v 0.023548 -0.956077 0.597705
v 0.009809 -0.989967 0.602161
v -0.017275 -0.995694 0.600087
v -0.042457 -0.965389 0.599830
v 0.005639 -0.950949 0.616358
v 0.011563 -0.946446 0.611073
v 0.019111 -0.939825 0.600511
v 0.027099 -0.931415 0.582680
v 0.033789 -0.921576 0.557980
v 0.039159 -0.911666 0.528059
v 0.043523 -0.900059 0.494159
v 0.050578 -0.891957 0.456356
v 0.056385 -0.878134 0.416052
v 0.060762 -0.860247 0.375637
v 0.069085 -0.843554 0.321921
v 0.074659 -0.827630 0.268218
v 0.074296 -0.805258 0.205821
v 0.049873 -0.819946 0.157488
v 0.018702 -0.836516 0.138675
v 0.005026 -0.844850 0.133995
v -0.004806 -0.851419 0.130868
v -0.009387 -0.853846 0.129802
v -0.012518 -0.856244 0.129041
v -0.017521 -0.854323 0.130568
v -0.017453 -0.850814 0.131950
v -0.019040 -0.845852 0.134263
v -0.019776 -0.835551 0.138951
v -0.024476 -0.820561 0.146985
v -0.028017 -0.795013 0.165361
v -0.040865 -0.763917 0.214312
v -0.040157 -0.776825 0.279260
v -0.036693 -0.797973 0.329869
v -0.034240 -0.817970 0.377016
v -0.031490 -0.834425 0.420710
v -0.029521 -0.849672 0.461305
v -0.027389 -0.864193 0.501401
v -0.026591 -0.876828 0.536206
v -0.022353 -0.888698 0.566781
v -0.018475 -0.904734 0.593531
v -0.013329 -0.921486 0.610145
v -0.009680 -0.936017 0.617457
v -0.008963 -0.944241 0.619696
v -0.021512 -0.857778 0.130019
v -0.024005 -0.856634 0.130856
v -0.030051 -0.855526 0.132378
v -0.039157 -0.852534 0.135308
v -0.056000 -0.848877 0.140838
v -0.083359 -0.842356 0.155273
v -0.119802 -0.839602 0.197103
v -0.114117 -0.850550 0.259471
v -0.108873 -0.871741 0.304974
v -0.100445 -0.888081 0.352437
v -0.091809 -0.900068 0.399171
v -0.084473 -0.909708 0.442354
v -0.077493 -0.918630 0.484156
v -0.070197 -0.927134 0.522033
v -0.061774 -0.933259 0.555235
v -0.052725 -0.940797 0.582204
v -0.041999 -0.945948 0.602822
v -0.030815 -0.951016 0.615348
v -0.022349 -0.953805 0.620235
v -0.019966 -0.862491 0.128423
v -0.021587 -0.864827 0.128104
v -0.025818 -0.869284 0.127730
v -0.031941 -0.877149 0.127096
v -0.044271 -0.890753 0.127323
v -0.063274 -0.915128 0.134337
v -0.087093 -0.951606 0.168519
v -0.087147 -0.966508 0.221608
v -0.084316 -0.977831 0.274205
v -0.078352 -0.988355 0.323758
v -0.078028 -0.989489 0.374205
v -0.071598 -0.993764 0.427412
v -0.063613 -0.993496 0.472343
v -0.055662 -0.992467 0.513132
v -0.048737 -0.990365 0.548138
v -0.041756 -0.987665 0.576521
v -0.034081 -0.982188 0.599967
v -0.025377 -0.975685 0.614030
v -0.018555 -0.969236 0.620018
v -0.012249 -0.861522 0.127807
v -0.009475 -0.862589 0.127597
v -0.004259 -0.866789 0.127059
v 0.004770 -0.871473 0.126847
v 0.020552 -0.883960 0.126518
v 0.048301 -0.900829 0.132161
v 0.083938 -0.938591 0.170927
v 0.083783 -0.952109 0.232428
v 0.079339 -0.964175 0.290835
v 0.070562 -0.973941 0.348701
v 0.061696 -0.979370 0.396135
v 0.052790 -0.985110 0.441875
v 0.048208 -0.983222 0.481909
v 0.043080 -0.982625 0.518392
v 0.037285 -0.981263 0.550828
v 0.030121 -0.978135 0.578159
v 0.021523 -0.974379 0.598311
v 0.013134 -0.968632 0.610914
v 0.006825 -0.965573 0.616729
v -0.006837 -0.934580 0.570803
v 0.002457 -0.940850 0.570785
v 0.004623 -0.936879 0.534013
v -0.008852 -0.929344 0.535981
v -0.021214 -0.935586 0.536469
v -0.017367 -0.938347 0.570525
v -0.005280 -0.941936 0.600029
v -0.000255 -0.946480 0.599475
v -0.013501 -0.944097 0.600302
v -0.028247 -0.954784 0.536683
v -0.024305 -0.956366 0.570224
v -0.019008 -0.957377 0.600346
v -0.019113 -0.973664 0.537745
v -0.017146 -0.973336 0.570514
v -0.014555 -0.972306 0.600967
v -0.008048 -0.978808 0.537694
v -0.009120 -0.977304 0.570467
v -0.007867 -0.975551 0.600860
v 0.006317 -0.972316 0.535883
v 0.005258 -0.968487 0.570302
v 0.002708 -0.966276 0.600014
v 0.007036 -0.950368 0.570522
v 0.002345 -0.952525 0.599202
v 0.011054 -0.953696 0.534818
v -0.006324 -0.969871 0.630180
v 0.001627 -0.962396 0.627152
v 0.001460 -0.952055 0.624984
v -0.000709 -0.947158 0.624685
v -0.004880 -0.943392 0.625010
v -0.011509 -0.944977 0.625628
v -0.015978 -0.955251 0.627490
v -0.012794 -0.966695 0.629806
v -0.004578 -0.962217 0.648154
v -0.010236 -0.961135 0.648390
v -0.003791 -0.956772 0.658225
v -0.009310 -0.957277 0.658238
v -0.013225 -0.951977 0.644194
v -0.010249 -0.944970 0.641121
v -0.010820 -0.949639 0.651126
v -0.009364 -0.944981 0.648469
v -0.004137 -0.943200 0.639695
v -0.003243 -0.944006 0.646737
v -0.000674 -0.946758 0.639079
v -0.000770 -0.947248 0.645162
v 0.000973 -0.950652 0.639243
v 0.000341 -0.950001 0.643883
v 0.000590 -0.957548 0.643167
v -0.000683 -0.954090 0.649914
v -0.003684 -0.950813 0.654282
v -0.004847 -0.953274 0.665196
v -0.005800 -0.950006 0.665268
v -0.005770 -0.948986 0.654729
v -0.024070 -0.967934 0.537612
v -0.022302 -0.965791 0.570384
v -0.018436 -0.964625 0.600705
v -0.015371 -0.961705 0.628857
v -0.012806 -0.957734 0.647477
v -0.010866 -0.951650 0.655045
v -0.006208 -0.949348 0.662781
v -0.003993 -0.951735 0.658367
v -0.001858 -0.956068 0.653698
v -0.001590 -0.960883 0.645905
v -0.000720 -0.967292 0.628354
v -0.000098 -0.972014 0.600482
v -0.000035 -0.974972 0.570380
v -0.000509 -0.977768 0.536876
v -0.025681 -0.942456 0.536764
v -0.022723 -0.946635 0.570357
v -0.017432 -0.950184 0.600137
v -0.014625 -0.949738 0.626441
v -0.012104 -0.948246 0.642327
v -0.010227 -0.946971 0.649471
v -0.004960 -0.946363 0.652676
v -0.001844 -0.948963 0.650191
v 0.000034 -0.952336 0.647156
v 0.001243 -0.954160 0.640886
v 0.002224 -0.957401 0.625914
v 0.003373 -0.958993 0.599415
v 0.007660 -0.959867 0.570342
v 0.010434 -0.963037 0.536120
v -0.005510 -0.966380 0.639053
v -0.011166 -0.964429 0.639194
v -0.014488 -0.959419 0.637821
v -0.015060 -0.953865 0.636071
v -0.013474 -0.949072 0.634624
v -0.010817 -0.944958 0.633549
v -0.004374 -0.943541 0.632517
v -0.000700 -0.947073 0.632223
v 0.001320 -0.951304 0.632536
v 0.001837 -0.957111 0.634257
v 0.000989 -0.961031 0.635773
v -0.000871 -0.964069 0.637417
v -0.007405 -0.974650 0.610894
v -0.014570 -0.970475 0.610826
v -0.017140 -0.964547 0.610305
v -0.017613 -0.956973 0.609607
v -0.016123 -0.950579 0.609145
v -0.012588 -0.944957 0.609013
v -0.005061 -0.942948 0.609199
v -0.000436 -0.947160 0.608234
v 0.001824 -0.952588 0.608227
v 0.002780 -0.958834 0.608588
v 0.002365 -0.964850 0.609279
v -0.000241 -0.971051 0.610190
v -0.000682 -0.969751 0.619576
v 0.001824 -0.964426 0.618642
v 0.002442 -0.958111 0.617431
v 0.001608 -0.952501 0.616811
v -0.000563 -0.947284 0.616723
v -0.005145 -0.943210 0.616962
v -0.012130 -0.945239 0.617408
v -0.015317 -0.950330 0.617891
v -0.016719 -0.956436 0.618645
v -0.016247 -0.963172 0.619641
v -0.013699 -0.968951 0.620493
v -0.006826 -0.972738 0.620782
v -0.005858 -0.940240 0.591046
v 0.000135 -0.945118 0.590314
v 0.003357 -0.951924 0.589923
v 0.004445 -0.959237 0.590208
v 0.003573 -0.966439 0.590354
v -0.000321 -0.973042 0.590689
v -0.008523 -0.975996 0.590922
v -0.015443 -0.972716 0.591022
v -0.019695 -0.965665 0.590923
v -0.020859 -0.957150 0.590654
v -0.019248 -0.949319 0.590807
v -0.014532 -0.942339 0.591144
v -0.006100 -0.937823 0.581553
v 0.001160 -0.943267 0.580836
v 0.005003 -0.951061 0.580410
v 0.006010 -0.959373 0.580428
v 0.004417 -0.967342 0.580500
v -0.000369 -0.973966 0.580686
v -0.008683 -0.976547 0.580818
v -0.016721 -0.972691 0.580873
v -0.021252 -0.965416 0.580794
v -0.022719 -0.956868 0.580602
v -0.021103 -0.947947 0.580845
v -0.016057 -0.940435 0.581232
v 0.004439 -0.937922 0.549408
v -0.008109 -0.930220 0.548198
v -0.019672 -0.935858 0.548867
v -0.024810 -0.943827 0.548582
v -0.026982 -0.955300 0.548619
v -0.024055 -0.966515 0.548663
v -0.017980 -0.974011 0.550313
v -0.008853 -0.978447 0.548678
v 0.000149 -0.977043 0.548324
v 0.006185 -0.971442 0.547971
v 0.009581 -0.963036 0.548752
v 0.010091 -0.950978 0.547445
v 0.003595 -0.938890 0.560137
v -0.007144 -0.931958 0.560258
v -0.018586 -0.936854 0.559812
v -0.023950 -0.945428 0.559638
v -0.025702 -0.955760 0.559642
v -0.023135 -0.966357 0.559658
v -0.017770 -0.973590 0.560060
v -0.009112 -0.977985 0.559711
v 0.000317 -0.976028 0.559618
v 0.006062 -0.969644 0.559511
v 0.008752 -0.961828 0.559950
v 0.008736 -0.950001 0.559833
vt 0.324698 0.570525
vt 0.409560 0.570525
vt 0.409560 0.594569
vt 0.324698 0.594569
vt 0.529921 0.570525
vt 0.529921 0.594569
vt 0.492044 0.594569
vt 0.492044 0.570525
vt 0.324698 0.548808
vt 0.409560 0.548808
vt 0.492044 0.548808
vt 0.529921 0.548808
vt 0.409560 0.523022
vt 0.324698 0.523022
vt 0.324698 0.506618
vt 0.409560 0.506618
vt 0.529921 0.523022
vt 0.492044 0.523022
vt 0.492044 0.506618
vt 0.529921 0.506618
vt 0.409560 0.496061
vt 0.324698 0.496061
vt 0.324698 0.473272
vt 0.409560 0.473272
vt 0.529921 0.496061
vt 0.492044 0.496061
vt 0.492044 0.473272
vt 0.529921 0.473272
vt 0.409560 0.448558
vt 0.324698 0.448558
vt 0.324698 0.429321
vt 0.409560 0.429321
vt 0.529921 0.448558
vt 0.492044 0.448558
vt 0.492044 0.429321
vt 0.529921 0.429321
vt 0.409560 0.404314
vt 0.324698 0.404314
vt 0.324698 0.367688
vt 0.409560 0.367688
vt 0.529921 0.404314
vt 0.492044 0.404314
vt 0.492044 0.367688
vt 0.529921 0.367688
vt 0.409560 0.340463
vt 0.324698 0.340463
vt 0.324698 0.314364
vt 0.409560 0.314364
vt 0.529921 0.340463
vt 0.492044 0.340463
vt 0.492044 0.314364
vt 0.529921 0.314364
vt 0.409560 0.285438
vt 0.324698 0.285438
vt 0.324698 0.254897
vt 0.409560 0.254897
vt 0.529921 0.285438
vt 0.492044 0.285438
vt 0.492044 0.254897
vt 0.529921 0.254897
vt 0.409560 0.226192
vt 0.324698 0.226192
vt 0.324698 0.197210
vt 0.409560 0.197210
vt 0.529921 0.226192
vt 0.492044 0.226192
vt 0.492044 0.197210
vt 0.529921 0.197210
vt 0.409560 0.171459
vt 0.324698 0.171459
vt 0.324698 0.141027
vt 0.409560 0.141027
vt 0.529921 0.171459
vt 0.492044 0.171459
vt 0.492044 0.141027
vt 0.529921 0.141027
vt 0.409560 0.114824
vt 0.324698 0.114824
vt 0.324698 0.090644
vt 0.409560 0.090644
vt 0.529921 0.114824
vt 0.492044 0.114824
vt 0.492044 0.090644
vt 0.529921 0.090644
vt 0.409560 0.049285
vt 0.324698 0.049285
vt 0.324698 0.030733
vt 0.409560 0.030733
vt 0.529921 0.049285
vt 0.492044 0.049285
vt 0.492044 0.030733
vt 0.529921 0.030733
vt 0.080769 0.030733
vt 0.132508 0.030733
vt 0.132508 0.049285
vt 0.080769 0.049285
vt 0.603037 0.030733
vt 0.603037 0.049285
vt 0.080769 0.090644
vt 0.132508 0.090644
vt 0.132508 0.114824
vt 0.080769 0.114824
vt 0.603037 0.090644
vt 0.603037 0.114824
vt 0.080769 0.141027
vt 0.132508 0.141027
vt 0.132508 0.171459
vt 0.080769 0.171459
vt 0.601453 0.141027
vt 0.601453 0.171459
vt 0.080769 0.197210
vt 0.132508 0.197210
vt 0.132508 0.226192
vt 0.080769 0.226192
vt 0.601453 0.197210
vt 0.601453 0.226191
vt 0.080769 0.254897
vt 0.132508 0.254897
vt 0.132508 0.285438
vt 0.080769 0.285438
vt 0.601453 0.254897
vt 0.601453 0.285438
vt 0.080769 0.314364
vt 0.132508 0.314364
vt 0.132508 0.340463
vt 0.080769 0.340463
vt 0.601453 0.314364
vt 0.601453 0.340463
vt 0.080769 0.367688
vt 0.132508 0.367688
vt 0.132508 0.404314
vt 0.080769 0.404314
vt 0.601453 0.367688
vt 0.601453 0.404314
vt 0.080769 0.429321
vt 0.132508 0.429321
vt 0.132508 0.448558
vt 0.080769 0.448558
vt 0.601453 0.429321
vt 0.601453 0.448558
vt 0.080769 0.473272
vt 0.132508 0.473272
vt 0.132508 0.496061
vt 0.080768 0.496061
vt 0.601453 0.473272
vt 0.601453 0.496061
vt 0.080769 0.506618
vt 0.132508 0.506618
vt 0.132508 0.523022
vt 0.080769 0.523022
vt 0.601453 0.506618
vt 0.601453 0.523022
vt 0.080769 0.548808
vt 0.132508 0.548808
vt 0.132508 0.570525
vt 0.080769 0.570525
vt 0.601453 0.548808
vt 0.601453 0.570525
vt 0.132508 0.594569
vt 0.080769 0.594569
vt 0.599869 0.594569
vt 0.708073 0.049284
vt 0.708073 0.030733
vt 0.046018 0.030733
vt 0.046018 0.049285
vt 0.708073 0.114824
vt 0.708073 0.090644
vt 0.046018 0.090644
vt 0.046018 0.114824
vt 0.708073 0.171459
vt 0.013328 0.141027
vt 0.046018 0.141027
vt 0.046018 0.171459
vt 0.708073 0.226192
vt 0.013328 0.197210
vt 0.046018 0.197210
vt 0.046018 0.226192
vt 0.708073 0.285438
vt 0.013328 0.254897
vt 0.046018 0.254897
vt 0.046018 0.285438
vt 0.708073 0.340463
vt 0.013328 0.314364
vt 0.046018 0.314364
vt 0.046018 0.340463
vt 0.708073 0.404314
vt 0.013328 0.367688
vt 0.046018 0.367688
vt 0.046018 0.404314
vt 0.708073 0.448558
vt 0.013328 0.429321
vt 0.046018 0.429321
vt 0.046018 0.448558
vt 0.708073 0.496061
vt 0.013328 0.473272
vt 0.046018 0.473272
vt 0.046018 0.496061
vt 0.708073 0.523022
vt 0.013328 0.506618
vt 0.046018 0.506618
vt 0.046018 0.523022
vt 0.708073 0.570525
vt 0.013328 0.548808
vt 0.046018 0.548808
vt 0.046018 0.570525
vt 0.013328 0.594569
vt 0.045198 0.594569
vt 0.276722 0.049285
vt 0.276722 0.030733
vt 0.276722 0.114824
vt 0.276722 0.090644
vt 0.277417 0.171459
vt 0.277417 0.141027
vt 0.277417 0.226192
vt 0.277417 0.197210
vt 0.277417 0.285438
vt 0.277417 0.254897
vt 0.277417 0.340463
vt 0.277417 0.314364
vt 0.277417 0.404314
vt 0.277417 0.367688
vt 0.277417 0.448558
vt 0.277417 0.429321
vt 0.277417 0.496061
vt 0.277417 0.473272
vt 0.277417 0.523022
vt 0.277417 0.506618
vt 0.277417 0.570525
vt 0.277417 0.548808
vt 0.278111 0.594569
vt 0.188906 0.570525
vt 0.188906 0.594569
vt 0.188906 0.548808
vt 0.188906 0.506618
vt 0.188906 0.523022
vt 0.188906 0.473272
vt 0.188906 0.496061
vt 0.188906 0.429321
vt 0.188906 0.448558
vt 0.188906 0.367688
vt 0.188906 0.404314
vt 0.188906 0.314364
vt 0.188906 0.340463
vt 0.188906 0.254897
vt 0.188906 0.285438
vt 0.188906 0.197210
vt 0.188906 0.226192
vt 0.188906 0.141027
vt 0.188906 0.171459
vt 0.188906 0.090644
vt 0.188906 0.114824
vt 0.188906 0.030733
vt 0.188906 0.049285
vt 0.672912 0.049285
vt 0.672912 0.030733
vt 0.672912 0.114824
vt 0.672912 0.090644
vt 0.673220 0.171459
vt 0.673221 0.141027
vt 0.673221 0.226192
vt 0.673220 0.197210
vt 0.673220 0.285438
vt 0.673220 0.254897
vt 0.673220 0.340463
vt 0.673220 0.314364
vt 0.673220 0.404314
vt 0.673220 0.367688
vt 0.673221 0.448558
vt 0.673220 0.429321
vt 0.673220 0.496061
vt 0.673220 0.473272
vt 0.673221 0.523022
vt 0.673221 0.506618
vt 0.673221 0.570525
vt 0.673221 0.548808
vt 0.673528 0.594569
vt 0.409560 0.609348
vt 0.345390 0.609348
vt 0.470479 0.609348
vt 0.566368 0.611515
vt 0.599869 0.611515
vt 0.242525 0.610736
vt 0.013328 0.606408
vt 0.629601 0.611515
vt 0.188906 0.610736
vt 0.110917 0.606408
vt 0.045198 0.606408
vt 0.080769 0.606408
vt 0.381807 0.621496
vt 0.409560 0.621496
vt 0.409560 0.634225
vt 0.441987 0.621496
vt 0.587385 0.622557
vt 0.594749 0.627887
vt 0.198728 0.626693
vt 0.215657 0.619785
vt 0.599869 0.622557
vt 0.599869 0.627887
vt 0.188906 0.619785
vt 0.188906 0.626693
vt 0.087409 0.621627
vt 0.169038 0.619785
vt 0.033121 0.621627
vt 0.606822 0.627887
vt 0.612782 0.622557
vt 0.013328 0.615346
vt 0.068780 0.621627
vt 0.080769 0.615346
vt 0.045198 0.615346
vt 0.042788 0.621627
vt 0.060280 0.629510
vt 0.409560 0.068876
vt 0.324698 0.068876
vt 0.529921 0.068876
vt 0.492044 0.068876
vt 0.603037 0.068876
vt 0.013328 0.068876
vt 0.672912 0.068876
vt 0.046018 0.068876
vt 0.132508 0.068876
vt 0.080769 0.068876
vt 0.188906 0.068876
vt 0.276722 0.068876
vt 0.409560 0.013695
vt 0.324698 0.013695
vt 0.529921 0.013695
vt 0.492044 0.013695
vt 0.603037 0.013694
vt 0.708073 0.013695
vt 0.672912 0.013694
vt 0.046018 0.013695
vt 0.132508 0.013695
vt 0.080769 0.013695
vt 0.188906 0.013695
vt 0.276722 0.013695
vt 0.013328 0.013695
vt 0.013328 0.030733
vt 0.013328 0.049285
vt 0.708073 0.068876
vt 0.013328 0.090644
vt 0.013328 0.114824
vt 0.708073 0.141027
vt 0.013328 0.171459
vt 0.708073 0.197210
vt 0.013328 0.226192
vt 0.708073 0.254897
vt 0.013328 0.285438
vt 0.708073 0.314364
vt 0.013328 0.340463
vt 0.708073 0.367688
vt 0.013328 0.404314
vt 0.708073 0.429321
vt 0.013328 0.448558
vt 0.708073 0.473272
vt 0.013328 0.496061
vt 0.708073 0.506618
vt 0.013328 0.523022
vt 0.708073 0.548808
vt 0.013328 0.570525
vt 0.708073 0.610435
vt 0.708074 0.621109
vt 0.693702 0.626583
vt 0.708073 0.594569
vt 0.317649 0.609348
vt 0.348206 0.621496
vt 0.392090 0.634225
vt 0.685945 0.631082
vt 0.599870 0.632142
vt 0.409560 0.639967
vt 0.188906 0.630301
vt 0.494805 0.609348
vt 0.474311 0.621496
vt 0.672878 0.610435
vt 0.672879 0.621109
vt 0.154565 0.610736
vt 0.434537 0.634225
vt 0.679944 0.626583
vt 0.179345 0.626693
vt 0.098817 0.615346
vt 0.971026 0.952390
vt 0.921074 0.952390
vt 0.921074 0.902190
vt 0.971026 0.902190
vt 0.971026 0.807920
vt 0.921074 0.807920
vt 0.921074 0.768459
vt 0.971026 0.768459
vt 0.971026 0.707438
vt 0.921074 0.707438
vt 0.921074 0.684302
vt 0.971026 0.684302
vt 0.971026 0.618165
vt 0.921074 0.618165
vt 0.921074 0.598804
vt 0.971026 0.598804
vt 0.992630 0.902190
vt 0.992630 0.952390
vt 0.992630 0.768459
vt 0.992630 0.807920
vt 0.992630 0.684302
vt 0.992630 0.707438
vt 0.992630 0.598804
vt 0.992630 0.618165
vt 0.849895 0.952390
vt 0.849895 0.902190
vt 0.886499 0.902190
vt 0.886499 0.952390
vt 0.849895 0.807920
vt 0.849895 0.768459
vt 0.886499 0.768459
vt 0.886499 0.807920
vt 0.849895 0.707438
vt 0.849895 0.684302
vt 0.886499 0.684302
vt 0.886499 0.707438
vt 0.849895 0.618165
vt 0.849895 0.598804
vt 0.886499 0.598804
vt 0.886499 0.618165
vt 0.786038 0.952390
vt 0.786038 0.902190
vt 0.806380 0.902190
vt 0.806380 0.952390
vt 0.786038 0.807920
vt 0.786038 0.768459
vt 0.806380 0.768459
vt 0.806380 0.807920
vt 0.786038 0.707438
vt 0.786038 0.684302
vt 0.806380 0.684302
vt 0.806380 0.707438
vt 0.786038 0.618165
vt 0.786038 0.598804
vt 0.806380 0.598804
vt 0.806380 0.618165
vt 0.910677 0.402880
vt 0.961180 0.402880
vt 0.961180 0.453388
vt 0.910677 0.453388
vt 0.910677 0.299436
vt 0.910677 0.256013
vt 0.961180 0.256013
vt 0.961180 0.299436
vt 0.910677 0.180088
vt 0.910677 0.147288
vt 0.961180 0.147288
vt 0.961180 0.180088
vt 0.910677 0.072082
vt 0.910677 0.054969
vt 0.961180 0.054969
vt 0.961180 0.072082
vt 0.867867 0.072082
vt 0.867867 0.054969
vt 0.867867 0.180088
vt 0.867867 0.147288
vt 0.867867 0.299436
vt 0.867867 0.256013
vt 0.867867 0.453388
vt 0.867867 0.402880
vt 0.971026 0.548172
vt 0.921074 0.548172
vt 0.921074 0.528571
vt 0.971026 0.504131
vt 0.849895 0.548172
vt 0.849895 0.528571
vt 0.886499 0.528571
vt 0.886499 0.548172
vt 0.786038 0.548172
vt 0.786038 0.504131
vt 0.806380 0.504131
vt 0.806380 0.548172
vt 0.910677 0.011873
vt 0.961180 0.011873
vt 0.961180 0.020521
vt 0.910677 0.020521
vt 0.867867 0.020521
vt 0.867867 0.011873
vt 0.992630 0.504131
vt 0.992630 0.548172
vt 0.867867 0.003991
vt 0.785880 0.003991
vt 0.785880 0.003991
vt 0.910723 0.003991
vt 0.886499 0.504131
vt 0.993562 0.003991
vt 0.993562 0.003991
vt 0.867867 0.493399
vt 0.910677 0.493399
vt 0.992630 0.994880
vt 0.971026 0.994880
vt 0.961180 0.493399
vt 0.806380 0.994880
vt 0.786038 0.994880
vt 0.886499 0.994880
vt 0.849895 0.994880
vt 0.921074 0.994880
vt 0.553975 0.817798
vt 0.542318 0.812019
vt 0.541027 0.800414
vt 0.558818 0.797992
vt 0.538535 0.790379
vt 0.547475 0.779502
vt 0.517421 0.784931
vt 0.512070 0.770201
vt 0.533157 0.770166
vt 0.526983 0.784523
vt 0.503050 0.801884
vt 0.488149 0.799118
vt 0.497196 0.782032
vt 0.507191 0.791035
vt 0.504732 0.833541
vt 0.490979 0.820057
vt 0.505043 0.811946
vt 0.511886 0.821568
vt 0.523751 0.824146
vt 0.522205 0.840644
vt 0.530741 0.795478
vt 0.533127 0.802504
vt 0.532950 0.809036
vt 0.518023 0.812296
vt 0.522221 0.816954
vt 0.513741 0.808280
vt 0.515089 0.797837
vt 0.510085 0.802049
vt 0.525668 0.794427
vt 0.518144 0.791986
vt 0.521301 0.804540
vt 0.528678 0.812648
vt 0.582251 0.828221
vt 0.581552 0.791928
vt 0.488227 0.858955
vt 0.525046 0.865656
vt 0.467236 0.829572
vt 0.476793 0.764527
vt 0.463624 0.797008
vt 0.538054 0.744036
vt 0.506907 0.745880
vt 0.569589 0.762289
vt 0.521319 0.915317
vt 0.465686 0.894015
vt 0.620526 0.843650
vt 0.630870 0.784675
vt 0.597890 0.728763
vt 0.493442 0.702958
vt 0.552408 0.701476
vt 0.418962 0.789253
vt 0.445984 0.737062
vt 0.425805 0.850264
vt 0.527912 0.997777
vt 0.403701 0.977875
vt 0.712958 0.881407
vt 0.701816 0.761665
vt 0.656871 0.676121
vt 0.474824 0.626297
vt 0.569537 0.623404
vt 0.340067 0.777777
vt 0.382741 0.682105
vt 0.341703 0.883754
vt 0.971026 0.853239
vt 0.921074 0.853239
vt 0.992630 0.853239
vt 0.910677 0.350461
vt 0.867867 0.350461
vt 0.961180 0.350461
vt 0.806380 0.853239
vt 0.786038 0.853239
vt 0.886499 0.853239
vt 0.849895 0.853239
vt 0.971026 0.733282
vt 0.921074 0.733282
vt 0.992630 0.733282
vt 0.910677 0.215461
vt 0.867867 0.215461
vt 0.961180 0.215461
vt 0.806380 0.733282
vt 0.786038 0.733282
vt 0.886499 0.733282
vt 0.849895 0.733282
vt 0.971026 0.644363
vt 0.921074 0.644363
vt 0.992630 0.644363
vt 0.910677 0.118917
vt 0.867867 0.118917
vt 0.961180 0.118917
vt 0.806380 0.644363
vt 0.786038 0.644363
vt 0.886499 0.644363
vt 0.849895 0.644363
vt 0.825869 0.020521
vt 0.785880 0.020522
vt 0.825869 0.054969
vt 0.785880 0.054969
vt 0.785880 0.072082
vt 0.825869 0.072082
vt 0.825869 0.118917
vt 0.785880 0.118917
vt 0.785880 0.147288
vt 0.825869 0.147288
vt 0.785880 0.180088
vt 0.825869 0.180088
vt 0.825869 0.215461
vt 0.785880 0.215461
vt 0.785880 0.256013
vt 0.825869 0.256013
vt 0.785880 0.299436
vt 0.825869 0.299436
vt 0.825869 0.350461
vt 0.785880 0.350461
vt 0.825869 0.402880
vt 0.785880 0.402880
vt 0.785880 0.453388
vt 0.825869 0.453388
vt 0.825869 0.493399
vt 0.785880 0.493399
vt 0.586093 0.893155
vt 0.639802 0.971313
vt 0.556431 0.856632
vt 0.543674 0.833227
vt 0.532705 0.821101
vt 0.993562 0.453388
vt 0.993562 0.493399
vt 0.993562 0.402880
vt 0.993562 0.350461
vt 0.993562 0.299436
vt 0.993562 0.256013
vt 0.993562 0.215461
vt 0.993562 0.180088
vt 0.993562 0.147288
vt 0.993562 0.118917
vt 0.993562 0.072082
vt 0.993562 0.054969
vt 0.993562 0.020521
vt 0.146318 0.721471
vt 0.124778 0.721471
vt 0.124778 0.694319
vt 0.146318 0.694319
vt 0.177525 0.694320
vt 0.177525 0.721471
vt 0.146318 0.747980
vt 0.124778 0.747980
vt 0.177525 0.747980
vt 0.190345 0.694319
vt 0.190344 0.721471
vt 0.190344 0.747980
vt 0.214811 0.721471
vt 0.214811 0.694319
vt 0.244945 0.694319
vt 0.244945 0.721471
vt 0.244945 0.747980
vt 0.214811 0.747980
vt 0.266511 0.721471
vt 0.266511 0.694320
vt 0.009409 0.694319
vt 0.298293 0.721471
vt 0.298293 0.747980
vt 0.266511 0.747980
vt 0.035293 0.721470
vt 0.035293 0.694319
vt 0.059923 0.694319
vt 0.059923 0.721472
vt 0.059923 0.747980
vt 0.035293 0.747980
vt 0.103819 0.747980
vt 0.103819 0.721471
vt 0.103819 0.694319
vt 0.081317 0.694319
vt 0.081317 0.721471
vt 0.081317 0.747980
vt 0.059923 0.833615
vt 0.035293 0.833615
vt 0.035292 0.771869
vt 0.059922 0.771869
vt 0.103819 0.771869
vt 0.103819 0.833615
vt 0.081317 0.833615
vt 0.081317 0.771869
vt 0.124778 0.771869
vt 0.124778 0.833615
vt 0.146318 0.771869
vt 0.146318 0.833615
vt 0.177525 0.771869
vt 0.177525 0.833615
vt 0.190344 0.771869
vt 0.190344 0.833615
vt 0.244945 0.771869
vt 0.244945 0.833615
vt 0.214811 0.833615
vt 0.214811 0.771869
vt 0.298293 0.771869
vt 0.009409 0.833615
vt 0.266511 0.833615
vt 0.266511 0.771869
vt 0.266511 0.878849
vt 0.298293 0.878849
vt 0.009409 0.902013
vt 0.266511 0.902013
vt 0.266511 0.929244
vt 0.298294 0.929244
vt 0.009409 0.940688
vt 0.266511 0.942092
vt 0.244945 0.878849
vt 0.244945 0.902013
vt 0.214811 0.902013
vt 0.214811 0.878849
vt 0.190344 0.902013
vt 0.177525 0.902013
vt 0.177525 0.878849
vt 0.190345 0.878849
vt 0.190344 0.929244
vt 0.190344 0.942092
vt 0.177525 0.942092
vt 0.177525 0.929244
vt 0.214811 0.942092
vt 0.214811 0.929244
vt 0.244945 0.929244
vt 0.244945 0.942092
vt 0.146318 0.902013
vt 0.146318 0.878849
vt 0.144202 0.991524
vt 0.146318 0.929244
vt 0.124778 0.902013
vt 0.124778 0.878849
vt 0.134964 0.940688
vt 0.124778 0.929244
vt 0.103819 0.902013
vt 0.103819 0.878849
vt 0.103819 0.940688
vt 0.103819 0.929244
vt 0.081317 0.902013
vt 0.081317 0.878849
vt 0.081317 0.940688
vt 0.081317 0.929244
vt 0.059922 0.878849
vt 0.059923 0.902013
vt 0.035293 0.902013
vt 0.035293 0.878849
vt 0.059923 0.929244
vt 0.059923 0.940688
vt 0.035293 0.940688
vt 0.035293 0.929244
vt 0.035293 0.961585
vt 0.059789 0.961585
vt 0.009409 0.961585
vt 0.009409 0.991524
vt 0.035293 0.991524
vt 0.214811 0.991524
vt 0.081389 0.991524
vt 0.081389 0.961585
vt 0.266511 0.857891
vt 0.009409 0.857891
vt 0.244945 0.857891
vt 0.214811 0.857891
vt 0.190344 0.857891
vt 0.177525 0.857891
vt 0.146318 0.857891
vt 0.124778 0.857891
vt 0.103819 0.857891
vt 0.081317 0.857891
vt 0.059923 0.857891
vt 0.035293 0.857891
vt 0.124778 0.763622
vt 0.146318 0.763622
vt 0.103819 0.763623
vt 0.081317 0.763622
vt 0.059923 0.763622
vt 0.035293 0.763622
vt 0.298293 0.763622
vt 0.266511 0.763622
vt 0.244945 0.763622
vt 0.214811 0.763622
vt 0.190344 0.763622
vt 0.177525 0.763622
vt 0.146318 0.665245
vt 0.124778 0.665245
vt 0.124778 0.635296
vt 0.146318 0.635296
vt 0.177525 0.665245
vt 0.177525 0.635296
vt 0.190345 0.665244
vt 0.190345 0.635296
vt 0.214811 0.665245
vt 0.214811 0.635296
vt 0.244945 0.665245
vt 0.244945 0.635296
vt 0.266511 0.665245
vt 0.266511 0.635296
vt 0.009409 0.665245
vt 0.298294 0.635296
vt 0.035293 0.665245
vt 0.035293 0.635296
vt 0.059923 0.665245
vt 0.059923 0.635296
vt 0.081317 0.635296
vt 0.081317 0.665245
vt 0.103819 0.635296
vt 0.103819 0.665244
vt 0.298294 0.694319
vt 0.009409 0.721471
vt 0.298294 0.665245
vt 0.009409 0.747980
vt 0.009409 0.763622
vt 0.009408 0.771869
vt 0.298293 0.857892
vt 0.009409 0.878849
vt 0.298294 0.833615
vt 0.298293 0.902013
vt 0.009409 0.929244
vt 0.298294 0.991524
vt 0.298294 0.942092
vt 0.009409 0.635296
vt 0.190344 0.991524
vt 0.244945 0.991524
vt 0.059790 0.991524
vt 0.266511 0.991524
vn 0.578236 -0.446065 0.683132
vn 0.007435 -0.475866 0.879486
vn 0.000000 -0.797849 0.602857
vn 0.481300 -0.758587 0.439200
vn -0.744669 -0.409888 0.526744
vn -0.616258 -0.717547 0.324580
vn -0.194730 -0.833908 0.516409
vn -0.345336 -0.467133 0.813959
vn 0.650793 -0.141512 0.745951
vn 0.042716 -0.120964 0.991737
vn -0.437265 -0.141095 0.888196
vn -0.833592 -0.161458 0.528258
vn 0.076363 0.116646 0.990234
vn 0.667774 0.046897 0.742886
vn 0.665290 0.227347 0.711128
vn 0.098015 0.337355 0.936261
vn -0.865534 0.003682 0.500837
vn -0.479606 0.080796 0.873757
vn -0.503566 0.283117 0.816251
vn -0.889946 0.145153 0.432350
vn 0.102973 0.552507 0.827123
vn 0.668543 0.412995 0.618455
vn 0.669487 0.572207 0.473673
vn 0.105156 0.742717 0.661297
vn -0.908742 0.231957 0.346964
vn -0.531881 0.466185 0.706947
vn -0.541435 0.626716 0.560425
vn -0.922037 0.300295 0.244275
vn 0.094636 0.878674 0.467948
vn 0.685636 0.650738 0.326258
vn 0.704241 0.686953 0.179274
vn 0.093789 0.962266 0.255437
vn -0.933231 0.337916 0.122036
vn -0.545073 0.748286 0.378106
vn -0.575485 0.792570 0.201618
vn -0.957517 0.284115 0.049402
vn 0.090963 0.995849 0.003358
vn 0.733299 0.679831 -0.010151
vn 0.746373 0.640140 -0.182067
vn 0.077008 0.968205 -0.238010
vn -0.972797 0.231317 -0.012552
vn -0.579083 0.815154 0.013682
vn -0.591469 0.780069 -0.204098
vn -0.976756 0.185298 -0.107762
vn 0.035214 0.878354 -0.476712
vn 0.703043 0.612770 -0.360892
vn 0.718049 0.494315 -0.489957
vn 0.010053 0.726740 -0.686839
vn -0.978945 0.166643 -0.117887
vn -0.625238 0.682142 -0.379157
vn -0.631112 0.565540 -0.530906
vn -0.977619 0.155333 -0.141888
vn 0.024924 0.523679 -0.851551
vn 0.681993 0.358804 -0.637295
vn 0.681156 0.206965 -0.702276
vn 0.011215 0.318566 -0.947834
vn -0.967253 0.113234 -0.227154
vn -0.615863 0.399184 -0.679239
vn -0.609721 0.243010 -0.754445
vn -0.961230 0.045746 -0.271925
vn 0.010632 0.121837 -0.992493
vn 0.663023 0.044893 -0.747252
vn 0.641838 -0.127569 -0.756155
vn -0.032113 -0.104625 -0.993993
vn -0.959635 -0.023505 -0.280265
vn -0.608972 0.079823 -0.789165
vn -0.616193 -0.105373 -0.780515
vn -0.965682 -0.095111 -0.241685
vn -0.072814 -0.321483 -0.944112
vn 0.677571 -0.250626 -0.691436
vn 0.699388 -0.360415 -0.617218
vn -0.058978 -0.484405 -0.872854
vn -0.976796 -0.157375 -0.145265
vn -0.658377 -0.276701 -0.699984
vn -0.696377 -0.382498 -0.607252
vn -0.985901 -0.162292 -0.040752
vn -0.106244 -0.669699 -0.734993
vn 0.687691 -0.507208 -0.519443
vn 0.706193 -0.616103 -0.348867
vn -0.053855 -0.834133 -0.548928
vn -0.986592 -0.162675 0.013142
vn -0.698282 -0.502485 -0.509814
vn -0.715333 -0.606536 -0.347005
vn -0.983169 -0.177962 0.041336
vn 0.050925 -0.962931 -0.264899
vn 0.733423 -0.665928 -0.136494
vn 0.769875 -0.637118 -0.037060
vn 0.083072 -0.987054 -0.137203
vn -0.966409 -0.245519 0.075983
vn -0.623340 -0.761956 -0.175699
vn -0.620302 -0.780014 -0.082488
vn -0.967221 -0.234161 0.098247
vn 0.380713 0.700599 0.603506
vn 0.667388 0.568496 0.481046
vn 0.729982 0.469411 0.496769
vn 0.440822 0.611748 0.656841
vn -0.932186 0.218620 0.288503
vn -0.943197 0.150645 0.296119
vn 0.498794 0.476969 0.723675
vn 0.778799 0.304383 0.548473
vn 0.748215 0.244031 0.616947
vn 0.454056 0.412934 0.789505
vn -0.948328 0.083339 0.306153
vn -0.948456 0.043380 0.313927
vn 0.391592 0.238505 0.888691
vn 0.695648 0.131460 0.706253
vn 0.646840 0.039166 0.761619
vn 0.349224 0.100560 0.931628
vn -0.948589 -0.033310 0.314752
vn -0.955264 -0.103127 0.277191
vn 0.321149 -0.017044 0.946875
vn 0.609682 -0.031913 0.792004
vn 0.605789 -0.148495 0.781645
vn 0.314017 -0.219726 0.923641
vn -0.964527 -0.105760 0.241872
vn -0.972987 -0.129547 0.191086
vn 0.316286 -0.507765 0.801335
vn 0.632879 -0.378343 0.675515
vn 0.637945 -0.529708 0.558959
vn 0.277554 -0.656739 0.701183
vn -0.977717 -0.139309 0.157041
vn -0.982731 -0.109784 0.148952
vn 0.250349 -0.756813 0.603788
vn 0.658375 -0.577516 0.482720
vn 0.676616 -0.701917 0.222496
vn 0.231873 -0.940267 0.249264
vn -0.981985 -0.111737 0.152380
vn -0.986357 -0.154031 0.058084
vn 0.225856 -0.969695 0.093174
vn 0.671447 -0.739282 0.051206
vn 0.687021 -0.725386 0.042633
vn 0.224551 -0.972821 0.056542
vn -0.981779 -0.181112 -0.057515
vn -0.987457 -0.153602 -0.036537
vn 0.253917 -0.915951 -0.310742
vn 0.687263 -0.695631 -0.209206
vn 0.645954 -0.570413 -0.507319
vn 0.226956 -0.762817 -0.605475
vn -0.990023 -0.085086 -0.112318
vn -0.987596 -0.023602 -0.155235
vn 0.206778 -0.709928 -0.673235
vn 0.623747 -0.520643 -0.582984
vn 0.606932 -0.478279 -0.634731
vn 0.170126 -0.638778 -0.750347
vn -0.995123 -0.054122 -0.082463
vn -0.996236 -0.044241 -0.074540
vn 0.161590 -0.377970 -0.911607
vn 0.602123 -0.348446 -0.718354
vn 0.606877 -0.023522 -0.794448
vn 0.139915 0.028856 -0.989743
vn -0.998383 -0.001405 -0.056826
vn -0.998012 -0.061742 0.012615
vn 0.088369 0.154274 -0.984069
vn 0.599870 0.073771 -0.796689
vn 0.504888 -0.027327 -0.862752
vn 0.044465 0.038335 -0.998275
vn -0.985111 -0.149493 0.084903
vn -0.933092 -0.343128 0.107712
vn 0.406019 -0.281742 -0.869350
vn 0.017122 -0.274156 -0.961533
vn -0.770808 -0.635134 -0.049606
vn -0.509786 0.565552 0.648282
vn -0.457049 0.662630 0.593319
vn -0.033867 0.750933 0.659510
vn -0.033053 0.671586 0.740189
vn -0.535837 0.374852 0.756548
vn -0.550324 0.447978 0.704599
vn -0.020215 0.564477 0.825201
vn -0.022579 0.484674 0.874404
vn -0.507030 0.043868 0.860812
vn -0.516658 0.186640 0.835602
vn -0.030803 0.265988 0.963484
vn -0.047175 0.102050 0.993660
vn -0.501559 -0.269667 0.822021
vn -0.500181 -0.064456 0.863518
vn -0.063804 -0.028054 0.997568
vn -0.084818 -0.269233 0.959333
vn -0.590208 -0.502576 0.631722
vn -0.527100 -0.465734 0.710815
vn -0.120057 -0.547445 0.828185
vn -0.183280 -0.646868 0.740250
vn -0.697700 -0.667546 0.259994
vn -0.646264 -0.534074 0.545076
vn -0.264206 -0.724030 0.637163
vn -0.302485 -0.912179 0.276463
vn -0.692542 -0.721376 -0.001261
vn -0.691522 -0.720550 0.051037
vn -0.330463 -0.939376 0.091470
vn -0.354990 -0.934455 0.027868
vn -0.631631 -0.585832 -0.507783
vn -0.674238 -0.668457 -0.313954
vn -0.328927 -0.874764 -0.355802
vn -0.294457 -0.751802 -0.589991
vn -0.632908 -0.498312 -0.592547
vn -0.634327 -0.601071 -0.486151
vn -0.296695 -0.734309 -0.610543
vn -0.312360 -0.636681 -0.705031
vn -0.587142 -0.052319 -0.807792
vn -0.598994 -0.220616 -0.769763
vn -0.286706 -0.312090 -0.905759
vn -0.280771 -0.011923 -0.959701
vn -0.547553 -0.085433 -0.832398
vn -0.599760 0.050914 -0.798559
vn -0.292231 0.108676 -0.950153
vn -0.230589 -0.006065 -0.973032
vn -0.402815 -0.376318 -0.834341
vn -0.132863 -0.336700 -0.932191
vn 0.985699 -0.136815 0.098386
vn 0.988400 -0.030862 0.148703
vn 0.982801 -0.180626 -0.038437
vn 0.980164 -0.190678 0.054048
vn 0.964258 -0.166359 -0.206230
vn 0.976605 -0.166434 -0.136171
vn 0.985036 -0.065700 -0.159337
vn 0.965596 -0.134078 -0.222817
vn 0.996431 -0.007663 -0.084065
vn 0.994347 -0.023792 -0.103480
vn 0.998454 0.003505 -0.055478
vn 0.999090 0.022462 -0.036267
vn 0.999746 0.019101 -0.011943
vn 0.997366 -0.013948 -0.071183
vn 0.989742 0.140930 -0.023463
vn 0.999142 0.041415 0.000993
vn 0.992003 0.072215 0.103513
vn 0.992341 0.123522 0.001224
vn 0.980174 -0.051647 0.191288
vn 0.987560 -0.006062 0.157123
vn 0.915600 -0.335513 0.221603
vn 0.971462 -0.108172 0.211095
vn 0.780565 -0.619602 0.082535
vn 0.826116 -0.091194 -0.556072
vn 0.685405 -0.383277 -0.619127
vn 0.874306 0.012215 -0.485221
vn 0.888730 -0.219283 -0.402584
vn 0.893296 -0.060596 -0.445365
vn 0.897910 -0.234203 -0.372702
vn 0.895536 -0.246318 -0.370599
vn 0.920013 -0.377429 -0.105474
vn 0.913783 -0.257666 -0.314022
vn 0.913010 -0.407913 -0.004395
vn 0.916332 -0.400404 -0.003544
vn 0.904935 -0.311352 0.290091
vn 0.921713 -0.366034 0.128315
vn 0.885523 -0.221023 0.408653
vn 0.890940 -0.309583 0.332241
vn 0.921250 -0.084496 0.379683
vn 0.899145 -0.106520 0.424491
vn 0.936776 -0.010722 0.349765
vn 0.937445 -0.068911 0.341246
vn 0.929449 0.112956 0.351236
vn 0.931838 0.058582 0.358115
vn 0.867046 0.369589 0.334120
vn 0.908622 0.264816 0.322923
vn -0.794705 0.379522 0.473716
vn -0.753891 0.478248 0.450474
vn -0.821421 0.199636 0.534241
vn -0.825304 0.262127 0.500162
vn -0.802168 -0.037265 0.595934
vn -0.807637 0.070610 0.585438
vn -0.810314 -0.220117 0.543084
vn -0.797717 -0.098053 0.595007
vn -0.864375 -0.296075 0.406442
vn -0.832419 -0.306071 0.461951
vn -0.899109 -0.401184 0.175083
vn -0.877871 -0.315168 0.360571
vn -0.890856 -0.452899 -0.035464
vn -0.889380 -0.457078 -0.009139
vn -0.869357 -0.334609 -0.363670
vn -0.888042 -0.395557 -0.234341
vn -0.875280 -0.283994 -0.391448
vn -0.874954 -0.364350 -0.318913
vn -0.879297 -0.076050 -0.470163
vn -0.865541 -0.116388 -0.487127
vn -0.856213 -0.206151 -0.473709
vn -0.902765 -0.055272 -0.426569
vn -0.647345 -0.529620 -0.548131
vn -0.000000 -0.999976 -0.006915
vn 0.069692 -0.991397 -0.110794
vn 0.045551 -0.996816 -0.065438
vn -0.151381 -0.976205 -0.155265
vn -0.181684 -0.936664 -0.299417
vn 0.162440 -0.958401 -0.234695
vn -0.070165 -0.733658 -0.675887
vn -0.138051 -0.835213 -0.532317
vn 0.127629 -0.819821 -0.558216
vn 0.046886 -0.728570 -0.683365
vn -0.005126 -0.711565 -0.702601
vn 0.000000 -0.688938 -0.724820
vn -0.219479 -0.855713 -0.468599
vn 0.000000 -0.876951 -0.480580
vn -0.059470 -0.885487 -0.460842
vn 0.211571 -0.856597 -0.470617
vn 0.230434 -0.852896 -0.468475
vn 0.196980 -0.867546 -0.456688
vn -0.195243 -0.872297 -0.448307
vn -0.223522 -0.853589 -0.470556
vn 0.223820 -0.853569 -0.470451
vn 0.201231 -0.874146 -0.442012
vn -0.174842 -0.868549 -0.463737
vn -0.172082 -0.899748 -0.401050
vn -0.152774 -0.909187 -0.387349
vn -0.137096 -0.876831 -0.460838
vn 0.155567 -0.904143 -0.397901
vn 0.185042 -0.890621 -0.415396
vn 0.181562 -0.860831 -0.475400
vn 0.143652 -0.869088 -0.473339
vn -0.000000 -0.924848 -0.380338
vn 0.000000 -0.875729 -0.482802
vn 0.087464 -0.879056 -0.468627
vn 0.103152 -0.918427 -0.381905
vn -0.018137 -0.915801 -0.401223
vn -0.030233 -0.917130 -0.397440
vn 0.715875 -0.660276 -0.227065
vn -0.972569 -0.218707 0.079225
vn -0.668530 -0.695778 -0.262603
vn -0.943925 0.093369 0.316682
vn -0.537658 0.459363 0.707043
vn -0.815071 0.280339 0.507020
vn -0.022692 0.576060 0.817092
vn 0.772639 0.371073 0.515106
vn 0.488233 0.514028 0.705268
vn 0.928166 0.180666 0.325372
vn 0.980640 -0.179036 0.079313
vn -0.728680 0.523552 0.441495
vn -0.427451 0.704475 0.566569
vn -0.929280 0.238381 0.282159
vn -0.960443 -0.255483 0.110804
vn -0.600905 -0.799000 -0.022617
vn 0.760045 -0.649808 0.009038
vn 0.115115 -0.991517 -0.060356
vn 0.986419 0.017051 0.163360
vn 0.636017 0.626077 0.451121
vn 0.842692 0.435705 0.316279
vn 0.351608 0.746242 0.565239
vn -0.026538 0.787306 0.615991
vn 0.355569 0.931898 -0.071668
vn -0.216285 0.970805 -0.103721
vn -0.234325 0.929303 0.285462
vn 0.383885 0.882137 0.272885
vn 0.395916 0.840001 0.371012
vn -0.265749 0.885660 0.380768
vn -0.255599 0.894144 0.367662
vn 0.420280 0.831439 0.363420
vn 0.459388 0.823829 0.332066
vn -0.213181 0.913862 0.345557
vn -0.204996 0.905792 0.370833
vn 0.460114 0.815401 0.351308
vn 0.494920 0.681939 0.538529
vn -0.128313 0.792783 0.595845
vn -0.063020 0.642939 0.763321
vn 0.484563 0.541833 0.686743
vn 0.847077 0.490841 0.203801
vn 0.785805 0.605421 -0.126396
vn 0.873645 0.408126 0.264911
vn 0.854298 0.441663 0.274058
vn 0.892347 0.376236 0.249326
vn 0.886936 0.395511 0.238571
vn 0.795684 0.254697 0.549560
vn 0.859858 0.302729 0.411095
vn -0.934495 0.293610 -0.201277
vn -0.959833 0.227718 0.163908
vn -0.708537 0.660408 0.248670
vn -0.675081 0.726289 -0.129502
vn -0.956621 0.191852 0.219249
vn -0.955339 0.208162 0.209751
vn -0.750654 0.592009 0.293331
vn -0.738944 0.594417 0.317223
vn -0.950351 0.217061 0.222977
vn -0.949478 0.188712 0.250756
vn -0.750614 0.588092 0.301207
vn -0.754981 0.594782 0.276113
vn -0.905023 0.137250 0.402612
vn -0.819407 0.130236 0.558221
vn -0.588564 0.446206 0.674160
vn -0.689362 0.519844 0.504521
vn -0.681615 -0.572192 -0.456068
vn -0.735729 -0.659110 -0.155810
vn -0.970980 -0.238009 0.023430
vn -0.941019 -0.167532 -0.293967
vn -0.784070 -0.620334 -0.020514
vn -0.806684 -0.590263 0.029161
vn -0.973401 -0.201474 0.109082
vn -0.968253 -0.231539 0.094208
vn -0.778853 -0.610815 0.142454
vn -0.776285 -0.606331 0.172465
vn -0.949673 -0.233823 0.208440
vn -0.961889 -0.203592 0.182536
vn -0.741686 -0.602139 0.295518
vn -0.679036 -0.565037 0.468662
vn -0.845385 -0.241563 0.476416
vn -0.911159 -0.246299 0.330344
vn 0.374615 -0.894164 -0.245225
vn -0.202544 -0.944754 -0.257713
vn -0.220312 -0.805997 -0.549392
vn 0.331095 -0.757199 -0.563051
vn 0.368312 -0.927089 -0.069657
vn 0.367035 -0.930097 0.014277
vn -0.295562 -0.955159 -0.017713
vn -0.230074 -0.965754 -0.119937
vn 0.388759 -0.915375 0.104668
vn 0.392482 -0.910082 0.133074
vn -0.295052 -0.945511 0.137671
vn -0.305544 -0.946075 0.107630
vn 0.414879 -0.846497 0.333643
vn 0.421872 -0.736945 0.528144
vn -0.190743 -0.841208 0.505950
vn -0.248571 -0.915284 0.316968
vn 0.873901 -0.364075 0.322098
vn 0.821967 -0.315067 0.474451
vn 0.903179 -0.410395 0.125873
vn 0.900712 -0.407615 0.150223
vn 0.906191 -0.411576 0.097072
vn 0.896381 -0.427225 0.118236
vn 0.826865 -0.375083 -0.419054
vn 0.901973 -0.424465 -0.079212
vn 0.422323 0.372421 0.826405
vn 0.012715 0.443150 0.896357
vn 0.075061 0.236499 0.968728
vn 0.296832 0.174995 0.938759
vn -0.649880 0.098836 0.753583
vn -0.323221 0.066130 0.944010
vn -0.092118 0.164645 0.982042
vn -0.401491 0.346756 0.847682
vn -0.534158 -0.486771 0.691180
vn -0.293140 -0.254836 0.921481
vn -0.286989 -0.081117 0.954493
vn -0.695990 -0.196210 0.690724
vn 0.325563 -0.216666 0.920361
vn 0.006421 -0.297409 0.954728
vn -0.091746 -0.660619 0.745094
vn 0.358594 -0.578529 0.732608
vn 0.723860 -0.210599 0.657020
vn 0.539002 -0.087707 0.837725
vn 0.494226 0.130369 0.859502
vn 0.685417 0.197456 0.700867
vn 0.503475 0.061333 0.861830
vn 0.122977 0.042551 0.991497
vn 0.582955 -0.123951 -0.802994
vn 0.233452 -0.400268 -0.886164
vn 0.579145 0.561130 -0.591375
vn 0.206645 0.779154 -0.591791
vn -0.183383 -0.437100 -0.880520
vn -0.671576 0.005661 -0.740914
vn -0.497389 -0.283734 -0.819817
vn -0.448855 0.636594 -0.627118
vn -0.643409 0.351577 -0.680014
vn -0.136893 0.790992 -0.596316
vn 0.052265 0.348595 -0.935815
vn 0.006323 0.343879 -0.938993
vn -0.081549 0.392205 -0.916256
vn -0.038435 0.406797 -0.912710
vn -0.131580 0.384314 -0.913778
vn -0.125950 0.401978 -0.906946
vn -0.173800 0.325236 -0.929524
vn -0.185910 0.330624 -0.925270
vn -0.164516 0.377749 -0.911175
vn -0.162868 0.357809 -0.919482
vn -0.136713 0.209990 -0.968098
vn -0.144081 0.194737 -0.970216
vn -0.181874 0.262979 -0.947504
vn -0.168549 0.268103 -0.948532
vn 0.004737 0.147676 -0.989024
vn -0.070066 0.150636 -0.986103
vn -0.090056 0.177565 -0.979980
vn -0.026164 0.166587 -0.985680
vn 0.034927 0.183426 -0.982413
vn 0.061757 0.176611 -0.982341
vn -0.147561 0.348248 -0.925716
vn -0.128734 0.346099 -0.929324
vn -0.070366 0.316564 -0.945958
vn -0.079306 0.194284 -0.977734
vn -0.038844 0.190710 -0.980878
vn -0.108011 0.207859 -0.972177
vn -0.153436 0.273603 -0.949526
vn -0.139546 0.231564 -0.962759
vn -0.153925 0.329102 -0.931665
vn -0.163790 0.309199 -0.936786
vn -0.136948 0.272151 -0.952460
vn -0.049344 0.252062 -0.966452
vn 0.081384 0.365947 -0.927071
vn -0.017273 0.435222 -0.900158
vn 0.030988 0.111400 -0.993292
vn 0.102319 0.164514 -0.981054
vn -0.076539 0.105945 -0.991422
vn -0.214394 0.246609 -0.945103
vn -0.164845 0.150553 -0.974761
vn -0.184195 0.398335 -0.898555
vn -0.216438 0.343155 -0.914002
vn -0.110293 0.437898 -0.892233
vn 0.218925 0.050849 -0.974416
vn 0.086577 -0.089367 -0.992229
vn 0.232942 0.440581 -0.866964
vn 0.080462 0.540756 -0.837323
vn -0.132098 0.543525 -0.828934
vn -0.348101 0.352341 -0.868724
vn -0.261002 0.481420 -0.836727
vn -0.273573 -0.011711 -0.961780
vn -0.359142 0.176411 -0.916459
vn -0.089297 -0.116688 -0.989146
vn 0.405675 0.843894 0.351100
vn -0.251986 0.887930 0.384816
vn 0.855649 0.455955 0.244886
vn 0.435045 -0.890036 -0.136279
vn 0.920000 -0.391368 0.020764
vn -0.217649 -0.959799 -0.177240
vn -0.965417 -0.252115 0.066397
vn -0.772770 -0.630477 -0.072970
vn -0.725265 0.603496 0.331335
vn -0.960415 0.182496 0.210470
vn 0.449213 0.825243 0.342320
vn -0.239454 0.902719 0.357436
vn 0.887044 0.390062 0.246989
vn 0.382285 -0.921528 0.068147
vn 0.891171 -0.438453 0.116507
vn -0.280847 -0.958102 0.056265
vn -0.970167 -0.194880 0.144218
vn -0.789761 -0.606747 0.090196
vn -0.749708 0.598892 0.281543
vn -0.952887 0.219954 0.208868
vn 0.503653 0.757444 0.415466
vn -0.158391 0.874562 0.458317
vn 0.885354 0.350318 0.305657
vn 0.414905 -0.886305 0.205714
vn 0.893816 -0.396267 0.209916
vn -0.280021 -0.939013 0.199606
vn -0.936221 -0.247481 0.249488
vn -0.764100 -0.608857 0.213176
vn -0.743275 0.551860 0.378144
vn -0.937461 0.169082 0.304266
vn 0.766877 0.030079 0.641089
vn 0.874177 0.022293 0.485096
vn 0.936122 0.021102 0.351042
vn 0.967806 0.022327 0.250705
vn 0.981152 0.031111 0.190718
vn 0.984928 0.017433 0.172084
vn 0.983431 0.000678 0.181279
vn 0.981530 0.011529 0.190961
vn 0.982786 0.030552 0.182206
vn 0.989034 0.040949 0.141899
vn 0.994056 0.046692 0.098349
vn 0.974556 0.117212 -0.191053
vn 0.722941 0.202190 -0.660663
vn 0.284186 0.273624 -0.918895
vn 0.124565 0.247662 -0.960805
vn 0.088843 0.256685 -0.962403
vn 0.055732 0.236848 -0.969947
vn 0.110783 0.963059 0.245447
vn 0.739515 0.640832 0.206040
vn 0.743839 0.654094 0.137351
vn 0.099759 0.979664 0.174090
vn -0.612061 0.772854 0.167562
vn -0.588815 0.778791 0.216292
vn 0.157185 0.953330 0.257789
vn 0.752976 0.621930 0.215011
vn -0.563971 0.788814 0.244357
vn -0.927926 0.346601 0.137189
vn -0.920246 0.353840 0.167166
vn -0.910647 0.362340 0.198575
vn -0.991054 -0.021039 0.131793
vn -0.993196 -0.032800 0.111741
vn -0.910209 -0.405182 0.085710
vn -0.919306 -0.380853 0.099129
vn -0.928948 -0.349205 0.122927
vn -0.986907 0.002225 0.161276
vn -0.650074 -0.756075 0.075859
vn -0.639764 -0.766338 0.058547
vn -0.125046 -0.990175 0.062582
vn -0.103905 -0.991521 0.078032
vn -0.066703 -0.994902 0.075629
vn -0.669867 -0.737382 0.086868
vn 0.522221 -0.847066 0.098820
vn 0.481310 -0.872093 0.088292
vn 0.856258 -0.506324 0.102264
vn 0.882002 -0.454993 0.122691
vn 0.911213 -0.394799 0.117576
vn 0.567466 -0.818542 0.089284
vn 0.942625 0.273643 0.191254
vn 0.952643 0.250410 0.172529
vn 0.967175 0.225516 0.117113
vn 0.983904 -0.141098 0.109651
vn 0.985601 -0.088029 0.144363
vn 0.986798 -0.040990 0.156686
vn 0.968983 -0.237680 0.067683
vn 0.691384 -0.715416 0.100833
vn 0.662008 -0.746291 0.069256
vn 0.957772 -0.277696 0.074550
vn 0.957032 0.276303 0.088018
vn 0.962409 0.268536 0.040724
vn 0.998209 0.033312 0.049680
vn 0.995841 0.030336 0.085909
vn 0.806531 0.583852 0.092866
vn 0.815624 0.576829 0.045008
vn 0.194108 0.969592 0.149043
vn 0.187774 0.979358 0.074830
vn -0.559272 0.809019 0.180839
vn -0.566454 0.817915 0.100726
vn -0.909336 0.376547 0.176975
vn -0.918112 0.380022 0.112487
vn -0.952637 -0.271515 0.136973
vn -0.962675 -0.241150 0.122898
vn -0.989706 0.077271 0.120466
vn -0.984837 0.057951 0.163515
vn -0.001976 -0.995831 0.091194
vn -0.026623 -0.988233 0.150620
vn -0.717671 -0.680504 0.147862
vn -0.692587 -0.712130 0.114861
vn -0.667535 -0.696537 0.263121
vn -0.006803 -0.949834 0.312681
vn 0.064932 -0.929463 0.363155
vn -0.582672 -0.746190 0.322015
vn -0.534252 -0.748775 0.392314
vn 0.191025 -0.891805 0.410115
vn 0.422992 -0.734614 0.530491
vn -0.607091 -0.607445 0.512300
vn -0.954846 -0.252929 0.155871
vn -0.946374 -0.252112 0.202028
vn -0.984417 0.113961 0.133926
vn -0.992283 0.085098 0.090180
vn -0.900210 0.426172 0.089442
vn -0.533443 0.844896 0.039857
vn -0.550308 0.834192 0.035855
vn -0.912979 0.403325 0.061632
vn -0.896462 0.424500 0.127108
vn -0.714134 0.596886 0.365705
vn -0.408951 0.881062 0.237672
vn -0.502108 0.862420 0.064185
vn -0.863258 0.415809 0.286163
vn -0.968591 0.166216 0.184944
vn -0.944853 -0.205475 0.255014
vn -0.912984 0.264705 0.310470
vn 0.192156 0.981319 -0.009484
vn 0.181628 0.983353 0.005319
vn 0.293299 0.929366 0.224174
vn 0.168228 0.985638 0.014726
vn 0.809976 0.586024 -0.022673
vn 0.807011 0.590483 -0.008000
vn 0.850519 0.497331 0.171112
vn 0.817638 0.575719 -0.004085
vn 0.967270 0.253469 0.011976
vn 0.964881 0.262594 0.007072
vn 0.958136 0.243914 0.149934
vn 0.969166 0.242189 0.045404
vn 0.997442 -0.022141 0.067960
vn 0.999291 0.012249 0.035614
vn 0.960010 0.090690 0.264869
vn 0.992776 -0.001316 0.119978
vn 0.958744 -0.268075 0.094582
vn 0.942693 -0.298395 0.149299
vn 0.705594 -0.658045 0.262895
vn 0.693917 -0.687387 0.214425
vn 0.946797 -0.242688 0.211370
vn 0.952089 -0.051546 0.301447
vn 0.906290 -0.277054 0.319185
vn 0.762937 -0.572432 0.300414
vn 0.928913 0.305732 0.208920
vn 0.856611 0.388419 0.339629
vn 0.343901 -0.570982 0.745461
vn -0.410399 -0.101934 0.906191
vn -0.611419 0.557958 0.561115
vn -0.041643 0.913520 0.404656
vn 0.172499 0.743845 0.645707
vn 0.841910 0.349448 0.411186
vn -0.694987 -0.689260 0.204730
vn -0.038787 -0.971472 0.233962
vn -0.966449 -0.222476 0.128380
vn -0.993354 0.074874 0.087415
vn -0.920770 0.385167 0.061888
vn -0.576550 0.816082 0.039997
vn 0.173654 0.984563 0.021901
vn 0.813042 0.582071 0.012517
vn 0.963836 0.266051 0.015393
vn 0.999066 0.027135 0.033629
vn 0.962935 -0.258789 0.076062
vn 0.692022 -0.704761 0.156259
vn 0.781450 0.602475 0.162357
vn 0.176212 0.960322 0.216174
vn 0.947626 0.281818 0.150276
vn 0.991368 0.004681 0.131027
vn 0.940504 -0.325688 0.096845
vn 0.614251 -0.786094 0.068941
vn -0.033572 -0.997246 0.066126
vn -0.677399 -0.729310 0.096106
vn -0.934008 -0.327580 0.142554
vn -0.983151 0.030294 0.180267
vn -0.905699 0.368726 0.209166
vn -0.548716 0.803039 0.232464
vn 0.091997 0.990848 0.098778
vn 0.760778 0.646084 0.061583
vn 0.765282 0.642810 0.033763
vn 0.107892 0.991524 0.072386
vn -0.612851 0.780666 0.122370
vn -0.621559 0.776808 0.101163
vn -0.929711 0.348729 0.118428
vn -0.927044 0.357630 0.112653
vn -0.994708 -0.041000 0.094208
vn -0.995705 -0.031431 0.087088
vn -0.906813 -0.415151 0.073070
vn -0.895681 -0.439705 0.066457
vn -0.604604 -0.795490 0.040609
vn -0.602327 -0.797475 0.035146
vn -0.172545 -0.984282 0.037647
vn -0.172534 -0.984636 0.026916
vn 0.443800 -0.894025 0.061320
vn 0.432435 -0.900583 0.044164
vn 0.826221 -0.559693 0.064051
vn 0.817401 -0.574281 0.045366
vn 0.977385 -0.200906 0.065996
vn 0.979088 -0.187600 0.078695
vn 0.978015 0.204271 0.041943
vn 0.972913 0.223737 0.058148
s 1
g Shrimp1_low1
usemtl standardSurface5SG
f 1/1/1 2/2/2 3/3/3 4/4/4
f 6/5/5 5/6/6 281/7/7 282/8/8
f 2/2/2 1/1/1 121/9/9 122/10/10
f 6/5/5 282/8/8 283/11/11 123/12/12
f 8/13/13 7/14/14 129/15/15 130/16/16
f 9/17/17 284/18/18 285/19/19 131/20/20
f 11/21/21 10/22/22 137/23/23 138/24/24
f 12/25/25 286/26/26 287/27/27 139/28/28
f 14/29/29 13/30/30 145/31/31 146/32/32
f 15/33/33 288/34/34 289/35/35 147/36/36
f 17/37/37 16/38/38 153/39/39 154/40/40
f 18/41/41 290/42/42 291/43/43 155/44/44
f 20/45/45 19/46/46 161/47/47 162/48/48
f 21/49/49 292/50/50 293/51/51 163/52/52
f 23/53/53 22/54/54 169/55/55 170/56/56
f 24/57/57 294/58/58 295/59/59 171/60/60
f 26/61/61 25/62/62 177/63/63 178/64/64
f 27/65/65 296/66/66 297/67/67 179/68/68
f 29/69/69 28/70/70 185/71/71 186/72/72
f 30/73/73 298/74/74 299/75/75 187/76/76
f 32/77/77 31/78/78 193/79/79 194/80/80
f 33/81/81 300/82/82 301/83/83 195/84/84
f 35/85/85 34/86/86 209/87/87 210/88/88
f 36/89/89 303/90/90 304/91/91 211/92/92
f 214/93/93 215/94/94 61/95/95 37/96/96
f 36/89/89 211/92/92 226/97/97 227/98/98
f 198/99/99 199/100/100 62/101/101 38/102/102
f 195/84/84 229/103/103 230/104/104 33/81/81
f 190/105/105 191/106/106 63/107/107 39/108/108
f 187/76/76 231/109/109 232/110/110 30/73/73
f 182/111/111 183/112/112 64/113/113 40/114/114
f 179/68/68 233/115/115 234/116/116 27/65/65
f 174/117/117 175/118/118 65/119/119 41/120/120
f 171/60/60 235/121/121 236/122/122 24/57/57
f 166/123/123 167/124/124 66/125/125 42/126/126
f 163/52/52 237/127/127 238/128/128 21/49/49
f 158/129/129 159/130/130 67/131/131 43/132/132
f 155/44/44 239/133/133 240/134/134 18/41/41
f 150/135/135 151/136/136 68/137/137 44/138/138
f 147/36/36 241/139/139 242/140/140 15/33/33
f 142/141/141 143/142/142 69/143/143 45/144/144
f 139/28/28 243/145/145 244/146/146 12/25/25
f 134/147/147 135/148/148 70/149/149 46/150/150
f 131/20/20 245/151/151 246/152/152 9/17/17
f 126/153/153 127/154/154 71/155/155 47/156/156
f 123/12/12 247/157/157 248/158/158 6/5/5
f 47/156/156 71/155/155 72/159/159 48/160/160
f 6/5/5 248/158/158 249/161/161 5/6/6
f 49/338/162 213/337/163 307/164/164 308/165/165
f 50/341/166 197/340/167 310/168/168 311/169/169
f 51/343/170 189/171/171 312/172/172 313/173/173
f 52/345/174 181/175/175 314/176/176 315/177/177
f 53/347/178 173/179/179 316/180/180 317/181/181
f 54/349/182 165/183/183 318/184/184 319/185/185
f 55/351/186 157/187/187 320/188/188 321/189/189
f 56/353/190 149/191/191 322/192/192 323/193/193
f 57/355/194 141/195/195 324/196/196 325/197/197
f 58/357/198 133/199/199 326/200/200 327/201/201
f 59/359/202 125/203/203 328/204/204 329/205/205
f 60/206/206 59/359/202 329/205/205 330/207/207
f 278/208/208 279/209/209 209/87/87 34/86/86
f 275/210/210 276/211/211 193/79/79 31/78/78
f 273/212/212 274/213/213 185/71/71 28/70/70
f 271/214/214 272/215/215 177/63/63 25/62/62
f 269/216/216 270/217/217 169/55/55 22/54/54
f 267/218/218 268/219/219 161/47/47 19/46/46
f 265/220/220 266/221/221 153/39/39 16/38/38
f 263/222/222 264/223/223 145/31/31 13/30/30
f 261/224/224 262/225/225 137/23/23 10/22/22
f 259/226/226 260/227/227 129/15/15 7/14/14
f 257/228/228 258/229/229 121/9/9 1/1/1
f 256/230/230 257/228/228 1/1/1 4/4/4
f 72/159/159 71/155/155 74/231/231 73/232/232
f 71/155/155 127/154/154 128/233/233 74/231/231
f 70/149/149 135/148/148 136/234/234 75/235/235
f 69/143/143 143/142/142 144/236/236 76/237/237
f 68/137/137 151/136/136 152/238/238 77/239/239
f 67/131/131 159/130/130 160/240/240 78/241/241
f 66/125/125 167/124/124 168/242/242 79/243/243
f 65/119/119 175/118/118 176/244/244 80/245/245
f 64/113/113 183/112/112 184/246/246 81/247/247
f 63/107/107 191/106/106 192/248/248 82/249/249
f 62/101/101 199/100/100 200/250/250 83/251/251
f 215/94/94 216/252/252 84/253/253 61/95/95
f 85/254/254 212/255/255 213/163/163 49/162/162
f 86/256/256 196/257/257 197/167/167 50/166/166
f 87/258/258 188/259/259 189/342/171 51/170/170
f 88/260/260 180/261/261 181/344/175 52/174/174
f 89/262/262 172/263/263 173/346/179 53/178/178
f 90/264/264 164/265/265 165/348/183 54/182/182
f 91/266/266 156/267/267 157/350/187 55/186/186
f 92/268/268 148/269/269 149/352/191 56/190/190
f 93/270/270 140/271/271 141/354/195 57/194/194
f 94/272/272 132/273/273 133/356/199 58/198/198
f 95/274/274 124/275/275 125/358/203 59/202/202
f 96/276/276 95/274/274 59/202/202 60/363/206
f 4/4/4 3/3/3 113/277/277 114/278/278
f 335/279/279 281/7/7 5/6/6 120/371/280
f 249/161/161 250/281/281 120/280/280 5/6/6
f 4/4/4 114/278/278 255/364/282 256/230/230
f 96/276/276 60/363/206 118/360/283 119/373/284
f 72/159/159 73/232/232 115/285/285 116/375/286
f 330/207/207 331/287/287 118/283/283 60/206/206
f 116/286/286 117/288/288 48/160/160 72/159/159
f 98/289/289 97/290/290 106/291/291
f 106/291/291 334/292/292 99/372/293 112/376/294
f 98/289/289 106/291/291 253/366/295 254/365/296
f 251/297/297 252/298/298 112/294/294 99/293/293
f 101/299/299 107/300/300 108/378/301 103/302/302
f 110/362/303 111/377/304 100/374/305 102/361/306
f 108/301/301 109/307/307 104/308/308 103/379/302
f 332/309/309 333/310/310 110/303/303 102/306/306
f 105/369/311 253/366/295 106/291/291
f 108/378/301 107/300/300 105/370/311
f 105/311/311 109/307/307 108/301/301
f 333/310/310 105/311/311 110/303/303
f 105/367/311 111/377/304 110/362/303
f 105/368/311 112/294/294 252/298/298
f 105/369/311 106/291/291 112/376/294
f 114/278/278 113/277/277 97/290/290 98/289/289
f 254/365/296 255/364/282 114/278/278 98/289/289
f 116/375/286 115/285/285 101/299/299 103/302/302
f 103/379/302 104/308/308 117/288/288 116/286/286
f 331/287/287 332/309/309 102/306/306 118/283/283
f 119/373/284 118/360/283 102/361/306 100/374/305
f 99/293/293 120/280/280 250/281/281 251/297/297
f 334/292/292 335/279/279 120/371/280 99/372/293
f 122/10/10 121/9/9 7/14/14 8/13/13
f 123/12/12 283/11/11 284/18/18 9/17/17
f 9/17/17 246/152/152 247/157/157 123/12/12
f 125/358/203 124/275/275 94/272/272 58/198/198
f 327/201/201 328/204/204 125/203/203 58/357/198
f 46/150/150 70/149/149 127/154/154 126/153/153
f 128/233/233 127/154/154 70/149/149 75/235/235
f 121/9/9 258/229/229 259/226/226 7/14/14
f 130/16/16 129/15/15 10/22/22 11/21/21
f 131/20/20 285/19/19 286/26/26 12/25/25
f 12/25/25 244/146/146 245/151/151 131/20/20
f 133/356/199 132/273/273 93/270/270 57/194/194
f 325/197/197 326/200/200 133/199/199 57/355/194
f 45/144/144 69/143/143 135/148/148 134/147/147
f 136/234/234 135/148/148 69/143/143 76/237/237
f 129/15/15 260/227/227 261/224/224 10/22/22
f 138/24/24 137/23/23 13/30/30 14/29/29
f 139/28/28 287/27/27 288/34/34 15/33/33
f 15/33/33 242/140/140 243/145/145 139/28/28
f 141/354/195 140/271/271 92/268/268 56/190/190
f 323/193/193 324/196/196 141/195/195 56/353/190
f 44/138/138 68/137/137 143/142/142 142/141/141
f 144/236/236 143/142/142 68/137/137 77/239/239
f 137/23/23 262/225/225 263/222/222 13/30/30
f 146/32/32 145/31/31 16/38/38 17/37/37
f 147/36/36 289/35/35 290/42/42 18/41/41
f 18/41/41 240/134/134 241/139/139 147/36/36
f 149/352/191 148/269/269 91/266/266 55/186/186
f 321/189/189 322/192/192 149/191/191 55/351/186
f 43/132/132 67/131/131 151/136/136 150/135/135
f 152/238/238 151/136/136 67/131/131 78/241/241
f 145/31/31 264/223/223 265/220/220 16/38/38
f 154/40/40 153/39/39 19/46/46 20/45/45
f 155/44/44 291/43/43 292/50/50 21/49/49
f 21/49/49 238/128/128 239/133/133 155/44/44
f 157/350/187 156/267/267 90/264/264 54/182/182
f 319/185/185 320/188/188 157/187/187 54/349/182
f 42/126/126 66/125/125 159/130/130 158/129/129
f 160/240/240 159/130/130 66/125/125 79/243/243
f 153/39/39 266/221/221 267/218/218 19/46/46
f 162/48/48 161/47/47 22/54/54 23/53/53
f 163/52/52 293/51/51 294/58/58 24/57/57
f 24/57/57 236/122/122 237/127/127 163/52/52
f 165/348/183 164/265/265 89/262/262 53/178/178
f 317/181/181 318/184/184 165/183/183 53/347/178
f 41/120/120 65/119/119 167/124/124 166/123/123
f 168/242/242 167/124/124 65/119/119 80/245/245
f 161/47/47 268/219/219 269/216/216 22/54/54
f 170/56/56 169/55/55 25/62/62 26/61/61
f 171/60/60 295/59/59 296/66/66 27/65/65
f 27/65/65 234/116/116 235/121/121 171/60/60
f 173/346/179 172/263/263 88/260/260 52/174/174
f 315/177/177 316/180/180 173/179/179 52/345/174
f 40/114/114 64/113/113 175/118/118 174/117/117
f 176/244/244 175/118/118 64/113/113 81/247/247
f 169/55/55 270/217/217 271/214/214 25/62/62
f 178/64/64 177/63/63 28/70/70 29/69/69
f 179/68/68 297/67/67 298/74/74 30/73/73
f 30/73/73 232/110/110 233/115/115 179/68/68
f 181/344/175 180/261/261 87/258/258 51/170/170
f 313/173/173 314/176/176 181/175/175 51/343/170
f 39/108/108 63/107/107 183/112/112 182/111/111
f 184/246/246 183/112/112 63/107/107 82/249/249
f 177/63/63 272/215/215 273/212/212 28/70/70
f 186/72/72 185/71/71 31/78/78 32/77/77
f 187/76/76 299/75/75 300/82/82 33/81/81
f 33/81/81 230/104/104 231/109/109 187/76/76
f 189/342/171 188/259/259 86/256/256 50/166/166
f 311/169/169 312/172/172 189/171/171 50/341/166
f 38/102/102 62/101/101 191/106/106 190/105/105
f 192/248/248 191/106/106 62/101/101 83/251/251
f 185/71/71 274/213/213 275/210/210 31/78/78
f 205/312/312 206/313/313 34/86/86 35/85/85
f 204/314/314 302/315/315 303/90/90 36/89/89
f 36/89/89 227/98/98 228/316/316 204/314/314
f 202/339/317 203/318/318 85/254/254 49/162/162
f 308/165/165 309/319/319 202/317/317 49/338/162
f 37/96/96 61/95/95 208/320/320 201/321/321
f 207/322/322 208/320/320 61/95/95 84/253/253
f 206/313/313 277/323/323 278/208/208 34/86/86
f 309/319/319 310/168/168 197/340/167 202/317/317
f 197/167/167 196/257/257 203/318/318 202/339/317
f 204/314/314 228/316/316 229/103/103 195/84/84
f 195/84/84 301/83/83 302/315/315 204/314/314
f 194/80/80 193/79/79 206/313/313 205/312/312
f 193/79/79 276/211/211 277/323/323 206/313/313
f 200/250/250 199/100/100 208/320/320 207/322/322
f 201/321/321 208/320/320 199/100/100 198/99/99
f 213/163/163 212/255/255 218/330/324 217/329/325
f 225/328/326 226/97/97 211/92/92 219/326/327
f 211/92/92 304/91/91 305/327/328 219/326/327
f 210/88/88 209/87/87 221/325/329 220/324/330
f 279/209/209 280/335/331 221/325/329 209/87/87
f 223/332/332 222/334/333 216/252/252 215/94/94
f 224/333/334 223/332/332 215/94/94 214/93/93
f 306/331/335 307/164/164 213/337/163 217/336/325
f 212/255/255 226/97/97 225/328/326 218/330/324
f 227/98/98 226/97/97 212/255/255 85/254/254
f 228/316/316 227/98/98 85/254/254 203/318/318
f 229/103/103 228/316/316 203/318/318 196/257/257
f 230/104/104 229/103/103 196/257/257 86/256/256
f 231/109/109 230/104/104 86/256/256 188/259/259
f 232/110/110 231/109/109 188/259/259 87/258/258
f 233/115/115 232/110/110 87/258/258 180/261/261
f 234/116/116 233/115/115 180/261/261 88/260/260
f 235/121/121 234/116/116 88/260/260 172/263/263
f 236/122/122 235/121/121 172/263/263 89/262/262
f 237/127/127 236/122/122 89/262/262 164/265/265
f 238/128/128 237/127/127 164/265/265 90/264/264
f 239/133/133 238/128/128 90/264/264 156/267/267
f 240/134/134 239/133/133 156/267/267 91/266/266
f 241/139/139 240/134/134 91/266/266 148/269/269
f 242/140/140 241/139/139 148/269/269 92/268/268
f 243/145/145 242/140/140 92/268/268 140/271/271
f 244/146/146 243/145/145 140/271/271 93/270/270
f 245/151/151 244/146/146 93/270/270 132/273/273
f 246/152/152 245/151/151 132/273/273 94/272/272
f 247/157/157 246/152/152 94/272/272 124/275/275
f 248/158/158 247/157/157 124/275/275 95/274/274
f 249/161/161 248/158/158 95/274/274 96/276/276
f 119/284/284 250/281/281 249/161/161 96/276/276
f 251/297/297 250/281/281 119/284/284 100/305/305
f 111/304/304 252/298/298 251/297/297 100/305/305
f 105/368/311 252/298/298 111/304/304
f 107/300/300 253/295/295 105/370/311
f 254/296/296 253/295/295 107/300/300 101/299/299
f 115/285/285 255/282/282 254/296/296 101/299/299
f 256/230/230 255/282/282 115/285/285 73/232/232
f 73/232/232 74/231/231 257/228/228 256/230/230
f 74/231/231 128/233/233 258/229/229 257/228/228
f 259/226/226 258/229/229 128/233/233 75/235/235
f 75/235/235 136/234/234 260/227/227 259/226/226
f 261/224/224 260/227/227 136/234/234 76/237/237
f 76/237/237 144/236/236 262/225/225 261/224/224
f 263/222/222 262/225/225 144/236/236 77/239/239
f 77/239/239 152/238/238 264/223/223 263/222/222
f 265/220/220 264/223/223 152/238/238 78/241/241
f 78/241/241 160/240/240 266/221/221 265/220/220
f 267/218/218 266/221/221 160/240/240 79/243/243
f 79/243/243 168/242/242 268/219/219 267/218/218
f 269/216/216 268/219/219 168/242/242 80/245/245
f 80/245/245 176/244/244 270/217/217 269/216/216
f 271/214/214 270/217/217 176/244/244 81/247/247
f 81/247/247 184/246/246 272/215/215 271/214/214
f 273/212/212 272/215/215 184/246/246 82/249/249
f 82/249/249 192/248/248 274/213/213 273/212/212
f 275/210/210 274/213/213 192/248/248 83/251/251
f 83/251/251 200/250/250 276/211/211 275/210/210
f 277/323/323 276/211/211 200/250/250 207/322/322
f 278/208/208 277/323/323 207/322/322 84/253/253
f 216/252/252 279/209/209 278/208/208 84/253/253
f 222/334/333 280/335/331 279/209/209 216/252/252
f 282/8/8 281/7/7 3/3/3 2/2/2
f 283/11/11 282/8/8 2/2/2 122/10/10
f 284/18/18 283/11/11 122/10/10 8/13/13
f 285/19/19 284/18/18 8/13/13 130/16/16
f 286/26/26 285/19/19 130/16/16 11/21/21
f 287/27/27 286/26/26 11/21/21 138/24/24
f 288/34/34 287/27/27 138/24/24 14/29/29
f 289/35/35 288/34/34 14/29/29 146/32/32
f 290/42/42 289/35/35 146/32/32 17/37/37
f 291/43/43 290/42/42 17/37/37 154/40/40
f 292/50/50 291/43/43 154/40/40 20/45/45
f 293/51/51 292/50/50 20/45/45 162/48/48
f 294/58/58 293/51/51 162/48/48 23/53/53
f 295/59/59 294/58/58 23/53/53 170/56/56
f 296/66/66 295/59/59 170/56/56 26/61/61
f 297/67/67 296/66/66 26/61/61 178/64/64
f 298/74/74 297/67/67 178/64/64 29/69/69
f 299/75/75 298/74/74 29/69/69 186/72/72
f 300/82/82 299/75/75 186/72/72 32/77/77
f 301/83/83 300/82/82 32/77/77 194/80/80
f 302/315/315 301/83/83 194/80/80 205/312/312
f 303/90/90 302/315/315 205/312/312 35/85/85
f 304/91/91 303/90/90 35/85/85 210/88/88
f 305/327/328 304/91/91 210/88/88 220/324/330
f 214/93/93 307/164/164 306/331/335 224/333/334
f 308/165/165 307/164/164 214/93/93 37/96/96
f 201/321/321 309/319/319 308/165/165 37/96/96
f 198/99/99 310/168/168 309/319/319 201/321/321
f 311/169/169 310/168/168 198/99/99 38/102/102
f 190/105/105 312/172/172 311/169/169 38/102/102
f 313/173/173 312/172/172 190/105/105 39/108/108
f 182/111/111 314/176/176 313/173/173 39/108/108
f 315/177/177 314/176/176 182/111/111 40/114/114
f 174/117/117 316/180/180 315/177/177 40/114/114
f 317/181/181 316/180/180 174/117/117 41/120/120
f 166/123/123 318/184/184 317/181/181 41/120/120
f 319/185/185 318/184/184 166/123/123 42/126/126
f 158/129/129 320/188/188 319/185/185 42/126/126
f 321/189/189 320/188/188 158/129/129 43/132/132
f 150/135/135 322/192/192 321/189/189 43/132/132
f 323/193/193 322/192/192 150/135/135 44/138/138
f 142/141/141 324/196/196 323/193/193 44/138/138
f 325/197/197 324/196/196 142/141/141 45/144/144
f 134/147/147 326/200/200 325/197/197 45/144/144
f 327/201/201 326/200/200 134/147/147 46/150/150
f 126/153/153 328/204/204 327/201/201 46/150/150
f 329/205/205 328/204/204 126/153/153 47/156/156
f 330/207/207 329/205/205 47/156/156 48/160/160
f 117/288/288 331/287/287 330/207/207 48/160/160
f 104/308/308 332/309/309 331/287/287 117/288/288
f 109/307/307 333/310/310 332/309/309 104/308/308
f 105/311/311 333/310/310 109/307/307
f 97/290/290 334/292/292 106/291/291
f 113/277/277 335/279/279 334/292/292 97/290/290
f 3/3/3 281/7/7 335/279/279 113/277/277
s 19
usemtl standardSurface6SG
f 336/380/336 477/381/337 478/382/338 411/383/339
f 339/384/340 480/385/341 481/386/342 423/387/343
f 341/388/344 483/389/345 484/390/346 435/391/347
f 343/392/348 486/393/349 487/394/350 447/395/351
f 336/380/336 411/383/339 463/396/352 464/397/353
f 423/387/343 460/398/354 461/399/355 339/384/340
f 435/391/347 457/400/356 458/401/357 341/388/344
f 447/395/351 454/402/358 455/403/359 343/392/348
f 496/404/360 497/405/361 410/406/362 337/407/363
f 499/408/364 500/409/365 422/410/366 338/411/367
f 502/412/368 503/413/369 434/414/370 340/415/371
f 505/416/372 506/417/373 446/418/374 342/419/375
f 515/420/376 516/421/377 415/422/378 351/423/379
f 518/424/380 519/425/381 427/426/382 352/427/383
f 521/428/384 522/429/385 439/430/386 353/431/387
f 524/432/388 525/433/389 451/434/390 354/435/391
f 413/436/392 414/437/393 356/438/394 361/439/395
f 362/440/396 425/441/397 426/442/398 357/443/399
f 363/444/400 437/445/401 438/446/402 358/447/403
f 364/448/404 449/449/405 450/450/406 359/451/407
f 543/452/408 544/453/409 449/449/405 364/448/404
f 540/454/410 541/455/411 437/445/401 363/444/400
f 537/456/412 538/457/413 425/441/397 362/440/396
f 534/458/414 535/459/415 413/436/392 361/439/395
f 345/460/416 488/461/417 489/462/418 367/463/419
f 507/464/420 508/465/421 366/466/422 344/467/423
f 526/468/424 527/469/425 368/470/426 355/471/427
f 370/472/428 369/473/429 360/474/430 365/475/431
f 545/476/432 546/477/433 370/472/428 365/475/431
f 452/478/434 453/479/435 345/460/416 367/463/419
f 371/480/436 452/481/434 367/482/419 372/483/437
f 372/484/437 367/463/419 489/462/418 366/466/422
f 372/484/437 366/466/422 508/465/421 368/470/426
f 372/483/437 368/485/426 527/486/425 369/473/429
f 370/472/428 372/483/437 369/473/429
f 372/483/437 370/472/428 546/477/433 371/480/436
f 533/487/438 534/458/414 361/439/395 404/488/439
f 464/397/353 465/489/440 406/490/441 336/380/336
f 409/491/442 404/488/439 361/439/395 356/438/394
f 408/492/443 514/493/444 515/420/376 351/423/379
f 407/494/445 495/495/446 496/404/360 337/407/363
f 406/490/441 476/496/447 477/381/337 336/380/336
f 468/497/448 469/498/449 379/499/450 392/500/451
f 472/501/452 473/502/453 392/500/451 379/499/450
f 491/503/454 492/504/455 397/505/456 381/506/457
f 510/507/458 511/508/459 396/509/460 382/510/461
f 394/511/462 395/512/463 383/513/464 384/514/465
f 529/515/466 530/516/467 394/511/462 384/514/465
f 471/517/468 472/501/452 379/499/450 385/518/469
f 385/518/469 379/499/450 469/498/449 470/519/470
f 388/520/471 528/521/472 529/515/466 384/514/465
f 389/522/473 388/520/471 384/514/465 383/513/464
f 390/523/474 509/524/475 510/507/458 382/510/461
f 381/506/457 386/525/476 490/526/477 491/503/454
f 386/525/476 471/517/468 385/518/469 391/527/478
f 391/527/478 385/518/469 470/519/470 387/528/479
f 391/527/478 387/528/479 528/521/472 388/520/471
f 389/522/473 391/527/478 388/520/471
f 390/523/474 391/527/478 389/522/473 509/524/475
f 391/527/478 390/523/474 490/526/477 386/525/476
f 467/529/480 468/497/448 392/500/451 375/530/481
f 373/531/482 394/511/462 530/516/467 531/532/483
f 376/533/484 395/512/463 394/511/462 373/531/482
f 377/534/485 396/509/460 511/508/459 512/535/486
f 378/536/487 397/505/456 492/504/455 493/537/488
f 375/530/481 392/500/451 473/502/453 474/538/489
f 531/532/483 532/539/490 398/540/491 373/531/482
f 466/541/492 467/529/480 375/530/481 400/542/493
f 375/530/481 474/538/489 475/543/494 400/542/493
f 378/536/487 493/537/488 494/544/495 401/545/496
f 377/534/485 512/535/486 513/546/497 402/547/498
f 376/533/484 373/531/482 398/540/491 403/548/499
f 532/539/490 533/549/438 404/550/439 398/540/491
f 465/551/440 466/541/492 400/542/493 406/552/441
f 400/542/493 475/543/494 476/553/447 406/552/441
f 401/545/496 494/544/495 495/554/446 407/555/445
f 402/547/498 513/546/497 514/556/444 408/557/443
f 403/548/499 398/540/491 404/550/439 409/558/442
f 416/559/500 479/560/501 480/385/341 339/384/340
f 461/399/355 462/561/502 416/559/500 339/384/340
f 420/562/503 536/563/504 537/456/412 362/440/396
f 357/443/399 419/564/505 420/562/503 362/440/396
f 352/427/383 418/565/506 517/566/507 518/424/380
f 338/411/367 417/567/508 498/568/509 499/408/364
f 411/383/339 478/382/338 479/560/501 416/559/500
f 497/405/361 498/568/509 417/567/508 410/406/362
f 516/421/377 517/566/507 418/565/506 415/422/378
f 420/562/503 419/564/505 414/437/393 413/436/392
f 413/436/392 535/459/415 536/563/504 420/562/503
f 462/561/502 463/396/352 411/383/339 416/559/500
f 429/569/510 482/570/511 483/389/345 341/388/344
f 458/401/357 459/571/512 429/569/510 341/388/344
f 433/572/513 539/573/514 540/454/410 363/444/400
f 432/574/515 433/572/513 363/444/400 358/447/403
f 353/431/387 431/575/516 520/576/517 521/428/384
f 430/577/518 501/578/519 502/412/368 340/415/371
f 429/569/510 459/571/512 460/398/354 423/387/343
f 423/387/343 481/386/342 482/570/511 429/569/510
f 422/410/366 500/409/365 501/578/519 430/577/518
f 519/425/381 520/576/517 431/575/516 427/426/382
f 426/442/398 425/441/397 433/572/513 432/574/515
f 425/441/397 538/457/413 539/573/514 433/572/513
f 441/579/520 485/580/521 486/393/349 343/392/348
f 455/403/359 456/581/522 441/579/520 343/392/348
f 364/448/404 445/582/523 542/583/524 543/452/408
f 444/584/525 445/582/523 364/448/404 359/451/407
f 354/435/391 443/585/526 523/586/527 524/432/388
f 442/587/528 504/588/529 505/416/372 342/419/375
f 441/579/520 456/581/522 457/400/356 435/391/347
f 435/391/347 484/390/346 485/580/521 441/579/520
f 434/414/370 503/413/369 504/588/529 442/587/528
f 522/429/385 523/586/527 443/585/526 439/430/386
f 438/446/402 437/445/401 445/582/523 444/584/525
f 541/455/411 542/583/524 445/582/523 437/445/401
f 447/395/351 487/394/350 488/461/417 345/460/416
f 453/479/435 454/402/358 447/395/351 345/460/416
f 365/475/431 449/449/405 544/453/409 545/476/432
f 450/450/406 449/449/405 365/475/431 360/474/430
f 451/434/390 525/433/389 526/468/424 355/471/427
f 506/417/373 507/464/420 344/467/423 446/418/374
f 371/480/436 350/589/530 453/590/435 452/481/434
f 350/589/530 448/591/531 454/592/358 453/590/435
f 455/593/359 454/592/358 448/591/531 349/594/532
f 349/594/532 440/595/533 456/596/522 455/593/359
f 457/597/356 456/596/522 440/595/533 436/598/534
f 458/599/357 457/597/356 436/598/534 348/600/535
f 348/600/535 428/601/536 459/602/512 458/599/357
f 460/603/354 459/602/512 428/601/536 424/604/537
f 461/605/355 460/603/354 424/604/537 346/606/538
f 421/607/539 462/608/502 461/605/355 346/606/538
f 412/609/540 463/610/352 462/608/502 421/607/539
f 464/611/353 463/610/352 412/609/540 347/612/541
f 405/613/542 465/614/440 464/611/353 347/612/541
f 399/615/543 466/541/492 465/551/440 405/616/542
f 374/617/544 467/529/480 466/541/492 399/615/543
f 393/618/545 468/497/448 467/529/480 374/617/544
f 380/619/546 469/498/449 468/497/448 393/618/545
f 470/519/470 469/498/449 380/619/546 387/528/479
f 381/506/457 472/501/452 471/517/468 386/525/476
f 397/505/456 473/502/453 472/501/452 381/506/457
f 474/538/489 473/502/453 397/505/456 378/536/487
f 475/543/494 474/538/489 378/536/487 401/545/496
f 476/553/447 475/543/494 401/545/496 407/555/445
f 477/381/337 476/496/447 407/494/445 337/407/363
f 478/382/338 477/381/337 337/407/363 410/406/362
f 479/560/501 478/382/338 410/406/362 417/567/508
f 480/385/341 479/560/501 417/567/508 338/411/367
f 481/386/342 480/385/341 338/411/367 422/410/366
f 482/570/511 481/386/342 422/410/366 430/577/518
f 483/389/345 482/570/511 430/577/518 340/415/371
f 484/390/346 483/389/345 340/415/371 434/414/370
f 485/580/521 484/390/346 434/414/370 442/587/528
f 486/393/349 485/580/521 442/587/528 342/419/375
f 487/394/350 486/393/349 342/419/375 446/418/374
f 488/461/417 487/394/350 446/418/374 344/467/423
f 489/462/418 488/461/417 344/467/423 366/466/422
f 491/503/454 490/526/477 390/523/474 382/510/461
f 396/509/460 492/504/455 491/503/454 382/510/461
f 493/537/488 492/504/455 396/509/460 377/534/485
f 494/544/495 493/537/488 377/534/485 402/547/498
f 495/554/446 494/544/495 402/547/498 408/557/443
f 496/404/360 495/495/446 408/492/443 351/423/379
f 415/422/378 497/405/361 496/404/360 351/423/379
f 418/565/506 498/568/509 497/405/361 415/422/378
f 499/408/364 498/568/509 418/565/506 352/427/383
f 352/427/383 427/426/382 500/409/365 499/408/364
f 501/578/519 500/409/365 427/426/382 431/575/516
f 502/412/368 501/578/519 431/575/516 353/431/387
f 353/431/387 439/430/386 503/413/369 502/412/368
f 504/588/529 503/413/369 439/430/386 443/585/526
f 505/416/372 504/588/529 443/585/526 354/435/391
f 451/434/390 506/417/373 505/416/372 354/435/391
f 355/471/427 507/464/420 506/417/373 451/434/390
f 368/470/426 508/465/421 507/464/420 355/471/427
f 510/507/458 509/524/475 389/522/473 383/513/464
f 395/512/463 511/508/459 510/507/458 383/513/464
f 512/535/486 511/508/459 395/512/463 376/533/484
f 513/546/497 512/535/486 376/533/484 403/548/499
f 514/556/444 513/546/497 403/548/499 409/558/442
f 515/620/376 514/621/444 409/491/442 356/438/394
f 414/437/393 516/622/377 515/620/376 356/438/394
f 419/564/505 517/623/507 516/622/377 414/437/393
f 518/624/380 517/623/507 419/564/505 357/443/399
f 426/442/398 519/625/381 518/624/380 357/443/399
f 432/574/515 520/626/517 519/625/381 426/442/398
f 521/627/384 520/626/517 432/574/515 358/447/403
f 438/446/402 522/628/385 521/627/384 358/447/403
f 444/584/525 523/629/527 522/628/385 438/446/402
f 524/630/388 523/629/527 444/584/525 359/451/407
f 359/451/407 450/450/406 525/631/389 524/630/388
f 526/632/424 525/631/389 450/450/406 360/474/430
f 369/473/429 527/486/425 526/632/424 360/474/430
f 529/515/466 528/521/472 387/528/479 380/619/546
f 393/618/545 530/516/467 529/515/466 380/619/546
f 531/532/483 530/516/467 393/618/545 374/617/544
f 399/615/543 532/539/490 531/532/483 374/617/544
f 405/616/542 533/549/438 532/539/490 399/615/543
f 347/612/541 534/458/414 533/487/438 405/613/542
f 347/612/541 412/609/540 535/459/415 534/458/414
f 536/563/504 535/459/415 412/609/540 421/607/539
f 537/456/412 536/563/504 421/607/539 346/606/538
f 346/606/538 424/604/537 538/457/413 537/456/412
f 539/573/514 538/457/413 424/604/537 428/601/536
f 540/454/410 539/573/514 428/601/536 348/600/535
f 436/598/534 541/455/411 540/454/410 348/600/535
f 440/595/533 542/583/524 541/455/411 436/598/534
f 543/452/408 542/583/524 440/595/533 349/594/532
f 448/591/531 544/453/409 543/452/408 349/594/532
f 545/476/432 544/453/409 448/591/531 350/589/530
f 371/480/436 546/477/433 545/476/432 350/589/530
s 42
usemtl standardSurface7SG
f 547/633/547 548/634/548 699/635/549 700/636/550
f 547/633/547 700/636/550 701/637/551 552/638/552
f 548/634/548 547/633/547 675/639/553 676/640/554
f 686/641/555 675/639/553 547/633/547 552/638/552
f 552/638/552 701/637/551 702/642/556 614/643/557
f 685/644/558 686/641/555 552/638/552 614/643/557
f 557/645/559 703/646/560 704/647/561 600/648/562
f 683/649/563 684/650/564 557/645/559 600/648/562
f 560/651/565 705/652/566 706/797/567 563/654/568
f 681/655/569 682/656/570 560/651/565 563/654/568
f 611/657/571 707/658/572 708/659/573 566/660/574
f 679/661/575 680/662/576 611/657/571 566/660/574
f 548/634/548 676/640/554 677/663/577 568/664/578
f 710/665/579 699/635/549 548/634/548 568/664/578
f 709/666/580 710/665/579 568/664/578 625/667/581
f 677/663/577 678/668/582 625/667/581 568/664/578
f 649/669/583 650/670/584 610/671/585 567/672/586
f 569/673/587 647/674/588 648/675/589 624/676/590
f 554/677/591 646/678/592 647/674/588 569/673/587
f 553/679/593 645/680/594 646/678/592 554/677/591
f 555/681/595 644/682/596 645/680/594 553/679/593
f 615/683/597 643/684/598 644/682/596 555/681/595
f 601/685/599 641/686/600 642/687/601 558/688/602
f 564/689/603 639/805/604 640/691/605 561/692/606
f 578/693/607 571/694/608 627/806/609 628/696/610
f 580/697/611 579/698/612 581/809/613 582/700/614
f 602/701/615 629/702/616 630/703/617 577/704/618
f 631/705/619 632/706/620 576/707/621 616/708/622
f 617/709/623 618/710/624 586/711/625 584/712/626
f 585/713/627 583/714/628 603/715/629 604/716/630
f 632/706/620 633/717/631 575/718/632 576/707/621
f 588/719/633 587/720/634 584/712/626 586/711/625
f 575/718/632 633/717/631 634/721/635 574/722/636
f 587/720/634 588/719/633 590/723/637 589/724/638
f 574/722/636 634/721/635 635/725/639 573/726/640
f 589/724/638 590/723/637 592/727/641 591/728/642
f 573/726/640 635/725/639 636/729/643 623/730/644
f 621/731/645 622/732/646 591/728/642 592/727/641
f 572/733/647 637/734/648 638/735/649 609/736/650
f 593/737/651 594/738/652 607/739/653 608/740/654
f 606/741/655 607/739/653 594/738/652 595/742/656
f 581/809/613 596/808/657 597/814/658 582/700/614
f 585/713/627 604/716/630 605/812/659 598/746/660
f 598/813/660 605/745/659 606/741/655 595/742/656
f 586/711/625 618/710/624 619/811/661 588/719/633
f 619/747/661 620/748/662 590/723/637 588/719/633
f 620/748/662 621/731/645 592/727/641 590/723/637
f 600/648/562 704/647/561 705/652/566 560/651/565
f 682/656/570 683/649/563 600/648/562 560/651/565
f 561/692/606 640/691/605 641/686/600 601/685/599
f 578/693/607 628/696/610 629/702/616 602/701/615
f 604/716/630 603/715/629 580/697/611 582/700/614
f 605/812/659 604/716/630 582/700/614 597/814/658
f 606/741/655 605/745/659 597/744/658 596/743/657
f 581/699/613 607/739/653 606/741/655 596/743/657
f 608/740/654 607/739/653 581/699/613 579/807/612
f 609/736/650 638/735/649 627/695/609 571/804/608
f 564/802/603 610/671/585 650/670/584 639/690/604
f 680/662/576 681/800/569 563/798/568 611/657/571
f 563/798/568 706/653/567 707/658/572 611/657/571
f 614/643/557 702/642/556 703/646/560 557/645/559
f 684/650/564 685/644/558 614/643/557 557/645/559
f 558/688/602 642/687/601 643/684/598 615/683/597
f 630/703/617 631/705/619 616/708/622 577/704/618
f 583/714/628 585/713/627 618/710/624 617/709/623
f 619/811/661 618/710/624 585/713/627 598/746/660
f 595/742/656 620/748/662 619/747/661 598/813/660
f 594/738/652 621/731/645 620/748/662 595/742/656
f 594/738/652 593/737/651 622/732/646 621/731/645
f 623/730/644 636/729/643 637/734/648 572/733/647
f 624/676/590 648/675/589 649/669/583 567/672/586
f 678/668/582 679/661/575 566/660/574 625/667/581
f 708/659/573 709/666/580 625/667/581 566/660/574
f 628/696/610 627/806/609 579/698/612 580/697/611
f 629/702/616 628/696/610 580/697/611 603/715/629
f 630/703/617 629/702/616 603/715/629 583/714/628
f 617/709/623 631/705/619 630/703/617 583/714/628
f 584/712/626 632/706/620 631/705/619 617/709/623
f 587/720/634 633/717/631 632/706/620 584/712/626
f 634/721/635 633/717/631 587/720/634 589/724/638
f 635/725/639 634/721/635 589/724/638 591/728/642
f 636/729/643 635/725/639 591/728/642 622/732/646
f 637/734/648 636/729/643 622/732/646 593/737/651
f 638/735/649 637/734/648 593/737/651 608/740/654
f 627/695/609 638/735/649 608/740/654 579/807/612
f 661/749/663 662/803/664 571/694/608 578/693/607
f 660/751/665 661/749/663 578/693/607 602/701/615
f 659/752/666 660/751/665 602/701/615 577/704/618
f 658/753/667 659/752/666 577/704/618 616/708/622
f 657/754/668 658/753/667 616/708/622 576/707/621
f 656/755/669 657/754/668 576/707/621 575/718/632
f 655/756/670 656/755/669 575/718/632 574/722/636
f 654/757/671 655/756/670 574/722/636 573/726/640
f 653/758/672 654/757/671 573/726/640 623/730/644
f 652/759/673 653/758/672 623/730/644 572/733/647
f 609/736/650 651/760/674 652/759/673 572/733/647
f 662/750/664 651/760/674 609/736/650 571/804/608
f 652/759/673 651/760/674 650/670/584 649/669/583
f 649/669/583 648/675/589 653/758/672 652/759/673
f 648/675/589 647/674/588 654/757/671 653/758/672
f 647/674/588 646/678/592 655/756/670 654/757/671
f 646/678/592 645/680/594 656/755/669 655/756/670
f 645/680/594 644/682/596 657/754/668 656/755/669
f 644/682/596 643/684/598 658/753/667 657/754/668
f 643/684/598 642/687/601 659/752/666 658/753/667
f 642/687/601 641/686/600 660/751/665 659/752/666
f 641/686/600 640/691/605 661/749/663 660/751/665
f 640/691/605 639/805/604 662/803/664 661/749/663
f 639/690/604 650/670/584 651/760/674 662/750/664
f 664/761/675 663/762/676 553/679/593 554/677/591
f 665/763/677 664/761/675 554/677/591 569/673/587
f 624/676/590 666/764/678 665/763/677 569/673/587
f 567/672/586 667/765/679 666/764/678 624/676/590
f 610/671/585 668/766/680 667/765/679 567/672/586
f 564/802/603 669/801/681 668/766/680 610/671/585
f 561/692/606 670/768/682 669/767/681 564/689/603
f 601/685/599 671/769/683 670/768/682 561/692/606
f 558/688/602 672/770/684 671/769/683 601/685/599
f 615/683/597 673/771/685 672/770/684 558/688/602
f 555/681/595 674/772/686 673/771/685 615/683/597
f 553/679/593 663/762/676 674/772/686 555/681/595
f 676/640/554 675/639/553 663/762/676 664/761/675
f 677/663/577 676/640/554 664/761/675 665/763/677
f 665/763/677 666/764/678 678/668/582 677/663/577
f 666/764/678 667/765/679 679/661/575 678/668/582
f 667/765/679 668/766/680 680/662/576 679/661/575
f 668/766/680 669/801/681 681/800/569 680/662/576
f 669/767/681 670/768/682 682/656/570 681/655/569
f 670/768/682 671/769/683 683/649/563 682/656/570
f 671/769/683 672/770/684 684/650/564 683/649/563
f 672/770/684 673/771/685 685/644/558 684/650/564
f 673/771/685 674/772/686 686/641/555 685/644/558
f 674/772/686 663/762/676 675/639/553 686/641/555
f 688/773/687 687/774/688 549/775/689 550/776/690
f 689/777/691 688/773/687 550/776/690 551/778/692
f 690/779/693 689/777/691 551/778/692 613/780/694
f 691/781/695 690/779/693 613/780/694 556/782/696
f 692/783/697 691/781/695 556/782/696 599/784/698
f 693/785/699 692/783/697 599/784/698 559/786/700
f 694/799/701 693/785/699 559/786/700 562/788/702
f 695/789/703 694/787/701 562/810/702 612/790/704
f 696/791/705 695/789/703 612/790/704 565/792/706
f 626/793/707 697/794/708 696/791/705 565/792/706
f 570/795/709 698/796/710 697/794/708 626/793/707
f 549/775/689 687/774/688 698/796/710 570/795/709
f 700/636/550 699/635/549 687/774/688 688/773/687
f 701/637/551 700/636/550 688/773/687 689/777/691
f 702/642/556 701/637/551 689/777/691 690/779/693
f 703/646/560 702/642/556 690/779/693 691/781/695
f 704/647/561 703/646/560 691/781/695 692/783/697
f 705/652/566 704/647/561 692/783/697 693/785/699
f 706/797/567 705/652/566 693/785/699 694/799/701
f 707/658/572 706/653/567 694/787/701 695/789/703
f 708/659/573 707/658/572 695/789/703 696/791/705
f 696/791/705 697/794/708 709/666/580 708/659/573
f 697/794/708 698/796/710 710/665/579 709/666/580
f 698/796/710 687/774/688 699/635/549 710/665/579
