# Apple ModelIO OBJ File: Knife
mtllib Knife.mtl
g Knife_BladeSG
v -0.558817 0.021345 0.200502
v -0.558817 -0.021353 0.200502
v -0.49394 0.021345 0.200502
v -0.49394 -0.021353 0.200502
v -0.429897 0.021404 0.200129
v -0.429897 -0.021413 0.200129
v -0.367535 0.021619 0.198996
v -0.367535 -0.021628 0.198996
v -0.246609 0.021519 0.197809
v -0.246609 -0.021528 0.197809
v -0.49394 0.044888 0.153265
v -0.429802 0.045003 0.152144
v -0.558817 0.044888 0.153265
v -0.255257 0.045407 0.145185
v -0.367159 0.045415 0.148737
v -0.430111 0.044223 0.072778
v -0.368382 0.045832 0.060734
v -0.266441 0.049947 0.031078
v -0.558817 0.043687 0.076793
v -0.49394 0.043687 0.076793
v -0.558817 -4e-06 0.05415
v -0.49394 -4e-06 0.05415
v -0.432247 -4e-06 0.049006
v -0.376925 -4e-06 0.033573
v -0.333845 -4e-06 0.001086
v -0.430111 -0.044232 0.072778
v -0.368382 -0.04584 0.060734
v -0.266441 -0.049955 0.031078
v -0.558817 -0.043695 0.076793
v -0.49394 -0.043695 0.076793
v -0.558817 -0.044897 0.153076
v -0.49394 -0.044897 0.153076
v -0.429802 -0.045012 0.151956
v -0.367159 -0.045424 0.148548
v -0.255257 -0.045416 0.144996
v -0.039537 -0.043458 0.143714
v -0.039537 -0.020232 0.19725
v -0.254337 0.006541 -0.219129
v -0.039537 0.018966 -0.227537
v -0.246609 -4e-06 -0.264329
v -0.039537 -4e-06 -0.273032
v -0.039537 0.043449 0.143903
v -0.039537 0.020223 0.19725
v -0.26236 -0.033859 -0.08009
v -0.303164 -4e-06 -0.075562
v -0.26236 0.033851 -0.08009
v -0.273973 0.000318 -0.177745
v -0.254337 -0.006279 -0.219145
v -0.039537 0.044341 -0.092906
v -0.039537 -0.018975 -0.227537
v -0.039537 -0.044349 -0.092906
v 0.196249 -0.042378 0.145612
v 0.196249 -0.019672 0.197379
v 0.196249 -0.043293 -0.08253
v 0.410988 -0.041265 0.147355
v 0.410988 -0.042225 -0.067697
v 0.410988 -0.019067 0.196392
v 0.196249 0.042368 0.145813
v 0.196249 0.019662 0.197384
v 0.410988 0.019051 0.196417
v 0.410988 0.041251 0.147609
v 0.196249 -4e-06 -0.260316
v 0.196249 -0.018461 -0.215588
v 0.410988 -4e-06 -0.238524
v 0.410988 -0.017945 -0.196054
v 0.196249 0.018453 -0.215583
v 0.410988 0.017941 -0.196031
v 0.196249 0.043285 -0.082517
v 0.410988 0.04222 -0.06763
v 0.640854 0.040036 0.148878
v 0.640854 0.018353 0.193748
v 0.870087 0.01643 0.189111
v 0.870087 -0.016452 0.189059
v 0.640854 -0.018375 0.193699
v 0.870087 0.036248 0.149656
v 0.640854 0.017366 -0.169349
v 0.640854 0.041082 -0.04763
v 0.870087 0.037322 -0.020734
v 0.870087 0.015636 -0.133073
v 0.640854 -4e-06 -0.20863
v 0.870087 -4e-06 -0.167828
v 0.640854 -0.017365 -0.169395
v 0.640854 -0.041084 -0.047763
v 0.870087 -0.015635 -0.133121
v 0.870087 -0.037324 -0.020867
v 0.640854 -0.040053 0.148561
v 0.870087 -0.036265 0.149338
v 1.50733 -5e-06 0.126546
v 1.29037 0.009898 0.169143
v 1.29037 -0.009908 0.169136
v 1.28686 0.023096 0.147014
v 1.28635 0.023802 0.063467
v 1.30339 0.009377 0.011801
v 1.31471 -4e-06 -0.012202
v 1.30339 -0.009384 0.011795
v 1.28686 -0.023105 0.14684
v 1.28635 -0.02381 0.063453
v 1.08749 0.031916 0.14954
v 1.09087 0.014206 0.181355
v 1.09082 0.013591 -0.082456
v 1.08732 0.033003 0.015493
v 1.09315 -4e-06 -0.11019
v 1.09082 -0.013595 -0.082481
v 1.08732 -0.033008 0.015426
v 1.08749 -0.031929 0.149285
v 1.09087 -0.014221 0.181327
vn 0 0.580605 0.814186
vn 0 -0.582131 0.813095
vn 0.002801 0.58143 0.813592
vn 0.0028 -0.582958 0.812497
vn 0.011198 0.587079 0.809453
vn 0.011172 -0.58858 0.808362
vn 0.013038 0.597795 0.801543
vn 0.013011 -0.599224 0.800476
vn 0.011098 0.576269 0.817185
vn 0.011085 -0.577755 0.816135
vn -0.00086 0.983902 0.178706
vn -0.003525 0.98393 0.178518
vn 0 0.98408 0.177727
vn -0.005554 0.981972 0.188944
vn -0.00605 0.984244 0.176711
vn -0.065185 0.927967 -0.366917
vn -0.106997 0.963387 -0.245841
vn -0.240771 0.958156 -0.154811
vn 0 0.910917 -0.41259
vn -0.0164 0.916367 -0.400003
vn 0 0.46012 -0.887857
vn -0.03324 0.463878 -0.885275
vn -0.137491 0.485351 -0.863441
vn -0.275074 0.6041 -0.747929
vn -0.471103 0.764569 -0.439883
vn -0.1375 -0.485348 -0.863441
vn -0.275071 -0.604101 -0.747929
vn -0.065274 -0.927727 -0.367507
vn -0.107121 -0.963283 -0.246195
vn -0.471112 -0.764565 -0.43988
vn -0.240998 -0.958074 -0.154965
vn 0 -0.910623 -0.413238
vn 0 -0.46012 -0.887857
vn -0.016428 -0.916087 -0.400644
vn -0.03325 -0.463878 -0.885275
vn 0 -0.98408 0.177724
vn -0.000856 -0.983903 0.178702
vn -0.003517 -0.983931 0.178517
vn -0.006031 -0.984247 0.176698
vn -0.005532 -0.981985 0.188878
vn 0.00923 -0.977397 0.211212
vn 0.003882 -0.996288 0.085998
vn 0.00758 -0.658774 0.752303
vn 0.003952 -0.639389 0.768873
vn 0.00199 -0.999476 -0.032309
vn -0.056087 0.976468 -0.208244
vn -0.019189 0.973831 -0.226463
vn -0.039408 0.961001 -0.273721
vn -0.007049 0.942905 -0.332989
vn 0.009233 0.977375 0.211313
vn 0.007574 0.657504 0.753413
vn 0.003883 0.996285 0.086032
vn 0.003941 0.638004 0.770023
vn -0.602325 -0.777878 -0.179195
vn -0.596051 -0.782921 -0.178208
vn -0.600521 0.779551 -0.177974
vn -0.594624 0.784216 -0.177278
vn -0.635984 0.74988 -0.182223
vn -0.651317 0.733522 -0.194246
vn -0.680367 0.699814 -0.217627
vn -0.655403 -0.72972 -0.194822
vn -0.640145 -0.745607 -0.185164
vn -0.684861 -0.696587 -0.213851
vn -0.008004 0.996158 -0.08721
vn 0.002003 0.999476 -0.032293
vn -0.024257 0.994304 -0.103785
vn -0.019487 -0.973822 -0.226475
vn -0.008145 -0.996136 -0.087444
vn -0.056697 -0.976398 -0.208405
vn -0.024538 -0.994252 -0.104219
vn -0.039929 -0.961707 -0.271156
vn -0.00728 -0.943304 -0.331852
vn 0.004215 -0.996413 0.084522
vn 0.002399 -0.638921 0.769268
vn 0.008608 -0.997724 -0.066881
vn 0.004797 -0.996098 0.088119
vn 0.010985 -0.997576 -0.068707
vn 0.006791 -0.628342 0.777907
vn 0.00421 0.996412 0.084531
vn 0.002374 0.637316 0.770599
vn 0.006757 0.626102 0.779712
vn 0.004786 0.996094 0.088172
vn 0.028664 -0.922925 -0.383911
vn 0.018829 -0.970904 -0.23873
vn 0.043644 -0.919704 -0.39018
vn 0.026904 -0.970033 -0.241481
vn 0.028667 0.922934 -0.383889
vn 0.018837 0.970908 -0.238711
vn 0.043642 0.919744 -0.390085
vn 0.026914 0.97005 -0.241408
vn 0.00861 0.997727 -0.066839
vn 0.010988 0.997581 -0.068635
vn 0.010251 0.995598 0.093161
vn 0.014427 0.611965 0.790754
vn 0.025491 0.593842 0.804178
vn 0.025446 -0.597293 0.80162
vn 0.014438 -0.614962 0.788424
vn 0.017911 0.994776 0.100503
vn 0.03789 0.968634 -0.245585
vn 0.01801 0.997306 -0.071108
vn 0.028797 0.996829 -0.074175
vn 0.055582 0.967053 -0.248436
vn 0.059305 0.914415 -0.40041
vn 0.085232 0.907677 -0.410923
vn 0.059327 -0.914326 -0.40061
vn 0.037897 -0.968599 -0.245723
vn 0.018017 -0.997298 -0.071223
vn 0.085285 -0.907557 -0.411177
vn 0.055616 -0.96701 -0.248595
vn 0.028819 -0.996819 -0.074306
vn 0.010258 -0.995609 0.09305
vn 0.017905 -0.994788 0.100379
vn 0.979662 0.00636 -0.200555
vn 0.100675 0.55395 0.826441
vn 0.100499 -0.557177 0.82429
vn 0.065648 0.98991 0.125571
vn 0.084526 0.992909 -0.083591
vn 0.137245 0.95914 -0.247415
vn 0.178133 0.924825 -0.336107
vn 0.137283 -0.959121 -0.247467
vn 0.178171 -0.924799 -0.336159
vn 0.065594 -0.989921 0.125513
vn 0.08456 -0.992897 -0.083694
vn 0.030214 0.993285 0.111675
vn 0.044424 0.572724 0.818543
vn 0.089049 0.963832 -0.251194
vn 0.048146 0.995651 -0.079755
vn 0.131208 0.908629 -0.396456
vn 0.131281 -0.908538 -0.39664
vn 0.089098 -0.963798 -0.251308
vn 0.048179 -0.99564 -0.079868
vn 0.030189 -0.993296 0.111589
vn 0.044328 -0.576165 0.816131
vt 0.242279 0.005782
vt 0.262557 0.005767
vt 0.242148 0.036784
vt 0.262665 0.036805
vt 0.24194 0.067745
vt 0.262764 0.067788
vt 0.241572 0.098319
vt 0.262985 0.098391
vt 0.241228 0.158576
vt 0.262872 0.158672
vt 0.216769 0.036609
vt 0.215893 0.067706
vt 0.21722 0.005582
vt 0.212159 0.154273
vt 0.214065 0.098479
vt 0.176988 0.066958
vt 0.170437 0.097476
vt 0.154421 0.148807
vt 0.180846 0.004854
vt 0.17987 0.035885
vt 0.157674 0.003968
vt 0.156488 0.034504
vt 0.153219 0.063228
vt 0.145932 0.088834
vt 0.132623 0.11012
vt 0.351854 0.063696
vt 0.358999 0.089554
vt 0.327919 0.067324
vt 0.334294 0.098047
vt 0.372171 0.111085
vt 0.349912 0.149695
vt 0.32421 0.004858
vt 0.347546 0.003986
vt 0.325153 0.036059
vt 0.348669 0.034729
vt 0.287767 0.005563
vt 0.288179 0.036686
vt 0.288952 0.067868
vt 0.290617 0.098736
vt 0.292089 0.154627
vt 0.290851 0.262892
vt 0.261639 0.262556
vt 0.028043 0.157584
vt 0.026465 0.264439
vt 0.005412 0.161772
vt 0.001998 0.264714
vt 0.212272 0.262434
vt 0.241384 0.262438
vt 0.406215 0.154216
vt 0.408221 0.128246
vt 0.098236 0.152722
vt 0.096524 0.126818
vt 0.047349 0.14515
vt 0.476638 0.159824
vt 0.457429 0.147022
vt 0.499277 0.164304
vt 0.094391 0.26358
vt 0.477023 0.267122
vt 0.408861 0.265455
vt 0.501588 0.267681
vt 0.288289 0.380034
vt 0.260442 0.37966
vt 0.401071 0.382541
vt 0.285423 0.485396
vt 0.390756 0.488503
vt 0.259211 0.484855
vt 0.213332 0.379491
vt 0.241078 0.379522
vt 0.240667 0.484692
vt 0.214564 0.484772
vt 0.492412 0.385232
vt 0.468299 0.384433
vt 0.478202 0.492003
vt 0.455306 0.490942
vt 0.009737 0.381804
vt 0.03373 0.381324
vt 0.022328 0.488049
vt 0.045096 0.48737
vt 0.100686 0.380366
vt 0.109361 0.486036
vt 0.216198 0.595973
vt 0.240073 0.595737
vt 0.239836 0.704668
vt 0.255303 0.704862
vt 0.257654 0.595926
vt 0.219037 0.705099
vt 0.060966 0.600029
vt 0.121392 0.598045
vt 0.138044 0.708223
vt 0.082866 0.711144
vt 0.039917 0.60098
vt 0.064336 0.712442
vt 0.458399 0.605475
vt 0.437238 0.604067
vt 0.376551 0.600774
vt 0.43109 0.71719
vt 0.412502 0.715394
vt 0.357183 0.711018
vt 0.281646 0.596678
vt 0.276206 0.705834
vt 0.243286 0.996032
vt 0.240539 0.895265
vt 0.249069 0.895397
vt 0.229286 0.894984
vt 0.192234 0.900515
vt 0.169079 0.912902
vt 0.158073 0.920602
vt 0.319966 0.915261
vt 0.330739 0.923308
vt 0.260388 0.895486
vt 0.297186 0.902163
vt 0.223048 0.806106
vt 0.239693 0.806957
vt 0.113836 0.81626
vt 0.161 0.810339
vt 0.099158 0.819188
vt 0.392995 0.823538
vt 0.378366 0.820156
vt 0.33127 0.812814
vt 0.269367 0.806784
vt 0.252608 0.807149
usemtl BladeSG
f 1/1/1 2/2/2 3/3/3
f 3/3/3 2/2/2 4/4/4
f 3/3/3 4/4/4 5/5/5
f 5/5/5 4/4/4 6/6/6
f 5/5/5 6/6/6 7/7/7
f 7/7/7 6/6/6 8/8/8
f 7/7/7 8/8/8 9/9/9
f 9/9/9 8/8/8 10/10/10
f 3/3/3 5/5/5 11/11/11
f 11/11/11 5/5/5 12/12/12
f 1/1/1 3/3/3 13/13/13
f 13/13/13 3/3/3 11/11/11
f 9/9/9 14/14/14 7/7/7
f 7/7/7 14/14/14 15/15/15
f 5/5/5 7/7/7 12/12/12
f 12/12/12 7/7/7 15/15/15
f 12/12/12 15/15/15 16/16/16
f 16/16/16 15/15/15 17/17/17
f 15/15/15 14/14/14 17/17/17
f 17/17/17 14/14/14 18/18/18
f 19/19/19 13/13/13 20/20/20
f 20/20/20 13/13/13 11/11/11
f 11/11/11 12/12/12 20/20/20
f 20/20/20 12/12/12 16/16/16
f 21/21/21 19/19/19 22/22/22
f 22/22/22 19/19/19 20/20/20
f 20/20/20 16/16/16 22/22/22
f 22/22/22 16/16/16 23/23/23
f 16/16/16 17/17/17 23/23/23
f 23/23/23 17/17/17 24/24/24
f 18/18/18 25/25/25 17/17/17
f 17/17/17 25/25/25 24/24/24
f 23/26/26 24/27/27 26/28/28
f 26/28/28 24/27/27 27/29/29
f 24/27/27 25/30/30 27/29/29
f 27/29/29 25/30/30 28/31/31
f 29/32/32 21/33/33 30/34/34
f 30/34/34 21/33/33 22/35/35
f 23/26/26 26/28/28 22/35/35
f 22/35/35 26/28/28 30/34/34
f 31/36/36 29/32/32 32/37/37
f 32/37/37 29/32/32 30/34/34
f 26/28/28 33/38/38 30/34/34
f 30/34/34 33/38/38 32/37/37
f 27/29/29 34/39/39 26/28/28
f 26/28/28 34/39/39 33/38/38
f 28/31/31 35/40/40 27/29/29
f 27/29/29 35/40/40 34/39/39
f 34/39/39 8/8/8 33/38/38
f 33/38/38 8/8/8 6/6/6
f 34/39/39 35/40/40 8/8/8
f 8/8/8 35/40/40 10/10/10
f 31/36/36 32/37/37 2/2/2
f 2/2/2 32/37/37 4/4/4
f 33/38/38 6/6/6 32/37/37
f 32/37/37 6/6/6 4/4/4
f 35/40/41 36/41/42 10/10/43
f 10/10/43 36/41/42 37/42/44
f 35/40/41 28/31/45 36/41/42
f 38/43/46 39/44/47 40/45/48
f 40/45/48 39/44/47 41/46/49
f 14/14/50 9/9/51 42/47/52
f 42/47/52 9/9/51 43/48/53
f 9/9/51 10/10/43 43/48/53
f 43/48/53 10/10/43 37/42/44
f 28/31/31 25/30/30 44/49/54
f 44/49/54 25/30/30 45/50/55
f 18/18/18 46/51/56 25/25/25
f 25/25/25 46/51/56 45/52/57
f 45/52/57 46/51/56 47/53/58
f 47/53/58 46/51/56 38/43/59
f 47/53/58 38/43/59 40/45/60
f 48/54/61 44/49/54 47/55/62
f 47/55/62 44/49/54 45/50/55
f 48/54/61 47/55/62 40/56/63
f 42/47/52 49/57/64 18/18/65
f 18/18/65 49/57/64 46/51/66
f 46/51/66 49/57/64 38/43/46
f 38/43/46 49/57/64 39/44/47
f 50/58/67 51/59/68 48/54/69
f 48/54/69 51/59/68 44/49/70
f 48/54/69 40/56/71 50/58/67
f 50/58/67 40/56/71 41/60/72
f 36/41/42 52/61/73 37/42/44
f 37/42/44 52/61/73 53/62/74
f 52/61/73 36/41/42 54/63/75
f 54/63/75 36/41/42 51/59/68
f 55/64/76 52/61/73 56/65/77
f 56/65/77 52/61/73 54/63/75
f 52/61/73 55/64/76 53/62/74
f 53/62/74 55/64/76 57/66/78
f 42/47/52 43/48/53 58/67/79
f 58/67/79 43/48/53 59/68/80
f 60/69/81 59/68/80 57/66/78
f 57/66/78 59/68/80 53/62/74
f 58/67/79 59/68/80 61/70/82
f 61/70/82 59/68/80 60/69/81
f 43/48/53 37/42/44 59/68/80
f 59/68/80 37/42/44 53/62/74
f 41/60/72 62/71/83 50/58/67
f 50/58/67 62/71/83 63/72/84
f 50/58/67 63/72/84 51/59/68
f 51/59/68 63/72/84 54/63/75
f 62/71/83 64/73/85 63/72/84
f 63/72/84 64/73/85 65/74/86
f 63/72/84 65/74/86 54/63/75
f 54/63/75 65/74/86 56/65/77
f 41/46/49 39/44/47 62/75/87
f 62/75/87 39/44/47 66/76/88
f 62/75/87 66/76/88 64/77/89
f 64/77/89 66/76/88 67/78/90
f 39/44/47 49/57/64 66/76/88
f 66/76/88 49/57/64 68/79/91
f 58/67/79 68/79/91 42/47/52
f 42/47/52 68/79/91 49/57/64
f 61/70/82 69/80/92 58/67/79
f 58/67/79 69/80/92 68/79/91
f 66/76/88 68/79/91 67/78/90
f 67/78/90 68/79/91 69/80/92
f 61/70/82 60/69/81 70/81/93
f 70/81/93 60/69/81 71/82/94
f 72/83/95 71/82/94 73/84/96
f 73/84/96 71/82/94 74/85/97
f 71/82/94 72/83/95 70/81/93
f 70/81/93 72/83/95 75/86/98
f 67/78/90 69/80/92 76/87/99
f 76/87/99 69/80/92 77/88/100
f 70/81/93 77/88/100 61/70/82
f 61/70/82 77/88/100 69/80/92
f 75/86/98 78/89/101 70/81/93
f 70/81/93 78/89/101 77/88/100
f 76/87/99 77/88/100 79/90/102
f 79/90/102 77/88/100 78/89/101
f 64/77/89 67/78/90 80/91/103
f 80/91/103 67/78/90 76/87/99
f 80/91/103 76/87/99 81/92/104
f 81/92/104 76/87/99 79/90/102
f 64/73/85 80/93/105 65/74/86
f 65/74/86 80/93/105 82/94/106
f 65/74/86 82/94/106 56/65/77
f 56/65/77 82/94/106 83/95/107
f 80/93/105 81/96/108 82/94/106
f 82/94/106 81/96/108 84/97/109
f 82/94/106 84/97/109 83/95/107
f 83/95/107 84/97/109 85/98/110
f 57/66/78 55/64/76 74/85/97
f 74/85/97 55/64/76 86/99/111
f 86/99/111 55/64/76 83/95/107
f 83/95/107 55/64/76 56/65/77
f 87/100/112 86/99/111 85/98/110
f 85/98/110 86/99/111 83/95/107
f 74/85/97 86/99/111 73/84/96
f 73/84/96 86/99/111 87/100/112
f 60/69/81 57/66/78 71/82/94
f 71/82/94 57/66/78 74/85/97
f 88/101/113 89/102/114 90/103/115
f 89/102/114 88/101/113 91/104/116
f 92/105/117 88/101/113 93/106/118
f 94/107/119 93/106/118 88/101/113
f 95/108/120 94/109/121 88/101/113
f 90/103/115 96/110/122 88/101/113
f 96/110/122 97/111/123 88/101/113
f 75/86/98 72/83/95 98/112/124
f 98/112/124 72/83/95 99/113/125
f 98/112/124 99/113/125 91/104/116
f 91/104/116 99/113/125 89/102/114
f 79/90/102 78/89/101 100/114/126
f 100/114/126 78/89/101 101/115/127
f 98/112/124 101/115/127 75/86/98
f 75/86/98 101/115/127 78/89/101
f 91/104/116 92/105/117 98/112/124
f 98/112/124 92/105/117 101/115/127
f 100/114/126 101/115/127 93/106/118
f 93/106/118 101/115/127 92/105/117
f 81/92/104 79/90/102 102/116/128
f 102/116/128 79/90/102 100/114/126
f 102/116/128 100/114/126 94/107/119
f 94/107/119 100/114/126 93/106/118
f 81/96/108 102/117/129 84/97/109
f 84/97/109 102/117/129 103/118/130
f 84/97/109 103/118/130 85/98/110
f 85/98/110 103/118/130 104/119/131
f 95/108/120 103/118/130 94/109/121
f 94/109/121 103/118/130 102/117/129
f 97/111/123 104/119/131 95/108/120
f 95/108/120 104/119/131 103/118/130
f 87/100/112 105/120/132 73/84/96
f 73/84/96 105/120/132 106/121/133
f 105/120/132 87/100/112 104/119/131
f 104/119/131 87/100/112 85/98/110
f 96/110/122 105/120/132 97/111/123
f 97/111/123 105/120/132 104/119/131
f 90/103/115 106/121/133 96/110/122
f 96/110/122 106/121/133 105/120/132
f 72/83/95 73/84/96 99/113/125
f 99/113/125 73/84/96 106/121/133
f 106/121/133 90/103/115 99/113/125
f 99/113/125 90/103/115 89/102/114
f 92/105/117 91/104/116 88/101/113
f 88/101/113 97/111/123 95/108/120
f 14/14/50 42/47/52 18/18/65
f 36/41/42 28/31/45 51/59/68
f 51/59/68 28/31/45 44/49/70
s off
g Knife_HandleSG
v -1.38188 -0.061765 0.2008
v -1.38694 -0.035703 0.225654
v -1.41633 -0.05485 0.191522
v -1.42962 -0.035346 0.204101
v -1.33258 -0.061616 0.209805
v -1.33647 -0.035822 0.239439
v -1.33965 -0.001488 0.24898
v -1.39265 -0.001191 0.234335
v -1.43802 -0.000655 0.211184
v -1.27585 -0.060932 0.215227
v -1.27938 -0.035227 0.246627
v -1.18023 -0.034274 0.253232
v -1.17687 -0.05998 0.221279
v -1.28174 -0.000953 0.256669
v -1.18247 0 0.263666
v -1.33647 0.032726 0.239439
v -1.27938 0.033321 0.246627
v -1.18023 0.034274 0.253232
v -1.27585 0.059027 0.216646
v -1.17687 0.059979 0.222698
v -1.33258 0.058342 0.211047
v -1.42962 0.033202 0.204101
v -1.38694 0.032845 0.225654
v -1.38188 0.058193 0.201509
v -1.41633 0.05178 0.191837
v -1.38812 0.058193 -0.014194
v -1.39213 0.032845 -0.041708
v -1.42374 0.05178 -0.005243
v -1.4362 0.033202 -0.020734
v -1.33914 0.058342 -0.013378
v -1.34358 0.032726 -0.042893
v -1.34662 -0.001488 -0.052418
v -1.39701 -0.001191 -0.051506
v -1.44326 -0.000655 -0.029537
v -1.28928 0.059027 0.00878
v -1.29497 0.033321 -0.016932
v -1.1939 0.034274 0.026799
v -1.18867 0.059979 0.045063
v -1.29749 -0.000953 -0.025088
v -1.19627 0 0.020839
v -1.34358 -0.035822 -0.042893
v -1.29497 -0.035227 -0.016932
v -1.1939 -0.034274 0.026799
v -1.28928 -0.060932 0.00736
v -1.18867 -0.05998 0.043644
v -1.33914 -0.061616 -0.01462
v -1.4362 -0.035346 -0.020734
v -1.39213 -0.035703 -0.041708
v -1.38812 -0.061765 -0.014903
v -1.42374 -0.05485 -0.005559
v -1.39562 -0.070453 0.026323
v -1.44387 -0.061646 0.022452
v -1.33798 -0.070215 0.032105
v -1.41083 -0.070453 0.067793
v -1.34568 -0.070301 0.093463
v -1.46312 -0.061646 0.060297
v -1.2823 -0.0695 0.047612
v -1.18246 -0.068548 0.070336
v -1.17743 -0.068548 0.11035
v -1.27657 -0.0695 0.100123
v -0.402662 0.016544 0.134975
v -0.402697 0.016539 0.090459
v -0.423567 0.038859 0.134723
v -0.423616 0.038851 0.089812
v -0.395739 -3e-06 0.134446
v -0.395758 -2e-06 0.089966
v -0.407055 -1e-06 0.052006
v -0.413761 0.017969 0.053017
v -0.429363 0.036869 0.062051
v -1.47139 -0.035227 0.012673
v -1.47996 -0.000476 0.006308
v -1.49324 -0.035227 0.053185
v -1.50276 -0.000476 0.049725
v -1.47139 0.033321 0.012673
v -1.49324 0.033321 0.053185
v -1.46312 0.058312 0.06142
v -1.44387 0.058312 0.023162
v -1.07419 -0.068548 0.112713
v -1.07419 -0.068548 0.070011
v -0.972532 -0.068548 0.113788
v -0.972532 -0.068548 0.06538
v -1.07492 -0.05998 0.04079
v -0.972769 -0.05998 0.03005
v -1.07857 0 0.016403
v -1.07711 -0.034274 0.022679
v -1.07711 0.034274 0.022679
v -1.07492 0.059979 0.042209
v -0.972769 0.059979 0.031469
v -0.973476 0.034274 0.008556
v -0.973949 0 0.001267
v -0.973476 -0.034274 0.008556
v -1.18246 0.068547 0.076013
v -1.07419 0.068547 0.075687
v -1.17743 0.068547 0.118864
v -1.07419 0.068547 0.121227
v -0.972532 0.068547 0.122302
v -0.972532 0.068547 0.071056
v -1.07861 0 0.268906
v -1.07713 0.034274 0.258516
v -1.07493 0.059979 0.227733
v -1.07713 -0.034274 0.258516
v -1.07493 -0.05998 0.226314
v -0.973499 -0.034274 0.261999
v -0.972775 -0.05998 0.229827
v -0.973984 0 0.2723
v -0.973499 0.034274 0.261999
v -0.972775 0.059979 0.231246
v -0.884956 -0.068548 0.062801
v -0.884766 -0.05998 0.023381
v -0.884954 -0.068548 0.114763
v -0.884766 0.059979 0.0248
v -0.884199 0.034274 -0.000336
v -0.88382 0 -0.008268
v -0.884199 -0.034274 -0.000336
v -0.884954 0.068547 0.123278
v -0.884954 0.068547 0.068478
v -0.884766 -0.05998 0.230778
v -0.884199 -0.034274 0.262733
v -0.88382 0 0.273032
v -0.884199 0.034274 0.262733
v -0.884766 0.059979 0.232197
v -0.592911 -0.068548 0.121326
v -0.738775 -0.071208 0.117285
v -0.592911 -0.068548 0.071742
v -0.738724 -0.071205 0.064475
v -0.73761 -0.062303 0.022737
v -0.590876 -0.05998 0.032026
v -0.734219 -0.035595 -0.00256
v -0.73192 0 -0.01109
v -0.737617 0.062303 0.024305
v -0.734219 0.035594 -0.00256
v -0.590876 0.059979 0.033603
v -0.584766 0.034274 0.009057
v -0.580694 0 0.00176
v -0.584766 -0.034274 0.009057
v -0.738745 0.071209 0.070753
v -0.738789 0.071212 0.126705
v -0.592911 0.068547 0.078048
v -0.592911 0.068547 0.130786
v -0.734215 0.035607 0.258206
v -0.731909 0 0.268719
v -0.737638 0.06232 0.228651
v -0.737644 -0.062321 0.227081
v -0.734215 -0.035608 0.258206
v -0.590876 -0.05998 0.219024
v -0.584766 -0.034274 0.246252
v -0.580694 0 0.255392
v -0.584766 0.034274 0.246252
v -0.590876 0.059979 0.2206
v -0.458586 -0.054481 0.126855
v -0.45863 -0.054471 0.082571
v -0.455723 -0.047641 0.048082
v -0.455729 0.047639 0.049276
v -0.446814 0.027218 0.032154
v -0.440857 0 0.028831
v -0.446814 -0.027219 0.032154
v -0.458652 0.054462 0.087347
v -0.458618 0.054468 0.134019
v -0.45574 -0.047601 0.20896
v -0.446825 -0.027192 0.227674
v -0.440863 0 0.232513
v -0.446825 0.027191 0.227674
v -0.455744 0.047598 0.210154
v -0.423584 -0.038864 0.086813
v -0.429348 -0.036875 0.060718
v -0.423517 -0.038878 0.130223
v -0.413755 -0.017972 0.052655
v -0.429367 -0.03683 0.199301
v -0.413773 -0.017939 0.209785
v -0.407063 -1e-06 0.211944
v -0.413778 0.017936 0.210146
v -0.42938 0.036824 0.200634
v -1.41083 0.066643 0.072287
v -1.39562 0.066643 0.029161
v -1.34568 0.066795 0.101561
v -1.33798 0.066881 0.037072
v -1.2823 0.067595 0.053288
v -1.27657 0.067595 0.108638
v -0.402674 -0.016547 0.089014
v -0.40263 -0.016555 0.132809
v -1.38955 0.066643 0.163801
v -1.4352 0.058312 0.166789
v -1.33362 0.066881 0.164033
v -1.40666 0.066643 0.125383
v -1.45644 0.058312 0.132417
v -1.27467 0.067595 0.16687
v -1.17576 0.068547 0.172834
v -1.07419 0.068547 0.17694
v -0.972532 0.068547 0.18019
v -0.884954 0.068547 0.181781
v -0.738791 0.071218 0.182076
v -0.592911 0.068547 0.180207
v -0.458662 0.054435 0.176945
v -0.423634 0.03881 0.176547
v -0.402706 0.016517 0.177058
v -0.395763 -2e-06 0.17718
v -0.423599 -0.038823 0.173548
v -0.402685 -0.016525 0.175613
v -0.458641 -0.054444 0.172169
v -0.592911 -0.068548 0.173901
v -0.738796 -0.071218 0.175795
v -0.884956 -0.068548 0.176105
v -0.972532 -0.068548 0.174514
v -1.07419 -0.068548 0.171264
v -1.17576 -0.068548 0.167158
v -1.33362 -0.070215 0.159066
v -1.27467 -0.0695 0.161194
v -1.45644 -0.061646 0.131293
v -1.40666 -0.070453 0.12089
v -1.4352 -0.061646 0.16608
v -1.38955 -0.070453 0.160963
v -1.49647 -0.000476 0.137967
v -1.48642 -0.035227 0.136594
v -1.473 -0.000476 0.177976
v -1.46332 -0.035227 0.173608
v -1.48642 0.033321 0.136594
v -1.46332 0.033321 0.173608
v -1.42993 0.066643 0.099112
v -1.47047 0.058312 0.09744
v -1.49733 0.033321 0.095471
v -1.50733 -0.000476 0.094414
v -1.49733 -0.035227 0.095471
v -1.47047 -0.061646 0.096494
v -1.42993 -0.070453 0.095327
vn -0.134743 -0.891226 0.433083
vn -0.293735 -0.492419 0.819294
vn -0.330362 -0.801031 0.49921
vn -0.50474 -0.45602 0.732996
vn -0.049415 -0.914992 0.400435
vn -0.148778 -0.539373 0.82882
vn -0.195931 -0.001342 0.980617
vn -0.360464 -0.000458 0.932773
vn -0.574617 0.000583 0.818422
vn -0.018975 -0.926739 0.375226
vn -0.065319 -0.56654 0.821441
vn -0.044942 -0.575418 0.816623
vn -0.016373 -0.928772 0.370291
vn -0.091154 -0.00052 0.995837
vn -0.059667 0.000864 0.998218
vn -0.15679 0.52913 0.833929
vn -0.077362 0.553729 0.829095
vn -0.050777 0.563774 0.824367
vn -0.040046 0.917248 0.396299
vn -0.026041 0.919897 0.391294
vn -0.068714 0.905703 0.418307
vn -0.499107 0.462418 0.732845
vn -0.29214 0.490487 0.821022
vn -0.141396 0.885314 0.442975
vn -0.323359 0.804273 0.498582
vn -0.080902 0.902105 -0.423864
vn -0.17603 0.513998 -0.839535
vn -0.302092 0.838569 -0.453367
vn -0.490334 0.496401 -0.716352
vn 0.109499 0.89188 -0.438817
vn 0.210925 0.478608 -0.852317
vn 0.227353 -0.001175 -0.973812
vn -0.240977 -0.000622 -0.970531
vn -0.570686 0.000585 -0.821168
vn 0.187178 0.848462 -0.495053
vn 0.381397 0.385505 -0.840192
vn 0.164957 0.394953 -0.903771
vn 0.068255 0.853346 -0.516858
vn 0.433773 -0.000199 -0.901022
vn 0.19629 0.000419 -0.980546
vn 0.21415 -0.466378 -0.858273
vn 0.391018 -0.368058 -0.843586
vn 0.170727 -0.37376 -0.911677
vn 0.218591 -0.820407 -0.528347
vn 0.0844 -0.822528 -0.562427
vn 0.125202 -0.876534 -0.464771
vn -0.499458 -0.480648 -0.720777
vn -0.183411 -0.501196 -0.845673
vn -0.088838 -0.890032 -0.447158
vn -0.322988 -0.818338 -0.475396
vn -0.058523 -0.992427 -0.107994
vn -0.355294 -0.895736 -0.267252
vn 0.02717 -0.996004 -0.085071
vn -0.061391 -0.997747 -0.027057
vn 0.007558 -0.999971 -0.000353
vn -0.423598 -0.892891 -0.152675
vn 0.042757 -0.993672 -0.103861
vn 0.015863 -0.993701 -0.110934
vn 0.004768 -0.999989 -0.000302
vn 0.010664 -0.999943 -0.000658
vn 0.812887 0.582422 0.000286
vn 0.82032 0.563786 -0.096019
vn 0.559723 0.82868 0.000398
vn 0.566699 0.821386 -0.064634
vn 0.999999 0.00115 0.000167
vn 0.991604 0.005201 -0.129208
vn 0.80673 0.007146 -0.590877
vn 0.707523 0.483666 -0.515246
vn 0.552375 0.783315 -0.28513
vn -0.693145 -0.509209 -0.510152
vn -0.795882 0.000229 -0.605452
vn -0.814212 -0.520022 -0.258141
vn -0.954032 -0.00014 -0.299704
vn -0.683784 0.527242 -0.504435
vn -0.803846 0.537121 -0.255603
vn -0.397635 0.90648 -0.142059
vn -0.333146 0.908857 -0.250983
vn 0 -1 0
vn -0.005046 -0.993262 -0.115783
vn -0.006797 -0.994511 -0.104408
vn -0.03798 -0.819512 -0.571803
vn -0.050351 -0.849032 -0.525937
vn -0.084277 -3e-06 -0.996442
vn -0.07377 -0.387945 -0.918725
vn -0.073171 0.406408 -0.910757
vn -0.035135 0.847555 -0.529544
vn -0.046908 0.870543 -0.489851
vn -0.102938 0.44084 -0.891664
vn -0.121949 -2e-06 -0.992536
vn -0.103885 -0.423872 -0.899745
vn 0.005218 0.994987 -0.099864
vn -0.0046 0.994386 -0.105712
vn -0.004756 0.999989 0.000303
vn 0 1 -1e-06
vn 0 1 0
vn -0.006262 0.995344 -0.096188
vn -0.042041 2e-06 0.999116
vn -0.034617 0.56427 0.824864
vn -0.016085 0.920759 0.389801
vn -0.034238 -0.57722 0.81587
vn -0.01519 -0.929694 0.368018
vn -0.017964 -0.575482 0.817617
vn -0.008509 -0.929602 0.368466
vn -0.021572 1e-06 0.999767
vn -0.018163 0.562502 0.826596
vn -0.009009 0.92068 0.390215
vn -0.012916 -0.995255 -0.096444
vn -0.025063 -0.873044 -0.486998
vn -0.011422 -0.999935 -4e-05
vn -0.023892 0.890268 -0.454809
vn -0.04175 0.476046 -0.878429
vn -0.048359 0 -0.99883
vn -0.042116 -0.459734 -0.887057
vn -0.011442 0.999935 -2.7e-05
vn -0.012657 0.995912 -0.089443
vn -0.004422 -0.924743 0.380568
vn 0.008566 -0.566338 0.824129
vn 0.014738 -0 0.999891
vn 0.008705 0.552862 0.833227
vn -0.004281 0.914775 0.40394
vn 0.057324 -0.998356 3.3e-05
vn -0.00048 -1 -6.1e-05
vn 0.061798 -0.993843 -0.091959
vn 0.002593 -0.995449 -0.095256
vn 0.013602 -0.878471 -0.477603
vn 0.084712 -0.879459 -0.468375
vn 0.027738 -0.467298 -0.883665
vn 0.03396 2e-06 -0.999423
vn 0.012953 0.895342 -0.445192
vn 0.02753 0.483961 -0.874657
vn 0.082106 0.896382 -0.435612
vn 0.116067 0.471985 -0.873933
vn 0.130366 2e-06 -0.991466
vn 0.11674 -0.45458 -0.883023
vn 0.002549 0.996126 -0.087896
vn -0.000467 1 -4.3e-05
vn 0.061073 0.994545 -0.084558
vn 0.057421 0.99835 4e-05
vn 0.044109 0.537176 0.842316
vn 0.057337 -1e-06 0.998355
vn 0.016307 0.905429 0.424186
vn 0.015511 -0.917492 0.397453
vn 0.043695 -0.551756 0.83286
vn 0.071156 -0.907506 0.413968
vn 0.101727 -0.522995 0.846244
vn 0.117822 -4e-06 0.993035
vn 0.102315 0.507081 0.855804
vn 0.072939 0.892995 0.444117
vn 0.168307 -0.985735 0.000198
vn 0.164825 -0.982914 -0.081934
vn 0.1871 -0.864267 -0.466943
vn 0.183061 0.881511 -0.435233
vn 0.2381 0.437194 -0.867277
vn 0.263591 0.000823 -0.964634
vn 0.238247 -0.420269 -0.875564
vn 0.16327 0.983658 -0.075889
vn 0.168514 0.985699 0.000201
vn 0.162653 -0.887105 0.431959
vn 0.203102 -0.479447 0.853745
vn 0.227807 -0.000813 0.973706
vn 0.202973 0.463563 0.862503
vn 0.165265 0.870912 0.462818
vn 0.569449 -0.819188 -0.068249
vn 0.556634 -0.773007 -0.304331
vn 0.559712 -0.828687 0.000398
vn 0.708181 -0.46946 -0.52734
vn 0.530783 -0.792034 0.301581
vn 0.672975 -0.50617 0.539348
vn 0.77181 -0.007271 0.635812
vn 0.672826 0.49236 0.552166
vn 0.533748 0.782142 0.321508
vn -0.059253 0.997949 -0.024242
vn -0.056296 0.99341 -0.099839
vn -0.007577 0.999971 0.00035
vn 0.010649 0.996918 -0.077722
vn 0.018268 0.995476 -0.093236
vn -0.010661 0.999943 0.000659
vn 0.823493 -0.558512 -0.099618
vn 0.813473 -0.581602 0.000314
vn -0.065057 0.992012 0.108074
vn -0.342871 0.893602 0.289679
vn -0.014776 0.996924 0.076969
vn -0.060265 0.997655 0.032445
vn -0.403481 0.891572 0.205676
vn -0.015522 0.996875 0.077462
vn -0.00894 0.99665 0.081298
vn -0.003144 0.996761 0.080354
vn -0.001957 0.996839 0.079421
vn -0.010782 0.996618 0.08146
vn 0.000977 0.99623 0.086748
vn 0.057757 0.994248 0.090191
vn 0.160269 0.983351 0.085644
vn 0.566338 0.821034 0.071864
vn 0.818811 0.564087 0.106562
vn 0.98974 -0.004491 0.142812
vn 0.563585 -0.823202 0.068631
vn 0.816315 -0.568302 0.103258
vn 0.158829 -0.98411 0.079384
vn 0.057288 -0.994893 0.083107
vn 0.001047 -0.996752 0.080532
vn -0.010674 -0.997023 0.076365
vn -0.001837 -0.997215 0.074558
vn -0.002949 -0.997152 0.075363
vn 0.000628 -0.997093 0.076193
vn 0.003618 -0.997407 0.071869
vn 0.005963 -0.997371 0.072215
vn -0.411811 -0.887155 0.20825
vn -0.05774 -0.997805 0.032421
vn -0.350711 -0.889745 0.292157
vn -0.060465 -0.992544 0.105831
vn -0.923704 -0.0001 0.383107
vn -0.789253 -0.50704 0.346396
vn -0.777794 0.000254 0.628519
vn -0.67812 -0.493291 0.544809
vn -0.783939 0.517317 0.343253
vn -0.672993 0.502566 0.542685
vn -0.10828 0.994051 0.011725
vn -0.463773 0.884923 0.042718
vn -0.848652 0.524874 0.065556
vn -0.997511 -0.000116 0.070508
vn -0.856712 -0.511358 0.067508
vn -0.482527 -0.874718 0.045116
vn -0.112376 -0.993607 0.010768
vt 0.255303 0.873009
vt 0.283374 0.880073
vt 0.249828 0.900322
vt 0.265859 0.914898
vt 0.262206 0.833959
vt 0.294667 0.838038
vt 0.325172 0.845112
vt 0.311442 0.893529
vt 0.289189 0.934736
vt 0.265413 0.786732
vt 0.300317 0.789119
vt 0.30246 0.701918
vt 0.265992 0.70066
vt 0.331772 0.792265
vt 0.334475 0.70351
vt 0.666789 0.153862
vt 0.672126 0.21116
vt 0.631918 0.162966
vt 0.638999 0.214728
vt 0.673661 0.302916
vt 0.640896 0.304651
vt 0.603626 0.217784
vt 0.60471 0.30624
vt 0.599261 0.168339
vt 0.621227 0.063307
vt 0.64731 0.103389
vt 0.598512 0.084435
vt 0.618813 0.118994
vt 0.590671 0.127529
vt 0.583826 0.099394
vt 0.425236 0.110365
vt 0.399323 0.100916
vt 0.434339 0.084879
vt 0.42022 0.070431
vt 0.418821 0.146194
vt 0.39048 0.136591
vt 0.362118 0.130002
vt 0.373984 0.087169
vt 0.399498 0.050492
vt 0.426889 0.189162
vt 0.396648 0.18059
vt 0.413651 0.277554
vt 0.442933 0.283633
vt 0.366055 0.179648
vt 0.382144 0.275877
vt 0.035172 0.877958
vt 0.036425 0.829508
vt 0.062538 0.870599
vt 0.066225 0.82766
vt 0.047681 0.734661
vt 0.078717 0.732117
vt 0.094687 0.818803
vt 0.106818 0.725601
vt 0.088993 0.860624
vt 0.073356 0.954216
vt 0.047889 0.919174
vt 0.093111 0.93373
vt 0.072201 0.904772
vt 0.09679 0.894712
vt 0.106422 0.919014
vt 0.126737 0.89427
vt 0.129007 0.928529
vt 0.123243 0.85184
vt 0.157701 0.900898
vt 0.17053 0.850429
vt 0.156615 0.938472
vt 0.126849 0.806078
vt 0.131906 0.717099
vt 0.167483 0.708845
vt 0.168938 0.794858
vt 0.479322 0.976108
vt 0.438131 0.970224
vt 0.481177 0.948551
vt 0.443099 0.943877
vt 0.477508 0.993495
vt 0.433296 0.986855
vt 0.396893 0.968175
vt 0.406845 0.953206
vt 0.420798 0.936298
vt 0.121351 0.955235
vt 0.107898 0.980097
vt 0.152662 0.966882
vt 0.14679 0.994421
vt 0.434332 0.022812
vt 0.448694 0.047344
vt 0.473831 0.006894
vt 0.480569 0.034311
vt 0.486262 0.062932
vt 0.45761 0.074135
vt 0.162594 0.616122
vt 0.124203 0.618757
vt 0.157892 0.525178
vt 0.114936 0.52773
vt 0.09669 0.621235
vt 0.082667 0.529654
vt 0.037402 0.630503
vt 0.068408 0.625649
vt 0.406063 0.384929
vt 0.435203 0.388715
vt 0.374977 0.380865
vt 0.422852 0.480035
vt 0.392586 0.477672
vt 0.361812 0.474067
vt 0.052961 0.532538
vt 0.021867 0.536765
vt 0.472223 0.291964
vt 0.466483 0.390865
vt 0.510891 0.299678
vt 0.507524 0.393089
vt 0.503769 0.483935
vt 0.458538 0.481664
vt 0.672734 0.398168
vt 0.640135 0.398315
vt 0.60386 0.398308
vt 0.301557 0.609592
vt 0.264607 0.609727
vt 0.333831 0.609809
vt 0.298262 0.516422
vt 0.261487 0.518296
vt 0.33048 0.514941
vt 0.668858 0.493458
vt 0.636637 0.491819
vt 0.600858 0.489968
vt 0.108392 0.450473
vt 0.073059 0.452234
vt 0.153945 0.447727
vt 0.414306 0.556575
vt 0.383255 0.555416
vt 0.352744 0.553611
vt 0.042384 0.453679
vt 0.011352 0.455828
vt 0.500296 0.560818
vt 0.452777 0.558201
vt 0.256516 0.440149
vt 0.292701 0.436732
vt 0.324452 0.433489
vt 0.630748 0.571176
vt 0.66222 0.57455
vt 0.595821 0.567766
vt 0.14198 0.197267
vt 0.147698 0.320776
vt 0.100746 0.200329
vt 0.102631 0.323688
vt 0.066189 0.324788
vt 0.066864 0.200444
vt 0.034548 0.323178
vt 0.002684 0.321866
vt 0.408433 0.681955
vt 0.376475 0.683679
vt 0.345251 0.685176
vt 0.409701 0.803658
vt 0.380604 0.808945
vt 0.351702 0.814764
vt 0.037951 0.195073
vt 0.008278 0.189302
vt 0.448109 0.683087
vt 0.495053 0.686073
vt 0.446563 0.803904
vt 0.489413 0.807064
vt 0.614999 0.700679
vt 0.646442 0.707116
vt 0.58154 0.694148
vt 0.242252 0.312219
vt 0.277286 0.305633
vt 0.309257 0.299293
vt 0.223939 0.188204
vt 0.254539 0.178381
vt 0.28368 0.168439
vt 0.591984 0.825258
vt 0.620397 0.835164
vt 0.563096 0.81557
vt 0.13738 0.084845
vt 0.100899 0.088415
vt 0.072609 0.087873
vt 0.415501 0.913096
vt 0.395378 0.92206
vt 0.374441 0.932571
vt 0.052492 0.07864
vt 0.030819 0.067969
vt 0.445762 0.912725
vt 0.48312 0.916237
vt 0.204867 0.076812
vt 0.225148 0.064537
vt 0.245653 0.051238
vt 0.562568 0.935954
vt 0.58242 0.949089
vt 0.543662 0.923859
vt 0.099298 0.056189
vt 0.077724 0.063932
vt 0.137392 0.051165
vt 0.063858 0.046373
vt 0.05355 0.030826
vt 0.197947 0.053919
vt 0.210751 0.034657
vt 0.219809 0.018331
vt 0.548361 0.964797
vt 0.556733 0.980832
vt 0.536963 0.945926
vt 0.491088 0.102093
vt 0.457939 0.109982
vt 0.509114 0.154308
vt 0.457525 0.154442
vt 0.463808 0.201613
vt 0.509849 0.211852
vt 0.091437 0.010925
vt 0.095214 0.028627
vt 0.137807 0.003968
vt 0.137486 0.0223
vt 0.560089 0.121923
vt 0.562938 0.08628
vt 0.559261 0.167022
vt 0.530824 0.107827
vt 0.537456 0.070069
vt 0.559537 0.21705
vt 0.559269 0.304571
vt 0.557556 0.396086
vt 0.554948 0.487046
vt 0.551185 0.564214
vt 0.541614 0.689641
vt 0.529631 0.81039
vt 0.517521 0.918684
vt 0.516794 0.949717
vt 0.518692 0.976338
vt 0.520672 0.993557
vt 0.175691 0.049853
vt 0.179134 0.022215
vt 0.182878 0.004542
vt 0.174942 0.082177
vt 0.185797 0.193729
vt 0.197719 0.317016
vt 0.207798 0.444013
vt 0.211759 0.521602
vt 0.214901 0.612455
vt 0.217627 0.702998
vt 0.220834 0.836422
vt 0.219315 0.788359
vt 0.205715 0.930154
vt 0.195666 0.894109
vt 0.230015 0.913687
vt 0.224541 0.879496
vt 0.223135 0.986173
vt 0.21355 0.958623
vt 0.258582 0.965675
vt 0.241596 0.940943
vt 0.54353 0.041029
vt 0.57284 0.058392
vt 0.552272 0.013235
vt 0.588964 0.033174
vt 0.511955 0.089484
vt 0.512306 0.059543
vt 0.512248 0.032698
vt 0.513337 0.004156
vt 0.185337 0.996032
vt 0.183408 0.967562
vt 0.181889 0.940973
vt 0.178666 0.912286
usemtl HandleSG
f 107/122/134 108/123/135 109/124/136
f 109/124/136 108/123/135 110/125/137
f 107/122/134 111/126/138 108/123/135
f 108/123/135 111/126/138 112/127/139
f 112/127/139 113/128/140 108/123/135
f 108/123/135 113/128/140 114/129/141
f 108/123/135 114/129/141 110/125/137
f 110/125/137 114/129/141 115/130/142
f 116/131/143 117/132/144 111/126/138
f 111/126/138 117/132/144 112/127/139
f 117/132/144 116/131/143 118/133/145
f 118/133/145 116/131/143 119/134/146
f 120/135/147 117/132/144 121/136/148
f 121/136/148 117/132/144 118/133/145
f 117/132/144 120/135/147 112/127/139
f 112/127/139 120/135/147 113/128/140
f 113/137/140 120/138/147 122/139/149
f 122/139/149 120/138/147 123/140/150
f 120/138/147 121/141/148 123/140/150
f 123/140/150 121/141/148 124/142/151
f 123/140/150 124/142/151 125/143/152
f 125/143/152 124/142/151 126/144/153
f 122/139/149 123/140/150 127/145/154
f 127/145/154 123/140/150 125/143/152
f 115/146/142 114/147/141 128/148/155
f 128/148/155 114/147/141 129/149/156
f 114/147/141 113/137/140 129/149/156
f 129/149/156 113/137/140 122/139/149
f 122/139/149 127/145/154 129/149/156
f 129/149/156 127/145/154 130/150/157
f 128/148/155 129/149/156 131/151/158
f 131/151/158 129/149/156 130/150/157
f 132/152/159 133/153/160 134/154/161
f 134/154/161 133/153/160 135/155/162
f 136/156/163 137/157/164 132/152/159
f 132/152/159 137/157/164 133/153/160
f 137/157/164 138/158/165 133/153/160
f 133/153/160 138/158/165 139/159/166
f 133/153/160 139/159/166 135/155/162
f 135/155/162 139/159/166 140/160/167
f 141/161/168 142/162/169 136/156/163
f 136/156/163 142/162/169 137/157/164
f 142/162/169 141/161/168 143/163/170
f 143/163/170 141/161/168 144/164/171
f 145/165/172 142/162/169 146/166/173
f 146/166/173 142/162/169 143/163/170
f 142/162/169 145/165/172 137/157/164
f 137/157/164 145/165/172 138/158/165
f 138/167/165 145/168/172 147/169/174
f 147/169/174 145/168/172 148/170/175
f 145/168/172 146/171/173 148/170/175
f 148/170/175 146/171/173 149/172/176
f 148/170/175 149/172/176 150/173/177
f 150/173/177 149/172/176 151/174/178
f 147/169/174 148/170/175 152/175/179
f 152/175/179 148/170/175 150/173/177
f 140/176/167 139/177/166 153/178/180
f 153/178/180 139/177/166 154/179/181
f 139/177/166 138/167/165 154/179/181
f 154/179/181 138/167/165 147/169/174
f 154/179/181 147/169/174 155/180/182
f 155/180/182 147/169/174 152/175/179
f 153/178/180 154/179/181 156/181/183
f 156/181/183 154/179/181 155/180/182
f 155/180/182 157/182/184 156/181/183
f 156/181/183 157/182/184 158/183/185
f 152/175/179 159/184/186 155/180/182
f 155/180/182 159/184/186 157/182/184
f 157/182/184 159/184/186 160/185/187
f 160/185/187 159/184/186 161/186/188
f 157/182/184 160/185/187 158/183/185
f 158/183/185 160/185/187 162/187/189
f 152/175/179 150/173/177 159/184/186
f 159/184/186 150/173/177 163/188/190
f 150/173/177 151/174/178 163/188/190
f 163/188/190 151/174/178 164/189/191
f 165/190/192 166/191/193 164/189/191
f 164/189/191 166/191/193 163/188/190
f 159/184/186 163/188/190 161/186/188
f 161/186/188 163/188/190 166/191/193
f 167/192/194 168/193/195 169/194/196
f 169/194/196 168/193/195 170/195/197
f 167/192/194 171/196/198 168/193/195
f 168/193/195 171/196/198 172/197/199
f 172/197/199 173/198/200 168/193/195
f 168/193/195 173/198/200 174/199/201
f 168/193/195 174/199/201 170/195/197
f 170/195/197 174/199/201 175/200/202
f 153/178/180 176/201/203 140/176/167
f 140/176/167 176/201/203 177/202/204
f 156/181/183 158/183/185 153/178/180
f 153/178/180 158/183/185 176/201/203
f 158/183/185 162/187/189 176/201/203
f 176/201/203 162/187/189 178/203/205
f 177/202/204 176/201/203 179/204/206
f 179/204/206 176/201/203 178/203/205
f 177/205/204 180/206/207 140/160/167
f 140/160/167 180/206/207 135/155/162
f 177/205/204 179/207/206 180/206/207
f 180/206/207 179/207/206 181/208/208
f 181/208/208 182/209/209 180/206/207
f 180/206/207 182/209/209 183/210/210
f 180/206/207 183/210/210 135/155/162
f 135/155/162 183/210/210 134/154/161
f 184/211/211 185/212/212 186/213/211
f 186/213/211 185/212/212 187/214/213
f 185/212/212 188/215/214 187/214/213
f 187/214/213 188/215/214 189/216/215
f 146/171/173 190/217/216 149/172/176
f 149/172/176 190/217/216 191/218/217
f 149/172/176 191/218/217 151/174/178
f 151/174/178 191/218/217 188/215/214
f 143/163/170 144/164/171 192/219/218
f 192/219/218 144/164/171 193/220/219
f 146/166/173 143/163/170 190/221/216
f 190/221/216 143/163/170 192/219/218
f 193/220/219 194/222/220 192/219/218
f 192/219/218 194/222/220 195/223/221
f 190/221/216 192/219/218 196/224/222
f 196/224/222 192/219/218 195/223/221
f 191/218/217 190/217/216 197/225/223
f 197/225/223 190/217/216 196/226/222
f 188/215/214 191/218/217 189/216/215
f 189/216/215 191/218/217 197/225/223
f 144/164/171 198/227/224 193/220/219
f 193/220/219 198/227/224 199/228/225
f 198/227/224 200/229/226 199/228/225
f 199/228/225 200/229/226 201/230/227
f 201/230/227 202/231/228 199/228/225
f 199/228/225 202/231/228 203/232/229
f 199/228/225 203/232/229 193/220/219
f 193/220/219 203/232/229 194/222/220
f 121/141/148 204/233/230 124/142/151
f 124/142/151 204/233/230 205/234/231
f 124/142/151 205/234/231 126/144/153
f 126/144/153 205/234/231 206/235/232
f 118/133/145 119/134/146 207/236/233
f 207/236/233 119/134/146 208/237/234
f 121/136/148 118/133/145 204/238/230
f 204/238/230 118/133/145 207/236/233
f 207/236/233 208/237/234 209/239/235
f 209/239/235 208/237/234 210/240/236
f 204/238/230 207/236/233 211/241/237
f 211/241/237 207/236/233 209/239/235
f 204/233/230 211/242/237 205/234/231
f 205/234/231 211/242/237 212/243/238
f 205/234/231 212/243/238 206/235/232
f 206/235/232 212/243/238 213/244/239
f 187/214/213 189/216/215 214/245/240
f 214/245/240 189/216/215 215/246/241
f 186/213/211 187/214/213 216/247/242
f 216/247/242 187/214/213 214/245/240
f 194/222/220 217/248/243 195/223/221
f 195/223/221 217/248/243 218/249/244
f 195/223/221 218/249/244 196/224/222
f 196/224/222 218/249/244 219/250/245
f 197/225/223 196/226/222 220/251/246
f 220/251/246 196/226/222 219/252/245
f 189/216/215 197/225/223 215/246/241
f 215/246/241 197/225/223 220/251/246
f 202/231/228 221/253/247 203/232/229
f 203/232/229 221/253/247 222/254/248
f 203/232/229 222/254/248 194/222/220
f 194/222/220 222/254/248 217/248/243
f 210/240/236 223/255/249 209/239/235
f 209/239/235 223/255/249 224/256/250
f 209/239/235 224/256/250 211/241/237
f 211/241/237 224/256/250 225/257/251
f 212/243/238 211/242/237 226/258/252
f 226/258/252 211/242/237 225/259/251
f 213/244/239 212/243/238 227/260/253
f 227/260/253 212/243/238 226/258/252
f 228/261/254 229/262/255 230/263/256
f 230/263/256 229/262/255 231/264/257
f 232/265/258 233/266/259 231/264/257
f 231/264/257 233/266/259 230/263/256
f 220/251/246 219/252/245 234/267/260
f 234/267/260 219/252/245 235/268/261
f 215/246/241 220/251/246 232/265/258
f 232/265/258 220/251/246 234/267/260
f 217/248/243 236/269/262 218/249/244
f 218/249/244 236/269/262 237/270/263
f 218/249/244 237/270/263 219/250/245
f 219/250/245 237/270/263 235/271/261
f 236/269/262 238/272/264 237/270/263
f 237/270/263 238/272/264 239/273/265
f 237/270/263 239/273/265 235/271/261
f 235/271/261 239/273/265 240/274/266
f 234/267/260 235/268/261 241/275/267
f 241/275/267 235/268/261 240/276/266
f 232/265/258 234/267/260 233/266/259
f 233/266/259 234/267/260 241/275/267
f 222/254/248 242/277/268 217/248/243
f 217/248/243 242/277/268 236/269/262
f 222/254/248 221/253/247 242/277/268
f 242/277/268 221/253/247 243/278/269
f 242/277/268 243/278/269 244/279/270
f 244/279/270 243/278/269 245/280/271
f 236/269/262 242/277/268 238/272/264
f 238/272/264 242/277/268 244/279/270
f 226/258/252 225/259/251 246/281/272
f 246/281/272 225/259/251 247/282/273
f 227/260/253 226/258/252 248/283/274
f 248/283/274 226/258/252 246/281/272
f 223/255/249 249/284/275 224/256/250
f 224/256/250 249/284/275 250/285/276
f 224/256/250 250/285/276 225/257/251
f 225/257/251 250/285/276 247/286/273
f 249/284/275 251/287/277 250/285/276
f 250/285/276 251/287/277 252/288/278
f 250/285/276 252/288/278 247/286/273
f 247/286/273 252/288/278 253/289/279
f 246/281/272 247/282/273 254/290/280
f 254/290/280 247/282/273 253/291/279
f 248/283/274 246/281/272 255/292/281
f 255/292/281 246/281/272 254/290/280
f 256/293/282 228/261/254 257/294/283
f 257/294/283 228/261/254 230/263/256
f 233/266/259 258/295/284 230/263/256
f 230/263/256 258/295/284 257/294/283
f 238/272/264 259/296/285 239/273/265
f 239/273/265 259/296/285 260/297/286
f 239/273/265 260/297/286 240/274/266
f 240/274/266 260/297/286 261/298/287
f 241/275/267 240/276/266 262/299/288
f 262/299/288 240/276/266 261/300/287
f 233/266/259 241/275/267 258/295/284
f 258/295/284 241/275/267 262/299/288
f 244/279/270 245/280/271 263/301/289
f 263/301/289 245/280/271 264/302/290
f 238/272/264 244/279/270 259/296/285
f 259/296/285 244/279/270 263/301/289
f 251/287/277 265/303/291 252/288/278
f 252/288/278 265/303/291 266/304/292
f 252/288/278 266/304/292 253/289/279
f 253/289/279 266/304/292 267/305/293
f 254/290/280 253/291/279 268/306/294
f 268/306/294 253/291/279 267/307/293
f 255/292/281 254/290/280 269/308/295
f 269/308/295 254/290/280 268/306/294
f 270/309/296 257/294/283 271/310/297
f 271/310/297 257/294/283 258/295/284
f 272/311/298 256/293/282 270/309/296
f 270/309/296 256/293/282 257/294/283
f 259/296/285 175/200/202 260/297/286
f 260/297/286 175/200/202 174/199/201
f 260/297/286 174/199/201 261/298/287
f 261/298/287 174/199/201 173/198/200
f 262/299/288 261/300/287 273/312/299
f 273/312/299 261/300/287 173/313/200
f 258/295/284 262/299/288 271/310/297
f 271/310/297 262/299/288 273/312/299
f 263/301/289 264/302/290 170/195/197
f 170/195/197 264/302/290 169/194/196
f 259/296/285 263/301/289 175/200/202
f 175/200/202 263/301/289 170/195/197
f 265/303/291 274/314/300 266/304/292
f 266/304/292 274/314/300 275/315/301
f 266/304/292 275/315/301 267/305/293
f 267/305/293 275/315/301 276/316/302
f 268/306/294 267/307/293 277/317/303
f 277/317/303 267/307/293 276/318/302
f 269/308/295 268/306/294 278/319/304
f 278/319/304 268/306/294 277/317/303
f 182/209/209 279/320/305 183/210/210
f 183/210/210 279/320/305 280/321/306
f 281/322/307 282/323/308 279/320/305
f 279/320/305 282/323/308 280/321/306
f 282/323/308 136/156/163 280/321/306
f 280/321/306 136/156/163 132/152/159
f 183/210/210 280/321/306 134/154/161
f 134/154/161 280/321/306 132/152/159
f 136/156/163 282/323/308 141/161/168
f 141/161/168 282/323/308 283/324/309
f 282/323/308 281/322/307 283/324/309
f 283/324/309 281/322/307 284/325/310
f 283/324/309 284/325/310 198/227/224
f 198/227/224 284/325/310 200/229/226
f 141/161/168 283/324/309 144/164/171
f 144/164/171 283/324/309 198/227/224
f 172/326/199 285/327/311 173/313/200
f 173/313/200 285/327/311 273/312/299
f 171/328/198 286/329/312 172/326/199
f 172/326/199 286/329/312 285/327/311
f 286/329/312 272/311/298 285/327/311
f 285/327/311 272/311/298 270/309/296
f 285/327/311 270/309/296 273/312/299
f 273/312/299 270/309/296 271/310/297
f 214/245/240 215/246/241 231/264/257
f 231/264/257 215/246/241 232/265/258
f 229/262/255 216/247/242 231/264/257
f 231/264/257 216/247/242 214/245/240
f 185/212/212 164/189/191 188/215/214
f 188/215/214 164/189/191 151/174/178
f 184/211/211 165/190/192 185/212/212
f 185/212/212 165/190/192 164/189/191
f 130/150/157 287/330/313 131/151/158
f 131/151/158 287/330/313 288/331/314
f 127/145/154 289/332/315 130/150/157
f 130/150/157 289/332/315 287/330/313
f 289/332/315 281/322/307 287/330/313
f 287/330/313 281/322/307 290/333/316
f 287/330/313 290/333/316 288/331/314
f 288/331/314 290/333/316 291/334/317
f 284/325/310 292/335/318 200/229/226
f 200/229/226 292/335/318 293/336/319
f 281/322/307 289/332/315 284/325/310
f 284/325/310 289/332/315 292/335/318
f 289/332/315 127/145/154 292/335/318
f 292/335/318 127/145/154 125/143/152
f 292/335/318 125/143/152 293/336/319
f 293/336/319 125/143/152 126/144/153
f 200/229/226 293/336/319 201/230/227
f 201/230/227 293/336/319 294/337/320
f 293/336/319 126/144/153 294/337/320
f 294/337/320 126/144/153 206/235/232
f 294/337/320 206/235/232 295/338/321
f 295/338/321 206/235/232 213/244/239
f 201/230/227 294/337/320 202/231/228
f 202/231/228 294/337/320 295/338/321
f 202/231/228 295/338/321 221/253/247
f 221/253/247 295/338/321 296/339/322
f 295/338/321 213/244/239 296/339/322
f 296/339/322 213/244/239 227/260/253
f 221/253/247 296/339/322 243/278/269
f 243/278/269 296/339/322 297/340/323
f 296/339/322 227/260/253 297/340/323
f 297/340/323 227/260/253 248/283/274
f 297/340/323 248/283/274 298/341/324
f 298/341/324 248/283/274 255/292/281
f 243/278/269 297/340/323 245/280/271
f 245/280/271 297/340/323 298/341/324
f 298/341/324 255/292/281 299/342/325
f 299/342/325 255/292/281 269/308/295
f 245/280/271 298/341/324 264/302/290
f 264/302/290 298/341/324 299/342/325
f 264/302/290 299/342/325 169/194/196
f 169/194/196 299/342/325 300/343/326
f 300/343/326 299/342/325 278/319/304
f 278/319/304 299/342/325 269/308/295
f 278/319/304 277/317/303 300/343/326
f 300/343/326 277/317/303 301/344/327
f 277/317/303 276/318/302 301/344/327
f 301/344/327 276/318/302 302/345/328
f 301/344/327 302/345/328 167/192/194
f 167/192/194 302/345/328 171/196/198
f 301/344/327 167/192/194 300/343/326
f 300/343/326 167/192/194 169/194/196
f 272/311/298 286/329/312 303/346/329
f 303/346/329 286/329/312 304/347/330
f 286/329/312 171/328/198 304/347/330
f 304/347/330 171/328/198 302/348/328
f 302/348/328 276/316/302 304/347/330
f 304/347/330 276/316/302 275/315/301
f 303/346/329 304/347/330 274/314/300
f 274/314/300 304/347/330 275/315/301
f 256/293/282 272/311/298 305/349/331
f 305/349/331 272/311/298 303/346/329
f 303/346/329 274/314/300 305/349/331
f 305/349/331 274/314/300 265/303/291
f 305/349/331 306/350/332 256/293/282
f 256/293/282 306/350/332 228/261/254
f 306/350/332 305/349/331 251/287/277
f 251/287/277 305/349/331 265/303/291
f 306/350/332 307/351/333 228/261/254
f 228/261/254 307/351/333 229/262/255
f 307/351/333 306/350/332 249/284/275
f 249/284/275 306/350/332 251/287/277
f 307/351/333 308/352/334 229/262/255
f 229/262/255 308/352/334 216/247/242
f 223/255/249 308/352/334 249/284/275
f 249/284/275 308/352/334 307/351/333
f 308/352/334 309/353/335 216/247/242
f 216/247/242 309/353/335 186/213/211
f 309/353/335 308/352/334 210/240/236
f 210/240/236 308/352/334 223/255/249
f 309/353/335 310/354/336 186/213/211
f 186/213/211 310/354/336 184/211/211
f 310/354/336 309/353/335 208/237/234
f 208/237/234 309/353/335 210/240/236
f 310/354/336 311/355/337 184/211/211
f 184/211/211 311/355/337 165/190/192
f 311/355/337 310/354/336 119/134/146
f 119/134/146 310/354/336 208/237/234
f 161/186/188 166/191/193 312/356/338
f 312/356/338 166/191/193 313/357/339
f 311/355/337 313/357/339 165/190/192
f 165/190/192 313/357/339 166/191/193
f 313/357/339 311/355/337 116/131/143
f 116/131/143 311/355/337 119/134/146
f 312/356/338 313/357/339 111/126/138
f 111/126/138 313/357/339 116/131/143
f 314/358/340 315/359/341 316/360/342
f 316/360/342 315/359/341 317/361/343
f 315/359/341 161/186/188 317/361/343
f 317/361/343 161/186/188 312/356/338
f 317/361/343 312/356/338 107/122/134
f 107/122/134 312/356/338 111/126/138
f 316/360/342 317/361/343 109/124/136
f 109/124/136 317/361/343 107/122/134
f 318/362/344 319/363/345 320/364/346
f 320/364/346 319/363/345 321/365/347
f 319/363/345 314/358/340 321/365/347
f 321/365/347 314/358/340 316/360/342
f 321/365/347 316/360/342 110/125/137
f 110/125/137 316/360/342 109/124/136
f 320/364/346 321/365/347 115/130/142
f 115/130/142 321/365/347 110/125/137
f 322/366/348 323/367/349 291/334/317
f 291/334/317 323/367/349 288/331/314
f 318/368/344 320/369/346 322/366/348
f 322/366/348 320/369/346 323/367/349
f 320/369/346 115/146/142 323/367/349
f 323/367/349 115/146/142 128/148/155
f 323/367/349 128/148/155 288/331/314
f 288/331/314 128/148/155 131/151/158
f 290/333/316 324/370/350 291/334/317
f 291/334/317 324/370/350 325/371/351
f 281/322/307 279/320/305 290/333/316
f 290/333/316 279/320/305 324/370/350
f 325/371/351 324/370/350 182/209/209
f 182/209/209 324/370/350 279/320/305
f 181/208/208 326/372/352 182/209/209
f 182/209/209 326/372/352 325/371/351
f 179/207/206 327/373/353 181/208/208
f 181/208/208 327/373/353 326/372/352
f 327/373/353 318/368/344 326/372/352
f 326/372/352 318/368/344 322/366/348
f 326/372/352 322/366/348 325/371/351
f 325/371/351 322/366/348 291/334/317
f 179/204/206 178/203/205 327/374/353
f 327/374/353 178/203/205 328/375/354
f 162/187/189 329/376/355 178/203/205
f 178/203/205 329/376/355 328/375/354
f 328/375/354 329/376/355 319/363/345
f 319/363/345 329/376/355 314/358/340
f 327/374/353 328/375/354 318/362/344
f 318/362/344 328/375/354 319/363/345
f 160/185/187 330/377/356 162/187/189
f 162/187/189 330/377/356 329/376/355
f 161/186/188 315/359/341 160/185/187
f 160/185/187 315/359/341 330/377/356
f 329/376/355 330/377/356 314/358/340
f 314/358/340 330/377/356 315/359/341
s off
