# Apple ModelIO OBJ File: HeartPlate
mtllib HeartPlate.mtl
g HeartPlate_HeartPlateSG
v -0.934727 -0.094463 -0.298786
v -1.0272 -0.051229 -0.385966
v -0.801081 -0.094463 -0.55045
v -0.892507 -0.051229 -0.634434
v -1.05295 -0.091401 -0.055003
v -1.14453 -0.049547 -0.13631
v -1.19002 0.001074 -0.173782
v -1.07127 0.000653 -0.429171
v -0.936269 0.000654 -0.675631
v -1.12633 -0.082213 0.160321
v -1.21472 -0.044503 0.098217
v -1.14717 -0.069803 0.311096
v -1.21882 -0.04114 0.319003
v -1.26965 0.003175 0.324179
v -1.26455 0.002335 0.079532
v -1.27505 0.052536 0.072004
v -1.19906 0.052536 -0.186367
v -1.28101 0.052536 0.323207
v -1.26844 0.095771 0.317125
v -1.26133 0.095772 0.069082
v -1.1853 0.095772 -0.186575
v -1.0802 0.052537 -0.442563
v -0.945645 0.052536 -0.687241
v -1.06721 0.095772 -0.440279
v -0.93392 0.095771 -0.682463
v -0.704033 0.003015 -0.528691
v -0.825395 0.003016 -0.305716
v -0.579662 -0.012094 -0.417936
v -0.700455 -0.012095 -0.191686
v -0.935729 0.0048 -0.087686
v -0.817312 -0.009856 0.02494
v -0.54187 -0.017584 -0.050312
v -0.672677 -0.014867 0.160751
v -0.41541 -0.018124 -0.277451
v -1.00844 0.010151 0.103814
v -0.908431 -0.003141 0.212187
v -1.03421 0.01738 0.235906
v -0.980026 0.010151 0.350874
v -0.786932 -0.007617 0.340349
v -0.875336 0.006583 0.477042
v -0.520047 -0.010309 0.293153
v -0.650742 -0.00314 0.445799
v -0.743889 0.010151 0.561833
v -0.635487 0.01738 0.592979
v -0.536038 0.010151 0.531458
v -0.392008 0.00412 0.405216
v -0.22114 -0.016074 -0.121807
v -0.365979 -0.013908 0.100136
v -0.217252 0.000296 0.234617
v 0.014352 -0.004922 0.043876
v 0.149051 0.095771 0.455773
v -0.055702 0.095772 0.566988
v 0.154823 0.052536 0.473432
v -0.050904 0.052537 0.585428
v -0.245025 0.095772 0.710898
v -0.241258 0.052536 0.730316
v -0.061232 -0.000125 0.572018
v -0.252685 0.000879 0.722412
v 0.148758 -0.000513 0.454863
v -0.429626 0.095772 0.840258
v -0.427275 0.052536 0.860217
v -0.620218 0.095771 0.907811
v -0.620004 0.052536 0.927228
v -0.43572 0.002335 0.851687
v -0.623422 0.003176 0.916343
v -0.464184 -0.044503 0.799487
v -0.292003 -0.050325 0.672806
v -0.633953 -0.041139 0.857777
v -0.53708 -0.082214 0.712493
v -0.648375 -0.069803 0.773843
v -0.380084 -0.092569 0.577735
v -0.098626 -0.054342 0.507209
v 0.122839 -0.055898 0.375613
v -0.192578 -0.099132 0.389851
v 0.05729 -0.108091 0.175189
v -0.217064 -0.127235 -0.035671
v -0.372597 -0.123518 0.218783
v -0.5378 -0.11734 0.433439
v -0.726007 -0.125163 0.262894
v -0.586127 -0.12983 0.026754
v -0.449351 -0.130759 -0.232785
v -0.678808 -0.105032 0.599592
v -0.77859 -0.082213 0.725196
v -0.940505 -0.088339 0.611052
v -0.847208 -0.112718 0.461294
v -1.0001 -0.105032 0.29811
v -0.905589 -0.116562 0.089071
v -1.07418 -0.082213 0.451581
v -0.780601 -0.120404 -0.153492
v -0.64869 -0.120405 -0.410473
v -1.13788 -0.044503 0.52744
v -0.996703 -0.047866 0.701266
v -1.18009 0.002335 0.55358
v -1.02385 0.001494 0.744294
v -0.82009 -0.044503 0.818209
v -0.828877 0.002335 0.872878
v -1.02998 0.052536 0.752505
v -0.830485 0.052536 0.883471
v -0.82752 0.095772 0.866303
v -1.02341 0.095772 0.738706
v -1.18973 0.052536 0.557892
v -1.17975 0.095772 0.547991
v 0.385715 -0.099132 0.200728
v 0.379265 -0.054341 0.350929
v 0.648005 -0.092569 0.241521
v 0.633116 -0.050325 0.370261
v 0.387394 -0.000125 0.425305
v 0.630707 0.000879 0.433517
v 0.854286 -0.082213 0.257477
v 0.846877 -0.044503 0.37073
v 0.980329 -0.069803 0.241208
v 1.01829 -0.04114 0.317446
v 0.854757 0.002335 0.429662
v 1.04439 0.003175 0.370918
v 0.852986 0.052536 0.441535
v 0.626156 0.052536 0.446646
v 1.04807 0.052536 0.381723
v 1.03676 0.095771 0.365925
v 0.843087 0.095772 0.424045
v 0.617723 0.095772 0.428758
v 0.386977 0.052536 0.442227
v 0.37995 0.095772 0.424516
v 0.313898 0.000296 0.060913
v 0.10644 -0.016073 -0.228934
v 0.35443 -0.013907 -0.135456
v 0.555689 0.00412 0.095288
v 0.592772 -0.010309 -0.07077
v 0.637679 -0.014867 -0.267776
v 0.407433 -0.017584 -0.360763
v 0.171205 -0.018125 -0.469297
v 0.746487 0.010151 0.112038
v 0.788413 -0.003141 -0.024848
v 0.863068 0.01738 0.102905
v 0.932119 0.010151 0.013728
v 0.835978 -0.007617 -0.190391
v 0.988066 0.006583 -0.132349
v 0.858271 -0.00314 -0.365579
v 0.674117 -0.009856 -0.462804
v 0.997978 0.010151 -0.295992
v 0.973767 0.01738 -0.420763
v 0.874927 0.010151 -0.512107
v 0.703104 0.004799 -0.623639
v 0.451846 -0.012095 -0.568524
v 0.220711 -0.012095 -0.679685
v 0.485271 0.003016 -0.734346
v 0.255609 0.003015 -0.842522
v 0.350216 0.095771 -1.10241
v 0.600845 0.095772 -0.985784
v 0.356852 0.052536 -1.11319
v 0.60997 0.052537 -0.9953
v 0.84602 0.095772 -0.850884
v 0.857246 0.052536 -0.85884
v 0.610688 0.000653 -0.979223
v 0.857387 0.001074 -0.843341
v 0.356146 0.000654 -1.09829
v 1.05842 0.095772 -0.689547
v 1.07122 0.052536 -0.695298
v 1.21072 0.095771 -0.493629
v 1.22445 0.052536 -0.496155
v 1.06719 0.002335 -0.683016
v 1.21586 0.003176 -0.488659
v 0.842836 -0.049547 -0.78624
v 1.03804 -0.044503 -0.638502
v 1.1718 -0.041139 -0.4628
v 1.00342 -0.082214 -0.536167
v 1.10932 -0.069803 -0.426849
v 0.816988 -0.091401 -0.666532
v 0.345182 -0.051229 -1.0392
v 0.600662 -0.051229 -0.918324
v 0.577563 -0.094463 -0.793351
v 0.321044 -0.094463 -0.917415
v 0.280806 -0.120405 -0.714448
v 0.539074 -0.120404 -0.585066
v 0.783229 -0.116562 -0.463222
v 0.488676 -0.12983 -0.324738
v 0.741057 -0.125163 -0.216884
v 0.224982 -0.130759 -0.453313
v 0.982995 -0.105032 -0.350421
v 1.13344 -0.082213 -0.270378
v 0.956062 -0.112718 -0.128429
v 1.11982 -0.088339 -0.062737
v 0.689983 -0.117339 0.031917
v 0.901921 -0.105032 0.082649
v 1.05664 -0.082213 0.125024
v 0.154048 -0.127235 -0.157033
v 0.429876 -0.123518 -0.043648
v 1.14508 -0.044503 0.175536
v 1.21847 -0.047866 -0.023164
v 1.26579 0.001494 -0.004487
v 1.18447 0.002335 0.214454
v 1.22965 -0.044503 -0.246815
v 1.27916 0.002335 -0.250669
v 1.27558 0.052536 -0.001482
v 1.28948 0.052536 -0.252885
v 1.27558 0.095772 -0.254974
v 1.26213 0.095772 -0.008731
v 1.19202 0.052536 0.222051
v 1.17949 0.095772 0.209953
v -0.118128 -0.018944 -0.361223
v -0.045054 -0.018843 -0.593308
v -0.314211 -0.018843 -0.505282
v -0.234417 -0.017 -0.716814
v 0.009973 -0.012094 -0.793242
v 0.048317 0.003016 -0.946453
v -0.172179 -0.009856 -0.89506
v -0.128992 0.0048 -1.03053
v -0.389953 -0.009856 -0.823841
v -0.31755 -0.00314 -0.971015
v -0.268691 0.010151 -1.07913
v -0.356278 0.01738 -1.08946
v -0.420846 0.010151 -1.02937
v -0.504836 0.004799 -0.907617
v -0.476742 -0.012094 -0.634065
v -0.598205 0.003016 -0.735022
v -0.29079 -0.082213 -1.19889
v -0.348831 -0.105032 -1.06667
v -0.396337 -0.069803 -1.21195
v -0.473778 -0.082213 -1.13904
v -0.12438 -0.091401 -1.13991
v -0.175164 -0.116562 -0.973294
v -0.433767 -0.116562 -0.888725
v -0.247213 -0.128826 -0.755938
v -0.57319 -0.091401 -0.993136
v 0.083312 -0.094463 -1.03951
v 0.03872 -0.120404 -0.849873
v -0.023973 -0.131992 -0.603923
v -0.337496 -0.131992 -0.501393
v -0.105045 -0.132166 -0.321215
v -0.681426 -0.094463 -0.789416
v -0.533401 -0.120404 -0.66277
v -0.417742 -0.041139 -1.27739
v -0.271837 -0.044503 -1.28762
v -0.432422 0.003176 -1.32228
v -0.271972 0.002335 -1.33556
v -0.087262 0.001074 -1.29265
v -0.097872 -0.049547 -1.24223
v -0.435332 0.052536 -1.33118
v -0.271201 0.052537 -1.34538
v -0.430866 0.095771 -1.31753
v -0.269351 0.095772 -1.3315
v -0.084167 0.052536 -1.30356
v -0.085152 0.095772 -1.29029
v 0.125324 0.052537 -1.22106
v 0.122801 0.000653 -1.20816
v 0.121463 0.095772 -1.20892
v 0.110068 -0.051229 -1.1533
v -0.770241 -0.051229 -0.865408
v -0.812932 0.000653 -0.902148
v -0.65503 -0.049547 -1.06002
v -0.693377 0.001074 -1.09443
v -0.822592 0.052536 -0.911062
v -0.812298 0.095772 -0.90355
v -0.693683 0.095772 -1.09128
v -0.702325 0.052536 -1.1014
v -0.569717 0.002335 -1.23819
v -0.576143 0.052537 -1.24565
v -0.569428 0.095772 -1.23336
v -0.5415 -0.044503 -1.19943
v -1.04557 0.121712 -0.436476
v -0.914379 0.121712 -0.674492
v -1.16237 0.121711 -0.186928
v -1.13485 0.132164 -0.187351
v -1.0196 0.132165 -0.431911
v -0.890932 0.132166 -0.664933
v -1.23845 0.121712 0.064209
v -1.24748 0.121712 0.306998
v -1.22234 0.132166 0.294839
v -1.211 0.132165 0.058366
v -1.18355 0.128932 0.05252
v -1.10734 0.128933 -0.187775
v -1.19719 0.128933 0.282684
v -1.17624 0.113823 0.272556
v -1.16068 0.113822 0.047646
v -1.08441 0.113823 -0.188123
v -0.993627 0.128932 -0.427353
v -0.867482 0.128933 -0.655375
v -0.971985 0.113823 -0.423549
v -0.847941 0.113823 -0.647411
v -1.16312 0.121712 0.53149
v -1.01245 0.121711 0.715712
v -0.999312 0.132164 0.688122
v -1.14316 0.132165 0.511689
v -0.822579 0.121712 0.837689
v -0.620575 0.121712 0.875442
v -0.621006 0.132166 0.836602
v -0.816645 0.132165 0.803353
v -0.810711 0.128932 0.769017
v -0.986167 0.128933 0.660533
v -0.621429 0.128933 0.797762
v -0.621789 0.113823 0.765395
v -0.805766 0.113822 0.740407
v -0.975216 0.113823 0.637536
v -1.1232 0.128932 0.491887
v -1.10656 0.113823 0.475385
v -0.433537 0.121712 0.806996
v -0.251301 0.121711 0.678537
v -0.438239 0.132165 0.76708
v -0.258833 0.132165 0.639702
v -0.063699 0.121712 0.536258
v 0.139431 0.121712 0.42635
v -0.073293 0.132165 0.499382
v 0.127879 0.132166 0.391035
v -0.266367 0.128933 0.600867
v -0.082895 0.128932 0.462505
v 0.116328 0.128933 0.355723
v -0.090893 0.113822 0.431777
v 0.106713 0.113823 0.326295
v -0.272646 0.113823 0.568504
v -0.442933 0.128932 0.727165
v -0.446845 0.113823 0.693901
v 0.368249 0.121712 0.394998
v 0.603666 0.121711 0.398936
v 0.586799 0.132164 0.363156
v 0.354205 0.132165 0.359579
v 0.826589 0.121712 0.394895
v 1.01793 0.121712 0.339604
v 0.995331 0.132166 0.308013
v 0.806793 0.132165 0.359918
v 0.787001 0.128932 0.32494
v 0.569926 0.128933 0.327374
v 0.972726 0.128933 0.276427
v 0.953887 0.113823 0.250102
v 0.770505 0.113822 0.295792
v 0.555877 0.113823 0.297556
v 0.340153 0.128932 0.324155
v 0.328451 0.113823 0.294639
v 1.15859 0.121712 0.189788
v 1.23971 0.121711 -0.020811
v 1.13352 0.132165 0.16559
v 1.2128 0.132164 -0.035309
v 1.25241 0.121712 -0.258461
v 1.18782 0.121712 -0.489421
v 1.22461 0.132165 -0.262641
v 1.16036 0.132166 -0.484372
v 1.1859 0.128933 -0.049801
v 1.1968 0.128932 -0.266823
v 1.13289 0.128933 -0.479321
v 1.17363 0.113822 -0.270307
v 1.11 0.113823 -0.475114
v 1.16348 0.113823 -0.061881
v 1.10845 0.128932 0.141399
v 1.08755 0.113823 0.121235
v 1.03708 0.121712 -0.67996
v 0.827314 0.121711 -0.837616
v 1.01148 0.132165 -0.668457
v 0.804871 0.132165 -0.821701
v 0.58563 0.121712 -0.969931
v 0.33916 0.121712 -1.08444
v 0.567378 0.132165 -0.950903
v 0.32589 0.132166 -1.06288
v 0.782416 0.128933 -0.805783
v 0.54912 0.128932 -0.931879
v 0.31262 0.128933 -1.0413
v 0.533907 0.113822 -0.916022
v 0.301562 0.113823 -1.02333
v 0.763712 0.113823 -0.792518
v 0.985883 0.128932 -0.656951
v 0.964546 0.113823 -0.647368
v 0.115015 0.121712 -1.18869
v -0.086802 0.121711 -1.26816
v -0.088771 0.132164 -1.24162
v 0.107279 0.132165 -1.16441
v -0.26628 0.121712 -1.30836
v -0.423427 0.121712 -1.29477
v -0.414496 0.132166 -1.26747
v -0.262593 0.132165 -1.28061
v -0.258902 0.128932 -1.25285
v -0.090746 0.128933 -1.21508
v -0.405568 0.128933 -1.24016
v -0.398127 0.113823 -1.21741
v -0.255828 0.113822 -1.22972
v -0.092389 0.113823 -1.19296
v 0.099545 0.128932 -1.14014
v 0.093103 0.113823 -1.1199
v -0.558239 0.121712 -1.21289
v -0.679288 0.121711 -1.0744
v -0.544813 0.132165 -1.18831
v -0.662008 0.132164 -1.05415
v -0.795148 0.121712 -0.89104
v -0.77456 0.132165 -0.87602
v -0.644731 0.128933 -1.0339
v -0.753978 0.128932 -0.861005
v -0.736818 0.113822 -0.84849
v -0.630334 0.113823 -1.01703
v -0.531388 0.128932 -1.16374
v -0.5202 0.113823 -1.14326
v -0.959002 0.08864 -0.421268
v -0.836217 0.088639 -0.642629
v -1.07065 0.08864 -0.188337
v -0.940007 0.058419 -0.408721
v -1.05083 0.058663 -0.178956
v -0.817915 0.05842 -0.629162
v -1.14695 0.08864 0.044722
v -1.16367 0.088639 0.266479
v -1.14237 0.059889 0.260091
v -1.12568 0.059399 0.047001
v -1.00971 0.029178 -0.15053
v -1.08019 0.032116 0.057722
v -1.09524 0.034075 0.249033
v -0.778652 0.028199 -0.59514
v -0.900368 0.028199 -0.374133
v -1.09658 0.088639 0.465482
v -0.968647 0.08864 0.623739
v -0.95644 0.058909 0.60305
v -1.07869 0.059399 0.451266
v -0.802804 0.08864 0.723237
v -0.622 0.088639 0.745973
v -0.623742 0.059889 0.718926
v -0.797437 0.059399 0.69796
v -0.785293 0.032116 0.645025
v -0.928592 0.030158 0.559379
v -0.628673 0.034075 0.663675
v -1.03831 0.032117 0.421816
v -0.449194 0.088639 0.673947
v -0.276408 0.08864 0.549085
v -0.457425 0.059399 0.648872
v -0.288855 0.05855 0.525342
v -0.095692 0.08864 0.413338
v 0.100933 0.088639 0.308639
v -0.108406 0.057966 0.385881
v 0.090756 0.05774 0.277513
v -0.321167 0.028725 0.479997
v -0.14016 0.026386 0.328086
v 0.067915 0.025479 0.207665
v -0.478986 0.032117 0.600265
v 0.32143 0.088639 0.276928
v 0.547437 0.08864 0.279662
v 0.543446 0.05855 0.253153
v 0.315468 0.057966 0.247263
v 0.760606 0.08864 0.278304
v 0.942586 0.088639 0.234308
v 0.928007 0.059889 0.211457
v 0.752432 0.059399 0.253213
v 0.741111 0.032116 0.201258
v 0.542725 0.028726 0.19748
v 0.899341 0.034075 0.163969
v 0.306933 0.026386 0.181872
v 1.07501 0.088639 0.109135
v 1.15002 0.08864 -0.069131
v 1.05575 0.059399 0.091914
v 1.12795 0.058909 -0.078611
v 1.15973 0.08864 -0.272399
v 1.09626 0.088639 -0.472591
v 1.13689 0.059399 -0.273296
v 1.07531 0.059889 -0.465156
v 1.07968 0.030158 -0.097385
v 1.08692 0.032116 -0.273195
v 1.03076 0.034075 -0.446234
v 1.01468 0.032117 0.056378
v 0.95175 0.088639 -0.641612
v 0.752486 0.08864 -0.784559
v 0.935942 0.059399 -0.627215
v 0.74204 0.058664 -0.765281
v 0.524779 0.08864 -0.906508
v 0.294927 0.088639 -1.01255
v 0.288122 0.05842 -0.990874
v 0.516874 0.058419 -0.885171
v 0.505323 0.028199 -0.833839
v 0.725664 0.029178 -0.718049
v 0.276546 0.028199 -0.940225
v 0.905575 0.032117 -0.591684
v 0.089231 0.088639 -1.10776
v -0.093377 0.08864 -1.17968
v -0.096951 0.058664 -1.15877
v 0.083464 0.058419 -1.08637
v -0.253981 0.08864 -1.21583
v -0.393662 0.088639 -1.20376
v -0.387209 0.059889 -1.18403
v -0.253011 0.059399 -1.19519
v -0.252547 0.032116 -1.15174
v -0.106369 0.029178 -1.11375
v -0.37381 0.034075 -1.14306
v 0.07132 0.028199 -1.03839
v -0.513485 0.088639 -1.13097
v -0.621698 0.08864 -1.00691
v -0.502068 0.059399 -1.11373
v -0.606453 0.058664 -0.99215
v -0.726529 0.08864 -0.840983
v -0.709232 0.058419 -0.827131
v -0.572252 0.029178 -0.961386
v -0.671082 0.028199 -0.795596
v -0.476769 0.032117 -1.07841
vn -0.190233 -0.977524 -0.090875
vn -0.420832 -0.882531 -0.209857
vn -0.18869 -0.9772 -0.097346
vn -0.417731 -0.880795 -0.222936
vn -0.212373 -0.975 -0.065375
vn -0.452721 -0.876093 -0.165845
vn -0.777728 -0.5547 -0.295714
vn -0.733625 -0.569361 -0.370974
vn -0.72398 -0.566183 -0.394068
vn -0.250044 -0.96809 -0.016704
vn -0.505194 -0.859664 -0.075866
vn -0.309904 -0.949096 0.056363
vn -0.539488 -0.836326 0.097526
vn -0.842794 -0.516803 0.150377
vn -0.835509 -0.533132 -0.133023
vn -0.986917 0.01229 -0.16076
vn -0.934242 -0.004551 -0.356612
vn -0.984477 0.026715 0.173469
vn -0.881045 0.447928 0.152056
vn -0.887055 0.438368 -0.144798
vn -0.842325 0.433642 -0.320069
vn -0.891762 -0.01442 -0.452276
vn -0.876555 -0.012135 -0.481148
vn -0.804244 0.432737 -0.407346
vn -0.788954 0.43485 -0.434117
vn 0.136572 0.987993 0.07224
vn 0.137823 0.988082 0.068552
vn 0.0512 0.998364 0.025441
vn 0.05213 0.998381 0.022757
vn 0.15244 0.986903 0.052764
vn 0.063642 0.997911 0.011113
vn 0.008843 0.999954 -0.003812
vn 0.016476 0.999732 -0.016247
vn 0.010381 0.999946 0.000628
vn 0.177038 0.983955 0.022158
vn 0.088043 0.996023 -0.013686
vn 0.216548 0.975977 -0.02398
vn 0.156389 0.985375 -0.067663
vn 0.039632 0.998252 -0.04385
vn 0.100793 0.988475 -0.11295
vn -0.022304 0.998525 -0.049495
vn -0.005832 0.996953 -0.077791
vn 0.038144 0.987578 -0.15243
vn -0.028486 0.981095 -0.191419
vn -0.067004 0.987109 -0.145349
vn -0.080217 0.990112 -0.115077
vn -0.012375 0.999609 -0.025077
vn -0.022252 0.999167 -0.034211
vn -0.065278 0.993511 -0.093133
vn -0.025617 0.996598 -0.07833
vn 0.249485 0.596471 0.762876
vn 0.444685 0.575898 0.686
vn 0.310842 0.002476 0.950458
vn 0.548131 0.013625 0.836281
vn 0.487884 0.56228 0.667691
vn 0.591223 0.039257 0.805552
vn 0.418999 -0.65754 0.626164
vn 0.473039 -0.608577 0.637078
vn 0.223852 -0.693766 0.684529
vn 0.38094 0.570517 0.727595
vn 0.45973 0.068317 0.885427
vn 0.052744 0.574748 0.816629
vn 0.061382 0.082948 0.994662
vn 0.374881 -0.576793 0.725792
vn 0.047353 -0.556171 0.829718
vn 0.209085 -0.8873 0.411075
vn 0.255481 -0.903174 0.344972
vn 0.023995 -0.86919 0.493896
vn 0.079659 -0.97562 0.2045
vn 0.012731 -0.961485 0.274561
vn 0.106291 -0.98155 0.15894
vn 0.214937 -0.925614 0.311513
vn 0.105608 -0.940511 0.322933
vn 0.090298 -0.987605 0.128387
vn 0.035161 -0.993582 0.107513
vn 0.016717 -0.999256 0.034766
vn 0.030037 -0.998404 0.047825
vn 0.027431 -0.997141 0.070406
vn -0.026067 -0.999342 0.02523
vn -0.013301 -0.999893 0.006087
vn -0.015141 -0.999885 -0.000529
vn -0.001618 -0.993512 0.113718
vn -0.076897 -0.971282 0.225161
vn -0.159551 -0.971966 0.172701
vn -0.063621 -0.995648 0.068097
vn -0.129578 -0.991172 0.028075
vn -0.091313 -0.995759 -0.011225
vn -0.232294 -0.966056 0.113029
vn -0.073357 -0.996859 -0.029834
vn -0.072032 -0.996811 -0.034334
vn -0.461542 -0.845662 0.268021
vn -0.347188 -0.857047 0.380697
vn -0.745393 -0.504354 0.43591
vn -0.578197 -0.503246 0.642209
vn -0.200701 -0.861813 0.46583
vn -0.32794 -0.527456 0.783738
vn -0.666876 0.049288 0.743537
vn -0.383845 0.070324 0.920716
vn -0.325687 0.536425 0.778573
vn -0.584701 0.486869 0.648909
vn -0.861432 0.036128 0.506587
vn -0.767321 0.459223 0.447586
vn 0.003009 -0.987605 0.156932
vn 0.010659 -0.925614 0.378319
vn 0.008157 -0.98155 0.191031
vn -0.002284 -0.903178 0.42926
vn 0.03194 -0.657538 0.752744
vn -0.005206 -0.608586 0.793471
vn 0.056563 -0.97562 0.212054
vn 0.074201 -0.8873 0.455184
vn 0.151959 -0.961484 0.229034
vn 0.27247 -0.869188 0.412641
vn 0.126395 -0.57681 0.807041
vn 0.452037 -0.556188 0.697364
vn 0.15228 0.068308 0.985974
vn -0.001009 0.039234 0.999229
vn 0.538197 0.082939 0.838728
vn 0.439951 0.574776 0.689982
vn 0.122579 0.570535 0.812074
vn 0.000905 0.562287 0.826942
vn 0.051917 0.013598 0.998559
vn 0.046577 0.575898 0.816193
vn -0.002364 0.993511 -0.113708
vn -0.004835 0.999609 -0.027543
vn -0.002261 0.999167 -0.040748
vn -0.003276 0.990113 -0.140237
vn -0.011249 0.998525 -0.053111
vn -0.022891 0.999732 -0.003371
vn -0.009386 0.999954 0.002148
vn -0.008005 0.999946 0.006639
vn -0.031824 0.987109 -0.156851
vn -0.041259 0.996953 -0.066205
vn -0.090128 0.981095 -0.17126
vn -0.120842 0.987577 -0.10044
vn -0.057883 0.998252 -0.011958
vn -0.148056 0.988475 -0.03157
vn -0.079114 0.996023 0.040981
vn -0.044776 0.997911 0.046568
vn -0.166145 0.985376 0.037816
vn -0.188875 0.975977 0.108605
vn -0.129735 0.983955 0.122482
vn -0.091806 0.986904 0.132639
vn -0.02861 0.998381 0.049159
vn -0.026275 0.998364 0.050777
vn -0.070688 0.988081 0.136743
vn -0.067501 0.987992 0.138981
vn 0.380005 0.434827 -0.816408
vn 0.408154 0.432719 -0.803843
vn 0.422887 -0.012124 -0.906101
vn 0.452211 -0.014433 -0.891794
vn 0.490444 0.433619 -0.755936
vn 0.543005 -0.00458 -0.839717
vn 0.372674 -0.569363 -0.732762
vn 0.452716 -0.554695 -0.698113
vn 0.351248 -0.566182 -0.745696
vn 0.630091 0.438363 -0.640955
vn 0.701226 0.01227 -0.712834
vn 0.800646 0.447935 -0.397894
vn 0.896737 0.026717 -0.441756
vn 0.595465 -0.533121 -0.601002
vn 0.768802 -0.516788 -0.376662
vn 0.267247 -0.876091 -0.401302
vn 0.362753 -0.85966 -0.359715
vn 0.492876 -0.836321 -0.240085
vn 0.191854 -0.968092 -0.161215
vn 0.283327 -0.949095 -0.137639
vn 0.132706 -0.975 -0.178228
vn 0.205286 -0.880801 -0.426671
vn 0.215515 -0.882534 -0.417956
vn 0.099779 -0.977524 -0.185719
vn 0.09471 -0.977201 -0.190023
vn 0.037827 -0.996811 -0.07026
vn 0.041554 -0.996859 -0.067414
vn 0.067034 -0.995759 -0.063008
vn 0.014328 -0.999893 -0.002947
vn 0.035938 -0.999342 0.004952
vn 0.011903 -0.999885 -0.009374
vn 0.121128 -0.991172 -0.053912
vn 0.254191 -0.966056 -0.046064
vn 0.091562 -0.995648 0.017348
vn 0.230761 -0.971967 0.045056
vn 0.019468 -0.997141 0.073009
vn 0.068497 -0.993512 0.090788
vn 0.195079 -0.971282 0.136217
vn 0.007056 -0.999256 0.037927
vn 0.004026 -0.998404 0.056332
vn 0.437171 -0.861809 0.257228
vn 0.505037 -0.857051 0.101987
vn 0.845935 -0.503238 0.176481
vn 0.727654 -0.527459 0.438528
vn 0.530712 -0.845668 -0.056484
vn 0.858932 -0.50434 -0.088751
vn 0.977346 0.049281 0.20583
vn 0.994302 0.03613 -0.100291
vn 0.883513 0.459225 -0.092283
vn 0.85514 0.486867 0.178036
vn 0.853695 0.07031 0.516005
vn 0.722782 0.536435 0.435688
vn -0.00369 0.99993 -0.011282
vn -0.006992 0.999889 0.013129
vn 0.013399 0.999889 0.006461
vn 0.0081 0.99966 0.024767
vn -0.025071 0.998174 0.054951
vn -0.067121 0.986964 0.146278
vn -0.00953 0.9978 0.065608
vn -0.048271 0.985445 0.163
vn 0.046455 0.9978 0.047298
vn 0.028459 0.9958 0.087023
vn -0.003471 0.982152 0.188059
vn 0.072464 0.972447 0.221575
vn 0.113921 0.98215 0.149675
vn 0.135256 0.985444 0.102982
vn 0.052694 0.998174 0.029518
vn 0.14058 0.986964 0.078351
vn 0.004869 -0.96573 -0.259504
vn -0.039851 -0.991747 -0.121858
vn -0.09924 -0.947662 -0.303462
vn -0.157262 -0.965729 -0.206485
vn 0.067172 -0.972056 -0.224934
vn 0.013642 -0.995671 -0.091945
vn -0.065333 -0.995671 -0.066118
vn -0.011425 -0.999324 -0.034935
vn -0.187102 -0.972055 -0.141783
vn 0.094047 -0.975034 -0.201158
vn 0.036008 -0.996407 -0.076654
vn 0.010295 -0.999774 -0.018626
vn -0.019312 -0.999774 -0.008944
vn 0.005038 -0.999869 0.015404
vn -0.194733 -0.975033 -0.106721
vn -0.074343 -0.996407 -0.040567
vn -0.175559 -0.825226 -0.536826
vn 0.049147 -0.841725 -0.537664
vn -0.270947 -0.490055 -0.828513
vn 0.071108 -0.497229 -0.864701
vn 0.261319 -0.518942 -0.813887
vn 0.159685 -0.858661 -0.487033
vn -0.310476 0.048389 -0.949349
vn 0.078186 0.036476 -0.996271
vn -0.274563 0.468751 -0.839576
vn 0.068975 0.455928 -0.88734
vn 0.299901 0.014697 -0.953857
vn 0.268194 0.44017 -0.856926
vn 0.396962 -0.00185 -0.917833
vn 0.337306 -0.545024 -0.767576
vn 0.356634 0.435224 -0.826676
vn 0.203137 -0.870802 -0.447704
vn -0.42843 -0.870794 -0.241175
vn -0.725654 -0.54504 -0.419949
vn -0.416609 -0.858655 -0.298577
vn -0.691714 -0.518957 -0.50221
vn -0.862574 -0.001854 -0.505928
vn -0.776169 0.435239 -0.456212
vn -0.722696 0.440171 -0.532878
vn -0.805556 0.014703 -0.592337
vn -0.568288 -0.49722 -0.655607
vn -0.651751 0.036478 -0.757556
vn -0.579941 0.455917 -0.675135
vn -0.357339 -0.841724 -0.404733
vn -0.557049 0.780396 -0.284039
vn -0.544307 0.783488 -0.299795
vn -0.584227 0.779192 -0.227022
vn -0.1447 0.987621 -0.06055
vn -0.132951 0.98869 -0.069403
vn -0.126393 0.989534 -0.069629
vn -0.615157 0.780817 -0.109115
vn -0.60955 0.787047 0.0949
vn -0.167633 0.985698 0.017314
vn -0.160209 0.986437 -0.03572
vn 0.336589 0.939775 0.059427
vn 0.332263 0.934367 0.128685
vn 0.317091 0.947099 -0.049573
vn 0.729494 0.677792 -0.091846
vn 0.738376 0.65803 0.147638
vn 0.707836 0.646865 0.283787
vn 0.32496 0.931101 0.165685
vn 0.322325 0.929703 0.178211
vn 0.68199 0.641475 0.351283
vn 0.672087 0.640282 0.371938
vn -0.524276 0.79756 0.298384
vn -0.386658 0.818899 0.424147
vn -0.103836 0.988915 0.106134
vn -0.141721 0.98716 0.07369
vn -0.202099 0.851599 0.483668
vn 0.038393 0.872861 0.486457
vn 0.012832 0.9922 0.123995
vn -0.054314 0.991093 0.121594
vn 0.084467 0.967886 -0.236776
vn 0.189494 0.9566 -0.221379
vn -0.023631 0.974938 -0.221219
vn -0.075513 0.804742 -0.588802
vn 0.217075 0.770174 -0.599759
vn 0.459414 0.719258 -0.52116
vn 0.272111 0.94934 -0.157194
vn 0.63459 0.68946 -0.349199
vn 0.233434 0.872099 0.43006
vn 0.291188 0.870598 0.396571
vn 0.059397 0.993273 0.099402
vn 0.06306 0.994406 0.084741
vn 0.255544 0.880403 0.399485
vn 0.140285 0.892363 0.428963
vn 0.04704 0.995835 0.078107
vn 0.02394 0.99703 0.073201
vn -0.158129 0.963551 -0.215788
vn -0.149696 0.961699 -0.229621
vn -0.086017 0.960954 -0.262999
vn -0.348243 0.762807 -0.544842
vn -0.200125 0.765116 -0.612004
vn -0.382945 0.763541 -0.519959
vn -0.115804 0.969371 -0.216584
vn -0.305425 0.782301 -0.542882
vn 0.029875 0.880405 0.47328
vn -0.0006 0.8706 0.491991
vn -0.000808 0.994405 0.105634
vn 0.008197 0.995834 0.090811
vn 0.065785 0.872106 0.484875
vn 0.256453 0.872865 0.415137
vn 0.062918 0.992199 0.10762
vn 0.010814 0.993273 0.115293
vn -0.034546 0.969373 -0.243151
vn 7.3e-05 0.963551 -0.267525
vn -0.111656 0.974936 -0.19244
vn -0.286957 0.804759 -0.519634
vn -0.074358 0.782319 -0.618424
vn 0.001726 0.763553 -0.645743
vn -0.014906 0.961699 -0.273703
vn -0.040973 0.762797 -0.645339
vn 0.448808 0.851615 0.270785
vn 0.562508 0.818935 0.113711
vn 0.115666 0.991093 0.066005
vn 0.14648 0.988916 0.02427
vn 0.599251 0.797578 -0.069052
vn 0.547851 0.787033 -0.283615
vn 0.157879 0.98716 -0.024287
vn 0.145469 0.985698 -0.085074
vn -0.283707 0.956593 -0.066635
vn -0.312429 0.949334 0.033963
vn -0.285104 0.947104 0.147342
vn -0.718323 0.689432 0.093248
vn -0.642816 0.677773 0.356948
vn -0.678575 0.71926 -0.148997
vn -0.20807 0.967879 -0.141125
vn -0.529486 0.770199 -0.355582
vn 0.431831 0.780809 -0.451508
vn 0.337204 0.779181 -0.528365
vn 0.108144 0.986437 -0.12348
vn 0.080965 0.98762 -0.134355
vn 0.281591 0.780376 -0.558319
vn 0.262001 0.783467 -0.563503
vn 0.066253 0.98869 -0.134548
vn 0.060828 0.989534 -0.130857
vn -0.192011 0.934377 0.300119
vn -0.164264 0.931107 0.325665
vn -0.154736 0.929709 0.334212
vn -0.342648 0.64147 0.686373
vn -0.322463 0.640265 0.697193
vn -0.403382 0.64686 0.64719
vn -0.236413 0.939788 0.246793
vn -0.508454 0.658031 0.5554
vn 0.246914 0.782322 -0.571844
vn 0.186985 0.784478 -0.591296
vn 0.049625 0.987592 -0.148996
vn 0.060037 0.988606 -0.138038
vn 0.050184 0.795241 -0.604213
vn -0.184894 0.803861 -0.565351
vn -0.050152 0.986899 -0.153348
vn 0.017198 0.98713 -0.158991
vn -0.021964 0.948155 0.317047
vn -0.101449 0.938884 0.328944
vn 0.092174 0.955029 0.281823
vn 0.219459 0.708182 0.671055
vn -0.058299 0.685977 0.725284
vn -0.225807 0.659732 0.716775
vn -0.141949 0.93312 0.33036
vn -0.301668 0.646741 0.700516
vn -0.397494 0.795245 -0.457804
vn -0.50024 0.78447 -0.366561
vn -0.107816 0.987131 -0.118105
vn -0.128057 0.987594 -0.090878
vn -0.537085 0.782324 -0.31545
vn -0.129996 0.988606 -0.075887
vn 0.276196 0.93889 0.205432
vn 0.309716 0.933121 0.182649
vn 0.657266 0.646766 0.386904
vn 0.605678 0.65975 0.444842
vn 0.205056 0.948154 0.242808
vn 0.475589 0.685974 0.550685
vn 0.751176 0.533007 0.389409
vn 0.740229 0.533333 0.40941
vn 0.786085 0.528042 0.321312
vn 0.566917 0.769665 0.293633
vn 0.599159 0.762314 0.244716
vn 0.560322 0.768804 0.308187
vn 0.831858 0.52693 0.174233
vn 0.836761 0.53859 -0.098753
vn 0.640219 0.764639 -0.073805
vn 0.638962 0.757612 0.133234
vn 0.334704 0.932893 0.13298
vn 0.3698 0.926049 0.075374
vn 0.387835 0.920717 -0.043176
vn 0.310385 0.935595 0.168296
vn 0.312818 0.936143 0.160568
vn 0.732896 0.550513 -0.399748
vn 0.540646 0.573861 -0.615131
vn 0.412562 0.780156 -0.470265
vn 0.56051 0.771155 -0.301908
vn 0.26303 0.615935 -0.742589
vn -0.105858 0.643788 -0.757846
vn -0.083668 0.810791 -0.579324
vn 0.195921 0.800557 -0.566325
vn 0.111381 0.940027 -0.322401
vn 0.228411 0.938581 -0.25864
vn -0.051119 0.937101 -0.345295
vn 0.321009 0.931615 -0.170429
vn -0.38754 0.62844 -0.674445
vn -0.463221 0.628093 -0.625241
vn -0.295873 0.804702 -0.514698
vn -0.347553 0.814803 -0.464007
vn -0.40795 0.652289 -0.638823
vn -0.229752 0.67355 -0.702528
vn -0.295009 0.841564 -0.452482
vn -0.158094 0.860995 -0.483419
vn -0.190967 0.94816 -0.254017
vn -0.154885 0.961026 -0.228997
vn -0.076917 0.9689 -0.235196
vn -0.168618 0.940123 -0.296204
vn -0.048343 0.652294 -0.756423
vn 0.004271 0.628107 -0.778115
vn 0.006226 0.814798 -0.579712
vn -0.029355 0.841566 -0.539356
vn -0.085848 0.628461 -0.773089
vn -0.362381 0.643798 -0.673946
vn -0.274799 0.810786 -0.516828
vn -0.065419 0.804687 -0.590084
vn -0.038982 0.940123 -0.3386
vn 0.003977 0.948161 -0.317766
vn -0.162786 0.937099 -0.308781
vn -0.010351 0.961026 -0.276263
vn -0.650968 0.61595 -0.443673
vn -0.79962 0.573883 -0.176821
vn -0.492687 0.800557 -0.341128
vn -0.610723 0.780143 -0.135626
vn -0.827471 0.550518 0.11055
vn -0.733434 0.538557 0.414766
vn -0.630617 0.771133 0.087618
vn -0.560147 0.764617 0.318741
vn -0.337101 0.938579 -0.073712
vn -0.359694 0.931611 0.052176
vn -0.338415 0.920711 0.194336
vn -0.280359 0.940027 -0.194288
vn -0.568194 0.526891 0.632093
vn -0.444346 0.528021 0.723706
vn -0.436782 0.757593 0.485051
vn -0.338796 0.762303 0.551463
vn -0.375953 0.532959 0.758033
vn -0.355304 0.533284 0.767703
vn -0.269953 0.768805 0.579711
vn -0.28388 0.76966 0.57187
vn -0.157497 0.936144 0.314372
vn -0.191459 0.93289 0.305056
vn -0.150965 0.935598 0.319165
vn -0.253813 0.926044 0.279322
vn -0.336508 0.527321 0.780189
vn -0.257767 0.523008 0.812415
vn -0.205184 0.743386 0.636613
vn -0.261661 0.756905 0.598856
vn -0.070031 0.530466 0.844809
vn 0.261184 0.542177 0.798641
vn 0.20916 0.739732 0.639569
vn -0.057201 0.737538 0.672879
vn -0.036901 0.91556 0.400486
vn -0.118784 0.924085 0.363258
vn 0.130662 0.907362 0.399527
vn -0.149929 0.930513 0.334166
vn 0.555667 0.530464 0.640189
vn 0.687992 0.523008 0.503119
vn 0.443724 0.737555 0.50904
vn 0.541684 0.743391 0.392362
vn 0.732465 0.527335 0.430597
vn 0.56495 0.756898 0.328538
vn 0.310481 0.924079 0.22289
vn 0.318417 0.930508 0.181015
vn 0.266414 0.915556 0.3013
vt 0.40738 0.47606
vt 0.417225 0.454853
vt 0.456662 0.485245
vt 0.466037 0.463776
vt 0.361218 0.46868
vt 0.370038 0.448267
vt 0.238412 0.056822
vt 0.248381 0.049908
vt 0.268879 0.090216
vt 0.281714 0.084
vt 0.298431 0.133109
vt 0.313114 0.127624
vt 0.322608 0.466882
vt 0.328159 0.448296
vt 0.297025 0.470227
vt 0.291947 0.458137
vt 0.184565 0.024957
vt 0.186548 0.016869
vt 0.210509 0.035388
vt 0.216337 0.027618
vt 0.22035 0.021503
vt 0.254911 0.044242
vt 0.188007 0.010645
vt 0.189499 0.004817
vt 0.223966 0.01586
vt 0.260281 0.038928
vt 0.290097 0.078734
vt 0.322979 0.122686
vt 0.296905 0.073686
vt 0.331002 0.117728
vt 0.777122 0.645134
vt 0.824434 0.642914
vt 0.785796 0.675117
vt 0.833302 0.673103
vt 0.869545 0.642401
vt 0.878528 0.671121
vt 0.844174 0.710791
vt 0.889479 0.705727
vt 0.796212 0.713864
vt 0.90684 0.645911
vt 0.916494 0.671024
vt 0.930496 0.65217
vt 0.944796 0.670192
vt 0.927909 0.700924
vt 0.957104 0.697028
vt 0.899556 0.741273
vt 0.934792 0.731351
vt 0.96096 0.724915
vt 0.95806 0.745075
vt 0.940401 0.756827
vt 0.90851 0.771279
vt 0.806852 0.758724
vt 0.85543 0.751975
vt 0.866425 0.787528
vt 0.815984 0.811467
vt 0.032822 0.218618
vt 0.039412 0.168024
vt 0.0434 0.220376
vt 0.049424 0.168147
vt 0.047374 0.120236
vt 0.056304 0.12055
vt 0.061011 0.169195
vt 0.066017 0.121577
vt 0.056432 0.22237
vt 0.059116 0.080917
vt 0.066764 0.082661
vt 0.075123 0.052041
vt 0.080646 0.055843
vt 0.074563 0.084917
vt 0.086442 0.059405
vt 0.085834 0.088283
vt 0.080437 0.123368
vt 0.095282 0.064028
vt 0.244821 0.602079
vt 0.22948 0.576123
vt 0.257516 0.586511
vt 0.243323 0.570655
vt 0.271742 0.626312
vt 0.285375 0.607479
vt 0.079632 0.171497
vt 0.078521 0.225293
vt 0.306118 0.653134
vt 0.323645 0.632272
vt 0.336097 0.686787
vt 0.370138 0.667641
vt 0.396318 0.611107
vt 0.346147 0.594846
vt 0.303634 0.575771
vt 0.324055 0.537538
vt 0.369556 0.550517
vt 0.420099 0.561949
vt 0.270917 0.559047
vt 0.246444 0.547851
vt 0.258215 0.517222
vt 0.286506 0.526112
vt 0.30618 0.494131
vt 0.344655 0.500064
vt 0.277906 0.488755
vt 0.390834 0.509355
vt 0.440819 0.518913
vt 0.261941 0.48095
vt 0.240215 0.511468
vt 0.158097 0.024665
vt 0.133166 0.032294
vt 0.156869 0.016656
vt 0.128761 0.025071
vt 0.228777 0.544809
vt 0.111598 0.045731
vt 0.104651 0.03999
vt 0.126049 0.019284
vt 0.100285 0.035174
vt 0.096829 0.030043
vt 0.124206 0.013699
vt 0.156159 0.010435
vt 0.155832 0.004631
vt 0.377466 0.727492
vt 0.348962 0.731723
vt 0.378848 0.777074
vt 0.353365 0.778812
vt 0.065691 0.281087
vt 0.049357 0.336351
vt 0.044959 0.277516
vt 0.031954 0.331962
vt 0.382382 0.816097
vt 0.359762 0.818762
vt 0.389072 0.839556
vt 0.375016 0.849715
vt 0.037578 0.381015
vt 0.032449 0.413496
vt 0.023045 0.378316
vt 0.020447 0.412853
vt 0.013227 0.37644
vt 0.020592 0.328671
vt 0.012332 0.413078
vt 0.004399 0.413762
vt 0.003968 0.374125
vt 0.010604 0.324925
vt 0.032438 0.27449
vt 0.022083 0.270877
vt 0.794527 0.862943
vt 0.762895 0.804966
vt 0.758574 0.853691
vt 0.780303 0.905627
vt 0.750019 0.898111
vt 0.714202 0.889768
vt 0.717053 0.844497
vt 0.71768 0.79667
vt 0.76737 0.938023
vt 0.741782 0.933603
vt 0.756468 0.956106
vt 0.736579 0.959889
vt 0.711236 0.928176
vt 0.708723 0.95734
vt 0.681008 0.918247
vt 0.67931 0.88054
vt 0.681516 0.946388
vt 0.662948 0.933054
vt 0.655612 0.90985
vt 0.650384 0.872979
vt 0.6791 0.835553
vt 0.678673 0.788347
vt 0.648761 0.828233
vt 0.648566 0.781389
vt 0.257722 0.467221
vt 0.210226 0.493948
vt 0.252418 0.459687
vt 0.205983 0.486798
vt 0.163929 0.51162
vt 0.161063 0.50477
vt 0.200388 0.478841
vt 0.157304 0.497154
vt 0.245424 0.451433
vt 0.122054 0.518771
vt 0.120961 0.512254
vt 0.086365 0.515251
vt 0.087369 0.509374
vt 0.119701 0.505174
vt 0.08858 0.503176
vt 0.150889 0.487123
vt 0.117451 0.495922
vt 0.090076 0.495132
vt 0.563008 0.819831
vt 0.533183 0.853863
vt 0.540105 0.816283
vt 0.522978 0.841845
vt 0.583557 0.774532
vt 0.55759 0.77425
vt 0.234288 0.440821
vt 0.191114 0.468331
vt 0.597822 0.72103
vt 0.571164 0.722246
vt 0.607982 0.665816
vt 0.582153 0.667319
vt 0.541666 0.669859
vt 0.529341 0.724409
vt 0.51658 0.776199
vt 0.47818 0.726134
vt 0.467966 0.777887
vt 0.490591 0.671796
vt 0.502736 0.819285
vt 0.492721 0.851867
vt 0.458982 0.822078
vt 0.451873 0.856082
vt 0.419392 0.777515
vt 0.417027 0.819121
vt 0.413805 0.850182
vt 0.433481 0.671801
vt 0.423837 0.726476
vt 0.406217 0.869974
vt 0.447273 0.878066
vt 0.048595 0.465854
vt 0.040949 0.470095
vt 0.03665 0.441674
vt 0.026708 0.443059
vt 0.491902 0.87313
vt 0.066726 0.484432
vt 0.062056 0.490948
vt 0.035541 0.474012
vt 0.058633 0.496194
vt 0.05575 0.501281
vt 0.031032 0.478252
vt 0.01975 0.445209
vt 0.013516 0.448249
vt 0.758615 0.756947
vt 0.714054 0.7508
vt 0.750007 0.712743
vt 0.708306 0.709442
vt 0.676316 0.744221
vt 0.647574 0.738503
vt 0.67367 0.705841
vt 0.647632 0.702317
vt 0.702494 0.675036
vt 0.672316 0.675718
vt 0.650488 0.675341
vt 0.655404 0.659963
vt 0.670395 0.653922
vt 0.697195 0.649143
vt 0.741163 0.675277
vt 0.733624 0.646679
vt 0.600767 0.53811
vt 0.572863 0.535432
vt 0.597227 0.517666
vt 0.578841 0.508231
vt 0.599396 0.572181
vt 0.565626 0.572335
vt 0.535889 0.530523
vt 0.522331 0.571193
vt 0.546498 0.499358
vt 0.59239 0.616262
vt 0.554541 0.61815
vt 0.506323 0.619248
vt 0.472382 0.568356
vt 0.451635 0.618181
vt 0.504369 0.492393
vt 0.490497 0.525531
vt 0.608998 0.508984
vt 0.619822 0.535875
vt 0.362117 0.309709
vt 0.348122 0.345403
vt 0.34686 0.306258
vt 0.333714 0.338944
vt 0.32298 0.382073
vt 0.309549 0.372743
vt 0.621486 0.571161
vt 0.374093 0.312456
vt 0.359017 0.351147
vt 0.385741 0.315173
vt 0.368849 0.357266
vt 0.332518 0.389792
vt 0.340403 0.397386
vt 0.295842 0.426784
vt 0.287639 0.418458
vt 0.302215 0.434654
vt 0.616687 0.615167
vt 0.275174 0.408056
vt 0.51258 0.471122
vt 0.323347 0.18013
vt 0.33927 0.175547
vt 0.340637 0.227523
vt 0.357296 0.224467
vt 0.553867 0.479277
vt 0.350392 0.171103
vt 0.359604 0.16632
vt 0.380357 0.217247
vt 0.369619 0.22117
vt 0.365178 0.270314
vt 0.377922 0.269777
vt 0.389892 0.268483
vt 0.586503 0.490871
vt 0.3489 0.270108
vt 0.548759 0.03845
vt 0.550501 0.043848
vt 0.508655 0.062742
vt 0.511384 0.067805
vt 0.590302 0.018315
vt 0.591032 0.023871
vt 0.591165 0.028621
vt 0.551575 0.048438
vt 0.513486 0.071999
vt 0.631045 0.006059
vt 0.630709 0.011454
vt 0.668399 0.003962
vt 0.666944 0.008919
vt 0.66537 0.013041
vt 0.629963 0.016019
vt 0.629172 0.020322
vt 0.5912 0.033093
vt 0.663808 0.016926
vt 0.662475 0.020856
vt 0.628692 0.024611
vt 0.59154 0.037509
vt 0.552517 0.052745
vt 0.515417 0.075901
vt 0.55369 0.056997
vt 0.51747 0.079802
vt 0.703548 0.013484
vt 0.70081 0.017853
vt 0.73551 0.0317
vt 0.731371 0.0354
vt 0.727455 0.038377
vt 0.698197 0.02141
vt 0.762136 0.05731
vt 0.756568 0.060164
vt 0.777844 0.088565
vt 0.771156 0.090389
vt 0.764699 0.092189
vt 0.751249 0.062538
vt 0.746069 0.064748
vt 0.723653 0.041136
vt 0.758379 0.093922
vt 0.75252 0.095418
vt 0.741238 0.066882
vt 0.720067 0.043921
vt 0.695658 0.024732
vt 0.693283 0.028116
vt 0.77719 0.123212
vt 0.769891 0.124149
vt 0.766423 0.161604
vt 0.758904 0.16189
vt 0.762814 0.12551
vt 0.751615 0.162742
vt 0.752682 0.202629
vt 0.745122 0.202464
vt 0.743798 0.245207
vt 0.736167 0.244742
vt 0.737847 0.202722
vt 0.728899 0.244268
vt 0.744551 0.163631
vt 0.730834 0.203009
vt 0.721946 0.24379
vt 0.724401 0.203051
vt 0.715567 0.243335
vt 0.738066 0.164146
vt 0.755921 0.126883
vt 0.749574 0.127878
vt 0.747694 0.28962
vt 0.739823 0.28881
vt 0.756791 0.335009
vt 0.748724 0.333633
vt 0.741029 0.331648
vt 0.732332 0.287549
vt 0.763081 0.378864
vt 0.755088 0.376654
vt 0.757932 0.418402
vt 0.750589 0.415033
vt 0.743561 0.411716
vt 0.747463 0.373979
vt 0.740096 0.371303
vt 0.733617 0.329623
vt 0.736736 0.408481
vt 0.730446 0.405589
vt 0.733312 0.369116
vt 0.726797 0.328062
vt 0.725142 0.286251
vt 0.718534 0.285255
vt 0.733248 0.451779
vt 0.72732 0.447093
vt 0.694472 0.475935
vt 0.690526 0.470101
vt 0.721633 0.443014
vt 0.68669 0.465221
vt 0.647697 0.487623
vt 0.646017 0.481023
vt 0.59896 0.483861
vt 0.599571 0.47701
vt 0.644205 0.475517
vt 0.599639 0.471169
vt 0.682986 0.46064
vt 0.642422 0.470351
vt 0.599616 0.465661
vt 0.640912 0.465209
vt 0.599898 0.460247
vt 0.679617 0.456101
vt 0.716136 0.439143
vt 0.71109 0.43543
vt 0.554284 0.461648
vt 0.556789 0.455076
vt 0.513962 0.424883
vt 0.517903 0.418972
vt 0.558346 0.449294
vt 0.520698 0.413665
vt 0.478741 0.378579
vt 0.483759 0.373599
vt 0.449 0.328788
vt 0.454841 0.324935
vt 0.487565 0.369137
vt 0.45949 0.32164
vt 0.523218 0.408623
vt 0.491043 0.364916
vt 0.463777 0.318556
vt 0.494741 0.360889
vt 0.468179 0.31553
vt 0.526037 0.403838
vt 0.559702 0.443821
vt 0.561399 0.438557
vt 0.424437 0.281733
vt 0.43097 0.279177
vt 0.407135 0.238503
vt 0.414122 0.237386
vt 0.419987 0.236825
vt 0.43636 0.27724
vt 0.39885 0.200313
vt 0.405938 0.20069
vt 0.401134 0.167481
vt 0.407874 0.16932
vt 0.413682 0.170875
vt 0.411948 0.201328
vt 0.417628 0.201985
vt 0.425484 0.236368
vt 0.419225 0.172328
vt 0.424687 0.173727
vt 0.423253 0.202426
vt 0.430945 0.235688
vt 0.441375 0.275472
vt 0.446408 0.273596
vt 0.415631 0.13894
vt 0.421595 0.142009
vt 0.439998 0.112464
vt 0.444928 0.116428
vt 0.426822 0.1443
vt 0.449254 0.119432
vt 0.471768 0.08722
vt 0.475573 0.091822
vt 0.478807 0.095476
vt 0.453357 0.122159
vt 0.481846 0.098838
vt 0.484873 0.102277
vt 0.457354 0.125015
vt 0.431802 0.146373
vt 0.436657 0.148547
vt 0.555441 0.061339
vt 0.519884 0.083911
vt 0.592564 0.041993
vt 0.816048 0.606033
vt 0.864492 0.606879
vt 0.816621 0.613119
vt 0.864154 0.613787
vt 0.768253 0.60834
vt 0.76922 0.615444
vt 0.628878 0.029037
vt 0.661602 0.025017
vt 0.948202 0.629955
vt 0.943972 0.635164
vt 0.909816 0.61392
vt 0.907683 0.620289
vt 0.865308 0.624471
vt 0.905315 0.629931
vt 0.937727 0.642959
vt 0.771908 0.626485
vt 0.819152 0.624175
vt 0.691206 0.031797
vt 0.716803 0.046967
vt 0.992688 0.691923
vt 0.985713 0.69304
vt 0.976285 0.657491
vt 0.970337 0.660898
vt 0.736879 0.069061
vt 0.747324 0.096501
vt 0.985505 0.760639
vt 0.979137 0.75709
vt 0.996032 0.728067
vt 0.988948 0.726715
vt 0.978145 0.724516
vt 0.975076 0.694582
vt 0.96948 0.751625
vt 0.961305 0.665959
vt 0.743973 0.128047
vt 0.732336 0.163813
vt 0.960383 0.785125
vt 0.926241 0.80543
vt 0.955257 0.779932
vt 0.921908 0.79934
vt 0.718639 0.202523
vt 0.709758 0.242906
vt 0.88948 0.825545
vt 0.85661 0.850204
vt 0.884544 0.819258
vt 0.85056 0.844431
vt 0.915994 0.789279
vt 0.876501 0.808267
vt 0.839667 0.834039
vt 0.947942 0.771789
vt 0.712542 0.284918
vt 0.720663 0.327493
vt 0.815137 0.921738
vt 0.808872 0.917691
vt 0.833521 0.884158
vt 0.82702 0.879524
vt 0.727239 0.36794
vt 0.724876 0.403282
vt 0.77313 0.982701
vt 0.769329 0.976526
vt 0.796417 0.956656
vt 0.791022 0.951779
vt 0.782594 0.944857
vt 0.798577 0.912253
vt 0.763481 0.967168
vt 0.815683 0.872012
vt 0.706673 0.431781
vt 0.676785 0.451372
vt 0.741266 0.994539
vt 0.705303 0.992852
vt 0.739615 0.987576
vt 0.706087 0.985891
vt 0.639927 0.459864
vt 0.600851 0.454823
vt 0.670421 0.978228
vt 0.641733 0.9517
vt 0.673516 0.972167
vt 0.646704 0.94725
vt 0.707126 0.975279
vt 0.678102 0.96297
vt 0.654145 0.940674
vt 0.736953 0.97696
vt 0.563925 0.433505
vt 0.52965 0.399356
vt 0.623968 0.914307
vt 0.614918 0.869603
vt 0.630198 0.911891
vt 0.621758 0.868949
vt 0.499107 0.357087
vt 0.473072 0.312475
vt 0.611928 0.774627
vt 0.618943 0.775191
vt 0.611935 0.821696
vt 0.618941 0.821929
vt 0.629984 0.82391
vt 0.632401 0.869611
vt 0.629925 0.777226
vt 0.639666 0.909088
vt 0.451741 0.271383
vt 0.436602 0.234482
vt 0.614833 0.695525
vt 0.621545 0.697051
vt 0.612192 0.732323
vt 0.61914 0.733167
vt 0.42901 0.202416
vt 0.430168 0.175087
vt 0.635859 0.641853
vt 0.640763 0.646387
vt 0.622095 0.665067
vt 0.628173 0.667971
vt 0.6367 0.672067
vt 0.631407 0.699345
vt 0.647538 0.652663
vt 0.629756 0.735018
vt 0.44144 0.151094
vt 0.461306 0.128333
vt 0.65797 0.626254
vt 0.688007 0.616597
vt 0.661351 0.632121
vt 0.690044 0.623253
vt 0.488011 0.106075
vt 0.725048 0.611241
vt 0.726367 0.618242
vt 0.693069 0.633025
vt 0.728918 0.628891
vt 0.666101 0.640354
usemtl HeartPlateSG
f 1/1/1 2/2/2 3/3/3
f 3/3/3 2/2/2 4/4/4
f 5/5/5 6/6/6 1/1/1
f 1/1/1 6/6/6 2/2/2
f 6/7/6 7/8/7 2/9/2
f 2/9/2 7/8/7 8/10/8
f 2/9/2 8/10/8 4/11/4
f 4/11/4 8/10/8 9/12/9
f 10/13/10 11/14/11 5/5/5
f 5/5/5 11/14/11 6/6/6
f 12/15/12 13/16/13 10/13/10
f 10/13/10 13/16/13 11/14/11
f 13/17/13 14/18/14 11/19/11
f 11/19/11 14/18/14 15/20/15
f 11/19/11 15/20/15 6/7/6
f 6/7/6 15/20/15 7/8/7
f 15/20/15 16/21/16 7/8/7
f 7/8/7 16/21/16 17/22/17
f 14/18/14 18/23/18 15/20/15
f 15/20/15 18/23/18 16/21/16
f 18/23/18 19/24/19 16/21/16
f 16/21/16 19/24/19 20/25/20
f 16/21/16 20/25/20 17/22/17
f 17/22/17 20/25/20 21/26/21
f 8/10/8 22/27/22 9/12/9
f 9/12/9 22/27/22 23/28/23
f 7/8/7 17/22/17 8/10/8
f 8/10/8 17/22/17 22/27/22
f 17/22/17 21/26/21 22/27/22
f 22/27/22 21/26/21 24/29/24
f 22/27/22 24/29/24 23/28/23
f 23/28/23 24/29/24 25/30/25
f 26/31/26 27/32/27 28/33/28
f 28/33/28 27/32/27 29/34/29
f 27/32/27 30/35/30 29/34/29
f 29/34/29 30/35/30 31/36/31
f 29/34/29 31/36/31 32/37/32
f 32/37/32 31/36/31 33/38/33
f 28/33/28 29/34/29 34/39/34
f 34/39/34 29/34/29 32/37/32
f 30/35/30 35/40/35 31/36/31
f 31/36/31 35/40/35 36/41/36
f 35/40/35 37/42/37 36/41/36
f 36/41/36 37/42/37 38/43/38
f 36/41/36 38/43/38 39/44/39
f 39/44/39 38/43/38 40/45/40
f 31/36/31 36/41/36 33/38/33
f 33/38/33 36/41/36 39/44/39
f 33/38/33 39/44/39 41/46/41
f 41/46/41 39/44/39 42/47/42
f 40/45/40 43/48/43 39/44/39
f 39/44/39 43/48/43 42/47/42
f 43/48/43 44/49/44 42/47/42
f 42/47/42 44/49/44 45/50/45
f 42/47/42 45/50/45 41/46/41
f 41/46/41 45/50/45 46/51/46
f 34/39/34 32/37/32 47/52/47
f 47/52/47 32/37/32 48/53/48
f 32/37/32 33/38/33 48/53/48
f 48/53/48 33/38/33 41/46/41
f 41/46/41 46/51/46 48/53/48
f 48/53/48 46/51/46 49/54/49
f 48/53/48 49/54/49 47/52/47
f 47/52/47 49/54/49 50/55/50
f 51/56/51 52/57/52 53/58/53
f 53/58/53 52/57/52 54/59/54
f 52/57/52 55/60/55 54/59/54
f 54/59/54 55/60/55 56/61/56
f 54/59/54 56/61/56 57/62/57
f 57/62/57 56/61/56 58/63/58
f 54/59/54 57/62/57 53/58/53
f 53/58/53 57/62/57 59/64/59
f 55/60/55 60/65/60 56/61/56
f 56/61/56 60/65/60 61/66/61
f 60/65/60 62/67/62 61/66/61
f 61/66/61 62/67/62 63/68/63
f 61/66/61 63/68/63 64/69/64
f 64/69/64 63/68/63 65/70/65
f 56/61/56 61/66/61 58/63/58
f 58/63/58 61/66/61 64/69/64
f 64/69/64 66/71/66 58/63/58
f 58/63/58 66/71/66 67/72/67
f 65/70/65 68/73/68 64/69/64
f 64/69/64 68/73/68 66/71/66
f 66/74/66 68/75/68 69/76/69
f 69/76/69 68/75/68 70/77/70
f 67/78/67 66/74/66 71/79/71
f 71/79/71 66/74/66 69/76/69
f 57/62/57 72/80/72 59/64/59
f 59/64/59 72/80/72 73/81/73
f 58/63/58 67/72/67 57/62/57
f 57/62/57 67/72/67 72/80/72
f 67/78/67 71/79/71 72/82/72
f 72/82/72 71/79/71 74/83/74
f 72/82/72 74/83/74 73/84/73
f 73/84/73 74/83/74 75/85/75
f 75/85/75 74/83/74 76/86/76
f 76/86/76 74/83/74 77/87/77
f 71/79/71 78/88/78 74/83/74
f 74/83/74 78/88/78 77/87/77
f 78/88/78 79/89/79 77/87/77
f 77/87/77 79/89/79 80/90/80
f 77/87/77 80/90/80 76/86/76
f 76/86/76 80/90/80 81/91/81
f 71/79/71 69/76/69 78/88/78
f 78/88/78 69/76/69 82/92/82
f 69/76/69 70/77/70 82/92/82
f 82/92/82 70/77/70 83/93/83
f 83/93/83 84/94/84 82/92/82
f 82/92/82 84/94/84 85/95/85
f 82/92/82 85/95/85 78/88/78
f 78/88/78 85/95/85 79/89/79
f 85/95/85 86/96/86 79/89/79
f 79/89/79 86/96/86 87/97/87
f 84/94/84 88/98/88 85/95/85
f 85/95/85 88/98/88 86/96/86
f 88/98/88 12/15/12 86/96/86
f 86/96/86 12/15/12 10/13/10
f 86/96/86 10/13/10 87/97/87
f 87/97/87 10/13/10 5/5/5
f 80/90/80 89/99/89 81/91/81
f 81/91/81 89/99/89 90/100/90
f 79/89/79 87/97/87 80/90/80
f 80/90/80 87/97/87 89/99/89
f 87/97/87 5/5/5 89/99/89
f 89/99/89 5/5/5 1/1/1
f 89/99/89 1/1/1 90/100/90
f 90/100/90 1/1/1 3/3/3
f 12/15/12 88/98/88 13/16/13
f 13/16/13 88/98/88 91/101/91
f 88/98/88 84/94/84 91/101/91
f 91/101/91 84/94/84 92/102/92
f 91/103/91 92/104/92 93/105/93
f 93/105/93 92/104/92 94/106/94
f 91/103/91 93/105/93 13/17/13
f 13/17/13 93/105/93 14/18/14
f 84/94/84 83/93/83 92/102/92
f 92/102/92 83/93/83 95/107/95
f 83/93/83 70/77/70 95/107/95
f 95/107/95 70/77/70 68/75/68
f 95/108/95 68/73/68 96/109/96
f 96/109/96 68/73/68 65/70/65
f 92/104/92 95/108/95 94/106/94
f 94/106/94 95/108/95 96/109/96
f 94/106/94 96/109/96 97/110/97
f 97/110/97 96/109/96 98/111/98
f 96/109/96 65/70/65 98/111/98
f 98/111/98 65/70/65 63/68/63
f 63/68/63 62/67/62 98/111/98
f 98/111/98 62/67/62 99/112/99
f 98/111/98 99/112/99 97/110/97
f 97/110/97 99/112/99 100/113/100
f 93/105/93 101/114/101 14/18/14
f 14/18/14 101/114/101 18/23/18
f 94/106/94 97/110/97 93/105/93
f 93/105/93 97/110/97 101/114/101
f 97/110/97 100/113/100 101/114/101
f 101/114/101 100/113/100 102/115/102
f 101/114/101 102/115/102 18/23/18
f 18/23/18 102/115/102 19/24/19
f 75/85/75 103/116/103 73/84/73
f 73/84/73 103/116/103 104/117/104
f 103/116/103 105/118/105 104/117/104
f 104/117/104 105/118/105 106/119/106
f 104/120/104 106/121/106 107/122/107
f 107/122/107 106/121/106 108/123/108
f 73/81/73 104/120/104 59/64/59
f 59/64/59 104/120/104 107/122/107
f 109/124/109 110/125/110 105/118/105
f 105/118/105 110/125/110 106/119/106
f 111/126/111 112/127/112 109/124/109
f 109/124/109 112/127/112 110/125/110
f 110/128/110 112/129/112 113/130/113
f 113/130/113 112/129/112 114/131/114
f 106/121/106 110/128/110 108/123/108
f 108/123/108 110/128/110 113/130/113
f 113/130/113 115/132/115 108/123/108
f 108/123/108 115/132/115 116/133/116
f 114/131/114 117/134/117 113/130/113
f 113/130/113 117/134/117 115/132/115
f 117/134/117 118/135/118 115/132/115
f 115/132/115 118/135/118 119/136/119
f 115/132/115 119/136/119 116/133/116
f 116/133/116 119/136/119 120/137/120
f 59/64/59 107/122/107 53/58/53
f 53/58/53 107/122/107 121/138/121
f 108/123/108 116/133/116 107/122/107
f 107/122/107 116/133/116 121/138/121
f 116/133/116 120/137/120 121/138/121
f 121/138/121 120/137/120 122/139/122
f 121/138/121 122/139/122 53/58/53
f 53/58/53 122/139/122 51/56/51
f 50/55/50 123/140/123 124/141/124
f 124/141/124 123/140/123 125/142/125
f 123/140/123 126/143/126 125/142/125
f 125/142/125 126/143/126 127/144/127
f 127/144/127 128/145/128 125/142/125
f 125/142/125 128/145/128 129/146/129
f 125/142/125 129/146/129 124/141/124
f 124/141/124 129/146/129 130/147/130
f 126/143/126 131/148/131 127/144/127
f 127/144/127 131/148/131 132/149/132
f 131/148/131 133/150/133 132/149/132
f 132/149/132 133/150/133 134/151/134
f 132/149/132 134/151/134 135/152/135
f 135/152/135 134/151/134 136/153/136
f 132/149/132 135/152/135 127/144/127
f 127/144/127 135/152/135 128/145/128
f 135/152/135 137/154/137 128/145/128
f 128/145/128 137/154/137 138/155/138
f 136/153/136 139/156/139 135/152/135
f 135/152/135 139/156/139 137/154/137
f 139/156/139 140/157/140 137/154/137
f 137/154/137 140/157/140 141/158/141
f 137/154/137 141/158/141 138/155/138
f 138/155/138 141/158/141 142/159/142
f 129/146/129 143/160/143 130/147/130
f 130/147/130 143/160/143 144/161/144
f 128/145/128 138/155/138 129/146/129
f 129/146/129 138/155/138 143/160/143
f 138/155/138 142/159/142 143/160/143
f 143/160/143 142/159/142 145/162/145
f 143/160/143 145/162/145 144/161/144
f 144/161/144 145/162/145 146/163/146
f 147/164/147 148/165/148 149/166/149
f 149/166/149 148/165/148 150/167/150
f 148/165/148 151/168/151 150/167/150
f 150/167/150 151/168/151 152/169/152
f 150/167/150 152/169/152 153/170/153
f 153/170/153 152/169/152 154/171/154
f 149/166/149 150/167/150 155/172/155
f 155/172/155 150/167/150 153/170/153
f 151/168/151 156/173/156 152/169/152
f 152/169/152 156/173/156 157/174/157
f 156/173/156 158/175/158 157/174/157
f 157/174/157 158/175/158 159/176/159
f 157/174/157 159/176/159 160/177/160
f 160/177/160 159/176/159 161/178/161
f 152/169/152 157/174/157 154/171/154
f 154/171/154 157/174/157 160/177/160
f 154/171/154 160/177/160 162/179/162
f 162/179/162 160/177/160 163/180/163
f 160/177/160 161/178/161 163/180/163
f 163/180/163 161/178/161 164/181/164
f 163/182/163 164/183/164 165/184/165
f 165/184/165 164/183/164 166/185/166
f 162/186/162 163/182/163 167/187/167
f 167/187/167 163/182/163 165/184/165
f 155/172/155 153/170/153 168/188/168
f 168/188/168 153/170/153 169/189/169
f 153/170/153 154/171/154 169/189/169
f 169/189/169 154/171/154 162/179/162
f 169/190/169 162/186/162 170/191/170
f 170/191/170 162/186/162 167/187/167
f 168/192/168 169/190/169 171/193/171
f 171/193/171 169/190/169 170/191/170
f 171/193/171 170/191/170 172/194/172
f 172/194/172 170/191/170 173/195/173
f 170/191/170 167/187/167 173/195/173
f 173/195/173 167/187/167 174/196/174
f 173/195/173 174/196/174 175/197/175
f 175/197/175 174/196/174 176/198/176
f 172/194/172 173/195/173 177/199/177
f 177/199/177 173/195/173 175/197/175
f 167/187/167 165/184/165 174/196/174
f 174/196/174 165/184/165 178/200/178
f 165/184/165 166/185/166 178/200/178
f 178/200/178 166/185/166 179/201/179
f 178/200/178 179/201/179 180/202/180
f 180/202/180 179/201/179 181/203/181
f 174/196/174 178/200/178 176/198/176
f 176/198/176 178/200/178 180/202/180
f 176/198/176 180/202/180 182/204/182
f 182/204/182 180/202/180 183/205/183
f 180/202/180 181/203/181 183/205/183
f 183/205/183 181/203/181 184/206/184
f 184/206/184 111/126/111 183/205/183
f 183/205/183 111/126/111 109/124/109
f 183/205/183 109/124/109 182/204/182
f 182/204/182 109/124/109 105/118/105
f 177/199/177 175/197/175 185/207/185
f 185/207/185 175/197/175 186/208/186
f 175/197/175 176/198/176 186/208/186
f 186/208/186 176/198/176 182/204/182
f 186/208/186 182/204/182 103/116/103
f 103/116/103 182/204/182 105/118/105
f 186/208/186 103/116/103 185/207/185
f 185/207/185 103/116/103 75/85/75
f 184/206/184 187/209/187 111/126/111
f 111/126/111 187/209/187 112/127/112
f 181/203/181 188/210/188 184/206/184
f 184/206/184 188/210/188 187/209/187
f 188/211/188 189/212/189 187/213/187
f 187/213/187 189/212/189 190/214/190
f 187/213/187 190/214/190 112/129/112
f 112/129/112 190/214/190 114/131/114
f 179/201/179 191/215/191 181/203/181
f 181/203/181 191/215/191 188/210/188
f 166/185/166 164/183/164 179/201/179
f 179/201/179 164/183/164 191/215/191
f 191/216/191 164/181/164 192/217/192
f 192/217/192 164/181/164 161/178/161
f 191/216/191 192/217/192 188/211/188
f 188/211/188 192/217/192 189/212/189
f 189/212/189 192/217/192 193/218/193
f 193/218/193 192/217/192 194/219/194
f 192/217/192 161/178/161 194/219/194
f 194/219/194 161/178/161 159/176/159
f 194/219/194 159/176/159 195/220/195
f 195/220/195 159/176/159 158/175/158
f 193/218/193 194/219/194 196/221/196
f 196/221/196 194/219/194 195/220/195
f 190/214/190 197/222/197 114/131/114
f 114/131/114 197/222/197 117/134/117
f 189/212/189 193/218/193 190/214/190
f 190/214/190 193/218/193 197/222/197
f 197/222/197 193/218/193 198/223/198
f 198/223/198 193/218/193 196/221/196
f 117/134/117 197/222/197 118/135/118
f 118/135/118 197/222/197 198/223/198
f 50/55/50 124/141/124 47/52/47
f 47/52/47 124/141/124 199/224/199
f 124/141/124 130/147/130 199/224/199
f 199/224/199 130/147/130 200/225/200
f 199/224/199 200/225/200 201/226/201
f 201/226/201 200/225/200 202/227/202
f 47/52/47 199/224/199 34/39/34
f 34/39/34 199/224/199 201/226/201
f 130/147/130 144/161/144 200/225/200
f 200/225/200 144/161/144 203/228/203
f 144/161/144 146/163/146 203/228/203
f 203/228/203 146/163/146 204/229/204
f 203/228/203 204/229/204 205/230/205
f 205/230/205 204/229/204 206/231/206
f 200/225/200 203/228/203 202/227/202
f 202/227/202 203/228/203 205/230/205
f 202/227/202 205/230/205 207/232/207
f 207/232/207 205/230/205 208/233/208
f 205/230/205 206/231/206 208/233/208
f 208/233/208 206/231/206 209/234/209
f 209/234/209 210/235/210 208/233/208
f 208/233/208 210/235/210 211/236/211
f 207/232/207 208/233/208 212/237/212
f 212/237/212 208/233/208 211/236/211
f 34/39/34 201/226/201 28/33/28
f 28/33/28 201/226/201 213/238/213
f 201/226/201 202/227/202 213/238/213
f 213/238/213 202/227/202 207/232/207
f 213/238/213 207/232/207 214/239/214
f 214/239/214 207/232/207 212/237/212
f 28/33/28 213/238/213 26/31/26
f 26/31/26 213/238/213 214/239/214
f 215/240/215 216/241/216 217/242/217
f 217/242/217 216/241/216 218/243/218
f 215/240/215 219/244/219 216/241/216
f 216/241/216 219/244/219 220/245/220
f 216/241/216 220/245/220 221/246/221
f 221/246/221 220/245/220 222/247/222
f 218/243/218 216/241/216 223/248/223
f 223/248/223 216/241/216 221/246/221
f 219/244/219 224/249/224 220/245/220
f 220/245/220 224/249/224 225/250/225
f 224/249/224 171/193/171 225/250/225
f 225/250/225 171/193/171 172/194/172
f 225/250/225 172/194/172 226/251/226
f 226/251/226 172/194/172 177/199/177
f 220/245/220 225/250/225 222/247/222
f 222/247/222 225/250/225 226/251/226
f 222/247/222 226/251/226 227/252/227
f 227/252/227 226/251/226 228/253/228
f 226/251/226 177/199/177 228/253/228
f 228/253/228 177/199/177 185/207/185
f 228/253/228 185/207/185 76/86/76
f 76/86/76 185/207/185 75/85/75
f 227/252/227 228/253/228 81/91/81
f 81/91/81 228/253/228 76/86/76
f 223/248/223 221/246/221 229/254/229
f 229/254/229 221/246/221 230/255/230
f 221/246/221 222/247/222 230/255/230
f 230/255/230 222/247/222 227/252/227
f 230/255/230 227/252/227 90/100/90
f 90/100/90 227/252/227 81/91/81
f 229/254/229 230/255/230 3/3/3
f 3/3/3 230/255/230 90/100/90
f 231/256/231 232/257/232 217/242/217
f 217/242/217 232/257/232 215/240/215
f 233/258/233 234/259/234 231/260/231
f 231/260/231 234/259/234 232/261/232
f 234/259/234 235/262/235 232/261/232
f 232/261/232 235/262/235 236/263/236
f 232/257/232 236/264/236 215/240/215
f 215/240/215 236/264/236 219/244/219
f 237/265/237 238/266/238 233/258/233
f 233/258/233 238/266/238 234/259/234
f 237/265/237 239/267/239 238/266/238
f 238/266/238 239/267/239 240/268/240
f 238/266/238 240/268/240 241/269/241
f 241/269/241 240/268/240 242/270/242
f 238/266/238 241/269/241 234/259/234
f 234/259/234 241/269/241 235/262/235
f 241/269/241 243/271/243 235/262/235
f 235/262/235 243/271/243 244/272/244
f 241/269/241 242/270/242 243/271/243
f 243/271/243 242/270/242 245/273/245
f 243/271/243 245/273/245 149/166/149
f 149/166/149 245/273/245 147/164/147
f 243/271/243 149/166/149 244/272/244
f 244/272/244 149/166/149 155/172/155
f 236/264/236 246/274/246 219/244/219
f 219/244/219 246/274/246 224/249/224
f 235/262/235 244/272/244 236/263/236
f 236/263/236 244/272/244 246/275/246
f 244/272/244 155/172/155 246/275/246
f 246/275/246 155/172/155 168/188/168
f 246/274/246 168/192/168 224/249/224
f 224/249/224 168/192/168 171/193/171
f 3/3/3 4/4/4 229/254/229
f 229/254/229 4/4/4 247/276/247
f 4/11/4 9/12/9 247/277/247
f 247/277/247 9/12/9 248/278/248
f 247/277/247 248/278/248 249/279/249
f 249/279/249 248/278/248 250/280/250
f 229/254/229 247/276/247 223/248/223
f 223/248/223 247/276/247 249/281/249
f 9/12/9 23/28/23 248/278/248
f 248/278/248 23/28/23 251/282/251
f 25/30/25 252/283/252 23/28/23
f 23/28/23 252/283/252 251/282/251
f 252/283/252 253/284/253 251/282/251
f 251/282/251 253/284/253 254/285/254
f 248/278/248 251/282/251 250/280/250
f 250/280/250 251/282/251 254/285/254
f 250/280/250 254/285/254 255/286/255
f 255/286/255 254/285/254 256/287/256
f 253/284/253 257/288/257 254/285/254
f 254/285/254 257/288/257 256/287/256
f 257/288/257 239/267/239 256/287/256
f 256/287/256 239/267/239 237/265/237
f 255/286/255 256/287/256 233/258/233
f 233/258/233 256/287/256 237/265/237
f 223/248/223 249/281/249 218/243/218
f 218/243/218 249/281/249 258/289/258
f 249/279/249 250/280/250 258/290/258
f 258/290/258 250/280/250 255/286/255
f 258/290/258 255/286/255 231/260/231
f 231/260/231 255/286/255 233/258/233
f 218/243/218 258/289/258 217/242/217
f 217/242/217 258/289/258 231/256/231
f 24/291/24 259/292/259 25/293/25
f 25/293/25 259/292/259 260/294/260
f 21/295/21 261/296/261 24/291/24
f 24/291/24 261/296/261 259/292/259
f 261/296/261 262/297/262 259/292/259
f 259/292/259 262/297/262 263/298/263
f 259/292/259 263/298/263 260/294/260
f 260/294/260 263/298/263 264/299/264
f 20/300/20 265/301/265 21/295/21
f 21/295/21 265/301/265 261/296/261
f 19/302/19 266/303/266 20/300/20
f 20/300/20 266/303/266 265/301/265
f 266/303/266 267/304/267 265/301/265
f 265/301/265 267/304/267 268/305/268
f 265/301/265 268/305/268 261/296/261
f 261/296/261 268/305/268 262/297/262
f 268/305/268 269/306/269 262/297/262
f 262/297/262 269/306/269 270/307/270
f 267/304/267 271/308/271 268/305/268
f 268/305/268 271/308/271 269/306/269
f 271/308/271 272/309/272 269/306/269
f 269/306/269 272/309/272 273/310/273
f 269/306/269 273/310/273 270/307/270
f 270/307/270 273/310/273 274/311/274
f 263/298/263 275/312/275 264/299/264
f 264/299/264 275/312/275 276/313/276
f 262/297/262 270/307/270 263/298/263
f 263/298/263 270/307/270 275/312/275
f 270/307/270 274/311/274 275/312/275
f 275/312/275 274/311/274 277/314/277
f 275/312/275 277/314/277 276/313/276
f 276/313/276 277/314/277 278/315/278
f 102/316/102 279/317/279 19/302/19
f 19/302/19 279/317/279 266/303/266
f 100/318/100 280/319/280 102/316/102
f 102/316/102 280/319/280 279/317/279
f 280/319/280 281/320/281 279/317/279
f 279/317/279 281/320/281 282/321/282
f 279/317/279 282/321/282 266/303/266
f 266/303/266 282/321/282 267/304/267
f 99/322/99 283/323/283 100/318/100
f 100/318/100 283/323/283 280/319/280
f 62/324/62 284/325/284 99/322/99
f 99/322/99 284/325/284 283/323/283
f 284/325/284 285/326/285 283/323/283
f 283/323/283 285/326/285 286/327/286
f 283/323/283 286/327/286 280/319/280
f 280/319/280 286/327/286 281/320/281
f 286/327/286 287/328/287 281/320/281
f 281/320/281 287/328/287 288/329/288
f 285/326/285 289/330/289 286/327/286
f 286/327/286 289/330/289 287/328/287
f 289/330/289 290/331/290 287/328/287
f 287/328/287 290/331/290 291/332/291
f 287/328/287 291/332/291 288/329/288
f 288/329/288 291/332/291 292/333/292
f 282/321/282 293/334/293 267/304/267
f 267/304/267 293/334/293 271/308/271
f 281/320/281 288/329/288 282/321/282
f 282/321/282 288/329/288 293/334/293
f 288/329/288 292/333/292 293/334/293
f 293/334/293 292/333/292 294/335/294
f 293/334/293 294/335/294 271/308/271
f 271/308/271 294/335/294 272/309/272
f 62/324/62 60/336/60 284/325/284
f 284/325/284 60/336/60 295/337/295
f 60/336/60 55/338/55 295/337/295
f 295/337/295 55/338/55 296/339/296
f 295/337/295 296/339/296 297/340/297
f 297/340/297 296/339/296 298/341/298
f 284/325/284 295/337/295 285/326/285
f 285/326/285 295/337/295 297/340/297
f 55/338/55 52/342/52 296/339/296
f 296/339/296 52/342/52 299/343/299
f 52/342/52 51/344/51 299/343/299
f 299/343/299 51/344/51 300/345/300
f 299/343/299 300/345/300 301/346/301
f 301/346/301 300/345/300 302/347/302
f 296/339/296 299/343/299 298/341/298
f 298/341/298 299/343/299 301/346/301
f 298/341/298 301/346/301 303/348/303
f 303/348/303 301/346/301 304/349/304
f 301/346/301 302/347/302 304/349/304
f 304/349/304 302/347/302 305/350/305
f 304/349/304 305/350/305 306/351/306
f 306/351/306 305/350/305 307/352/307
f 303/348/303 304/349/304 308/353/308
f 308/353/308 304/349/304 306/351/306
f 285/326/285 297/340/297 289/330/289
f 289/330/289 297/340/297 309/354/309
f 297/340/297 298/341/298 309/354/309
f 309/354/309 298/341/298 303/348/303
f 309/354/309 303/348/303 310/355/310
f 310/355/310 303/348/303 308/353/308
f 289/330/289 309/354/309 290/331/290
f 290/331/290 309/354/309 310/355/310
f 122/356/122 311/357/311 51/344/51
f 51/344/51 311/357/311 300/345/300
f 120/358/120 312/359/312 122/356/122
f 122/356/122 312/359/312 311/357/311
f 312/359/312 313/360/313 311/357/311
f 311/357/311 313/360/313 314/361/314
f 311/357/311 314/361/314 300/345/300
f 300/345/300 314/361/314 302/347/302
f 119/362/119 315/363/315 120/358/120
f 120/358/120 315/363/315 312/359/312
f 118/364/118 316/365/316 119/362/119
f 119/362/119 316/365/316 315/363/315
f 316/365/316 317/366/317 315/363/315
f 315/363/315 317/366/317 318/367/318
f 315/363/315 318/367/318 312/359/312
f 312/359/312 318/367/318 313/360/313
f 318/367/318 319/368/319 313/360/313
f 313/360/313 319/368/319 320/369/320
f 317/366/317 321/370/321 318/367/318
f 318/367/318 321/370/321 319/368/319
f 321/370/321 322/371/322 319/368/319
f 319/368/319 322/371/322 323/372/323
f 319/368/319 323/372/323 320/369/320
f 320/369/320 323/372/323 324/373/324
f 314/361/314 325/374/325 302/347/302
f 302/347/302 325/374/325 305/350/305
f 313/360/313 320/369/320 314/361/314
f 314/361/314 320/369/320 325/374/325
f 320/369/320 324/373/324 325/374/325
f 325/374/325 324/373/324 326/375/326
f 325/374/325 326/375/326 305/350/305
f 305/350/305 326/375/326 307/352/307
f 118/364/118 198/376/198 316/365/316
f 316/365/316 198/376/198 327/377/327
f 198/376/198 196/378/196 327/377/327
f 327/377/327 196/378/196 328/379/328
f 327/377/327 328/379/328 329/380/329
f 329/380/329 328/379/328 330/381/330
f 316/365/316 327/377/327 317/366/317
f 317/366/317 327/377/327 329/380/329
f 196/378/196 195/382/195 328/379/328
f 328/379/328 195/382/195 331/383/331
f 195/382/195 158/384/158 331/383/331
f 331/383/331 158/384/158 332/385/332
f 331/383/331 332/385/332 333/386/333
f 333/386/333 332/385/332 334/387/334
f 328/379/328 331/383/331 330/381/330
f 330/381/330 331/383/331 333/386/333
f 330/381/330 333/386/333 335/388/335
f 335/388/335 333/386/333 336/389/336
f 333/386/333 334/387/334 336/389/336
f 336/389/336 334/387/334 337/390/337
f 336/389/336 337/390/337 338/391/338
f 338/391/338 337/390/337 339/392/339
f 335/388/335 336/389/336 340/393/340
f 340/393/340 336/389/336 338/391/338
f 317/366/317 329/380/329 321/370/321
f 321/370/321 329/380/329 341/394/341
f 329/380/329 330/381/330 341/394/341
f 341/394/341 330/381/330 335/388/335
f 341/394/341 335/388/335 342/395/342
f 342/395/342 335/388/335 340/393/340
f 321/370/321 341/394/341 322/371/322
f 322/371/322 341/394/341 342/395/342
f 158/384/158 156/396/156 332/385/332
f 332/385/332 156/396/156 343/397/343
f 156/396/156 151/398/151 343/397/343
f 343/397/343 151/398/151 344/399/344
f 343/397/343 344/399/344 345/400/345
f 345/400/345 344/399/344 346/401/346
f 332/385/332 343/397/343 334/387/334
f 334/387/334 343/397/343 345/400/345
f 151/398/151 148/402/148 344/399/344
f 344/399/344 148/402/148 347/403/347
f 148/402/148 147/404/147 347/403/347
f 347/403/347 147/404/147 348/405/348
f 347/403/347 348/405/348 349/406/349
f 349/406/349 348/405/348 350/407/350
f 344/399/344 347/403/347 346/401/346
f 346/401/346 347/403/347 349/406/349
f 346/401/346 349/406/349 351/408/351
f 351/408/351 349/406/349 352/409/352
f 349/406/349 350/407/350 352/409/352
f 352/409/352 350/407/350 353/410/353
f 352/409/352 353/410/353 354/411/354
f 354/411/354 353/410/353 355/412/355
f 351/408/351 352/409/352 356/413/356
f 356/413/356 352/409/352 354/411/354
f 334/387/334 345/400/345 337/390/337
f 337/390/337 345/400/345 357/414/357
f 345/400/345 346/401/346 357/414/357
f 357/414/357 346/401/346 351/408/351
f 357/414/357 351/408/351 358/415/358
f 358/415/358 351/408/351 356/413/356
f 337/390/337 357/414/357 339/392/339
f 339/392/339 357/414/357 358/415/358
f 245/416/245 359/417/359 147/404/147
f 147/404/147 359/417/359 348/405/348
f 242/418/242 360/419/360 245/416/245
f 245/416/245 360/419/360 359/417/359
f 360/419/360 361/420/361 359/417/359
f 359/417/359 361/420/361 362/421/362
f 359/417/359 362/421/362 348/405/348
f 348/405/348 362/421/362 350/407/350
f 240/422/240 363/423/363 242/418/242
f 242/418/242 363/423/363 360/419/360
f 239/424/239 364/425/364 240/422/240
f 240/422/240 364/425/364 363/423/363
f 364/425/364 365/426/365 363/423/363
f 363/423/363 365/426/365 366/427/366
f 363/423/363 366/427/366 360/419/360
f 360/419/360 366/427/366 361/420/361
f 366/427/366 367/428/367 361/420/361
f 361/420/361 367/428/367 368/429/368
f 365/426/365 369/430/369 366/427/366
f 366/427/366 369/430/369 367/428/367
f 369/430/369 370/431/370 367/428/367
f 367/428/367 370/431/370 371/432/371
f 367/428/367 371/432/371 368/429/368
f 368/429/368 371/432/371 372/433/372
f 362/421/362 373/434/373 350/407/350
f 350/407/350 373/434/373 353/410/353
f 361/420/361 368/429/368 362/421/362
f 362/421/362 368/429/368 373/434/373
f 368/429/368 372/433/372 373/434/373
f 373/434/373 372/433/372 374/435/374
f 373/434/373 374/435/374 353/410/353
f 353/410/353 374/435/374 355/412/355
f 239/424/239 257/436/257 364/425/364
f 364/425/364 257/436/257 375/437/375
f 257/436/257 253/438/253 375/437/375
f 375/437/375 253/438/253 376/439/376
f 375/437/375 376/439/376 377/440/377
f 377/440/377 376/439/376 378/441/378
f 364/425/364 375/437/375 365/426/365
f 365/426/365 375/437/375 377/440/377
f 253/438/253 252/442/252 376/439/376
f 376/439/376 252/442/252 379/443/379
f 252/442/252 25/293/25 379/443/379
f 379/443/379 25/293/25 260/294/260
f 379/443/379 260/294/260 380/444/380
f 380/444/380 260/294/260 264/299/264
f 376/439/376 379/443/379 378/441/378
f 378/441/378 379/443/379 380/444/380
f 378/441/378 380/444/380 381/445/381
f 381/445/381 380/444/380 382/446/382
f 380/444/380 264/299/264 382/446/382
f 382/446/382 264/299/264 276/313/276
f 382/446/382 276/313/276 383/447/383
f 383/447/383 276/313/276 278/315/278
f 381/445/381 382/446/382 384/448/384
f 384/448/384 382/446/382 383/447/383
f 365/426/365 377/440/377 369/430/369
f 369/430/369 377/440/377 385/449/385
f 377/440/377 378/441/378 385/449/385
f 385/449/385 378/441/378 381/445/381
f 385/449/385 381/445/381 386/450/386
f 386/450/386 381/445/381 384/448/384
f 369/430/369 385/449/385 370/431/370
f 370/431/370 385/449/385 386/450/386
f 277/314/277 387/451/387 278/315/278
f 278/315/278 387/451/387 388/452/388
f 274/311/274 389/453/389 277/314/277
f 277/314/277 389/453/389 387/451/387
f 387/454/387 389/455/389 390/456/390
f 390/456/390 389/455/389 391/457/391
f 388/458/388 387/454/387 392/459/392
f 392/459/392 387/454/387 390/456/390
f 273/310/273 393/460/393 274/311/274
f 274/311/274 393/460/393 389/453/389
f 272/309/272 394/461/394 273/310/273
f 273/310/273 394/461/394 393/460/393
f 394/462/394 395/463/395 393/464/393
f 393/464/393 395/463/395 396/465/396
f 393/464/393 396/465/396 389/455/389
f 389/455/389 396/465/396 391/457/391
f 391/457/391 396/465/396 397/466/397
f 397/466/397 396/465/396 398/467/398
f 395/463/395 399/468/399 396/465/396
f 396/465/396 399/468/399 398/467/398
f 398/467/398 399/468/399 35/40/35
f 35/40/35 399/468/399 37/42/37
f 397/466/397 398/467/398 30/35/30
f 30/35/30 398/467/398 35/40/35
f 392/459/392 390/456/390 400/469/400
f 400/469/400 390/456/390 401/470/401
f 390/456/390 391/457/391 401/470/401
f 401/470/401 391/457/391 397/466/397
f 401/470/401 397/466/397 27/32/27
f 27/32/27 397/466/397 30/35/30
f 400/469/400 401/470/401 26/31/26
f 26/31/26 401/470/401 27/32/27
f 294/335/294 402/471/402 272/309/272
f 272/309/272 402/471/402 394/461/394
f 292/333/292 403/472/403 294/335/294
f 294/335/294 403/472/403 402/471/402
f 403/473/403 404/474/404 402/475/402
f 402/475/402 404/474/404 405/476/405
f 402/475/402 405/476/405 394/462/394
f 394/462/394 405/476/405 395/463/395
f 291/332/291 406/477/406 292/333/292
f 292/333/292 406/477/406 403/472/403
f 290/331/290 407/478/407 291/332/291
f 291/332/291 407/478/407 406/477/406
f 407/479/407 408/480/408 406/481/406
f 406/481/406 408/480/408 409/482/409
f 406/481/406 409/482/409 403/473/403
f 403/473/403 409/482/409 404/474/404
f 409/482/409 410/483/410 404/474/404
f 404/474/404 410/483/410 411/484/411
f 408/480/408 412/485/412 409/482/409
f 409/482/409 412/485/412 410/483/410
f 410/483/410 412/485/412 43/48/43
f 43/48/43 412/485/412 44/49/44
f 410/483/410 43/48/43 411/484/411
f 411/484/411 43/48/43 40/45/40
f 405/476/405 413/486/413 395/463/395
f 395/463/395 413/486/413 399/468/399
f 404/474/404 411/484/411 405/476/405
f 405/476/405 411/484/411 413/486/413
f 411/484/411 40/45/40 413/486/413
f 413/486/413 40/45/40 38/43/38
f 413/486/413 38/43/38 399/468/399
f 399/468/399 38/43/38 37/42/37
f 290/331/290 310/355/310 407/478/407
f 407/478/407 310/355/310 414/487/414
f 310/355/310 308/353/308 414/487/414
f 414/487/414 308/353/308 415/488/415
f 414/489/414 415/490/415 416/491/416
f 416/491/416 415/490/415 417/492/417
f 407/479/407 414/489/414 408/480/408
f 408/480/408 414/489/414 416/491/416
f 308/353/308 306/351/306 415/488/415
f 415/488/415 306/351/306 418/493/418
f 306/351/306 307/352/307 418/493/418
f 418/493/418 307/352/307 419/494/419
f 418/495/418 419/496/419 420/497/420
f 420/497/420 419/496/419 421/498/421
f 415/490/415 418/495/418 417/492/417
f 417/492/417 418/495/418 420/497/420
f 417/492/417 420/497/420 422/499/422
f 422/499/422 420/497/420 423/500/423
f 420/497/420 421/498/421 423/500/423
f 423/500/423 421/498/421 424/501/424
f 423/500/423 424/501/424 49/54/49
f 49/54/49 424/501/424 50/55/50
f 422/499/422 423/500/423 46/51/46
f 46/51/46 423/500/423 49/54/49
f 408/480/408 416/491/416 412/485/412
f 412/485/412 416/491/416 425/502/425
f 416/491/416 417/492/417 425/502/425
f 425/502/425 417/492/417 422/499/422
f 422/499/422 46/51/46 425/502/425
f 425/502/425 46/51/46 45/50/45
f 412/485/412 425/502/425 44/49/44
f 44/49/44 425/502/425 45/50/45
f 326/375/326 426/503/426 307/352/307
f 307/352/307 426/503/426 419/494/419
f 324/373/324 427/504/427 326/375/326
f 326/375/326 427/504/427 426/503/426
f 427/505/427 428/506/428 426/507/426
f 426/507/426 428/506/428 429/508/429
f 426/507/426 429/508/429 419/496/419
f 419/496/419 429/508/429 421/498/421
f 323/372/323 430/509/430 324/373/324
f 324/373/324 430/509/430 427/504/427
f 322/371/322 431/510/431 323/372/323
f 323/372/323 431/510/431 430/509/430
f 431/511/431 432/512/432 430/513/430
f 430/513/430 432/512/432 433/514/433
f 430/513/430 433/514/433 427/505/427
f 427/505/427 433/514/433 428/506/428
f 433/514/433 434/515/434 428/506/428
f 428/506/428 434/515/434 435/516/435
f 432/512/432 436/517/436 433/514/433
f 433/514/433 436/517/436 434/515/434
f 436/517/436 133/150/133 434/515/434
f 434/515/434 133/150/133 131/148/131
f 435/516/435 434/515/434 126/143/126
f 126/143/126 434/515/434 131/148/131
f 429/508/429 437/518/437 421/498/421
f 421/498/421 437/518/437 424/501/424
f 428/506/428 435/516/435 429/508/429
f 429/508/429 435/516/435 437/518/437
f 435/516/435 126/143/126 437/518/437
f 437/518/437 126/143/126 123/140/123
f 437/518/437 123/140/123 424/501/424
f 424/501/424 123/140/123 50/55/50
f 322/371/322 342/395/342 431/510/431
f 431/510/431 342/395/342 438/519/438
f 342/395/342 340/393/340 438/519/438
f 438/519/438 340/393/340 439/520/439
f 438/521/438 439/522/439 440/523/440
f 440/523/440 439/522/439 441/524/441
f 431/511/431 438/521/438 432/512/432
f 432/512/432 438/521/438 440/523/440
f 340/393/340 338/391/338 439/520/439
f 439/520/439 338/391/338 442/525/442
f 338/391/338 339/392/339 442/525/442
f 442/525/442 339/392/339 443/526/443
f 442/527/442 443/528/443 444/529/444
f 444/529/444 443/528/443 445/530/445
f 439/522/439 442/527/442 441/524/441
f 441/524/441 442/527/442 444/529/444
f 441/524/441 444/529/444 446/531/446
f 446/531/446 444/529/444 447/532/447
f 444/529/444 445/530/445 447/532/447
f 447/532/447 445/530/445 448/533/448
f 447/532/447 448/533/448 139/156/139
f 139/156/139 448/533/448 140/157/140
f 446/531/446 447/532/447 136/153/136
f 136/153/136 447/532/447 139/156/139
f 432/512/432 440/523/440 436/517/436
f 436/517/436 440/523/440 449/534/449
f 440/523/440 441/524/441 449/534/449
f 449/534/449 441/524/441 446/531/446
f 449/534/449 446/531/446 134/151/134
f 134/151/134 446/531/446 136/153/136
f 449/534/449 134/151/134 436/517/436
f 436/517/436 134/151/134 133/150/133
f 339/392/339 358/415/358 443/526/443
f 443/526/443 358/415/358 450/535/450
f 358/415/358 356/413/356 450/535/450
f 450/535/450 356/413/356 451/536/451
f 450/537/450 451/538/451 452/539/452
f 452/539/452 451/538/451 453/540/453
f 443/528/443 450/537/450 445/530/445
f 445/530/445 450/537/450 452/539/452
f 356/413/356 354/411/354 451/536/451
f 451/536/451 354/411/354 454/541/454
f 354/411/354 355/412/355 454/541/454
f 454/541/454 355/412/355 455/542/455
f 455/543/455 456/544/456 454/545/454
f 454/545/454 456/544/456 457/546/457
f 454/545/454 457/546/457 451/538/451
f 451/538/451 457/546/457 453/540/453
f 457/546/457 458/547/458 453/540/453
f 453/540/453 458/547/458 459/548/459
f 456/544/456 460/549/460 457/546/457
f 457/546/457 460/549/460 458/547/458
f 460/549/460 146/163/146 458/547/458
f 458/547/458 146/163/146 145/162/145
f 458/547/458 145/162/145 459/548/459
f 459/548/459 145/162/145 142/159/142
f 445/530/445 452/539/452 448/533/448
f 448/533/448 452/539/452 461/550/461
f 453/540/453 459/548/459 452/539/452
f 452/539/452 459/548/459 461/550/461
f 459/548/459 142/159/142 461/550/461
f 461/550/461 142/159/142 141/158/141
f 461/550/461 141/158/141 448/533/448
f 448/533/448 141/158/141 140/157/140
f 355/412/355 374/435/374 455/542/455
f 455/542/455 374/435/374 462/551/462
f 372/433/372 463/552/463 374/435/374
f 374/435/374 463/552/463 462/551/462
f 463/553/463 464/554/464 462/555/462
f 462/555/462 464/554/464 465/556/465
f 462/555/462 465/556/465 455/543/455
f 455/543/455 465/556/465 456/544/456
f 371/432/371 466/557/466 372/433/372
f 372/433/372 466/557/466 463/552/463
f 370/431/370 467/558/467 371/432/371
f 371/432/371 467/558/467 466/557/466
f 467/559/467 468/560/468 466/561/466
f 466/561/466 468/560/468 469/562/469
f 466/561/466 469/562/469 463/553/463
f 463/553/463 469/562/469 464/554/464
f 469/562/469 470/563/470 464/554/464
f 464/554/464 470/563/470 471/564/471
f 468/560/468 472/565/472 469/562/469
f 469/562/469 472/565/472 470/563/470
f 472/565/472 210/235/210 470/563/470
f 470/563/470 210/235/210 209/234/209
f 470/563/470 209/234/209 471/564/471
f 471/564/471 209/234/209 206/231/206
f 465/556/465 473/566/473 456/544/456
f 456/544/456 473/566/473 460/549/460
f 464/554/464 471/564/471 465/556/465
f 465/556/465 471/564/471 473/566/473
f 471/564/471 206/231/206 473/566/473
f 473/566/473 206/231/206 204/229/204
f 473/566/473 204/229/204 460/549/460
f 460/549/460 204/229/204 146/163/146
f 370/431/370 386/450/386 467/558/467
f 467/558/467 386/450/386 474/567/474
f 386/450/386 384/448/384 474/567/474
f 474/567/474 384/448/384 475/568/475
f 474/569/474 475/570/475 476/571/476
f 476/571/476 475/570/475 477/572/477
f 467/559/467 474/569/474 468/560/468
f 468/560/468 474/569/474 476/571/476
f 384/448/384 383/447/383 475/568/475
f 475/568/475 383/447/383 478/573/478
f 383/447/383 278/315/278 478/573/478
f 478/573/478 278/315/278 388/452/388
f 478/574/478 388/458/388 479/575/479
f 479/575/479 388/458/388 392/459/392
f 475/570/475 478/574/478 477/572/477
f 477/572/477 478/574/478 479/575/479
f 477/572/477 479/575/479 480/576/480
f 480/576/480 479/575/479 481/577/481
f 479/575/479 392/459/392 481/577/481
f 481/577/481 392/459/392 400/469/400
f 481/577/481 400/469/400 214/239/214
f 214/239/214 400/469/400 26/31/26
f 480/576/480 481/577/481 212/237/212
f 212/237/212 481/577/481 214/239/214
f 468/560/468 476/571/476 472/565/472
f 472/565/472 476/571/476 482/578/482
f 476/571/476 477/572/477 482/578/482
f 482/578/482 477/572/477 480/576/480
f 482/578/482 480/576/480 211/236/211
f 211/236/211 480/576/480 212/237/212
f 472/565/472 482/578/482 210/235/210
f 210/235/210 482/578/482 211/236/211
s off
