# Apple ModelIO OBJ File: Takoyaki_FillingBoxs
mtllib Takoyaki_FillingBoxs.mtl
g Takoyaki_FillingBoxs_MainSG
v -1.65475 -0.442536 -0.754277
v -1.65475 -0.442536 0.754277
v -1.65475 0.225859 -0.754277
v -1.65475 0.225859 0.754277
v -1.59731 -0.267886 -0.685008
v -1.59731 -0.104043 0.685008
v 1.59731 -0.267886 -0.685008
v 1.59731 -0.104043 0.685008
v 1.65475 0.225859 -0.754277
v 1.65475 0.225859 0.754277
v 1.65475 -0.442536 -0.754277
v 1.65475 -0.442536 0.754277
v -1.59731 0.225859 -0.685008
v -1.59731 0.225859 0.685008
v 1.59731 0.225859 0.685008
v 1.59731 0.225859 -0.685008
vn -1 0 0
vn 0 0.992925 -0.118746
vn 1 0 0
vn 0 0 1
vn 0 0 -1
vn 0 1 0
vn 0 -1 0
vt 0.331312 0.698447
vt 0.104596 0.699542
vt 0.330827 0.598013
vt 0.104107 0.599049
vt 0.740374 0.077814
vt 0.9467 0.077815
vt 0.740371 0.555526
vt 0.9467 0.555527
vt 0.330962 0.104131
vt 0.10411 0.103344
vt 0.331345 0.003633
vt 0.10449 0.002787
vt 0.003968 0.599042
vt 0.003968 0.103359
vt 0.430699 0.104171
vt 0.430561 0.598027
vt 0.320452 0.589435
vt 0.114482 0.590416
vt 0.114491 0.111973
vt 0.320585 0.112712
vt 0.952557 0.028833
vt 0.749138 0.004505
vt 0.996032 0.077816
vt 0.996032 0.555528
vt 0.952557 0.604512
vt 0.749139 0.62884
vt 0.666538 0.55553
vt 0.666537 0.077817
vt 0.655631 0.59805
vt 0.655773 0.104274
usemtl MainSG
f 1/1/1 2/2/1 3/3/1
f 3/3/1 2/2/1 4/4/1
f 5/5/2 6/6/2 7/7/2
f 7/7/2 6/6/2 8/8/2
f 9/9/3 10/10/3 11/11/3
f 11/11/3 10/10/3 12/12/3
f 2/13/4 12/14/4 4/4/4
f 4/4/4 12/14/4 10/10/4
f 11/15/5 1/16/5 9/9/5
f 9/9/5 1/16/5 3/3/5
f 3/3/6 4/4/6 13/17/6
f 13/17/6 4/4/6 14/18/6
f 4/4/6 10/10/6 14/18/6
f 14/18/6 10/10/6 15/19/6
f 10/10/6 9/9/6 15/19/6
f 15/19/6 9/9/6 16/20/6
f 9/9/6 3/3/6 16/20/6
f 16/20/6 3/3/6 13/17/6
f 14/21/3 6/6/3 13/22/3
f 13/22/3 6/6/3 5/5/3
f 14/23/5 15/24/5 6/6/5
f 6/6/5 15/24/5 8/8/5
f 15/25/1 16/26/1 8/8/1
f 8/8/1 16/26/1 7/7/1
f 16/27/4 13/28/4 7/7/4
f 7/7/4 13/28/4 5/5/4
f 2/29/7 1/16/7 12/30/7
f 12/30/7 1/16/7 11/15/7
s off
g Takoyaki_FillingBoxs_ASG
v 0.537055 -0.216124 -0.669627
v 0.537055 -0.052604 0.669635
v 0.537055 0.279016 -0.669627
v 0.537055 0.442536 0.669635
v 0.588658 -0.145427 -0.614048
v 0.588658 0.018093 0.614056
v 1.53226 -0.145427 -0.614048
v 1.53226 0.018093 0.614056
v 1.58386 0.442536 0.669635
v 1.58386 -0.052604 0.669635
v 1.58386 0.279016 -0.669627
v 1.58386 -0.216124 -0.669627
v 0.588658 0.279016 -0.614048
v 0.588658 0.442536 0.614056
v 1.53226 0.442536 0.614056
v 1.53226 0.279016 -0.614048
vn -1 0 0
vn 0 0.991252 -0.131983
vn 1 0 0
vn 0 -0.992629 0.121197
vn 0 0 1
vn 0 0 -1
vn 0 0.991984 -0.126362
vn 0 1 0
vt 0.530965 0.11758
vt 0.526841 0.471539
vt 0.401697 0.131974
vt 0.397719 0.485715
vt 0.648555 0.427373
vt 0.648611 0.111815
vt 0.888881 0.427385
vt 0.888858 0.111851
vt 0.136365 0.485709
vt 0.007282 0.471254
vt 0.133173 0.132014
vt 0.003968 0.117316
vt 0.137199 0.943693
vt 0.137168 0.60931
vt 0.396853 0.943709
vt 0.396891 0.60931
vt 0.133274 0.005181
vt 0.401507 0.005101
vt 0.388134 0.146265
vt 0.384499 0.471409
vt 0.14959 0.47141
vt 0.146729 0.146308
vt 0.541429 0.097601
vt 0.541443 0.413094
vt 0.64858 0.00376
vt 0.888879 0.00376
vt 0.996032 0.097588
vt 0.996024 0.413083
vt 0.888883 0.535447
vt 0.648584 0.535446
usemtl ASG
f 17/31/8 18/32/8 19/33/8
f 19/33/8 18/32/8 20/34/8
f 21/35/9 22/36/9 23/37/9
f 23/37/9 22/36/9 24/38/9
f 25/39/10 26/40/10 27/41/10
f 27/41/10 26/40/10 28/42/10
f 28/43/11 26/44/11 17/45/11
f 17/45/11 26/44/11 18/46/11
f 18/46/12 26/44/12 20/34/12
f 20/34/12 26/44/12 25/39/12
f 28/47/13 17/48/13 27/41/13
f 27/41/13 17/48/13 19/33/13
f 19/33/14 20/34/14 29/49/14
f 29/49/14 20/34/14 30/50/14
f 20/34/15 25/39/15 30/50/15
f 30/50/15 25/39/15 31/51/15
f 25/39/14 27/41/14 31/51/14
f 31/51/14 27/41/14 32/52/14
f 27/41/15 19/33/15 32/52/15
f 32/52/15 19/33/15 29/49/15
f 30/53/10 22/36/10 29/54/10
f 29/54/10 22/36/10 21/35/10
f 30/55/13 31/56/13 22/36/13
f 22/36/13 31/56/13 24/38/13
f 31/57/8 32/58/8 24/38/8
f 24/38/8 32/58/8 23/37/8
f 32/59/12 29/60/12 23/37/12
f 23/37/12 29/60/12 21/35/12
s off
g Takoyaki_FillingBoxs_BSG
v -1.58395 -0.216124 -0.669627
v -1.58395 -0.052604 0.669635
v -1.58395 0.279016 -0.669627
v -1.58395 0.442536 0.669635
v -1.53235 -0.145427 -0.614048
v -1.53235 0.018093 0.614056
v -0.588747 -0.145427 -0.614048
v -0.588747 0.018093 0.614056
v -0.537145 0.442536 0.669635
v -0.537145 -0.052604 0.669635
v -0.537145 0.279016 -0.669627
v -0.537145 -0.216124 -0.669627
v -1.53235 0.279016 -0.614048
v -1.53235 0.442536 0.614056
v -0.588747 0.442536 0.614056
v -0.588747 0.279016 -0.614048
vn -1 0 0
vn 0 0.991252 -0.131983
vn 1 0 0
vn 0 -0.992629 0.121197
vn 0 0 1
vn 0 0 -1
vn 0 0.991984 -0.126362
vn 0 1 0
vt 0.530965 0.11758
vt 0.526841 0.471539
vt 0.401697 0.131974
vt 0.397719 0.485715
vt 0.648555 0.427373
vt 0.648611 0.111815
vt 0.888881 0.427385
vt 0.888858 0.111851
vt 0.136365 0.485709
vt 0.007282 0.471254
vt 0.133173 0.132014
vt 0.003968 0.117316
vt 0.137199 0.943693
vt 0.137168 0.60931
vt 0.396853 0.943709
vt 0.396891 0.60931
vt 0.133274 0.005181
vt 0.401507 0.005101
vt 0.388134 0.146265
vt 0.384499 0.471409
vt 0.14959 0.47141
vt 0.146729 0.146308
vt 0.541429 0.097601
vt 0.541443 0.413094
vt 0.64858 0.00376
vt 0.888879 0.00376
vt 0.996032 0.097588
vt 0.996024 0.413083
vt 0.888883 0.535447
vt 0.648584 0.535446
usemtl BSG
f 33/61/16 34/62/16 35/63/16
f 35/63/16 34/62/16 36/64/16
f 37/65/17 38/66/17 39/67/17
f 39/67/17 38/66/17 40/68/17
f 41/69/18 42/70/18 43/71/18
f 43/71/18 42/70/18 44/72/18
f 44/73/19 42/74/19 33/75/19
f 33/75/19 42/74/19 34/76/19
f 34/76/20 42/74/20 36/64/20
f 36/64/20 42/74/20 41/69/20
f 44/77/21 33/78/21 43/71/21
f 43/71/21 33/78/21 35/63/21
f 35/63/22 36/64/22 45/79/22
f 45/79/22 36/64/22 46/80/22
f 36/64/23 41/69/23 46/80/23
f 46/80/23 41/69/23 47/81/23
f 41/69/22 43/71/22 47/81/22
f 47/81/22 43/71/22 48/82/22
f 43/71/23 35/63/23 48/82/23
f 48/82/23 35/63/23 45/79/23
f 46/83/18 38/66/18 45/84/18
f 45/84/18 38/66/18 37/65/18
f 46/85/21 47/86/21 38/66/21
f 38/66/21 47/86/21 40/68/21
f 47/87/16 48/88/16 40/68/16
f 40/68/16 48/88/16 39/67/16
f 48/89/20 45/90/20 39/67/20
f 39/67/20 45/90/20 37/65/20
s off
g Takoyaki_FillingBoxs_CSG
v -0.525234 -0.216124 -0.669627
v -0.525234 -0.052604 0.669635
v -0.525234 0.279016 -0.669627
v -0.525234 0.442536 0.669635
v -0.473631 -0.145427 -0.614048
v -0.473631 0.018093 0.614056
v 0.469967 -0.145427 -0.614048
v 0.469967 0.018093 0.614056
v 0.521569 0.442536 0.669635
v 0.521569 -0.052604 0.669635
v 0.521569 0.279016 -0.669627
v 0.521569 -0.216124 -0.669627
v -0.473631 0.279016 -0.614048
v -0.473631 0.442536 0.614056
v 0.469967 0.442536 0.614056
v 0.469967 0.279016 -0.614048
vn -1 0 0
vn 0 0.991252 -0.131983
vn 1 0 0
vn 0 -0.992629 0.121197
vn 0 0 1
vn 0 0 -1
vn 0 0.991984 -0.126362
vn 0 1 0
vt 0.530965 0.11758
vt 0.526841 0.471539
vt 0.401697 0.131974
vt 0.397719 0.485715
vt 0.648555 0.427373
vt 0.648611 0.111815
vt 0.888881 0.427385
vt 0.888858 0.111851
vt 0.136365 0.485709
vt 0.007282 0.471254
vt 0.133173 0.132014
vt 0.003968 0.117316
vt 0.137199 0.943693
vt 0.137168 0.60931
vt 0.396853 0.943709
vt 0.396891 0.60931
vt 0.133274 0.005181
vt 0.401507 0.005101
vt 0.388134 0.146265
vt 0.384499 0.471409
vt 0.14959 0.47141
vt 0.146729 0.146308
vt 0.541429 0.097601
vt 0.541443 0.413094
vt 0.64858 0.00376
vt 0.888879 0.00376
vt 0.996032 0.097588
vt 0.996024 0.413083
vt 0.888883 0.535447
vt 0.648584 0.535446
usemtl CSG
f 49/91/24 50/92/24 51/93/24
f 51/93/24 50/92/24 52/94/24
f 53/95/25 54/96/25 55/97/25
f 55/97/25 54/96/25 56/98/25
f 57/99/26 58/100/26 59/101/26
f 59/101/26 58/100/26 60/102/26
f 60/103/27 58/104/27 49/105/27
f 49/105/27 58/104/27 50/106/27
f 50/106/28 58/104/28 52/94/28
f 52/94/28 58/104/28 57/99/28
f 60/107/29 49/108/29 59/101/29
f 59/101/29 49/108/29 51/93/29
f 51/93/30 52/94/30 61/109/30
f 61/109/30 52/94/30 62/110/30
f 52/94/31 57/99/31 62/110/31
f 62/110/31 57/99/31 63/111/31
f 57/99/30 59/101/30 63/111/30
f 63/111/30 59/101/30 64/112/30
f 59/101/31 51/93/31 64/112/31
f 64/112/31 51/93/31 61/109/31
f 62/113/26 54/96/26 61/114/26
f 61/114/26 54/96/26 53/95/26
f 62/115/29 63/116/29 54/96/29
f 54/96/29 63/116/29 56/98/29
f 63/117/24 64/118/24 56/98/24
f 56/98/24 64/118/24 55/97/24
f 64/119/28 61/120/28 55/97/28
f 55/97/28 61/120/28 53/95/28
s off
