# Apple ModelIO OBJ File: AirConditioner_1
mtllib AirConditioner_1.mtl
g AirConditioner_1_AirConditioner_1SG
v -0.995274 -2.43054 3.4618
v -1.29684 -2.30563 3.4618
v -0.995274 -2.43054 -3.4618
v -1.29684 -2.30563 -3.4618
v -1.42176 -2.00406 3.4618
v -1.42176 -2.00406 -3.4618
v -0.995274 -2.00406 3.88828
v -0.995274 -2.30563 3.76337
v 0.995274 -2.00406 3.88828
v 0.995274 -2.30563 3.76337
v 0.995274 -2.43054 3.4618
v -1.29684 -2.00406 3.76337
v -1.42176 2.00405 3.4618
v -1.29684 2.00405 3.76337
v -0.995274 2.00405 3.88828
v 1.42176 -2.00406 3.4618
v 1.29684 -2.30563 3.4618
v 1.42176 -2.00406 -3.4618
v 1.29684 -2.30563 -3.4618
v 0.995274 -2.43054 -3.4618
v 1.29684 -2.00406 3.76337
v 0.995274 2.00405 3.88828
v 1.29684 2.00405 3.76337
v 1.42176 2.00405 3.4618
v -1.29684 2.30562 3.4618
v -1.42176 2.00405 -3.4618
v -1.29684 2.30562 -3.4618
v -0.995274 2.43054 3.4618
v -0.995274 2.43054 -3.4618
v -0.995274 2.30562 3.76337
v 0.995274 2.43054 3.4618
v 0.995274 2.30562 3.76337
v 1.29684 2.30562 3.4618
v 0.995274 2.43054 -3.4618
v 1.29684 2.30562 -3.4618
v 1.42176 2.00405 -3.4618
v -1.29684 2.00405 -3.76337
v -1.29684 -2.00406 -3.76337
v -0.995274 2.00405 -3.88828
v -0.995274 -2.00406 -3.88828
v -0.995274 2.30562 -3.76337
v 0.995274 2.00405 -3.88828
v 0.995274 2.30562 -3.76337
v 1.29684 2.00405 -3.76337
v 0.995274 -2.00406 -3.88828
v 1.29684 -2.00406 -3.76337
v -0.995274 -2.30563 -3.76337
v 0.995274 -2.30563 -3.76337
v -1.24142 -2.2502 3.70794
v 1.24142 -2.2502 3.70794
v -1.24142 2.2502 3.70794
v 1.24142 2.2502 3.70794
v -1.24142 2.2502 -3.70794
v 1.24142 2.2502 -3.70794
v -1.24142 -2.2502 -3.70794
v 1.24142 -2.2502 -3.70794
vn -0.053717 -0.99842 0.016516
vn -0.708739 -0.705383 0.011108
vn -0.053717 -0.99842 -0.016516
vn -0.708739 -0.705383 -0.011108
vn -0.999456 -0.028418 0.016714
vn -0.999456 -0.028418 -0.016714
vn -0.053374 -0.02786 0.998186
vn -0.03926 -0.707788 0.705333
vn 0.053374 -0.02786 0.998186
vn 0.03926 -0.707788 0.705333
vn 0.053717 -0.99842 0.016516
vn -0.71001 -0.020226 0.703901
vn -0.999456 0.028418 0.016714
vn -0.71001 0.020226 0.703901
vn -0.053374 0.02786 0.998186
vn 0.999456 -0.028418 0.016714
vn 0.708739 -0.705383 0.011108
vn 0.999456 -0.028418 -0.016714
vn 0.708739 -0.705383 -0.011108
vn 0.053717 -0.99842 -0.016516
vn 0.71001 -0.020226 0.703901
vn 0.053374 0.02786 0.998186
vn 0.71001 0.020226 0.703901
vn 0.999456 0.028418 0.016714
vn -0.70874 0.705382 0.011108
vn -0.999456 0.028418 -0.016714
vn -0.70874 0.705382 -0.011108
vn -0.053718 0.99842 0.016517
vn -0.053718 0.99842 -0.016517
vn -0.03926 0.707787 0.705334
vn 0.053718 0.99842 0.016517
vn 0.03926 0.707787 0.705334
vn 0.70874 0.705382 0.011108
vn 0.053718 0.99842 -0.016517
vn 0.70874 0.705382 -0.011108
vn 0.999456 0.028418 -0.016714
vn -0.71001 0.020226 -0.703901
vn -0.71001 -0.020226 -0.703901
vn -0.053374 0.02786 -0.998186
vn -0.053374 -0.02786 -0.998186
vn -0.03926 0.707786 -0.705335
vn 0.053374 0.02786 -0.998186
vn 0.03926 0.707786 -0.705335
vn 0.71001 0.020226 -0.703901
vn 0.053374 -0.02786 -0.998186
vn 0.71001 -0.020226 -0.703901
vn -0.03926 -0.707787 -0.705334
vn 0.03926 -0.707787 -0.705334
vn -0.55473 -0.592097 0.584548
vn 0.554729 -0.592097 0.584548
vn -0.554729 0.592097 0.584548
vn 0.554729 0.592097 0.584548
vn -0.554729 0.592097 -0.584549
vn 0.554729 0.592097 -0.584549
vn -0.554729 -0.592097 -0.584549
vn 0.554729 -0.592097 -0.584549
vt 0.373795 0.35787
vt 0.357844 0.357933
vt 0.373942 0.019947
vt 0.358022 0.019871
vt 0.34183 0.357658
vt 0.342101 0.019976
vt 0.341721 0.388978
vt 0.357961 0.388377
vt 0.34131 0.485803
vt 0.357517 0.486555
vt 0.373795 0.373741
vt 0.471232 0.373762
vt 0.470951 0.357846
vt 0.341745 0.373321
vt 0.146917 0.357468
vt 0.146953 0.373117
vt 0.146929 0.388765
vt 0.341152 0.516989
vt 0.357032 0.516775
vt 0.340923 0.852311
vt 0.356736 0.852422
vt 0.486882 0.357936
vt 0.486999 0.019833
vt 0.471066 0.019917
vt 0.341195 0.501401
vt 0.147038 0.485594
vt 0.14711 0.501199
vt 0.147116 0.516792
vt 0.130928 0.357706
vt 0.146737 0.020031
vt 0.13083 0.019936
vt 0.115007 0.357632
vt 0.114916 0.020023
vt 0.11529 0.373571
vt 0.017932 0.357666
vt 0.017652 0.373609
vt 0.130691 0.388113
vt 0.130818 0.486292
vt 0.002014 0.357753
vt 0.017872 0.02003
vt 0.001955 0.019947
vt 0.131229 0.516549
vt 0.130947 0.852257
vt 0.146764 0.852173
vt 0.14656 0.004121
vt 0.34227 0.004062
vt 0.146509 0.996066
vt 0.146656 0.980244
vt 0.341004 0.996174
vt 0.340875 0.980353
vt 0.130816 0.980501
vt 0.14672 0.88381
vt 0.130888 0.883531
vt 0.115194 0.004091
vt 0.017595 0.004095
vt 0.146589 0.867988
vt 0.340921 0.883937
vt 0.341072 0.86812
vt 0.373661 0.003997
vt 0.471334 0.003958
vt 0.356714 0.980624
vt 0.356749 0.883676
vt 0.35505 0.373031
vt 0.360318 0.371386
vt 0.484541 0.371269
vt 0.354399 0.501801
vt 0.128577 0.371045
vt 0.133672 0.372789
vt 0.133891 0.501564
vt 0.004334 0.371106
vt 0.133268 0.993721
vt 0.133284 0.006655
vt 0.128494 0.006611
vt 0.133399 0.865472
vt 0.133376 0.87033
vt 0.004291 0.006597
vt 0.360349 0.006515
vt 0.355553 0.006576
vt 0.354246 0.993836
vt 0.354258 0.865622
vt 0.484662 0.006441
vt 0.354279 0.870472
usemtl AirConditioner_1SG
f 1/1/1 2/2/2 3/3/3
f 3/3/3 2/2/2 4/4/4
f 2/2/2 5/5/5 4/4/4
f 4/4/4 5/5/5 6/6/6
f 7/7/7 8/8/8 9/9/9
f 9/9/9 8/8/8 10/10/10
f 8/11/8 1/1/1 10/12/10
f 10/12/10 1/1/1 11/13/11
f 5/5/5 12/14/12 13/15/13
f 13/15/13 12/14/12 14/16/14
f 12/14/12 7/7/7 14/16/14
f 14/16/14 7/7/7 15/17/15
f 16/18/16 17/19/17 18/20/18
f 18/20/18 17/19/17 19/21/19
f 17/22/17 11/13/11 19/23/19
f 19/23/19 11/13/11 20/24/20
f 9/9/9 21/25/21 22/26/22
f 22/26/22 21/25/21 23/27/23
f 21/25/21 16/18/16 23/27/23
f 23/27/23 16/18/16 24/28/24
f 13/15/13 25/29/25 26/30/26
f 26/30/26 25/29/25 27/31/27
f 25/29/25 28/32/28 27/31/27
f 27/31/27 28/32/28 29/33/29
f 28/32/28 30/34/30 31/35/31
f 31/35/31 30/34/30 32/36/32
f 30/37/30 15/17/15 32/38/32
f 32/38/32 15/17/15 22/26/22
f 31/35/31 33/39/33 34/40/34
f 34/40/34 33/39/33 35/41/35
f 33/42/33 24/28/24 35/43/35
f 35/43/35 24/28/24 36/44/36
f 26/30/26 37/45/37 6/6/6
f 6/6/6 37/45/37 38/46/38
f 37/47/37 39/48/39 38/49/38
f 38/49/38 39/48/39 40/50/40
f 39/48/39 41/51/41 42/52/42
f 42/52/42 41/51/41 43/53/43
f 41/54/41 29/33/29 43/55/43
f 43/55/43 29/33/29 34/40/34
f 42/52/42 44/56/44 45/57/45
f 45/57/45 44/56/44 46/58/46
f 44/56/44 36/44/36 46/58/46
f 46/58/46 36/44/36 18/20/18
f 3/3/3 47/59/47 20/24/20
f 20/24/20 47/59/47 48/60/48
f 47/61/47 40/50/40 48/62/48
f 48/62/48 40/50/40 45/57/45
f 7/7/7 9/9/9 15/17/15
f 15/17/15 9/9/9 22/26/22
f 28/32/28 31/35/31 29/33/29
f 29/33/29 31/35/31 34/40/34
f 39/48/39 42/52/42 40/50/40
f 40/50/40 42/52/42 45/57/45
f 3/3/3 20/24/20 1/1/1
f 1/1/1 20/24/20 11/13/11
f 16/18/16 18/20/18 24/28/24
f 24/28/24 18/20/18 36/44/36
f 6/6/6 5/5/5 26/30/26
f 26/30/26 5/5/5 13/15/13
f 5/5/5 2/2/2 12/14/12
f 12/14/12 2/2/2 49/63/49
f 2/2/2 1/1/1 49/64/49
f 49/64/49 1/1/1 8/11/8
f 8/8/8 7/7/7 49/63/49
f 49/63/49 7/7/7 12/14/12
f 10/12/10 11/13/11 50/65/50
f 50/65/50 11/13/11 17/22/17
f 16/18/16 21/25/21 17/19/17
f 17/19/17 21/25/21 50/66/50
f 21/25/21 9/9/9 50/66/50
f 50/66/50 9/9/9 10/10/10
f 30/34/30 28/32/28 51/67/51
f 51/67/51 28/32/28 25/29/25
f 13/15/13 14/16/14 25/29/25
f 25/29/25 14/16/14 51/68/51
f 14/16/14 15/17/15 51/68/51
f 51/68/51 15/17/15 30/37/30
f 24/28/24 33/42/33 23/27/23
f 23/27/23 33/42/33 52/69/52
f 33/39/33 31/35/31 52/70/52
f 52/70/52 31/35/31 32/36/32
f 32/38/32 22/26/22 52/69/52
f 52/69/52 22/26/22 23/27/23
f 41/51/41 39/48/39 53/71/53
f 53/71/53 39/48/39 37/47/37
f 26/30/26 27/31/27 37/45/37
f 37/45/37 27/31/27 53/72/53
f 27/31/27 29/33/29 53/73/53
f 53/73/53 29/33/29 41/54/41
f 36/44/36 44/56/44 35/43/35
f 35/43/35 44/56/44 54/74/54
f 44/56/44 42/52/42 54/75/54
f 54/75/54 42/52/42 43/53/43
f 43/55/43 34/40/34 54/76/54
f 54/76/54 34/40/34 35/41/35
f 47/59/47 3/3/3 55/77/55
f 55/77/55 3/3/3 4/4/4
f 6/6/6 38/46/38 4/4/4
f 4/4/4 38/46/38 55/78/55
f 38/49/38 40/50/40 55/79/55
f 55/79/55 40/50/40 47/61/47
f 18/20/18 19/21/19 46/58/46
f 46/58/46 19/21/19 56/80/56
f 19/23/19 20/24/20 56/81/56
f 56/81/56 20/24/20 48/60/48
f 48/62/48 45/57/45 56/82/56
f 56/82/56 45/57/45 46/58/46
s off
