# Apple ModelIO OBJ File: Tube_2
mtllib Tube_2.mtl
g Tube_2_Tube_2SG
v 0.318567 -4.03458 1.6011
v 0.162352 -3.84261 1.50424
v 0.318567 -5.60847 -1.51807
v 0.162352 -5.4165 -1.61493
v 0.162352 -3.60533 1.38451
v 0.162352 -5.17923 -1.73466
v 0.318567 -3.41337 1.28765
v 0.318567 -4.98726 -1.83152
v 0.571337 -3.34005 1.25065
v 0.571337 -4.91394 -1.86852
v 0.824102 -3.41337 1.28765
v 0.824102 -4.98726 -1.83152
v 0.980322 -3.60533 1.38451
v 0.980322 -5.17923 -1.73466
v 0.980322 -3.84261 1.50424
v 0.980322 -5.4165 -1.61493
v 0.824102 -4.03458 1.6011
v 0.824102 -5.60847 -1.51807
v 0.571337 -4.1079 1.6381
v 0.571337 -5.68179 -1.48107
v 0.318567 -10.9555 -2.72964
v 0.162352 -10.9555 -2.51462
v 0.318567 -6.38284 -2.72964
v 0.162352 -6.38284 -2.51462
v 0.162352 -10.9555 -2.24885
v 0.162352 -6.38284 -2.24885
v 0.318567 -10.9555 -2.03383
v 0.318567 -6.38284 -2.03383
v 0.571337 -10.9555 -1.9517
v 0.571337 -6.38284 -1.9517
v 0.824102 -10.9555 -2.03383
v 0.824102 -6.38284 -2.03383
v 0.980322 -10.9555 -2.24885
v 0.980322 -6.38284 -2.24885
v 0.980322 -10.9555 -2.51462
v 0.980322 -6.38284 -2.51462
v 0.824102 -10.9555 -2.72964
v 0.824102 -6.38284 -2.72964
v 0.571337 -10.9555 -2.81177
v 0.571337 -6.38284 -2.81177
v 0.318567 9.41803 2.72964
v 0.162352 9.41803 2.51462
v 0.318567 -2.63899 2.72964
v 0.162352 -2.63899 2.51462
v 0.162352 9.41803 2.24885
v 0.162352 -2.63899 2.24885
v 0.318567 9.41803 2.03383
v 0.318567 -2.63899 2.03383
v 0.571337 9.41803 1.9517
v 0.571337 -2.63899 1.9517
v 0.824102 9.41803 2.03383
v 0.824102 -2.63899 2.03383
v 0.980322 9.41803 2.24885
v 0.980322 -2.63899 2.24885
v 0.980322 9.41803 2.51462
v 0.980322 -2.63899 2.51462
v 0.824102 9.41803 2.72964
v 0.824102 -2.63899 2.72964
v 0.571337 9.41803 2.81177
v 0.571337 -2.63899 2.81177
v 0.162352 -2.89469 2.50665
v 0.318567 -2.90653 2.72093
v 0.571337 -2.91105 2.80278
v 0.824102 -2.90653 2.72093
v 0.980322 -2.89469 2.50665
v 0.980322 -2.88005 2.24178
v 0.824102 -2.8682 2.02749
v 0.571337 -2.86368 1.94564
v 0.318567 -2.8682 2.02749
v 0.162352 -2.88005 2.24178
v 0.162352 -3.73003 1.73084
v 0.318567 -3.92268 1.82632
v 0.571337 -3.99626 1.8628
v 0.824102 -3.92268 1.82632
v 0.980322 -3.73003 1.73084
v 0.980322 -3.4919 1.61281
v 0.824102 -3.29925 1.51732
v 0.571337 -3.22566 1.48085
v 0.318567 -3.29925 1.51732
v 0.162352 -3.4919 1.61281
v 0.162352 -3.62304 1.94976
v 0.318567 -3.81453 2.04737
v 0.571337 -3.88767 2.08466
v 0.824102 -3.81453 2.04737
v 0.980322 -3.62304 1.94976
v 0.980322 -3.38634 1.8291
v 0.824102 -3.19485 1.73148
v 0.571337 -3.12171 1.6942
v 0.318567 -3.19485 1.73148
v 0.162352 -3.38634 1.8291
v 0.162352 -3.50545 2.15608
v 0.318567 -3.68242 2.27644
v 0.571337 -3.75002 2.32242
v 0.824102 -3.68242 2.27644
v 0.980322 -3.50545 2.15608
v 0.980322 -3.2867 2.00729
v 0.824102 -3.10972 1.88692
v 0.571337 -3.04213 1.84095
v 0.318567 -3.10972 1.88692
v 0.162352 -3.2867 2.00729
v 0.162352 -3.34876 2.33484
v 0.318567 -3.4808 2.50082
v 0.571337 -3.53124 2.56422
v 0.824102 -3.4808 2.50082
v 0.980322 -3.34876 2.33484
v 0.980322 -3.18555 2.12968
v 0.824102 -3.05351 1.96369
v 0.571337 -3.00307 1.90029
v 0.318567 -3.0535 1.96369
v 0.162352 -3.18555 2.12968
v 0.162352 -3.13881 2.45558
v 0.318567 -3.20114 2.65896
v 0.571337 -3.22494 2.73665
v 0.824102 -3.20114 2.65896
v 0.980322 -3.13881 2.45558
v 0.980322 -3.06177 2.20418
v 0.824102 -2.99944 2.0008
v 0.571337 -2.97564 1.92311
v 0.318567 -2.99944 2.0008
v 0.162352 -3.06177 2.20418
v 0.162352 -6.15998 -2.24543
v 0.162352 -6.15217 -2.51094
v 0.318567 -6.14585 -2.72574
v 0.571337 -6.14344 -2.80779
v 0.824102 -6.14585 -2.72574
v 0.980322 -6.15217 -2.51094
v 0.980322 -6.15998 -2.24543
v 0.824102 -6.1663 -2.03063
v 0.571337 -6.16872 -1.94859
v 0.318567 -6.1663 -2.03063
v 0.162352 -5.51979 -1.81483
v 0.162352 -5.28495 -1.93911
v 0.318567 -5.09496 -2.03965
v 0.571337 -5.02239 -2.07805
v 0.824102 -5.09496 -2.03965
v 0.980322 -5.28495 -1.93911
v 0.980322 -5.51979 -1.81483
v 0.824102 -5.70979 -1.71429
v 0.571337 -5.78236 -1.67588
v 0.318567 -5.70979 -1.71429
v 0.162352 -5.40104 -2.13035
v 0.162352 -5.62119 -1.98273
v 0.318567 -5.22293 -2.24978
v 0.571337 -5.1549 -2.29539
v 0.824102 -5.22293 -2.24978
v 0.980322 -5.40104 -2.13035
v 0.980322 -5.62119 -1.98274
v 0.824102 -5.7993 -1.86331
v 0.571337 -5.86734 -1.81769
v 0.318567 -5.7993 -1.86331
v 0.162352 -5.54264 -2.29523
v 0.162352 -5.72269 -2.10279
v 0.318567 -5.39698 -2.45092
v 0.571337 -5.34134 -2.51039
v 0.824102 -5.39698 -2.45092
v 0.980322 -5.54264 -2.29523
v 0.980322 -5.72269 -2.10279
v 0.824102 -5.86835 -1.9471
v 0.571337 -5.92399 -1.88763
v 0.318567 -5.86835 -1.9471
v 0.162352 -5.83274 -2.179
v 0.162352 -5.72098 -2.41721
v 0.318567 -5.63057 -2.60993
v 0.571337 -5.59604 -2.68354
v 0.824102 -5.63057 -2.60993
v 0.980322 -5.72098 -2.41721
v 0.980322 -5.83274 -2.179
v 0.824102 -5.92314 -1.98629
v 0.571337 -5.95768 -1.91268
v 0.318567 -5.92314 -1.98629
v 0.162352 -5.97344 -2.2247
v 0.162352 -5.92859 -2.48552
v 0.318567 -5.8923 -2.69652
v 0.571337 -5.87844 -2.77712
v 0.824102 -5.8923 -2.69652
v 0.980322 -5.92859 -2.48552
v 0.980322 -5.97344 -2.2247
v 0.824102 -6.00973 -2.0137
v 0.571337 -6.02359 -1.9331
v 0.318567 -6.00973 -2.0137
v -0.538675 10.2938 2.03383
v -0.538675 10.1376 2.24885
v -0.980322 10.2938 2.03383
v -0.980322 10.1376 2.24885
v -0.538675 10.1376 2.51462
v -0.980322 10.1376 2.51462
v -0.538675 10.2938 2.72964
v -0.980322 10.2938 2.72964
v -0.538675 10.5465 2.81177
v -0.980322 10.5465 2.81177
v -0.538675 10.7993 2.72964
v -0.980322 10.7993 2.72964
v -0.538675 10.9555 2.51462
v -0.980322 10.9555 2.51462
v -0.538675 10.9555 2.24885
v -0.980322 10.9555 2.24885
v -0.538675 10.7993 2.03383
v -0.980322 10.7993 2.03383
v -0.538675 10.5465 1.9517
v -0.980322 10.5465 1.9517
v -0.280447 10.1302 2.51462
v -0.272085 10.2859 2.72964
v -0.258558 10.5379 2.81177
v -0.245031 10.79 2.72964
v -0.23667 10.9457 2.51462
v -0.23667 10.9457 2.24885
v -0.245031 10.79 2.03383
v -0.258558 10.538 1.9517
v -0.272089 10.2859 2.03383
v -0.280447 10.1302 2.24885
v 0.31109 9.68574 2.72964
v 0.155298 9.67781 2.51462
v 0.563169 9.69858 2.81177
v 0.815248 9.71142 2.72964
v 0.971045 9.71936 2.51462
v 0.971041 9.71936 2.24885
v 0.815248 9.71142 2.03383
v 0.563169 9.69858 1.9517
v 0.31109 9.68574 2.03383
v 0.155298 9.67781 2.24885
v 0.271524 9.90025 2.72964
v 0.121469 9.86089 2.51462
v 0.514318 9.96395 2.81177
v 0.757105 10.0276 2.72964
v 0.90716 10.067 2.51462
v 0.907156 10.067 2.24885
v 0.757105 10.0276 2.03383
v 0.514318 9.96395 1.9517
v 0.271524 9.90026 2.03383
v 0.121469 9.86089 2.24885
v 0.196451 10.0573 2.72964
v 0.067827 9.97232 2.51462
v 0.404562 10.1949 2.81177
v 0.612669 10.3324 2.72964
v 0.741289 10.4174 2.51462
v 0.741285 10.4174 2.24885
v 0.612669 10.3324 2.03383
v 0.404558 10.1949 1.9517
v 0.196447 10.0573 2.03383
v 0.067827 9.97232 2.24885
v 0.000799 10.0419 2.51462
v 0.088858 10.1684 2.72964
v 0.23134 10.373 2.81177
v 0.373816 10.5776 2.72964
v 0.46187 10.704 2.51462
v 0.46187 10.704 2.24885
v 0.373816 10.5776 2.03383
v 0.23134 10.373 1.9517
v 0.088854 10.1684 2.03383
v 0.000799 10.0419 2.24885
v -0.103579 10.0956 2.51462
v -0.062269 10.2451 2.72964
v 0.004564 10.4868 2.81177
v 0.071394 10.7286 2.72964
v 0.1127 10.878 2.51462
v 0.1127 10.878 2.24885
v 0.07139 10.7286 2.03383
v 0.004557 10.4868 1.9517
v -0.062273 10.2451 2.03383
v -0.103579 10.0956 2.24885
vn -0.587863 -0.722378 0.364126
vn -0.951104 -0.275812 0.139026
vn -0.587938 -0.721974 0.364805
vn -0.951153 -0.275541 0.139229
vn -0.951012 0.276067 -0.139155
vn -0.950959 0.276064 -0.139518
vn -0.58771 0.722479 -0.364171
vn -0.587622 0.72215 -0.364966
vn 3e-06 0.892973 -0.45011
vn 3e-06 0.892493 -0.451062
vn 0.587712 0.722477 -0.364172
vn 0.587624 0.722148 -0.364967
vn 0.951009 0.276073 -0.139159
vn 0.950957 0.276068 -0.139521
vn 0.951103 -0.275815 0.139029
vn 0.951152 -0.275545 0.139232
vn 0.587864 -0.722377 0.364126
vn 0.587938 -0.721973 0.364805
vn -1e-06 -0.89297 0.450116
vn -1e-06 -0.892534 0.45098
vn -0.587787 0 -0.809016
vn -0.951058 0 -0.309012
vn -0.587587 0.000652 -0.80916
vn -0.950939 0.000246 -0.309379
vn -0.951058 0 0.309012
vn -0.951172 -0.000212 0.308661
vn -0.587786 0 0.809017
vn -0.587964 -0.000544 0.808887
vn 2e-06 0 1
vn 2e-06 -0.000662 1
vn 0.587786 0 0.809017
vn 0.587964 -0.000544 0.808887
vn 0.951056 0 0.309019
vn 0.95117 -0.000211 0.308668
vn 0.951056 0 -0.309019
vn 0.950937 0.000246 -0.309386
vn 0.587787 0 -0.809016
vn 0.587587 0.000652 -0.80916
vn -0 0 -1
vn -0 0.000816 -1
vn -0.587604 -0.000353 0.809149
vn -0.951032 -0.000554 0.309092
vn -0.587629 -0.000567 0.809131
vn -0.950965 -0.000213 0.309298
vn -0.951032 -0.000554 -0.309091
vn -0.951144 0.000166 -0.308747
vn -0.587601 -0.000353 -0.809151
vn -0.587915 0.000422 -0.808923
vn 0.000302 1.3e-05 -1
vn 2e-06 0.000508 -1
vn 0.587993 0.000426 -0.808866
vn 0.587915 0.000422 -0.808923
vn 0.951087 0.000703 -0.308923
vn 0.951142 0.000166 -0.308755
vn 0.951087 0.000703 0.308923
vn 0.950963 -0.000213 0.309305
vn 0.587995 0.000426 0.808864
vn 0.587629 -0.000567 0.809131
vn 0.000299 1.3e-05 1
vn 0 -0.000713 1
vn -0.937882 -0.043013 0.344279
vn -0.567294 -0.102098 0.817162
vn 0 -0.124862 0.992174
vn 0.567295 -0.102096 0.817162
vn 0.937879 -0.04301 0.344286
vn 0.962801 0.025935 -0.268963
vn 0.608668 0.073844 -0.789981
vn 2e-06 0.088937 -0.996037
vn -0.60867 0.073848 -0.789979
vn -0.962803 0.025934 -0.268957
vn -0.951132 -0.276961 0.136533
vn -0.587857 -0.725564 0.357744
vn 1e-06 -0.896884 0.442265
vn 0.587856 -0.725566 0.357743
vn 0.95113 -0.276965 0.136535
vn 0.950943 0.277537 -0.136676
vn 0.587555 0.725959 -0.357439
vn -1e-06 0.897169 -0.441687
vn -0.587557 0.725957 -0.357441
vn -0.950946 0.277529 -0.136673
vn -0.945481 -0.287601 0.152815
vn -0.57853 -0.719698 0.383847
vn 0 -0.881888 0.471459
vn 0.578527 -0.7197 0.383847
vn 0.945478 -0.287609 0.152818
vn 0.956006 0.260643 -0.134602
vn 0.595462 0.714699 -0.366921
vn -0 0.890375 -0.455227
vn -0.595463 0.714697 -0.366922
vn -0.956007 0.26064 -0.1346
vn -0.932226 -0.292737 0.212745
vn -0.559703 -0.667898 0.490556
vn -0 -0.804359 0.594143
vn 0.559704 -0.667897 0.490557
vn 0.932223 -0.292743 0.212749
vn 0.967552 0.212626 -0.136505
vn 0.618637 0.669458 -0.411234
vn -0 0.860364 -0.50968
vn -0.618638 0.669456 -0.411236
vn -0.967552 0.212626 -0.136502
vn -0.919827 -0.246232 0.305432
vn -0.545584 -0.521786 0.655803
vn -0 -0.620674 0.784069
vn 0.545584 -0.521786 0.655802
vn 0.919822 -0.246243 0.305438
vn 0.979069 0.137812 -0.149775
vn 0.664361 0.531415 -0.52557
vn 2e-06 0.74589 -0.666069
vn -0.664361 0.531414 -0.52557
vn -0.979068 0.137819 -0.14977
vn -0.923029 -0.138782 0.358828
vn -0.549014 -0.298568 0.780667
vn 0 -0.356684 0.934225
vn 0.549015 -0.298567 0.780666
vn 0.923025 -0.138791 0.358835
vn 0.976293 0.071546 -0.204288
vn 0.65243 0.250575 -0.715225
vn 4e-06 0.323239 -0.946317
vn -0.652433 0.250579 -0.715221
vn -0.976294 0.071555 -0.20428
vn -0.95821 -0.015931 0.285621
vn -0.943359 0.022091 -0.331038
vn -0.575627 0.054813 -0.815873
vn -0 0.067601 -0.997712
vn 0.575626 0.054812 -0.815874
vn 0.943356 0.022092 -0.331045
vn 0.958209 -0.015929 0.285627
vn 0.599852 -0.043567 0.798924
vn 3e-06 -0.053097 0.998589
vn -0.599851 -0.043567 0.798925
vn -0.95618 -0.256084 0.141917
vn -0.9456 0.283536 -0.159522
vn -0.579054 0.710379 -0.400074
vn 5e-06 0.871116 -0.491077
vn 0.579055 0.710377 -0.400074
vn 0.945599 0.283539 -0.159526
vn 0.956179 -0.256088 0.14192
vn 0.596224 -0.702505 0.388593
vn 1e-06 -0.875413 0.483376
vn -0.596225 -0.702503 0.388594
vn -0.935913 0.284267 -0.207987
vn -0.965006 -0.215617 0.149241
vn -0.56525 0.665182 -0.487878
vn 4e-06 0.805746 -0.592261
vn 0.565253 0.665181 -0.487876
vn 0.93591 0.284276 -0.207992
vn 0.965006 -0.215616 0.149244
vn 0.614213 -0.651443 0.44538
vn 2e-06 -0.828609 0.559827
vn -0.61421 -0.651443 0.445385
vn -0.925031 0.252058 -0.284224
vn -0.97518 -0.152826 0.160216
vn -0.552133 0.552349 -0.624547
vn 2e-06 0.661804 -0.749677
vn 0.552135 0.55235 -0.624545
vn 0.925027 0.252066 -0.284231
vn 0.975178 -0.152829 0.160221
vn 0.647929 -0.534171 0.543
vn 3e-06 -0.713446 0.700711
vn -0.64793 -0.534176 0.542994
vn -0.97726 -0.091539 0.191271
vn -0.922901 0.171168 -0.344898
vn -0.549843 0.37086 -0.748422
vn -0 0.444017 -0.896018
vn 0.549843 0.370865 -0.74842
vn 0.922897 0.171177 -0.344904
vn 0.977259 -0.091533 0.191278
vn 0.658642 -0.322294 0.679939
vn 1e-06 -0.422495 0.906366
vn -0.658652 -0.322299 0.679927
vn -0.968546 -0.046903 0.244373
vn -0.932079 0.079104 -0.353512
vn -0.560347 0.181114 -0.808214
vn -0 0.219412 -0.975632
vn 0.560347 0.181116 -0.808213
vn 0.932076 0.07911 -0.353519
vn 0.968546 -0.046896 0.244377
vn 0.623815 -0.142249 0.768518
vn 2e-06 -0.17457 0.984645
vn -0.623816 -0.142248 0.768517
vn -0.006408 -0.584417 -0.811428
vn -0.010144 -0.950532 -0.310462
vn 0 -0.587786 -0.809016
vn 0 -0.951056 -0.30902
vn -0.010146 -0.950532 0.31046
vn 0 -0.951056 0.309018
vn -0.00641 -0.584418 0.811428
vn 0 -0.587786 0.809016
vn 0.000243 0.005388 0.999986
vn 0 2e-06 1
vn 0.007584 0.591453 0.806304
vn 0 0.587786 0.809016
vn 0.012431 0.951535 0.307289
vn 0 0.951058 0.309011
vn 0.012431 0.951535 -0.307289
vn 0 0.951058 -0.309012
vn 0.007583 0.591456 -0.806302
vn 0 0.587786 -0.809016
vn 0.000244 0.005386 -0.999985
vn -0.092924 -0.942917 0.319801
vn -0.056801 -0.561117 0.825785
vn 0.005865 0.035187 0.999364
vn 0.070972 0.606941 0.791571
vn 0.11141 0.947948 0.298298
vn 0.111409 0.94795 -0.298293
vn 0.070971 0.606948 -0.791567
vn 0.005867 0.035189 -0.999363
vn -0.056797 -0.561118 -0.825785
vn -0.092922 -0.942916 -0.319806
vn -0.562638 -0.054375 0.824913
vn -0.943506 -0.088961 0.31919
vn 0.033447 0.005302 0.999426
vn 0.606208 0.067206 0.792462
vn 0.948433 0.105694 0.298838
vn 0.948431 0.105697 -0.298843
vn 0.60621 0.06721 -0.79246
vn 0.033448 0.005304 -0.999426
vn -0.562636 -0.054373 -0.824914
vn -0.943505 -0.088959 -0.319193
vn -0.515427 -0.158331 0.842179
vn -0.902808 -0.272289 0.33286
vn 0.062328 0.022715 0.997797
vn 0.597761 0.195962 0.777355
vn 0.909523 0.29765 0.290125
vn 0.909521 0.297649 -0.290133
vn 0.597762 0.195962 -0.777354
vn 0.062328 0.022719 -0.997797
vn -0.515421 -0.158328 -0.842184
vn -0.902807 -0.272286 -0.332866
vn -0.428407 -0.291444 0.855294
vn -0.778498 -0.523263 0.346607
vn 0.071502 0.05131 0.99612
vn 0.525691 0.367032 0.767422
vn 0.78622 0.54854 0.284537
vn 0.786218 0.548539 -0.284545
vn 0.525694 0.36703 -0.767421
vn 0.071499 0.051306 -0.99612
vn -0.428406 -0.291445 -0.855294
vn -0.778499 -0.523259 -0.346611
vn -0.549182 -0.759742 0.348125
vn -0.303059 -0.417872 0.856468
vn 0.053735 0.071777 0.995972
vn 0.379531 0.517775 0.766724
vn 0.566197 0.77374 0.284161
vn 0.566198 0.773739 -0.284163
vn 0.379532 0.517774 -0.766724
vn 0.053737 0.071778 -0.995972
vn -0.303059 -0.417874 -0.856467
vn -0.54918 -0.759739 -0.348135
vn -0.286307 -0.897811 0.334609
vn -0.165509 -0.510165 0.844001
vn 0.024737 0.064811 0.997591
vn 0.205639 0.596279 0.775992
vn 0.311382 0.905159 0.289359
vn 0.311383 0.90516 -0.289354
vn 0.205639 0.59628 -0.775991
vn 0.024736 0.064808 -0.997591
vn -0.165508 -0.510171 -0.843998
vn -0.286302 -0.89781 -0.334615
vt 0.476307 0.291358
vt 0.454625 0.291358
vt 0.476307 0.006413
vt 0.454625 0.006413
vt 0.671384 0.291358
vt 0.649711 0.291358
vt 0.671384 0.006413
vt 0.649711 0.006413
vt 0.628037 0.291358
vt 0.628037 0.006413
vt 0.606366 0.291358
vt 0.606366 0.006413
vt 0.584692 0.291358
vt 0.584692 0.006413
vt 0.563015 0.291358
vt 0.563015 0.006413
vt 0.541335 0.291358
vt 0.541335 0.006413
vt 0.519659 0.291358
vt 0.519659 0.006413
vt 0.497983 0.291358
vt 0.497983 0.006413
vt 0.402534 0.007592
vt 0.424209 0.007592
vt 0.402534 0.380521
vt 0.424209 0.380521
vt 0.445884 0.007592
vt 0.445884 0.380521
vt 0.22913 0.007592
vt 0.250806 0.007592
vt 0.22913 0.380521
vt 0.250806 0.380521
vt 0.272481 0.007592
vt 0.272481 0.380521
vt 0.294157 0.007592
vt 0.294157 0.380521
vt 0.315831 0.007592
vt 0.315832 0.380521
vt 0.337507 0.007592
vt 0.337507 0.380521
vt 0.359183 0.007592
vt 0.359183 0.380521
vt 0.380858 0.007592
vt 0.380858 0.380521
vt 0.026784 0.995748
vt 0.004968 0.995748
vt 0.026784 0.006287
vt 0.004968 0.006287
vt 0.22037 0.995748
vt 0.198553 0.995748
vt 0.22037 0.006287
vt 0.198553 0.006287
vt 0.176735 0.995748
vt 0.176735 0.006287
vt 0.154915 0.995748
vt 0.154915 0.006287
vt 0.133094 0.995748
vt 0.133094 0.006287
vt 0.111272 0.995748
vt 0.111272 0.006287
vt 0.089451 0.995748
vt 0.089451 0.006287
vt 0.067629 0.995748
vt 0.067629 0.006287
vt 0.04581 0.995748
vt 0.04581 0.006287
vt 0.796187 0.227291
vt 0.800304 0.207897
vt 0.815922 0.231224
vt 0.820512 0.210619
vt 0.801884 0.188925
vt 0.82274 0.18908
vt 0.800324 0.169678
vt 0.821397 0.166791
vt 0.795511 0.149661
vt 0.816435 0.144187
vt 0.788007 0.128079
vt 0.808752 0.121446
vt 0.779733 0.103803
vt 0.800652 0.098539
vt 0.775263 0.07687
vt 0.795754 0.075807
vt 0.778226 0.051223
vt 0.796874 0.054815
vt 0.785786 0.030159
vt 0.802709 0.036479
vt 0.794064 0.012458
vt 0.810497 0.019529
vt 0.684851 0.238127
vt 0.680086 0.216015
vt 0.705854 0.233541
vt 0.701868 0.212237
vt 0.680086 0.189335
vt 0.700628 0.18991
vt 0.680584 0.167245
vt 0.701171 0.168478
vt 0.682027 0.144718
vt 0.703202 0.146746
vt 0.684124 0.121841
vt 0.706145 0.124186
vt 0.686342 0.098578
vt 0.709062 0.100562
vt 0.688111 0.075319
vt 0.710794 0.076284
vt 0.688812 0.052715
vt 0.710677 0.05245
vt 0.688396 0.031088
vt 0.709167 0.029915
vt 0.687206 0.010019
vt 0.707168 0.008634
vt 0.724658 0.229065
vt 0.720823 0.209366
vt 0.719339 0.189662
vt 0.720107 0.169981
vt 0.722869 0.149541
vt 0.727044 0.127472
vt 0.731222 0.103078
vt 0.733328 0.076865
vt 0.732207 0.05112
vt 0.729214 0.027704
vt 0.726104 0.006666
vt 0.742035 0.225661
vt 0.739238 0.207101
vt 0.738134 0.189369
vt 0.738806 0.171537
vt 0.74118 0.152497
vt 0.744876 0.130884
vt 0.748884 0.105477
vt 0.750766 0.077076
vt 0.74927 0.049401
vt 0.746367 0.025213
vt 0.74387 0.004467
vt 0.759328 0.223996
vt 0.758843 0.205897
vt 0.758554 0.18918
vt 0.758561 0.17242
vt 0.758726 0.154221
vt 0.758931 0.132818
vt 0.75892 0.106701
vt 0.758764 0.077091
vt 0.758898 0.048466
vt 0.759727 0.024134
vt 0.761057 0.003968
vt 0.777294 0.224569
vt 0.779626 0.206175
vt 0.780366 0.189022
vt 0.779369 0.171806
vt 0.77654 0.153352
vt 0.771784 0.13212
vt 0.766071 0.106477
vt 0.762869 0.077072
vt 0.765561 0.048782
vt 0.771624 0.025587
vt 0.777752 0.006738
vt 0.482953 0.309005
vt 0.478241 0.333153
vt 0.462032 0.305761
vt 0.457722 0.330173
vt 0.474964 0.355507
vt 0.454832 0.354128
vt 0.474262 0.376805
vt 0.454591 0.377744
vt 0.476385 0.397509
vt 0.457407 0.400717
vt 0.480944 0.417928
vt 0.462908 0.42266
vt 0.486866 0.438403
vt 0.469848 0.443169
vt 0.491874 0.459247
vt 0.475848 0.462167
vt 0.493184 0.479672
vt 0.478727 0.479762
vt 0.490499 0.497114
vt 0.477851 0.495128
vt 0.486695 0.511306
vt 0.47501 0.509043
vt 0.601551 0.3008
vt 0.601551 0.328223
vt 0.574052 0.302029
vt 0.577685 0.330658
vt 0.602904 0.356784
vt 0.579701 0.356699
vt 0.600714 0.384173
vt 0.578436 0.381049
vt 0.594607 0.410482
vt 0.573528 0.404252
vt 0.584778 0.434993
vt 0.565201 0.426376
vt 0.572334 0.457537
vt 0.554407 0.447754
vt 0.559296 0.477727
vt 0.543016 0.468501
vt 0.548134 0.495123
vt 0.533714 0.488106
vt 0.540408 0.510111
vt 0.527911 0.505339
vt 0.53538 0.523246
vt 0.524262 0.519391
vt 0.555475 0.333523
vt 0.55029 0.306007
vt 0.557885 0.35717
vt 0.557319 0.378735
vt 0.553765 0.399329
vt 0.547401 0.419683
vt 0.538681 0.440534
vt 0.529011 0.462254
vt 0.521266 0.483931
vt 0.517247 0.502774
vt 0.515102 0.516982
vt 0.535357 0.335877
vt 0.532036 0.309544
vt 0.536568 0.357673
vt 0.536114 0.377182
vt 0.53417 0.39598
vt 0.53073 0.415283
vt 0.525739 0.436224
vt 0.519516 0.459112
vt 0.513812 0.482144
vt 0.510249 0.501664
vt 0.508217 0.515819
vt 0.516989 0.311222
vt 0.516421 0.336655
vt 0.515491 0.357631
vt 0.514817 0.37639
vt 0.514502 0.394611
vt 0.514476 0.413617
vt 0.514407 0.434631
vt 0.513313 0.458004
vt 0.510274 0.481468
vt 0.50587 0.500854
vt 0.502454 0.514849
vt 0.501323 0.311064
vt 0.497643 0.3356
vt 0.494942 0.356834
vt 0.494095 0.37632
vt 0.495202 0.395284
vt 0.498062 0.414692
vt 0.501964 0.435403
vt 0.505054 0.457923
vt 0.504465 0.480612
vt 0.500137 0.499387
vt 0.495725 0.513377
vt 0.860138 0.286528
vt 0.856912 0.26286
vt 0.898085 0.282506
vt 0.896498 0.259489
vt 0.855073 0.238244
vt 0.89515 0.235651
vt 0.858728 0.457279
vt 0.861381 0.432358
vt 0.899349 0.45962
vt 0.900773 0.435517
vt 0.864818 0.40927
vt 0.902175 0.412254
vt 0.867557 0.388017
vt 0.90318 0.389844
vt 0.869006 0.367978
vt 0.903417 0.368182
vt 0.86876 0.348496
vt 0.902846 0.347034
vt 0.86693 0.328926
vt 0.901601 0.325992
vt 0.863814 0.308434
vt 0.899906 0.304613
vt 0.832448 0.455185
vt 0.836593 0.428535
vt 0.841742 0.405576
vt 0.845762 0.385561
vt 0.847797 0.367254
vt 0.847753 0.349601
vt 0.845616 0.331628
vt 0.841657 0.312409
vt 0.836496 0.290658
vt 0.832003 0.265835
vt 0.830307 0.239717
vt 0.709739 0.43361
vt 0.739743 0.430614
vt 0.715111 0.465176
vt 0.745988 0.460627
vt 0.709739 0.409921
vt 0.734978 0.405976
vt 0.706932 0.385884
vt 0.731448 0.384125
vt 0.706719 0.362862
vt 0.730517 0.363948
vt 0.709608 0.340909
vt 0.732336 0.344858
vt 0.715085 0.320192
vt 0.736859 0.326162
vt 0.722017 0.300218
vt 0.74342 0.307138
vt 0.728885 0.279817
vt 0.75105 0.286301
vt 0.734418 0.257611
vt 0.757849 0.262632
vt 0.738158 0.233757
vt 0.761681 0.237619
vt 0.763232 0.426831
vt 0.769211 0.456943
vt 0.758461 0.402621
vt 0.755628 0.382517
vt 0.754754 0.364723
vt 0.755954 0.34782
vt 0.758945 0.330925
vt 0.763855 0.312625
vt 0.770186 0.291439
vt 0.77628 0.266115
vt 0.779138 0.239689
vt 0.781904 0.424544
vt 0.785204 0.454794
vt 0.779759 0.400669
vt 0.778727 0.381702
vt 0.778655 0.365254
vt 0.779277 0.349743
vt 0.78077 0.333795
vt 0.783055 0.31599
vt 0.786296 0.294255
vt 0.789563 0.267744
vt 0.791096 0.240435
vt 0.797674 0.453852
vt 0.798231 0.424081
vt 0.799851 0.400554
vt 0.801144 0.381917
vt 0.801966 0.365813
vt 0.802339 0.350537
vt 0.802245 0.334752
vt 0.801768 0.316924
vt 0.80087 0.295053
vt 0.800276 0.268197
vt 0.800644 0.240628
vt 0.812146 0.453869
vt 0.815683 0.425433
vt 0.820146 0.402291
vt 0.823426 0.383288
vt 0.825111 0.366479
vt 0.825245 0.350389
vt 0.82387 0.333899
vt 0.820963 0.315582
vt 0.816949 0.29383
vt 0.813218 0.267716
vt 0.812381 0.240479
usemtl Tube_2SG
f 1/1/1 2/2/2 3/3/3
f 3/3/3 2/2/2 4/4/4
f 2/5/2 5/6/5 4/7/4
f 4/7/4 5/6/5 6/8/6
f 5/6/5 7/9/7 6/8/6
f 6/8/6 7/9/7 8/10/8
f 7/9/7 9/11/9 8/10/8
f 8/10/8 9/11/9 10/12/10
f 9/11/9 11/13/11 10/12/10
f 10/12/10 11/13/11 12/14/12
f 11/13/11 13/15/13 12/14/12
f 12/14/12 13/15/13 14/16/14
f 13/15/13 15/17/15 14/16/14
f 14/16/14 15/17/15 16/18/16
f 15/17/15 17/19/17 16/18/16
f 16/18/16 17/19/17 18/20/18
f 17/19/17 19/21/19 18/20/18
f 18/20/18 19/21/19 20/22/20
f 19/21/19 1/1/1 20/22/20
f 20/22/20 1/1/1 3/3/3
f 21/23/21 22/24/22 23/25/23
f 23/25/23 22/24/22 24/26/24
f 22/24/22 25/27/25 24/26/24
f 24/26/24 25/27/25 26/28/26
f 25/29/25 27/30/27 26/31/26
f 26/31/26 27/30/27 28/32/28
f 27/30/27 29/33/29 28/32/28
f 28/32/28 29/33/29 30/34/30
f 29/33/29 31/35/31 30/34/30
f 30/34/30 31/35/31 32/36/32
f 31/35/31 33/37/33 32/36/32
f 32/36/32 33/37/33 34/38/34
f 33/37/33 35/39/35 34/38/34
f 34/38/34 35/39/35 36/40/36
f 35/39/35 37/41/37 36/40/36
f 36/40/36 37/41/37 38/42/38
f 37/41/37 39/43/39 38/42/38
f 38/42/38 39/43/39 40/44/40
f 39/43/39 21/23/21 40/44/40
f 40/44/40 21/23/21 23/25/23
f 41/45/41 42/46/42 43/47/43
f 43/47/43 42/46/42 44/48/44
f 42/49/42 45/50/45 44/51/44
f 44/51/44 45/50/45 46/52/46
f 45/50/45 47/53/47 46/52/46
f 46/52/46 47/53/47 48/54/48
f 47/53/47 49/55/49 48/54/48
f 48/54/48 49/55/49 50/56/50
f 49/55/49 51/57/51 50/56/50
f 50/56/50 51/57/51 52/58/52
f 51/57/51 53/59/53 52/58/52
f 52/58/52 53/59/53 54/60/54
f 53/59/53 55/61/55 54/60/54
f 54/60/54 55/61/55 56/62/56
f 55/61/55 57/63/57 56/62/56
f 56/62/56 57/63/57 58/64/58
f 57/63/57 59/65/59 58/64/58
f 58/64/58 59/65/59 60/66/60
f 59/65/59 41/45/41 60/66/60
f 60/66/60 41/45/41 43/47/43
f 61/67/61 62/68/62 44/69/44
f 44/69/44 62/68/62 43/70/43
f 62/68/62 63/71/63 43/70/43
f 43/70/43 63/71/63 60/72/60
f 64/73/64 58/74/58 63/71/63
f 63/71/63 58/74/58 60/72/60
f 65/75/65 56/76/56 64/73/64
f 64/73/64 56/76/56 58/74/58
f 66/77/66 54/78/54 65/75/65
f 65/75/65 54/78/54 56/76/56
f 67/79/67 52/80/52 66/77/66
f 66/77/66 52/80/52 54/78/54
f 67/79/67 68/81/68 52/80/52
f 52/80/52 68/81/68 50/82/50
f 68/81/68 69/83/69 50/82/50
f 50/82/50 69/83/69 48/84/48
f 69/83/69 70/85/70 48/84/48
f 48/84/48 70/85/70 46/86/46
f 70/85/70 61/87/61 46/86/46
f 46/86/46 61/87/61 44/88/44
f 2/89/2 1/90/1 71/91/71
f 71/91/71 1/90/1 72/92/72
f 1/90/1 19/93/19 72/92/72
f 72/92/72 19/93/19 73/94/73
f 17/95/17 74/96/74 19/93/19
f 19/93/19 74/96/74 73/94/73
f 15/97/15 75/98/75 17/95/17
f 17/95/17 75/98/75 74/96/74
f 13/99/13 76/100/76 15/97/15
f 15/97/15 76/100/76 75/98/75
f 11/101/11 77/102/77 13/99/13
f 13/99/13 77/102/77 76/100/76
f 9/103/9 78/104/78 11/101/11
f 11/101/11 78/104/78 77/102/77
f 9/103/9 7/105/7 78/104/78
f 78/104/78 7/105/7 79/106/79
f 7/105/7 5/107/5 79/106/79
f 79/106/79 5/107/5 80/108/80
f 5/107/5 2/109/2 80/108/80
f 80/108/80 2/109/2 71/110/71
f 71/91/71 72/92/72 81/111/81
f 81/111/81 72/92/72 82/112/82
f 72/92/72 73/94/73 82/112/82
f 82/112/82 73/94/73 83/113/83
f 74/96/74 84/114/84 73/94/73
f 73/94/73 84/114/84 83/113/83
f 75/98/75 85/115/85 74/96/74
f 74/96/74 85/115/85 84/114/84
f 76/100/76 86/116/86 75/98/75
f 75/98/75 86/116/86 85/115/85
f 77/102/77 87/117/87 76/100/76
f 76/100/76 87/117/87 86/116/86
f 78/104/78 88/118/88 77/102/77
f 77/102/77 88/118/88 87/117/87
f 78/104/78 79/106/79 88/118/88
f 88/118/88 79/106/79 89/119/89
f 79/106/79 80/108/80 89/119/89
f 89/119/89 80/108/80 90/120/90
f 80/108/80 71/110/71 90/120/90
f 90/120/90 71/110/71 81/121/81
f 81/111/81 82/112/82 91/122/91
f 91/122/91 82/112/82 92/123/92
f 82/112/82 83/113/83 92/123/92
f 92/123/92 83/113/83 93/124/93
f 84/114/84 94/125/94 83/113/83
f 83/113/83 94/125/94 93/124/93
f 85/115/85 95/126/95 84/114/84
f 84/114/84 95/126/95 94/125/94
f 86/116/86 96/127/96 85/115/85
f 85/115/85 96/127/96 95/126/95
f 87/117/87 97/128/97 86/116/86
f 86/116/86 97/128/97 96/127/96
f 88/118/88 98/129/98 87/117/87
f 87/117/87 98/129/98 97/128/97
f 88/118/88 89/119/89 98/129/98
f 98/129/98 89/119/89 99/130/99
f 89/119/89 90/120/90 99/130/99
f 99/130/99 90/120/90 100/131/100
f 90/120/90 81/121/81 100/131/100
f 100/131/100 81/121/81 91/132/91
f 91/122/91 92/123/92 101/133/101
f 101/133/101 92/123/92 102/134/102
f 92/123/92 93/124/93 102/134/102
f 102/134/102 93/124/93 103/135/103
f 94/125/94 104/136/104 93/124/93
f 93/124/93 104/136/104 103/135/103
f 95/126/95 105/137/105 94/125/94
f 94/125/94 105/137/105 104/136/104
f 96/127/96 106/138/106 95/126/95
f 95/126/95 106/138/106 105/137/105
f 97/128/97 107/139/107 96/127/96
f 96/127/96 107/139/107 106/138/106
f 98/129/98 108/140/108 97/128/97
f 97/128/97 108/140/108 107/139/107
f 98/129/98 99/130/99 108/140/108
f 108/140/108 99/130/99 109/141/109
f 99/130/99 100/131/100 109/141/109
f 109/141/109 100/131/100 110/142/110
f 100/131/100 91/132/91 110/142/110
f 110/142/110 91/132/91 101/143/101
f 101/133/101 102/134/102 111/144/111
f 111/144/111 102/134/102 112/145/112
f 102/134/102 103/135/103 112/145/112
f 112/145/112 103/135/103 113/146/113
f 104/136/104 114/147/114 103/135/103
f 103/135/103 114/147/114 113/146/113
f 105/137/105 115/148/115 104/136/104
f 104/136/104 115/148/115 114/147/114
f 106/138/106 116/149/116 105/137/105
f 105/137/105 116/149/116 115/148/115
f 107/139/107 117/150/117 106/138/106
f 106/138/106 117/150/117 116/149/116
f 108/140/108 118/151/118 107/139/107
f 107/139/107 118/151/118 117/150/117
f 108/140/108 109/141/109 118/151/118
f 118/151/118 109/141/109 119/152/119
f 109/141/109 110/142/110 119/152/119
f 119/152/119 110/142/110 120/153/120
f 110/142/110 101/143/101 120/153/120
f 120/153/120 101/143/101 111/154/111
f 111/144/111 112/145/112 61/67/61
f 61/67/61 112/145/112 62/68/62
f 112/145/112 113/146/113 62/68/62
f 62/68/62 113/146/113 63/71/63
f 114/147/114 64/73/64 113/146/113
f 113/146/113 64/73/64 63/71/63
f 115/148/115 65/75/65 114/147/114
f 114/147/114 65/75/65 64/73/64
f 116/149/116 66/77/66 115/148/115
f 115/148/115 66/77/66 65/75/65
f 117/150/117 67/79/67 116/149/116
f 116/149/116 67/79/67 66/77/66
f 118/151/118 68/81/68 117/150/117
f 117/150/117 68/81/68 67/79/67
f 118/151/118 119/152/119 68/81/68
f 68/81/68 119/152/119 69/83/69
f 119/152/119 120/153/120 69/83/69
f 69/83/69 120/153/120 70/85/70
f 120/153/120 111/154/111 70/85/70
f 70/85/70 111/154/111 61/87/61
f 121/155/121 122/156/122 26/157/26
f 26/157/26 122/156/122 24/158/24
f 122/156/122 123/159/123 24/158/24
f 24/158/24 123/159/123 23/160/23
f 123/159/123 124/161/124 23/160/23
f 23/160/23 124/161/124 40/162/40
f 125/163/125 38/164/38 124/161/124
f 124/161/124 38/164/38 40/162/40
f 126/165/126 36/166/36 125/163/125
f 125/163/125 36/166/36 38/164/38
f 127/167/127 34/168/34 126/165/126
f 126/165/126 34/168/34 36/166/36
f 127/167/127 128/169/128 34/168/34
f 34/168/34 128/169/128 32/170/32
f 128/169/128 129/171/129 32/170/32
f 32/170/32 129/171/129 30/172/30
f 129/171/129 130/173/130 30/172/30
f 30/172/30 130/173/130 28/174/28
f 130/173/130 121/175/121 28/174/28
f 28/174/28 121/175/121 26/176/26
f 4/177/4 6/178/6 131/179/131
f 131/179/131 6/178/6 132/180/132
f 6/178/6 8/181/8 132/180/132
f 132/180/132 8/181/8 133/182/133
f 8/181/8 10/183/10 133/182/133
f 133/182/133 10/183/10 134/184/134
f 10/183/10 12/185/12 134/184/134
f 134/184/134 12/185/12 135/186/135
f 12/185/12 14/187/14 135/186/135
f 135/186/135 14/187/14 136/188/136
f 14/187/14 16/189/16 136/188/136
f 136/188/136 16/189/16 137/190/137
f 16/189/16 18/191/18 137/190/137
f 137/190/137 18/191/18 138/192/138
f 18/191/18 20/193/20 138/192/138
f 138/192/138 20/193/20 139/194/139
f 20/193/20 3/195/3 139/194/139
f 139/194/139 3/195/3 140/196/140
f 3/195/3 4/197/4 140/196/140
f 140/196/140 4/197/4 131/198/131
f 132/180/132 141/199/141 131/179/131
f 131/179/131 141/199/141 142/200/142
f 133/182/133 143/201/143 132/180/132
f 132/180/132 143/201/143 141/199/141
f 134/184/134 144/202/144 133/182/133
f 133/182/133 144/202/144 143/201/143
f 134/184/134 135/186/135 144/202/144
f 144/202/144 135/186/135 145/203/145
f 135/186/135 136/188/136 145/203/145
f 145/203/145 136/188/136 146/204/146
f 136/188/136 137/190/137 146/204/146
f 146/204/146 137/190/137 147/205/147
f 137/190/137 138/192/138 147/205/147
f 147/205/147 138/192/138 148/206/148
f 138/192/138 139/194/139 148/206/148
f 148/206/148 139/194/139 149/207/149
f 139/194/139 140/196/140 149/207/149
f 149/207/149 140/196/140 150/208/150
f 131/198/131 142/209/142 140/196/140
f 140/196/140 142/209/142 150/208/150
f 141/199/141 151/210/151 142/200/142
f 142/200/142 151/210/151 152/211/152
f 143/201/143 153/212/153 141/199/141
f 141/199/141 153/212/153 151/210/151
f 144/202/144 154/213/154 143/201/143
f 143/201/143 154/213/154 153/212/153
f 144/202/144 145/203/145 154/213/154
f 154/213/154 145/203/145 155/214/155
f 145/203/145 146/204/146 155/214/155
f 155/214/155 146/204/146 156/215/156
f 146/204/146 147/205/147 156/215/156
f 156/215/156 147/205/147 157/216/157
f 148/206/148 158/217/158 147/205/147
f 147/205/147 158/217/158 157/216/157
f 149/207/149 159/218/159 148/206/148
f 148/206/148 159/218/159 158/217/158
f 149/207/149 150/208/150 159/218/159
f 159/218/159 150/208/150 160/219/160
f 150/208/150 142/209/142 160/219/160
f 160/219/160 142/209/142 152/220/152
f 152/211/152 151/210/151 161/221/161
f 161/221/161 151/210/151 162/222/162
f 151/210/151 153/212/153 162/222/162
f 162/222/162 153/212/153 163/223/163
f 153/212/153 154/213/154 163/223/163
f 163/223/163 154/213/154 164/224/164
f 155/214/155 165/225/165 154/213/154
f 154/213/154 165/225/165 164/224/164
f 156/215/156 166/226/166 155/214/155
f 155/214/155 166/226/166 165/225/165
f 157/216/157 167/227/167 156/215/156
f 156/215/156 167/227/167 166/226/166
f 158/217/158 168/228/168 157/216/157
f 157/216/157 168/228/168 167/227/167
f 159/218/159 169/229/169 158/217/158
f 158/217/158 169/229/169 168/228/168
f 159/218/159 160/219/160 169/229/169
f 169/229/169 160/219/160 170/230/170
f 160/219/160 152/220/152 170/230/170
f 170/230/170 152/220/152 161/231/161
f 161/221/161 162/222/162 171/232/171
f 171/232/171 162/222/162 172/233/172
f 162/222/162 163/223/163 172/233/172
f 172/233/172 163/223/163 173/234/173
f 163/223/163 164/224/164 173/234/173
f 173/234/173 164/224/164 174/235/174
f 165/225/165 175/236/175 164/224/164
f 164/224/164 175/236/175 174/235/174
f 166/226/166 176/237/176 165/225/165
f 165/225/165 176/237/176 175/236/175
f 167/227/167 177/238/177 166/226/166
f 166/226/166 177/238/177 176/237/176
f 168/228/168 178/239/178 167/227/167
f 167/227/167 178/239/178 177/238/177
f 168/228/168 169/229/169 178/239/178
f 178/239/178 169/229/169 179/240/179
f 169/229/169 170/230/170 179/240/179
f 179/240/179 170/230/170 180/241/180
f 170/230/170 161/231/161 180/241/180
f 180/241/180 161/231/161 171/242/171
f 171/232/171 172/233/172 121/155/121
f 121/155/121 172/233/172 122/156/122
f 172/233/172 173/234/173 122/156/122
f 122/156/122 173/234/173 123/159/123
f 173/234/173 174/235/174 123/159/123
f 123/159/123 174/235/174 124/161/124
f 175/236/175 125/163/125 174/235/174
f 174/235/174 125/163/125 124/161/124
f 176/237/176 126/165/126 175/236/175
f 175/236/175 126/165/126 125/163/125
f 177/238/177 127/167/127 176/237/176
f 176/237/176 127/167/127 126/165/126
f 178/239/178 128/169/128 177/238/177
f 177/238/177 128/169/128 127/167/127
f 179/240/179 129/171/129 178/239/178
f 178/239/178 129/171/129 128/169/128
f 179/240/179 180/241/180 129/171/129
f 129/171/129 180/241/180 130/173/130
f 180/241/180 171/242/171 130/173/130
f 130/173/130 171/242/171 121/175/121
f 181/243/181 182/244/182 183/245/183
f 183/245/183 182/244/182 184/246/184
f 182/244/182 185/247/185 184/246/184
f 184/246/184 185/247/185 186/248/186
f 185/249/185 187/250/187 186/251/186
f 186/251/186 187/250/187 188/252/188
f 187/250/187 189/253/189 188/252/188
f 188/252/188 189/253/189 190/254/190
f 189/253/189 191/255/191 190/254/190
f 190/254/190 191/255/191 192/256/192
f 191/255/191 193/257/193 192/256/192
f 192/256/192 193/257/193 194/258/194
f 193/257/193 195/259/195 194/258/194
f 194/258/194 195/259/195 196/260/196
f 195/259/195 197/261/197 196/260/196
f 196/260/196 197/261/197 198/262/198
f 197/261/197 199/263/199 198/262/198
f 198/262/198 199/263/199 200/264/39
f 199/263/199 181/243/181 200/264/39
f 200/264/39 181/243/181 183/245/183
f 201/265/200 202/266/201 185/249/185
f 185/249/185 202/266/201 187/250/187
f 202/266/201 203/267/202 187/250/187
f 187/250/187 203/267/202 189/253/189
f 203/267/202 204/268/203 189/253/189
f 189/253/189 204/268/203 191/255/191
f 204/268/203 205/269/204 191/255/191
f 191/255/191 205/269/204 193/257/193
f 205/269/204 206/270/205 193/257/193
f 193/257/193 206/270/205 195/259/195
f 207/271/206 197/261/197 206/270/205
f 206/270/205 197/261/197 195/259/195
f 208/272/207 199/263/199 207/271/206
f 207/271/206 199/263/199 197/261/197
f 209/273/208 181/243/181 208/272/207
f 208/272/207 181/243/181 199/263/199
f 210/274/209 182/244/182 209/273/208
f 209/273/208 182/244/182 181/243/181
f 210/274/209 201/275/200 182/244/182
f 182/244/182 201/275/200 185/247/185
f 41/276/41 211/277/210 42/278/42
f 42/278/42 211/277/210 212/279/211
f 59/280/59 213/281/212 41/276/41
f 41/276/41 213/281/212 211/277/210
f 57/282/57 214/283/213 59/280/59
f 59/280/59 214/283/213 213/281/212
f 55/284/55 215/285/214 57/282/57
f 57/282/57 215/285/214 214/283/213
f 55/284/55 53/286/53 215/285/214
f 215/285/214 53/286/53 216/287/215
f 53/286/53 51/288/51 216/287/215
f 216/287/215 51/288/51 217/289/216
f 51/288/51 49/290/49 217/289/216
f 217/289/216 49/290/49 218/291/217
f 49/290/49 47/292/47 218/291/217
f 218/291/217 47/292/47 219/293/218
f 47/292/47 45/294/45 219/293/218
f 219/293/218 45/294/45 220/295/219
f 45/294/45 42/296/42 220/295/219
f 220/295/219 42/296/42 212/297/211
f 211/277/210 221/298/220 212/279/211
f 212/279/211 221/298/220 222/299/221
f 213/281/212 223/300/222 211/277/210
f 211/277/210 223/300/222 221/298/220
f 214/283/213 224/301/223 213/281/212
f 213/281/212 224/301/223 223/300/222
f 215/285/214 225/302/224 214/283/213
f 214/283/213 225/302/224 224/301/223
f 215/285/214 216/287/215 225/302/224
f 225/302/224 216/287/215 226/303/225
f 216/287/215 217/289/216 226/303/225
f 226/303/225 217/289/216 227/304/226
f 217/289/216 218/291/217 227/304/226
f 227/304/226 218/291/217 228/305/227
f 218/291/217 219/293/218 228/305/227
f 228/305/227 219/293/218 229/306/228
f 219/293/218 220/295/219 229/306/228
f 229/306/228 220/295/219 230/307/229
f 220/295/219 212/297/211 230/307/229
f 230/307/229 212/297/211 222/308/221
f 221/298/220 231/309/230 222/299/221
f 222/299/221 231/309/230 232/310/231
f 223/300/222 233/311/232 221/298/220
f 221/298/220 233/311/232 231/309/230
f 224/301/223 234/312/233 223/300/222
f 223/300/222 234/312/233 233/311/232
f 225/302/224 235/313/234 224/301/223
f 224/301/223 235/313/234 234/312/233
f 225/302/224 226/303/225 235/313/234
f 235/313/234 226/303/225 236/314/235
f 226/303/225 227/304/226 236/314/235
f 236/314/235 227/304/226 237/315/236
f 227/304/226 228/305/227 237/315/236
f 237/315/236 228/305/227 238/316/237
f 228/305/227 229/306/228 238/316/237
f 238/316/237 229/306/228 239/317/238
f 229/306/228 230/307/229 239/317/238
f 239/317/238 230/307/229 240/318/239
f 230/307/229 222/308/221 240/318/239
f 240/318/239 222/308/221 232/319/231
f 232/310/231 231/309/230 241/320/240
f 241/320/240 231/309/230 242/321/241
f 231/309/230 233/311/232 242/321/241
f 242/321/241 233/311/232 243/322/242
f 233/311/232 234/312/233 243/322/242
f 243/322/242 234/312/233 244/323/243
f 234/312/233 235/313/234 244/323/243
f 244/323/243 235/313/234 245/324/244
f 235/313/234 236/314/235 245/324/244
f 245/324/244 236/314/235 246/325/245
f 236/314/235 237/315/236 246/325/245
f 246/325/245 237/315/236 247/326/246
f 238/316/237 248/327/247 237/315/236
f 237/315/236 248/327/247 247/326/246
f 239/317/238 249/328/248 238/316/237
f 238/316/237 249/328/248 248/327/247
f 240/318/239 250/329/249 239/317/238
f 239/317/238 250/329/249 249/328/248
f 240/318/239 232/319/231 250/329/249
f 250/329/249 232/319/231 241/330/240
f 241/320/240 242/321/241 251/331/250
f 251/331/250 242/321/241 252/332/251
f 242/321/241 243/322/242 252/332/251
f 252/332/251 243/322/242 253/333/252
f 243/322/242 244/323/243 253/333/252
f 253/333/252 244/323/243 254/334/253
f 244/323/243 245/324/244 254/334/253
f 254/334/253 245/324/244 255/335/254
f 245/324/244 246/325/245 255/335/254
f 255/335/254 246/325/245 256/336/255
f 247/326/246 257/337/256 246/325/245
f 246/325/245 257/337/256 256/336/255
f 248/327/247 258/338/257 247/326/246
f 247/326/246 258/338/257 257/337/256
f 249/328/248 259/339/258 248/327/247
f 248/327/247 259/339/258 258/338/257
f 250/329/249 260/340/259 249/328/248
f 249/328/248 260/340/259 259/339/258
f 250/329/249 241/330/240 260/340/259
f 260/340/259 241/330/240 251/341/250
f 251/331/250 252/332/251 201/265/200
f 201/265/200 252/332/251 202/266/201
f 252/332/251 253/333/252 202/266/201
f 202/266/201 253/333/252 203/267/202
f 253/333/252 254/334/253 203/267/202
f 203/267/202 254/334/253 204/268/203
f 254/334/253 255/335/254 204/268/203
f 204/268/203 255/335/254 205/269/204
f 255/335/254 256/336/255 205/269/204
f 205/269/204 256/336/255 206/270/205
f 257/337/256 207/271/206 256/336/255
f 256/336/255 207/271/206 206/270/205
f 258/338/257 208/272/207 257/337/256
f 257/337/256 208/272/207 207/271/206
f 259/339/258 209/273/208 258/338/257
f 258/338/257 209/273/208 208/272/207
f 260/340/259 210/274/209 259/339/258
f 259/339/258 210/274/209 209/273/208
f 260/340/259 251/341/250 210/274/209
f 210/274/209 251/341/250 201/275/200
s off
