# Apple ModelIO OBJ File: StreetLight
mtllib StreetLight.mtl
g StreetLight_LightSG1
v 0.370303 0.326182 3.32098
v 0.407954 0.48072 3.56148
v -3e-06 0.256913 3.3212
v -3e-06 0.480212 3.71707
v -3e-06 -0.037499 0.65587
v -3e-06 0.114409 0.490682
v 0.424736 0.031775 0.655649
v 0.561223 0.114409 0.490682
v 0.509329 0.59258 3.73718
v 0.375337 0.691957 3.68147
v -3e-06 0.591929 3.93621
v -3e-06 0.691449 3.83706
v -5e-06 0.506629 3.82519
v 0.471638 0.507136 3.6696
v -0.463615 0.325837 -0.295712
v -0.364179 0.24117 -0.32998
v -0.363393 0.068385 -0.225662
v -0.254529 0.029054 -0.272266
v 0.463604 0.325837 -0.295712
v 0.363617 0.069684 -0.226016
v 0.364171 0.24117 -0.32998
v 0.254694 0.028815 -0.272202
v -1.1e-05 -0.074838 -0.186694
v 0.000102 -0.022851 -0.258143
v 0.278514 -0.020829 -0.201388
v -3e-06 0.196338 -0.41334
v -0.346162 0.527646 -0.350619
v -0.285356 0.419387 -0.378469
v 0.28755 0.418441 -0.378212
v 0.348777 0.526675 -0.350354
v -0.278535 -0.021316 -0.201256
v -0.937936 0.369758 1.60565
v -0.939291 0.434052 2.08923
v -1.03181 0.386945 1.61169
v -1.03168 0.451079 2.0993
v -0.710029 0.015391 1.71204
v -0.71078 0.067109 2.09285
v -5e-06 -0.121997 1.73147
v 0.710021 0.015391 1.71204
v -5e-06 -0.079957 2.09965
v 0.71077 0.067109 2.09285
v -0.903684 0.461421 2.40501
v -0.746391 0.485248 2.98289
v -0.981464 0.489305 2.54701
v -0.820135 0.51217 3.12056
v -0.581235 0.212876 2.88775
v -0.679439 0.13668 2.49833
v -3e-06 -0.007112 2.49563
v 0.67943 0.13668 2.49833
v -3e-06 0.085341 2.86601
v 0.581227 0.212876 2.88775
v 0.937928 0.369758 1.60565
v 1.0299 0.38659 1.61148
v 0.939282 0.434052 2.08923
v 1.02917 0.450599 2.09888
v 0.903642 0.461452 2.40533
v 0.980687 0.489158 2.54687
v 0.746518 0.485251 2.98259
v 0.820363 0.512225 3.12066
v -0.899867 0.311978 1.28305
v -0.986592 0.315646 1.21167
v -0.74162 0.203275 0.805202
v -0.88301 0.193391 0.709314
v -0.562778 -0.023301 0.977586
v -0.680385 -0.011571 1.34059
v -3e-06 -0.141246 0.996954
v 0.562769 -0.023301 0.977586
v -3e-06 -0.1457 1.35368
v 0.68038 -0.011571 1.34059
v 0.899859 0.311978 1.28305
v 0.741616 0.203275 0.805202
v 0.987137 0.315488 1.21005
v 0.884516 0.193471 0.70757
v 0.68857 1.16968 2.73332
v -6e-06 1.27258 2.73299
v 0.569582 1.00113 3.21282
v -3e-06 1.0941 3.20766
v 0.918356 0.959142 2.72719
v 0.766249 0.806771 3.22243
v 0.913777 0.598725 3.08111
v 1.04543 0.579932 2.61309
v 0.758192 1.26267 2.23271
v 0.770607 1.3274 1.68633
v -6e-06 1.36556 2.23238
v -6e-06 1.43029 1.68601
v 1.00754 1.03366 2.21459
v 1.02284 1.07685 1.66617
v 1.10231 0.537152 2.11552
v 1.10199 0.473556 1.62143
v -1.04544 0.579932 2.61309
v -0.913785 0.598725 3.08111
v -0.918365 0.959142 2.72719
v -0.766258 0.806771 3.22243
v 0.000668 1.2362 0.452845
v -9e-06 1.39541 1.11376
v 0.647826 1.13328 0.453032
v 0.742259 1.29251 1.11401
v -0.742276 1.29252 1.11417
v -0.646741 1.13334 0.453314
v -0.989799 1.02032 1.10307
v -0.869407 0.836925 0.448786
v -1.04635 0.391732 1.14568
v -0.941023 0.280953 0.673421
v -0.758203 1.26267 2.23271
v -0.770618 1.3274 1.68633
v -1.00755 1.03367 2.21459
v -1.02285 1.07686 1.66618
v -1.10231 0.53716 2.11558
v -1.10199 0.473542 1.62135
v 0.989935 1.0204 1.1044
v 1.04631 0.391686 1.14541
v 0.869812 0.837462 0.449994
v 0.941052 0.281302 0.673516
v -0.68858 1.16968 2.73332
v -0.569591 1.00113 3.21282
v -0.407963 0.48072 3.56148
v -0.370311 0.326182 3.32098
v -0.561231 0.114409 0.490682
v -0.424747 0.031775 0.655649
v -0.471649 0.507136 3.6696
v -0.509338 0.59258 3.73718
v -0.375347 0.691957 3.68147
v 0.001582 0.518529 -0.405444
v 0.001622 0.613023 -0.373849
vn 0.366316 -0.829187 0.42221
vn 0.319495 -0.812776 0.487154
vn -0 -0.915167 0.403074
vn -0 -0.86445 0.502719
vn -0 -0.928661 -0.370928
vn 0 -0.82638 -0.563113
vn 0.259891 -0.900368 -0.348989
vn 0.312726 -0.85378 -0.416248
vn 0.607406 0.120043 0.785269
vn 0.26125 0.7712 0.580516
vn 2e-06 0.008555 0.999963
vn -0 0.800134 0.599821
vn -1e-06 -0.849215 0.528047
vn 0.389784 -0.826338 0.406489
vn -0.839518 -0.001509 -0.54333
vn -0.281506 -0.26879 -0.921144
vn -0.838846 -0.325824 -0.436093
vn -0.218259 -0.534842 -0.816276
vn 0.840249 -0.002938 -0.542192
vn 0.839297 -0.323412 -0.437018
vn 0.281512 -0.269679 -0.920882
vn 0.218066 -0.535201 -0.816092
vn 0.000285 -0.985762 0.168149
vn 0.000135 -0.590166 -0.807282
vn 0.23323 -0.970617 0.05921
vn -0.000219 -0.271641 -0.962399
vn 1e-06 -0.976448 0.215752
vn 0.156601 -0.977934 0.138277
vn 0.0003 -0.976002 0.217762
vn 0.098954 -0.977131 0.188212
vn -0.379813 0.641818 -0.666192
vn -0.210186 0.001878 -0.97766
vn 0.210942 0.000451 -0.977498
vn 0.381609 0.640824 -0.666122
vn -0.231801 -0.970892 0.060314
vn -0.168349 -0.975548 0.1413
vn -0.167729 -0.978666 0.118656
vn -0.546354 -0.83238 0.092961
vn -0.544595 -0.830373 0.117885
vn -0.841591 -0.539301 0.029656
vn -0.480752 -0.873569 0.07586
vn -0.843266 -0.526857 0.106414
vn -0.481026 -0.86497 0.142969
vn -0 -0.995702 0.09262
vn 0.480751 -0.873569 0.075862
vn -0 -0.988113 0.153728
vn 0.481055 -0.864954 0.142969
vn -0.172097 -0.980026 0.099654
vn -0.186485 -0.977834 0.09521
vn -0.484007 -0.86394 0.139087
vn -0.471484 -0.845944 0.249163
vn -0.727202 -0.589905 0.350982
vn -0.82459 -0.527915 0.203363
vn -0.457628 -0.830796 0.316789
vn -0.476469 -0.849592 0.226208
vn 0 -0.977886 0.209138
vn 0.47643 -0.849622 0.226181
vn 0 -0.957899 0.287104
vn 0.457533 -0.830839 0.316813
vn 0.168384 -0.975526 0.14141
vn 0.546487 -0.832208 0.093713
vn 0.167705 -0.978675 0.118615
vn 0.543792 -0.830917 0.117762
vn 0.841591 -0.5393 0.029659
vn 0.843264 -0.52686 0.10642
vn 0.172081 -0.980031 0.099635
vn 0.48346 -0.864333 0.138545
vn 0.186495 -0.977831 0.095214
vn 0.471522 -0.84593 0.249138
vn 0.727229 -0.589886 0.350959
vn 0.824562 -0.527956 0.203371
vn -0.14605 -0.973869 0.17392
vn -0.480604 -0.870227 0.108283
vn -0.12572 -0.97594 0.178144
vn -0.47569 -0.879143 -0.028745
vn -0.673892 -0.71273 -0.194641
vn -0.41969 -0.895803 -0.146281
vn -0.802831 -0.58972 -0.087711
vn -0.464483 -0.885312 -0.021877
vn 0 -0.992435 -0.122775
vn 0.419689 -0.895803 -0.146281
vn 0 -0.999758 0.022006
vn 0.464483 -0.885312 -0.021875
vn 0.146545 -0.973826 0.173748
vn 0.126861 -0.975919 0.177451
vn 0.480052 -0.870444 0.108981
vn 0.477237 -0.878219 -0.031242
vn 0.673889 -0.712734 -0.194641
vn 0.802831 -0.58972 -0.087707
vn 0.313069 0.90572 0.285761
vn -0 0.963618 0.267284
vn 0.292635 0.834995 0.465991
vn 0 0.890697 0.454597
vn 0.837228 0.474296 0.272201
vn 0.722657 0.511044 0.465405
vn 0.930556 -0.009367 0.36603
vn 0.976114 0.03764 0.213975
vn 0.320182 0.934179 0.157456
vn 0.325503 0.945368 0.018118
vn 0 0.988276 0.152676
vn 4e-06 0.999664 0.025913
vn 0.899047 0.423266 0.112072
vn 0.920168 0.390251 -0.031543
vn 0.996612 0.040622 0.071512
vn 0.998978 0.020784 -0.04015
vn -0.976041 0.038939 0.214074
vn -0.930512 -0.009012 0.366151
vn -0.837226 0.474297 0.272205
vn -0.722657 0.511042 0.465406
vn 0.000178 0.898382 -0.439215
vn -3.6e-05 0.987592 -0.157042
vn 0.366433 0.809395 -0.458919
vn 0.349819 0.920233 -0.175495
vn -0.349794 0.920213 -0.17565
vn -0.365718 0.80965 -0.45904
vn -0.922078 0.339817 -0.185193
vn -0.882953 0.187091 -0.43057
vn -0.98899 -0.009199 -0.147694
vn -0.931231 -0.177386 -0.318346
vn -0.320178 0.934181 0.157456
vn -0.325578 0.945342 0.018098
vn -0.899055 0.423251 0.112062
vn -0.920183 0.390213 -0.031588
vn -0.996508 0.04349 0.071281
vn -0.998911 0.022925 -0.040629
vn 0.922269 0.339601 -0.184639
vn 0.988998 -0.008404 -0.147689
vn 0.883777 0.18621 -0.429261
vn 0.931488 -0.175239 -0.31878
vn -0.313067 0.90572 0.285762
vn -0.292634 0.834995 0.465992
vn -0.319442 -0.812797 0.487153
vn -0.366247 -0.82922 0.422205
vn -0.312727 -0.853779 -0.41625
vn -0.259892 -0.900368 -0.348989
vn -0.389801 -0.826367 0.406415
vn -0.607466 0.11975 0.785267
vn -0.26125 0.7712 0.580516
vn -0.156587 -0.977929 0.138331
vn -0.097914 -0.977063 0.189103
vn 0.000483 0.074627 -0.997212
vn 0.000518 0.763962 -0.645261
vt 0.736186 0.596525
vt 0.725301 0.556105
vt 0.789607 0.595911
vt 0.784809 0.530152
vt 0.808057 0.964191
vt 0.809245 0.996046
vt 0.747265 0.968495
vt 0.726778 0.995287
vt 0.201912 0.638414
vt 0.224102 0.618793
vt 0.292932 0.653301
vt 0.289011 0.630468
vt 0.674018 0.005245
vt 0.671372 0.023481
vt 0.603175 0.019909
vt 0.608871 0.033576
vt 0.901451 0.448844
vt 0.895542 0.467036
vt 0.867346 0.471469
vt 0.869554 0.488989
vt 0.934431 0.578308
vt 0.893366 0.574345
vt 0.920396 0.564823
vt 0.8868 0.557742
vt 0.858245 0.528318
vt 0.870359 0.525278
vt 0.876419 0.565161
vt 0.905113 0.516396
vt 0.669218 0.037795
vt 0.614405 0.048922
vt 0.632391 0.571492
vt 0.591131 0.567964
vt 0.641839 0.469914
vt 0.559851 0.46105
vt 0.935173 0.457755
vt 0.922996 0.470973
vt 0.942748 0.54821
vt 0.960726 0.554233
vt 0.856875 0.487382
vt 0.789568 0.33274
vt 0.788489 0.270348
vt 0.801729 0.33178
vt 0.800736 0.268563
vt 0.960513 0.824564
vt 0.899381 0.815174
vt 0.958885 0.751948
vt 0.89781 0.762463
vt 0.802046 0.81826
vt 0.705462 0.823941
vt 0.799747 0.76883
vt 0.702232 0.772135
vt 0.782403 0.227542
vt 0.762194 0.146901
vt 0.79371 0.207801
vt 0.773257 0.128192
vt 0.913797 0.622986
vt 0.949233 0.70473
vt 0.87528 0.65163
vt 0.891134 0.706222
vt 0.797007 0.714791
vt 0.703156 0.716443
vt 0.794001 0.66307
vt 0.712598 0.661469
vt 0.50834 0.290153
vt 0.495202 0.288369
vt 0.512384 0.222596
vt 0.500128 0.219838
vt 0.646418 0.838278
vt 0.641752 0.767597
vt 0.522508 0.181823
vt 0.515501 0.161502
vt 0.55659 0.112041
vt 0.550687 0.092493
vt 0.671889 0.638276
vt 0.646494 0.720959
vt 0.782873 0.373581
vt 0.793457 0.383675
vt 0.753271 0.434645
vt 0.770858 0.449846
vt 0.923327 0.943298
vt 0.884046 0.916154
vt 0.952526 0.873439
vt 0.897243 0.865727
vt 0.806178 0.915981
vt 0.728837 0.922322
vt 0.804241 0.868614
vt 0.711783 0.87353
vt 0.513013 0.337409
vt 0.536607 0.40988
vt 0.499893 0.34772
vt 0.515151 0.42346
vt 0.692036 0.952174
vt 0.657959 0.885429
vt 0.167304 0.462774
vt 0.261015 0.449869
vt 0.189135 0.533581
vt 0.271002 0.518965
vt 0.123519 0.473448
vt 0.151335 0.55146
vt 0.102573 0.553373
vt 0.055419 0.478202
vt 0.154073 0.394751
vt 0.151206 0.324329
vt 0.252451 0.384369
vt 0.244725 0.317396
vt 0.107407 0.39848
vt 0.106207 0.322273
vt 0.02648 0.392832
vt 0.017663 0.307755
vt 0.458032 0.422264
vt 0.436922 0.501573
vt 0.395846 0.435289
vt 0.39231 0.514133
vt 0.791249 0.131539
vt 0.808035 0.197117
vt 0.533446 0.091477
vt 0.503983 0.148681
vt 0.230715 0.177378
vt 0.237798 0.252058
vt 0.158595 0.180943
vt 0.152306 0.256802
vt 0.321291 0.240041
vt 0.301652 0.16827
vt 0.360964 0.225941
vt 0.337359 0.14938
vt 0.436382 0.192213
vt 0.409098 0.125908
vt 0.348168 0.370111
vt 0.335748 0.303831
vt 0.391816 0.362736
vt 0.377321 0.292865
vt 0.463167 0.340721
vt 0.45525 0.263236
vt 0.109213 0.250421
vt 0.025085 0.22941
vt 0.119424 0.168347
vt 0.04237 0.156404
vt 0.35289 0.436832
vt 0.35237 0.50863
vt 0.815147 0.264813
vt 0.815975 0.329348
vt 0.784805 0.456526
vt 0.806442 0.392208
vt 0.499624 0.427776
vt 0.484666 0.355489
vt 0.485377 0.214281
vt 0.479422 0.28452
vt 0.848159 0.547062
vt 0.842994 0.589316
vt 0.891702 0.989184
vt 0.869169 0.963871
vt 0.729735 0.051851
vt 0.739297 0.039709
vt 0.2677 0.046509
vt 0.297586 0.033485
vt 0.141171 0.04484
vt 0.172863 0.05351
vt 0.345911 0.598536
vt 0.372643 0.609527
vt 0.572675 0.570438
vt 0.690303 0.580474
vt 0.67316 0.574957
vt 0.324725 0.006656
vt 0.109715 0.021942
vt 0.719751 0.065752
vt 0.722184 0.477976
vt 0.947091 0.505776
vt 0.960732 0.502181
vt 0.220606 0.052531
usemtl LightSG1
f 1/1/1 2/2/2 3/3/3
f 3/3/3 2/2/2 4/4/4
f 5/5/5 6/6/6 7/7/7
f 7/7/7 6/6/6 8/8/8
f 9/9/9 10/10/10 11/11/11
f 11/11/11 10/10/10 12/12/12
f 11/13/11 13/14/13 9/15/9
f 9/15/9 13/14/13 14/16/14
f 15/17/15 16/18/16 17/19/17
f 17/19/17 16/18/16 18/20/18
f 19/21/19 20/22/20 21/23/21
f 21/23/21 20/22/20 22/24/22
f 23/25/23 24/26/24 25/27/25
f 25/27/25 24/26/24 22/24/22
f 24/26/24 26/28/26 22/24/22
f 22/24/22 26/28/26 21/23/21
f 13/14/13 4/29/27 14/16/14
f 14/16/14 4/29/27 2/30/28
f 23/31/23 25/32/25 6/33/29
f 6/33/29 25/32/25 8/34/30
f 27/35/31 28/36/32 15/17/15
f 15/17/15 28/36/32 16/18/16
f 21/23/21 29/37/33 19/21/19
f 19/21/19 29/37/33 30/38/34
f 17/19/17 18/20/18 31/39/35
f 22/24/22 20/22/20 25/27/25
f 32/40/36 33/41/37 34/42/38
f 34/42/38 33/41/37 35/43/39
f 32/44/40 36/45/41 33/46/42
f 33/46/42 36/45/41 37/47/43
f 38/48/44 39/49/45 40/50/46
f 40/50/46 39/49/45 41/51/47
f 42/52/48 43/53/49 44/54/50
f 44/54/50 43/53/49 45/55/51
f 43/56/52 42/57/53 46/58/54
f 46/58/54 42/57/53 47/59/55
f 48/60/56 49/61/57 50/62/58
f 50/62/58 49/61/57 51/63/59
f 52/64/60 53/65/61 54/66/62
f 54/66/62 53/65/61 55/67/63
f 52/68/64 54/69/65 39/49/45
f 39/49/45 54/69/65 41/51/47
f 56/70/66 57/71/67 58/72/68
f 58/72/68 57/71/67 59/73/69
f 58/74/70 51/63/59 56/75/71
f 56/75/71 51/63/59 49/61/57
f 60/76/72 61/77/73 62/78/74
f 62/78/74 61/77/73 63/79/75
f 62/80/76 64/81/77 60/82/78
f 60/82/78 64/81/77 65/83/79
f 66/84/80 67/85/81 68/86/82
f 68/86/82 67/85/81 69/87/83
f 70/88/84 71/89/85 72/90/86
f 72/90/86 71/89/85 73/91/87
f 71/92/88 70/93/89 67/85/81
f 67/85/81 70/93/89 69/87/83
f 74/94/90 75/95/91 76/96/92
f 76/96/92 75/95/91 77/97/93
f 74/94/90 76/96/92 78/98/94
f 78/98/94 76/96/92 79/99/95
f 79/99/95 80/100/96 78/98/94
f 78/98/94 80/100/96 81/101/97
f 82/102/98 83/103/99 84/104/100
f 84/104/100 83/103/99 85/105/101
f 82/102/98 86/106/102 83/103/99
f 83/103/99 86/106/102 87/107/103
f 86/106/102 88/108/104 87/107/103
f 87/107/103 88/108/104 89/109/105
f 90/110/106 91/111/107 92/112/108
f 92/112/108 91/111/107 93/113/109
f 91/114/107 90/115/106 45/55/51
f 45/55/51 90/115/106 44/54/50
f 80/116/96 59/73/69 81/117/97
f 81/117/97 59/73/69 57/71/67
f 94/118/110 95/119/111 96/120/112
f 96/120/112 95/119/111 97/121/113
f 98/122/114 99/123/115 100/124/116
f 100/124/116 99/123/115 101/125/117
f 100/124/116 101/125/117 102/126/118
f 102/126/118 101/125/117 103/127/119
f 104/128/120 105/129/121 106/130/122
f 106/130/122 105/129/121 107/131/123
f 106/130/122 107/131/123 108/132/124
f 108/132/124 107/131/123 109/133/125
f 110/134/126 111/135/127 112/136/128
f 112/136/128 111/135/127 113/137/129
f 112/136/128 96/120/112 110/134/126
f 110/134/126 96/120/112 97/121/113
f 114/138/130 92/112/108 115/139/131
f 115/139/131 92/112/108 93/113/109
f 108/140/124 109/141/125 35/43/39
f 35/43/39 109/141/125 34/42/38
f 103/142/119 63/79/75 102/143/118
f 102/143/118 63/79/75 61/77/73
f 113/144/129 111/145/127 73/91/87
f 73/91/87 111/145/127 72/90/86
f 88/146/104 55/67/63 89/147/105
f 89/147/105 55/67/63 53/65/61
f 40/50/46 41/51/47 48/60/56
f 48/60/56 41/51/47 49/61/57
f 3/3/3 50/62/58 1/1/1
f 1/1/1 50/62/58 51/63/59
f 68/86/82 69/87/83 38/48/44
f 38/48/44 69/87/83 39/49/45
f 5/5/5 7/7/7 66/84/80
f 66/84/80 7/7/7 67/85/81
f 33/46/42 37/47/43 42/57/53
f 42/57/53 37/47/43 47/59/55
f 54/69/65 56/75/71 41/51/47
f 41/51/47 56/75/71 49/61/57
f 2/2/2 1/1/1 58/74/70
f 58/74/70 1/1/1 51/63/59
f 116/148/132 43/56/52 117/149/133
f 117/149/133 43/56/52 46/58/54
f 60/82/78 65/83/79 32/44/40
f 32/44/40 65/83/79 36/45/41
f 70/93/89 52/68/64 69/87/83
f 69/87/83 52/68/64 39/49/45
f 8/8/8 71/92/88 7/7/7
f 7/7/7 71/92/88 67/85/81
f 118/150/134 119/151/135 62/80/76
f 62/80/76 119/151/135 64/81/77
f 78/98/94 86/106/102 74/94/90
f 74/94/90 86/106/102 82/102/98
f 76/96/92 10/10/10 79/99/95
f 79/99/95 10/10/10 9/9/9
f 120/152/136 121/153/137 45/55/51
f 45/55/51 121/153/137 91/114/107
f 14/16/14 59/73/69 9/15/9
f 9/15/9 59/73/69 80/116/96
f 100/124/116 107/131/123 98/122/114
f 98/122/114 107/131/123 105/129/121
f 99/123/115 27/154/31 101/125/117
f 101/125/117 27/154/31 15/155/15
f 19/156/19 30/157/34 112/136/128
f 112/136/128 30/157/34 96/120/112
f 110/134/126 97/121/113 87/107/103
f 87/107/103 97/121/113 83/103/99
f 104/128/120 106/130/122 114/138/130
f 114/138/130 106/130/122 92/112/108
f 35/43/39 44/54/50 108/140/124
f 108/140/124 44/54/50 90/115/106
f 34/42/38 109/141/125 61/77/73
f 61/77/73 109/141/125 102/143/118
f 115/139/131 93/113/109 122/158/138
f 122/158/138 93/113/109 121/159/137
f 113/144/129 73/91/87 20/160/20
f 20/160/20 73/91/87 25/32/25
f 111/145/127 89/147/105 72/90/86
f 72/90/86 89/147/105 53/65/61
f 55/67/63 88/146/104 57/71/67
f 57/71/67 88/146/104 81/117/97
f 103/142/119 17/161/17 63/79/75
f 63/79/75 17/161/17 31/162/35
f 95/119/111 85/105/101 97/121/113
f 97/121/113 85/105/101 83/103/99
f 108/132/124 90/110/106 106/130/122
f 106/130/122 90/110/106 92/112/108
f 87/107/103 89/109/105 110/134/126
f 110/134/126 89/109/105 111/135/127
f 75/95/91 74/94/90 84/104/100
f 84/104/100 74/94/90 82/102/98
f 12/12/12 10/10/10 77/97/93
f 77/97/93 10/10/10 76/96/92
f 121/159/137 93/113/109 91/111/107
f 9/9/9 80/100/96 79/99/95
f 78/98/94 81/101/97 86/106/102
f 86/106/102 81/101/97 88/108/104
f 107/131/123 100/124/116 109/133/125
f 109/133/125 100/124/116 102/126/118
f 101/125/117 15/155/15 103/127/119
f 103/127/119 15/155/15 17/163/17
f 112/136/128 113/137/129 19/156/19
f 19/156/19 113/137/129 20/164/20
f 44/54/50 35/43/39 42/52/48
f 42/52/48 35/43/39 33/41/37
f 57/71/67 56/70/66 55/67/63
f 55/67/63 56/70/66 54/66/62
f 14/16/14 2/30/28 59/73/69
f 59/73/69 2/30/28 58/72/68
f 120/152/136 45/55/51 116/165/139
f 116/165/139 45/55/51 43/53/49
f 61/77/73 60/76/72 34/42/38
f 34/42/38 60/76/72 32/40/36
f 72/90/86 53/65/61 70/88/84
f 70/88/84 53/65/61 52/64/60
f 25/32/25 73/91/87 8/34/30
f 8/34/30 73/91/87 71/89/85
f 31/162/35 118/166/140 63/79/75
f 63/79/75 118/166/140 62/78/74
f 46/58/54 50/62/58 117/149/133
f 117/149/133 50/62/58 3/3/3
f 46/58/54 47/59/55 50/62/58
f 50/62/58 47/59/55 48/60/56
f 47/59/55 37/47/43 48/60/56
f 48/60/56 37/47/43 40/50/46
f 37/47/43 36/45/41 40/50/46
f 40/50/46 36/45/41 38/48/44
f 36/45/41 65/83/79 38/48/44
f 38/48/44 65/83/79 68/86/82
f 65/83/79 64/81/77 68/86/82
f 68/86/82 64/81/77 66/84/80
f 5/5/5 66/84/80 119/151/135
f 119/151/135 66/84/80 64/81/77
f 118/150/134 6/6/6 119/151/135
f 119/151/135 6/6/6 5/5/5
f 23/31/23 6/33/29 31/162/35
f 31/162/35 6/33/29 118/166/140
f 18/20/18 24/26/24 31/39/35
f 31/39/35 24/26/24 23/25/23
f 16/18/16 26/28/26 18/20/18
f 18/20/18 26/28/26 24/26/24
f 98/122/114 95/119/111 99/123/115
f 99/123/115 95/119/111 94/118/110
f 105/129/121 85/105/101 98/122/114
f 98/122/114 85/105/101 95/119/111
f 85/105/101 105/129/121 84/104/100
f 84/104/100 105/129/121 104/128/120
f 104/128/120 114/138/130 84/104/100
f 84/104/100 114/138/130 75/95/91
f 77/97/93 75/95/91 115/139/131
f 115/139/131 75/95/91 114/138/130
f 12/12/12 77/97/93 122/158/138
f 122/158/138 77/97/93 115/139/131
f 12/12/12 122/158/138 11/11/11
f 11/11/11 122/158/138 121/159/137
f 120/152/136 13/14/13 121/153/137
f 121/153/137 13/14/13 11/13/11
f 13/14/13 120/152/136 4/29/27
f 4/29/27 120/152/136 116/165/139
f 4/4/4 116/148/132 3/3/3
f 3/3/3 116/148/132 117/149/133
f 28/36/32 27/35/31 123/167/141
f 123/167/141 27/35/31 124/168/142
f 124/168/142 30/38/34 123/167/141
f 123/167/141 30/38/34 29/37/33
f 123/167/141 29/37/33 26/28/26
f 26/28/26 29/37/33 21/23/21
f 94/118/110 96/120/112 124/169/142
f 124/169/142 96/120/112 30/157/34
f 16/18/16 28/36/32 26/28/26
f 26/28/26 28/36/32 123/167/141
f 94/118/110 124/169/142 99/123/115
f 99/123/115 124/169/142 27/154/31
s off
g StreetLight_PoleSG1
v -0.207872 -0.392806 -2.4439
v -0.256944 -0.533574 -2.38918
v -0.207872 0.571639 0.037241
v -0.256944 0.430873 0.091959
v -0.079398 -0.30581 -2.47772
v -0.079398 0.658637 0.003424
v 0.0794 -0.30581 -2.47772
v 0.0794 0.658637 0.003424
v 0.207873 -0.392806 -2.4439
v 0.207873 0.571639 0.037241
v 0.256944 -0.533574 -2.38918
v 0.256944 0.430873 0.091959
v 0.207873 -0.674344 -2.33446
v 0.207873 0.290107 0.146676
v 0.0794 -0.761342 -2.30065
v 0.0794 0.203109 0.180494
v -0.079398 -0.761342 -2.30065
v -0.079398 0.203109 0.180494
v -0.207872 -0.674344 -2.33446
v -0.207872 0.290107 0.146676
v 0.112916 -0.24434 -2.60429
v 0.121295 -0.241719 -2.66871
v -0.112915 -0.24434 -2.60429
v -0.12129 -0.241719 -2.66871
v 0.31755 -0.374612 -2.61704
v 0.295617 -0.36806 -2.55619
v 0.392514 -0.589654 -2.53346
v 0.365405 -0.568246 -2.47838
v -0.295617 -0.36806 -2.55619
v -0.317549 -0.374612 -2.61704
v -0.365403 -0.568246 -2.47838
v -0.392513 -0.589654 -2.53346
v -0.295616 -0.768432 -2.40056
v -0.317549 -0.804696 -2.44987
v -0.112915 -0.892154 -2.35247
v -0.12129 -0.937591 -2.39821
v 0.112916 -0.892154 -2.35247
v 0.121295 -0.937591 -2.39821
v 0.295617 -0.768432 -2.40056
v 0.31755 -0.804696 -2.44987
v 0.31755 -0.867314 -3.88455
v 0.121295 -0.73441 -3.93621
v -0.12129 -0.73441 -3.93621
v -0.317549 -0.867314 -3.88455
v -0.392513 -1.08236 -3.80096
v -0.317549 -1.29739 -3.71738
v -0.12129 -1.43029 -3.66571
v 0.121295 -1.43029 -3.66572
v 0.31755 -1.29739 -3.71738
v 0.392514 -1.08236 -3.80096
vn -0.809011 0.547859 -0.212959
vn -1 2e-06 -1e-06
vn -0.809013 0.547857 -0.212958
vn -1 -2e-06 1e-06
vn -0.309017 0.886442 -0.344571
vn 0.309018 0.886442 -0.344571
vn 0.309019 0.886442 -0.34457
vn 0.809014 0.547855 -0.212958
vn 0.809016 0.547852 -0.212957
vn 1 2e-06 -1e-06
vn 1 -2e-06 1e-06
vn 0.809017 -0.547851 0.212957
vn 0.809018 -0.54785 0.212956
vn 0.309015 -0.886442 0.344571
vn 0.309015 -0.886443 0.344571
vn -0.309014 -0.886443 0.344571
vn -0.809014 -0.547855 0.212958
vn -0.809015 -0.547854 0.212958
vn 0.243959 0.92222 0.29999
vn 0.308982 0.891798 -0.330495
vn -0.243969 0.922218 0.299987
vn -0.308978 0.891799 -0.330496
vn 0.808925 0.553245 -0.198897
vn 0.638729 0.654889 0.403913
vn 0.999887 0.005462 0.014033
vn 0.789518 0.222346 0.572034
vn -0.638731 0.654889 0.403909
vn -0.808921 0.553251 -0.1989
vn -0.789519 0.222345 0.572034
vn -0.999887 0.005462 0.014033
vn -0.63874 -0.210178 0.74016
vn -0.808918 -0.542343 0.226972
vn -0.243976 -0.477518 0.844069
vn -0.308973 -0.880889 0.358568
vn 0.243966 -0.477518 0.844072
vn 0.30898 -0.880886 0.358567
vn 0.63874 -0.210175 0.740161
vn 0.80892 -0.542341 0.22697
vn 0.809019 0.547848 -0.212956
vn 0.309013 0.886444 -0.34457
vn -0.309011 0.886444 -0.34457
vn -0.809015 0.547854 -0.212958
vn -1 -6e-06 2e-06
vn -0.809014 -0.547855 0.212959
vn -0.309004 -0.886445 0.344574
vn 0.309014 -0.886442 0.344572
vn 0.809016 -0.547853 0.212957
vn 1 -6e-06 2e-06
vn 0.204446 0.858166 0.470906
vn 0.53526 0.634145 0.557993
vn -0.204444 0.858166 0.470907
vn -0.535259 0.634147 0.557993
vn -0.66163 0.271661 0.698889
vn -0.535269 -0.090816 0.839785
vn -0.204451 -0.314836 0.926864
vn 0.204453 -0.314837 0.926864
vn 0.535269 -0.090814 0.839785
vn 0.661627 0.271662 0.698891
vt 0.401042 0.003946
vt 0.445141 0.003945
vt 0.401071 0.743192
vt 0.445169 0.743193
vt 0.356941 0.003945
vt 0.356972 0.743193
vt 0.312841 0.003942
vt 0.312873 0.743195
vt 0.26874 0.003938
vt 0.268776 0.743198
vt 0.224639 0.003933
vt 0.224683 0.743199
vt 0.180534 0.003928
vt 0.180589 0.7432
vt 0.136432 0.003923
vt 0.136489 0.743202
vt 0.092325 0.003917
vt 0.092392 0.743204
vt 0.048216 0.00391
vt 0.048299 0.743209
vt 0.004104 0.003903
vt 0.003968 0.743339
vt 0.986891 0.779648
vt 0.996032 0.776677
vt 0.986891 0.859712
vt 0.996032 0.862681
vt 0.945481 0.707098
vt 0.93983 0.714874
vt 0.863686 0.680521
vt 0.863685 0.690132
vt 0.93983 0.924486
vt 0.945481 0.932262
vt 0.863685 0.949227
vt 0.863686 0.958839
vt 0.787539 0.924485
vt 0.781889 0.932262
vt 0.740478 0.859712
vt 0.731339 0.862681
vt 0.740478 0.779648
vt 0.731339 0.776677
vt 0.787539 0.714874
vt 0.781889 0.707098
vt 0.456861 0.071195
vt 0.456864 0.00382
vt 0.834571 0.071195
vt 0.834566 0.003821
vt 0.456864 0.677597
vt 0.456864 0.61022
vt 0.834574 0.677602
vt 0.834568 0.610219
vt 0.456861 0.542842
vt 0.834569 0.542836
vt 0.456861 0.475463
vt 0.834569 0.475458
vt 0.45686 0.408081
vt 0.834566 0.408084
vt 0.456862 0.340705
vt 0.834574 0.340706
vt 0.456862 0.273333
vt 0.834578 0.273332
vt 0.45686 0.205956
vt 0.834573 0.205957
vt 0.456861 0.13858
vt 0.83457 0.138576
vt 0.950321 0.79153
vt 0.917229 0.745982
vt 0.950321 0.847829
vt 0.917229 0.893377
vt 0.863685 0.910775
vt 0.810139 0.893377
vt 0.777048 0.847829
vt 0.777048 0.79153
vt 0.810139 0.745982
vt 0.863685 0.728585
usemtl PoleSG1
f 125/170/143 126/171/144 127/172/145
f 127/172/145 126/171/144 128/173/146
f 129/174/147 125/170/143 130/175/147
f 130/175/147 125/170/143 127/172/145
f 131/176/148 129/174/147 132/177/149
f 132/177/149 129/174/147 130/175/147
f 133/178/150 131/176/148 134/179/151
f 134/179/151 131/176/148 132/177/149
f 135/180/152 133/178/150 136/181/153
f 136/181/153 133/178/150 134/179/151
f 137/182/154 135/180/152 138/183/155
f 138/183/155 135/180/152 136/181/153
f 139/184/156 137/182/154 140/185/157
f 140/185/157 137/182/154 138/183/155
f 141/186/158 139/184/156 142/187/158
f 142/187/158 139/184/156 140/185/157
f 143/188/159 141/186/158 144/189/160
f 144/189/160 141/186/158 142/187/158
f 126/190/144 143/188/159 128/191/146
f 128/191/146 143/188/159 144/189/160
f 145/192/161 146/193/162 147/194/163
f 147/194/163 146/193/162 148/195/164
f 146/193/162 145/192/161 149/196/165
f 149/196/165 145/192/161 150/197/166
f 149/196/165 150/197/166 151/198/167
f 151/198/167 150/197/166 152/199/168
f 147/194/163 148/195/164 153/200/169
f 153/200/169 148/195/164 154/201/170
f 153/200/169 154/201/170 155/202/171
f 155/202/171 154/201/170 156/203/172
f 155/202/171 156/203/172 157/204/173
f 157/204/173 156/203/172 158/205/174
f 157/204/173 158/205/174 159/206/175
f 159/206/175 158/205/174 160/207/176
f 159/206/175 160/207/176 161/208/177
f 161/208/177 160/207/176 162/209/178
f 161/208/177 162/209/178 163/210/179
f 163/210/179 162/209/178 164/211/180
f 163/210/179 164/211/180 152/199/168
f 152/199/168 164/211/180 151/198/167
f 165/212/181 166/213/182 149/214/165
f 149/214/165 166/213/182 146/215/162
f 166/216/182 167/217/183 146/218/162
f 146/218/162 167/217/183 148/219/164
f 167/217/183 168/220/184 148/219/164
f 148/219/164 168/220/184 154/221/170
f 168/220/184 169/222/185 154/221/170
f 154/221/170 169/222/185 156/223/172
f 169/222/185 170/224/186 156/223/172
f 156/223/172 170/224/186 158/225/174
f 170/224/186 171/226/187 158/225/174
f 158/225/174 171/226/187 160/227/176
f 171/226/187 172/228/188 160/227/176
f 160/227/176 172/228/188 162/229/178
f 172/228/188 173/230/189 162/229/178
f 162/229/178 173/230/189 164/231/180
f 173/230/189 174/232/190 164/231/180
f 164/231/180 174/232/190 151/233/167
f 174/232/190 165/212/181 151/233/167
f 151/233/167 165/212/181 149/214/165
f 131/234/191 133/235/192 145/192/161
f 145/192/161 133/235/192 150/197/166
f 129/236/193 131/234/191 147/194/163
f 147/194/163 131/234/191 145/192/161
f 125/237/194 129/236/193 153/200/169
f 153/200/169 129/236/193 147/194/163
f 126/238/195 125/237/194 155/202/171
f 155/202/171 125/237/194 153/200/169
f 143/239/196 126/238/195 157/204/173
f 157/204/173 126/238/195 155/202/171
f 141/240/197 143/239/196 159/206/175
f 159/206/175 143/239/196 157/204/173
f 139/241/198 141/240/197 161/208/177
f 161/208/177 141/240/197 159/206/175
f 137/242/199 139/241/198 163/210/179
f 163/210/179 139/241/198 161/208/177
f 135/243/200 137/242/199 152/199/168
f 152/199/168 137/242/199 163/210/179
f 133/235/192 135/243/200 150/197/166
f 150/197/166 135/243/200 152/199/168
s off
