# This file uses centimeters as units for non-parametric coordinates.

mtllib orange_low.mtl
g default
v -0.908147 0.949421 0.043434
v -0.817647 0.887345 0.100385
v -0.619436 0.893430 0.098858
v -0.613688 0.963146 0.044615
v -0.613688 0.963146 -0.044615
v -0.619436 0.893430 -0.098858
v -0.817647 0.887345 -0.100385
v -0.907102 0.951104 -0.040715
v -0.432864 0.899623 0.094684
v -0.427174 0.964492 0.036424
v -0.427174 0.964492 -0.036424
v -0.432864 0.899623 -0.094684
v -0.057583 0.889210 0.098885
v -0.051879 0.957614 0.044145
v -0.051879 0.957614 -0.044145
v -0.057583 0.889210 -0.098885
v 0.477625 0.891120 0.106125
v 0.483326 0.961488 0.052657
v 0.483326 0.961488 -0.052657
v 0.477625 0.891120 -0.106125
v 0.713125 0.895963 0.101814
v 0.718955 0.966097 0.048935
v 0.718955 0.966097 -0.048935
v 0.713125 0.895963 -0.101814
v 0.859281 0.868580 0.105716
v 0.916675 0.945192 0.044088
v 0.859281 0.868580 -0.105716
v 0.853966 0.802588 0.121184
v 0.937497 0.799496 0.072620
v 0.937497 0.799496 -0.072620
v 0.853966 0.802588 -0.121184
v -0.908546 0.751902 0.093006
v -0.815364 0.764087 0.127936
v -0.815364 0.764087 -0.127936
v -0.908546 0.751902 -0.093006
v 0.760558 0.598421 0.131222
v 0.843410 0.561290 0.090580
v 0.843410 0.561290 -0.090580
v 0.760558 0.598421 -0.131222
v 0.601302 0.386081 0.132936
v 0.668702 0.341693 0.113033
v 0.668702 0.341693 -0.113033
v 0.601302 0.386081 -0.132936
v 0.422412 0.238324 0.133561
v 0.475087 0.178219 0.114377
v 0.475087 0.178219 -0.114377
v 0.422412 0.238324 -0.133561
v -0.843873 0.569270 0.093865
v -0.751744 0.580934 0.130986
v -0.751744 0.580934 -0.130986
v -0.843873 0.569270 -0.093865
v -0.683888 0.328422 0.095132
v -0.592047 0.339833 0.131706
v -0.592047 0.339833 -0.131706
v -0.683888 0.328422 -0.095132
v -0.470277 0.182221 0.118049
v -0.410598 0.238119 0.133589
v -0.410598 0.238119 -0.133589
v -0.470277 0.182221 -0.118049
v -0.216611 0.081883 0.120446
v -0.156564 0.138872 0.133657
v -0.156564 0.138872 -0.133657
v -0.216611 0.081883 -0.120446
v 0.194783 0.129297 0.132839
v 0.198746 0.066386 0.111987
v 0.198746 0.066386 -0.111987
v 0.194783 0.129297 -0.132839
v -0.003733 0.132109 0.133843
v -0.007660 0.049649 0.119176
v -0.003733 0.132109 -0.133843
v -0.007660 0.049649 -0.119176
v -0.239979 0.901027 0.093017
v -0.236071 0.960148 0.040649
v -0.239979 0.901027 -0.093017
v -0.236071 0.960148 -0.040649
v 0.356051 0.889505 0.106226
v 0.361772 0.959170 0.051591
v 0.356051 0.889505 -0.106226
v 0.361772 0.959170 -0.051591
v 0.200863 0.886675 0.104668
v 0.206580 0.956469 0.050422
v 0.200863 0.886675 -0.104668
v 0.206580 0.956469 -0.050422
v 0.068309 0.887760 0.101242
v 0.074020 0.956272 0.046678
v 0.068309 0.887760 -0.101242
v 0.074020 0.956272 -0.046678
v -0.428947 0.974836 0.000000
v -0.237701 0.972569 0.000000
v -0.614940 0.971670 0.000000
v -0.921640 0.961742 0.003424
v 0.908092 0.936875 -0.051925
v 0.718721 0.982558 0.000000
v 0.927442 0.958296 0.000000
v 0.483052 0.972906 0.000000
v 0.362149 0.975981 0.000000
v 0.206198 0.973187 0.000000
v 0.074507 0.967180 0.000000
v -0.055084 0.972149 0.000000
v 0.960119 0.802778 0.000000
v 0.874956 0.558526 0.000000
v 0.713233 0.327103 0.000000
v 0.486148 0.149481 0.000000
v 0.204202 0.042490 0.000000
v -0.006721 0.020921 0.000000
v -0.219083 0.045809 0.000000
v -0.473484 0.142539 0.000000
v -0.696144 0.309077 0.000000
v -0.868358 0.544354 0.000000
v -0.947676 0.746353 0.000000
v -0.703370 0.891060 0.099948
v -0.738274 0.962555 0.048241
v -0.744363 0.982301 0.000000
v -0.738274 0.962555 -0.048241
v -0.703370 0.891060 -0.099948
v -0.778784 0.658453 -0.130716
v -0.872269 0.646228 -0.094659
v -0.907490 0.627611 0.000000
v -0.872269 0.646228 0.094659
v -0.778784 0.658453 0.130716
v -0.554147 0.895684 0.097568
v -0.548415 0.964321 0.042239
v -0.538562 0.977637 0.000000
v -0.548415 0.964321 -0.042239
v -0.554147 0.895684 -0.097568
v -0.695864 0.496561 -0.131296
v -0.790484 0.483582 -0.097522
v -0.816212 0.456591 0.000000
v -0.790484 0.483582 0.097522
v -0.695864 0.496561 0.131296
v 0.935573 0.876930 0.067881
v 0.856973 0.836737 0.115025
v 0.736712 0.751530 0.134169
v 0.559063 0.604217 0.136260
v 0.388451 0.569481 0.136095
v 0.197822 0.516565 0.134471
v 0.033105 0.518636 0.134006
v -0.105922 0.522685 0.134001
v -0.323290 0.577114 0.134469
v -0.510649 0.626090 0.134746
v -0.623431 0.700977 0.134377
v -0.684144 0.741647 0.132965
v -0.740317 0.805409 0.126045
v -0.829604 0.839961 0.115675
v -0.920187 0.856534 0.083952
v -0.965194 0.856433 0.000000
v -0.920187 0.856534 -0.083952
v -0.829604 0.839961 -0.115675
v -0.740317 0.805409 -0.126045
v -0.684144 0.741647 -0.132965
v -0.623431 0.700977 -0.134377
v -0.510649 0.626090 -0.134746
v -0.323290 0.577114 -0.134469
v -0.105922 0.522685 -0.134001
v 0.033105 0.518636 -0.134006
v 0.197822 0.516565 -0.134471
v 0.388451 0.569481 -0.136095
v 0.559063 0.604217 -0.136260
v 0.736712 0.751530 -0.134169
v 0.856973 0.836737 -0.115025
v 0.935573 0.876930 -0.067881
v 0.963870 0.884923 0.000000
v 0.782845 0.883823 0.105842
v 0.813361 0.962765 0.052290
v 0.818301 0.983557 0.000000
v 0.813361 0.962765 -0.052290
v 0.782845 0.883823 -0.105842
v 0.794023 0.792136 -0.125041
v 0.805156 0.695703 -0.126936
v 0.889554 0.674369 -0.083210
v 0.923556 0.672050 0.000000
v 0.889554 0.674369 0.083210
v 0.805156 0.695703 0.126936
v 0.794023 0.792136 0.125041
vt 0.040041 0.443843
vt 0.086835 0.416245
vt 0.137052 0.424684
vt 0.115614 0.462630
vt 0.883940 0.948218
vt 0.808686 0.965395
vt 0.787508 0.927257
vt 0.837662 0.919161
vt 0.173392 0.470185
vt 0.175006 0.429524
vt 0.204719 0.433095
vt 0.203897 0.473534
vt 0.749557 0.931796
vt 0.750885 0.972494
vt 0.720364 0.975589
vt 0.719838 0.935127
vt 0.260779 0.478577
vt 0.260385 0.438731
vt 0.349931 0.443087
vt 0.350710 0.479057
vt 0.574597 0.943897
vt 0.573527 0.979863
vt 0.486890 0.978895
vt 0.489589 0.938989
vt 0.437358 0.478828
vt 0.434987 0.438902
vt 0.493660 0.438140
vt 0.496758 0.478051
vt 0.297185 0.933219
vt 0.291860 0.973443
vt 0.234674 0.970543
vt 0.241281 0.930638
vt 0.689628 0.472625
vt 0.683346 0.432658
vt 0.791329 0.426116
vt 0.799939 0.465325
vt 0.124394 0.962289
vt 0.133319 0.923191
vt 0.821446 0.416590
vt 0.842769 0.455997
vt 0.891203 0.374494
vt 0.891144 0.408084
vt 0.851210 0.391372
vt 0.848825 0.376690
vt 0.091502 0.361313
vt 0.083575 0.393967
vt 0.041467 0.399865
vt 0.047245 0.354505
vt 0.883152 0.903323
vt 0.841163 0.896962
vt 0.833614 0.864295
vt 0.877964 0.858001
vt 0.869338 0.318737
vt 0.826292 0.331742
vt 0.804463 0.290361
vt 0.844961 0.270072
vt 0.099215 0.828565
vt 0.056327 0.815180
vt 0.081102 0.766715
vt 0.121403 0.787356
vt 0.730029 0.200133
vt 0.760517 0.177638
vt 0.166311 0.674989
vt 0.196599 0.697743
vt 0.648593 0.138240
vt 0.671942 0.109593
vt 0.255456 0.607685
vt 0.278557 0.636529
vt 0.063489 0.307619
vt 0.108905 0.315951
vt 0.816683 0.818811
vt 0.862215 0.810961
vt 0.122042 0.282304
vt 0.077212 0.273615
vt 0.102957 0.236127
vt 0.148362 0.246263
vt 0.848822 0.776822
vt 0.803873 0.785059
vt 0.777881 0.748790
vt 0.823409 0.739085
vt 0.197892 0.179221
vt 0.154421 0.169175
vt 0.253766 0.109947
vt 0.279864 0.136868
vt 0.772516 0.671664
vt 0.728938 0.681320
vt 0.647317 0.638262
vt 0.673656 0.611568
vt 0.124007 0.382617
vt 0.800899 0.885283
vt 0.822423 0.374628
vt 0.796065 0.358931
vt 0.102677 0.871500
vt 0.129177 0.856004
vt 0.713721 0.299106
vt 0.212047 0.796858
vt 0.178222 0.340306
vt 0.150263 0.356267
vt 0.774921 0.858730
vt 0.747124 0.842539
vt 0.366887 0.067903
vt 0.392959 0.094994
vt 0.534568 0.595430
vt 0.560877 0.568561
vt 0.547738 0.091435
vt 0.549840 0.061436
vt 0.377966 0.560552
vt 0.379811 0.590569
vt 0.460334 0.093014
vt 0.458965 0.055221
vt 0.467204 0.592883
vt 0.468898 0.555102
vt 0.664155 0.940301
vt 0.663450 0.980149
vt 0.315409 0.292422
vt 0.230315 0.310240
vt 0.695317 0.812039
vt 0.610391 0.793505
vt 0.632426 0.475037
vt 0.627432 0.434767
vt 0.369273 0.935357
vt 0.364972 0.975480
vt 0.636409 0.288019
vt 0.289450 0.786413
vt 0.559302 0.476451
vt 0.555333 0.436294
vt 0.430928 0.937728
vt 0.427500 0.977612
vt 0.413575 0.270491
vt 0.512423 0.770747
vt 0.550084 0.267045
vt 0.375951 0.766159
vt 0.476063 0.268951
vt 0.449952 0.768684
vt 0.349426 0.498335
vt 0.664949 0.997301
vt 0.717055 0.995889
vt 0.753805 0.993170
vt 0.816570 0.988195
vt 0.899018 0.963136
vt 0.081575 0.952548
vt 0.103253 0.913442
vt 0.073727 0.888052
vt 0.033873 0.904370
vt 0.034038 0.870759
vt 0.076276 0.873364
vt 0.071534 0.976066
vt 0.120315 0.985443
vt 0.232381 0.995012
vt 0.290230 0.998005
vt 0.364359 0.999641
vt 0.426965 0.999391
vt 0.488433 1.000000
vt 0.922367 0.417473
vt 0.925272 0.375506
vt 0.909629 0.309982
vt 0.040814 0.750322
vt 0.805864 0.145723
vt 0.696558 0.060949
vt 0.561788 0.011976
vt 0.459966 0.000000
vt 0.357073 0.011760
vt 0.693397 0.558565
vt 0.126259 0.134715
vt 0.066512 0.205230
vt 0.039614 0.247880
vt 0.019508 0.289310
vt 0.923385 0.853853
vt 0.924446 0.910577
vt 0.887891 0.440237
vt 0.853812 0.405385
vt 0.070935 0.902072
vt 0.041116 0.933181
vt 0.021796 0.950589
vt 0.016136 0.806053
vt 0.885403 0.254037
vt 0.852679 0.479618
vt 0.902552 0.454617
vt 0.002738 0.913477
vt 0.000000 0.406113
vt 0.026311 0.457811
vt 0.860155 0.708546
vt 0.800992 0.637462
vt 0.207060 0.493860
vt 0.259147 0.495715
vt 0.906428 0.793177
vt 0.001908 0.349660
vt 0.107695 0.485365
vt 0.886690 0.751489
vt 0.234491 0.056772
vt 0.571176 0.512505
vt 0.468371 0.499874
vt 0.366441 0.510991
vt 0.231258 0.558832
vt 0.121246 0.642685
vt -0.000000 0.871452
vt 0.574656 0.999151
vt 0.435642 0.499919
vt 0.497114 0.499833
vt 0.559716 0.500616
vt 0.633857 0.499612
vt 0.691727 0.497114
vt 0.803846 0.488518
vt 0.170348 0.490829
vn -0.400176 0.665181 0.630392
vn -0.094647 0.484654 0.869570
vn 0.009395 0.445028 0.895468
vn -0.031144 0.766393 0.641617
vn -0.402729 0.680961 -0.611638
vn -0.034644 0.770861 -0.636061
vn 0.008208 0.446114 -0.894939
vn -0.098837 0.488548 -0.866921
vn 0.010264 0.782949 0.622001
vn 0.037417 0.366592 0.929629
vn 0.044978 0.283022 0.958058
vn 0.005197 0.771394 0.636337
vn 0.037417 0.366592 -0.929629
vn 0.010264 0.782949 -0.622001
vn 0.005198 0.771394 -0.636337
vn 0.044978 0.283022 -0.958058
vn 0.009537 0.783870 0.620852
vn 0.025621 0.255986 0.966341
vn 0.009664 0.230320 0.973067
vn 0.005024 0.782688 0.622394
vn 0.009664 0.230320 -0.973067
vn 0.005024 0.782688 -0.622394
vn 0.004163 0.778084 -0.628147
vn -0.000327 0.200990 -0.979593
vn 0.004163 0.778084 0.628147
vn -0.000327 0.200990 0.979593
vn -0.010790 0.188136 0.982084
vn -0.010950 0.778326 0.627766
vn -0.018513 0.192699 -0.981083
vn -0.013840 0.778726 -0.627212
vn -0.008708 0.776554 -0.629990
vn -0.017911 0.240925 -0.970378
vn -0.008708 0.776554 0.629990
vn -0.017911 0.240925 0.970378
vn -0.019564 0.304130 0.952430
vn -0.003351 0.777055 0.629424
vn -0.003351 0.777055 -0.629424
vn -0.019564 0.304130 -0.952430
vn 0.044666 0.416447 0.908062
vn 0.099787 0.731742 0.674237
vn 0.774666 -0.145384 0.615432
vn 0.737512 0.202852 0.644149
vn 0.269987 0.174798 0.946865
vn 0.367523 -0.041568 0.929085
vn -0.209606 0.012483 0.977706
vn -0.186487 0.208971 0.959976
vn -0.667088 0.151185 0.729477
vn -0.699510 -0.137206 0.701328
vn -0.668460 0.161155 -0.726079
vn -0.187593 0.212886 -0.958900
vn -0.209606 0.012483 -0.977706
vn -0.699510 -0.137206 -0.701328
vn 0.709540 -0.242157 0.661750
vn 0.316367 -0.074967 0.945670
vn 0.148262 -0.070617 0.986424
vn 0.660719 -0.399559 0.635455
vn 0.316367 -0.074967 -0.945670
vn 0.709540 -0.242157 -0.661750
vn 0.660719 -0.399559 -0.635455
vn 0.148262 -0.070617 -0.986424
vn 0.085208 -0.068640 0.993996
vn 0.559706 -0.526287 0.640118
vn 0.559706 -0.526287 -0.640118
vn 0.085208 -0.068640 -0.993996
vn 0.032519 -0.062135 0.997538
vn 0.413018 -0.707153 0.573891
vn 0.413018 -0.707154 -0.573891
vn 0.032519 -0.062135 -0.997538
vn -0.671823 -0.239923 0.700779
vn -0.193316 -0.039512 0.980341
vn -0.193316 -0.039512 -0.980341
vn -0.671823 -0.239923 -0.700779
vn -0.160206 -0.072058 0.984450
vn -0.668747 -0.331894 0.665299
vn -0.629045 -0.426664 0.649815
vn -0.115978 -0.076296 0.990317
vn -0.668747 -0.331894 -0.665299
vn -0.160206 -0.072058 -0.984450
vn -0.115978 -0.076296 -0.990317
vn -0.629045 -0.426664 -0.649815
vn -0.079308 -0.074994 0.994025
vn -0.575211 -0.585211 0.571542
vn -0.399217 -0.703335 0.588171
vn -0.027214 -0.044105 0.998656
vn -0.575211 -0.585211 -0.571542
vn -0.079308 -0.074994 -0.994025
vn -0.027214 -0.044105 -0.998656
vn -0.399217 -0.703335 -0.588171
vn 0.008436 0.169308 0.985527
vn 0.008436 0.169308 -0.985527
vn 0.035875 0.139062 0.989634
vn -0.005357 0.093589 0.995597
vn 0.035875 0.139062 -0.989634
vn -0.005357 0.093589 -0.995597
vn -0.001295 0.044232 0.999020
vn -0.001295 0.044232 -0.999020
vn 0.018727 0.071487 0.997266
vn 0.006294 0.092368 0.995705
vn 0.006294 0.092368 -0.995705
vn 0.018727 0.071487 -0.997266
vn -0.215377 -0.758567 0.614970
vn -0.008825 -0.039636 0.999175
vn -0.008825 -0.039636 -0.999175
vn -0.215377 -0.758567 -0.614970
vn 0.018211 -0.064559 0.997748
vn 0.213622 -0.809927 0.546246
vn 0.213622 -0.809927 -0.546246
vn 0.018211 -0.064559 -0.997748
vn 0.001656 -0.041713 0.999128
vn -0.015722 -0.821636 0.569796
vn 0.001656 -0.041713 -0.999128
vn -0.015722 -0.821636 -0.569796
vn 0.025621 0.255986 -0.966341
vn 0.009537 0.783870 -0.620852
vn 0.004273 0.052642 0.998604
vn 0.008615 0.055110 0.998443
vn 0.008615 0.055110 -0.998443
vn 0.004273 0.052642 -0.998604
vn -0.013840 0.778726 0.627212
vn -0.018513 0.192699 0.981083
vn -0.018365 0.183830 -0.982787
vn -0.020501 0.774249 -0.632549
vn -0.008285 0.038136 0.999238
vn -0.008285 0.038136 -0.999238
vn -0.020501 0.774249 0.632549
vn -0.018365 0.183830 0.982787
vn -0.010790 0.188136 -0.982084
vn -0.010950 0.778326 -0.627766
vn -0.000077 0.042028 0.999116
vn -0.000077 0.042028 -0.999116
vn -0.007551 0.030956 0.999492
vn -0.007551 0.030956 -0.999492
vn -0.003976 0.038787 0.999240
vn -0.003976 0.038787 -0.999240
vn 0.009524 0.999955 0.000000
vn 0.016009 0.999872 0.000000
vn -0.002915 0.999996 0.000000
vn 0.013697 0.999906 -0.000000
vn -0.043682 0.999039 0.003563
vn -0.592852 0.805278 0.007325
vn 0.104267 0.738497 -0.666146
vn 0.041016 0.412932 -0.909838
vn 0.268704 0.172038 -0.947735
vn 0.744139 0.210988 -0.633831
vn 0.774666 -0.145384 -0.615432
vn 0.367523 -0.041568 -0.929085
vn 0.125766 0.991747 -0.024927
vn -0.018235 0.999834 0.000000
vn -0.017685 0.999844 0.000000
vn -0.009625 0.999954 0.000000
vn -0.022732 0.999742 0.000000
vn -0.004206 0.999991 0.000000
vn 0.011853 0.999930 0.000000
vn 0.978546 0.205029 -0.020249
vn 0.981755 -0.190152 0.000000
vn 0.941727 -0.336377 -0.000000
vn 0.851155 -0.524914 0.000000
vn 0.732518 -0.680748 0.000000
vn 0.493348 -0.869832 -0.000000
vn 0.254349 -0.967113 0.000000
vn -0.021449 -0.999770 0.000000
vn -0.260350 -0.965514 -0.000000
vn -0.464542 -0.885551 -0.000000
vn -0.676112 -0.736798 -0.000000
vn -0.819423 -0.573189 0.000000
vn -0.886532 -0.462667 0.000000
vn -0.936494 -0.350683 0.000000
vn -0.974686 -0.223579 0.000000
vn -0.997311 0.073093 -0.005356
vn 0.423998 0.654438 0.626048
vn 0.195123 0.423135 0.884807
vn 0.191081 0.416952 -0.888617
vn 0.402966 0.644011 -0.650283
vn 0.583792 0.810892 -0.040494
s 1
g orange_low
usemtl initialShadingGroup
f 1/1/1 2/2/2 111/3/3 112/4/4
f 8/5/5 114/6/6 115/7/7 7/8/8
f 4/9/9 3/10/10 121/11/11 122/12/12
f 6/13/13 5/14/14 124/15/15 125/16/16
f 10/17/17 9/18/18 72/19/19 73/20/20
f 74/21/21 75/22/22 15/23/23 16/24/24
f 14/25/25 13/26/26 84/27/27 85/28/28
f 78/29/29 79/30/30 19/31/31 20/32/32
f 18/33/33 17/34/34 21/35/35 22/36/36
f 20/32/32 19/31/31 23/37/37 24/38/38
f 22/36/36 21/35/35 163/39/39 164/40/40
f 29/41/41 131/42/42 132/43/43 28/44/44
f 33/45/45 144/46/46 145/47/47 32/48/48
f 147/49/49 148/50/50 34/51/51 35/52/52
f 172/53/53 173/54/54 36/55/55 37/56/56
f 169/57/57 170/58/58 38/59/59 39/60/60
f 37/56/56 36/55/55 40/61/61 41/62/62
f 39/60/60 38/59/59 42/63/63 43/64/64
f 41/62/62 40/61/61 44/65/65 45/66/66
f 43/64/64 42/63/63 46/67/67 47/68/68
f 33/45/45 32/48/48 119/69/69 120/70/70
f 35/52/52 34/51/51 116/71/71 117/72/72
f 49/73/73 48/74/74 129/75/75 130/76/76
f 51/77/77 50/78/78 126/79/79 127/80/80
f 53/81/81 52/82/82 56/83/83 57/84/84
f 55/85/85 54/86/86 58/87/87 59/88/88
f 120/70/70 143/89/89 144/46/46 33/45/45
f 148/50/50 149/90/90 116/71/71 34/51/51
f 36/55/55 173/54/54 174/91/91 133/92/92
f 168/93/93 169/57/57 39/60/60 159/94/94
f 36/55/55 133/92/92 134/95/95 40/61/61
f 158/96/96 159/94/94 39/60/60 43/64/64
f 141/97/97 142/98/98 49/73/73 130/76/76
f 50/78/78 150/99/99 151/100/100 126/79/79
f 57/84/84 56/83/83 60/101/101 61/102/102
f 59/88/88 58/87/87 62/103/103 63/104/104
f 45/66/66 44/65/65 64/105/105 65/106/106
f 47/68/68 46/67/67 66/107/107 67/108/108
f 64/105/105 68/109/109 69/110/110 65/106/106
f 62/103/103 70/111/111 71/112/112 63/104/104
f 69/110/110 68/109/109 61/102/102 60/101/101
f 71/112/112 70/111/111 67/108/108 66/107/107
f 73/20/20 72/19/19 13/26/26 14/25/25
f 12/113/113 11/114/114 75/22/22 74/21/21
f 139/115/115 140/116/116 53/81/81 57/84/84
f 54/86/86 152/117/117 153/118/118 58/87/87
f 77/119/119 76/120/120 17/34/34 18/33/33
f 82/121/121 83/122/122 79/30/30 78/29/29
f 40/61/61 134/95/95 135/123/123 44/65/65
f 157/124/124 158/96/96 43/64/64 47/68/68
f 81/125/125 80/126/126 76/120/120 77/119/119
f 86/127/127 87/128/128 83/122/122 82/121/121
f 138/129/129 139/115/115 57/84/84 61/102/102
f 58/87/87 153/118/118 154/130/130 62/103/103
f 85/28/28 84/27/27 80/126/126 81/125/125
f 16/24/24 15/23/23 87/128/128 86/127/127
f 44/65/65 135/123/123 136/131/131 64/105/105
f 156/132/132 157/124/124 47/68/68 67/108/108
f 64/105/105 136/131/131 137/133/133 68/109/109
f 155/134/134 156/132/132 67/108/108 70/111/111
f 137/133/133 138/129/129 61/102/102 68/109/109
f 62/103/103 154/130/130 155/134/134 70/111/111
f 10/17/17 73/20/20 89/135/135 88/185/136
f 75/22/22 11/114/114 88/136/136 89/197/135
f 4/9/9 122/12/12 123/184/137 90/204/138
f 123/137/137 124/15/15 5/14/14 90/138/138
f 1/1/1 112/4/4 113/188/139 91/181/140
f 113/139/139 114/6/6 8/5/5 91/140/140
f 166/141/141 167/142/142 24/38/38 23/37/37
f 160/143/143 161/144/144 30/145/145 31/146/146
f 22/36/36 164/40/40 165/177/147 93/203/148
f 165/147/147 166/141/141 23/37/37 93/148/148
f 18/33/33 22/36/36 93/203/148 95/202/149
f 23/37/37 19/31/31 95/149/149 93/148/148
f 77/119/119 18/33/33 95/202/149 96/201/150
f 19/31/31 79/30/30 96/150/150 95/149/149
f 81/125/125 77/119/119 96/201/150 97/200/151
f 79/30/30 83/122/122 97/151/151 96/150/150
f 85/28/28 81/125/125 97/200/151 98/199/152
f 83/122/122 87/128/128 98/152/152 97/151/151
f 14/25/25 85/28/28 98/199/152 99/198/153
f 87/128/128 15/23/23 99/153/153 98/152/152
f 73/20/20 14/25/25 99/198/153 89/135/135
f 15/23/23 75/22/22 89/197/135 99/153/153
f 162/154/154 131/42/42 29/41/41 100/155/155
f 30/145/145 161/144/144 162/179/154 100/196/155
f 171/156/156 172/53/53 37/56/56 101/176/157
f 38/59/59 170/58/58 171/175/156 101/157/157
f 37/56/56 41/62/62 102/158/158 101/176/157
f 42/63/63 38/59/59 101/157/157 102/195/158
f 41/62/62 45/66/66 103/159/159 102/158/158
f 46/67/67 42/63/63 102/195/158 103/194/159
f 45/66/66 65/106/106 104/160/160 103/159/159
f 66/107/107 46/67/67 103/194/159 104/193/160
f 71/112/112 66/107/107 104/193/160 105/192/161
f 65/106/106 69/110/110 105/161/161 104/160/160
f 69/110/110 60/101/101 106/162/162 105/161/161
f 63/104/104 71/112/112 105/192/161 106/191/162
f 60/101/101 56/83/83 107/190/163 106/162/162
f 59/88/88 63/104/104 106/191/162 107/163/163
f 56/83/83 52/82/82 108/164/164 107/190/163
f 55/85/85 59/88/88 107/163/163 108/183/164
f 128/165/165 129/75/75 48/74/74 109/166/166
f 51/77/77 127/80/80 128/182/165 109/189/166
f 118/167/167 119/69/69 32/48/48 110/187/168
f 117/72/72 118/186/167 110/168/168 35/52/52
f 110/168/168 146/169/169 147/49/49 35/52/52
f 145/47/47 146/180/169 110/187/168 32/48/48
f 112/4/4 111/3/3 3/10/10 4/9/9
f 113/188/139 112/4/4 4/9/9 90/204/138
f 5/14/14 114/6/6 113/139/139 90/138/138
f 115/7/7 114/6/6 5/14/14 6/13/13
f 116/71/71 149/90/90 150/99/99 50/78/78
f 117/72/72 116/71/71 50/78/78 51/77/77
f 51/77/77 109/189/166 118/186/167 117/72/72
f 109/166/166 48/74/74 119/69/69 118/167/167
f 120/70/70 119/69/69 48/74/74 49/73/73
f 142/98/98 143/89/89 120/70/70 49/73/73
f 122/12/12 121/11/11 9/18/18 10/17/17
f 123/184/137 122/12/12 10/17/17 88/185/136
f 11/114/114 124/15/15 123/137/137 88/136/136
f 125/16/16 124/15/15 11/114/114 12/113/113
f 126/79/79 151/100/100 152/117/117 54/86/86
f 127/80/80 126/79/79 54/86/86 55/85/85
f 128/182/165 127/80/80 55/85/85 108/183/164
f 52/82/82 129/75/75 128/165/165 108/164/164
f 130/76/76 129/75/75 52/82/82 53/81/81
f 140/116/116 141/97/97 130/76/76 53/81/81
f 132/43/43 131/42/42 26/170/170 25/171/171
f 133/92/92 174/91/91 163/39/39 21/35/35
f 134/95/95 133/92/92 21/35/35 17/34/34
f 135/123/123 134/95/95 17/34/34 76/120/120
f 136/131/131 135/123/123 76/120/120 80/126/126
f 137/133/133 136/131/131 80/126/126 84/27/27
f 13/26/26 138/129/129 137/133/133 84/27/27
f 72/19/19 139/115/115 138/129/129 13/26/26
f 9/18/18 140/116/116 139/115/115 72/19/19
f 121/11/11 141/97/97 140/116/116 9/18/18
f 3/10/10 142/98/98 141/97/97 121/11/11
f 3/10/10 111/3/3 143/89/89 142/98/98
f 144/46/46 143/89/89 111/3/3 2/2/2
f 145/47/47 144/46/46 2/2/2 1/1/1
f 91/181/140 146/180/169 145/47/47 1/1/1
f 147/49/49 146/169/169 91/140/140 8/5/5
f 7/8/8 148/50/50 147/49/49 8/5/5
f 7/8/8 115/7/7 149/90/90 148/50/50
f 150/99/99 149/90/90 115/7/7 6/13/13
f 151/100/100 150/99/99 6/13/13 125/16/16
f 152/117/117 151/100/100 125/16/16 12/113/113
f 153/118/118 152/117/117 12/113/113 74/21/21
f 154/130/130 153/118/118 74/21/21 16/24/24
f 155/134/134 154/130/130 16/24/24 86/127/127
f 82/121/121 156/132/132 155/134/134 86/127/127
f 78/29/29 157/124/124 156/132/132 82/121/121
f 20/32/32 158/96/96 157/124/124 78/29/29
f 24/38/38 159/94/94 158/96/96 20/32/32
f 167/142/142 168/93/93 159/94/94 24/38/38
f 27/172/172 92/173/173 161/144/144 160/143/143
f 162/179/154 161/144/144 92/173/173 94/174/174
f 26/170/170 131/42/42 162/154/154 94/178/174
f 164/40/40 163/39/39 25/171/171 26/170/170
f 165/177/147 164/40/40 26/170/170 94/178/174
f 92/173/173 166/141/141 165/147/147 94/174/174
f 27/172/172 167/142/142 166/141/141 92/173/173
f 160/143/143 168/93/93 167/142/142 27/172/172
f 31/146/146 169/57/57 168/93/93 160/143/143
f 31/146/146 30/145/145 170/58/58 169/57/57
f 171/175/156 170/58/58 30/145/145 100/196/155
f 29/41/41 172/53/53 171/156/156 100/155/155
f 29/41/41 28/44/44 173/54/54 172/53/53
f 174/91/91 173/54/54 28/44/44 132/43/43
f 163/39/39 174/91/91 132/43/43 25/171/171
