# Apple ModelIO OBJ File: IchigoAme_Cup
mtllib IchigoAme_Cup.mtl
g IchigoAme_Cup_IchigoAme_CupSG
v 0.236596 0.034728 -0.098
v 0.181083 0.034728 -0.181082
v 0.256089 0.034728 1e-06
v 0.098001 0.034728 -0.2366
v -1e-06 0.034728 -0.256094
v -0.098002 0.034728 -0.2366
v -0.181084 0.034728 -0.181082
v -0.236598 0.034728 -0.098
v -0.256091 0.034728 1e-06
v -0.236598 0.034728 0.098
v -0.181084 0.034728 0.181079
v -0.098002 0.034728 0.236594
v -1e-06 0.034728 0.256091
v 0.098001 0.034728 0.236594
v 0.181083 0.034728 0.181079
v 0.236595 0.034728 0.098
v 0.360188 0.647061 -0.14919
v 0.275676 0.647061 -0.275672
v 0.378054 0.647061 -0.156591
v 0.289349 0.647061 -0.289346
v 0.149194 0.647061 -0.360185
v 0.156594 0.647061 -0.378052
v -1e-06 0.647061 -0.389861
v -1e-06 0.647061 -0.409203
v -0.149195 0.647061 -0.360185
v -0.156596 0.647061 -0.378052
v -0.275677 0.647061 -0.275672
v -0.289351 0.647061 -0.289346
v -0.360188 0.647061 -0.14919
v -0.378056 0.647061 -0.156591
v -0.389867 0.647061 4e-06
v -0.409206 0.647061 4e-06
v -0.360188 0.647061 0.149199
v -0.378056 0.647061 0.156603
v -0.275677 0.647061 0.275684
v -0.289351 0.647061 0.289357
v -0.149195 0.647061 0.360191
v -0.156596 0.647061 0.378055
v -1e-06 0.647061 0.389873
v -1e-06 0.647061 0.409209
v 0.149194 0.647061 0.360191
v 0.156594 0.647061 0.378055
v 0.275676 0.647061 0.275684
v 0.289349 0.647061 0.289357
v 0.360187 0.647061 0.149199
v 0.378053 0.647061 0.156603
v 0.389864 0.647061 4e-06
v 0.409206 0.647061 4e-06
v 0.398435 0.668695 -0.165032
v 0.304947 0.668695 -0.304944
v 0.398435 0.679518 -0.165032
v 0.304947 0.679518 -0.304944
v 0.165036 0.668695 -0.398433
v 0.165036 0.679518 -0.398433
v -1e-06 0.668695 -0.431262
v -1e-06 0.679518 -0.431262
v -0.165039 0.668695 -0.398433
v -0.165039 0.679518 -0.398433
v -0.30495 0.668695 -0.304944
v -0.30495 0.679518 -0.304944
v -0.398437 0.668695 -0.165032
v -0.398437 0.679518 -0.165032
v -0.431264 0.668695 4e-06
v -0.431264 0.679518 4e-06
v -0.398437 0.668695 0.165044
v -0.398437 0.679518 0.165044
v -0.30495 0.668695 0.304955
v -0.30495 0.679518 0.304955
v -0.165039 0.668695 0.398439
v -0.165039 0.679518 0.398439
v -1e-06 0.668695 0.431268
v -1e-06 0.679518 0.431268
v 0.165036 0.668695 0.398439
v 0.165036 0.679518 0.398439
v 0.304947 0.668695 0.304955
v 0.304947 0.679518 0.304955
v 0.398432 0.668695 0.165044
v 0.398432 0.679518 0.165044
v 0.431264 0.668695 4e-06
v 0.431264 0.679518 4e-06
v 0.378054 0.701153 -0.156591
v 0.289349 0.701153 -0.289346
v 0.358526 0.701153 -0.148503
v 0.274403 0.701153 -0.274402
v 0.156594 0.701153 -0.378052
v 0.148505 0.701153 -0.358525
v -1e-06 0.701153 -0.409203
v -1e-06 0.701153 -0.38807
v -0.156596 0.701153 -0.378052
v -0.148507 0.701153 -0.358525
v -0.289351 0.701153 -0.289346
v -0.274406 0.701153 -0.274402
v -0.378056 0.701153 -0.156591
v -0.358527 0.701153 -0.148503
v -0.409206 0.701153 4e-06
v -0.388068 0.701153 4e-06
v -0.378056 0.701153 0.156603
v -0.358527 0.701153 0.148509
v -0.289351 0.701153 0.289357
v -0.274406 0.701153 0.274408
v -0.156596 0.701153 0.378055
v -0.148507 0.701153 0.358525
v -1e-06 0.701153 0.409209
v -1e-06 0.701153 0.388064
v 0.156594 0.701153 0.378055
v 0.148505 0.701153 0.358525
v 0.289349 0.701153 0.289357
v 0.274403 0.701153 0.274408
v 0.378053 0.701153 0.156603
v 0.358523 0.701153 0.148509
v 0.409206 0.701153 4e-06
v 0.388066 0.701153 4e-06
v 0.336977 0.680833 -0.139577
v 0.257913 0.680833 -0.257909
v 0.139581 0.680833 -0.336978
v -1e-06 0.680833 -0.364745
v -0.139582 0.680833 -0.336978
v -0.257914 0.680833 -0.257909
v -0.33698 0.680833 -0.139577
v -0.364745 0.680833 4e-06
v -0.33698 0.680833 0.139583
v -0.257914 0.680833 0.257915
v -0.139582 0.680833 0.336978
v -1e-06 0.680833 0.364742
v 0.139581 0.680833 0.336978
v 0.257913 0.680833 0.257915
v 0.336976 0.680833 0.139583
v 0.364744 0.680833 4e-06
v 0.392464 0.653398 -0.16256
v 0.424804 0.653398 4e-06
v 0.30038 0.653398 -0.300378
v 0.162564 0.653398 -0.39246
v -1e-06 0.653398 -0.424801
v -0.162565 0.653398 -0.39246
v -0.300381 0.653398 -0.300378
v -0.392467 0.653398 -0.16256
v -0.424804 0.653398 4e-06
v -0.392467 0.653398 0.162572
v -0.300381 0.653398 0.300384
v -0.162565 0.653398 0.392466
v -1e-06 0.653398 0.424804
v 0.162564 0.653398 0.392466
v 0.30038 0.653398 0.300384
v 0.392463 0.653398 0.162572
v 0.392464 0.694817 -0.16256
v 0.424804 0.694817 4e-06
v 0.30038 0.694817 -0.300378
v 0.162564 0.694817 -0.39246
v -1e-06 0.694817 -0.424801
v -0.162565 0.694817 -0.39246
v -0.300381 0.694817 -0.300378
v -0.392467 0.694817 -0.16256
v -0.424804 0.694817 4e-06
v -0.392467 0.694817 0.162572
v -0.300381 0.694817 0.300384
v -0.162565 0.694817 0.392466
v -1e-06 0.694817 0.424804
v 0.162564 0.694817 0.392466
v 0.30038 0.694817 0.300384
v 0.392463 0.694817 0.162572
v 0.344113 0.695342 -0.142533
v 0.372465 0.695342 4e-06
v 0.263374 0.695342 -0.263373
v 0.142536 0.695342 -0.344111
v -1e-06 0.695342 -0.372466
v -0.142537 0.695342 -0.344111
v -0.263375 0.695342 -0.263373
v -0.344115 0.695342 -0.142533
v -0.372468 0.695342 4e-06
v -0.344115 0.695342 0.142539
v -0.263375 0.695342 0.263376
v -0.142537 0.695342 0.344114
v -1e-06 0.695342 0.372466
v 0.142536 0.695342 0.344114
v 0.263374 0.695342 0.263376
v 0.344112 0.695342 0.142539
v 0.291564 0.030378 -0.120767
v 0.223152 0.030378 -0.223153
v 0.12077 0.030378 -0.291562
v -1e-06 0.030378 -0.315583
v -0.12077 0.030378 -0.291562
v -0.223153 0.030378 -0.223153
v -0.291564 0.030378 -0.120767
v -0.315587 0.030378 4e-06
v -0.291564 0.030378 0.120772
v -0.223153 0.030378 0.223155
v -0.12077 0.030378 0.291565
v -1e-06 0.030378 0.315589
v 0.120769 0.030378 0.291565
v 0.223152 0.030378 0.223155
v 0.291564 0.030378 0.120772
v 0.315585 0.030378 4e-06
v 0.25937 1e-06 -0.107432
v 0.280738 1e-06 4e-06
v 0.198512 1e-06 -0.198512
v 0.25937 1e-06 0.107438
v 0.198512 1e-06 0.198518
v 0.107434 1e-06 0.259372
v -1e-06 1e-06 0.280738
v -0.107436 1e-06 0.259372
v 0.107436 1e-06 -0.259366
v -0.198515 1e-06 0.198518
v -0.25937 1e-06 0.107438
v -0.28074 1e-06 4e-06
v -0.25937 1e-06 -0.107432
v -0.198515 1e-06 -0.198512
v -0.107436 1e-06 -0.259366
v -1e-06 1e-06 -0.280738
v 0.280909 0.008689 -0.116352
v 0.304053 0.008689 4e-06
v 0.214997 0.008689 -0.214997
v 0.116356 0.008689 -0.280907
v -1e-06 0.008689 -0.304051
v -0.116356 0.008689 -0.280907
v -0.214999 0.008689 -0.214997
v -0.280909 0.008689 -0.116352
v -0.304055 0.008689 4e-06
v -0.280909 0.008689 0.116355
v -0.214999 0.008689 0.215006
v -0.116356 0.008689 0.28091
v -1e-06 0.008689 0.304057
v 0.116355 0.008689 0.28091
v 0.214997 0.008689 0.215006
v 0.280909 0.008689 0.116355
vn 0 1 0
vn 0.912133 -0.158964 -0.377815
vn 0.698118 -0.158961 -0.698114
vn 0.190156 -0.978589 -0.078766
vn 0.145539 -0.978589 -0.145537
vn 0.377813 -0.158964 -0.912134
vn 0.078765 -0.978589 -0.190155
vn 0 -0.158967 -0.987284
vn 0 -0.978589 -0.205823
vn -0.377813 -0.158965 -0.912133
vn -0.078765 -0.978589 -0.190155
vn -0.698119 -0.158962 -0.698113
vn -0.145537 -0.97859 -0.145535
vn -0.912132 -0.158964 -0.377817
vn -0.190152 -0.97859 -0.078764
vn -0.987284 -0.158968 0
vn -0.205823 -0.978589 -0
vn -0.91213 -0.158968 0.377819
vn -0.190154 -0.97859 0.078765
vn -0.698112 -0.158969 0.698118
vn -0.145539 -0.978588 0.14555
vn -0.377818 -0.158965 0.912132
vn -0.07877 -0.978586 0.19017
vn 0 -0.158968 0.987284
vn -0 -0.978584 0.205847
vn 0.377818 -0.158965 0.912132
vn 0.07877 -0.978586 0.19017
vn 0.698111 -0.158968 0.69812
vn 0.145542 -0.978587 0.145552
vn 0.912131 -0.158967 0.377817
vn 0.190157 -0.978589 0.078766
vn 0.987284 -0.158967 3e-06
vn 0.205825 -0.978589 1e-06
vn 0.898068 -0.234723 -0.371992
vn 0.687359 -0.234708 -0.687349
vn 0.89807 0.234717 -0.371994
vn 0.68736 0.234702 -0.687351
vn 0.371992 -0.234742 -0.898064
vn 0.371992 0.234736 -0.898065
vn 0 -0.234777 -0.972049
vn -0 0.234772 -0.972051
vn -0.371995 -0.234758 -0.898058
vn -0.371995 0.234753 -0.898059
vn -0.687361 -0.234722 -0.687343
vn -0.687362 0.234716 -0.687344
vn -0.898073 -0.234711 -0.37199
vn -0.898074 0.234705 -0.37199
vn -0.972062 -0.234723 0
vn -0.972064 0.234717 0
vn -0.898067 -0.23474 0.371986
vn -0.898068 0.234734 0.371986
vn -0.687328 -0.234792 0.687353
vn -0.687328 0.234786 0.687354
vn -0.371976 -0.234828 0.898048
vn -0.371976 0.234822 0.898049
vn -0 -0.234826 0.972037
vn -0 0.23482 0.972039
vn 0.371973 -0.234811 0.898054
vn 0.371973 0.234805 0.898055
vn 0.687331 -0.234767 0.687357
vn 0.687332 0.234761 0.687359
vn 0.898067 -0.234729 0.371993
vn 0.898068 0.234722 0.371994
vn 0.972059 -0.234737 7e-06
vn 0.972061 0.234731 7e-06
vn 0.182495 0.980297 -0.075592
vn 0.139678 0.980296 -0.139676
vn -0.121411 0.991328 0.050289
vn -0.092929 0.991327 0.092928
vn 0.075597 0.980294 -0.182508
vn -0.050292 0.991327 0.121416
vn -0 0.980292 -0.197554
vn 0 0.991328 0.13141
vn -0.075598 0.980294 -0.182509
vn 0.050292 0.991327 0.121416
vn -0.139679 0.980296 -0.139677
vn 0.092929 0.991327 0.092927
vn -0.182495 0.980297 -0.075592
vn 0.121415 0.991327 0.050291
vn -0.197531 0.980297 -0
vn 0.13141 0.991328 0
vn -0.182491 0.980297 0.07559
vn 0.121405 0.991328 -0.050288
vn -0.139668 0.980297 0.139679
vn 0.092915 0.991329 -0.092918
vn -0.075587 0.980299 0.182487
vn 0.050285 0.991329 -0.121403
vn 0 0.980298 0.197523
vn -0 0.99133 -0.131399
vn 0.075587 0.980299 0.182486
vn -0.050285 0.991329 -0.121402
vn 0.139668 0.980298 0.139678
vn -0.092914 0.991329 -0.092918
vn 0.182488 0.980298 0.075589
vn -0.121403 0.991329 -0.050288
vn 0.197531 0.980297 1e-06
vn -0.131403 0.991329 -1e-06
vn -0.909526 0.175593 0.376736
vn -0.69613 0.175592 0.696111
vn -0.911088 0.165836 0.377383
vn -0.697325 0.165834 0.697307
vn -0.376755 0.175588 0.909519
vn -0.377402 0.165833 0.91108
vn -0 0.175586 0.984464
vn 0 0.165833 0.986154
vn 0.376755 0.175588 0.909519
vn 0.377402 0.165833 0.91108
vn 0.696129 0.175592 0.696113
vn 0.697324 0.165834 0.697308
vn 0.909526 0.175594 0.376735
vn 0.911087 0.165837 0.377383
vn 0.984462 0.175595 -1e-06
vn 0.986153 0.165839 0
vn 0.909522 0.175597 -0.376743
vn 0.911084 0.165841 -0.377389
vn 0.696115 0.175599 -0.696125
vn 0.697311 0.165843 -0.697319
vn 0.376738 0.175597 -0.909524
vn 0.377386 0.16584 -0.911086
vn 0 0.175596 -0.984462
vn 0 0.165837 -0.986153
vn -0.376738 0.175597 -0.909524
vn -0.377386 0.16584 -0.911086
vn -0.696119 0.175599 -0.69612
vn -0.697316 0.165842 -0.697314
vn -0.909522 0.175596 -0.376743
vn -0.911084 0.165839 -0.377389
vn -0.984463 0.175594 -7e-06
vn -0.986153 0.165838 -6e-06
vn 0.673089 -0.684991 -0.278815
vn 0.728558 -0.684985 5e-06
vn 0.515161 -0.68499 -0.515167
vn 0.27882 -0.684993 -0.673086
vn 0 -0.684994 -0.728549
vn -0.278811 -0.685001 -0.673081
vn -0.51515 -0.685003 -0.515162
vn -0.673089 -0.684995 -0.278807
vn -0.728552 -0.684991 -0
vn -0.673087 -0.684997 0.278807
vn -0.515149 -0.685018 0.515143
vn -0.278792 -0.685027 0.673062
vn -0 -0.685022 0.728522
vn 0.2788 -0.685019 0.673068
vn 0.515167 -0.684999 0.51515
vn 0.673098 -0.684982 0.278817
vn 0.673091 0.684989 -0.278816
vn 0.72856 0.684982 5e-06
vn 0.515163 0.684988 -0.515169
vn 0.278821 0.68499 -0.673088
vn -0 0.684992 -0.728551
vn -0.278812 0.684999 -0.673083
vn -0.515151 0.685 -0.515164
vn -0.673091 0.684993 -0.278808
vn -0.728554 0.684988 0
vn -0.673089 0.684994 0.278807
vn -0.51515 0.685015 0.515145
vn -0.278793 0.685025 0.673065
vn -0 0.68502 0.728524
vn 0.278801 0.685016 0.67307
vn 0.515168 0.684996 0.515152
vn 0.673101 0.684979 0.278818
vn -0.579886 0.778484 0.240197
vn -0.627668 0.778481 -4e-06
vn -0.443823 0.778483 0.443829
vn -0.240205 0.778483 0.579884
vn -0 0.778501 0.627643
vn 0.240203 0.778486 0.579881
vn 0.443819 0.778487 0.443828
vn 0.579892 0.778478 0.240203
vn 0.627673 0.778477 -0
vn 0.579889 0.778479 -0.240206
vn 0.443821 0.778487 -0.443826
vn 0.240192 0.778475 -0.579901
vn 0 0.778471 -0.627681
vn -0.240193 0.778471 -0.579905
vn -0.443831 0.778479 -0.44383
vn -0.579896 0.778474 -0.240205
vn 0.915946 -0.130775 -0.379395
vn 0.701035 -0.130774 -0.701033
vn 0.379393 -0.130773 -0.915947
vn -0 -0.130773 -0.991412
vn -0.379393 -0.130774 -0.915947
vn -0.701036 -0.130774 -0.701032
vn -0.915945 -0.130776 -0.379397
vn -0.991412 -0.130777 0
vn -0.915944 -0.130778 0.379399
vn -0.701032 -0.130779 0.701036
vn -0.379397 -0.130779 0.915945
vn 0 -0.130781 0.991411
vn 0.379397 -0.130779 0.915945
vn 0.70103 -0.130779 0.701037
vn 0.915945 -0.130776 0.379397
vn 0.991412 -0.130775 3e-06
vn 0.004688 -0.999987 -0.001942
vn 0.005074 -0.999987 0
vn 0.003588 -0.999987 -0.003588
vn 0.004688 -0.999987 0.001942
vn 0.003588 -0.999987 0.003588
vn 0.001942 -0.999987 0.004688
vn 0 -0.999987 0.005074
vn -0.001942 -0.999987 0.004688
vn 0.001942 -0.999987 -0.004687
vn -0.003588 -0.999987 0.003588
vn -0.004687 -0.999987 0.001942
vn -0.005074 -0.999987 0
vn -0.004688 -0.999987 -0.001942
vn -0.003588 -0.999987 -0.003588
vn -0.001942 -0.999987 -0.004687
vn -0 -0.999987 -0.005074
vn 0.637922 -0.723352 -0.26423
vn 0.690479 -0.723353 0
vn 0.488246 -0.723354 -0.488237
vn 0.264227 -0.723354 -0.63792
vn -0 -0.723354 -0.690477
vn -0.264228 -0.723353 -0.637922
vn -0.488249 -0.723349 -0.488241
vn -0.637925 -0.723349 -0.264231
vn -0.690479 -0.723352 -0
vn -0.63793 -0.723346 0.264226
vn -0.488254 -0.723328 0.488267
vn -0.264228 -0.723348 0.637928
vn 0 -0.723364 0.690467
vn 0.264227 -0.723349 0.637926
vn 0.488248 -0.723333 0.488265
vn 0.637927 -0.723349 0.264225
vt 0.41271 0.980885
vt 0.376176 0.996024
vt 0.44067 0.952916
vt 0.336628 0.996032
vt 0.300088 0.980904
vt 0.27212 0.952943
vt 0.256981 0.916407
vt 0.256975 0.87686
vt 0.272104 0.840321
vt 0.300062 0.812353
vt 0.336597 0.797214
vt 0.376144 0.797208
vt 0.412684 0.812335
vt 0.440652 0.840296
vt 0.455792 0.876831
vt 0.455798 0.916378
vt 0.776077 0.310564
vt 0.818135 0.257865
vt 0.78114 0.317054
vt 0.826488 0.262157
vt 0.838641 0.180255
vt 0.848 0.180701
vt 0.828973 0.113952
vt 0.836547 0.110909
vt 0.793964 0.064061
vt 0.799089 0.058441
vt 0.743397 0.034819
vt 0.745736 0.02786
vt 0.68684 0.027587
vt 0.686397 0.020432
vt 0.632721 0.041339
vt 0.629774 0.03494
vt 0.58761 0.073103
vt 0.582643 0.068187
vt 0.556398 0.118454
vt 0.550051 0.115537
vt 0.542307 0.171875
vt 0.535351 0.171249
vt 0.546609 0.22678
vt 0.539882 0.228542
vt 0.569573 0.2764
vt 0.563878 0.280439
vt 0.609328 0.31496
vt 0.605403 0.3209
vt 0.661661 0.336833
vt 0.660222 0.344021
vt 0.720189 0.336588
vt 0.721842 0.344066
vt 0.789877 0.328516
vt 0.841028 0.269311
vt 0.792733 0.332319
vt 0.845801 0.271719
vt 0.864135 0.181743
vt 0.869462 0.182032
vt 0.849744 0.105417
vt 0.854084 0.103575
vt 0.807977 0.048575
vt 0.810895 0.045314
vt 0.749762 0.015752
vt 0.75108 0.011768
vt 0.685599 0.008037
vt 0.685332 0.003968
vt 0.624657 0.02388
vt 0.622975 0.020254
vt 0.574054 0.059699
vt 0.571236 0.056918
vt 0.539091 0.110504
vt 0.535498 0.108855
vt 0.523342 0.170174
vt 0.519405 0.169822
vt 0.528253 0.231588
vt 0.52444 0.232586
vt 0.554006 0.287413
vt 0.550765 0.289698
vt 0.598567 0.331172
vt 0.596316 0.334542
vt 0.657669 0.356504
vt 0.656821 0.360606
vt 0.724639 0.357133
vt 0.725545 0.361442
vt 0.884874 0.618122
vt 0.839629 0.672802
vt 0.876623 0.613741
vt 0.83403 0.665471
vt 0.778039 0.700709
vt 0.776144 0.692133
vt 0.712667 0.700948
vt 0.714335 0.692568
vt 0.653852 0.676086
vt 0.658554 0.66916
vt 0.610007 0.631336
vt 0.616884 0.626814
vt 0.586772 0.574171
vt 0.594753 0.572599
vt 0.586666 0.513044
vt 0.594607 0.514531
vt 0.608798 0.456413
vt 0.615634 0.460662
vt 0.649649 0.411659
vt 0.654492 0.41803
vt 0.703245 0.384522
vt 0.705483 0.392135
vt 0.762535 0.378438
vt 0.761857 0.386288
vt 0.819582 0.394536
vt 0.816006 0.401562
vt 0.86663 0.431461
vt 0.860505 0.43667
vt 0.896655 0.485341
vt 0.888646 0.487896
vt 0.904209 0.55016
vt 0.895239 0.549496
vt 0.511859 0.396546
vt 0.511859 0.447332
vt 0.256975 0.396546
vt 0.256975 0.447332
vt 0.511859 0.497791
vt 0.256975 0.497791
vt 0.511859 0.54772
vt 0.256975 0.54772
vt 0.511859 0.596912
vt 0.256975 0.596912
vt 0.511859 0.645157
vt 0.256975 0.645157
vt 0.511859 0.692248
vt 0.256975 0.692248
vt 0.511859 0.738003
vt 0.256975 0.738003
vt 0.511859 0.785709
vt 0.256975 0.785709
vt 0.511859 0.005817
vt 0.511859 0.04997
vt 0.256975 0.005817
vt 0.256975 0.04997
vt 0.511859 0.097064
vt 0.256975 0.097064
vt 0.511859 0.145307
vt 0.256975 0.145307
vt 0.511859 0.194494
vt 0.256975 0.194494
vt 0.511859 0.244423
vt 0.256975 0.244423
vt 0.511859 0.294888
vt 0.256975 0.294888
vt 0.511859 0.345664
vt 0.256975 0.345664
vt 0.785532 0.322787
vt 0.723252 0.350618
vt 0.833792 0.265717
vt 0.856087 0.181255
vt 0.843168 0.108173
vt 0.80355 0.053499
vt 0.747761 0.021785
vt 0.685999 0.014207
vt 0.627206 0.029383
vt 0.578329 0.063922
vt 0.544546 0.113007
vt 0.529318 0.170708
vt 0.534042 0.230073
vt 0.558922 0.283944
vt 0.601975 0.326061
vt 0.658945 0.350287
vt 0.900816 0.624815
vt 0.894238 0.621363
vt 0.918454 0.551056
vt 0.911363 0.550626
vt 0.844092 0.67872
vt 0.848516 0.684622
vt 0.77953 0.707577
vt 0.780996 0.71441
vt 0.711318 0.707637
vt 0.709971 0.71428
vt 0.650089 0.681602
vt 0.646349 0.687076
vt 0.604515 0.634933
vt 0.599065 0.638499
vt 0.580411 0.575417
vt 0.574101 0.57665
vt 0.580346 0.511857
vt 0.574078 0.510679
vt 0.603362 0.453033
vt 0.597975 0.449681
vt 0.645802 0.406595
vt 0.641991 0.401572
vt 0.70147 0.378467
vt 0.699713 0.372463
vt 0.763077 0.372193
vt 0.763616 0.365996
vt 0.822428 0.388932
vt 0.825249 0.383368
vt 0.871503 0.427291
vt 0.876332 0.423142
vt 0.903028 0.483266
vt 0.909345 0.481191
vt 0.87014 0.610303
vt 0.88819 0.548894
vt 0.863856 0.606981
vt 0.88136 0.548222
vt 0.825372 0.654344
vt 0.829634 0.659777
vt 0.773148 0.678963
vt 0.774633 0.685421
vt 0.716857 0.679614
vt 0.715627 0.685983
vt 0.665792 0.658416
vt 0.662238 0.663706
vt 0.627523 0.619777
vt 0.62229 0.623247
vt 0.60713 0.57014
vt 0.601036 0.571354
vt 0.60695 0.516833
vt 0.600866 0.5157
vt 0.62628 0.467269
vt 0.621029 0.464011
vt 0.662054 0.427943
vt 0.65832 0.423055
vt 0.708989 0.403978
vt 0.707255 0.398139
vt 0.760822 0.398475
vt 0.761328 0.392471
vt 0.810453 0.412432
vt 0.813188 0.407085
vt 0.850988 0.444661
vt 0.855678 0.440744
vt 0.876205 0.491696
vt 0.882334 0.489856
vt 0.247475 0.446672
vt 0.247475 0.502825
vt 0.003659 0.446672
vt 0.003659 0.502825
vt 0.247475 0.558793
vt 0.003659 0.558793
vt 0.247475 0.614455
vt 0.003659 0.614455
vt 0.247475 0.669691
vt 0.003659 0.669691
vt 0.247475 0.72438
vt 0.003659 0.72438
vt 0.247475 0.778403
vt 0.003659 0.778403
vt 0.247475 0.831643
vt 0.003659 0.831643
vt 0.247475 0.883982
vt 0.003659 0.883982
vt 0.247475 0.005473
vt 0.247475 0.058717
vt 0.003659 0.005473
vt 0.003659 0.058717
vt 0.247475 0.112742
vt 0.003659 0.112742
vt 0.247475 0.167434
vt 0.003659 0.167434
vt 0.247475 0.222672
vt 0.003659 0.222672
vt 0.247475 0.278335
vt 0.003659 0.278335
vt 0.247475 0.334306
vt 0.003659 0.334306
vt 0.247475 0.390458
vt 0.003659 0.390458
vt 0.700319 0.746424
vt 0.730769 0.777098
vt 0.659747 0.729569
vt 0.747151 0.81708
vt 0.747008 0.860285
vt 0.73036 0.900146
vt 0.699734 0.93062
vt 0.659791 0.947076
vt 0.616528 0.729635
vt 0.616588 0.947011
vt 0.576694 0.930435
vt 0.546163 0.899868
vt 0.529636 0.859953
vt 0.529622 0.816749
vt 0.546123 0.776825
vt 0.576638 0.746238
vt 0.70581 0.738189
vt 0.738979 0.771664
vt 0.711356 0.729914
vt 0.747235 0.766203
vt 0.663661 0.710097
vt 0.661709 0.719866
vt 0.612627 0.710278
vt 0.614583 0.719982
vt 0.565661 0.729871
vt 0.571165 0.738077
vt 0.529721 0.765892
vt 0.537944 0.771373
vt 0.510293 0.812912
vt 0.519985 0.814835
vt 0.510307 0.863801
vt 0.519999 0.861872
vt 0.529769 0.910811
vt 0.537988 0.905324
vt 0.565733 0.946813
vt 0.571228 0.9386
vt 0.612715 0.966336
vt 0.614657 0.956647
vt 0.663605 0.966411
vt 0.661693 0.956716
vt 0.710645 0.947034
vt 0.705174 0.938806
vt 0.746718 0.911136
vt 0.738516 0.905625
vt 0.766327 0.864191
vt 0.756642 0.862234
vt 0.766495 0.813311
vt 0.756795 0.815199
usemtl IchigoAme_CupSG
f 1/1/1 2/2/1 3/3/1
f 2/2/1 4/4/1 3/3/1
f 4/4/1 5/5/1 3/3/1
f 5/5/1 6/6/1 3/3/1
f 6/6/1 7/7/1 3/3/1
f 7/7/1 8/8/1 3/3/1
f 8/8/1 9/9/1 3/3/1
f 9/9/1 10/10/1 3/3/1
f 10/10/1 11/11/1 3/3/1
f 11/11/1 12/12/1 3/3/1
f 12/12/1 13/13/1 3/3/1
f 13/13/1 14/14/1 3/3/1
f 14/14/1 15/15/1 3/3/1
f 15/15/1 16/16/1 3/3/1
f 17/17/2 18/18/3 19/19/4
f 19/19/4 18/18/3 20/20/5
f 18/18/3 21/21/6 20/20/5
f 20/20/5 21/21/6 22/22/7
f 21/21/6 23/23/8 22/22/7
f 22/22/7 23/23/8 24/24/9
f 23/23/8 25/25/10 24/24/9
f 24/24/9 25/25/10 26/26/11
f 25/25/10 27/27/12 26/26/11
f 26/26/11 27/27/12 28/28/13
f 27/27/12 29/29/14 28/28/13
f 28/28/13 29/29/14 30/30/15
f 29/29/14 31/31/16 30/30/15
f 30/30/15 31/31/16 32/32/17
f 31/31/16 33/33/18 32/32/17
f 32/32/17 33/33/18 34/34/19
f 33/33/18 35/35/20 34/34/19
f 34/34/19 35/35/20 36/36/21
f 35/35/20 37/37/22 36/36/21
f 36/36/21 37/37/22 38/38/23
f 37/37/22 39/39/24 38/38/23
f 38/38/23 39/39/24 40/40/25
f 39/39/24 41/41/26 40/40/25
f 40/40/25 41/41/26 42/42/27
f 41/41/26 43/43/28 42/42/27
f 42/42/27 43/43/28 44/44/29
f 43/43/28 45/45/30 44/44/29
f 44/44/29 45/45/30 46/46/31
f 45/45/30 47/47/32 46/46/31
f 46/46/31 47/47/32 48/48/33
f 47/47/32 17/17/2 48/48/33
f 48/48/33 17/17/2 19/19/4
f 49/49/34 50/50/35 51/51/36
f 51/51/36 50/50/35 52/52/37
f 50/50/35 53/53/38 52/52/37
f 52/52/37 53/53/38 54/54/39
f 53/53/38 55/55/40 54/54/39
f 54/54/39 55/55/40 56/56/41
f 55/55/40 57/57/42 56/56/41
f 56/56/41 57/57/42 58/58/43
f 57/57/42 59/59/44 58/58/43
f 58/58/43 59/59/44 60/60/45
f 59/59/44 61/61/46 60/60/45
f 60/60/45 61/61/46 62/62/47
f 61/61/46 63/63/48 62/62/47
f 62/62/47 63/63/48 64/64/49
f 63/63/48 65/65/50 64/64/49
f 64/64/49 65/65/50 66/66/51
f 65/65/50 67/67/52 66/66/51
f 66/66/51 67/67/52 68/68/53
f 67/67/52 69/69/54 68/68/53
f 68/68/53 69/69/54 70/70/55
f 69/69/54 71/71/56 70/70/55
f 70/70/55 71/71/56 72/72/57
f 71/71/56 73/73/58 72/72/57
f 72/72/57 73/73/58 74/74/59
f 73/73/58 75/75/60 74/74/59
f 74/74/59 75/75/60 76/76/61
f 75/75/60 77/77/62 76/76/61
f 76/76/61 77/77/62 78/78/63
f 77/77/62 79/79/64 78/78/63
f 78/78/63 79/79/64 80/80/65
f 79/79/64 49/49/34 80/80/65
f 80/80/65 49/49/34 51/51/36
f 81/81/66 82/82/67 83/83/68
f 83/83/68 82/82/67 84/84/69
f 82/82/67 85/85/70 84/84/69
f 84/84/69 85/85/70 86/86/71
f 85/85/70 87/87/72 86/86/71
f 86/86/71 87/87/72 88/88/73
f 87/87/72 89/89/74 88/88/73
f 88/88/73 89/89/74 90/90/75
f 89/89/74 91/91/76 90/90/75
f 90/90/75 91/91/76 92/92/77
f 91/91/76 93/93/78 92/92/77
f 92/92/77 93/93/78 94/94/79
f 93/93/78 95/95/80 94/94/79
f 94/94/79 95/95/80 96/96/81
f 95/95/80 97/97/82 96/96/81
f 96/96/81 97/97/82 98/98/83
f 97/97/82 99/99/84 98/98/83
f 98/98/83 99/99/84 100/100/85
f 99/99/84 101/101/86 100/100/85
f 100/100/85 101/101/86 102/102/87
f 101/101/86 103/103/88 102/102/87
f 102/102/87 103/103/88 104/104/89
f 103/103/88 105/105/90 104/104/89
f 104/104/89 105/105/90 106/106/91
f 105/105/90 107/107/92 106/106/91
f 106/106/91 107/107/92 108/108/93
f 107/107/92 109/109/94 108/108/93
f 108/108/93 109/109/94 110/110/95
f 109/109/94 111/111/96 110/110/95
f 110/110/95 111/111/96 112/112/97
f 111/111/96 81/81/66 112/112/97
f 112/112/97 81/81/66 83/83/68
f 113/113/98 114/114/99 1/115/100
f 1/115/100 114/114/99 2/116/101
f 114/114/99 115/117/102 2/116/101
f 2/116/101 115/117/102 4/118/103
f 115/117/102 116/119/104 4/118/103
f 4/118/103 116/119/104 5/120/105
f 116/119/104 117/121/106 5/120/105
f 5/120/105 117/121/106 6/122/107
f 117/121/106 118/123/108 6/122/107
f 6/122/107 118/123/108 7/124/109
f 118/123/108 119/125/110 7/124/109
f 7/124/109 119/125/110 8/126/111
f 119/125/110 120/127/112 8/126/111
f 8/126/111 120/127/112 9/128/113
f 120/127/112 121/129/114 9/128/113
f 9/128/113 121/129/114 10/130/115
f 121/131/114 122/132/116 10/133/115
f 10/133/115 122/132/116 11/134/117
f 122/132/116 123/135/118 11/134/117
f 11/134/117 123/135/118 12/136/119
f 123/135/118 124/137/120 12/136/119
f 12/136/119 124/137/120 13/138/121
f 124/137/120 125/139/122 13/138/121
f 13/138/121 125/139/122 14/140/123
f 125/139/122 126/141/124 14/140/123
f 14/140/123 126/141/124 15/142/125
f 126/141/124 127/143/126 15/142/125
f 15/142/125 127/143/126 16/144/127
f 127/143/126 128/145/128 16/144/127
f 16/144/127 128/145/128 3/146/129
f 128/145/128 113/113/98 3/146/129
f 3/146/129 113/113/98 1/115/100
f 19/19/4 129/147/130 48/48/33
f 48/48/33 129/147/130 130/148/131
f 129/147/130 49/49/34 130/148/131
f 130/148/131 49/49/34 79/79/64
f 49/49/34 129/147/130 50/50/35
f 50/50/35 129/147/130 131/149/132
f 129/147/130 19/19/4 131/149/132
f 131/149/132 19/19/4 20/20/5
f 50/50/35 131/149/132 53/53/38
f 53/53/38 131/149/132 132/150/133
f 131/149/132 20/20/5 132/150/133
f 132/150/133 20/20/5 22/22/7
f 53/53/38 132/150/133 55/55/40
f 55/55/40 132/150/133 133/151/134
f 132/150/133 22/22/7 133/151/134
f 133/151/134 22/22/7 24/24/9
f 55/55/40 133/151/134 57/57/42
f 57/57/42 133/151/134 134/152/135
f 133/151/134 24/24/9 134/152/135
f 134/152/135 24/24/9 26/26/11
f 57/57/42 134/152/135 59/59/44
f 59/59/44 134/152/135 135/153/136
f 134/152/135 26/26/11 135/153/136
f 135/153/136 26/26/11 28/28/13
f 59/59/44 135/153/136 61/61/46
f 61/61/46 135/153/136 136/154/137
f 135/153/136 28/28/13 136/154/137
f 136/154/137 28/28/13 30/30/15
f 61/61/46 136/154/137 63/63/48
f 63/63/48 136/154/137 137/155/138
f 136/154/137 30/30/15 137/155/138
f 137/155/138 30/30/15 32/32/17
f 63/63/48 137/155/138 65/65/50
f 65/65/50 137/155/138 138/156/139
f 137/155/138 32/32/17 138/156/139
f 138/156/139 32/32/17 34/34/19
f 65/65/50 138/156/139 67/67/52
f 67/67/52 138/156/139 139/157/140
f 138/156/139 34/34/19 139/157/140
f 139/157/140 34/34/19 36/36/21
f 67/67/52 139/157/140 69/69/54
f 69/69/54 139/157/140 140/158/141
f 139/157/140 36/36/21 140/158/141
f 140/158/141 36/36/21 38/38/23
f 69/69/54 140/158/141 71/71/56
f 71/71/56 140/158/141 141/159/142
f 140/158/141 38/38/23 141/159/142
f 141/159/142 38/38/23 40/40/25
f 71/71/56 141/159/142 73/73/58
f 73/73/58 141/159/142 142/160/143
f 141/159/142 40/40/25 142/160/143
f 142/160/143 40/40/25 42/42/27
f 73/73/58 142/160/143 75/75/60
f 75/75/60 142/160/143 143/161/144
f 142/160/143 42/42/27 143/161/144
f 143/161/144 42/42/27 44/44/29
f 75/75/60 143/161/144 77/77/62
f 77/77/62 143/161/144 144/162/145
f 143/161/144 44/44/29 144/162/145
f 144/162/145 44/44/29 46/46/31
f 77/77/62 144/162/145 79/79/64
f 79/79/64 144/162/145 130/148/131
f 144/162/145 46/46/31 130/148/131
f 130/148/131 46/46/31 48/48/33
f 51/163/36 145/164/146 80/165/65
f 80/165/65 145/164/146 146/166/147
f 145/164/146 81/81/66 146/166/147
f 146/166/147 81/81/66 111/111/96
f 81/81/66 145/164/146 82/82/67
f 82/82/67 145/164/146 147/167/148
f 145/164/146 51/163/36 147/167/148
f 147/167/148 51/163/36 52/168/37
f 82/82/67 147/167/148 85/85/70
f 85/85/70 147/167/148 148/169/149
f 147/167/148 52/168/37 148/169/149
f 148/169/149 52/168/37 54/170/39
f 85/85/70 148/169/149 87/87/72
f 87/87/72 148/169/149 149/171/150
f 148/169/149 54/170/39 149/171/150
f 149/171/150 54/170/39 56/172/41
f 87/87/72 149/171/150 89/89/74
f 89/89/74 149/171/150 150/173/151
f 149/171/150 56/172/41 150/173/151
f 150/173/151 56/172/41 58/174/43
f 89/89/74 150/173/151 91/91/76
f 91/91/76 150/173/151 151/175/152
f 150/173/151 58/174/43 151/175/152
f 151/175/152 58/174/43 60/176/45
f 91/91/76 151/175/152 93/93/78
f 93/93/78 151/175/152 152/177/153
f 151/175/152 60/176/45 152/177/153
f 152/177/153 60/176/45 62/178/47
f 93/93/78 152/177/153 95/95/80
f 95/95/80 152/177/153 153/179/154
f 152/177/153 62/178/47 153/179/154
f 153/179/154 62/178/47 64/180/49
f 95/95/80 153/179/154 97/97/82
f 97/97/82 153/179/154 154/181/155
f 153/179/154 64/180/49 154/181/155
f 154/181/155 64/180/49 66/182/51
f 97/97/82 154/181/155 99/99/84
f 99/99/84 154/181/155 155/183/156
f 154/181/155 66/182/51 155/183/156
f 155/183/156 66/182/51 68/184/53
f 99/99/84 155/183/156 101/101/86
f 101/101/86 155/183/156 156/185/157
f 155/183/156 68/184/53 156/185/157
f 156/185/157 68/184/53 70/186/55
f 101/101/86 156/185/157 103/103/88
f 103/103/88 156/185/157 157/187/158
f 156/185/157 70/186/55 157/187/158
f 157/187/158 70/186/55 72/188/57
f 103/103/88 157/187/158 105/105/90
f 105/105/90 157/187/158 158/189/159
f 157/187/158 72/188/57 158/189/159
f 158/189/159 72/188/57 74/190/59
f 105/105/90 158/189/159 107/107/92
f 107/107/92 158/189/159 159/191/160
f 158/189/159 74/190/59 159/191/160
f 159/191/160 74/190/59 76/192/61
f 107/107/92 159/191/160 109/109/94
f 109/109/94 159/191/160 160/193/161
f 159/191/160 76/192/61 160/193/161
f 160/193/161 76/192/61 78/194/63
f 109/109/94 160/193/161 111/111/96
f 111/111/96 160/193/161 146/166/147
f 160/193/161 78/194/63 146/166/147
f 146/166/147 78/194/63 80/165/65
f 83/83/68 161/195/162 112/112/97
f 112/112/97 161/195/162 162/196/163
f 161/195/162 113/197/98 162/196/163
f 162/196/163 113/197/98 128/198/128
f 113/197/98 161/195/162 114/199/99
f 114/199/99 161/195/162 163/200/164
f 161/195/162 83/83/68 163/200/164
f 163/200/164 83/83/68 84/84/69
f 114/199/99 163/200/164 115/201/102
f 115/201/102 163/200/164 164/202/165
f 163/200/164 84/84/69 164/202/165
f 164/202/165 84/84/69 86/86/71
f 115/201/102 164/202/165 116/203/104
f 116/203/104 164/202/165 165/204/166
f 164/202/165 86/86/71 165/204/166
f 165/204/166 86/86/71 88/88/73
f 116/203/104 165/204/166 117/205/106
f 117/205/106 165/204/166 166/206/167
f 165/204/166 88/88/73 166/206/167
f 166/206/167 88/88/73 90/90/75
f 117/205/106 166/206/167 118/207/108
f 118/207/108 166/206/167 167/208/168
f 166/206/167 90/90/75 167/208/168
f 167/208/168 90/90/75 92/92/77
f 118/207/108 167/208/168 119/209/110
f 119/209/110 167/208/168 168/210/169
f 167/208/168 92/92/77 168/210/169
f 168/210/169 92/92/77 94/94/79
f 119/209/110 168/210/169 120/211/112
f 120/211/112 168/210/169 169/212/170
f 168/210/169 94/94/79 169/212/170
f 169/212/170 94/94/79 96/96/81
f 120/211/112 169/212/170 121/213/114
f 121/213/114 169/212/170 170/214/171
f 169/212/170 96/96/81 170/214/171
f 170/214/171 96/96/81 98/98/83
f 121/213/114 170/214/171 122/215/116
f 122/215/116 170/214/171 171/216/172
f 170/214/171 98/98/83 171/216/172
f 171/216/172 98/98/83 100/100/85
f 122/215/116 171/216/172 123/217/118
f 123/217/118 171/216/172 172/218/173
f 171/216/172 100/100/85 172/218/173
f 172/218/173 100/100/85 102/102/87
f 123/217/118 172/218/173 124/219/120
f 124/219/120 172/218/173 173/220/174
f 172/218/173 102/102/87 173/220/174
f 173/220/174 102/102/87 104/104/89
f 124/219/120 173/220/174 125/221/122
f 125/221/122 173/220/174 174/222/175
f 173/220/174 104/104/89 174/222/175
f 174/222/175 104/104/89 106/106/91
f 125/221/122 174/222/175 126/223/124
f 126/223/124 174/222/175 175/224/176
f 174/222/175 106/106/91 175/224/176
f 175/224/176 106/106/91 108/108/93
f 126/223/124 175/224/176 127/225/126
f 127/225/126 175/224/176 176/226/177
f 175/224/176 108/108/93 176/226/177
f 176/226/177 108/108/93 110/110/95
f 127/225/126 176/226/177 128/198/128
f 128/198/128 176/226/177 162/196/163
f 176/226/177 110/110/95 162/196/163
f 162/196/163 110/110/95 112/112/97
f 177/227/178 178/228/179 17/229/2
f 17/229/2 178/228/179 18/230/3
f 178/228/179 179/231/180 18/230/3
f 18/230/3 179/231/180 21/232/6
f 179/231/180 180/233/181 21/232/6
f 21/232/6 180/233/181 23/234/8
f 180/233/181 181/235/182 23/234/8
f 23/234/8 181/235/182 25/236/10
f 181/235/182 182/237/183 25/236/10
f 25/236/10 182/237/183 27/238/12
f 182/237/183 183/239/184 27/238/12
f 27/238/12 183/239/184 29/240/14
f 183/239/184 184/241/185 29/240/14
f 29/240/14 184/241/185 31/242/16
f 184/241/185 185/243/186 31/242/16
f 31/242/16 185/243/186 33/244/18
f 185/245/186 186/246/187 33/247/18
f 33/247/18 186/246/187 35/248/20
f 186/246/187 187/249/188 35/248/20
f 35/248/20 187/249/188 37/250/22
f 187/249/188 188/251/189 37/250/22
f 37/250/22 188/251/189 39/252/24
f 188/251/189 189/253/190 39/252/24
f 39/252/24 189/253/190 41/254/26
f 189/253/190 190/255/191 41/254/26
f 41/254/26 190/255/191 43/256/28
f 190/255/191 191/257/192 43/256/28
f 43/256/28 191/257/192 45/258/30
f 191/257/192 192/259/193 45/258/30
f 45/258/30 192/259/193 47/260/32
f 192/259/193 177/227/178 47/260/32
f 47/260/32 177/227/178 17/229/2
f 193/261/194 194/262/195 195/263/196
f 194/262/195 196/264/197 195/263/196
f 196/264/197 197/265/198 195/263/196
f 197/265/198 198/266/199 195/263/196
f 198/266/199 199/267/200 195/263/196
f 199/267/200 200/268/201 195/263/196
f 195/263/196 200/268/201 201/269/202
f 200/268/201 202/270/203 201/269/202
f 202/270/203 203/271/204 201/269/202
f 203/271/204 204/272/205 201/269/202
f 204/272/205 205/273/206 201/269/202
f 205/273/206 206/274/207 201/269/202
f 206/274/207 207/275/208 201/269/202
f 207/275/208 208/276/209 201/269/202
f 193/261/194 209/277/210 194/262/195
f 194/262/195 209/277/210 210/278/211
f 209/277/210 177/279/178 210/278/211
f 210/278/211 177/279/178 192/280/193
f 177/279/178 209/277/210 178/281/179
f 178/281/179 209/277/210 211/282/212
f 209/277/210 193/261/194 211/282/212
f 211/282/212 193/261/194 195/263/196
f 178/281/179 211/282/212 179/283/180
f 179/283/180 211/282/212 212/284/213
f 211/282/212 195/263/196 212/284/213
f 212/284/213 195/263/196 201/269/202
f 179/283/180 212/284/213 180/285/181
f 180/285/181 212/284/213 213/286/214
f 212/284/213 201/269/202 213/286/214
f 213/286/214 201/269/202 208/276/209
f 180/285/181 213/286/214 181/287/182
f 181/287/182 213/286/214 214/288/215
f 213/286/214 208/276/209 214/288/215
f 214/288/215 208/276/209 207/275/208
f 181/287/182 214/288/215 182/289/183
f 182/289/183 214/288/215 215/290/216
f 214/288/215 207/275/208 215/290/216
f 215/290/216 207/275/208 206/274/207
f 182/289/183 215/290/216 183/291/184
f 183/291/184 215/290/216 216/292/217
f 215/290/216 206/274/207 216/292/217
f 216/292/217 206/274/207 205/273/206
f 183/291/184 216/292/217 184/293/185
f 184/293/185 216/292/217 217/294/218
f 216/292/217 205/273/206 217/294/218
f 217/294/218 205/273/206 204/272/205
f 184/293/185 217/294/218 185/295/186
f 185/295/186 217/294/218 218/296/219
f 217/294/218 204/272/205 218/296/219
f 218/296/219 204/272/205 203/271/204
f 185/295/186 218/296/219 186/297/187
f 186/297/187 218/296/219 219/298/220
f 218/296/219 203/271/204 219/298/220
f 219/298/220 203/271/204 202/270/203
f 186/297/187 219/298/220 187/299/188
f 187/299/188 219/298/220 220/300/221
f 219/298/220 202/270/203 220/300/221
f 220/300/221 202/270/203 200/268/201
f 187/299/188 220/300/221 188/301/189
f 188/301/189 220/300/221 221/302/222
f 220/300/221 200/268/201 221/302/222
f 221/302/222 200/268/201 199/267/200
f 188/301/189 221/302/222 189/303/190
f 189/303/190 221/302/222 222/304/223
f 221/302/222 199/267/200 222/304/223
f 222/304/223 199/267/200 198/266/199
f 189/303/190 222/304/223 190/305/191
f 190/305/191 222/304/223 223/306/224
f 222/304/223 198/266/199 223/306/224
f 223/306/224 198/266/199 197/265/198
f 190/305/191 223/306/224 191/307/192
f 191/307/192 223/306/224 224/308/225
f 223/306/224 197/265/198 224/308/225
f 224/308/225 197/265/198 196/264/197
f 191/307/192 224/308/225 192/280/193
f 192/280/193 224/308/225 210/278/211
f 224/308/225 196/264/197 210/278/211
f 210/278/211 196/264/197 194/262/195
s off
