# This file uses centimeters as units for non-parametric coordinates.

mtllib Takoyaki_Picks.mtl
v 0.280600 0.260145 0.000000
v 0.280600 1.012485 0.000000
v 0.345036 0.315465 -0.046815
v 0.337488 0.276348 -0.041331
v 0.319263 0.260145 -0.028090
v 0.305212 0.315465 -0.075748
v 0.302330 0.276348 -0.066875
v 0.295368 0.260145 -0.045453
v 0.255987 0.315465 -0.075748
v 0.258871 0.276348 -0.066875
v 0.265833 0.260145 -0.045453
v 0.216166 0.315465 -0.046814
v 0.223713 0.276348 -0.041330
v 0.241936 0.260145 -0.028090
v 0.200956 0.315465 0.000000
v 0.210283 0.276348 0.000000
v 0.232809 0.260145 0.000000
v 0.216166 0.315465 0.046815
v 0.223713 0.276348 0.041330
v 0.241936 0.260145 0.028090
v 0.255987 0.315465 0.075747
v 0.258871 0.276348 0.066874
v 0.265833 0.260145 0.045452
v 0.305212 0.315465 0.075747
v 0.302330 0.276348 0.066874
v 0.295368 0.260145 0.045452
v 0.345036 0.315465 0.046814
v 0.337488 0.276348 0.041329
v 0.319263 0.260145 0.028090
v 0.360245 0.315465 0.000000
v 0.350916 0.276348 0.000000
v 0.328390 0.260145 0.000000
v 0.373423 0.932791 -0.067441
v 0.362549 0.989143 -0.059541
v 0.336298 1.012485 -0.040467
v 0.316055 0.932791 -0.109120
v 0.311905 0.989143 -0.096338
v 0.301874 1.012485 -0.065477
v 0.245144 0.932791 -0.109120
v 0.249296 0.989143 -0.096338
v 0.259325 1.012485 -0.065477
v 0.187778 0.932791 -0.067440
v 0.198652 0.989143 -0.059540
v 0.224901 1.012485 -0.040466
v 0.165865 0.932791 0.000000
v 0.179304 0.989143 0.000000
v 0.211752 1.012485 0.000000
v 0.187778 0.932791 0.067441
v 0.198652 0.989143 0.059541
v 0.224901 1.012485 0.040466
v 0.245144 0.932791 0.109120
v 0.249296 0.989143 0.096335
v 0.259325 1.012485 0.065477
v 0.316055 0.932791 0.109120
v 0.311905 0.989143 0.096335
v 0.301874 1.012485 0.065477
v 0.373423 0.932791 0.067440
v 0.362549 0.989143 0.059540
v 0.336298 1.012485 0.040466
v 0.395334 0.932791 0.000000
v 0.381897 0.989143 0.000000
v 0.349449 1.012485 0.000000
v 0.302507 0.402270 -0.067428
v 0.337959 0.402270 -0.041673
v 0.351498 0.402270 0.000000
v 0.337959 0.402270 0.041671
v 0.302507 0.402270 0.067428
v 0.258692 0.402270 0.067428
v 0.223242 0.402270 0.041673
v 0.209702 0.402270 0.000000
v 0.223242 0.402270 -0.041672
v 0.258692 0.402270 -0.067428
v 0.294832 -0.980083 -0.010343
v 0.286037 -0.980083 -0.016734
v 0.275160 -0.980083 -0.016734
v 0.266363 -0.980083 -0.010343
v 0.263002 -0.980083 -0.000002
v 0.266363 -0.980083 0.010340
v 0.275160 -0.980083 0.016733
v 0.286037 -0.980083 0.016733
v 0.294832 -0.980083 0.010340
v 0.298193 -0.980083 -0.000002
v 0.317234 0.557727 -0.026619
v 0.294594 0.557727 -0.043069
v 0.266603 0.557727 -0.043069
v 0.243961 0.557727 -0.026619
v 0.235313 0.557727 -0.000002
v 0.243961 0.557727 0.026616
v 0.266603 0.557727 0.043069
v 0.294594 0.557727 0.043069
v 0.317234 0.557727 0.026616
v 0.325884 0.557727 -0.000002
v 0.292688 -1.008453 -0.008787
v 0.285219 -1.008453 -0.014216
v 0.280598 -1.012485 -0.000002
v 0.275978 -1.008453 -0.014216
v 0.268505 -1.008453 -0.008787
v 0.265656 -1.008453 -0.000002
v 0.268505 -1.008453 0.008783
v 0.275978 -1.008453 0.014212
v 0.285219 -1.008453 0.014212
v 0.292688 -1.008453 0.008783
v 0.295542 -1.008453 -0.000002
v 0.296423 -0.999180 -0.011500
v 0.296780 -0.987720 -0.011759
v 0.286646 -0.999180 -0.018607
v 0.286781 -0.987720 -0.019024
v 0.274551 -0.999180 -0.018607
v 0.274416 -0.987720 -0.019024
v 0.264771 -0.999180 -0.011500
v 0.264414 -0.987720 -0.011759
v 0.261038 -0.999180 -0.000002
v 0.260595 -0.987720 -0.000002
v 0.264771 -0.999180 0.011497
v 0.264414 -0.987720 0.011757
v 0.274551 -0.999180 0.018604
v 0.274416 -0.987720 0.019022
v 0.286646 -0.999180 0.018604
v 0.286781 -0.987720 0.019022
v 0.296423 -0.999180 0.011497
v 0.296780 -0.987720 0.011757
v 0.300159 -0.999180 -0.000002
v 0.300602 -0.987720 -0.000002
v -0.280598 0.260145 0.000000
v -0.280598 1.012485 0.000000
v -0.216162 0.315465 -0.046815
v -0.223709 0.276348 -0.041331
v -0.241934 0.260145 -0.028090
v -0.255985 0.315465 -0.075748
v -0.258867 0.276348 -0.066875
v -0.265829 0.260145 -0.045453
v -0.305210 0.315465 -0.075748
v -0.302326 0.276348 -0.066875
v -0.295364 0.260145 -0.045453
v -0.345032 0.315465 -0.046814
v -0.337484 0.276348 -0.041330
v -0.319262 0.260145 -0.028090
v -0.360241 0.315465 0.000000
v -0.350914 0.276348 0.000000
v -0.328388 0.260145 0.000000
v -0.345032 0.315465 0.046815
v -0.337484 0.276348 0.041330
v -0.319262 0.260145 0.028090
v -0.305210 0.315465 0.075747
v -0.302326 0.276348 0.066874
v -0.295364 0.260145 0.045452
v -0.255985 0.315465 0.075747
v -0.258867 0.276348 0.066874
v -0.265829 0.260145 0.045452
v -0.216162 0.315465 0.046814
v -0.223709 0.276348 0.041329
v -0.241934 0.260145 0.028090
v -0.200953 0.315465 0.000000
v -0.210281 0.276348 0.000000
v -0.232807 0.260145 0.000000
v -0.187775 0.932791 -0.067441
v -0.198648 0.989143 -0.059541
v -0.224899 1.012485 -0.040467
v -0.245142 0.932791 -0.109120
v -0.249292 0.989143 -0.096338
v -0.259323 1.012485 -0.065477
v -0.316053 0.932791 -0.109120
v -0.311901 0.989143 -0.096338
v -0.301872 1.012485 -0.065477
v -0.373419 0.932791 -0.067440
v -0.362545 0.989143 -0.059540
v -0.336296 1.012485 -0.040466
v -0.395332 0.932791 0.000000
v -0.381893 0.989143 0.000000
v -0.349445 1.012485 0.000000
v -0.373419 0.932791 0.067441
v -0.362545 0.989143 0.059541
v -0.336296 1.012485 0.040466
v -0.316053 0.932791 0.109120
v -0.311901 0.989143 0.096335
v -0.301872 1.012485 0.065477
v -0.245142 0.932791 0.109120
v -0.249292 0.989143 0.096335
v -0.259323 1.012485 0.065477
v -0.187775 0.932791 0.067440
v -0.198648 0.989143 0.059540
v -0.224899 1.012485 0.040466
v -0.165863 0.932791 0.000000
v -0.179300 0.989143 0.000000
v -0.211748 1.012485 0.000000
v -0.258690 0.402270 -0.067428
v -0.223238 0.402270 -0.041673
v -0.209700 0.402270 0.000000
v -0.223238 0.402270 0.041671
v -0.258690 0.402270 0.067428
v -0.302505 0.402270 0.067428
v -0.337955 0.402270 0.041673
v -0.351496 0.402270 0.000000
v -0.337955 0.402270 -0.041672
v -0.302505 0.402270 -0.067428
v -0.266365 -0.980083 -0.010343
v -0.275160 -0.980083 -0.016734
v -0.286037 -0.980083 -0.016734
v -0.294834 -0.980083 -0.010343
v -0.298195 -0.980083 -0.000002
v -0.294834 -0.980083 0.010340
v -0.286037 -0.980083 0.016733
v -0.275160 -0.980083 0.016733
v -0.266365 -0.980083 0.010340
v -0.263004 -0.980083 -0.000002
v -0.243963 0.557727 -0.026619
v -0.266603 0.557727 -0.043069
v -0.294594 0.557727 -0.043069
v -0.317236 0.557727 -0.026619
v -0.325884 0.557727 -0.000002
v -0.317236 0.557727 0.026616
v -0.294594 0.557727 0.043069
v -0.266603 0.557727 0.043069
v -0.243963 0.557727 0.026616
v -0.235313 0.557727 -0.000002
v -0.268509 -1.008453 -0.008787
v -0.275978 -1.008453 -0.014216
v -0.280600 -1.012485 -0.000002
v -0.285219 -1.008453 -0.014216
v -0.292692 -1.008453 -0.008787
v -0.295542 -1.008453 -0.000002
v -0.292692 -1.008453 0.008783
v -0.285219 -1.008453 0.014212
v -0.275978 -1.008453 0.014212
v -0.268509 -1.008453 0.008783
v -0.265656 -1.008453 -0.000002
v -0.264774 -0.999180 -0.011500
v -0.264418 -0.987720 -0.011759
v -0.274551 -0.999180 -0.018607
v -0.274416 -0.987720 -0.019024
v -0.286646 -0.999180 -0.018607
v -0.286781 -0.987720 -0.019024
v -0.296427 -0.999180 -0.011500
v -0.296783 -0.987720 -0.011759
v -0.300159 -0.999180 -0.000002
v -0.300602 -0.987720 -0.000002
v -0.296427 -0.999180 0.011497
v -0.296783 -0.987720 0.011757
v -0.286646 -0.999180 0.018604
v -0.286781 -0.987720 0.019022
v -0.274551 -0.999180 0.018604
v -0.274416 -0.987720 0.019022
v -0.264774 -0.999180 0.011497
v -0.264418 -0.987720 0.011757
v -0.261038 -0.999180 -0.000002
v -0.260595 -0.987720 -0.000002
vt 0.375534 0.071588
vt 0.002826 0.166343
vt 0.009771 0.245692
vt 0.397616 0.159970
vt 0.046669 0.165215
vt 0.053214 0.244629
vt 0.088160 0.162934
vt 0.096817 0.241467
vt 0.128139 0.158865
vt 0.140370 0.236148
vt 0.166848 0.152464
vt 0.183746 0.228633
vt 0.204502 0.143212
vt 0.226857 0.218894
vt 0.241429 0.130558
vt 0.269755 0.206954
vt 0.278993 0.114328
vt 0.312527 0.192965
vt 0.317535 0.096275
vt 0.355156 0.177207
vt 0.191557 0.023878
vt 0.211195 0.029390
vt 0.192850 0.057123
vt 0.172268 0.030844
vt 0.160567 0.047871
vt 0.161124 0.068683
vt 0.173967 0.085248
vt 0.194260 0.091013
vt 0.214177 0.083360
vt 0.225292 0.065778
vt 0.224056 0.045274
vt 0.490131 0.914183
vt 0.463670 0.945768
vt 0.427852 0.889258
vt 0.423810 0.955991
vt 0.385456 0.941090
vt 0.362884 0.906554
vt 0.364657 0.865094
vt 0.390735 0.832173
vt 0.432371 0.821288
vt 0.471397 0.837344
vt 0.493205 0.872900
vt 0.354779 0.031374
vt 0.190885 0.003968
vt 0.160046 0.014932
vt 0.141107 0.042060
vt 0.141801 0.075523
vt 0.162324 0.102323
vt 0.194972 0.111929
vt 0.227719 0.099084
vt 0.244898 0.070615
vt 0.242649 0.037989
vt 0.617988 0.647944
vt 0.640191 0.704083
vt 0.532653 0.863455
vt 0.552800 0.674966
vt 0.011088 0.840672
vt 0.682705 0.617949
vt 0.078847 0.836439
vt 0.073825 0.776494
vt 0.149733 0.832234
vt 0.143983 0.771649
vt 0.222084 0.824697
vt 0.213759 0.763685
vt 0.294746 0.813209
vt 0.283125 0.752408
vt 0.366928 0.797399
vt 0.351828 0.737783
vt 0.435929 0.779206
vt 0.419576 0.720007
vt 0.506260 0.757447
vt 0.486662 0.699049
vt 0.498269 0.806212
vt 0.574640 0.731901
vt 0.326217 0.851125
vt 0.323982 0.917342
vt 0.360172 0.972310
vt 0.421405 0.996032
vt 0.485062 0.979741
vt 0.527427 0.929390
vt 0.222102 0.012793
vt 0.302139 0.056015
vt 0.262484 0.079981
vt 0.160184 0.120359
vt 0.123843 0.125677
vt 0.085783 0.128610
vt 0.046207 0.129814
vt 0.401985 0.013598
vt 0.438414 0.141957
vt 0.002800 0.778427
vt 0.421555 0.055848
vt 0.702911 0.677583
vt 0.006007 0.129121
vt 0.113531 0.977144
vt 0.106711 0.977852
vt 0.018263 0.011630
vt 0.000705 0.013461
vt 0.175149 0.974161
vt 0.168290 0.974190
vt 0.176905 0.003968
vt 0.159249 0.004035
vt 0.161432 0.974292
vt 0.141596 0.004297
vt 0.154577 0.974467
vt 0.123948 0.004756
vt 0.147727 0.974719
vt 0.106306 0.005412
vt 0.140885 0.975050
vt 0.088671 0.006264
vt 0.134041 0.975461
vt 0.071047 0.007312
vt 0.127200 0.975948
vt 0.053437 0.008555
vt 0.120362 0.976510
vt 0.035841 0.009995
vt 0.146059 0.993808
vt 0.144301 0.993888
vt 0.145052 0.991060
vt 0.147491 0.992761
vt 0.148114 0.991058
vt 0.147644 0.989236
vt 0.146081 0.987976
vt 0.143751 0.988082
vt 0.142307 0.989481
vt 0.142005 0.991340
vt 0.142780 0.992978
vt 0.113857 0.981952
vt 0.114484 0.988515
vt 0.106687 0.982604
vt 0.107469 0.989263
vt 0.143765 0.996032
vt 0.146788 0.995895
vt 0.175675 0.978904
vt 0.175608 0.985647
vt 0.168448 0.979026
vt 0.168495 0.985668
vt 0.149282 0.994129
vt 0.161456 0.979107
vt 0.161439 0.985692
vt 0.150462 0.991215
vt 0.154526 0.979181
vt 0.154371 0.985632
vt 0.149854 0.987955
vt 0.147713 0.979245
vt 0.147394 0.985267
vt 0.141328 0.979547
vt 0.142201 0.985504
vt 0.134549 0.980126
vt 0.135308 0.986502
vt 0.139988 0.988407
vt 0.127675 0.980708
vt 0.128326 0.987200
vt 0.139681 0.991712
vt 0.120787 0.981306
vt 0.121402 0.987827
vt 0.141124 0.994505
vt 0.375534 0.071588
vt 0.421555 0.055848
vt 0.397616 0.159970
vt 0.438414 0.141957
vt 0.002826 0.166343
vt 0.046669 0.165215
vt 0.009771 0.245692
vt 0.053214 0.244629
vt 0.088160 0.162934
vt 0.096817 0.241467
vt 0.128139 0.158865
vt 0.140370 0.236148
vt 0.166848 0.152464
vt 0.183746 0.228633
vt 0.204502 0.143212
vt 0.226857 0.218894
vt 0.241429 0.130558
vt 0.269755 0.206954
vt 0.278993 0.114328
vt 0.312527 0.192965
vt 0.317535 0.096275
vt 0.355156 0.177207
vt 0.191557 0.023878
vt 0.211195 0.029390
vt 0.192850 0.057123
vt 0.172268 0.030844
vt 0.160567 0.047871
vt 0.161124 0.068683
vt 0.173967 0.085248
vt 0.194260 0.091013
vt 0.214177 0.083360
vt 0.225292 0.065778
vt 0.224056 0.045274
vt 0.490131 0.914183
vt 0.463670 0.945768
vt 0.427852 0.889258
vt 0.423810 0.955991
vt 0.385456 0.941090
vt 0.362884 0.906554
vt 0.364657 0.865094
vt 0.390735 0.832173
vt 0.432371 0.821288
vt 0.471397 0.837344
vt 0.493205 0.872900
vt 0.354779 0.031374
vt 0.401985 0.013598
vt 0.222102 0.012793
vt 0.190885 0.003968
vt 0.006007 0.129121
vt 0.046207 0.129814
vt 0.160046 0.014932
vt 0.085783 0.128610
vt 0.141107 0.042060
vt 0.123843 0.125677
vt 0.141801 0.075523
vt 0.160184 0.120359
vt 0.162324 0.102323
vt 0.194972 0.111929
vt 0.227719 0.099084
vt 0.262484 0.079981
vt 0.244898 0.070615
vt 0.302139 0.056015
vt 0.242649 0.037989
vt 0.617988 0.647944
vt 0.640191 0.704083
vt 0.552800 0.674966
vt 0.574640 0.731901
vt 0.527427 0.929390
vt 0.532653 0.863455
vt 0.485062 0.979741
vt 0.702911 0.677583
vt 0.682705 0.617949
vt 0.421405 0.996032
vt 0.011088 0.840672
vt 0.002800 0.778427
vt 0.078847 0.836439
vt 0.073825 0.776494
vt 0.360172 0.972310
vt 0.149733 0.832234
vt 0.143983 0.771649
vt 0.323982 0.917342
vt 0.222084 0.824697
vt 0.213759 0.763685
vt 0.326217 0.851125
vt 0.294746 0.813209
vt 0.283125 0.752408
vt 0.366928 0.797399
vt 0.351828 0.737783
vt 0.435929 0.779206
vt 0.419576 0.720007
vt 0.498269 0.806212
vt 0.506260 0.757447
vt 0.486662 0.699049
vt 0.113531 0.977144
vt 0.106711 0.977852
vt 0.018263 0.011630
vt 0.000705 0.013461
vt 0.175149 0.974161
vt 0.168290 0.974190
vt 0.176905 0.003968
vt 0.159249 0.004035
vt 0.161432 0.974292
vt 0.141596 0.004297
vt 0.154577 0.974467
vt 0.123948 0.004756
vt 0.147727 0.974719
vt 0.106306 0.005412
vt 0.140885 0.975050
vt 0.088671 0.006264
vt 0.134041 0.975461
vt 0.071047 0.007312
vt 0.127200 0.975948
vt 0.053437 0.008555
vt 0.120362 0.976510
vt 0.035841 0.009995
vt 0.146059 0.993808
vt 0.144301 0.993888
vt 0.145052 0.991060
vt 0.147491 0.992761
vt 0.148114 0.991058
vt 0.147644 0.989236
vt 0.146081 0.987976
vt 0.143751 0.988082
vt 0.142307 0.989481
vt 0.142005 0.991340
vt 0.142780 0.992978
vt 0.113857 0.981952
vt 0.114484 0.988515
vt 0.106687 0.982604
vt 0.107469 0.989263
vt 0.143765 0.996032
vt 0.146788 0.995895
vt 0.175675 0.978904
vt 0.175608 0.985647
vt 0.168448 0.979026
vt 0.168495 0.985668
vt 0.149282 0.994129
vt 0.161456 0.979107
vt 0.161439 0.985692
vt 0.150462 0.991215
vt 0.154526 0.979181
vt 0.154371 0.985632
vt 0.149854 0.987955
vt 0.147713 0.979245
vt 0.147394 0.985267
vt 0.141328 0.979547
vt 0.142201 0.985504
vt 0.134549 0.980126
vt 0.135308 0.986502
vt 0.139988 0.988407
vt 0.127675 0.980708
vt 0.128326 0.987200
vt 0.139681 0.991712
vt 0.120787 0.981306
vt 0.121402 0.987827
vt 0.141124 0.994505
vn 0.809017 0.000434 -0.587785
vn 0.309023 0.000437 -0.951054
vn 0.807517 -0.060845 -0.586698
vn 0.308439 -0.060844 -0.949296
vn -0.309032 0.000437 -0.951052
vn -0.308447 -0.060845 -0.949294
vn -0.809016 0.000437 -0.587787
vn -0.807520 -0.060845 -0.586694
vn -1.000000 0.000434 0.000000
vn -0.998147 -0.060844 -0.000000
vn -0.809015 0.000435 0.587787
vn -0.807523 -0.060845 0.586690
vn -0.309021 0.000430 0.951055
vn -0.308439 -0.060846 0.949296
vn 0.309033 0.000432 0.951051
vn 0.308450 -0.060845 0.949293
vn 0.809014 0.000433 0.587789
vn 0.807520 -0.060845 0.586693
vn 1.000000 0.000429 0.000000
vn 0.998147 -0.060844 0.000000
vn 0.128407 -0.909577 -0.395199
vn 0.336175 -0.909580 -0.244236
vn 0.000000 -1.000000 0.000000
vn -0.128410 -0.909575 -0.395201
vn -0.336174 -0.909578 -0.244244
vn -0.415527 -0.909581 -0.000000
vn -0.336173 -0.909579 0.244240
vn -0.128407 -0.909576 0.395200
vn 0.128410 -0.909576 0.395200
vn 0.336176 -0.909578 0.244240
vn 0.415532 -0.909578 0.000000
vn 0.336165 0.909582 -0.244239
vn 0.128395 0.909584 -0.395185
vn 0.000000 1.000000 0.000000
vn -0.128406 0.909581 -0.395188
vn -0.336170 0.909581 -0.244238
vn -0.415535 0.909577 -0.000000
vn -0.336170 0.909581 0.244237
vn -0.128401 0.909577 0.395200
vn 0.128399 0.909579 0.395197
vn 0.336164 0.909583 0.244237
vn 0.415532 0.909579 0.000000
vn 0.735913 -0.415412 -0.534663
vn 0.281087 -0.415417 -0.865112
vn -0.281096 -0.415414 -0.865111
vn -0.735910 -0.415409 -0.534669
vn -0.909637 -0.415404 -0.000000
vn -0.735911 -0.415415 0.534664
vn -0.281084 -0.415420 0.865112
vn 0.281092 -0.415417 0.865110
vn 0.735917 -0.415414 0.534656
vn 0.909634 -0.415411 0.000000
vn 0.808018 -0.049613 -0.587065
vn 0.735913 0.415404 -0.534669
vn 0.998769 -0.049610 -0.000000
vn 0.909641 0.415396 0.000000
vn 0.281104 0.415406 -0.865112
vn 0.308631 -0.049613 -0.949887
vn -0.281101 0.415408 -0.865112
vn -0.308643 -0.049613 -0.949883
vn -0.735916 0.415405 -0.534665
vn -0.808021 -0.049612 -0.587060
vn -0.909641 0.415396 -0.000000
vn -0.998769 -0.049610 0.000000
vn -0.735913 0.415407 0.534667
vn -0.808024 -0.049612 0.587057
vn -0.281090 0.415418 0.865111
vn -0.308634 -0.049610 0.949886
vn 0.281106 0.415417 0.865106
vn 0.308639 -0.049611 0.949885
vn 0.735910 0.415407 0.534671
vn 0.808020 -0.049612 0.587063
vn 0.808913 -0.016891 -0.587686
vn 0.308961 -0.016891 -0.950925
vn 0.808896 -0.018003 -0.587675
vn 0.308954 -0.018003 -0.950906
vn -0.308948 -0.016891 -0.950929
vn -0.308942 -0.018003 -0.950911
vn -0.808892 -0.016891 -0.587715
vn -0.808876 -0.018003 -0.587703
vn -0.999857 -0.016891 -0.000000
vn -0.999838 -0.018003 0.000000
vn -0.808918 -0.016891 0.587678
vn -0.808902 -0.018003 0.587668
vn -0.308998 -0.016892 0.950913
vn -0.308990 -0.018004 0.950895
vn 0.309011 -0.016892 0.950909
vn 0.309003 -0.018004 0.950891
vn 0.808939 -0.016891 0.587650
vn 0.808922 -0.018003 0.587640
vn 0.999857 -0.016891 -0.000000
vn 0.999838 -0.018003 0.000000
vn 0.233766 -0.654038 -0.719435
vn 0.612025 -0.654064 -0.444551
vn -0.000003 -1.000000 0.000002
vn -0.233723 -0.654045 -0.719443
vn -0.612045 -0.654042 -0.444556
vn -0.756422 -0.654084 0.000003
vn -0.612042 -0.654058 0.444537
vn -0.233706 -0.654105 0.719394
vn 0.233748 -0.654098 0.719387
vn 0.612022 -0.654081 0.444531
vn 0.756436 -0.654068 -0.000000
vn 0.805914 0.087847 -0.585478
vn 0.792449 -0.201571 -0.575668
vn 0.307794 0.087888 -0.947385
vn 0.302683 -0.201508 -0.931546
vn -0.307761 0.087899 -0.947395
vn -0.302642 -0.201512 -0.931558
vn -0.805919 0.087853 -0.585472
vn -0.792444 -0.201575 -0.575674
vn -0.996136 0.087826 0.000002
vn -0.979464 -0.201619 0.000001
vn -0.805917 0.087835 0.585477
vn -0.792456 -0.201610 0.575645
vn -0.307769 0.087844 0.947397
vn -0.302632 -0.201594 0.931544
vn 0.307803 0.087833 0.947387
vn 0.302669 -0.201591 0.931532
vn 0.805912 0.087828 0.585484
vn 0.792460 -0.201609 0.575640
vn 0.996137 0.087815 0.000002
vn 0.979465 -0.201613 -0.000003
vn 0.809017 0.000434 -0.587785
vn 0.309023 0.000437 -0.951054
vn 0.807517 -0.060845 -0.586698
vn 0.308439 -0.060844 -0.949296
vn -0.309032 0.000437 -0.951052
vn -0.308447 -0.060845 -0.949294
vn -0.809016 0.000437 -0.587787
vn -0.807520 -0.060845 -0.586694
vn -1.000000 0.000434 0.000000
vn -0.998147 -0.060844 -0.000000
vn -0.809015 0.000435 0.587787
vn -0.807523 -0.060845 0.586690
vn -0.309021 0.000430 0.951055
vn -0.308439 -0.060846 0.949296
vn 0.309033 0.000432 0.951051
vn 0.308450 -0.060845 0.949293
vn 0.809014 0.000433 0.587789
vn 0.807520 -0.060845 0.586693
vn 1.000000 0.000429 0.000000
vn 0.998147 -0.060844 0.000000
vn 0.128407 -0.909577 -0.395199
vn 0.336175 -0.909580 -0.244236
vn 0.000000 -1.000000 0.000000
vn -0.128410 -0.909575 -0.395201
vn -0.336174 -0.909578 -0.244244
vn -0.415527 -0.909581 -0.000000
vn -0.336173 -0.909579 0.244240
vn -0.128407 -0.909576 0.395200
vn 0.128410 -0.909576 0.395200
vn 0.336176 -0.909578 0.244240
vn 0.415532 -0.909578 0.000000
vn 0.336165 0.909582 -0.244239
vn 0.128395 0.909584 -0.395185
vn 0.000000 1.000000 0.000000
vn -0.128406 0.909581 -0.395188
vn -0.336170 0.909581 -0.244238
vn -0.415535 0.909577 -0.000000
vn -0.336170 0.909581 0.244237
vn -0.128401 0.909577 0.395200
vn 0.128399 0.909579 0.395197
vn 0.336164 0.909583 0.244237
vn 0.415532 0.909579 0.000000
vn 0.735913 -0.415412 -0.534663
vn 0.281087 -0.415417 -0.865112
vn -0.281096 -0.415414 -0.865111
vn -0.735910 -0.415409 -0.534669
vn -0.909637 -0.415404 -0.000000
vn -0.735911 -0.415415 0.534664
vn -0.281084 -0.415420 0.865112
vn 0.281092 -0.415417 0.865110
vn 0.735917 -0.415414 0.534656
vn 0.909634 -0.415411 0.000000
vn 0.808018 -0.049613 -0.587065
vn 0.735913 0.415404 -0.534669
vn 0.998769 -0.049610 -0.000000
vn 0.909641 0.415396 0.000000
vn 0.281104 0.415406 -0.865112
vn 0.308631 -0.049613 -0.949887
vn -0.281101 0.415408 -0.865112
vn -0.308643 -0.049613 -0.949883
vn -0.735916 0.415405 -0.534665
vn -0.808021 -0.049612 -0.587060
vn -0.909641 0.415396 -0.000000
vn -0.998769 -0.049610 0.000000
vn -0.735913 0.415407 0.534667
vn -0.808024 -0.049612 0.587057
vn -0.281090 0.415418 0.865111
vn -0.308634 -0.049610 0.949886
vn 0.281106 0.415417 0.865106
vn 0.308639 -0.049611 0.949885
vn 0.735910 0.415407 0.534671
vn 0.808020 -0.049612 0.587063
vn 0.808913 -0.016891 -0.587686
vn 0.308961 -0.016891 -0.950925
vn 0.808896 -0.018003 -0.587675
vn 0.308954 -0.018003 -0.950906
vn -0.308948 -0.016891 -0.950929
vn -0.308942 -0.018003 -0.950911
vn -0.808892 -0.016891 -0.587715
vn -0.808876 -0.018003 -0.587703
vn -0.999857 -0.016891 -0.000000
vn -0.999838 -0.018003 0.000000
vn -0.808918 -0.016891 0.587678
vn -0.808902 -0.018003 0.587668
vn -0.308998 -0.016892 0.950913
vn -0.308990 -0.018004 0.950895
vn 0.309011 -0.016892 0.950909
vn 0.309003 -0.018004 0.950891
vn 0.808939 -0.016891 0.587650
vn 0.808922 -0.018003 0.587640
vn 0.999857 -0.016891 -0.000000
vn 0.999838 -0.018003 0.000000
vn 0.233766 -0.654038 -0.719435
vn 0.612025 -0.654064 -0.444551
vn -0.000003 -1.000000 0.000002
vn -0.233723 -0.654045 -0.719443
vn -0.612045 -0.654042 -0.444556
vn -0.756422 -0.654084 0.000003
vn -0.612042 -0.654058 0.444537
vn -0.233706 -0.654105 0.719394
vn 0.233748 -0.654098 0.719387
vn 0.612022 -0.654081 0.444531
vn 0.756436 -0.654068 -0.000000
vn 0.805914 0.087847 -0.585478
vn 0.792449 -0.201571 -0.575668
vn 0.307794 0.087888 -0.947385
vn 0.302683 -0.201508 -0.931546
vn -0.307761 0.087899 -0.947395
vn -0.302642 -0.201512 -0.931558
vn -0.805919 0.087853 -0.585472
vn -0.792444 -0.201575 -0.575674
vn -0.996136 0.087826 0.000002
vn -0.979464 -0.201619 0.000001
vn -0.805917 0.087835 0.585477
vn -0.792456 -0.201610 0.575645
vn -0.307769 0.087844 0.947397
vn -0.302632 -0.201594 0.931544
vn 0.307803 0.087833 0.947387
vn 0.302669 -0.201591 0.931532
vn 0.805912 0.087828 0.585484
vn 0.792460 -0.201609 0.575640
vn 0.996137 0.087815 0.000002
vn 0.979465 -0.201613 -0.000003
s 1
g Takoyaki_Picks1
usemtl Handle1SG
f 3/1/1 6/91/2 64/4/3
f 64/4/3 6/91/2 63/89/4
f 6/2/2 9/5/5 63/3/4
f 63/3/4 9/5/5 72/6/6
f 9/5/5 12/7/7 72/6/6
f 72/6/6 12/7/7 71/8/8
f 12/7/7 15/9/9 71/8/8
f 71/8/8 15/9/9 70/10/10
f 15/9/9 18/11/11 70/10/10
f 70/10/10 18/11/11 69/12/12
f 18/11/11 21/13/13 69/12/12
f 69/12/12 21/13/13 68/14/14
f 21/13/13 24/15/15 68/14/14
f 68/14/14 24/15/15 67/16/16
f 24/15/15 27/17/17 67/16/16
f 67/16/16 27/17/17 66/18/18
f 27/17/17 30/19/19 66/18/18
f 66/18/18 30/19/19 65/20/20
f 30/19/19 3/1/1 65/20/20
f 65/20/20 3/1/1 64/4/3
f 8/21/21 5/22/22 1/23/23
f 11/24/24 8/21/21 1/23/23
f 14/25/25 11/24/24 1/23/23
f 17/26/26 14/25/25 1/23/23
f 20/27/27 17/26/26 1/23/23
f 23/28/28 20/27/27 1/23/23
f 26/29/29 23/28/28 1/23/23
f 29/30/30 26/29/29 1/23/23
f 32/31/31 29/30/30 1/23/23
f 5/22/22 32/31/31 1/23/23
f 35/32/32 38/33/33 2/34/34
f 38/33/33 41/35/35 2/34/34
f 41/35/35 44/36/36 2/34/34
f 44/36/36 47/37/37 2/34/34
f 47/37/37 50/38/38 2/34/34
f 50/38/38 53/39/39 2/34/34
f 53/39/39 56/40/40 2/34/34
f 56/40/40 59/41/41 2/34/34
f 59/41/41 62/42/42 2/34/34
f 62/42/42 35/32/32 2/34/34
f 3/1/1 4/43/43 6/91/2
f 6/91/2 4/43/43 7/88/44
f 4/81/43 5/22/22 7/44/44
f 7/44/44 5/22/22 8/21/21
f 6/2/2 7/93/44 9/5/5
f 9/5/5 7/93/44 10/87/45
f 7/44/44 8/21/21 10/45/45
f 10/45/45 8/21/21 11/24/24
f 9/5/5 10/87/45 12/7/7
f 12/7/7 10/87/45 13/86/46
f 10/45/45 11/24/24 13/46/46
f 13/46/46 11/24/24 14/25/25
f 12/7/7 13/86/46 15/9/9
f 15/9/9 13/86/46 16/85/47
f 13/46/46 14/25/25 16/47/47
f 16/47/47 14/25/25 17/26/26
f 15/9/9 16/85/47 18/11/11
f 18/11/11 16/85/47 19/84/48
f 16/47/47 17/26/26 19/48/48
f 19/48/48 17/26/26 20/27/27
f 18/11/11 19/84/48 21/13/13
f 21/13/13 19/84/48 22/49/49
f 19/48/48 20/27/27 22/49/49
f 22/49/49 20/27/27 23/28/28
f 21/13/13 22/49/49 24/15/15
f 24/15/15 22/49/49 25/50/50
f 22/49/49 23/28/28 25/50/50
f 25/50/50 23/28/28 26/29/29
f 24/15/15 25/50/50 27/17/17
f 27/17/17 25/50/50 28/83/51
f 25/50/50 26/29/29 28/51/51
f 28/51/51 26/29/29 29/30/30
f 27/17/17 28/83/51 30/19/19
f 30/19/19 28/83/51 31/82/52
f 28/51/51 29/30/30 31/52/52
f 31/52/52 29/30/30 32/31/31
f 5/22/22 4/81/43 32/31/31
f 32/31/31 4/81/43 31/52/52
f 4/43/43 3/1/1 31/82/52
f 31/82/52 3/1/1 30/19/19
f 33/53/53 34/54/54 60/56/55
f 60/56/55 34/54/54 61/74/56
f 34/80/54 35/32/32 61/55/56
f 61/55/56 35/32/32 62/42/42
f 35/32/32 34/80/54 38/33/33
f 38/33/33 34/80/54 37/79/57
f 34/54/54 33/53/53 37/92/57
f 37/92/57 33/53/53 36/58/58
f 38/33/33 37/79/57 41/35/35
f 41/35/35 37/79/57 40/78/59
f 37/57/57 36/90/58 40/59/59
f 40/59/59 36/90/58 39/60/60
f 41/35/35 40/78/59 44/36/36
f 44/36/36 40/78/59 43/77/61
f 40/59/59 39/60/60 43/61/61
f 43/61/61 39/60/60 42/62/62
f 44/36/36 43/77/61 47/37/37
f 47/37/37 43/77/61 46/76/63
f 43/61/61 42/62/62 46/63/63
f 46/63/63 42/62/62 45/64/64
f 47/37/37 46/76/63 50/38/38
f 50/38/38 46/76/63 49/75/65
f 46/63/63 45/64/64 49/65/65
f 49/65/65 45/64/64 48/66/66
f 50/38/38 49/75/65 53/39/39
f 53/39/39 49/75/65 52/67/67
f 49/65/65 48/66/66 52/67/67
f 52/67/67 48/66/66 51/68/68
f 53/39/39 52/67/67 56/40/40
f 56/40/40 52/67/67 55/69/69
f 52/67/67 51/68/68 55/69/69
f 55/69/69 51/68/68 54/70/70
f 56/40/40 55/69/69 59/41/41
f 59/41/41 55/69/69 58/73/71
f 55/69/69 54/70/70 58/71/71
f 58/71/71 54/70/70 57/72/72
f 59/41/41 58/73/71 62/42/42
f 62/42/42 58/73/71 61/55/56
f 58/71/71 57/72/72 61/74/56
f 61/74/56 57/72/72 60/56/55
f 64/4/3 63/89/4 33/53/53
f 33/53/53 63/89/4 36/58/58
f 65/20/20 64/4/3 60/56/55
f 60/56/55 64/4/3 33/53/53
f 66/18/18 65/20/20 57/72/72
f 57/72/72 65/20/20 60/56/55
f 67/16/16 66/18/18 54/70/70
f 54/70/70 66/18/18 57/72/72
f 68/14/14 67/16/16 51/68/68
f 51/68/68 67/16/16 54/70/70
f 69/12/12 68/14/14 48/66/66
f 48/66/66 68/14/14 51/68/68
f 70/10/10 69/12/12 45/64/64
f 45/64/64 69/12/12 48/66/66
f 71/8/8 70/10/10 42/62/62
f 42/62/62 70/10/10 45/64/64
f 72/6/6 71/8/8 39/60/60
f 39/60/60 71/8/8 42/62/62
f 63/3/4 72/6/6 36/90/58
f 36/90/58 72/6/6 39/60/60
s 5
usemtl Picker1SG
f 73/94/73 74/95/74 83/96/75
f 83/96/75 74/95/74 84/97/76
f 74/98/74 75/99/77 84/100/76
f 84/100/76 75/99/77 85/101/78
f 75/99/77 76/102/79 85/101/78
f 85/101/78 76/102/79 86/103/80
f 76/102/79 77/104/81 86/103/80
f 86/103/80 77/104/81 87/105/82
f 77/104/81 78/106/83 87/105/82
f 87/105/82 78/106/83 88/107/84
f 78/106/83 79/108/85 88/107/84
f 88/107/84 79/108/85 89/109/86
f 79/108/85 80/110/87 89/109/86
f 89/109/86 80/110/87 90/111/88
f 80/110/87 81/112/89 90/111/88
f 90/111/88 81/112/89 91/113/90
f 81/112/89 82/114/91 91/113/90
f 91/113/90 82/114/91 92/115/92
f 82/114/91 73/94/73 92/115/92
f 92/115/92 73/94/73 83/96/75
f 94/116/93 93/117/94 95/118/95
f 96/119/96 94/116/93 95/118/95
f 97/120/97 96/119/96 95/118/95
f 98/121/98 97/120/97 95/118/95
f 99/122/99 98/121/98 95/118/95
f 100/123/100 99/122/99 95/118/95
f 101/124/101 100/123/100 95/118/95
f 102/125/102 101/124/101 95/118/95
f 103/126/103 102/125/102 95/118/95
f 93/117/94 103/126/103 95/118/95
f 105/127/104 104/128/105 107/129/106
f 107/129/106 104/128/105 106/130/107
f 104/131/105 93/117/94 106/132/107
f 106/132/107 93/117/94 94/116/93
f 107/133/106 106/134/107 109/135/108
f 109/135/108 106/134/107 108/136/109
f 106/132/107 94/116/93 108/137/109
f 108/137/109 94/116/93 96/119/96
f 109/135/108 108/136/109 111/138/110
f 111/138/110 108/136/109 110/139/111
f 108/137/109 96/119/96 110/140/111
f 110/140/111 96/119/96 97/120/97
f 111/138/110 110/139/111 113/141/112
f 113/141/112 110/139/111 112/142/113
f 110/140/111 97/120/97 112/143/113
f 112/143/113 97/120/97 98/121/98
f 113/141/112 112/142/113 115/144/114
f 115/144/114 112/142/113 114/145/115
f 112/143/113 98/121/98 114/145/115
f 114/145/115 98/121/98 99/122/99
f 115/144/114 114/145/115 117/146/116
f 117/146/116 114/145/115 116/147/117
f 114/145/115 99/122/99 116/147/117
f 116/147/117 99/122/99 100/123/100
f 117/146/116 116/147/117 119/148/118
f 119/148/118 116/147/117 118/149/119
f 116/147/117 100/123/100 118/150/119
f 118/150/119 100/123/100 101/124/101
f 119/148/118 118/149/119 121/151/120
f 121/151/120 118/149/119 120/152/121
f 118/150/119 101/124/101 120/153/121
f 120/153/121 101/124/101 102/125/102
f 121/151/120 120/152/121 123/154/122
f 123/154/122 120/152/121 122/155/123
f 120/153/121 102/125/102 122/156/123
f 122/156/123 102/125/102 103/126/103
f 93/117/94 104/131/105 103/126/103
f 103/126/103 104/131/105 122/156/123
f 104/128/105 105/127/104 122/155/123
f 122/155/123 105/127/104 123/154/122
f 74/95/74 73/94/73 107/129/106
f 107/129/106 73/94/73 105/127/104
f 75/99/77 74/98/74 109/135/108
f 109/135/108 74/98/74 107/133/106
f 76/102/79 75/99/77 111/138/110
f 111/138/110 75/99/77 109/135/108
f 77/104/81 76/102/79 113/141/112
f 113/141/112 76/102/79 111/138/110
f 78/106/83 77/104/81 115/144/114
f 115/144/114 77/104/81 113/141/112
f 79/108/85 78/106/83 117/146/116
f 117/146/116 78/106/83 115/144/114
f 80/110/87 79/108/85 119/148/118
f 119/148/118 79/108/85 117/146/116
f 81/112/89 80/110/87 121/151/120
f 121/151/120 80/110/87 119/148/118
f 82/114/91 81/112/89 123/154/122
f 123/154/122 81/112/89 121/151/120
f 73/94/73 82/114/91 105/127/104
f 105/127/104 82/114/91 123/154/122
s 8
usemtl Handle5SG
f 126/157/124 129/158/125 187/159/126
f 187/159/126 129/158/125 186/160/127
f 129/161/125 132/162/128 186/163/127
f 186/163/127 132/162/128 195/164/129
f 132/162/128 135/165/130 195/164/129
f 195/164/129 135/165/130 194/166/131
f 135/165/130 138/167/132 194/166/131
f 194/166/131 138/167/132 193/168/133
f 138/167/132 141/169/134 193/168/133
f 193/168/133 141/169/134 192/170/135
f 141/169/134 144/171/136 192/170/135
f 192/170/135 144/171/136 191/172/137
f 144/171/136 147/173/138 191/172/137
f 191/172/137 147/173/138 190/174/139
f 147/173/138 150/175/140 190/174/139
f 190/174/139 150/175/140 189/176/141
f 150/175/140 153/177/142 189/176/141
f 189/176/141 153/177/142 188/178/143
f 153/177/142 126/157/124 188/178/143
f 188/178/143 126/157/124 187/159/126
f 131/179/144 128/180/145 124/181/146
f 134/182/147 131/179/144 124/181/146
f 137/183/148 134/182/147 124/181/146
f 140/184/149 137/183/148 124/181/146
f 143/185/150 140/184/149 124/181/146
f 146/186/151 143/185/150 124/181/146
f 149/187/152 146/186/151 124/181/146
f 152/188/153 149/187/152 124/181/146
f 155/189/154 152/188/153 124/181/146
f 128/180/145 155/189/154 124/181/146
f 158/190/155 161/191/156 125/192/157
f 161/191/156 164/193/158 125/192/157
f 164/193/158 167/194/159 125/192/157
f 167/194/159 170/195/160 125/192/157
f 170/195/160 173/196/161 125/192/157
f 173/196/161 176/197/162 125/192/157
f 176/197/162 179/198/163 125/192/157
f 179/198/163 182/199/164 125/192/157
f 182/199/164 185/200/165 125/192/157
f 185/200/165 158/190/155 125/192/157
f 126/157/124 127/201/166 129/158/125
f 129/158/125 127/201/166 130/202/167
f 127/203/166 128/180/145 130/204/167
f 130/204/167 128/180/145 131/179/144
f 129/161/125 130/205/167 132/162/128
f 132/162/128 130/205/167 133/206/168
f 130/204/167 131/179/144 133/207/168
f 133/207/168 131/179/144 134/182/147
f 132/162/128 133/206/168 135/165/130
f 135/165/130 133/206/168 136/208/169
f 133/207/168 134/182/147 136/209/169
f 136/209/169 134/182/147 137/183/148
f 135/165/130 136/208/169 138/167/132
f 138/167/132 136/208/169 139/210/170
f 136/209/169 137/183/148 139/211/170
f 139/211/170 137/183/148 140/184/149
f 138/167/132 139/210/170 141/169/134
f 141/169/134 139/210/170 142/212/171
f 139/211/170 140/184/149 142/213/171
f 142/213/171 140/184/149 143/185/150
f 141/169/134 142/212/171 144/171/136
f 144/171/136 142/212/171 145/214/172
f 142/213/171 143/185/150 145/214/172
f 145/214/172 143/185/150 146/186/151
f 144/171/136 145/214/172 147/173/138
f 147/173/138 145/214/172 148/215/173
f 145/214/172 146/186/151 148/215/173
f 148/215/173 146/186/151 149/187/152
f 147/173/138 148/215/173 150/175/140
f 150/175/140 148/215/173 151/216/174
f 148/215/173 149/187/152 151/217/174
f 151/217/174 149/187/152 152/188/153
f 150/175/140 151/216/174 153/177/142
f 153/177/142 151/216/174 154/218/175
f 151/217/174 152/188/153 154/219/175
f 154/219/175 152/188/153 155/189/154
f 128/180/145 127/203/166 155/189/154
f 155/189/154 127/203/166 154/219/175
f 127/201/166 126/157/124 154/218/175
f 154/218/175 126/157/124 153/177/142
f 156/220/176 157/221/177 183/222/178
f 183/222/178 157/221/177 184/223/179
f 157/224/177 158/190/155 184/225/179
f 184/225/179 158/190/155 185/200/165
f 158/190/155 157/224/177 161/191/156
f 161/191/156 157/224/177 160/226/180
f 157/221/177 156/220/176 160/227/180
f 160/227/180 156/220/176 159/228/181
f 161/191/156 160/226/180 164/193/158
f 164/193/158 160/226/180 163/229/182
f 160/230/180 159/231/181 163/232/182
f 163/232/182 159/231/181 162/233/183
f 164/193/158 163/229/182 167/194/159
f 167/194/159 163/229/182 166/234/184
f 163/232/182 162/233/183 166/235/184
f 166/235/184 162/233/183 165/236/185
f 167/194/159 166/234/184 170/195/160
f 170/195/160 166/234/184 169/237/186
f 166/235/184 165/236/185 169/238/186
f 169/238/186 165/236/185 168/239/187
f 170/195/160 169/237/186 173/196/161
f 173/196/161 169/237/186 172/240/188
f 169/238/186 168/239/187 172/241/188
f 172/241/188 168/239/187 171/242/189
f 173/196/161 172/240/188 176/197/162
f 176/197/162 172/240/188 175/243/190
f 172/241/188 171/242/189 175/243/190
f 175/243/190 171/242/189 174/244/191
f 176/197/162 175/243/190 179/198/163
f 179/198/163 175/243/190 178/245/192
f 175/243/190 174/244/191 178/245/192
f 178/245/192 174/244/191 177/246/193
f 179/198/163 178/245/192 182/199/164
f 182/199/164 178/245/192 181/247/194
f 178/245/192 177/246/193 181/248/194
f 181/248/194 177/246/193 180/249/195
f 182/199/164 181/247/194 185/200/165
f 185/200/165 181/247/194 184/225/179
f 181/248/194 180/249/195 184/223/179
f 184/223/179 180/249/195 183/222/178
f 187/159/126 186/160/127 156/220/176
f 156/220/176 186/160/127 159/228/181
f 188/178/143 187/159/126 183/222/178
f 183/222/178 187/159/126 156/220/176
f 189/176/141 188/178/143 180/249/195
f 180/249/195 188/178/143 183/222/178
f 190/174/139 189/176/141 177/246/193
f 177/246/193 189/176/141 180/249/195
f 191/172/137 190/174/139 174/244/191
f 174/244/191 190/174/139 177/246/193
f 192/170/135 191/172/137 171/242/189
f 171/242/189 191/172/137 174/244/191
f 193/168/133 192/170/135 168/239/187
f 168/239/187 192/170/135 171/242/189
f 194/166/131 193/168/133 165/236/185
f 165/236/185 193/168/133 168/239/187
f 195/164/129 194/166/131 162/233/183
f 162/233/183 194/166/131 165/236/185
f 186/163/127 195/164/129 159/231/181
f 159/231/181 195/164/129 162/233/183
s 12
usemtl Picker2SG
f 196/250/196 197/251/197 206/252/198
f 206/252/198 197/251/197 207/253/199
f 197/254/197 198/255/200 207/256/199
f 207/256/199 198/255/200 208/257/201
f 198/255/200 199/258/202 208/257/201
f 208/257/201 199/258/202 209/259/203
f 199/258/202 200/260/204 209/259/203
f 209/259/203 200/260/204 210/261/205
f 200/260/204 201/262/206 210/261/205
f 210/261/205 201/262/206 211/263/207
f 201/262/206 202/264/208 211/263/207
f 211/263/207 202/264/208 212/265/209
f 202/264/208 203/266/210 212/265/209
f 212/265/209 203/266/210 213/267/211
f 203/266/210 204/268/212 213/267/211
f 213/267/211 204/268/212 214/269/213
f 204/268/212 205/270/214 214/269/213
f 214/269/213 205/270/214 215/271/215
f 205/270/214 196/250/196 215/271/215
f 215/271/215 196/250/196 206/252/198
f 217/272/216 216/273/217 218/274/218
f 219/275/219 217/272/216 218/274/218
f 220/276/220 219/275/219 218/274/218
f 221/277/221 220/276/220 218/274/218
f 222/278/222 221/277/221 218/274/218
f 223/279/223 222/278/222 218/274/218
f 224/280/224 223/279/223 218/274/218
f 225/281/225 224/280/224 218/274/218
f 226/282/226 225/281/225 218/274/218
f 216/273/217 226/282/226 218/274/218
f 228/283/227 227/284/228 230/285/229
f 230/285/229 227/284/228 229/286/230
f 227/287/228 216/273/217 229/288/230
f 229/288/230 216/273/217 217/272/216
f 230/289/229 229/290/230 232/291/231
f 232/291/231 229/290/230 231/292/232
f 229/288/230 217/272/216 231/293/232
f 231/293/232 217/272/216 219/275/219
f 232/291/231 231/292/232 234/294/233
f 234/294/233 231/292/232 233/295/234
f 231/293/232 219/275/219 233/296/234
f 233/296/234 219/275/219 220/276/220
f 234/294/233 233/295/234 236/297/235
f 236/297/235 233/295/234 235/298/236
f 233/296/234 220/276/220 235/299/236
f 235/299/236 220/276/220 221/277/221
f 236/297/235 235/298/236 238/300/237
f 238/300/237 235/298/236 237/301/238
f 235/299/236 221/277/221 237/301/238
f 237/301/238 221/277/221 222/278/222
f 238/300/237 237/301/238 240/302/239
f 240/302/239 237/301/238 239/303/240
f 237/301/238 222/278/222 239/303/240
f 239/303/240 222/278/222 223/279/223
f 240/302/239 239/303/240 242/304/241
f 242/304/241 239/303/240 241/305/242
f 239/303/240 223/279/223 241/306/242
f 241/306/242 223/279/223 224/280/224
f 242/304/241 241/305/242 244/307/243
f 244/307/243 241/305/242 243/308/244
f 241/306/242 224/280/224 243/309/244
f 243/309/244 224/280/224 225/281/225
f 244/307/243 243/308/244 246/310/245
f 246/310/245 243/308/244 245/311/246
f 243/309/244 225/281/225 245/312/246
f 245/312/246 225/281/225 226/282/226
f 216/273/217 227/287/228 226/282/226
f 226/282/226 227/287/228 245/312/246
f 227/284/228 228/283/227 245/311/246
f 245/311/246 228/283/227 246/310/245
f 197/251/197 196/250/196 230/285/229
f 230/285/229 196/250/196 228/283/227
f 198/255/200 197/254/197 232/291/231
f 232/291/231 197/254/197 230/289/229
f 199/258/202 198/255/200 234/294/233
f 234/294/233 198/255/200 232/291/231
f 200/260/204 199/258/202 236/297/235
f 236/297/235 199/258/202 234/294/233
f 201/262/206 200/260/204 238/300/237
f 238/300/237 200/260/204 236/297/235
f 202/264/208 201/262/206 240/302/239
f 240/302/239 201/262/206 238/300/237
f 203/266/210 202/264/208 242/304/241
f 242/304/241 202/264/208 240/302/239
f 204/268/212 203/266/210 244/307/243
f 244/307/243 203/266/210 242/304/241
f 205/270/214 204/268/212 246/310/245
f 246/310/245 204/268/212 244/307/243
f 196/250/196 205/270/214 228/283/227
f 228/283/227 205/270/214 246/310/245
