# Apple ModelIO OBJ File: WaterBarrier
mtllib WaterBarrier.mtl
g WaterBarrier_FootPath61SG
v 115.464 -36.4988 141.388
v -56.6128 -36.4988 141.388
v 115.464 -0.955519 141.388
v -56.6128 -0.955519 141.388
v 115.464 -0.955519 152.273
v -56.6128 -0.955519 152.273
v 115.464 -36.4988 162.712
v -56.6128 -36.4988 162.712
vn 0 0 -1
vn 0 1 0
vn -0 0.281812 0.95947
vt 0.002034 0.995988
vt 0.002034 0.004014
vt 0.206936 0.995988
vt 0.206936 0.004014
vt 0.269682 0.995988
vt 0.269682 0.004014
vt 0.483245 0.995988
vt 0.483245 0.004014
usemtl FootPath61SG
f 1/1/1 2/2/1 3/3/1
f 3/3/1 2/2/1 4/4/1
f 3/3/2 4/4/2 5/5/2
f 5/5/2 4/4/2 6/6/2
f 5/5/3 6/6/3 7/7/3
f 7/7/3 6/6/3 8/8/3
s off
