# Apple ModelIO OBJ File: Stool
mtllib Stool.mtl
g Stool_LegSG
v -0.25333 -1.22161 1.65621
v -0.084044 -1.18977 1.77502
v -0.25333 1.22664 1.00021
v -0.084044 1.25848 1.11901
v 0.125202 -1.18977 1.77502
v 0.125202 1.25848 1.11901
v 0.294491 -1.22161 1.65621
v 0.294491 1.22664 1.00021
v 0.359154 -1.27312 1.46399
v 0.359154 1.17514 0.80798
v 0.294491 -1.32462 1.27176
v 0.294491 1.12363 0.615753
v 0.125202 -1.35645 1.15296
v 0.125202 1.09179 0.49695
v -0.084044 -1.35645 1.15296
v -0.084044 1.09179 0.496951
v -0.25333 -1.32462 1.27176
v -0.25333 1.12363 0.615753
v -0.317995 -1.27312 1.46399
v -0.317995 1.17514 0.80798
v -0.042204 -1.35533 1.68605
v -0.143782 -1.37444 1.61476
v 0.020578 -1.40534 1.49942
v 0.083361 -1.35533 1.68605
v 0.18494 -1.37444 1.61476
v 0.223738 -1.40534 1.49942
v 0.18494 -1.43625 1.38407
v 0.083361 -1.45535 1.31279
v -0.042204 -1.45535 1.31279
v -0.143782 -1.43625 1.38407
v -0.182575 -1.40534 1.49942
v -0.221243 -1.32114 1.65875
v -0.071791 -1.29304 1.76363
v 0.112951 -1.29304 1.76363
v 0.262402 -1.32114 1.65875
v 0.31949 -1.36661 1.48904
v 0.262402 -1.41209 1.31933
v 0.112951 -1.44019 1.21445
v -0.071791 -1.44019 1.21445
v -0.221243 -1.41209 1.31933
v -0.278332 -1.36661 1.48904
v -1.80395 -1.22161 -0.216278
v -1.92275 -1.18977 -0.046992
v -1.14794 1.22664 -0.216278
v -1.26674 1.25848 -0.046992
v -1.92275 -1.18977 0.162255
v -1.26674 1.25848 0.162255
v -1.80395 -1.22161 0.331543
v -1.14794 1.22664 0.331543
v -1.61172 -1.27312 0.396206
v -0.955715 1.17514 0.396206
v -1.41949 -1.32462 0.331543
v -0.763487 1.12363 0.331543
v -1.30069 -1.35645 0.162255
v -0.644684 1.09179 0.162255
v -1.30069 -1.35645 -0.046992
v -0.644684 1.09179 -0.046992
v -1.41949 -1.32462 -0.216278
v -0.763487 1.12363 -0.216278
v -1.61172 -1.27312 -0.280943
v -0.955715 1.17514 -0.280943
v -1.83378 -1.35533 -0.005151
v -1.76249 -1.37444 -0.106729
v -1.64715 -1.40534 0.057631
v -1.83378 -1.35533 0.120414
v -1.76249 -1.37444 0.221992
v -1.64715 -1.40534 0.26079
v -1.53181 -1.43625 0.221992
v -1.46052 -1.45535 0.120414
v -1.46052 -1.45535 -0.005151
v -1.53181 -1.43625 -0.106729
v -1.64715 -1.40534 -0.145524
v -1.80648 -1.32114 -0.184191
v -1.91137 -1.29304 -0.034738
v -1.91137 -1.29304 0.150003
v -1.80648 -1.32114 0.299453
v -1.63677 -1.36661 0.356543
v -1.46706 -1.41209 0.299453
v -1.36218 -1.44019 0.150003
v -1.36218 -1.44019 -0.034738
v -1.46707 -1.41209 -0.184191
v -1.63677 -1.36661 -0.24128
v 0.294483 -1.22161 -1.65621
v 0.125198 -1.18977 -1.77502
v 0.294483 1.22664 -1.00021
v 0.125198 1.25848 -1.11901
v -0.084049 -1.18977 -1.77502
v -0.084049 1.25848 -1.11901
v -0.253336 -1.22161 -1.65621
v -0.253336 1.22664 -1.00021
v -0.318001 -1.27312 -1.46399
v -0.318001 1.17514 -0.807981
v -0.253336 -1.32462 -1.27176
v -0.253336 1.12363 -0.615754
v -0.084049 -1.35645 -1.15296
v -0.084049 1.09179 -0.496951
v 0.125198 -1.35645 -1.15296
v 0.125198 1.09179 -0.496952
v 0.294483 -1.32462 -1.27176
v 0.294483 1.12363 -0.615754
v 0.35915 -1.27312 -1.46399
v 0.35915 1.17514 -0.807981
v 0.083357 -1.35533 -1.68605
v 0.184937 -1.37444 -1.61476
v 0.020575 -1.40534 -1.49942
v -0.042208 -1.35533 -1.68605
v -0.143785 -1.37444 -1.61476
v -0.182585 -1.40534 -1.49942
v -0.143785 -1.43625 -1.38407
v -0.042208 -1.45535 -1.31279
v 0.083357 -1.45535 -1.31279
v 0.184937 -1.43625 -1.38407
v 0.22373 -1.40534 -1.49942
v 0.262396 -1.32114 -1.65875
v 0.112944 -1.29304 -1.76364
v -0.071796 -1.29304 -1.76364
v -0.221247 -1.32114 -1.65875
v -0.278337 -1.36661 -1.48904
v -0.221247 -1.41209 -1.31933
v -0.071796 -1.44019 -1.21445
v 0.112944 -1.44019 -1.21445
v 0.262396 -1.41209 -1.31933
v 0.319487 -1.36661 -1.48904
v 1.80394 -1.22161 0.331536
v 1.92275 -1.18977 0.16225
v 1.14794 1.22664 0.331536
v 1.26674 1.25848 0.16225
v 1.92275 -1.18977 -0.046997
v 1.26674 1.25848 -0.046997
v 1.80394 -1.22161 -0.216285
v 1.14794 1.22664 -0.216285
v 1.61172 -1.27312 -0.280948
v 0.955711 1.17514 -0.280948
v 1.41949 -1.32462 -0.216285
v 0.763485 1.12363 -0.216285
v 1.30069 -1.35645 -0.046997
v 0.644682 1.09179 -0.046997
v 1.30069 -1.35645 0.16225
v 0.644682 1.09179 0.16225
v 1.41949 -1.32462 0.331536
v 0.763485 1.12363 0.331536
v 1.61172 -1.27312 0.396201
v 0.955711 1.17514 0.396201
v 1.83378 -1.35533 0.120409
v 1.76249 -1.37444 0.221986
v 1.64715 -1.40534 0.057626
v 1.83378 -1.35533 -0.005156
v 1.76249 -1.37444 -0.106734
v 1.64715 -1.40534 -0.145532
v 1.5318 -1.43625 -0.106734
v 1.46052 -1.45535 -0.005156
v 1.46052 -1.45535 0.120409
v 1.5318 -1.43625 0.221986
v 1.64715 -1.40534 0.260782
v 1.80648 -1.32114 0.299448
v 1.91137 -1.29304 0.149995
v 1.91137 -1.29304 -0.034745
v 1.80648 -1.32114 -0.184196
v 1.63677 -1.36661 -0.241285
v 1.46706 -1.41209 -0.184196
v 1.36218 -1.44019 -0.034745
v 1.36218 -1.44019 0.149995
v 1.46706 -1.41209 0.299448
v 1.63677 -1.36661 0.356537
vn -0.808942 0.139377 0.571128
vn -0.308991 0.233389 0.921984
vn -0.809013 0.152131 0.567763
vn -0.309018 0.246151 0.91865
vn 0.308989 0.23339 0.921984
vn 0.309016 0.246152 0.91865
vn 0.808942 0.139377 0.571127
vn 0.809013 0.152131 0.567763
vn 0.999913 -0.012741 0.003414
vn 1 0 0
vn 0.808942 -0.16486 -0.5643
vn 0.809012 -0.152133 -0.567764
vn 0.30899 -0.258871 -0.915156
vn 0.309017 -0.246152 -0.91865
vn -0.308992 -0.25887 -0.915156
vn -0.30902 -0.246151 -0.918649
vn -0.808941 -0.16486 -0.5643
vn -0.809012 -0.152133 -0.567764
vn -0.999913 -0.012741 0.003414
vn -1 -0 0
vn -0.079161 -0.870639 0.485511
vn -0.207249 -0.894724 0.395622
vn 0 -0.965926 0.258819
vn 0.079159 -0.87064 0.48551
vn 0.207245 -0.894726 0.39562
vn 0.256165 -0.933696 0.250181
vn 0.207247 -0.972665 0.104744
vn 0.079157 -0.996751 0.014858
vn -0.07916 -0.996751 0.014855
vn -0.20725 -0.972664 0.104743
vn -0.256163 -0.933697 0.250183
vn -0.630971 -0.485898 0.604797
vn -0.241013 -0.412564 0.878467
vn 0.241016 -0.412565 0.878466
vn 0.630971 -0.485898 0.604797
vn 0.779923 -0.604549 0.161987
vn 0.630975 -0.723194 -0.280822
vn 0.241014 -0.796528 -0.554486
vn -0.241014 -0.796524 -0.554492
vn -0.630976 -0.723192 -0.280824
vn -0.77992 -0.604554 0.161987
vn -0.571129 0.139378 -0.808941
vn -0.921984 0.23339 -0.308989
vn -0.567765 0.152132 -0.809011
vn -0.91865 0.246152 -0.309016
vn -0.921985 0.23339 0.308986
vn -0.918651 0.246152 0.309013
vn -0.57113 0.139378 0.808941
vn -0.567765 0.152133 0.809011
vn -0.003413 -0.012741 0.999913
vn 1e-06 -0 1
vn 0.564299 -0.164859 0.808943
vn 0.567762 -0.152131 0.809013
vn 0.915156 -0.258871 0.30899
vn 0.91865 -0.246151 0.309017
vn 0.915155 -0.258871 -0.308993
vn 0.918649 -0.246151 -0.30902
vn 0.564298 -0.164859 -0.808943
vn 0.567761 -0.152131 -0.809014
vn -0.003415 -0.012741 -0.999913
vn -1e-06 0 -1
vn -0.48551 -0.87064 -0.079164
vn -0.395622 -0.894724 -0.207249
vn -0.258818 -0.965926 0
vn -0.48551 -0.87064 0.079163
vn -0.395622 -0.894725 0.207246
vn -0.250182 -0.933696 0.256165
vn -0.104743 -0.972665 0.207246
vn -0.014857 -0.996752 0.079157
vn -0.014855 -0.996751 -0.079159
vn -0.104742 -0.972665 -0.207247
vn -0.250182 -0.933697 -0.256162
vn -0.604797 -0.485895 -0.630973
vn -0.878469 -0.412559 -0.241013
vn -0.878468 -0.41256 0.241017
vn -0.604798 -0.485896 0.630972
vn -0.161991 -0.604547 0.779924
vn 0.280823 -0.723195 0.630973
vn 0.554481 -0.796532 0.241013
vn 0.554483 -0.796532 -0.241011
vn 0.280823 -0.723194 -0.630975
vn -0.161991 -0.604547 -0.779924
vn 0.808942 0.139377 -0.571128
vn 0.308992 0.233389 -0.921983
vn 0.809012 0.152131 -0.567763
vn 0.30902 0.246151 -0.918649
vn -0.308991 0.23339 -0.921984
vn -0.309018 0.246152 -0.91865
vn -0.808942 0.139377 -0.571128
vn -0.809012 0.152131 -0.567763
vn -0.999913 -0.012741 -0.003414
vn -0.808942 -0.16486 0.564299
vn -0.809013 -0.152132 0.567762
vn -0.308991 -0.258871 0.915156
vn -0.309018 -0.246152 0.91865
vn 0.308993 -0.258869 0.915156
vn 0.30902 -0.246149 0.91865
vn 0.808942 -0.164858 0.5643
vn 0.809012 -0.152131 0.567763
vn 0.999913 -0.012741 -0.003414
vn 0.079158 -0.870643 -0.485505
vn 0.207247 -0.894726 -0.395619
vn -0 -0.965926 -0.258819
vn -0.079159 -0.870642 -0.485506
vn -0.207242 -0.894726 -0.395621
vn -0.256162 -0.933697 -0.25018
vn -0.207243 -0.972666 -0.104742
vn -0.07916 -0.996751 -0.014858
vn 0.079159 -0.996751 -0.014857
vn 0.207249 -0.972665 -0.104742
vn 0.256162 -0.933697 -0.250182
vn 0.630973 -0.485892 -0.6048
vn 0.241011 -0.412565 -0.878467
vn -0.241014 -0.412569 -0.878464
vn -0.630969 -0.4859 -0.604797
vn -0.779923 -0.604549 -0.161987
vn -0.63097 -0.723197 0.280825
vn -0.241014 -0.796528 0.554487
vn 0.241012 -0.796525 0.554491
vn 0.630975 -0.723193 0.280826
vn 0.779927 -0.604544 -0.161988
vn 0.571127 0.139378 0.808942
vn 0.921983 0.23339 0.308993
vn 0.567763 0.152132 0.809012
vn 0.918649 0.246152 0.30902
vn 0.921984 0.23339 -0.308991
vn 0.91865 0.246152 -0.309018
vn 0.571129 0.139378 -0.808941
vn 0.567765 0.152132 -0.809011
vn 0.003414 -0.012741 -0.999913
vn 0 0 -1
vn -0.5643 -0.164859 -0.808942
vn -0.567763 -0.152132 -0.809012
vn -0.915156 -0.258871 -0.308991
vn -0.91865 -0.246152 -0.309018
vn -0.915155 -0.258871 0.308993
vn -0.918649 -0.246152 0.30902
vn -0.5643 -0.164859 0.808942
vn -0.567763 -0.152132 0.809012
vn 0.003413 -0.012741 0.999913
vn -1e-06 0 1
vn 0.485505 -0.870642 0.07916
vn 0.395621 -0.894724 0.20725
vn 0.258819 -0.965926 -0
vn 0.485506 -0.870642 -0.079159
vn 0.395621 -0.894725 -0.207246
vn 0.250182 -0.933696 -0.256164
vn 0.104744 -0.972666 -0.207244
vn 0.014856 -0.996751 -0.079158
vn 0.014855 -0.996751 0.079157
vn 0.104743 -0.972666 0.207244
vn 0.250187 -0.933694 0.256168
vn 0.604799 -0.48589 0.630974
vn 0.878466 -0.412565 0.241013
vn 0.878462 -0.412573 -0.241015
vn 0.604796 -0.4859 -0.63097
vn 0.161988 -0.604552 -0.779921
vn -0.280823 -0.723198 -0.63097
vn -0.554489 -0.796526 -0.241015
vn -0.554491 -0.796526 0.241012
vn -0.280822 -0.723196 0.630973
vn 0.16199 -0.604547 0.779924
vt 0.367423 0.798732
vt 0.335878 0.798698
vt 0.367589 0.415816
vt 0.335956 0.415834
vt 0.30434 0.798676
vt 0.30433 0.415855
vt 0.272807 0.798656
vt 0.272703 0.415884
vt 0.241286 0.798649
vt 0.241091 0.415909
vt 0.209777 0.798658
vt 0.209492 0.415927
vt 0.178284 0.798721
vt 0.177879 0.415964
vt 0.146672 0.798938
vt 0.146269 0.415995
vt 0.462553 0.798963
vt 0.430915 0.798787
vt 0.462497 0.415791
vt 0.430856 0.415798
vt 0.399386 0.798746
vt 0.399219 0.415806
vt 0.203664 0.893447
vt 0.183511 0.893314
vt 0.193821 0.862336
vt 0.220065 0.881742
vt 0.226478 0.862628
vt 0.22046 0.843355
vt 0.204225 0.831292
vt 0.183913 0.831131
vt 0.167455 0.842932
vt 0.161122 0.862125
vt 0.167269 0.881363
vt 0.36748 0.815444
vt 0.335872 0.815333
vt 0.178188 0.909373
vt 0.208773 0.909557
vt 0.304316 0.815313
vt 0.233664 0.891813
vt 0.272784 0.815286
vt 0.243406 0.862823
vt 0.241252 0.815265
vt 0.234327 0.833538
vt 0.209705 0.815139
vt 0.178706 0.814888
vt 0.149024 0.815561
vt 0.15374 0.832884
vt 0.460231 0.815594
vt 0.430562 0.815002
vt 0.144162 0.862039
vt 0.399361 0.815341
vt 0.153519 0.891259
vt 0.224437 0.38792
vt 0.192909 0.387869
vt 0.224912 0.005309
vt 0.193308 0.005298
vt 0.161387 0.387818
vt 0.161709 0.005289
vt 0.129869 0.387772
vt 0.130112 0.005282
vt 0.098359 0.387738
vt 0.098519 0.00528
vt 0.066874 0.387718
vt 0.066926 0.00528
vt 0.035393 0.387764
vt 0.035337 0.005284
vt 0.003797 0.387948
vt 0.003747 0.005289
vt 0.319499 0.38822
vt 0.287885 0.388021
vt 0.319735 0.005361
vt 0.288128 0.005342
vt 0.256379 0.38796
vt 0.25652 0.005325
vt 0.109014 0.471677
vt 0.092451 0.483603
vt 0.082358 0.452139
vt 0.115426 0.452303
vt 0.109241 0.432828
vt 0.092774 0.420677
vt 0.072213 0.420593
vt 0.055615 0.432604
vt 0.049271 0.452054
vt 0.055551 0.471503
vt 0.072046 0.483545
vt 0.224484 0.404623
vt 0.192874 0.404528
vt 0.09769 0.499908
vt 0.122827 0.481796
vt 0.161355 0.404443
vt 0.132558 0.452416
vt 0.129835 0.404404
vt 0.123204 0.422849
vt 0.098263 0.404322
vt 0.066879 0.404175
vt 0.035769 0.403946
vt 0.041703 0.422489
vt 0.006131 0.404573
vt 0.032095 0.452039
vt 0.317187 0.404854
vt 0.28752 0.404231
vt 0.041655 0.481567
vt 0.256356 0.404535
vt 0.066715 0.499831
vt 0.518185 0.386897
vt 0.48664 0.386848
vt 0.518664 0.004041
vt 0.48704 0.004018
vt 0.455101 0.386805
vt 0.455418 0.004008
vt 0.423569 0.386769
vt 0.423797 0.003987
vt 0.392052 0.386751
vt 0.392176 0.003981
vt 0.360541 0.386786
vt 0.360553 0.003971
vt 0.328918 0.386964
vt 0.328934 0.003968
vt 0.644781 0.387217
vt 0.613164 0.387001
vt 0.645164 0.004148
vt 0.61354 0.004115
vt 0.58167 0.386936
vt 0.581916 0.004088
vt 0.550154 0.386924
vt 0.55029 0.004059
vt 0.571416 0.470081
vt 0.564975 0.450966
vt 0.597645 0.450624
vt 0.587859 0.481768
vt 0.608019 0.481594
vt 0.624255 0.469603
vt 0.630349 0.450359
vt 0.623987 0.43118
vt 0.607561 0.4194
vt 0.587235 0.419576
vt 0.570983 0.431667
vt 0.518223 0.403624
vt 0.486605 0.403496
vt 0.548034 0.451164
vt 0.55781 0.480166
vt 0.455063 0.403446
vt 0.58277 0.497914
vt 0.423517 0.403379
vt 0.613374 0.497674
vt 0.392021 0.403254
vt 0.63805 0.479467
vt 0.360899 0.402983
vt 0.647313 0.450257
vt 0.331236 0.403608
vt 0.637655 0.421111
vt 0.642434 0.403863
vt 0.612759 0.403173
vt 0.581746 0.403428
vt 0.550134 0.403652
vt 0.557117 0.421861
vt 0.812038 0.885931
vt 0.780484 0.885894
vt 0.812407 0.502853
vt 0.780785 0.502857
vt 0.748937 0.885851
vt 0.749166 0.502857
vt 0.717384 0.885809
vt 0.717546 0.502864
vt 0.685846 0.885779
vt 0.685928 0.502863
vt 0.654325 0.885804
vt 0.654305 0.502864
vt 0.622683 0.885979
vt 0.622682 0.502865
vt 0.938846 0.885805
vt 0.90723 0.885606
vt 0.938887 0.502853
vt 0.907269 0.502851
vt 0.875755 0.885542
vt 0.875651 0.502846
vt 0.844256 0.88555
vt 0.844029 0.502846
vt 0.864555 0.967836
vt 0.858518 0.948732
vt 0.890975 0.948986
vt 0.880653 0.979763
vt 0.900691 0.979975
vt 0.917073 0.968378
vt 0.923531 0.94934
vt 0.917536 0.930081
vt 0.901331 0.918038
vt 0.881113 0.917992
vt 0.864833 0.929731
vt 0.812199 0.90268
vt 0.780479 0.902588
vt 0.841713 0.948609
vt 0.850863 0.977601
vt 0.748903 0.902499
vt 0.875294 0.995707
vt 0.717336 0.902429
vt 0.905688 0.996032
vt 0.685809 0.902273
vt 0.930572 0.978469
vt 0.654684 0.901995
vt 0.940437 0.949578
vt 0.624991 0.902653
vt 0.931387 0.92028
vt 0.936483 0.902515
vt 0.906755 0.901831
vt 0.875849 0.901961
vt 0.844327 0.902331
vt 0.851276 0.919806
usemtl LegSG
f 1/1/1 2/2/2 3/3/3
f 3/3/3 2/2/2 4/4/4
f 2/2/2 5/5/5 4/4/4
f 4/4/4 5/5/5 6/6/6
f 5/5/5 7/7/7 6/6/6
f 6/6/6 7/7/7 8/8/8
f 7/7/7 9/9/9 8/8/8
f 8/8/8 9/9/9 10/10/10
f 9/9/9 11/11/11 10/10/10
f 10/10/10 11/11/11 12/12/12
f 11/11/11 13/13/13 12/12/12
f 12/12/12 13/13/13 14/14/14
f 13/13/13 15/15/15 14/14/14
f 14/14/14 15/15/15 16/16/16
f 15/17/15 17/18/17 16/19/16
f 16/19/16 17/18/17 18/20/18
f 17/18/17 19/21/19 18/20/18
f 18/20/18 19/21/19 20/22/20
f 19/21/19 1/1/1 20/22/20
f 20/22/20 1/1/1 3/3/3
f 21/23/21 22/24/22 23/25/23
f 24/26/24 21/23/21 23/25/23
f 25/27/25 24/26/24 23/25/23
f 26/28/26 25/27/25 23/25/23
f 27/29/27 26/28/26 23/25/23
f 28/30/28 27/29/27 23/25/23
f 29/31/29 28/30/28 23/25/23
f 30/32/30 29/31/29 23/25/23
f 31/33/31 30/32/30 23/25/23
f 22/24/22 31/33/31 23/25/23
f 1/1/1 32/34/32 2/2/2
f 2/2/2 32/34/32 33/35/33
f 32/36/32 22/24/22 33/37/33
f 33/37/33 22/24/22 21/23/21
f 2/2/2 33/35/33 5/5/5
f 5/5/5 33/35/33 34/38/34
f 33/37/33 21/23/21 34/39/34
f 34/39/34 21/23/21 24/26/24
f 5/5/5 34/38/34 7/7/7
f 7/7/7 34/38/34 35/40/35
f 34/39/34 24/26/24 35/41/35
f 35/41/35 24/26/24 25/27/25
f 7/7/7 35/40/35 9/9/9
f 9/9/9 35/40/35 36/42/36
f 35/41/35 25/27/25 36/43/36
f 36/43/36 25/27/25 26/28/26
f 9/9/9 36/42/36 11/11/11
f 11/11/11 36/42/36 37/44/37
f 36/43/36 26/28/26 37/44/37
f 37/44/37 26/28/26 27/29/27
f 11/11/11 37/44/37 13/13/13
f 13/13/13 37/44/37 38/45/38
f 37/44/37 27/29/27 38/45/38
f 38/45/38 27/29/27 28/30/28
f 13/13/13 38/45/38 15/15/15
f 15/15/15 38/45/38 39/46/39
f 38/45/38 28/30/28 39/47/39
f 39/47/39 28/30/28 29/31/29
f 15/17/15 39/48/39 17/18/17
f 17/18/17 39/48/39 40/49/40
f 39/47/39 29/31/29 40/50/40
f 40/50/40 29/31/29 30/32/30
f 17/18/17 40/49/40 19/21/19
f 19/21/19 40/49/40 41/51/41
f 40/50/40 30/32/30 41/52/41
f 41/52/41 30/32/30 31/33/31
f 22/24/22 32/36/32 31/33/31
f 31/33/31 32/36/32 41/52/41
f 32/34/32 1/1/1 41/51/41
f 41/51/41 1/1/1 19/21/19
f 42/53/42 43/54/43 44/55/44
f 44/55/44 43/54/43 45/56/45
f 43/54/43 46/57/46 45/56/45
f 45/56/45 46/57/46 47/58/47
f 46/57/46 48/59/48 47/58/47
f 47/58/47 48/59/48 49/60/49
f 48/59/48 50/61/50 49/60/49
f 49/60/49 50/61/50 51/62/51
f 50/61/50 52/63/52 51/62/51
f 51/62/51 52/63/52 53/64/53
f 52/63/52 54/65/54 53/64/53
f 53/64/53 54/65/54 55/66/55
f 54/65/54 56/67/56 55/66/55
f 55/66/55 56/67/56 57/68/57
f 56/69/56 58/70/58 57/71/57
f 57/71/57 58/70/58 59/72/59
f 58/70/58 60/73/60 59/72/59
f 59/72/59 60/73/60 61/74/61
f 60/73/60 42/53/42 61/74/61
f 61/74/61 42/53/42 44/55/44
f 62/75/62 63/76/63 64/77/64
f 65/78/65 62/75/62 64/77/64
f 66/79/66 65/78/65 64/77/64
f 67/80/67 66/79/66 64/77/64
f 68/81/68 67/80/67 64/77/64
f 69/82/69 68/81/68 64/77/64
f 70/83/70 69/82/69 64/77/64
f 71/84/71 70/83/70 64/77/64
f 72/85/72 71/84/71 64/77/64
f 63/76/63 72/85/72 64/77/64
f 42/53/42 73/86/73 43/54/43
f 43/54/43 73/86/73 74/87/74
f 73/88/73 63/76/63 74/89/74
f 74/89/74 63/76/63 62/75/62
f 43/54/43 74/87/74 46/57/46
f 46/57/46 74/87/74 75/90/75
f 74/89/74 62/75/62 75/91/75
f 75/91/75 62/75/62 65/78/65
f 46/57/46 75/90/75 48/59/48
f 48/59/48 75/90/75 76/92/76
f 75/91/75 65/78/65 76/93/76
f 76/93/76 65/78/65 66/79/66
f 48/59/48 76/92/76 50/61/50
f 50/61/50 76/92/76 77/94/77
f 76/93/76 66/79/66 77/94/77
f 77/94/77 66/79/66 67/80/67
f 50/61/50 77/94/77 52/63/52
f 52/63/52 77/94/77 78/95/78
f 77/94/77 67/80/67 78/95/78
f 78/95/78 67/80/67 68/81/68
f 52/63/52 78/95/78 54/65/54
f 54/65/54 78/95/78 79/96/79
f 78/95/78 68/81/68 79/97/79
f 79/97/79 68/81/68 69/82/69
f 54/65/54 79/96/79 56/67/56
f 56/67/56 79/96/79 80/98/80
f 79/97/79 69/82/69 80/99/80
f 80/99/80 69/82/69 70/83/70
f 56/69/56 80/100/80 58/70/58
f 58/70/58 80/100/80 81/101/81
f 80/99/80 70/83/70 81/102/81
f 81/102/81 70/83/70 71/84/71
f 58/70/58 81/101/81 60/73/60
f 60/73/60 81/101/81 82/103/82
f 81/102/81 71/84/71 82/104/82
f 82/104/82 71/84/71 72/85/72
f 63/76/63 73/88/73 72/85/72
f 72/85/72 73/88/73 82/104/82
f 73/86/73 42/53/42 82/103/82
f 82/103/82 42/53/42 60/73/60
f 83/105/83 84/106/84 85/107/85
f 85/107/85 84/106/84 86/108/86
f 84/106/84 87/109/87 86/108/86
f 86/108/86 87/109/87 88/110/88
f 87/109/87 89/111/89 88/110/88
f 88/110/88 89/111/89 90/112/90
f 89/111/89 91/113/91 90/112/90
f 90/112/90 91/113/91 92/114/20
f 91/113/91 93/115/92 92/114/20
f 92/114/20 93/115/92 94/116/93
f 93/115/92 95/117/94 94/116/93
f 94/116/93 95/117/94 96/118/95
f 95/119/94 97/120/96 96/121/95
f 96/121/95 97/120/96 98/122/97
f 97/120/96 99/123/98 98/122/97
f 98/122/97 99/123/98 100/124/99
f 99/123/98 101/125/100 100/124/99
f 100/124/99 101/125/100 102/126/10
f 101/125/100 83/105/83 102/126/10
f 102/126/10 83/105/83 85/107/85
f 103/127/101 104/128/102 105/129/103
f 106/130/104 103/127/101 105/129/103
f 107/131/105 106/130/104 105/129/103
f 108/132/106 107/131/105 105/129/103
f 109/133/107 108/132/106 105/129/103
f 110/134/108 109/133/107 105/129/103
f 111/135/109 110/134/108 105/129/103
f 112/136/110 111/135/109 105/129/103
f 113/137/111 112/136/110 105/129/103
f 104/128/102 113/137/111 105/129/103
f 83/105/83 114/138/112 84/106/84
f 84/106/84 114/138/112 115/139/113
f 114/140/112 104/128/102 115/141/113
f 115/141/113 104/128/102 103/127/101
f 84/106/84 115/139/113 87/109/87
f 87/109/87 115/139/113 116/142/114
f 115/141/113 103/127/101 116/143/114
f 116/143/114 103/127/101 106/130/104
f 87/109/87 116/142/114 89/111/89
f 89/111/89 116/142/114 117/144/115
f 116/143/114 106/130/104 117/145/115
f 117/145/115 106/130/104 107/131/105
f 89/111/89 117/144/115 91/113/91
f 91/113/91 117/144/115 118/146/116
f 117/145/115 107/131/105 118/147/116
f 118/147/116 107/131/105 108/132/106
f 91/113/91 118/146/116 93/115/92
f 93/115/92 118/146/116 119/148/117
f 118/147/116 108/132/106 119/149/117
f 119/149/117 108/132/106 109/133/107
f 93/115/92 119/148/117 95/117/94
f 95/117/94 119/148/117 120/150/118
f 119/149/117 109/133/107 120/151/118
f 120/151/118 109/133/107 110/134/108
f 95/119/94 120/152/118 97/120/96
f 97/120/96 120/152/118 121/153/119
f 120/151/118 110/134/108 121/153/119
f 121/153/119 110/134/108 111/135/109
f 97/120/96 121/153/119 99/123/98
f 99/123/98 121/153/119 122/154/120
f 121/153/119 111/135/109 122/154/120
f 122/154/120 111/135/109 112/136/110
f 99/123/98 122/154/120 101/125/100
f 101/125/100 122/154/120 123/155/121
f 122/154/120 112/136/110 123/156/121
f 123/156/121 112/136/110 113/137/111
f 104/128/102 114/140/112 113/137/111
f 113/137/111 114/140/112 123/156/121
f 114/138/112 83/105/83 123/155/121
f 123/155/121 83/105/83 101/125/100
f 124/157/122 125/158/123 126/159/124
f 126/159/124 125/158/123 127/160/125
f 125/158/123 128/161/126 127/160/125
f 127/160/125 128/161/126 129/162/127
f 128/161/126 130/163/128 129/162/127
f 129/162/127 130/163/128 131/164/129
f 130/163/128 132/165/130 131/164/129
f 131/164/129 132/165/130 133/166/131
f 132/165/130 134/167/132 133/166/131
f 133/166/131 134/167/132 135/168/133
f 134/167/132 136/169/134 135/168/133
f 135/168/133 136/169/134 137/170/135
f 136/171/134 138/172/136 137/173/135
f 137/173/135 138/172/136 139/174/137
f 138/172/136 140/175/138 139/174/137
f 139/174/137 140/175/138 141/176/139
f 140/175/138 142/177/140 141/176/139
f 141/176/139 142/177/140 143/178/141
f 142/177/140 124/157/122 143/178/141
f 143/178/141 124/157/122 126/159/124
f 144/179/142 145/180/143 146/181/144
f 147/182/145 144/179/142 146/181/144
f 148/183/146 147/182/145 146/181/144
f 149/184/147 148/183/146 146/181/144
f 150/185/148 149/184/147 146/181/144
f 151/186/149 150/185/148 146/181/144
f 152/187/150 151/186/149 146/181/144
f 153/188/151 152/187/150 146/181/144
f 154/189/152 153/188/151 146/181/144
f 145/180/143 154/189/152 146/181/144
f 124/157/122 155/190/153 125/158/123
f 125/158/123 155/190/153 156/191/154
f 155/192/153 145/180/143 156/193/154
f 156/193/154 145/180/143 144/179/142
f 125/158/123 156/191/154 128/161/126
f 128/161/126 156/191/154 157/194/155
f 156/193/154 144/179/142 157/195/155
f 157/195/155 144/179/142 147/182/145
f 128/161/126 157/194/155 130/163/128
f 130/163/128 157/194/155 158/196/156
f 157/195/155 147/182/145 158/197/156
f 158/197/156 147/182/145 148/183/146
f 130/163/128 158/196/156 132/165/130
f 132/165/130 158/196/156 159/198/157
f 158/197/156 148/183/146 159/199/157
f 159/199/157 148/183/146 149/184/147
f 132/165/130 159/198/157 134/167/132
f 134/167/132 159/198/157 160/200/158
f 159/199/157 149/184/147 160/201/158
f 160/201/158 149/184/147 150/185/148
f 134/167/132 160/200/158 136/169/134
f 136/169/134 160/200/158 161/202/159
f 160/201/158 150/185/148 161/203/159
f 161/203/159 150/185/148 151/186/149
f 136/171/134 161/204/159 138/172/136
f 138/172/136 161/204/159 162/205/160
f 161/203/159 151/186/149 162/205/160
f 162/205/160 151/186/149 152/187/150
f 138/172/136 162/205/160 140/175/138
f 140/175/138 162/205/160 163/206/161
f 162/205/160 152/187/150 163/206/161
f 163/206/161 152/187/150 153/188/151
f 140/175/138 163/206/161 142/177/140
f 142/177/140 163/206/161 164/207/162
f 163/206/161 153/188/151 164/208/162
f 164/208/162 153/188/151 154/189/152
f 145/180/143 155/192/153 154/189/152
f 154/189/152 155/192/153 164/208/162
f 155/190/153 124/157/122 164/207/162
f 164/207/162 124/157/122 142/177/140
s off
g Stool_TopSG
v 1.6465 0.975649 -0.792914
v 1.13942 0.975649 -1.42878
v 1.6465 1.24979 -0.792914
v 1.13942 1.24979 -1.42878
v 0.406654 0.975649 -1.78166
v 0.406654 1.24979 -1.78166
v -0.406654 0.975649 -1.78166
v -0.406654 1.24979 -1.78166
v -1.13942 0.975649 -1.42878
v -1.13942 1.24979 -1.42878
v -1.6465 0.975649 -0.792915
v -1.6465 1.24979 -0.792915
v -1.82748 0.975649 0
v -1.82748 1.24979 0
v -1.6465 0.975649 0.792915
v -1.6465 1.24979 0.792915
v -1.13942 0.975649 1.42878
v -1.13942 1.24979 1.42878
v -0.406654 0.975649 1.78166
v -0.406654 1.24979 1.78166
v 0.406654 0.975649 1.78166
v 0.406654 1.24979 1.78166
v 1.13942 0.975649 1.42878
v 1.13942 1.24979 1.42878
v 1.6465 0.975649 0.792916
v 1.6465 1.24979 0.792916
v 1.82748 0.975649 0
v 1.82748 1.24979 0
v 1.00796 0.770093 -1.26394
v 1.45654 0.770093 -0.701433
v -2e-06 0.770093 0
v 0.359735 0.770093 -1.57611
v -0.359734 0.770093 -1.57611
v -1.00796 0.770093 -1.26394
v -1.45654 0.770093 -0.701434
v -1.61664 0.770093 0
v -1.45654 0.770093 0.701434
v -1.00796 0.770093 1.26394
v -0.359734 0.770093 1.57611
v 0.359735 0.770093 1.57611
v 1.00796 0.770093 1.26394
v 1.45654 0.770093 0.701434
v 1.61664 0.770093 0
v 1.45654 1.45535 -0.701433
v 1.00796 1.45535 -1.26394
v -2e-06 1.45535 0
v 0.359735 1.45535 -1.57611
v -0.359734 1.45535 -1.57611
v -1.00796 1.45535 -1.26394
v -1.45654 1.45535 -0.701434
v -1.61664 1.45535 0
v -1.45654 1.45535 0.701434
v -1.00796 1.45535 1.26394
v -0.359734 1.45535 1.57611
v 0.359735 1.45535 1.57611
v 1.00796 1.45535 1.26394
v 1.45654 1.45535 0.701434
v 1.61664 1.45535 0
v 1.59087 0.830299 -0.76612
v 1.10092 0.830299 -1.3805
v 0.392916 0.830299 -1.72146
v -0.39291 0.830299 -1.72146
v -1.10092 0.830299 -1.3805
v -1.59087 0.830299 -0.766121
v -1.76573 0.830299 0
v -1.59087 0.830299 0.76612
v -1.10092 0.830299 1.3805
v -0.39291 0.830299 1.72146
v 0.392916 0.830299 1.72146
v 1.10092 0.830299 1.3805
v 1.59087 0.830299 0.76612
v 1.76573 0.830299 0
v 1.59087 1.39514 -0.76612
v 1.76573 1.39514 0
v 1.10092 1.39514 -1.3805
v 0.392916 1.39514 -1.72146
v -0.39291 1.39514 -1.72146
v -1.10092 1.39514 -1.3805
v -1.59087 1.39514 -0.766121
v -1.76573 1.39514 0
v -1.59087 1.39514 0.76612
v -1.10092 1.39514 1.3805
v -0.39291 1.39514 1.72146
v 0.392916 1.39514 1.72146
v 1.10092 1.39514 1.3805
v 1.59087 1.39514 0.76612
vn 0.892247 -0.138806 -0.429684
vn 0.617455 -0.138806 -0.774263
vn 0.892247 0.138806 -0.429684
vn 0.617455 0.138806 -0.774263
vn 0.220366 -0.138808 -0.96549
vn 0.220366 0.138808 -0.96549
vn -0.220367 -0.138809 -0.96549
vn -0.220367 0.138809 -0.96549
vn -0.617454 -0.138805 -0.774264
vn -0.617454 0.138805 -0.774263
vn -0.892247 -0.138806 -0.429684
vn -0.892247 0.138806 -0.429684
vn -0.990319 -0.138811 -0
vn -0.990319 0.138811 -0
vn -0.892247 -0.138809 0.429684
vn -0.892247 0.138809 0.429684
vn -0.617454 -0.138809 0.774263
vn -0.617454 0.138809 0.774263
vn -0.220368 -0.13881 0.965489
vn -0.220368 0.13881 0.965489
vn 0.220366 -0.138809 0.96549
vn 0.220366 0.138809 0.96549
vn 0.617454 -0.138808 0.774263
vn 0.617454 0.138808 0.774263
vn 0.892247 -0.138809 0.429684
vn 0.892247 0.138809 0.429684
vn 0.990319 -0.138809 0
vn 0.990319 0.138809 0
vn 0.05097 -0.996653 -0.063915
vn 0.073654 -0.996653 -0.03547
vn 0 -1 0
vn 0.018191 -0.996653 -0.0797
vn -0.018191 -0.996653 -0.0797
vn -0.05097 -0.996653 -0.063914
vn -0.073653 -0.996653 -0.03547
vn -0.08175 -0.996653 -0
vn -0.073653 -0.996653 0.03547
vn -0.05097 -0.996653 0.063914
vn -0.018191 -0.996653 0.0797
vn 0.018191 -0.996653 0.0797
vn 0.05097 -0.996653 0.063915
vn 0.073654 -0.996653 0.03547
vn 0.08175 -0.996653 0
vn 0.073654 0.996653 -0.035469
vn 0.05097 0.996653 -0.063914
vn 0 1 0
vn 0.018191 0.996653 -0.0797
vn -0.018191 0.996653 -0.0797
vn -0.05097 0.996653 -0.063914
vn -0.073653 0.996653 -0.03547
vn -0.081749 0.996653 0
vn -0.073653 0.996653 0.03547
vn -0.05097 0.996653 0.063915
vn -0.018191 0.996653 0.0797
vn 0.018191 0.996653 0.0797
vn 0.05097 0.996653 0.063914
vn 0.073654 0.996653 0.035469
vn 0.081749 0.996653 -0
vn 0.662123 -0.678175 -0.31886
vn 0.458203 -0.678177 -0.574565
vn 0.163533 -0.678177 -0.716472
vn -0.163528 -0.678181 -0.71647
vn -0.458202 -0.678177 -0.574566
vn -0.66212 -0.678179 -0.31886
vn -0.734891 -0.678185 -0
vn -0.662118 -0.678181 0.318859
vn -0.458201 -0.678179 0.574565
vn -0.163528 -0.67818 0.716471
vn 0.163532 -0.678179 0.716471
vn 0.458203 -0.678178 0.574565
vn 0.662124 -0.678175 0.318859
vn 0.734902 -0.678173 0
vn 0.662124 0.678175 -0.31886
vn 0.734902 0.678173 -0
vn 0.458203 0.678177 -0.574565
vn 0.163532 0.678178 -0.716472
vn -0.163528 0.67818 -0.716471
vn -0.458202 0.678178 -0.574566
vn -0.662119 0.678179 -0.318859
vn -0.734891 0.678186 -0
vn -0.662117 0.678181 0.318859
vn -0.458201 0.67818 0.574564
vn -0.163528 0.67818 0.716471
vn 0.163532 0.678179 0.716471
vn 0.458202 0.678179 0.574565
vn 0.662123 0.678175 0.318859
vt 0.453657 0.601376
vt 0.487736 0.678895
vt 0.427313 0.612834
vt 0.461786 0.69038
vt 0.521418 0.755311
vt 0.495897 0.766626
vt 0.554477 0.830464
vt 0.529323 0.841598
vt 0.587209 0.904684
vt 0.562239 0.915737
vt 0.620768 0.979534
vt 0.595113 0.990889
vt 0.180665 0.008323
vt 0.208275 0.069544
vt 0.159768 0.017865
vt 0.187937 0.078815
vt 0.235894 0.129955
vt 0.215408 0.139302
vt 0.263907 0.191049
vt 0.243176 0.200521
vt 0.292084 0.25285
vt 0.271103 0.262391
vt 0.320775 0.315399
vt 0.299404 0.325091
vt 0.35104 0.378867
vt 0.328582 0.38938
vt 0.384091 0.448082
vt 0.359819 0.459201
vt 0.418583 0.522404
vt 0.392827 0.53406
vt 0.594724 0.360482
vt 0.546289 0.400082
vt 0.483894 0.274095
vt 0.621198 0.303807
vt 0.620484 0.241268
vt 0.592729 0.185229
vt 0.543428 0.146767
vt 0.482379 0.133535
vt 0.421655 0.148119
vt 0.373229 0.187527
vt 0.346575 0.244023
vt 0.34696 0.306609
vt 0.374892 0.363366
vt 0.424383 0.401675
vt 0.485513 0.414797
vt 0.218119 0.558
vt 0.154766 0.570494
vt 0.159209 0.425606
vt 0.092249 0.554235
vt 0.042983 0.512437
vt 0.016747 0.45339
vt 0.018743 0.388806
vt 0.048573 0.331487
vt 0.100556 0.292915
vt 0.164047 0.280769
vt 0.226405 0.297358
vt 0.275315 0.33924
vt 0.301275 0.397991
vt 0.299356 0.462046
vt 0.269724 0.519264
vt 0.469028 0.59453
vt 0.5029 0.672239
vt 0.552529 0.412645
vt 0.605793 0.369095
vt 0.536337 0.748759
vt 0.634904 0.306769
vt 0.569173 0.824002
vt 0.634116 0.237995
vt 0.601748 0.8982
vt 0.603593 0.176369
vt 0.634886 0.971613
vt 0.549376 0.134074
vt 0.19318 0.003968
vt 0.220151 0.064165
vt 0.482222 0.119525
vt 0.247837 0.124481
vt 0.415445 0.135573
vt 0.276003 0.185501
vt 0.362222 0.178903
vt 0.304312 0.247245
vt 0.332904 0.240986
vt 0.333183 0.309687
vt 0.364016 0.372472
vt 0.3982 0.441381
vt 0.41849 0.414385
vt 0.43365 0.51558
vt 0.485687 0.428824
vt 0.411936 0.619577
vt 0.377726 0.540692
vt 0.224016 0.571222
vt 0.280769 0.5286
vt 0.154335 0.584971
vt 0.446653 0.697137
vt 0.085573 0.567092
vt 0.481025 0.773283
vt 0.031386 0.52112
vt 0.514661 0.848132
vt 0.002529 0.456178
vt 0.547664 0.922142
vt 0.004724 0.385146
vt 0.57976 0.996032
vt 0.037532 0.322105
vt 0.148279 0.024474
vt 0.176092 0.084258
vt 0.094727 0.279634
vt 0.20344 0.144722
vt 0.164569 0.2663
vt 0.231056 0.206004
vt 0.233143 0.284579
vt 0.258849 0.267915
vt 0.286883 0.330686
vt 0.315383 0.395274
vt 0.313323 0.465659
vt 0.345576 0.465469
usemtl TopSG
f 165/209/163 166/210/164 167/211/165
f 167/211/165 166/210/164 168/212/166
f 166/210/164 169/213/167 168/212/166
f 168/212/166 169/213/167 170/214/168
f 169/213/167 171/215/169 170/214/168
f 170/214/168 171/215/169 172/216/170
f 171/215/169 173/217/171 172/216/170
f 172/216/170 173/217/171 174/218/172
f 173/217/171 175/219/173 174/218/172
f 174/218/172 175/219/173 176/220/174
f 175/221/173 177/222/175 176/223/174
f 176/223/174 177/222/175 178/224/176
f 177/222/175 179/225/177 178/224/176
f 178/224/176 179/225/177 180/226/178
f 179/225/177 181/227/179 180/226/178
f 180/226/178 181/227/179 182/228/180
f 181/227/179 183/229/181 182/228/180
f 182/228/180 183/229/181 184/230/182
f 183/229/181 185/231/183 184/230/182
f 184/230/182 185/231/183 186/232/184
f 185/231/183 187/233/185 186/232/184
f 186/232/184 187/233/185 188/234/186
f 187/233/185 189/235/187 188/234/186
f 188/234/186 189/235/187 190/236/188
f 189/235/187 191/237/189 190/236/188
f 190/236/188 191/237/189 192/238/190
f 191/237/189 165/209/163 192/238/190
f 192/238/190 165/209/163 167/211/165
f 193/239/191 194/240/192 195/241/193
f 196/242/194 193/239/191 195/241/193
f 197/243/195 196/242/194 195/241/193
f 198/244/196 197/243/195 195/241/193
f 199/245/197 198/244/196 195/241/193
f 200/246/198 199/245/197 195/241/193
f 201/247/199 200/246/198 195/241/193
f 202/248/200 201/247/199 195/241/193
f 203/249/201 202/248/200 195/241/193
f 204/250/202 203/249/201 195/241/193
f 205/251/203 204/250/202 195/241/193
f 206/252/204 205/251/203 195/241/193
f 207/253/205 206/252/204 195/241/193
f 194/240/192 207/253/205 195/241/193
f 208/254/206 209/255/207 210/256/208
f 209/255/207 211/257/209 210/256/208
f 211/257/209 212/258/210 210/256/208
f 212/258/210 213/259/211 210/256/208
f 213/259/211 214/260/212 210/256/208
f 214/260/212 215/261/213 210/256/208
f 215/261/213 216/262/214 210/256/208
f 216/262/214 217/263/215 210/256/208
f 217/263/215 218/264/216 210/256/208
f 218/264/216 219/265/217 210/256/208
f 219/265/217 220/266/218 210/256/208
f 220/266/218 221/267/219 210/256/208
f 221/267/219 222/268/220 210/256/208
f 222/268/220 208/254/206 210/256/208
f 165/209/163 223/269/221 166/210/164
f 166/210/164 223/269/221 224/270/222
f 223/271/221 194/240/192 224/272/222
f 224/272/222 194/240/192 193/239/191
f 166/210/164 224/270/222 169/213/167
f 169/213/167 224/270/222 225/273/223
f 224/272/222 193/239/191 225/274/223
f 225/274/223 193/239/191 196/242/194
f 169/213/167 225/273/223 171/215/169
f 171/215/169 225/273/223 226/275/224
f 225/274/223 196/242/194 226/276/224
f 226/276/224 196/242/194 197/243/195
f 171/215/169 226/275/224 173/217/171
f 173/217/171 226/275/224 227/277/225
f 226/276/224 197/243/195 227/278/225
f 227/278/225 197/243/195 198/244/196
f 173/217/171 227/277/225 175/219/173
f 175/219/173 227/277/225 228/279/226
f 227/278/225 198/244/196 228/280/226
f 228/280/226 198/244/196 199/245/197
f 175/221/173 228/281/226 177/222/175
f 177/222/175 228/281/226 229/282/227
f 228/280/226 199/245/197 229/283/227
f 229/283/227 199/245/197 200/246/198
f 177/222/175 229/282/227 179/225/177
f 179/225/177 229/282/227 230/284/228
f 229/283/227 200/246/198 230/285/228
f 230/285/228 200/246/198 201/247/199
f 179/225/177 230/284/228 181/227/179
f 181/227/179 230/284/228 231/286/229
f 230/285/228 201/247/199 231/287/229
f 231/287/229 201/247/199 202/248/200
f 181/227/179 231/286/229 183/229/181
f 183/229/181 231/286/229 232/288/230
f 231/287/229 202/248/200 232/289/230
f 232/289/230 202/248/200 203/249/201
f 183/229/181 232/288/230 185/231/183
f 185/231/183 232/288/230 233/290/231
f 232/289/230 203/249/201 233/290/231
f 233/290/231 203/249/201 204/250/202
f 185/231/183 233/290/231 187/233/185
f 187/233/185 233/290/231 234/291/232
f 233/290/231 204/250/202 234/291/232
f 234/291/232 204/250/202 205/251/203
f 187/233/185 234/291/232 189/235/187
f 189/235/187 234/291/232 235/292/233
f 234/291/232 205/251/203 235/293/233
f 235/293/233 205/251/203 206/252/204
f 189/235/187 235/292/233 191/237/189
f 191/237/189 235/292/233 236/294/234
f 235/293/233 206/252/204 236/295/234
f 236/295/234 206/252/204 207/253/205
f 194/240/192 223/271/221 207/253/205
f 207/253/205 223/271/221 236/295/234
f 223/269/221 165/209/163 236/294/234
f 236/294/234 165/209/163 191/237/189
f 167/211/165 237/296/235 192/238/190
f 192/238/190 237/296/235 238/297/236
f 237/298/235 208/254/206 238/299/236
f 238/299/236 208/254/206 222/268/220
f 208/254/206 237/298/235 209/255/207
f 209/255/207 237/298/235 239/300/237
f 237/296/235 167/211/165 239/301/237
f 239/301/237 167/211/165 168/212/166
f 209/255/207 239/300/237 211/257/209
f 211/257/209 239/300/237 240/302/238
f 239/301/237 168/212/166 240/303/238
f 240/303/238 168/212/166 170/214/168
f 211/257/209 240/302/238 212/258/210
f 212/258/210 240/302/238 241/304/239
f 240/303/238 170/214/168 241/305/239
f 241/305/239 170/214/168 172/216/170
f 212/258/210 241/304/239 213/259/211
f 213/259/211 241/304/239 242/306/240
f 241/305/239 172/216/170 242/307/240
f 242/307/240 172/216/170 174/218/172
f 213/259/211 242/306/240 214/260/212
f 214/260/212 242/306/240 243/308/241
f 242/307/240 174/218/172 243/309/241
f 243/309/241 174/218/172 176/220/174
f 214/260/212 243/308/241 215/261/213
f 215/261/213 243/308/241 244/310/242
f 243/311/241 176/223/174 244/312/242
f 244/312/242 176/223/174 178/224/176
f 215/261/213 244/310/242 216/262/214
f 216/262/214 244/310/242 245/313/243
f 244/312/242 178/224/176 245/314/243
f 245/314/243 178/224/176 180/226/178
f 216/262/214 245/313/243 217/263/215
f 217/263/215 245/313/243 246/315/244
f 245/314/243 180/226/178 246/316/244
f 246/316/244 180/226/178 182/228/180
f 217/263/215 246/315/244 218/264/216
f 218/264/216 246/315/244 247/317/245
f 246/316/244 182/228/180 247/318/245
f 247/318/245 182/228/180 184/230/182
f 218/264/216 247/317/245 219/265/217
f 219/265/217 247/317/245 248/319/246
f 247/318/245 184/230/182 248/319/246
f 248/319/246 184/230/182 186/232/184
f 219/265/217 248/319/246 220/266/218
f 220/266/218 248/319/246 249/320/247
f 248/319/246 186/232/184 249/320/247
f 249/320/247 186/232/184 188/234/186
f 220/266/218 249/320/247 221/267/219
f 221/267/219 249/320/247 250/321/248
f 249/320/247 188/234/186 250/322/248
f 250/322/248 188/234/186 190/236/188
f 221/267/219 250/321/248 222/268/220
f 222/268/220 250/321/248 238/299/236
f 250/322/248 190/236/188 238/297/236
f 238/297/236 190/236/188 192/238/190
s off
