# Apple ModelIO OBJ File: Pillar
mtllib Pillar.mtl
g Pillar_ASG
v 13.2625 -0.5 0.505792
v 13.3004 -0.5 0.647084
v 13.2625 18.499 0.505791
v 13.3004 18.499 0.647084
v 13.4038 -0.5 0.750518
v 13.4038 18.499 0.750518
v 13.5451 -0.5 0.788377
v 13.5451 18.499 0.788377
v 14.393 -0.5 0.788377
v 14.5343 -0.5 0.750518
v 14.393 18.499 0.788377
v 14.5343 18.499 0.750518
v 14.6377 -0.5 0.647084
v 14.6377 18.499 0.647085
v 14.6756 -0.5 0.505792
v 14.6756 18.499 0.505793
v 13.2625 18.499 -0.342111
v 13.3004 18.499 -0.483403
v 13.2625 -0.5 -0.342111
v 13.3004 -0.5 -0.483403
v 13.4038 18.499 -0.586836
v 13.4038 -0.5 -0.586836
v 13.5451 18.499 -0.624695
v 13.5451 -0.5 -0.624695
v 14.393 18.499 -0.624695
v 14.5343 18.499 -0.586836
v 14.393 -0.5 -0.624695
v 14.5343 -0.5 -0.586836
v 14.6377 18.499 -0.483403
v 14.6377 -0.5 -0.483403
v 14.6756 18.499 -0.342111
v 14.6756 -0.5 -0.342111
vn -0.999268 0 0.038248
vn -0.866023 0 0.500004
vn -0.866023 0 0.500003
vn -0.5 0 0.866025
vn -0.038245 0 0.999268
vn 0.038244 0 0.999268
vn 0.499999 -0 0.866026
vn 0.866022 -0 0.500006
vn 0.999268 -0 0.038248
vn -0.999268 0 -0.038248
vn -0.866023 0 -0.500005
vn -0.499999 0 -0.866026
vn -0.038245 0 -0.999268
vn 0.038245 0 -0.999268
vn 0.499999 0 -0.866026
vn 0.866022 0 -0.500005
vn 0.866023 0 -0.500005
vn 0.999268 0 -0.038248
vt 0.11268 0.003981
vt 0.120318 0.003983
vt 0.112535 0.996009
vt 0.120173 0.99601
vt 0.127956 0.003984
vt 0.127811 0.996011
vt 0.135593 0.003985
vt 0.135449 0.996012
vt 0.179867 0.003991
vt 0.187505 0.003992
vt 0.179722 0.996019
vt 0.18736 0.99602
vt 0.195142 0.003994
vt 0.194997 0.996021
vt 0.20278 0.003995
vt 0.202635 0.996022
vt 0.068262 0.996004
vt 0.060624 0.996002
vt 0.068407 0.003974
vt 0.060769 0.003973
vt 0.052986 0.996001
vt 0.053131 0.003972
vt 0.045349 0.995999
vt 0.045493 0.003971
vt 0.269822 0.996032
vt 0.262184 0.99603
vt 0.269967 0.004004
vt 0.262329 0.004004
vt 0.254546 0.996029
vt 0.254691 0.004003
vt 0.246909 0.996028
vt 0.247053 0.004003
vt 0.001076 0.99599
vt 0.00122 0.003968
usemtl ASG
f 1/1/1 2/2/2 3/3/1
f 3/3/1 2/2/2 4/4/3
f 2/2/2 5/5/4 4/4/3
f 4/4/3 5/5/4 6/6/4
f 5/5/4 7/7/5 6/6/4
f 6/6/4 7/7/5 8/8/5
f 9/9/6 10/10/7 11/11/6
f 11/11/6 10/10/7 12/12/7
f 10/10/7 13/13/8 12/12/7
f 12/12/7 13/13/8 14/14/8
f 13/13/8 15/15/9 14/14/8
f 14/14/8 15/15/9 16/16/9
f 17/17/10 18/18/11 19/19/10
f 19/19/10 18/18/11 20/20/11
f 18/18/11 21/21/12 20/20/11
f 20/20/11 21/21/12 22/22/12
f 21/21/12 23/23/13 22/22/12
f 22/22/12 23/23/13 24/24/13
f 25/25/14 26/26/15 27/27/14
f 27/27/14 26/26/15 28/28/15
f 26/26/15 29/29/16 28/28/15
f 28/28/15 29/29/16 30/30/17
f 29/29/16 31/31/18 30/30/17
f 30/30/17 31/31/18 32/32/18
f 7/7/5 9/9/6 8/8/5
f 8/8/5 9/9/6 11/11/6
f 23/23/13 25/33/14 24/24/13
f 24/24/13 25/33/14 27/34/14
f 15/15/9 32/32/18 16/16/9
f 16/16/9 32/32/18 31/31/18
f 19/19/10 1/1/1 17/17/10
f 17/17/10 1/1/1 3/3/1
s off
g Pillar_BSG
v 4.52161 -0.5 0.505792
v 4.55947 -0.5 0.647084
v 4.52161 18.499 0.505791
v 4.55947 18.499 0.647084
v 4.6629 -0.5 0.750518
v 4.6629 18.499 0.750518
v 4.80419 -0.5 0.788377
v 4.80419 18.499 0.788377
v 5.6521 -0.5 0.788377
v 5.79339 -0.5 0.750518
v 5.6521 18.499 0.788377
v 5.79339 18.499 0.750518
v 5.89682 -0.5 0.647084
v 5.89682 18.499 0.647085
v 5.93469 -0.5 0.505792
v 5.93469 18.499 0.505793
v 4.52161 18.499 -0.342111
v 4.55947 18.499 -0.483403
v 4.52161 -0.5 -0.342111
v 4.55947 -0.5 -0.483403
v 4.6629 18.499 -0.586836
v 4.6629 -0.5 -0.586836
v 4.80419 18.499 -0.624695
v 4.80419 -0.5 -0.624695
v 5.6521 18.499 -0.624695
v 5.79339 18.499 -0.586836
v 5.6521 -0.5 -0.624695
v 5.79339 -0.5 -0.586836
v 5.89682 18.499 -0.483403
v 5.89682 -0.5 -0.483403
v 5.93469 18.499 -0.342111
v 5.93469 -0.5 -0.342111
vn -0.999268 0 0.038248
vn -0.866023 0 0.500004
vn -0.866023 0 0.500003
vn -0.5 0 0.866025
vn -0.038245 0 0.999268
vn 0.038244 0 0.999268
vn 0.499999 -0 0.866026
vn 0.866022 -0 0.500006
vn 0.999268 -0 0.038248
vn -0.999268 0 -0.038248
vn -0.866023 0 -0.500005
vn -0.499999 0 -0.866026
vn -0.038245 0 -0.999268
vn 0.038245 0 -0.999268
vn 0.499999 0 -0.866026
vn 0.866022 0 -0.500005
vn 0.866023 0 -0.500005
vn 0.999268 0 -0.038248
vt 0.11268 0.003981
vt 0.120318 0.003983
vt 0.112535 0.996009
vt 0.120173 0.99601
vt 0.127956 0.003984
vt 0.127811 0.996011
vt 0.135593 0.003985
vt 0.135449 0.996012
vt 0.179867 0.003991
vt 0.187504 0.003992
vt 0.179722 0.996018
vt 0.18736 0.996019
vt 0.195142 0.003994
vt 0.194997 0.99602
vt 0.20278 0.003995
vt 0.202635 0.996022
vt 0.068262 0.996003
vt 0.060624 0.996002
vt 0.068407 0.003974
vt 0.060769 0.003973
vt 0.052986 0.996001
vt 0.053131 0.003972
vt 0.045349 0.995999
vt 0.045493 0.003971
vt 0.269822 0.996032
vt 0.262184 0.99603
vt 0.269967 0.004004
vt 0.262329 0.004004
vt 0.254546 0.996029
vt 0.254691 0.004003
vt 0.246909 0.996028
vt 0.247053 0.004003
vt 0.001076 0.99599
vt 0.00122 0.003968
usemtl BSG
f 33/35/19 34/36/20 35/37/19
f 35/37/19 34/36/20 36/38/21
f 34/36/20 37/39/22 36/38/21
f 36/38/21 37/39/22 38/40/22
f 37/39/22 39/41/23 38/40/22
f 38/40/22 39/41/23 40/42/23
f 41/43/24 42/44/25 43/45/24
f 43/45/24 42/44/25 44/46/25
f 42/44/25 45/47/26 44/46/25
f 44/46/25 45/47/26 46/48/26
f 45/47/26 47/49/27 46/48/26
f 46/48/26 47/49/27 48/50/27
f 49/51/28 50/52/29 51/53/28
f 51/53/28 50/52/29 52/54/29
f 50/52/29 53/55/30 52/54/29
f 52/54/29 53/55/30 54/56/30
f 53/55/30 55/57/31 54/56/30
f 54/56/30 55/57/31 56/58/31
f 57/59/32 58/60/33 59/61/32
f 59/61/32 58/60/33 60/62/33
f 58/60/33 61/63/34 60/62/33
f 60/62/33 61/63/34 62/64/35
f 61/63/34 63/65/36 62/64/35
f 62/64/35 63/65/36 64/66/36
f 39/41/23 41/43/24 40/42/23
f 40/42/23 41/43/24 43/45/24
f 55/57/31 57/67/32 56/58/31
f 56/58/31 57/67/32 59/68/32
f 47/49/27 64/66/36 48/50/27
f 48/50/27 64/66/36 63/65/36
f 51/53/28 33/35/19 49/51/28
f 49/51/28 33/35/19 35/37/19
s off
