# This file uses centimeters as units for non-parametric coordinates.

mtllib Road.mtl
v 98.255883 -2.584420 38.142032
v 115.463517 -2.584420 38.142033
v 98.255883 -2.584420 20.934397
v 115.463517 -2.584420 20.934398
vt 0.000000 0.000000
vt 1.000000 0.000000
vt 0.000000 1.000000
vt 1.000000 1.000000
vn 0.000000 1.000000 0.000000
vn 0.000000 1.000000 0.000000
vn 0.000000 1.000000 0.000000
vn 0.000000 1.000000 0.000000
s off
g pPlane39 Road
usemtl initialShadingGroup
f 1/1/1 2/2/2 4/4/3 3/3/4
v 98.255883 -2.584420 55.349668
v 115.463517 -2.584420 55.349669
v 98.255883 -2.584420 38.142033
v 115.463517 -2.584420 38.142034
vt 0.000000 0.000000
vt 1.000000 0.000000
vt 0.000000 1.000000
vt 1.000000 1.000000
vn 0.000000 1.000000 0.000000
vn 0.000000 1.000000 0.000000
vn 0.000000 1.000000 0.000000
vn 0.000000 1.000000 0.000000
s off
g Road pPlane37
f 5/5/5 6/6/6 8/8/7 7/7/8
v 98.255883 -2.584420 72.557306
v 115.463517 -2.584420 72.557307
v 98.255883 -2.584420 55.349671
v 115.463517 -2.584420 55.349672
vt 0.000000 0.000000
vt 1.000000 0.000000
vt 0.000000 1.000000
vt 1.000000 1.000000
vn 0.000000 1.000000 0.000000
vn 0.000000 1.000000 0.000000
vn 0.000000 1.000000 0.000000
vn 0.000000 1.000000 0.000000
s off
g Road pPlane38
f 9/9/9 10/10/10 12/12/11 11/11/12
v 81.048249 -2.584420 72.557306
v 98.255883 -2.584420 72.557307
v 81.048249 -2.584420 55.349671
v 98.255883 -2.584420 55.349672
vt 0.000000 0.000000
vt 1.000000 0.000000
vt 0.000000 1.000000
vt 1.000000 1.000000
vn 0.000000 1.000000 0.000000
vn 0.000000 1.000000 0.000000
vn 0.000000 1.000000 0.000000
vn 0.000000 1.000000 0.000000
s off
g Road pPlane34
f 13/13/13 14/14/14 16/16/15 15/15/16
v 81.048249 -2.584420 38.142032
v 98.255883 -2.584420 38.142033
v 81.048249 -2.584420 20.934397
v 98.255883 -2.584420 20.934398
vt 0.000000 0.000000
vt 1.000000 0.000000
vt 0.000000 1.000000
vt 1.000000 1.000000
vn 0.000000 1.000000 0.000000
vn 0.000000 1.000000 0.000000
vn 0.000000 1.000000 0.000000
vn 0.000000 1.000000 0.000000
s off
g Road pPlane35
f 17/17/17 18/18/18 20/20/19 19/19/20
v 81.048249 -2.584420 55.349668
v 98.255883 -2.584420 55.349669
v 81.048249 -2.584420 38.142033
v 98.255883 -2.584420 38.142034
vt 0.000000 0.000000
vt 1.000000 0.000000
vt 0.000000 1.000000
vt 1.000000 1.000000
vn 0.000000 1.000000 0.000000
vn 0.000000 1.000000 0.000000
vn 0.000000 1.000000 0.000000
vn 0.000000 1.000000 0.000000
s off
g Road pPlane33
f 21/21/21 22/22/22 24/24/23 23/23/24
v 63.840615 -2.584420 38.142032
v 81.048249 -2.584420 38.142033
v 63.840615 -2.584420 20.934397
v 81.048249 -2.584420 20.934398
vt 0.000000 0.000000
vt 1.000000 0.000000
vt 0.000000 1.000000
vt 1.000000 1.000000
vn 0.000000 1.000000 0.000000
vn 0.000000 1.000000 0.000000
vn 0.000000 1.000000 0.000000
vn 0.000000 1.000000 0.000000
s off
g Road pPlane31
f 25/25/25 26/26/26 28/28/27 27/27/28
v 12.217703 -2.584420 38.142032
v 29.425337 -2.584420 38.142033
v 12.217703 -2.584420 20.934397
v 29.425337 -2.584420 20.934398
vt 0.000000 0.000000
vt 1.000000 0.000000
vt 0.000000 1.000000
vt 1.000000 1.000000
vn 0.000000 1.000000 0.000000
vn 0.000000 1.000000 0.000000
vn 0.000000 1.000000 0.000000
vn 0.000000 1.000000 0.000000
s off
g Road pPlane19
f 29/29/29 30/30/30 32/32/31 31/31/32
v -22.197566 -2.584420 89.764948
v -4.989933 -2.584420 89.764948
v -22.197566 -2.584420 72.557312
v -4.989933 -2.584420 72.557314
vt 0.000000 0.000000
vt 1.000000 0.000000
vt 0.000000 1.000000
vt 1.000000 1.000000
vn 0.000000 1.000000 0.000000
vn 0.000000 1.000000 0.000000
vn 0.000000 1.000000 0.000000
vn 0.000000 1.000000 0.000000
s off
g Road pPlane8
f 33/33/33 34/34/34 36/36/35 35/35/36
v -39.405200 -2.584420 55.349668
v -22.197567 -2.584420 55.349669
v -39.405200 -2.584420 38.142033
v -22.197567 -2.584420 38.142034
vt 0.000000 0.000000
vt 1.000000 0.000000
vt 0.000000 1.000000
vt 1.000000 1.000000
vn 0.000000 1.000000 0.000000
vn 0.000000 1.000000 0.000000
vn 0.000000 1.000000 0.000000
vn 0.000000 1.000000 0.000000
s off
g Road pPlane9
f 37/37/37 38/38/38 40/40/39 39/39/40
v 12.217703 -2.584420 89.764948
v 29.425337 -2.584420 89.764948
v 12.217703 -2.584420 72.557312
v 29.425337 -2.584420 72.557314
vt 0.000000 0.000000
vt 1.000000 0.000000
vt 0.000000 1.000000
vt 1.000000 1.000000
vn 0.000000 1.000000 0.000000
vn 0.000000 1.000000 0.000000
vn 0.000000 1.000000 0.000000
vn 0.000000 1.000000 0.000000
s off
g Road pPlane20
f 41/41/41 42/42/42 44/44/43 43/43/44
v -56.612838 -2.584420 55.349668
v -39.405205 -2.584420 55.349669
v -56.612838 -2.584420 38.142033
v -39.405205 -2.584420 38.142034
vt 0.000000 0.000000
vt 1.000000 0.000000
vt 0.000000 1.000000
vt 1.000000 1.000000
vn 0.000000 1.000000 0.000000
vn 0.000000 1.000000 0.000000
vn 0.000000 1.000000 0.000000
vn 0.000000 1.000000 0.000000
s off
g Road pPlane13
f 45/45/45 46/46/46 48/48/47 47/47/48
v -56.612838 -2.584420 72.557306
v -39.405205 -2.584420 72.557307
v -56.612838 -2.584420 55.349671
v -39.405205 -2.584420 55.349672
vt 0.000000 0.000000
vt 1.000000 0.000000
vt 0.000000 1.000000
vt 1.000000 1.000000
vn 0.000000 1.000000 0.000000
vn 0.000000 1.000000 0.000000
vn 0.000000 1.000000 0.000000
vn 0.000000 1.000000 0.000000
s off
g Road pPlane14
f 49/49/49 50/50/50 52/52/51 51/51/52
v 29.425339 -2.584420 72.557306
v 46.632973 -2.584420 72.557307
v 29.425339 -2.584420 55.349671
v 46.632973 -2.584420 55.349672
vt 0.000000 0.000000
vt 1.000000 0.000000
vt 0.000000 1.000000
vt 1.000000 1.000000
vn 0.000000 1.000000 0.000000
vn 0.000000 1.000000 0.000000
vn 0.000000 1.000000 0.000000
vn 0.000000 1.000000 0.000000
s off
g Road pPlane22
f 53/53/53 54/54/54 56/56/55 55/55/56
v 12.217703 -2.584420 72.557306
v 29.425337 -2.584420 72.557307
v 12.217703 -2.584420 55.349671
v 29.425337 -2.584420 55.349672
vt 0.000000 0.000000
vt 1.000000 0.000000
vt 0.000000 1.000000
vt 1.000000 1.000000
vn 0.000000 1.000000 0.000000
vn 0.000000 1.000000 0.000000
vn 0.000000 1.000000 0.000000
vn 0.000000 1.000000 0.000000
s off
g Road pPlane18
f 57/57/57 58/58/58 60/60/59 59/59/60
v -22.197566 -2.584420 72.557306
v -4.989933 -2.584420 72.557307
v -22.197566 -2.584420 55.349671
v -4.989933 -2.584420 55.349672
vt 0.000000 0.000000
vt 1.000000 0.000000
vt 0.000000 1.000000
vt 1.000000 1.000000
vn 0.000000 1.000000 0.000000
vn 0.000000 1.000000 0.000000
vn 0.000000 1.000000 0.000000
vn 0.000000 1.000000 0.000000
s off
g Road pPlane6
f 61/61/61 62/62/62 64/64/63 63/63/64
v -22.197566 -2.584420 55.349668
v -4.989933 -2.584420 55.349669
v -22.197566 -2.584420 38.142033
v -4.989933 -2.584420 38.142034
vt 0.000000 0.000000
vt 1.000000 0.000000
vt 0.000000 1.000000
vt 1.000000 1.000000
vn 0.000000 1.000000 0.000000
vn 0.000000 1.000000 0.000000
vn 0.000000 1.000000 0.000000
vn 0.000000 1.000000 0.000000
s off
g Road pPlane5
f 65/65/65 66/66/66 68/68/67 67/67/68
v 63.840615 -2.584420 72.557306
v 81.048249 -2.584420 72.557307
v 63.840615 -2.584420 55.349671
v 81.048249 -2.584420 55.349672
vt 0.000000 0.000000
vt 1.000000 0.000000
vt 0.000000 1.000000
vt 1.000000 1.000000
vn 0.000000 1.000000 0.000000
vn 0.000000 1.000000 0.000000
vn 0.000000 1.000000 0.000000
vn 0.000000 1.000000 0.000000
s off
g Road pPlane30
f 69/69/69 70/70/70 72/72/71 71/71/72
v -39.405200 -2.584420 72.557306
v -22.197567 -2.584420 72.557307
v -39.405200 -2.584420 55.349671
v -22.197567 -2.584420 55.349672
vt 0.000000 0.000000
vt 1.000000 0.000000
vt 0.000000 1.000000
vt 1.000000 1.000000
vn 0.000000 1.000000 0.000000
vn 0.000000 1.000000 0.000000
vn 0.000000 1.000000 0.000000
vn 0.000000 1.000000 0.000000
s off
g Road pPlane10
f 73/73/73 74/74/74 76/76/75 75/75/76
v -39.405200 -2.584420 89.764948
v -22.197567 -2.584420 89.764948
v -39.405200 -2.584420 72.557312
v -22.197567 -2.584420 72.557314
vt 0.000000 0.000000
vt 1.000000 0.000000
vt 0.000000 1.000000
vt 1.000000 1.000000
vn 0.000000 1.000000 0.000000
vn 0.000000 1.000000 0.000000
vn 0.000000 1.000000 0.000000
vn 0.000000 1.000000 0.000000
s off
g Road pPlane12
f 77/77/77 78/78/78 80/80/79 79/79/80
v -56.612838 -2.584420 89.764948
v -39.405205 -2.584420 89.764948
v -56.612838 -2.584420 72.557312
v -39.405205 -2.584420 72.557314
vt 0.000000 0.000000
vt 1.000000 0.000000
vt 0.000000 1.000000
vt 1.000000 1.000000
vn 0.000000 1.000000 0.000000
vn 0.000000 1.000000 0.000000
vn 0.000000 1.000000 0.000000
vn 0.000000 1.000000 0.000000
s off
g Road pPlane16
f 81/81/81 82/82/82 84/84/83 83/83/84
v 63.840615 -2.584420 89.764948
v 81.048249 -2.584420 89.764948
v 63.840615 -2.584420 72.557312
v 81.048249 -2.584420 72.557314
vt 0.000000 0.000000
vt 1.000000 0.000000
vt 0.000000 1.000000
vt 1.000000 1.000000
vn 0.000000 1.000000 0.000000
vn 0.000000 1.000000 0.000000
vn 0.000000 1.000000 0.000000
vn 0.000000 1.000000 0.000000
s off
g Road pPlane32
f 85/85/85 86/86/86 88/88/87 87/87/88
v 12.217703 -2.584420 55.349668
v 29.425337 -2.584420 55.349669
v 12.217703 -2.584420 38.142033
v 29.425337 -2.584420 38.142034
vt 0.000000 0.000000
vt 1.000000 0.000000
vt 0.000000 1.000000
vt 1.000000 1.000000
vn 0.000000 1.000000 0.000000
vn 0.000000 1.000000 0.000000
vn 0.000000 1.000000 0.000000
vn 0.000000 1.000000 0.000000
s off
g Road pPlane17
f 89/89/89 90/90/90 92/92/91 91/91/92
v 29.425339 -2.584420 89.764948
v 46.632973 -2.584420 89.764948
v 29.425339 -2.584420 72.557312
v 46.632973 -2.584420 72.557314
vt 0.000000 0.000000
vt 1.000000 0.000000
vt 0.000000 1.000000
vt 1.000000 1.000000
vn 0.000000 1.000000 0.000000
vn 0.000000 1.000000 0.000000
vn 0.000000 1.000000 0.000000
vn 0.000000 1.000000 0.000000
s off
g Road pPlane24
f 93/93/93 94/94/94 96/96/95 95/95/96
v 29.425339 -2.584420 38.142032
v 46.632973 -2.584420 38.142033
v 29.425339 -2.584420 20.934397
v 46.632973 -2.584420 20.934398
vt 0.000000 0.000000
vt 1.000000 0.000000
vt 0.000000 1.000000
vt 1.000000 1.000000
vn 0.000000 1.000000 0.000000
vn 0.000000 1.000000 0.000000
vn 0.000000 1.000000 0.000000
vn 0.000000 1.000000 0.000000
s off
g Road pPlane23
f 97/97/97 98/98/98 100/100/99 99/99/100
v -4.989931 -2.584420 55.349668
v 12.217702 -2.584420 55.349669
v -4.989931 -2.584420 38.142033
v 12.217702 -2.584420 38.142034
vt 0.000000 0.000000
vt 1.000000 0.000000
vt 0.000000 1.000000
vt 1.000000 1.000000
vn 0.000000 1.000000 0.000000
vn 0.000000 1.000000 0.000000
vn 0.000000 1.000000 0.000000
vn 0.000000 1.000000 0.000000
s off
g Road pPlane2
f 101/101/101 102/102/102 104/104/103 103/103/104
v -4.989931 -2.584420 72.557306
v 12.217702 -2.584420 72.557307
v -4.989931 -2.584420 55.349671
v 12.217702 -2.584420 55.349672
vt 0.000000 0.000000
vt 1.000000 0.000000
vt 0.000000 1.000000
vt 1.000000 1.000000
vn 0.000000 1.000000 0.000000
vn 0.000000 1.000000 0.000000
vn 0.000000 1.000000 0.000000
vn 0.000000 1.000000 0.000000
s off
g Road pPlane4
f 105/105/105 106/106/106 108/108/107 107/107/108
v 46.632977 -2.584420 38.142032
v 63.840611 -2.584420 38.142033
v 46.632977 -2.584420 20.934397
v 63.840611 -2.584420 20.934398
vt 0.000000 0.000000
vt 1.000000 0.000000
vt 0.000000 1.000000
vt 1.000000 1.000000
vn 0.000000 1.000000 0.000000
vn 0.000000 1.000000 0.000000
vn 0.000000 1.000000 0.000000
vn 0.000000 1.000000 0.000000
s off
g Road pPlane27
f 109/109/109 110/110/110 112/112/111 111/111/112
v -4.989931 -2.584420 89.764948
v 12.217702 -2.584420 89.764948
v -4.989931 -2.584420 72.557312
v 12.217702 -2.584420 72.557314
vt 0.000000 0.000000
vt 1.000000 0.000000
vt 0.000000 1.000000
vt 1.000000 1.000000
vn 0.000000 1.000000 0.000000
vn 0.000000 1.000000 0.000000
vn 0.000000 1.000000 0.000000
vn 0.000000 1.000000 0.000000
s off
g Road pPlane3
f 113/113/113 114/114/114 116/116/115 115/115/116
v 29.425339 -2.584420 55.349668
v 46.632973 -2.584420 55.349669
v 29.425339 -2.584420 38.142033
v 46.632973 -2.584420 38.142034
vt 0.000000 0.000000
vt 1.000000 0.000000
vt 0.000000 1.000000
vt 1.000000 1.000000
vn 0.000000 1.000000 0.000000
vn 0.000000 1.000000 0.000000
vn 0.000000 1.000000 0.000000
vn 0.000000 1.000000 0.000000
s off
g Road pPlane21
f 117/117/117 118/118/118 120/120/119 119/119/120
v 46.632977 -2.584420 55.349668
v 63.840611 -2.584420 55.349669
v 46.632977 -2.584420 38.142033
v 63.840611 -2.584420 38.142034
vt 0.000000 0.000000
vt 1.000000 0.000000
vt 0.000000 1.000000
vt 1.000000 1.000000
vn 0.000000 1.000000 0.000000
vn 0.000000 1.000000 0.000000
vn 0.000000 1.000000 0.000000
vn 0.000000 1.000000 0.000000
s off
g Road pPlane25
f 121/121/121 122/122/122 124/124/123 123/123/124
v 46.632977 -2.584420 89.764948
v 63.840611 -2.584420 89.764948
v 46.632977 -2.584420 72.557312
v 63.840611 -2.584420 72.557314
vt 0.000000 0.000000
vt 1.000000 0.000000
vt 0.000000 1.000000
vt 1.000000 1.000000
vn 0.000000 1.000000 0.000000
vn 0.000000 1.000000 0.000000
vn 0.000000 1.000000 0.000000
vn 0.000000 1.000000 0.000000
s off
g Road pPlane28
f 125/125/125 126/126/126 128/128/127 127/127/128
v 46.632977 -2.584420 72.557306
v 63.840611 -2.584420 72.557307
v 46.632977 -2.584420 55.349671
v 63.840611 -2.584420 55.349672
vt 0.000000 0.000000
vt 1.000000 0.000000
vt 0.000000 1.000000
vt 1.000000 1.000000
vn 0.000000 1.000000 0.000000
vn 0.000000 1.000000 0.000000
vn 0.000000 1.000000 0.000000
vn 0.000000 1.000000 0.000000
s off
g Road pPlane26
f 129/129/129 130/130/130 132/132/131 131/131/132
v 63.840615 -2.584420 55.349668
v 81.048249 -2.584420 55.349669
v 63.840615 -2.584420 38.142033
v 81.048249 -2.584420 38.142034
vt 0.000000 0.000000
vt 1.000000 0.000000
vt 0.000000 1.000000
vt 1.000000 1.000000
vn 0.000000 1.000000 0.000000
vn 0.000000 1.000000 0.000000
vn 0.000000 1.000000 0.000000
vn 0.000000 1.000000 0.000000
s off
g Road pPlane29
f 133/133/133 134/134/134 136/136/135 135/135/136
v -4.989931 -2.584420 38.142032
v 12.217702 -2.584420 38.142033
v -4.989931 -2.584420 20.934397
v 12.217702 -2.584420 20.934398
vt 0.000000 0.000000
vt 1.000000 0.000000
vt 0.000000 1.000000
vt 1.000000 1.000000
vn 0.000000 1.000000 0.000000
vn 0.000000 1.000000 0.000000
vn 0.000000 1.000000 0.000000
vn 0.000000 1.000000 0.000000
s off
g Road pPlane1
f 137/137/137 138/138/138 140/140/139 139/139/140
v -22.197566 -2.584420 38.142032
v -4.989933 -2.584420 38.142033
v -22.197566 -2.584420 20.934397
v -4.989933 -2.584420 20.934398
vt 0.000000 0.000000
vt 1.000000 0.000000
vt 0.000000 1.000000
vt 1.000000 1.000000
vn 0.000000 1.000000 0.000000
vn 0.000000 1.000000 0.000000
vn 0.000000 1.000000 0.000000
vn 0.000000 1.000000 0.000000
s off
g Road pPlane7
f 141/141/141 142/142/142 144/144/143 143/143/144
v -39.405200 -2.584420 38.142032
v -22.197567 -2.584420 38.142033
v -39.405200 -2.584420 20.934397
v -22.197567 -2.584420 20.934398
vt 0.000000 0.000000
vt 1.000000 0.000000
vt 0.000000 1.000000
vt 1.000000 1.000000
vn 0.000000 1.000000 0.000000
vn 0.000000 1.000000 0.000000
vn 0.000000 1.000000 0.000000
vn 0.000000 1.000000 0.000000
s off
g Road pPlane11
f 145/145/145 146/146/146 148/148/147 147/147/148
v -56.612838 -2.584420 38.142032
v -39.405205 -2.584420 38.142033
v -56.612838 -2.584420 20.934397
v -39.405205 -2.584420 20.934398
vt 0.000000 0.000000
vt 1.000000 0.000000
vt 0.000000 1.000000
vt 1.000000 1.000000
vn 0.000000 1.000000 0.000000
vn 0.000000 1.000000 0.000000
vn 0.000000 1.000000 0.000000
vn 0.000000 1.000000 0.000000
s off
g Road pPlane15
f 149/149/149 150/150/150 152/152/151 151/151/152
v 81.048249 -2.584420 89.764948
v 98.255883 -2.584420 89.764948
v 81.048249 -2.584420 72.557312
v 98.255883 -2.584420 72.557314
vt 0.000000 0.000000
vt 1.000000 0.000000
vt 0.000000 1.000000
vt 1.000000 1.000000
vn 0.000000 1.000000 0.000000
vn 0.000000 1.000000 0.000000
vn 0.000000 1.000000 0.000000
vn 0.000000 1.000000 0.000000
s off
g Road pPlane36
f 153/153/153 154/154/154 156/156/155 155/155/156
v 98.255883 -2.584420 89.764948
v 115.463517 -2.584420 89.764948
v 98.255883 -2.584420 72.557312
v 115.463517 -2.584420 72.557314
vt 0.000000 0.000000
vt 1.000000 0.000000
vt 0.000000 1.000000
vt 1.000000 1.000000
vn 0.000000 1.000000 0.000000
vn 0.000000 1.000000 0.000000
vn 0.000000 1.000000 0.000000
vn 0.000000 1.000000 0.000000
s off
g Road pPlane40
f 157/157/157 158/158/158 160/160/159 159/159/160
