# Apple ModelIO OBJ File: IchigoAme_Jug
mtllib IchigoAme_Jug.mtl
g IchigoAme_Jug_IchigoAme_JugSG
v -0.440439 0.347361 0.280102
v -0.311934 0.347361 0.36597
v -0.436028 0.428719 0.275692
v -0.309546 0.428719 0.360205
v -0.526322 0.347361 0.103177
v -0.520557 0.428719 0.096513
v -0.556466 0.273046 0
v -0.550225 0.34784 0
v -0.526322 0.347361 -0.103177
v -0.520557 0.428719 -0.096513
v -0.440439 0.347361 -0.280102
v -0.436028 0.428719 -0.27569
v -0.311934 0.347361 -0.36597
v -0.309546 0.428719 -0.360205
v -0.160345 0.347361 -0.396122
v -0.160345 0.428719 -0.389884
v -0.008758 0.347361 -0.36597
v -0.011146 0.428719 -0.360205
v 0.11975 0.347361 -0.280102
v 0.115338 0.428719 -0.27569
v 0.205632 0.347361 -0.151589
v 0.199867 0.428719 -0.149201
v 0.11975 0.347361 0.280102
v 0.205632 0.347361 0.151591
v 0.115338 0.428719 0.275692
v 0.199867 0.428719 0.149203
v -0.008758 0.347361 0.36597
v -0.011146 0.428719 0.360205
v -0.160345 0.347361 0.396124
v -0.160345 0.428719 0.389884
v 0.214495 0.347361 0.10705
v 0.208559 0.428719 0.105467
v 0.208559 0.428719 -0.105467
v 0.214495 0.347361 -0.10705
v -0.329103 -0.237604 0.407416
v -0.160345 -0.237604 0.440984
v -0.472171 -0.237604 0.311822
v -0.56776 -0.237604 0.151099
v -0.601322 -0.264711 0
v -0.56776 -0.237604 -0.151099
v -0.472171 -0.237604 -0.311822
v -0.329103 -0.237604 -0.407416
v -0.160345 -0.237604 -0.440984
v 0.008413 -0.237604 -0.407416
v 0.15148 -0.237604 -0.311822
v 0.247067 -0.237604 -0.168756
v 0.218152 0.322104 0.098327
v 0.257804 -0.214191 0.105802
v 0.223339 0.311635 0.076321
v 0.261418 -0.204509 0.083895
v 0.15148 -0.237604 0.311822
v 0.247067 -0.237604 0.168758
v 0.008413 -0.237604 0.407416
v 0.155805 -0.31737 0.316147
v 0.252726 -0.31737 0.171098
v 0.010756 -0.31737 0.413069
v -0.160345 -0.31737 0.4471
v -0.331446 -0.31737 0.413066
v -0.476497 -0.31737 0.316147
v -0.573416 -0.31737 0.157632
v -0.607452 -0.338041 0
v -0.573416 -0.31737 -0.157632
v -0.476497 -0.31737 -0.316147
v -0.331446 -0.31737 -0.413067
v -0.160345 -0.31737 -0.4471
v 0.010756 -0.31737 -0.413066
v 0.155805 -0.31737 -0.316147
v 0.252726 -0.31737 -0.171098
v 0.257716 -0.237604 -0.115244
v 0.263526 -0.31737 -0.116805
v 0.263526 -0.31737 0.116805
v 0.257716 -0.237604 0.115244
v 0.218152 0.322104 -0.098327
v 0.257804 -0.214191 -0.105802
v 0.263375 0.428719 0
v 0.238571 0.438264 0
v 0.25632 0.428719 0.040438
v 0.228654 0.437898 0.050081
v 0.226996 0.461814 0
v 0.212259 0.461815 0.074114
v 0.251478 0.394563 0.075101
v 0.2245 0.404441 0.083394
v 0.249499 0.381775 0.07529
v 0.226245 0.371648 0.084199
v 0.272261 0.347361 0
v 0.247457 0.33674 0
v 0.263355 0.347361 -0.040798
v 0.2367 0.337081 -0.050957
v 0.238509 0.311683 0
v 0.223339 0.311635 -0.076319
v 0.226245 0.371648 -0.084199
v 0.2245 0.40444 -0.083396
v 0.249499 0.381775 -0.07529
v 0.251478 0.394563 -0.075103
v 0.273659 -0.261877 -0.093176
v 0.275295 -0.293092 -0.09396
v 0.298416 -0.271143 -0.086405
v 0.301228 -0.285419 -0.086464
v 0.30397 -0.236051 0
v 0.289665 -0.228058 0
v 0.297412 -0.236388 0.052699
v 0.277813 -0.228424 0.059867
v 0.278094 -0.204509 0
v 0.273659 -0.261877 0.093178
v 0.275295 -0.293092 0.09396
v 0.298416 -0.271143 0.086407
v 0.301228 -0.285418 0.086464
v 0.272372 -0.353097 -0.086074
v 0.28575 -0.327649 -0.060702
v 0.289493 -0.353048 0
v 0.298443 -0.327991 0
v 0.315668 -0.319825 -0.051979
v 0.322681 -0.319156 0
v 0.261418 -0.204509 -0.083893
v 0.228654 0.437898 -0.050085
v 0.212259 0.461814 -0.074116
v 0.25632 0.428719 -0.04044
v 0.2367 0.337081 0.050959
v 0.263355 0.347361 0.040798
v 0.277813 -0.228424 -0.059865
v 0.297412 -0.236388 -0.052697
v 0.28575 -0.327649 0.060704
v 0.315668 -0.319825 0.051981
v 0.272372 -0.353097 0.086074
v 0.253758 0.418703 0.064705
v 0.225059 0.428137 0.073372
v 0.208644 0.452131 0.096025
v 0.253457 0.35756 0.066013
v 0.230201 0.347201 0.074976
v 0.253457 0.35756 -0.066013
v 0.230201 0.347201 -0.074976
v 0.253758 0.418703 -0.064705
v 0.225059 0.428137 -0.073372
v 0.208644 0.452131 -0.096025
v 0.296545 -0.246756 -0.076395
v 0.274239 -0.238192 -0.083143
v 0.296545 -0.246756 0.076399
v 0.274239 -0.238192 0.083145
v 0.310454 -0.309346 0.076493
v 0.27921 -0.317518 0.084769
v 0.267205 -0.342628 0.108083
v 0.27921 -0.317518 -0.084769
v 0.310454 -0.309347 -0.076493
v 0.267205 -0.342628 -0.108083
v 0.146513 0.470509 -0.129589
v 0.073103 0.470509 -0.239452
v 0.146513 0.258466 -0.129589
v 0.073103 0.258466 -0.239452
v -0.036746 0.470509 -0.312858
v -0.036746 0.258466 -0.312858
v -0.166349 0.470509 -0.338634
v -0.166349 0.258466 -0.338634
v -0.295927 0.470509 -0.312858
v -0.295927 0.258466 -0.312858
v -0.405801 0.470509 -0.239452
v -0.405801 0.258466 -0.239452
v -0.504052 0.470509 -0.073329
v -0.498351 0.258466 -0.073329
v -0.56307 0.470509 0
v -0.520922 0.258466 0
v -0.504052 0.470509 0.073329
v -0.498351 0.258466 0.073329
v -0.405801 0.470509 0.23945
v -0.405801 0.258466 0.23945
v -0.295949 0.470509 0.312858
v -0.295949 0.258466 0.312858
v -0.166349 0.470509 0.338634
v -0.166349 0.258466 0.338634
v -0.036746 0.470509 0.312858
v -0.036746 0.258466 0.312858
v 0.073103 0.470509 0.23945
v 0.073103 0.258466 0.23945
v 0.146513 0.470509 0.129591
v 0.146513 0.258466 0.129591
v 0.159398 0.470509 0.064795
v 0.172287 0.470509 0
v 0.159398 0.258466 0.064795
v 0.172287 0.258466 0
v 0.159398 0.470509 -0.064795
v 0.159398 0.258466 -0.064795
v 0.146619 -0.529449 -0.128977
v 0.176888 -0.520348 -0.141524
v 0.073555 -0.529449 -0.238346
v 0.096727 -0.520352 -0.26152
v 0.198166 -0.495741 -0.150362
v 0.112993 -0.495758 -0.277839
v 0.204149 -0.462961 -0.152869
v 0.117553 -0.462988 -0.282469
v 0.159442 -0.529449 0.064491
v 0.190959 -0.52035 0.070764
v 0.172264 -0.529449 0
v 0.20503 -0.520347 0
v 0.213119 -0.495754 0.075183
v 0.228071 -0.495741 0
v 0.219358 -0.462961 0.076436
v 0.234552 -0.462961 0
v -0.164779 -0.529449 0
v -0.035779 -0.529449 -0.311435
v -0.164779 -0.529449 -0.337126
v -0.293798 -0.529449 -0.311489
v -0.400896 -0.529449 -0.240022
v -0.500292 -0.529449 -0.061404
v -0.519179 -0.529449 0
v -0.500377 -0.529449 0.061446
v -0.400832 -0.529449 0.239972
v -0.293798 -0.529449 0.311466
v -0.164779 -0.529449 0.337099
v -0.035779 -0.529449 0.311416
v 0.073555 -0.529449 0.238332
v 0.146619 -0.529449 0.12898
v 0.159442 -0.529449 -0.064491
v -0.012027 -0.46301 -0.369064
v -0.164907 -0.463034 -0.399475
v -0.317785 -0.463055 -0.369068
v -0.447386 -0.46309 -0.282476
v -0.556569 -0.463078 -0.086505
v -0.583184 -0.463026 0
v -0.556569 -0.463078 0.086505
v -0.447386 -0.46309 0.282474
v -0.317786 -0.463031 0.369066
v -0.164907 -0.463007 0.399472
v -0.012027 -0.462986 0.369063
v 0.117553 -0.46297 0.282465
v 0.204149 -0.462961 0.152871
v 0.219358 -0.462961 -0.076436
v -0.014479 -0.495774 -0.36302
v -0.023257 -0.520357 -0.341707
v -0.164841 -0.49579 -0.392939
v -0.1648 -0.520362 -0.36988
v -0.315203 -0.495805 -0.363034
v -0.30634 -0.520367 -0.341739
v -0.442394 -0.495826 -0.278078
v -0.425205 -0.520374 -0.262381
v -0.550784 -0.49583 -0.083505
v -0.52996 -0.520374 -0.074223
v -0.576471 -0.49577 0
v -0.552802 -0.520358 0
v -0.550786 -0.49583 0.08351
v -0.530022 -0.520374 0.074244
v -0.442376 -0.495825 0.278073
v -0.425164 -0.520374 0.262355
v -0.315224 -0.495793 0.36303
v -0.306363 -0.520363 0.34173
v -0.164841 -0.495777 0.392932
v -0.1648 -0.520359 0.369866
v -0.014479 -0.495762 0.363016
v -0.023257 -0.520354 0.341693
v 0.112993 -0.49575 0.277836
v 0.096705 -0.52035 0.261509
v 0.198166 -0.495741 0.150366
v 0.176888 -0.520348 0.141525
v 0.213119 -0.495754 -0.075183
v 0.190959 -0.52035 -0.070764
v 0.266195 -0.507388 -0.176676
v 0.166134 -0.507386 -0.326452
v 0.016331 -0.507388 -0.426531
v -0.160345 -0.507386 -0.461673
v -0.337016 -0.507387 -0.426531
v -0.486781 -0.507388 -0.326452
v -0.586821 -0.50683 -0.173152
v -0.621564 -0.507186 0
v -0.586821 -0.50683 0.173152
v -0.486781 -0.507389 0.326452
v -0.337016 -0.507387 0.426531
v -0.160345 -0.507386 0.461673
v 0.016331 -0.507387 0.426531
v 0.166134 -0.507386 0.326452
v 0.266195 -0.507388 0.176676
v 0.121899 -0.573502 -0.282237
v 0.208429 -0.573502 -0.152746
v -0.160345 -0.573502 0
v -0.007594 -0.573502 -0.368762
v -0.160345 -0.573502 -0.399144
v -0.313075 -0.573502 -0.368762
v -0.442566 -0.573502 -0.282237
v -0.528088 -0.573502 -0.152328
v -0.55924 -0.573502 0
v -0.528688 -0.573502 0.152573
v -0.442566 -0.573502 0.282239
v -0.313075 -0.573502 0.368762
v -0.160345 -0.573502 0.399142
v -0.007594 -0.573502 0.36876
v 0.121899 -0.573502 0.282237
v 0.208429 -0.573502 0.152746
v 0.238806 -0.573502 0
v 0.223617 -0.573502 0.076372
v 0.223617 -0.573502 -0.076372
v 0.28377 -0.507386 0.088337
v 0.301349 -0.507386 0
v 0.28377 -0.507386 -0.088337
v 0.259976 -0.540038 -0.174101
v 0.277295 -0.540048 -0.087052
v 0.238633 -0.564473 -0.165259
v 0.255071 -0.564476 -0.082629
v 0.161357 -0.540037 -0.321695
v 0.145026 -0.564473 -0.305357
v 0.013751 -0.540037 -0.420314
v 0.004927 -0.564473 -0.398969
v -0.160345 -0.540037 -0.454944
v -0.160345 -0.564473 -0.431841
v -0.334439 -0.540037 -0.420314
v -0.325596 -0.564473 -0.398969
v -0.482024 -0.540038 -0.321695
v -0.465693 -0.564473 -0.305359
v -0.580429 -0.539643 -0.172232
v -0.558681 -0.564351 -0.164519
v -0.615005 -0.539898 0
v -0.591963 -0.564431 0
v -0.580518 -0.539645 0.172266
v -0.558982 -0.56435 0.164643
v -0.482024 -0.540038 0.321695
v -0.465693 -0.564473 0.305357
v -0.334439 -0.540037 0.420314
v -0.325596 -0.564473 0.398969
v -0.160345 -0.540037 0.454944
v -0.160345 -0.564473 0.431839
v 0.013751 -0.540037 0.420314
v 0.004927 -0.564473 0.398968
v 0.161357 -0.540036 0.321695
v 0.145026 -0.564473 0.305357
v 0.259976 -0.540038 0.174101
v 0.238633 -0.564473 0.165258
v 0.277295 -0.540048 0.087052
v 0.255071 -0.564476 0.082629
v 0.294613 -0.540037 0
v 0.271508 -0.564473 0
v 0.190418 0.5622 -0.145286
v 0.178933 0.573502 -0.140532
v 0.204857 0.562198 -0.072644
v 0.192853 0.573502 -0.070554
v 0.099328 0.573502 -0.259664
v 0.108108 0.5622 -0.268451
v -0.019794 0.573502 -0.33927
v -0.015038 0.562199 -0.350749
v -0.160345 0.573502 -0.367222
v -0.160345 0.5622 -0.379648
v -0.300854 0.573502 -0.33927
v -0.30561 0.5622 -0.350749
v -0.428778 0.562199 -0.268451
v -0.420173 0.573502 -0.259552
v -0.558553 0.561134 -0.083263
v -0.552269 0.573502 -0.073253
v -0.6317 0.573502 0
v -0.646416 0.560148 0
v -0.558553 0.561134 0.083259
v -0.552549 0.573502 0.073488
v -0.420173 0.573502 0.259554
v -0.428778 0.562202 0.268451
v -0.300875 0.573502 0.33927
v -0.305631 0.5622 0.35075
v -0.160345 0.573502 0.367223
v -0.160345 0.5622 0.379648
v -0.019794 0.573502 0.33927
v -0.015038 0.5622 0.35075
v 0.099328 0.573502 0.259666
v 0.108108 0.5622 0.268451
v 0.178933 0.573502 0.140534
v 0.190418 0.5622 0.145286
v 0.204857 0.562198 0.072642
v 0.192853 0.573502 0.070554
v 0.20688 0.573502 0
v 0.219311 0.5622 0
v 0.157593 0.573502 -0.134174
v 0.146513 0.56175 -0.129589
v 0.170994 0.573502 -0.066791
v 0.159398 0.561749 -0.064795
v 0.073103 0.56175 -0.239452
v 0.08158 0.573502 -0.247924
v -0.036746 0.56175 -0.312858
v -0.032164 0.573502 -0.323929
v -0.166349 0.56175 -0.338634
v -0.166349 0.573502 -0.350617
v -0.295927 0.56175 -0.312858
v -0.300509 0.573502 -0.323929
v -0.414082 0.573502 -0.248045
v -0.405801 0.56175 -0.239452
v -0.533702 0.573502 -0.080642
v -0.52327 0.562735 -0.073329
v -0.602096 0.563473 0
v -0.621824 0.573502 0
v -0.533832 0.573502 0.080747
v -0.52327 0.562735 0.073329
v -0.405801 0.56175 0.23945
v -0.414082 0.573502 0.248043
v -0.295949 0.56175 0.312858
v -0.30053 0.573502 0.323929
v -0.166349 0.56175 0.338634
v -0.166349 0.573502 0.350617
v -0.036746 0.56175 0.312858
v -0.032164 0.573502 0.323929
v 0.073103 0.56175 0.23945
v 0.08158 0.573502 0.247922
v 0.146513 0.56175 0.129591
v 0.157593 0.573502 0.134176
v 0.170994 0.573502 0.06679
v 0.159398 0.561749 0.064795
v 0.172287 0.56175 0
v 0.184268 0.573502 0
v 0.343285 0.421334 0.031415
v 0.424548 0.402776 0.029298
v 0.347237 0.420312 0
v 0.426519 0.401812 0
v 0.41968 0.393744 0.04917
v 0.339879 0.411603 0.053792
v 0.403761 0.378854 0.057763
v 0.328907 0.394568 0.063453
v 0.396463 0.365836 0.057419
v 0.324038 0.384341 0.062995
v 0.321 0.359784 0.054869
v 0.387507 0.342733 0.049836
v 0.32394 0.348302 0.03306
v 0.385881 0.332023 0.03056
v 0.328768 0.348175 0
v 0.388324 0.331653 0
v 0.32394 0.348302 -0.033058
v 0.385881 0.332023 -0.03056
v 0.387503 0.342732 -0.049836
v 0.320993 0.359783 -0.054869
v 0.396463 0.365836 -0.057417
v 0.324038 0.384341 -0.062995
v 0.328907 0.394568 -0.063453
v 0.403761 0.378854 -0.057761
v 0.339879 0.411603 -0.053794
v 0.419682 0.393741 -0.04917
v 0.343283 0.421334 -0.031415
v 0.424548 0.402776 -0.029296
v 0.328476 -0.271782 -0.084881
v 0.402212 -0.254847 -0.070484
v 0.333948 -0.282841 -0.085031
v 0.410466 -0.264078 -0.070705
v 0.391791 -0.232401 -0.06155
v 0.323571 -0.247626 -0.074513
v 0.321315 -0.237604 -0.05021
v 0.387261 -0.223239 -0.040504
v 0.321378 -0.237604 0
v 0.38733 -0.223744 0
v 0.321315 -0.237604 0.05021
v 0.387261 -0.223239 0.040506
v 0.391791 -0.232401 0.06155
v 0.323571 -0.247626 0.074513
v 0.328476 -0.271782 0.084881
v 0.402212 -0.254847 0.070486
v 0.333948 -0.28284 0.085031
v 0.410466 -0.264076 0.070705
v 0.3498 -0.307164 0.07545
v 0.427701 -0.286327 0.062673
v 0.353133 -0.31737 0.050758
v 0.432726 -0.295367 0.041923
v 0.353154 -0.31737 0
v 0.432717 -0.2954 0
v 0.353133 -0.31737 -0.050758
v 0.432727 -0.295367 -0.041923
v 0.427705 -0.286327 -0.062671
v 0.3498 -0.307166 -0.07545
v 0.446313 -0.190912 0
v 0.446015 -0.190602 -0.033584
v 0.477727 -0.227159 -0.058777
v 0.467191 -0.218406 -0.05871
v 0.503796 -0.253475 0
v 0.503639 -0.253562 -0.034593
v 0.503639 -0.253562 0.034591
v 0.477729 -0.227157 0.058777
v 0.467191 -0.218406 0.058712
v 0.446015 -0.190602 0.033582
v 0.443455 0.299545 -0.029542
v 0.444601 0.299086 0
v 0.462257 0.329135 -0.054257
v 0.471984 0.33789 -0.054287
v 0.497281 0.36428 -0.028612
v 0.498203 0.363607 0
v 0.497281 0.364281 0.028614
v 0.462257 0.329136 0.054259
v 0.471984 0.337889 0.054287
v 0.443455 0.299546 0.029542
v 0.448251 0.308761 -0.047072
v 0.490935 0.356324 -0.046503
v 0.490935 0.356325 0.046503
v 0.448253 0.308761 0.047071
v 0.452172 -0.198713 -0.051253
v 0.496832 -0.24588 -0.051743
v 0.496828 -0.245879 0.051744
v 0.452172 -0.198712 0.051253
v 0.492059 0.253228 -0.028538
v 0.528964 0.196684 -0.027184
v 0.492548 0.252833 0
v 0.529029 0.196651 0
v 0.537707 0.20181 -0.042288
v 0.499099 0.260654 -0.044786
v 0.559032 0.213954 -0.048622
v 0.517245 0.277344 -0.051572
v 0.571885 0.221553 -0.048162
v 0.529061 0.286228 -0.051292
v 0.549866 0.300941 -0.04422
v 0.594018 0.232378 -0.041776
v 0.602805 0.237352 -0.026643
v 0.557559 0.307513 -0.027824
v 0.557972 0.307089 0
v 0.60286 0.237338 0
v 0.557559 0.307513 0.027825
v 0.602805 0.237353 0.026645
v 0.549862 0.30094 0.04422
v 0.594015 0.232374 0.041776
v 0.571885 0.221551 0.048162
v 0.529061 0.286227 0.051294
v 0.517244 0.277345 0.051572
v 0.55903 0.213956 0.048622
v 0.499099 0.260654 0.044786
v 0.537705 0.20181 0.042287
v 0.49206 0.253229 0.028539
v 0.528964 0.196684 0.027184
v 0.494792 -0.143142 -0.029715
v 0.495087 -0.143227 0
v 0.531213 -0.085003 -0.027793
v 0.531409 -0.084962 0
v 0.539916 -0.090101 -0.042292
v 0.502339 -0.149884 -0.045253
v 0.561318 -0.102283 -0.048424
v 0.520991 -0.166104 -0.05181
v 0.533198 -0.173937 -0.051622
v 0.5745 -0.108525 -0.048007
v 0.553995 -0.188964 -0.045228
v 0.596787 -0.119925 -0.04205
v 0.562181 -0.19523 -0.030199
v 0.605963 -0.124668 -0.027941
v 0.562377 -0.195084 0
v 0.606117 -0.124525 0
v 0.562181 -0.19523 0.030199
v 0.605963 -0.124668 0.027939
v 0.596792 -0.119914 0.042052
v 0.553995 -0.188959 0.045228
v 0.574502 -0.108522 0.048007
v 0.5332 -0.173935 0.051622
v 0.561318 -0.102284 0.048426
v 0.520991 -0.166105 0.05181
v 0.502341 -0.149884 0.045255
v 0.539916 -0.0901 0.042294
v 0.494793 -0.143142 0.029715
v 0.531213 -0.085003 0.027792
v 0.562144 0.085566 -0.024756
v 0.551511 0.140304 -0.02534
v 0.572188 0.08669 -0.038133
v 0.561179 0.143113 -0.039221
v 0.5516 0.140299 0
v 0.562252 0.085611 0
v 0.596698 0.089322 -0.043714
v 0.584747 0.149774 -0.045023
v 0.598421 0.153611 -0.044462
v 0.610662 0.090683 -0.043122
v 0.622285 0.159492 -0.038736
v 0.635341 0.092749 -0.037668
v 0.632129 0.162216 -0.024879
v 0.645638 0.09381 -0.024353
v 0.63221 0.162226 0
v 0.645736 0.093861 0
v 0.645638 0.09381 0.024357
v 0.632129 0.162218 0.024879
v 0.635341 0.092747 0.037672
v 0.622285 0.159491 0.038738
v 0.610664 0.090683 0.043122
v 0.598421 0.153607 0.044462
v 0.596698 0.089323 0.043716
v 0.584745 0.149777 0.045025
v 0.561179 0.143111 0.039222
v 0.572191 0.08669 0.038133
v 0.551511 0.140305 0.025338
v 0.562144 0.085567 0.024754
v 0.554356 -0.019909 -0.026592
v 0.55447 -0.019799 0
v 0.562484 0.029719 -0.025254
v 0.562601 0.029812 0
v 0.57257 0.029128 -0.038686
v 0.563906 -0.023138 -0.040565
v 0.59718 0.027667 -0.044275
v 0.587231 -0.030784 -0.04648
v 0.611189 0.02656 -0.043674
v 0.600843 -0.035102 -0.045926
v 0.635949 0.024786 -0.038209
v 0.624333 -0.042887 -0.040296
v 0.634173 -0.045977 -0.026551
v 0.646311 0.02415 -0.024904
v 0.634273 -0.045867 0
v 0.646416 0.024237 0
v 0.634173 -0.045978 0.026552
v 0.646311 0.024149 0.024904
v 0.635949 0.024784 0.038211
v 0.62434 -0.042867 0.040296
v 0.600845 -0.035098 0.045924
v 0.611194 0.026567 0.043674
v 0.587229 -0.030785 0.04648
v 0.597178 0.027664 0.044277
v 0.563906 -0.023137 0.040565
v 0.57257 0.029131 0.038688
v 0.554356 -0.019909 0.02659
v 0.562482 0.029719 0.025254
vn -0.75406 0.083944 0.65142
vn -0.381566 0.076467 0.921173
vn -0.761957 0.029171 0.64697
vn -0.381571 0.076467 0.921171
vn -0.917654 0.086561 0.387838
vn -0.850001 -0.095602 0.518033
vn -0.996312 0.085803 0
vn -0.991994 -0.126288 0
vn -0.917654 0.086561 -0.387838
vn -0.85 -0.09561 -0.518034
vn -0.754059 0.083945 -0.65142
vn -0.761947 0.029183 -0.646981
vn -0.381564 0.076468 -0.921174
vn -0.381582 0.076488 -0.921165
vn 0 0.076466 -0.997072
vn -0 0.076461 -0.997073
vn 0.381563 0.076468 -0.921174
vn 0.381554 0.076438 -0.921181
vn 0.705031 0.076467 -0.705042
vn 0.705029 0.076429 -0.705048
vn 0.88091 0.076121 -0.467122
vn 0.868109 0.075879 -0.490541
vn 0.705029 0.076466 0.705044
vn 0.88091 0.076121 0.467122
vn 0.705027 0.076428 0.70505
vn 0.868109 0.075881 0.490539
vn 0.381565 0.076468 0.921174
vn 0.381553 0.076436 0.921181
vn 0 0.076466 0.997072
vn 0 0.076456 0.997073
vn 0.97582 0.072781 0.206103
vn 0.965363 0.085167 0.246618
vn 0.965362 0.085168 -0.246623
vn 0.975819 0.072781 -0.206109
vn -0.381566 0.076465 0.921174
vn -1e-06 0.076464 0.997072
vn -0.747626 0.08394 0.658794
vn -0.92501 0.08664 0.369931
vn -0.99632 0.085716 0
vn -0.92501 0.08664 -0.369931
vn -0.747626 0.08394 -0.658794
vn -0.381564 0.076467 -0.921174
vn 0 0.076464 -0.997072
vn 0.381563 0.076466 -0.921175
vn 0.705035 0.076467 -0.705038
vn 0.881118 0.076127 -0.46673
vn 0.977551 0.071799 0.198089
vn 0.977084 0.078367 0.197904
vn 0.978251 0.064983 0.196984
vn 0.97681 0.085656 0.196228
vn 0.705033 0.076468 0.70504
vn 0.881118 0.076126 0.46673
vn 0.381565 0.076468 0.921173
vn 0.705027 0.076508 0.705042
vn 0.867834 0.075956 0.491014
vn 0.381553 0.076479 0.921178
vn -5e-06 0.076465 0.997072
vn -0.381572 0.076453 0.921172
vn -0.719328 0.083862 0.68959
vn -0.919804 0.087697 0.382453
vn -0.996359 0.085254 0
vn -0.919804 0.087697 -0.382453
vn -0.71933 0.083863 -0.689588
vn -0.381571 0.076453 -0.921172
vn 3e-06 0.076465 -0.997072
vn 0.381554 0.076479 -0.921177
vn 0.705024 0.076509 -0.705044
vn 0.867834 0.075957 -0.491014
vn 0.975568 0.077207 -0.205686
vn 0.970419 0.0678 -0.23171
vn 0.97042 0.067799 0.231709
vn 0.975569 0.077206 0.205681
vn 0.97755 0.071798 -0.198092
vn 0.977083 0.078367 -0.197907
vn 0.155438 0.987846 -1e-06
vn 0.690903 0.722947 -0
vn 0.191713 0.962838 0.190236
vn 0.750987 0.619433 0.228737
vn 0.989088 0.147328 -1e-06
vn 0.973248 0.11146 0.200913
vn 0.224445 0.222558 0.948732
vn 0.736192 0.144105 0.661253
vn 0.247408 -0.193551 0.949383
vn 0.759662 -0.01142 0.650218
vn 0.132631 -0.991165 0
vn 0.758336 -0.651863 -0
vn 0.19219 -0.954573 -0.227716
vn 0.820641 -0.509716 -0.258337
vn 0.998167 0.060519 -0
vn 0.978251 0.064983 -0.196983
vn 0.759654 -0.011436 -0.650227
vn 0.736189 0.144106 -0.661256
vn 0.247411 -0.193587 -0.949375
vn 0.224453 0.22254 -0.948734
vn 0.741485 0.145133 -0.655085
vn 0.729803 -0.017702 -0.683428
vn 0.203588 0.228133 -0.952107
vn 0.196904 -0.17933 -0.963882
vn 0.241159 0.970486 0
vn 0.76031 0.64956 0
vn 0.275515 0.945081 0.175823
vn 0.797 0.563859 0.216459
vn 0.995609 0.093614 0
vn 0.741474 0.145115 0.655102
vn 0.729794 -0.017719 0.683438
vn 0.203612 0.228088 0.952112
vn 0.196914 -0.179362 0.963875
vn 0.978455 0.051612 -0.199907
vn 0.784441 -0.56948 -0.245652
vn 0.99969 0.024892 -0
vn 0.712877 -0.701289 0
vn 0.189995 -0.968454 -0.161244
vn 0.166103 -0.986109 0
vn 0.97681 0.085656 -0.196227
vn 0.750992 0.619426 -0.228742
vn 0.973247 0.111458 -0.200915
vn 0.191716 0.962837 -0.190237
vn 0.820647 -0.509707 0.258338
vn 0.192189 -0.954571 0.227723
vn 0.797003 0.563853 -0.216462
vn 0.275508 0.945083 -0.175821
vn 0.784441 -0.569477 0.245658
vn 0.190004 -0.968448 0.161266
vn 0.978455 0.051612 0.199908
vn 0.22844 0.682543 0.694227
vn 0.753319 0.410297 0.513973
vn 0.9725 0.093794 0.21318
vn 0.27181 -0.568916 0.776179
vn 0.816259 -0.248629 0.521446
vn 0.271814 -0.568924 -0.776172
vn 0.816262 -0.248641 -0.521435
vn 0.22844 0.68254 -0.694229
vn 0.753306 0.410293 -0.513995
vn 0.972499 0.093792 -0.213187
vn 0.264965 0.652277 -0.71016
vn 0.780827 0.386169 -0.491103
vn 0.264985 0.65226 0.710168
vn 0.780815 0.386178 0.491116
vn 0.201908 -0.653178 0.729789
vn 0.769188 -0.295232 0.566735
vn 0.976308 0.064076 0.206682
vn 0.769189 -0.295242 -0.566728
vn 0.201895 -0.653206 -0.729767
vn 0.976308 0.064076 -0.206682
vn -0.896539 0 0.442964
vn -0.707128 0 0.707086
vn -0.894448 -0.06767 0.442023
vn -0.705417 -0.067515 0.705569
vn -0.382676 0 0.923883
vn -0.381657 -0.067011 0.921872
vn -0 0 1
vn 0.000196 -0.066414 0.997792
vn 0.382676 0 0.923883
vn 0.382012 -0.065816 0.921811
vn 0.753402 0.021442 0.657211
vn 0.761657 -0.063454 0.644866
vn 0.848641 0.068546 0.52451
vn 0.893022 -0.054762 0.446668
vn 0.983457 0.181141 -0
vn 0.999062 -0.043301 0
vn 0.848639 0.068546 -0.524513
vn 0.893021 -0.054762 -0.446671
vn 0.753435 0.021443 -0.657173
vn 0.761679 -0.063451 -0.64484
vn 0.382681 0 -0.92388
vn 0.382019 -0.065812 -0.921808
vn 0 0 -1
vn 0.000196 -0.066411 -0.997792
vn -0.382681 0 -0.92388
vn -0.381661 -0.067011 -0.92187
vn -0.707124 0 -0.70709
vn -0.705416 -0.067515 -0.705571
vn -0.896537 0 -0.442968
vn -0.894447 -0.06767 -0.442025
vn -0.98079 0 -0.195069
vn -1 0 0
vn -0.978617 -0.066528 -0.194635
vn -0.997687 -0.067976 0
vn -0.980789 0 0.195072
vn -0.978617 -0.066528 0.194637
vn -0.051566 0.998345 0.02547
vn -0.494434 0.834202 0.244219
vn -0.040578 0.998353 0.040557
vn -0.389393 0.834818 0.389169
vn -0.806193 0.437541 0.39826
vn -0.635577 0.438579 0.635366
vn -0.894187 -0.072716 0.441749
vn -0.705366 -0.0725 0.705126
vn -0.046983 0.998852 -0.009342
vn -0.523214 0.845826 -0.104044
vn -0.057397 0.998352 -0
vn -0.550665 0.834726 0
vn -0.877999 0.445677 -0.174613
vn -0.898886 0.438183 0
vn -0.978279 -0.071512 -0.194567
vn -0.997327 -0.073074 0
vn 0 1 -0
vn -0.021963 0.998354 0.052972
vn -2.1e-05 0.998356 0.057312
vn 0.021858 0.998351 0.053078
vn 0.045928 0.998215 0.038185
vn 0.051011 0.998387 0.024943
vn 0.063144 0.998004 4.2e-05
vn 0.051052 0.998384 -0.024977
vn 0.045893 0.998217 -0.038179
vn 0.021871 0.99835 -0.053099
vn -2.1e-05 0.998355 -0.05733
vn -0.02197 0.998353 -0.05299
vn -0.040588 0.998352 -0.04057
vn -0.051575 0.998344 -0.025481
vn -0.046984 0.998852 0.009342
vn -0.381875 -0.07187 0.921415
vn -0.00021 -0.071126 0.997467
vn 0.381552 -0.07039 0.921664
vn 0.761582 -0.069246 0.644358
vn 0.899502 -0.067488 0.431674
vn 0.997333 -0.072985 0
vn 0.8995 -0.067483 -0.431677
vn 0.761608 -0.069235 -0.644329
vn 0.381559 -0.070383 -0.921661
vn -0.00021 -0.071121 -0.997468
vn -0.381881 -0.071867 -0.921413
vn -0.70537 -0.0725 -0.705122
vn -0.894189 -0.072715 -0.441746
vn -0.978279 -0.071512 0.194569
vn -0.343958 0.43902 0.830033
vn -0.210761 0.834949 0.508371
vn -0.000175 0.439468 0.898258
vn -0.000164 0.835089 0.550115
vn 0.34325 0.439554 0.830043
vn 0.210051 0.834837 0.508848
vn 0.686025 0.441916 0.577997
vn 0.421231 0.83539 0.35311
vn 0.807108 0.443981 0.389176
vn 0.488106 0.840096 0.236626
vn 0.900129 0.435622 7e-05
vn 0.561364 0.827569 0.000162
vn 0.807147 0.443828 -0.389269
vn 0.488267 0.839959 -0.236778
vn 0.685983 0.441915 -0.578047
vn 0.421147 0.835422 -0.353138
vn 0.343262 0.439599 -0.830014
vn 0.210045 0.834901 -0.508744
vn -0.000178 0.439446 -0.898269
vn -0.000168 0.835081 -0.550127
vn -0.343938 0.439044 -0.830028
vn -0.210769 0.834933 -0.508394
vn -0.635535 0.438637 -0.635369
vn -0.389356 0.83481 -0.389224
vn -0.806142 0.437603 -0.398294
vn -0.494426 0.83419 -0.244273
vn -0.877999 0.445677 0.174616
vn -0.523214 0.845826 0.104046
vn 0.876553 0.028658 -0.480452
vn 0.706665 0.035475 -0.706658
vn 0.382429 0.035463 -0.923304
vn 2e-06 0.035462 -0.999371
vn -0.382448 0.035444 -0.923297
vn -0.716997 0.042963 -0.695751
vn -0.920799 0.045531 -0.387371
vn -0.999187 0.040322 -2e-05
vn -0.92079 0.045733 0.387368
vn -0.71698 0.043069 0.695762
vn -0.382448 0.035448 0.923297
vn -4e-06 0.03546 0.999371
vn 0.38243 0.035456 0.923304
vn 0.706667 0.035472 0.706656
vn 0.876553 0.028658 0.480452
vn 0.034953 -0.998778 -0.034954
vn 0.044414 -0.998772 -0.021946
vn 0 -1 0
vn 0.018916 -0.998777 -0.045672
vn -0 -0.998777 -0.049435
vn -0.018917 -0.998777 -0.045672
vn -0.035376 -0.99876 -0.035037
vn -0.045826 -0.998769 -0.018995
vn -0.049997 -0.998749 -8.2e-05
vn -0.045996 -0.99876 0.019066
vn -0.035256 -0.998764 0.035033
vn -0.018917 -0.998777 0.045672
vn 0 -0.998777 0.049435
vn 0.018916 -0.998777 0.045672
vn 0.034953 -0.998778 0.034955
vn 0.044414 -0.998772 0.021946
vn 0.049423 -0.998778 0
vn 0.04019 -0.99916 0.007994
vn 0.04019 -0.99916 -0.007994
vn 0.980609 0.018876 0.195065
vn 0.999614 0.027786 -0
vn 0.980609 0.018876 -0.195065
vn 0.803414 -0.44379 -0.39696
vn 0.87486 -0.452023 -0.174055
vn 0.490853 -0.8368 -0.242548
vn 0.519203 -0.848387 -0.103284
vn 0.633354 -0.444563 -0.633424
vn 0.386579 -0.837329 -0.386572
vn 0.342754 -0.444522 -0.827599
vn 0.209231 -0.83733 -0.505075
vn -0 -0.444515 -0.895771
vn -0 -0.837341 -0.546681
vn -0.342808 -0.444515 -0.82758
vn -0.209206 -0.83735 -0.505052
vn -0.638437 -0.440137 -0.631409
vn -0.389681 -0.836186 -0.385931
vn -0.830077 -0.438647 -0.344329
vn -0.506692 -0.835954 -0.210821
vn -0.897206 -0.441612 -0.000272
vn -0.548596 -0.836088 -0.000438
vn -0.830912 -0.436807 0.344652
vn -0.508452 -0.834694 0.211573
vn -0.638588 -0.439158 0.631938
vn -0.389996 -0.835612 0.386853
vn -0.342805 -0.444526 0.827576
vn -0.209204 -0.837352 0.50505
vn 1e-06 -0.444529 0.895765
vn 2e-06 -0.837348 0.546671
vn 0.34275 -0.444534 0.827594
vn 0.209228 -0.837336 0.505067
vn 0.633352 -0.444569 0.633422
vn 0.386579 -0.837329 0.386572
vn 0.80341 -0.443796 0.396961
vn 0.490854 -0.836799 0.242546
vn 0.87486 -0.452024 0.174055
vn 0.519203 -0.848387 0.103285
vn 0.895755 -0.444548 -0
vn 0.546598 -0.837395 -0
vn 0.862466 0.157232 -0.481072
vn 0.32641 0.931355 -0.161354
vn 0.963507 0.186929 -0.191603
vn 0.313583 0.947511 -0.062362
vn 0.26008 0.92991 -0.260051
vn 0.69959 0.145438 -0.699587
vn 0.147035 0.923238 -0.354983
vn 0.378633 0.145454 -0.914046
vn 0 0.913894 -0.405954
vn -0 0.145494 -0.989359
vn -0.164963 0.902362 -0.398159
vn -0.378613 0.145546 -0.91404
vn -0.748771 0.074575 -0.658621
vn -0.352433 0.875964 -0.329359
vn -0.815397 -0.07329 -0.574244
vn -0.421009 0.836001 -0.351927
vn -0.556919 0.830567 -0.000753
vn -0.962296 -0.272005 -4.1e-05
vn -0.815323 -0.074568 0.574185
vn -0.422075 0.835065 0.352874
vn -0.353079 0.87534 0.330326
vn -0.748806 0.073831 0.658664
vn -0.164943 0.90238 0.398125
vn -0.378627 0.145514 0.914039
vn -1e-06 0.913898 0.405945
vn -0 0.145484 0.989361
vn 0.147029 0.923246 0.354965
vn 0.378631 0.145451 0.914048
vn 0.260074 0.929912 0.260048
vn 0.699591 0.145439 0.699586
vn 0.326415 0.931352 0.161359
vn 0.862468 0.157231 0.481068
vn 0.963507 0.186928 0.191603
vn 0.313583 0.947511 0.062361
vn 0.354644 0.935001 0
vn 0.98609 0.16621 -0
vn -0.248764 0.960742 0.122843
vn -0.889375 0.126232 0.439405
vn -0.313367 0.947585 0.062313
vn -0.974261 0.11519 0.193769
vn -0.701455 0.126367 0.701421
vn -0.205573 0.956811 0.205555
vn -0.379613 0.126342 0.916478
vn -0.118543 0.950801 0.286224
vn 0 0.126338 0.991987
vn -1e-06 0.942163 0.335155
vn 0.379608 0.126269 0.91649
vn 0.139184 0.931476 0.336126
vn 0.272573 0.925982 0.261269
vn 0.726971 0.175202 0.663941
vn 0.305799 0.918034 0.252391
vn 0.773439 0.245152 0.584545
vn 0.865115 0.501574 6.6e-05
vn 0.212016 0.977266 -5.4e-05
vn 0.304037 0.919023 -0.250913
vn 0.773282 0.245909 -0.584435
vn 0.726916 0.175722 -0.663864
vn 0.27148 0.926575 -0.260302
vn 0.379614 0.126273 -0.916487
vn 0.139174 0.931486 -0.336101
vn 0 0.126337 -0.991987
vn -0 0.942166 -0.335146
vn -0.379619 0.126342 -0.916476
vn -0.11854 0.950806 -0.286212
vn -0.701452 0.126366 -0.701425
vn -0.205565 0.956814 -0.205549
vn -0.889374 0.126233 -0.439409
vn -0.248755 0.960745 -0.122839
vn -0.313369 0.947585 -0.062313
vn -0.974262 0.115188 -0.193766
vn -0.992012 0.126144 0
vn -0.274791 0.961504 0
vn 0.158537 0.972511 0.170552
vn 0.340885 0.920325 0.191834
vn 0.157509 0.987518 -2e-06
vn 0.352378 0.935858 -5e-06
vn 0.265251 0.630894 0.729119
vn 0.164699 0.725777 0.667924
vn 0.127884 0.219264 0.967248
vn 0.131796 0.257958 0.957124
vn -0.01684 -0.200069 0.979637
vn 0.094331 -0.227832 0.969121
vn 0.03499 -0.615288 0.787526
vn -0.167912 -0.555022 0.814712
vn -0.091536 -0.976478 0.195224
vn -0.359548 -0.911087 0.201609
vn -0.13215 -0.99123 0
vn -0.386755 -0.922182 2e-06
vn -0.091552 -0.976483 -0.195191
vn -0.359558 -0.911091 -0.201573
vn -0.167894 -0.555013 -0.814722
vn 0.035012 -0.615296 -0.787518
vn -0.016825 -0.200039 -0.979644
vn 0.094332 -0.227841 -0.969118
vn 0.131805 0.257929 -0.957131
vn 0.127874 0.219218 -0.96726
vn 0.164711 0.72577 -0.667929
vn 0.265264 0.630905 -0.729105
vn 0.158539 0.972509 -0.170561
vn 0.340883 0.920322 -0.191851
vn 0.091602 0.296982 -0.950479
vn 0.068293 0.288392 -0.955074
vn 0.147191 -0.155441 -0.976818
vn 0.203093 -0.099274 -0.974114
vn -0.093344 0.633054 -0.768459
vn 0.015093 0.667568 -0.744396
vn -0.112287 0.980704 -0.160037
vn -0.308086 0.937979 -0.158991
vn -0.139439 0.990231 -2e-06
vn -0.337471 0.941336 -4e-06
vn -0.112286 0.980705 0.160033
vn -0.308086 0.937979 0.158995
vn -0.093355 0.633059 0.768453
vn 0.015105 0.667572 0.744392
vn 0.09161 0.296981 0.950479
vn 0.068282 0.288399 0.955072
vn 0.147192 -0.155463 0.976814
vn 0.203094 -0.099286 0.974113
vn 0.217891 -0.592066 0.775875
vn 0.333767 -0.53505 0.776093
vn 0.213242 -0.964563 0.155387
vn 0.38914 -0.907875 0.15599
vn 0.203335 -0.979109 2e-06
vn 0.378702 -0.925519 4e-06
vn 0.21324 -0.964567 -0.155367
vn 0.389139 -0.90788 -0.155963
vn 0.333772 -0.535052 -0.77609
vn 0.217892 -0.592084 -0.775861
vn -0.590013 0.807394 1e-06
vn -0.561886 0.805732 -0.187296
vn 0.191828 -0.065919 -0.979212
vn -0.015605 0.227392 -0.973678
vn 0.603914 -0.79705 3e-06
vn 0.604701 -0.775279 -0.182428
vn 0.604699 -0.77527 0.182469
vn 0.191834 -0.065922 0.979211
vn -0.015598 0.227391 0.973679
vn -0.561886 0.805735 0.187287
vn -0.576585 -0.788567 -0.213804
vn -0.600467 -0.79965 1.2e-05
vn -0.069651 -0.161799 -0.984363
vn 0.147106 0.146194 -0.978257
vn 0.569233 0.795396 -0.208134
vn 0.584791 0.811184 -8e-06
vn 0.569235 0.795394 0.208133
vn -0.069672 -0.161836 0.984355
vn 0.147127 0.146217 0.978251
vn -0.576579 -0.788565 0.213827
vn -0.298795 -0.462536 -0.834735
vn 0.375574 0.488347 -0.787694
vn 0.375566 0.488326 0.787711
vn -0.298815 -0.462558 0.834715
vn -0.254394 0.51284 -0.819926
vn 0.41451 -0.41073 -0.812085
vn 0.414516 -0.410744 0.812075
vn -0.25441 0.512861 0.819908
vn -0.743917 -0.628764 -0.22637
vn -0.854056 -0.462059 -0.238934
vn -0.769848 -0.638228 2.1e-05
vn -0.883906 -0.467664 1.4e-05
vn -0.425846 -0.26775 -0.864272
vn -0.382284 -0.361053 -0.850588
vn -0.099085 -0.103025 -0.989731
vn -0.092327 -0.126793 -0.987623
vn 0.176441 0.0471 -0.983184
vn 0.16532 0.096863 -0.981472
vn 0.454611 0.351229 -0.818515
vn 0.497876 0.225367 -0.837454
vn 0.866497 0.442317 -0.231385
vn 0.750407 0.623584 -0.219163
vn 0.769113 0.639112 -8e-06
vn 0.888586 0.458711 -8e-06
vn 0.750404 0.62357 0.219215
vn 0.866479 0.442314 0.231455
vn 0.454589 0.3512 0.81854
vn 0.497838 0.22535 0.837481
vn 0.176451 0.047105 0.983182
vn 0.165339 0.096873 0.981468
vn -0.092362 -0.126828 0.987615
vn -0.099109 -0.103032 0.989728
vn -0.382292 -0.361062 0.850581
vn -0.425876 -0.267751 0.864257
vn -0.743918 -0.62876 0.226377
vn -0.854064 -0.462053 0.238919
vn -0.749261 0.626546 -0.214587
vn -0.77567 0.631138 1e-05
vn -0.871595 0.431139 -0.233328
vn -0.899575 0.436766 7e-06
vn -0.4273 0.241254 -0.871328
vn -0.36478 0.369023 -0.854844
vn -0.103671 0.09076 -0.990462
vn -0.074536 0.149238 -0.985988
vn 0.172378 -0.056713 -0.983397
vn 0.16541 -0.043007 -0.985287
vn 0.452459 -0.301428 -0.839299
vn 0.47801 -0.203152 -0.854538
vn 0.767637 -0.605428 -0.210216
vn 0.877421 -0.421086 -0.229824
vn 0.779726 -0.626121 -1e-06
vn 0.899511 -0.436897 -2e-06
vn 0.767627 -0.605423 0.210266
vn 0.877412 -0.421101 0.229832
vn 0.478018 -0.203136 0.854538
vn 0.452471 -0.301437 0.839289
vn 0.165402 -0.043001 0.985288
vn 0.172381 -0.05672 0.983396
vn -0.103627 0.090745 0.990468
vn -0.074514 0.149221 0.985992
vn -0.364804 0.369031 0.85483
vn -0.427339 0.24127 0.871303
vn -0.749263 0.626543 0.214589
vn -0.8716 0.431138 0.233311
vn -0.961524 -0.096466 -0.257229
vn -0.924827 -0.286706 -0.249989
vn -0.459082 -0.050532 -0.886956
vn -0.448002 -0.167163 -0.878266
vn -0.957503 -0.288422 3e-06
vn -0.995081 -0.099068 -8e-06
vn -0.116341 -0.017634 -0.993053
vn -0.107217 -0.070446 -0.991737
vn 0.172598 0.017132 -0.984843
vn 0.162758 0.011351 -0.986601
vn 0.504414 0.126288 -0.854177
vn 0.495904 0.047544 -0.867075
vn 0.930109 0.274384 -0.244153
vn 0.961876 0.098455 -0.255149
vn 0.95763 0.288001 -7e-06
vn 0.994746 0.10237 -2e-06
vn 0.961877 0.098455 0.255144
vn 0.930102 0.274394 0.244169
vn 0.4959 0.047544 0.867077
vn 0.504383 0.126297 0.854194
vn 0.162724 0.011352 0.986606
vn 0.172578 0.017143 0.984847
vn -0.116309 -0.017631 0.993057
vn -0.107209 -0.070442 0.991738
vn -0.448059 -0.167172 0.878235
vn -0.459133 -0.050534 0.886929
vn -0.924825 -0.286714 0.249989
vn -0.961516 -0.096457 0.257261
vn -0.933431 0.262585 -0.244451
vn -0.964437 0.264312 -6e-06
vn -0.963936 0.078404 -0.254322
vn -0.997191 0.074897 -1.7e-05
vn -0.459507 0.054626 -0.886493
vn -0.45309 0.151691 -0.878464
vn -0.115564 0.031131 -0.992812
vn -0.11344 0.063055 -0.991542
vn 0.164383 0.007676 -0.986367
vn 0.16562 -0.015223 -0.986072
vn 0.498306 -0.02434 -0.86666
vn 0.4925 -0.111168 -0.863183
vn 0.93689 -0.251458 -0.24291
vn 0.964821 -0.076463 -0.251545
vn 0.964617 -0.263656 -3e-06
vn 0.99651 -0.083474 -1e-06
vn 0.936891 -0.251482 0.242884
vn 0.964834 -0.076464 0.251493
vn 0.498309 -0.024346 0.866658
vn 0.4925 -0.111135 0.863188
vn 0.1656 -0.015223 0.986076
vn 0.164348 0.007665 0.986373
vn -0.113385 0.06304 0.991549
vn -0.115521 0.031125 0.992817
vn -0.453138 0.151696 0.878438
vn -0.459556 0.054624 0.886467
vn -0.933436 0.262579 0.244436
vn -0.963932 0.078413 0.254336
vt 0.416264 0.555327
vt 0.394065 0.519985
vt 0.43523 0.542743
vt 0.412692 0.508384
vt 0.450054 0.600761
vt 0.469511 0.587766
vt 0.450059 0.637251
vt 0.467144 0.624747
vt 0.217614 0.02555
vt 0.236904 0.023958
vt 0.240085 0.05144
vt 0.261815 0.047604
vt 0.246217 0.102718
vt 0.267318 0.099778
vt 0.252712 0.142504
vt 0.273537 0.138823
vt 0.260544 0.181902
vt 0.28117 0.177448
vt 0.269759 0.220958
vt 0.290199 0.215722
vt 0.280401 0.259709
vt 0.30069 0.253654
vt 0.292479 0.298213
vt 0.312818 0.291354
vt 0.336704 0.411407
vt 0.320637 0.37404
vt 0.356172 0.402631
vt 0.340605 0.365961
vt 0.354244 0.448143
vt 0.373331 0.438486
vt 0.373355 0.484305
vt 0.392138 0.473704
vt 0.316274 0.362909
vt 0.336407 0.354973
vt 0.316798 0.302389
vt 0.296387 0.309445
vt 0.256746 0.600925
vt 0.234165 0.559608
vt 0.280935 0.64175
vt 0.309176 0.685482
vt 0.327494 0.725456
vt 0.076459 0.037609
vt 0.087749 0.077291
vt 0.094257 0.125891
vt 0.10172 0.170365
vt 0.110518 0.214621
vt 0.120691 0.258668
vt 0.132278 0.302513
vt 0.145324 0.346152
vt 0.309107 0.363074
vt 0.17581 0.414565
vt 0.30434 0.358564
vt 0.176127 0.408063
vt 0.19383 0.475541
vt 0.176041 0.432829
vt 0.213197 0.517808
vt 0.174053 0.484185
vt 0.156035 0.440741
vt 0.193636 0.52718
vt 0.214831 0.569719
vt 0.237657 0.611771
vt 0.26209 0.653296
vt 0.289898 0.696878
vt 0.310531 0.73749
vt 0.05714 0.039296
vt 0.067013 0.080832
vt 0.073559 0.129068
vt 0.081114 0.17414
vt 0.090001 0.219013
vt 0.100264 0.263697
vt 0.111932 0.308196
vt 0.12504 0.35255
vt 0.149921 0.35989
vt 0.129676 0.366551
vt 0.150786 0.426807
vt 0.170868 0.419145
vt 0.290858 0.31391
vt 0.156568 0.360213
vt 0.549872 0.243813
vt 0.549915 0.236093
vt 0.561788 0.241922
vt 0.564396 0.233305
vt 0.832705 0.164627
vt 0.839633 0.164575
vt 0.832796 0.17771
vt 0.839823 0.184929
vt 0.846823 0.31802
vt 0.83935 0.32048
vt 0.846291 0.314579
vt 0.839722 0.312047
vt 0.83056 0.193652
vt 0.808214 0.193971
vt 0.823598 0.186506
vt 0.81462 0.186824
vt 0.968997 0.527036
vt 0.968924 0.533489
vt 0.958974 0.529295
vt 0.957072 0.536279
vt 0.806094 0.16464
vt 0.799145 0.164636
vt 0.805685 0.151261
vt 0.798588 0.144132
vt 0.004313 0.468085
vt 0.003941 0.459651
vt 0.010882 0.465553
vt 0.011414 0.462111
vt 0.81477 0.142238
vt 0.808203 0.135244
vt 0.823712 0.142296
vt 0.830526 0.135047
vt 0.603251 0.133096
vt 0.596064 0.140212
vt 0.58101 0.132428
vt 0.587408 0.139739
vt 0.017146 0.639049
vt 0.02399 0.641304
vt 0.017568 0.647128
vt 0.024736 0.645197
vt 0.9688 0.281959
vt 0.968792 0.277901
vt 0.982025 0.28002
vt 0.983397 0.274688
vt 0.605337 0.164787
vt 0.611742 0.164787
vt 0.605284 0.180279
vt 0.612349 0.187339
vt 0.852555 0.141083
vt 0.852976 0.133004
vt 0.859399 0.138827
vt 0.860145 0.134935
vt 0.603251 0.196477
vt 0.581009 0.197146
vt 0.596064 0.189362
vt 0.587408 0.189835
vt 0.571242 0.141418
vt 0.578497 0.148541
vt 0.572094 0.164787
vt 0.579142 0.164787
vt 0.527882 0.557712
vt 0.530248 0.549325
vt 0.544258 0.554584
vt 0.544298 0.547665
vt 0.168137 0.386614
vt 0.160866 0.364981
vt 0.296945 0.339574
vt 0.290182 0.320387
vt 0.832607 0.151133
vt 0.839806 0.143837
vt 0.537986 0.241786
vt 0.535463 0.233217
vt 0.805657 0.178055
vt 0.798551 0.185176
vt 0.979056 0.529448
vt 0.980832 0.536579
vt 0.954119 0.274695
vt 0.955507 0.280069
vt 0.612349 0.142235
vt 0.605284 0.149295
vt 0.56058 0.557912
vt 0.558317 0.549506
vt 0.571242 0.188155
vt 0.578497 0.181032
vt 0.847962 0.324919
vt 0.840163 0.32707
vt 0.569513 0.24183
vt 0.571693 0.23307
vt 0.830091 0.183839
vt 0.837029 0.191042
vt 0.985748 0.531618
vt 0.986902 0.537718
vt 0.847812 0.30784
vt 0.841359 0.305492
vt 0.808084 0.184439
vt 0.801346 0.191341
vt 0.012403 0.472291
vt 0.00595 0.474639
vt 0.952375 0.531359
vt 0.951138 0.53721
vt 0.808189 0.144839
vt 0.801362 0.137948
vt 0.530292 0.24159
vt 0.528247 0.232935
vt 0.012554 0.455212
vt 0.004754 0.453061
vt 0.830055 0.144853
vt 0.837054 0.137671
vt 0.949094 0.279985
vt 0.94815 0.274206
vt 0.023951 0.634291
vt 0.017823 0.63245
vt 0.602576 0.143071
vt 0.609754 0.135935
vt 0.859359 0.14584
vt 0.853232 0.147682
vt 0.988342 0.279918
vt 0.989302 0.274249
vt 0.602576 0.186503
vt 0.609754 0.193639
vt 0.565667 0.550208
vt 0.56771 0.558888
vt 0.862991 0.12817
vt 0.854485 0.126294
vt 0.580869 0.187502
vt 0.574046 0.194413
vt 0.019076 0.653837
vt 0.027582 0.651962
vt 0.522875 0.549938
vt 0.520729 0.558608
vt 0.580869 0.142072
vt 0.574046 0.135161
vt 0.723314 0.775298
vt 0.700478 0.800747
vt 0.681828 0.736321
vt 0.657824 0.763257
vt 0.67823 0.826784
vt 0.634655 0.790794
vt 0.656903 0.853463
vt 0.612344 0.818953
vt 0.636494 0.880854
vt 0.590926 0.847697
vt 0.61679 0.909003
vt 0.570409 0.876986
vt 0.5888 0.950971
vt 0.542558 0.919833
vt 0.576064 0.971925
vt 0.531695 0.937234
vt 0.964644 0.575725
vt 0.943886 0.588748
vt 0.929276 0.53191
vt 0.912096 0.543022
vt 0.902372 0.617281
vt 0.869818 0.57145
vt 0.874536 0.637295
vt 0.840965 0.592336
vt 0.847463 0.657915
vt 0.812699 0.614094
vt 0.821205 0.679315
vt 0.785101 0.636731
vt 0.795779 0.701547
vt 0.758225 0.660249
vt 0.771177 0.724607
vt 0.732073 0.684674
vt 0.75925 0.736452
vt 0.747578 0.748573
vt 0.719337 0.697319
vt 0.706619 0.710036
vt 0.736077 0.760831
vt 0.694232 0.723142
vt 0.507626 0.074116
vt 0.514087 0.067279
vt 0.526921 0.103747
vt 0.535392 0.100407
vt 0.520983 0.060718
vt 0.543923 0.097102
vt 0.528553 0.054305
vt 0.552704 0.093742
vt 0.457254 0.050706
vt 0.458436 0.041264
vt 0.475022 0.053341
vt 0.478379 0.044421
vt 0.45955 0.031586
vt 0.481672 0.035363
vt 0.460588 0.02147
vt 0.485038 0.025738
vt 0.443523 0.13884
vt 0.533398 0.138116
vt 0.526441 0.172124
vt 0.507282 0.200779
vt 0.479518 0.219542
vt 0.426567 0.22674
vt 0.410009 0.22544
vt 0.396916 0.215199
vt 0.362906 0.174148
vt 0.35518 0.141714
vt 0.36045 0.107888
vt 0.378141 0.078396
vt 0.405782 0.057589
vt 0.43963 0.048455
vt 0.490247 0.062682
vt 0.53792 0.603558
vt 0.509978 0.634859
vt 0.483029 0.667012
vt 0.457094 0.699978
vt 0.432225 0.733728
vt 0.408421 0.768208
vt 0.376059 0.819034
vt 0.363362 0.83976
vt 0.808909 0.378658
vt 0.829366 0.365666
vt 0.758741 0.411732
vt 0.724747 0.436038
vt 0.691504 0.461403
vt 0.659047 0.487827
vt 0.62743 0.515264
vt 0.596669 0.543714
vt 0.581756 0.55844
vt 0.566828 0.573161
vt 0.552383 0.588366
vt 0.551417 0.138334
vt 0.560693 0.138472
vt 0.542391 0.138212
vt 0.542921 0.17908
vt 0.551404 0.182682
vt 0.534666 0.175589
vt 0.519815 0.213399
vt 0.526246 0.219936
vt 0.513544 0.207067
vt 0.48579 0.236028
vt 0.488741 0.24448
vt 0.482716 0.227771
vt 0.427667 0.25368
vt 0.427087 0.24451
vt 0.42675 0.235585
vt 0.403666 0.241719
vt 0.400297 0.25035
vt 0.406841 0.233572
vt 0.377923 0.23421
vt 0.384543 0.227875
vt 0.390817 0.221558
vt 0.34717 0.182032
vt 0.339307 0.18625
vt 0.355007 0.178046
vt 0.328392 0.142931
vt 0.337501 0.142498
vt 0.346356 0.142097
vt 0.335166 0.098827
vt 0.34377 0.101902
vt 0.352128 0.104896
vt 0.358057 0.060441
vt 0.364885 0.066539
vt 0.371532 0.072472
vt 0.393665 0.033467
vt 0.397795 0.041644
vt 0.401803 0.049622
vt 0.437801 0.03033
vt 0.436335 0.021022
vt 0.438838 0.039392
vt 0.507808 0.037576
vt 0.501874 0.046476
vt 0.496124 0.054808
vt 0.07653 0.367459
vt 0.063371 0.321548
vt 0.051539 0.27556
vt 0.041087 0.2294
vt 0.032029 0.183087
vt 0.024315 0.136643
vt 0.0179 0.089316
vt 0.01266 0.043344
vt 0.27137 0.764815
vt 0.244045 0.723639
vt 0.216937 0.680595
vt 0.191873 0.637451
vt 0.168468 0.593668
vt 0.146756 0.549384
vt 0.126696 0.504684
vt 0.108119 0.459559
vt 0.697272 0.179919
vt 0.738636 0.184919
vt 0.705196 0.286345
vt 0.656864 0.191233
vt 0.624207 0.21699
vt 0.603905 0.253241
vt 0.599019 0.294481
vt 0.610479 0.334324
vt 0.635892 0.367025
vt 0.672026 0.387326
vt 0.713155 0.392448
vt 0.753116 0.381359
vt 0.785801 0.35584
vt 0.806278 0.319758
vt 0.811432 0.278589
vt 0.80054 0.238471
vt 0.774984 0.205481
vt 0.787827 0.221945
vt 0.756837 0.19513
vt 0.099445 0.436686
vt 0.143523 0.426861
vt 0.138739 0.422155
vt 0.124008 0.371031
vt 0.130624 0.399992
vt 0.091275 0.413645
vt 0.083654 0.390538
vt 0.123212 0.377647
vt 0.067919 0.369856
vt 0.074936 0.393302
vt 0.741402 0.176287
vt 0.761293 0.187197
vt 0.744004 0.167558
vt 0.765795 0.179192
vt 0.054806 0.323866
vt 0.695844 0.161772
vt 0.696554 0.170859
vt 0.04294 0.277636
vt 0.648614 0.174974
vt 0.652755 0.183112
vt 0.032455 0.231218
vt 0.610392 0.205202
vt 0.61731 0.211104
vt 0.023371 0.184651
vt 0.586642 0.247639
vt 0.595283 0.250444
vt 0.015641 0.137954
vt 0.580956 0.2959
vt 0.59 0.295185
vt 0.009255 0.090823
vt 0.6024 0.338561
vt 0.594413 0.342975
vt 0.003941 0.044673
vt 0.629997 0.373894
vt 0.624086 0.380781
vt 0.263322 0.769722
vt 0.23595 0.728332
vt 0.66597 0.404389
vt 0.6691 0.395869
vt 0.208957 0.685415
vt 0.7145 0.410504
vt 0.713828 0.401464
vt 0.183755 0.641973
vt 0.761267 0.397533
vt 0.757186 0.389436
vt 0.160243 0.597875
vt 0.79951 0.367674
vt 0.792645 0.361748
vt 0.138448 0.55328
vt 0.823465 0.325461
vt 0.814861 0.322603
vt 0.118326 0.50829
vt 0.829464 0.277344
vt 0.820439 0.277966
vt 0.09971 0.463052
vt 0.816906 0.23069
vt 0.808663 0.234507
vt 0.090784 0.439877
vt 0.802271 0.210811
vt 0.795015 0.216399
vt 0.08269 0.416577
vt 0.780904 0.198642
vt 0.786874 0.191746
vt 0.345714 0.279847
vt 0.34973 0.278186
vt 0.353086 0.29782
vt 0.357418 0.296098
vt 0.337781 0.242386
vt 0.33366 0.24365
vt 0.32772 0.206093
vt 0.32353 0.207165
vt 0.319081 0.169294
vt 0.314843 0.170204
vt 0.311803 0.132185
vt 0.307532 0.132927
vt 0.301746 0.095387
vt 0.306033 0.094802
vt 0.297237 0.035938
vt 0.301677 0.034588
vt 0.299014 0.006459
vt 0.294611 0.003968
vt 0.527252 0.59769
vt 0.505599 0.570748
vt 0.528853 0.59246
vt 0.509985 0.56855
vt 0.468764 0.518757
vt 0.465058 0.52143
vt 0.446376 0.486713
vt 0.442656 0.489145
vt 0.426304 0.454086
vt 0.422514 0.45628
vt 0.40814 0.420721
vt 0.404269 0.422703
vt 0.391736 0.386672
vt 0.387784 0.388435
vt 0.377218 0.351701
vt 0.373088 0.353085
vt 0.36685 0.33466
vt 0.371251 0.33312
vt 0.363429 0.31495
vt 0.359333 0.316478
vt 0.744912 0.793645
vt 0.74154 0.790906
vt 0.756439 0.780101
vt 0.753216 0.777347
vt 0.718364 0.816416
vt 0.721504 0.819228
vt 0.696251 0.841771
vt 0.6994 0.844421
vt 0.675372 0.8677
vt 0.678616 0.870199
vt 0.655549 0.894515
vt 0.658917 0.896902
vt 0.640017 0.924634
vt 0.636411 0.922388
vt 0.611039 0.968903
vt 0.607544 0.966437
vt 0.594188 0.99065
vt 0.596163 0.996032
vt 0.988994 0.595473
vt 0.962122 0.610721
vt 0.983593 0.593572
vt 0.959592 0.60724
vt 0.916004 0.636695
vt 0.918304 0.640269
vt 0.888383 0.656146
vt 0.890801 0.659486
vt 0.861777 0.676156
vt 0.864285 0.679374
vt 0.836087 0.696967
vt 0.838701 0.700072
vt 0.811271 0.718671
vt 0.813998 0.721691
vt 0.787222 0.741156
vt 0.789867 0.744228
vt 0.778437 0.755232
vt 0.775634 0.752466
vt 0.764695 0.764754
vt 0.767823 0.76754
vt 0.341394 0.350507
vt 0.327947 0.307054
vt 0.323493 0.302515
vt 0.334601 0.32571
vt 0.341792 0.344158
vt 0.354952 0.27521
vt 0.342703 0.239644
vt 0.332173 0.203351
vt 0.323 0.166734
vt 0.315229 0.130016
vt 0.309122 0.093337
vt 0.30457 0.038969
vt 0.300845 0.008188
vt 0.529004 0.589743
vt 0.50902 0.562969
vt 0.472196 0.517619
vt 0.450457 0.485927
vt 0.430971 0.453336
vt 0.413314 0.419818
vt 0.397267 0.385496
vt 0.383126 0.350518
vt 0.369311 0.312754
vt 0.377312 0.331089
vt 0.363325 0.293655
vt 0.558607 0.267096
vt 0.557521 0.290189
vt 0.549717 0.26811
vt 0.549544 0.290657
vt 0.563683 0.289944
vt 0.565614 0.266779
vt 0.892221 0.318062
vt 0.870928 0.322928
vt 0.8877 0.313719
vt 0.867684 0.317916
vt 0.885763 0.310235
vt 0.866401 0.315178
vt 0.865793 0.308303
vt 0.883379 0.303757
vt 0.983474 0.51533
vt 0.977419 0.514241
vt 0.982393 0.498542
vt 0.976853 0.497871
vt 0.96903 0.512989
vt 0.968958 0.497249
vt 0.960697 0.514242
vt 0.961067 0.497955
vt 0.955547 0.498694
vt 0.954726 0.515342
vt 0.04797 0.476374
vt 0.030382 0.471829
vt 0.050354 0.469896
vt 0.030992 0.464953
vt 0.032275 0.462215
vt 0.052291 0.466413
vt 0.035519 0.457203
vt 0.056812 0.462069
vt 0.533835 0.26654
vt 0.540838 0.26696
vt 0.535439 0.289695
vt 0.541583 0.290044
vt 0.03198 0.641543
vt 0.051765 0.636909
vt 0.033412 0.644426
vt 0.053932 0.639388
vt 0.049231 0.630416
vt 0.031001 0.634612
vt 0.949335 0.286471
vt 0.955983 0.286253
vt 0.952392 0.303996
vt 0.958361 0.303722
vt 0.968819 0.286367
vt 0.968952 0.303705
vt 0.981607 0.286141
vt 0.979553 0.303589
vt 0.985556 0.303768
vt 0.98819 0.286256
vt 0.86641 0.14552
vt 0.867389 0.138589
vt 0.88464 0.149716
vt 0.887174 0.143223
vt 0.868821 0.135705
vt 0.889341 0.140744
vt 0.873386 0.129083
vt 0.894294 0.134726
vt 0.564749 0.539648
vt 0.557665 0.539511
vt 0.561227 0.518365
vt 0.555236 0.518146
vt 0.544351 0.539546
vt 0.544516 0.518111
vt 0.531031 0.539323
vt 0.533788 0.517956
vt 0.52778 0.51807
vt 0.523934 0.539362
vt 0.058886 0.645405
vt 0.037977 0.651049
vt 0.969015 0.321479
vt 0.960057 0.321409
vt 0.072194 0.629473
vt 0.069384 0.627108
vt 0.544729 0.497139
vt 0.535996 0.497061
vt 0.553454 0.497262
vt 0.907603 0.150659
vt 0.904793 0.153024
vt 0.977993 0.321411
vt 0.960992 0.480665
vt 0.968846 0.48025
vt 0.068065 0.479707
vt 0.070675 0.477345
vt 0.541738 0.312045
vt 0.549327 0.312426
vt 0.556941 0.31225
vt 0.903474 0.300424
vt 0.906084 0.302786
vt 0.976693 0.480574
vt 0.955711 0.481211
vt 0.064219 0.485438
vt 0.076014 0.472188
vt 0.536213 0.311876
vt 0.562497 0.312225
vt 0.911423 0.307944
vt 0.899629 0.294693
vt 0.981965 0.481054
vt 0.065421 0.621465
vt 0.954758 0.321416
vt 0.530883 0.497104
vt 0.077601 0.634553
vt 0.913009 0.145578
vt 0.558553 0.497422
vt 0.983346 0.32141
vt 0.900829 0.158667
vt 0.960961 0.462503
vt 0.961119 0.443661
vt 0.968798 0.462274
vt 0.968807 0.4436
vt 0.956062 0.443851
vt 0.955793 0.462913
vt 0.088278 0.514105
vt 0.077884 0.49833
vt 0.09415 0.510675
vt 0.082892 0.493635
vt 0.097607 0.508634
vt 0.086069 0.491246
vt 0.09191 0.487174
vt 0.103786 0.505686
vt 0.536507 0.355622
vt 0.536545 0.333768
vt 0.541334 0.355683
vt 0.54165 0.333825
vt 0.548949 0.334136
vt 0.548354 0.355945
vt 0.556278 0.334146
vt 0.555415 0.356163
vt 0.561432 0.334313
vt 0.560284 0.356431
vt 0.939194 0.274445
vt 0.927318 0.292957
vt 0.933016 0.271497
vt 0.921477 0.288885
vt 0.918301 0.286496
vt 0.929558 0.269457
vt 0.913293 0.281801
vt 0.923686 0.266026
vt 0.981773 0.462882
vt 0.976626 0.462483
vt 0.981548 0.443863
vt 0.976494 0.443666
vt 0.960779 0.339739
vt 0.968914 0.339869
vt 0.960976 0.35885
vt 0.968814 0.358951
vt 0.956074 0.358569
vt 0.955815 0.339518
vt 0.088881 0.592449
vt 0.094779 0.595859
vt 0.07883 0.608465
vt 0.083917 0.613044
vt 0.087196 0.615151
vt 0.098327 0.597536
vt 0.093012 0.619234
vt 0.104518 0.600634
vt 0.532821 0.476297
vt 0.533819 0.45551
vt 0.537432 0.47635
vt 0.538251 0.455633
vt 0.544997 0.476393
vt 0.545268 0.455659
vt 0.552551 0.476547
vt 0.552283 0.455816
vt 0.556717 0.455807
vt 0.557165 0.476615
vt 0.939928 0.179501
vt 0.933737 0.182597
vt 0.928421 0.160899
vt 0.922605 0.164981
vt 0.930188 0.184272
vt 0.919326 0.167087
vt 0.914239 0.171666
vt 0.92429 0.187682
vt 0.98203 0.339699
vt 0.981525 0.358642
vt 0.977049 0.339846
vt 0.976647 0.358894
vt 0.961526 0.409805
vt 0.96146 0.42621
vt 0.956669 0.409853
vt 0.95656 0.426232
vt 0.968814 0.426162
vt 0.968811 0.409807
vt 0.097563 0.544991
vt 0.094598 0.529864
vt 0.104317 0.544257
vt 0.101089 0.527964
vt 0.104777 0.526932
vt 0.108081 0.54389
vt 0.111386 0.525347
vt 0.114887 0.543326
vt 0.536114 0.376739
vt 0.540773 0.377042
vt 0.535 0.395704
vt 0.539749 0.395878
vt 0.54745 0.377377
vt 0.5465 0.396298
vt 0.553207 0.396648
vt 0.554153 0.377663
vt 0.557903 0.396857
vt 0.558846 0.3778
vt 0.950296 0.236805
vt 0.946794 0.254784
vt 0.94349 0.236241
vt 0.940186 0.253198
vt 0.939726 0.235875
vt 0.936498 0.252168
vt 0.930007 0.250267
vt 0.932972 0.23514
vt 0.981067 0.426224
vt 0.976168 0.426201
vt 0.980953 0.409852
vt 0.976095 0.409804
vt 0.96114 0.37862
vt 0.968807 0.378693
vt 0.961414 0.393318
vt 0.96881 0.393365
vt 0.956567 0.393348
vt 0.956251 0.378405
vt 0.097664 0.560434
vt 0.104446 0.560872
vt 0.095334 0.574471
vt 0.101763 0.57662
vt 0.108222 0.561168
vt 0.105425 0.577778
vt 0.115053 0.561631
vt 0.111922 0.579876
vt 0.534225 0.43442
vt 0.534398 0.415909
vt 0.538697 0.43453
vt 0.539082 0.415949
vt 0.545554 0.434539
vt 0.545866 0.415875
vt 0.552402 0.434706
vt 0.552605 0.416022
vt 0.557212 0.416227
vt 0.556872 0.434711
vt 0.947332 0.200261
vt 0.950462 0.2185
vt 0.940835 0.202354
vt 0.943632 0.218965
vt 0.937171 0.203511
vt 0.939855 0.219258
vt 0.930743 0.205661
vt 0.933072 0.219699
vt 0.981352 0.378404
vt 0.981054 0.393346
vt 0.976469 0.37862
vt 0.976206 0.393317
usemtl IchigoAme_JugSG
f 1/1/1 2/2/2 3/3/3
f 3/3/3 2/2/2 4/4/4
f 1/1/1 3/3/3 5/5/5
f 5/5/5 3/3/3 6/6/6
f 7/7/7 5/5/5 8/8/8
f 8/8/8 5/5/5 6/6/6
f 7/9/7 8/10/8 9/11/9
f 9/11/9 8/10/8 10/12/10
f 11/13/11 9/11/9 12/14/12
f 12/14/12 9/11/9 10/12/10
f 13/15/13 11/13/11 14/16/14
f 14/16/14 11/13/11 12/14/12
f 15/17/15 13/15/13 16/18/16
f 16/18/16 13/15/13 14/16/14
f 17/19/17 15/17/15 18/20/18
f 18/20/18 15/17/15 16/18/16
f 19/21/19 17/19/17 20/22/20
f 20/22/20 17/19/17 18/20/18
f 21/23/21 19/21/19 22/24/22
f 22/24/22 19/21/19 20/22/20
f 23/25/23 24/26/24 25/27/25
f 25/27/25 24/26/24 26/28/26
f 27/29/27 23/25/23 28/30/28
f 28/30/28 23/25/23 25/27/25
f 29/31/29 27/29/27 30/32/30
f 30/32/30 27/29/27 28/30/28
f 2/2/2 29/31/29 4/4/4
f 4/4/4 29/31/29 30/32/30
f 24/26/24 31/33/31 26/28/26
f 26/28/26 31/33/31 32/34/32
f 33/35/33 34/36/34 22/24/22
f 22/24/22 34/36/34 21/23/21
f 35/37/35 36/38/36 2/2/2
f 2/2/2 36/38/36 29/31/29
f 37/39/37 35/37/35 1/1/1
f 1/1/1 35/37/35 2/2/2
f 37/39/37 1/1/1 38/40/38
f 38/40/38 1/1/1 5/5/5
f 39/41/39 38/40/38 7/7/7
f 7/7/7 38/40/38 5/5/5
f 39/42/39 7/9/7 40/43/40
f 40/43/40 7/9/7 9/11/9
f 41/44/41 40/43/40 11/13/11
f 11/13/11 40/43/40 9/11/9
f 42/45/42 41/44/41 13/15/13
f 13/15/13 41/44/41 11/13/11
f 43/46/43 42/45/42 15/17/15
f 15/17/15 42/45/42 13/15/13
f 44/47/44 43/46/43 17/19/17
f 17/19/17 43/46/43 15/17/15
f 45/48/45 44/47/44 19/21/19
f 19/21/19 44/47/44 17/19/17
f 46/49/46 45/48/45 21/23/21
f 21/23/21 45/48/45 19/21/19
f 47/50/47 48/51/48 49/52/49
f 49/52/49 48/51/48 50/53/50
f 51/54/51 52/55/52 23/25/23
f 23/25/23 52/55/52 24/26/24
f 53/56/53 51/54/51 27/29/27
f 27/29/27 51/54/51 23/25/23
f 36/38/36 53/56/53 29/31/29
f 29/31/29 53/56/53 27/29/27
f 54/57/54 55/58/55 51/54/51
f 51/54/51 55/58/55 52/55/52
f 56/59/56 54/57/54 53/56/53
f 53/56/53 54/57/54 51/54/51
f 57/60/57 56/59/56 36/38/36
f 36/38/36 56/59/56 53/56/53
f 58/61/58 57/60/57 35/37/35
f 35/37/35 57/60/57 36/38/36
f 59/62/59 58/61/58 37/39/37
f 37/39/37 58/61/58 35/37/35
f 59/62/59 37/39/37 60/63/60
f 60/63/60 37/39/37 38/40/38
f 61/64/61 60/63/60 39/41/39
f 39/41/39 60/63/60 38/40/38
f 61/65/61 39/42/39 62/66/62
f 62/66/62 39/42/39 40/43/40
f 63/67/63 62/66/62 41/44/41
f 41/44/41 62/66/62 40/43/40
f 64/68/64 63/67/63 42/45/42
f 42/45/42 63/67/63 41/44/41
f 65/69/65 64/68/64 43/46/43
f 43/46/43 64/68/64 42/45/42
f 66/70/66 65/69/65 44/47/44
f 44/47/44 65/69/65 43/46/43
f 67/71/67 66/70/66 45/48/45
f 45/48/45 66/70/66 44/47/44
f 68/72/68 67/71/67 46/49/46
f 46/49/46 67/71/67 45/48/45
f 69/73/69 70/74/70 46/49/46
f 46/49/46 70/74/70 68/72/68
f 55/58/55 71/75/71 52/55/52
f 52/55/52 71/75/71 72/76/72
f 46/49/46 21/23/21 69/73/69
f 21/23/21 34/36/34 69/73/69
f 34/36/34 73/77/73 69/73/69
f 73/77/73 74/78/74 69/73/69
f 75/79/75 76/80/76 77/81/77
f 77/81/77 76/80/76 78/82/78
f 76/83/76 79/84/79 78/85/78
f 78/85/78 79/84/79 80/86/80
f 81/87/81 82/88/82 83/89/83
f 83/89/83 82/88/82 84/90/84
f 32/91/32 31/92/31 82/93/82
f 82/93/82 31/92/31 84/94/84
f 85/95/85 86/96/86 87/97/87
f 87/97/87 86/96/86 88/98/88
f 86/99/86 89/100/89 88/101/88
f 88/101/88 89/100/89 90/102/90
f 91/103/91 92/104/92 93/105/93
f 93/105/93 92/104/92 94/106/94
f 91/107/91 34/108/34 92/109/92
f 92/109/92 34/108/34 33/110/33
f 69/111/69 95/112/95 70/113/70
f 70/113/70 95/112/95 96/114/96
f 95/115/95 97/116/97 96/117/96
f 96/117/96 97/116/97 98/118/98
f 99/119/99 100/120/100 101/121/101
f 101/121/101 100/120/100 102/122/102
f 100/123/100 103/124/103 102/125/102
f 102/125/102 103/124/103 50/126/50
f 104/127/104 105/128/105 106/129/106
f 106/129/106 105/128/105 107/130/107
f 72/131/72 71/132/71 104/133/104
f 104/133/104 71/132/71 105/134/105
f 108/135/108 109/136/109 110/137/110
f 110/137/110 109/136/109 111/138/111
f 109/139/109 112/140/112 111/141/111
f 111/141/111 112/140/112 113/142/113
f 103/143/103 114/144/114 89/145/89
f 89/145/89 114/144/114 90/146/90
f 49/52/49 50/53/50 89/145/89
f 89/145/89 50/53/50 103/143/103
f 76/83/76 115/147/115 79/84/79
f 79/84/79 115/147/115 116/148/116
f 75/79/75 117/149/117 76/80/76
f 76/80/76 117/149/117 115/150/115
f 86/99/86 118/151/118 89/100/89
f 89/100/89 118/151/118 49/152/49
f 85/95/85 119/153/119 86/96/86
f 86/96/86 119/153/119 118/154/118
f 120/155/120 100/120/100 121/156/121
f 121/156/121 100/120/100 99/119/99
f 114/157/114 103/124/103 120/158/120
f 120/158/120 103/124/103 100/123/100
f 122/159/122 111/141/111 123/160/123
f 123/160/123 111/141/111 113/142/113
f 124/161/124 110/137/110 122/162/122
f 122/162/122 110/137/110 111/138/111
f 81/87/81 125/163/125 82/88/82
f 82/88/82 125/163/125 126/164/126
f 77/81/77 78/82/78 125/165/125
f 125/165/125 78/82/78 126/166/126
f 78/85/78 80/86/80 126/167/126
f 126/167/126 80/86/80 127/168/127
f 127/168/127 32/91/32 126/167/126
f 126/167/126 32/91/32 82/93/82
f 119/153/119 128/169/128 118/154/118
f 118/154/118 128/169/128 129/170/129
f 83/89/83 84/90/84 128/171/128
f 128/171/128 84/90/84 129/172/129
f 84/94/84 31/92/31 129/173/129
f 129/173/129 31/92/31 47/174/47
f 47/174/47 49/152/49 129/173/129
f 129/173/129 49/152/49 118/151/118
f 93/105/93 130/175/130 91/103/91
f 91/103/91 130/175/130 131/176/131
f 87/97/87 88/98/88 130/177/130
f 130/177/130 88/98/88 131/178/131
f 88/101/88 90/102/90 131/179/131
f 131/179/131 90/102/90 73/180/73
f 73/180/73 34/108/34 131/179/131
f 131/179/131 34/108/34 91/107/91
f 117/149/117 132/181/132 115/150/115
f 115/150/115 132/181/132 133/182/133
f 94/106/94 92/104/92 132/183/132
f 132/183/132 92/104/92 133/184/133
f 92/109/92 33/110/33 133/185/133
f 133/185/133 33/110/33 134/186/134
f 134/186/134 116/148/116 133/185/133
f 133/185/133 116/148/116 115/147/115
f 121/156/121 135/187/135 120/155/120
f 120/155/120 135/187/135 136/188/136
f 97/116/97 95/115/95 135/189/135
f 135/189/135 95/115/95 136/190/136
f 95/112/95 69/111/69 136/191/136
f 136/191/136 69/111/69 74/192/74
f 74/192/74 114/157/114 136/191/136
f 136/191/136 114/157/114 120/158/120
f 106/129/106 137/193/137 104/127/104
f 104/127/104 137/193/137 138/194/138
f 101/121/101 102/122/102 137/195/137
f 137/195/137 102/122/102 138/196/138
f 102/125/102 50/126/50 138/197/138
f 138/197/138 50/126/50 48/198/48
f 48/198/48 72/131/72 138/197/138
f 138/197/138 72/131/72 104/133/104
f 123/160/123 139/199/139 122/159/122
f 122/159/122 139/199/139 140/200/140
f 139/201/139 107/130/107 140/202/140
f 140/202/140 107/130/107 105/128/105
f 105/134/105 71/132/71 140/203/140
f 140/203/140 71/132/71 141/204/141
f 141/204/141 124/161/124 140/203/140
f 140/203/140 124/161/124 122/162/122
f 96/117/96 98/118/98 142/205/142
f 142/205/142 98/118/98 143/206/143
f 112/140/112 109/139/109 143/207/143
f 143/207/143 109/139/109 142/208/142
f 109/136/109 108/135/108 142/209/142
f 142/209/142 108/135/108 144/210/144
f 144/210/144 70/113/70 142/209/142
f 142/209/142 70/113/70 96/114/96
f 52/55/52 72/76/72 24/26/24
f 24/26/24 72/76/72 31/33/31
f 31/33/31 72/76/72 47/50/47
f 72/76/72 48/51/48 47/50/47
f 114/144/114 74/78/74 90/146/90
f 90/146/90 74/78/74 73/77/73
f 145/211/145 146/212/146 147/213/147
f 147/213/147 146/212/146 148/214/148
f 146/212/146 149/215/149 148/214/148
f 148/214/148 149/215/149 150/216/150
f 149/215/149 151/217/151 150/216/150
f 150/216/150 151/217/151 152/218/152
f 151/217/151 153/219/153 152/218/152
f 152/218/152 153/219/153 154/220/154
f 153/219/153 155/221/155 154/220/154
f 154/220/154 155/221/155 156/222/156
f 157/223/157 158/224/158 155/221/155
f 155/221/155 158/224/158 156/222/156
f 159/225/159 160/226/160 157/223/157
f 157/223/157 160/226/160 158/224/158
f 159/227/159 161/228/161 160/229/160
f 160/229/160 161/228/161 162/230/162
f 161/228/161 163/231/163 162/230/162
f 162/230/162 163/231/163 164/232/164
f 163/231/163 165/233/165 164/232/164
f 164/232/164 165/233/165 166/234/166
f 165/233/165 167/235/167 166/234/166
f 166/234/166 167/235/167 168/236/168
f 167/235/167 169/237/169 168/236/168
f 168/236/168 169/237/169 170/238/170
f 169/237/169 171/239/171 170/238/170
f 170/238/170 171/239/171 172/240/172
f 171/239/171 173/241/173 172/240/172
f 172/240/172 173/241/173 174/242/174
f 175/243/175 176/244/176 177/245/177
f 177/245/177 176/244/176 178/246/178
f 176/244/176 179/247/179 178/246/178
f 178/246/178 179/247/179 180/248/180
f 173/241/173 175/243/175 174/242/174
f 174/242/174 175/243/175 177/245/177
f 179/247/179 145/211/145 180/248/180
f 180/248/180 145/211/145 147/213/147
f 181/249/181 182/250/182 183/251/183
f 183/251/183 182/250/182 184/252/184
f 182/250/182 185/253/185 184/252/184
f 184/252/184 185/253/185 186/254/186
f 185/253/185 187/255/187 186/254/186
f 186/254/186 187/255/187 188/256/188
f 189/257/189 190/258/190 191/259/191
f 191/259/191 190/258/190 192/260/192
f 190/258/190 193/261/193 192/260/192
f 192/260/192 193/261/193 194/262/194
f 193/261/193 195/263/195 194/262/194
f 194/262/194 195/263/195 196/264/196
f 181/249/181 183/251/183 197/265/197
f 183/251/183 198/266/198 197/265/197
f 198/266/198 199/267/199 197/265/197
f 199/267/199 200/268/200 197/265/197
f 200/268/200 201/269/201 197/265/197
f 201/269/201 202/270/202 197/265/197
f 202/270/202 203/271/203 197/265/197
f 203/271/203 204/272/204 197/265/197
f 204/272/204 205/273/205 197/265/197
f 205/273/205 206/274/206 197/265/197
f 206/274/206 207/275/207 197/265/197
f 207/275/207 208/276/208 197/265/197
f 208/276/208 209/277/209 197/265/197
f 209/277/209 210/278/210 197/265/197
f 197/265/197 189/257/189 191/259/191
f 191/259/191 211/279/211 197/265/197
f 210/278/210 189/257/189 197/265/197
f 197/265/197 211/279/211 181/249/181
f 147/213/147 148/214/148 187/280/187
f 187/280/187 148/214/148 188/281/188
f 150/216/150 212/282/212 148/214/148
f 148/214/148 212/282/212 188/281/188
f 152/218/152 213/283/213 150/216/150
f 150/216/150 213/283/213 212/282/212
f 154/220/154 214/284/214 152/218/152
f 152/218/152 214/284/214 213/283/213
f 156/222/156 215/285/215 154/220/154
f 154/220/154 215/285/215 214/284/214
f 156/222/156 158/224/158 215/285/215
f 215/285/215 158/224/158 216/286/216
f 158/224/158 160/226/160 216/286/216
f 216/286/216 160/226/160 217/287/217
f 162/230/162 218/288/218 160/229/160
f 160/229/160 218/288/218 217/289/217
f 162/230/162 164/232/164 218/288/218
f 218/288/218 164/232/164 219/290/219
f 164/232/164 166/234/166 219/290/219
f 219/290/219 166/234/166 220/291/220
f 166/234/166 168/236/168 220/291/220
f 220/291/220 168/236/168 221/292/221
f 168/236/168 170/238/170 221/292/221
f 221/292/221 170/238/170 222/293/222
f 170/238/170 172/240/172 222/293/222
f 222/293/222 172/240/172 223/294/223
f 172/240/172 174/242/174 223/294/223
f 223/294/223 174/242/174 224/295/224
f 177/245/177 178/246/178 195/296/195
f 195/296/195 178/246/178 196/297/196
f 180/248/180 225/298/225 178/246/178
f 178/246/178 225/298/225 196/297/196
f 177/245/177 195/296/195 174/242/174
f 174/242/174 195/296/195 224/295/224
f 180/248/180 147/213/147 225/298/225
f 225/298/225 147/213/147 187/280/187
f 186/254/186 188/256/188 226/299/226
f 226/299/226 188/256/188 212/300/212
f 183/251/183 184/252/184 198/266/198
f 198/266/198 184/252/184 227/301/227
f 184/252/184 186/254/186 227/301/227
f 227/301/227 186/254/186 226/299/226
f 226/299/226 212/300/212 228/302/228
f 228/302/228 212/300/212 213/303/213
f 198/266/198 227/301/227 199/267/199
f 199/267/199 227/301/227 229/304/229
f 227/301/227 226/299/226 229/304/229
f 229/304/229 226/299/226 228/302/228
f 228/302/228 213/303/213 230/305/230
f 230/305/230 213/303/213 214/306/214
f 199/267/199 229/304/229 200/268/200
f 200/268/200 229/304/229 231/307/231
f 229/304/229 228/302/228 231/307/231
f 231/307/231 228/302/228 230/305/230
f 230/305/230 214/306/214 232/308/232
f 232/308/232 214/306/214 215/309/215
f 200/268/200 231/307/231 201/269/201
f 201/269/201 231/307/231 233/310/233
f 231/307/231 230/305/230 233/310/233
f 233/310/233 230/305/230 232/308/232
f 215/309/215 216/311/216 232/308/232
f 232/308/232 216/311/216 234/312/234
f 233/310/233 235/313/235 201/269/201
f 201/269/201 235/313/235 202/270/202
f 232/308/232 234/312/234 233/310/233
f 233/310/233 234/312/234 235/313/235
f 234/312/234 216/311/216 236/314/236
f 236/314/236 216/311/216 217/315/217
f 202/270/202 235/313/235 203/271/203
f 203/271/203 235/313/235 237/316/237
f 235/313/235 234/312/234 237/316/237
f 237/316/237 234/312/234 236/314/236
f 217/315/217 218/317/218 236/314/236
f 236/314/236 218/317/218 238/318/238
f 237/316/237 239/319/239 203/271/203
f 203/271/203 239/319/239 204/272/204
f 236/314/236 238/318/238 237/316/237
f 237/316/237 238/318/238 239/319/239
f 238/318/238 218/317/218 240/320/240
f 240/320/240 218/317/218 219/321/219
f 204/272/204 239/319/239 205/273/205
f 205/273/205 239/319/239 241/322/241
f 239/319/239 238/318/238 241/322/241
f 241/322/241 238/318/238 240/320/240
f 219/321/219 220/323/220 240/320/240
f 240/320/240 220/323/220 242/324/242
f 241/322/241 243/325/243 205/273/205
f 205/273/205 243/325/243 206/274/206
f 240/320/240 242/324/242 241/322/241
f 241/322/241 242/324/242 243/325/243
f 220/323/220 221/326/221 242/324/242
f 242/324/242 221/326/221 244/327/244
f 206/274/206 243/325/243 207/275/207
f 207/275/207 243/325/243 245/328/245
f 243/325/243 242/324/242 245/328/245
f 245/328/245 242/324/242 244/327/244
f 221/326/221 222/329/222 244/327/244
f 244/327/244 222/329/222 246/330/246
f 207/275/207 245/328/245 208/276/208
f 208/276/208 245/328/245 247/331/247
f 244/327/244 246/330/246 245/328/245
f 245/328/245 246/330/246 247/331/247
f 222/329/222 223/332/223 246/330/246
f 246/330/246 223/332/223 248/333/248
f 208/276/208 247/331/247 209/277/209
f 209/277/209 247/331/247 249/334/249
f 247/331/247 246/330/246 249/334/249
f 249/334/249 246/330/246 248/333/248
f 248/333/248 223/332/223 250/335/250
f 250/335/250 223/332/223 224/336/224
f 209/277/209 249/334/249 210/278/210
f 210/278/210 249/334/249 251/337/251
f 249/334/249 248/333/248 251/337/251
f 251/337/251 248/333/248 250/335/250
f 251/337/251 190/258/190 210/278/210
f 210/278/210 190/258/190 189/257/189
f 250/335/250 193/261/193 251/337/251
f 251/337/251 193/261/193 190/258/190
f 224/336/224 195/263/195 250/335/250
f 250/335/250 195/263/195 193/261/193
f 196/264/196 225/338/225 194/262/194
f 194/262/194 225/338/225 252/339/252
f 192/260/192 253/340/253 191/259/191
f 191/259/191 253/340/253 211/279/211
f 194/262/194 252/339/252 192/260/192
f 192/260/192 252/339/252 253/340/253
f 187/255/187 185/253/185 225/338/225
f 225/338/225 185/253/185 252/339/252
f 185/253/185 182/250/182 252/339/252
f 252/339/252 182/250/182 253/340/253
f 182/250/182 181/249/181 253/340/253
f 253/340/253 181/249/181 211/279/211
f 254/341/254 255/342/255 68/72/68
f 68/72/68 255/342/255 67/71/67
f 255/342/255 256/343/256 67/71/67
f 67/71/67 256/343/256 66/70/66
f 256/343/256 257/344/257 66/70/66
f 66/70/66 257/344/257 65/69/65
f 257/344/257 258/345/258 65/69/65
f 65/69/65 258/345/258 64/68/64
f 258/345/258 259/346/259 64/68/64
f 64/68/64 259/346/259 63/67/63
f 259/346/259 260/347/260 63/67/63
f 63/67/63 260/347/260 62/66/62
f 261/348/261 61/65/61 260/347/260
f 260/347/260 61/65/61 62/66/62
f 261/349/261 262/350/262 61/64/61
f 61/64/61 262/350/262 60/63/60
f 263/351/263 59/62/59 262/350/262
f 262/350/262 59/62/59 60/63/60
f 263/351/263 264/352/264 59/62/59
f 59/62/59 264/352/264 58/61/58
f 264/352/264 265/353/265 58/61/58
f 58/61/58 265/353/265 57/60/57
f 265/353/265 266/354/266 57/60/57
f 57/60/57 266/354/266 56/59/56
f 266/354/266 267/355/267 56/59/56
f 56/59/56 267/355/267 54/57/54
f 267/355/267 268/356/268 54/57/54
f 54/57/54 268/356/268 55/58/55
f 269/357/269 270/358/270 271/359/271
f 272/360/272 269/357/269 271/359/271
f 273/361/273 272/360/272 271/359/271
f 274/362/274 273/361/273 271/359/271
f 275/363/275 274/362/274 271/359/271
f 276/364/276 275/363/275 271/359/271
f 277/365/277 276/364/276 271/359/271
f 278/366/278 277/365/277 271/359/271
f 279/367/279 278/366/278 271/359/271
f 280/368/280 279/367/279 271/359/271
f 281/369/281 280/368/280 271/359/271
f 282/370/282 281/369/281 271/359/271
f 283/371/283 282/370/282 271/359/271
f 284/372/284 283/371/283 271/359/271
f 285/373/285 286/374/286 271/359/271
f 271/359/271 287/375/287 285/373/285
f 268/356/268 288/376/288 141/377/141
f 141/377/141 288/376/288 124/378/124
f 271/359/271 286/374/286 284/372/284
f 270/358/270 287/375/287 271/359/271
f 70/74/70 144/379/144 68/72/68
f 144/379/144 254/341/254 68/72/68
f 124/378/124 288/376/288 110/380/110
f 110/380/110 288/376/288 289/381/289
f 289/381/289 290/382/290 110/380/110
f 110/380/110 290/382/290 108/383/108
f 254/341/254 144/379/144 290/382/290
f 290/382/290 144/379/144 108/383/108
f 71/75/71 55/58/55 141/377/141
f 268/356/268 141/377/141 55/58/55
f 254/341/254 290/382/290 291/384/291
f 291/384/291 290/382/290 292/385/292
f 293/386/293 294/387/294 270/358/270
f 270/358/270 294/387/294 287/375/287
f 291/388/291 292/389/292 293/386/293
f 293/386/293 292/389/292 294/387/294
f 254/341/254 291/384/291 255/342/255
f 255/342/255 291/384/291 295/390/295
f 291/388/291 293/386/293 295/391/295
f 295/391/295 293/386/293 296/392/296
f 293/386/293 270/358/270 296/392/296
f 296/392/296 270/358/270 269/357/269
f 255/342/255 295/390/295 256/343/256
f 256/343/256 295/390/295 297/393/297
f 295/391/295 296/392/296 297/394/297
f 297/394/297 296/392/296 298/395/298
f 296/392/296 269/357/269 298/395/298
f 298/395/298 269/357/269 272/360/272
f 256/343/256 297/393/297 257/344/257
f 257/344/257 297/393/297 299/396/299
f 297/394/297 298/395/298 299/397/299
f 299/397/299 298/395/298 300/398/300
f 298/395/298 272/360/272 300/398/300
f 300/398/300 272/360/272 273/361/273
f 257/344/257 299/396/299 258/345/258
f 258/345/258 299/396/299 301/399/301
f 299/397/299 300/398/300 301/400/301
f 301/400/301 300/398/300 302/401/302
f 300/398/300 273/361/273 302/401/302
f 302/401/302 273/361/273 274/362/274
f 258/345/258 301/399/301 259/346/259
f 259/346/259 301/399/301 303/402/303
f 301/400/301 302/401/302 303/403/303
f 303/403/303 302/401/302 304/404/304
f 302/401/302 274/362/274 304/404/304
f 304/404/304 274/362/274 275/363/275
f 303/402/303 305/405/305 259/346/259
f 259/346/259 305/405/305 260/347/260
f 304/404/304 306/406/306 303/403/303
f 303/403/303 306/406/306 305/407/305
f 275/363/275 276/364/276 304/404/304
f 304/404/304 276/364/276 306/406/306
f 305/405/305 307/408/307 260/347/260
f 260/347/260 307/408/307 261/348/261
f 306/406/306 308/409/308 305/407/305
f 305/407/305 308/409/308 307/410/307
f 276/364/276 277/365/277 306/406/306
f 306/406/306 277/365/277 308/409/308
f 261/349/261 307/411/307 262/350/262
f 262/350/262 307/411/307 309/412/309
f 307/410/307 308/409/308 309/413/309
f 309/413/309 308/409/308 310/414/310
f 308/409/308 277/365/277 310/414/310
f 310/414/310 277/365/277 278/366/278
f 262/350/262 309/412/309 263/351/263
f 263/351/263 309/412/309 311/415/311
f 309/413/309 310/414/310 311/416/311
f 311/416/311 310/414/310 312/417/312
f 310/414/310 278/366/278 312/417/312
f 312/417/312 278/366/278 279/367/279
f 263/351/263 311/415/311 264/352/264
f 264/352/264 311/415/311 313/418/313
f 311/416/311 312/417/312 313/419/313
f 313/419/313 312/417/312 314/420/314
f 312/417/312 279/367/279 314/420/314
f 314/420/314 279/367/279 280/368/280
f 264/352/264 313/418/313 265/353/265
f 265/353/265 313/418/313 315/421/315
f 313/419/313 314/420/314 315/422/315
f 315/422/315 314/420/314 316/423/316
f 314/420/314 280/368/280 316/423/316
f 316/423/316 280/368/280 281/369/281
f 265/353/265 315/421/315 266/354/266
f 266/354/266 315/421/315 317/424/317
f 315/422/315 316/423/316 317/425/317
f 317/425/317 316/423/316 318/426/318
f 316/423/316 281/369/281 318/426/318
f 318/426/318 281/369/281 282/370/282
f 266/354/266 317/424/317 267/355/267
f 267/355/267 317/424/317 319/427/319
f 317/425/317 318/426/318 319/428/319
f 319/428/319 318/426/318 320/429/320
f 318/426/318 282/370/282 320/429/320
f 320/429/320 282/370/282 283/371/283
f 267/355/267 319/427/319 268/356/268
f 268/356/268 319/427/319 321/430/321
f 319/428/319 320/429/320 321/431/321
f 321/431/321 320/429/320 322/432/322
f 320/429/320 283/371/283 322/432/322
f 322/432/322 283/371/283 284/372/284
f 268/356/268 321/430/321 288/376/288
f 288/376/288 321/430/321 323/433/323
f 321/431/321 322/432/322 323/434/323
f 323/434/323 322/432/322 324/435/324
f 322/432/322 284/372/284 324/435/324
f 324/435/324 284/372/284 286/374/286
f 323/433/323 325/436/325 288/376/288
f 288/376/288 325/436/325 289/381/289
f 324/435/324 326/437/326 323/434/323
f 323/434/323 326/437/326 325/438/325
f 286/374/286 285/373/285 324/435/324
f 324/435/324 285/373/285 326/437/326
f 289/381/289 325/436/325 290/382/290
f 290/382/290 325/436/325 292/385/292
f 325/438/325 326/437/326 292/389/292
f 292/389/292 326/437/326 294/387/294
f 326/437/326 285/373/285 294/387/294
f 294/387/294 285/373/285 287/375/287
f 327/439/327 328/440/328 329/441/329
f 329/441/329 328/440/328 330/442/330
f 328/440/328 327/439/327 331/443/331
f 331/443/331 327/439/327 332/444/332
f 331/443/331 332/444/332 333/445/333
f 333/445/333 332/444/332 334/446/334
f 333/445/333 334/446/334 335/447/335
f 335/447/335 334/446/334 336/448/336
f 335/447/335 336/448/336 337/449/337
f 337/449/337 336/448/336 338/450/338
f 338/450/338 339/451/339 337/449/337
f 337/449/337 339/451/339 340/452/340
f 339/451/339 341/453/341 340/452/340
f 340/452/340 341/453/341 342/454/342
f 342/454/342 341/453/341 343/455/343
f 343/455/343 341/453/341 344/456/344
f 344/457/344 345/458/345 343/459/343
f 343/459/343 345/458/345 346/460/346
f 346/460/346 345/458/345 347/461/347
f 347/461/347 345/458/345 348/462/348
f 347/461/347 348/462/348 349/463/349
f 349/463/349 348/462/348 350/464/350
f 349/463/349 350/464/350 351/465/351
f 351/465/351 350/464/350 352/466/352
f 351/465/351 352/466/352 353/467/353
f 353/467/353 352/466/352 354/468/354
f 353/467/353 354/468/354 355/469/355
f 355/469/355 354/468/354 356/470/356
f 355/469/355 356/470/356 357/471/357
f 357/471/357 356/470/356 358/472/358
f 358/472/358 359/473/359 357/471/357
f 357/471/357 359/473/359 360/474/360
f 360/474/360 359/473/359 361/475/361
f 361/475/361 359/473/359 362/476/362
f 362/476/362 329/441/329 361/475/361
f 361/475/361 329/441/329 330/442/330
f 363/477/363 364/478/364 365/479/365
f 365/479/365 364/478/364 366/480/366
f 364/478/364 363/477/363 367/481/367
f 367/481/367 363/477/363 368/482/368
f 367/481/367 368/482/368 369/483/369
f 369/483/369 368/482/368 370/484/370
f 369/483/369 370/484/370 371/485/371
f 371/485/371 370/484/370 372/486/372
f 371/485/371 372/486/372 373/487/373
f 373/487/373 372/486/372 374/488/374
f 374/488/374 375/489/375 373/487/373
f 373/487/373 375/489/375 376/490/376
f 375/489/375 377/491/377 376/490/376
f 376/490/376 377/491/377 378/492/378
f 378/492/378 377/491/377 379/493/379
f 379/493/379 377/491/377 380/494/380
f 380/495/380 381/496/381 379/497/379
f 379/497/379 381/496/381 382/498/382
f 382/498/382 381/496/381 383/499/383
f 383/499/383 381/496/381 384/500/384
f 383/499/383 384/500/384 385/501/385
f 385/501/385 384/500/384 386/502/386
f 385/501/385 386/502/386 387/503/387
f 387/503/387 386/502/386 388/504/388
f 387/503/387 388/504/388 389/505/389
f 389/505/389 388/504/388 390/506/390
f 389/505/389 390/506/390 391/507/391
f 391/507/391 390/506/390 392/508/392
f 391/507/391 392/508/392 393/509/393
f 393/509/393 392/508/392 394/510/394
f 394/510/394 395/511/395 393/509/393
f 393/509/393 395/511/395 396/512/396
f 396/512/396 395/511/395 397/513/397
f 397/513/397 395/511/395 398/514/398
f 398/514/398 365/479/365 397/513/397
f 397/513/397 365/479/365 366/480/366
f 8/8/8 6/6/6 344/457/344
f 344/457/344 6/6/6 345/458/345
f 8/10/8 344/456/344 10/12/10
f 10/12/10 344/456/344 341/453/341
f 12/14/12 10/12/10 339/451/339
f 339/451/339 10/12/10 341/453/341
f 14/16/14 12/14/12 338/450/338
f 338/450/338 12/14/12 339/451/339
f 16/18/16 14/16/14 336/448/336
f 336/448/336 14/16/14 338/450/338
f 18/20/18 16/18/16 334/446/334
f 334/446/334 16/18/16 336/448/336
f 20/22/20 18/20/18 332/444/332
f 332/444/332 18/20/18 334/446/334
f 22/24/22 20/22/20 327/439/327
f 327/439/327 20/22/20 332/444/332
f 25/27/25 26/28/26 356/470/356
f 356/470/356 26/28/26 358/472/358
f 28/30/28 25/27/25 354/468/354
f 354/468/354 25/27/25 356/470/356
f 30/32/30 28/30/28 352/466/352
f 352/466/352 28/30/28 354/468/354
f 4/4/4 30/32/30 350/464/350
f 350/464/350 30/32/30 352/466/352
f 3/3/3 4/4/4 348/462/348
f 348/462/348 4/4/4 350/464/350
f 3/3/3 348/462/348 6/6/6
f 6/6/6 348/462/348 345/458/345
f 32/34/32 127/515/127 26/28/26
f 26/28/26 127/515/127 358/472/358
f 116/516/116 134/517/134 329/441/329
f 329/441/329 134/517/134 327/439/327
f 79/518/79 116/516/116 362/476/362
f 362/476/362 116/516/116 329/441/329
f 359/473/359 80/519/80 362/476/362
f 362/476/362 80/519/80 79/518/79
f 358/472/358 127/515/127 359/473/359
f 359/473/359 127/515/127 80/519/80
f 327/439/327 134/517/134 22/24/22
f 22/24/22 134/517/134 33/35/33
f 328/440/328 331/443/331 363/520/363
f 363/520/363 331/443/331 368/521/368
f 331/443/331 333/445/333 368/521/368
f 368/521/368 333/445/333 370/522/370
f 333/445/333 335/447/335 370/522/370
f 370/522/370 335/447/335 372/523/372
f 335/447/335 337/449/337 372/523/372
f 372/523/372 337/449/337 374/524/374
f 337/449/337 340/452/340 374/524/374
f 374/524/374 340/452/340 375/525/375
f 342/454/342 377/526/377 340/452/340
f 340/452/340 377/526/377 375/525/375
f 343/455/343 380/527/380 342/454/342
f 342/454/342 380/527/380 377/526/377
f 343/459/343 346/460/346 380/528/380
f 380/528/380 346/460/346 381/529/381
f 346/460/346 347/461/347 381/529/381
f 381/529/381 347/461/347 384/530/384
f 349/463/349 386/531/386 347/461/347
f 347/461/347 386/531/386 384/530/384
f 351/465/351 388/532/388 349/463/349
f 349/463/349 388/532/388 386/531/386
f 353/467/353 390/533/390 351/465/351
f 351/465/351 390/533/390 388/532/388
f 355/469/355 392/534/392 353/467/353
f 353/467/353 392/534/392 390/533/390
f 357/471/357 394/535/394 355/469/355
f 355/469/355 394/535/394 392/534/392
f 361/475/361 398/536/398 360/474/360
f 360/474/360 398/536/398 395/537/395
f 361/475/361 330/442/330 398/536/398
f 398/536/398 330/442/330 365/538/365
f 357/471/357 360/474/360 394/535/394
f 394/535/394 360/474/360 395/537/395
f 328/440/328 363/520/363 330/442/330
f 330/442/330 363/520/363 365/538/365
f 364/478/364 367/481/367 145/211/145
f 145/211/145 367/481/367 146/212/146
f 367/481/367 369/483/369 146/212/146
f 146/212/146 369/483/369 149/215/149
f 369/483/369 371/485/371 149/215/149
f 149/215/149 371/485/371 151/217/151
f 371/485/371 373/487/373 151/217/151
f 151/217/151 373/487/373 153/219/153
f 373/487/373 376/490/376 153/219/153
f 153/219/153 376/490/376 155/221/155
f 378/492/378 157/223/157 376/490/376
f 376/490/376 157/223/157 155/221/155
f 379/493/379 159/225/159 378/492/378
f 378/492/378 159/225/159 157/223/157
f 379/497/379 382/498/382 159/227/159
f 159/227/159 382/498/382 161/228/161
f 382/498/382 383/499/383 161/228/161
f 161/228/161 383/499/383 163/231/163
f 383/499/383 385/501/385 163/231/163
f 163/231/163 385/501/385 165/233/165
f 385/501/385 387/503/387 165/233/165
f 165/233/165 387/503/387 167/235/167
f 387/503/387 389/505/389 167/235/167
f 167/235/167 389/505/389 169/237/169
f 389/505/389 391/507/391 169/237/169
f 169/237/169 391/507/391 171/239/171
f 391/507/391 393/509/393 171/239/171
f 171/239/171 393/509/393 173/241/173
f 396/512/396 397/513/397 175/243/175
f 175/243/175 397/513/397 176/244/176
f 397/513/397 366/480/366 176/244/176
f 176/244/176 366/480/366 179/247/179
f 393/509/393 396/512/396 173/241/173
f 173/241/173 396/512/396 175/243/175
f 366/480/366 364/478/364 179/247/179
f 179/247/179 364/478/364 145/211/145
f 399/539/399 400/540/400 401/541/401
f 401/541/401 400/540/400 402/542/402
f 400/540/400 399/539/399 403/543/403
f 403/543/403 399/539/399 404/544/404
f 403/545/403 404/546/404 405/547/405
f 405/547/405 404/546/404 406/548/406
f 405/547/405 406/548/406 407/549/407
f 407/549/407 406/548/406 408/550/408
f 408/550/408 409/551/409 407/549/407
f 407/549/407 409/551/409 410/552/410
f 409/553/409 411/554/411 410/555/410
f 410/555/410 411/554/411 412/556/412
f 411/554/411 413/557/413 412/556/412
f 412/556/412 413/557/413 414/558/414
f 415/559/415 416/560/416 413/557/413
f 413/557/413 416/560/416 414/558/414
f 416/560/416 415/559/415 417/561/417
f 417/561/417 415/559/415 418/562/418
f 417/563/417 418/564/418 419/565/419
f 419/565/419 418/564/418 420/566/420
f 420/566/420 421/567/421 419/565/419
f 419/565/419 421/567/421 422/568/422
f 421/567/421 423/569/423 422/568/422
f 422/568/422 423/569/423 424/570/424
f 423/571/423 425/572/425 424/573/424
f 424/573/424 425/572/425 426/574/426
f 425/572/425 401/541/401 426/574/426
f 426/574/426 401/541/401 402/542/402
f 427/575/427 428/576/428 429/577/429
f 429/577/429 428/576/428 430/578/430
f 428/576/428 427/575/427 431/579/431
f 431/579/431 427/575/427 432/580/432
f 432/581/432 433/582/433 431/583/431
f 431/583/431 433/582/433 434/584/434
f 433/582/433 435/585/435 434/584/434
f 434/584/434 435/585/435 436/586/436
f 437/587/437 438/588/438 435/585/435
f 435/585/435 438/588/438 436/586/436
f 438/588/438 437/587/437 439/589/439
f 439/589/439 437/587/437 440/590/440
f 440/591/440 441/592/441 439/593/439
f 439/593/439 441/592/441 442/594/442
f 441/592/441 443/595/443 442/594/442
f 442/594/442 443/595/443 444/596/444
f 443/595/443 445/597/445 444/596/444
f 444/596/444 445/597/445 446/598/446
f 445/599/445 447/600/447 446/601/446
f 446/601/446 447/600/447 448/602/448
f 447/600/447 449/603/449 448/602/448
f 448/602/448 449/603/449 450/604/450
f 451/605/451 452/606/452 449/603/449
f 449/603/449 452/606/452 450/604/450
f 452/606/452 451/605/451 453/607/453
f 453/607/453 451/605/451 454/608/454
f 453/609/453 454/610/454 430/578/430
f 430/578/430 454/610/454 429/577/429
f 125/165/125 404/544/404 77/81/77
f 77/81/77 404/544/404 399/539/399
f 81/87/81 406/548/406 125/163/125
f 125/163/125 406/548/406 404/546/404
f 83/89/83 128/171/128 408/550/408
f 408/550/408 128/171/128 409/551/409
f 128/169/128 119/153/119 409/553/409
f 409/553/409 119/153/119 411/554/411
f 130/177/130 418/562/418 87/97/87
f 87/97/87 418/562/418 415/559/415
f 93/105/93 420/566/420 130/175/130
f 130/175/130 420/566/420 418/564/418
f 94/106/94 132/183/132 421/567/421
f 421/567/421 132/183/132 423/569/423
f 132/181/132 117/149/117 423/571/423
f 423/571/423 117/149/117 425/572/425
f 135/189/135 432/580/432 97/116/97
f 97/116/97 432/580/432 427/575/427
f 135/187/135 121/156/121 432/581/432
f 432/581/432 121/156/121 433/582/433
f 137/195/137 440/590/440 101/121/101
f 101/121/101 440/590/440 437/587/437
f 137/193/137 106/129/106 440/591/440
f 440/591/440 106/129/106 441/592/441
f 107/130/107 139/201/139 443/595/443
f 443/595/443 139/201/139 445/597/445
f 139/199/139 123/160/123 445/599/445
f 445/599/445 123/160/123 447/600/447
f 143/207/143 454/608/454 112/140/112
f 112/140/112 454/608/454 451/605/451
f 98/118/98 429/577/429 143/206/143
f 143/206/143 429/577/429 454/610/454
f 87/97/87 415/559/415 85/95/85
f 85/95/85 415/559/415 413/557/413
f 117/149/117 75/79/75 425/572/425
f 425/572/425 75/79/75 401/541/401
f 119/153/119 85/95/85 411/554/411
f 411/554/411 85/95/85 413/557/413
f 77/81/77 399/539/399 75/79/75
f 75/79/75 399/539/399 401/541/401
f 112/140/112 451/605/451 113/142/113
f 113/142/113 451/605/451 449/603/449
f 121/156/121 99/119/99 433/582/433
f 433/582/433 99/119/99 435/585/435
f 123/160/123 113/142/113 447/600/447
f 447/600/447 113/142/113 449/603/449
f 101/121/101 437/587/437 99/119/99
f 99/119/99 437/587/437 435/585/435
f 455/611/455 456/612/456 436/586/436
f 436/586/436 456/612/456 434/584/434
f 457/613/457 430/578/430 458/614/458
f 458/614/458 430/578/430 428/576/428
f 459/615/459 450/604/450 460/616/460
f 460/616/460 450/604/450 452/606/452
f 459/615/459 461/617/461 450/604/450
f 450/604/450 461/617/461 448/602/448
f 462/618/462 463/619/463 444/596/444
f 444/596/444 463/619/463 442/594/442
f 455/611/455 436/586/436 464/620/464
f 464/620/464 436/586/436 438/588/438
f 416/560/416 465/621/465 414/558/414
f 414/558/414 465/621/465 466/622/466
f 419/565/419 422/568/422 467/623/467
f 467/623/467 422/568/422 468/624/468
f 426/574/426 402/542/402 469/625/469
f 469/625/469 402/542/402 470/626/470
f 400/540/400 471/627/471 402/542/402
f 402/542/402 471/627/471 470/626/470
f 407/549/407 472/628/472 405/547/405
f 405/547/405 472/628/472 473/629/473
f 412/556/412 414/558/414 474/630/474
f 474/630/474 414/558/414 466/622/466
f 406/548/406 81/87/81 408/550/408
f 408/550/408 81/87/81 83/89/83
f 93/105/93 94/106/94 420/566/420
f 420/566/420 94/106/94 421/567/421
f 429/577/429 98/118/98 427/575/427
f 427/575/427 98/118/98 97/116/97
f 106/129/106 107/130/107 441/592/441
f 441/592/441 107/130/107 443/595/443
f 417/561/417 475/631/475 416/560/416
f 416/560/416 475/631/475 465/621/465
f 419/565/419 467/623/467 417/563/417
f 417/563/417 467/623/467 475/632/475
f 422/568/422 424/570/424 468/624/468
f 468/624/468 424/570/424 476/633/476
f 424/573/424 426/574/426 476/634/476
f 476/634/476 426/574/426 469/625/469
f 403/543/403 477/635/477 400/540/400
f 400/540/400 477/635/477 471/627/471
f 405/547/405 473/629/473 403/545/403
f 403/545/403 473/629/473 477/636/477
f 407/549/407 410/552/410 472/628/472
f 472/628/472 410/552/410 478/637/478
f 410/555/410 412/556/412 478/638/478
f 478/638/478 412/556/412 474/630/474
f 428/576/428 431/579/431 458/614/458
f 458/614/458 431/579/431 479/639/479
f 431/583/431 434/584/434 479/640/479
f 479/640/479 434/584/434 456/612/456
f 453/607/453 480/641/480 452/606/452
f 452/606/452 480/641/480 460/616/460
f 430/578/430 457/613/457 453/609/453
f 453/609/453 457/613/457 480/642/480
f 444/596/444 446/598/446 462/618/462
f 462/618/462 446/598/446 481/643/481
f 446/601/446 448/602/448 481/644/481
f 481/644/481 448/602/448 461/617/461
f 439/589/439 482/645/482 438/588/438
f 438/588/438 482/645/482 464/620/464
f 442/594/442 463/619/463 439/593/439
f 439/593/439 463/619/463 482/646/482
f 483/647/483 484/648/484 485/649/485
f 485/649/485 484/648/484 486/650/486
f 484/648/484 483/647/483 487/651/487
f 487/651/487 483/647/483 488/652/488
f 487/653/487 488/654/488 489/655/489
f 489/655/489 488/654/488 490/656/490
f 489/655/489 490/656/490 491/657/491
f 491/657/491 490/656/490 492/658/492
f 492/658/492 493/659/493 491/657/491
f 491/657/491 493/659/493 494/660/494
f 494/661/494 493/662/493 495/663/495
f 495/663/495 493/662/493 496/664/496
f 496/664/496 497/665/497 495/663/495
f 495/663/495 497/665/497 498/666/498
f 499/667/499 500/668/500 497/665/497
f 497/665/497 500/668/500 498/666/498
f 499/667/499 501/669/501 500/668/500
f 500/668/500 501/669/501 502/670/502
f 502/671/502 501/672/501 503/673/503
f 503/673/503 501/672/501 504/674/504
f 504/674/504 505/675/505 503/673/503
f 503/673/503 505/675/505 506/676/506
f 505/675/505 507/677/507 506/676/506
f 506/676/506 507/677/507 508/678/508
f 507/679/507 509/680/509 508/681/508
f 508/681/508 509/680/509 510/682/510
f 509/680/509 485/649/485 510/682/510
f 510/682/510 485/649/485 486/650/486
f 511/683/511 512/684/512 513/685/513
f 513/685/513 512/684/512 514/686/514
f 513/685/513 515/687/515 511/683/511
f 511/683/511 515/687/515 516/688/516
f 515/689/515 517/690/517 516/691/516
f 516/691/516 517/690/517 518/692/518
f 518/692/518 517/690/517 519/693/519
f 519/693/519 517/690/517 520/694/520
f 519/693/519 520/694/520 521/695/521
f 521/695/521 520/694/520 522/696/522
f 521/697/521 522/698/522 523/699/523
f 523/699/523 522/698/522 524/700/524
f 523/699/523 524/700/524 525/701/525
f 525/701/525 524/700/524 526/702/526
f 527/703/527 525/701/525 528/704/528
f 528/704/528 525/701/525 526/702/526
f 528/704/528 529/705/529 527/703/527
f 527/703/527 529/705/529 530/706/530
f 529/707/529 531/708/531 530/709/530
f 530/709/530 531/708/531 532/710/532
f 531/708/531 533/711/533 532/710/532
f 532/710/532 533/711/533 534/712/534
f 534/712/534 533/711/533 535/713/535
f 535/713/535 533/711/533 536/714/536
f 535/715/535 536/716/536 537/717/537
f 537/717/537 536/716/536 538/718/538
f 537/717/537 538/718/538 512/684/512
f 512/684/512 538/718/538 514/686/514
f 465/621/465 483/647/483 466/622/466
f 466/622/466 483/647/483 485/649/485
f 467/623/467 468/624/468 490/656/490
f 490/656/490 468/624/468 492/658/492
f 469/625/469 470/626/470 496/664/496
f 496/664/496 470/626/470 497/665/497
f 471/627/471 499/667/499 470/626/470
f 470/626/470 499/667/499 497/665/497
f 472/628/472 505/675/505 473/629/473
f 473/629/473 505/675/505 504/674/504
f 474/630/474 466/622/466 509/680/509
f 509/680/509 466/622/466 485/649/485
f 512/684/512 511/683/511 455/611/455
f 455/611/455 511/683/511 456/612/456
f 519/693/519 457/613/457 518/692/518
f 518/692/518 457/613/457 458/614/458
f 525/701/525 459/615/459 523/699/523
f 523/699/523 459/615/459 460/616/460
f 525/701/525 527/703/527 459/615/459
f 459/615/459 527/703/527 461/617/461
f 532/710/532 534/712/534 462/618/462
f 462/618/462 534/712/534 463/619/463
f 512/684/512 455/611/455 537/717/537
f 537/717/537 455/611/455 464/620/464
f 475/631/475 488/652/488 465/621/465
f 465/621/465 488/652/488 483/647/483
f 467/623/467 490/656/490 475/632/475
f 475/632/475 490/656/490 488/654/488
f 468/624/468 476/633/476 492/658/492
f 492/658/492 476/633/476 493/659/493
f 476/634/476 469/625/469 493/662/493
f 493/662/493 469/625/469 496/664/496
f 477/635/477 501/669/501 471/627/471
f 471/627/471 501/669/501 499/667/499
f 473/629/473 504/674/504 477/636/477
f 477/636/477 504/674/504 501/672/501
f 472/628/472 478/637/478 505/675/505
f 505/675/505 478/637/478 507/677/507
f 478/638/478 474/630/474 507/679/507
f 507/679/507 474/630/474 509/680/509
f 511/683/511 516/688/516 456/612/456
f 456/612/456 516/688/516 479/640/479
f 516/691/516 518/692/518 479/639/479
f 479/639/479 518/692/518 458/614/458
f 521/695/521 480/642/480 519/693/519
f 519/693/519 480/642/480 457/613/457
f 523/699/523 460/616/460 521/697/521
f 521/697/521 460/616/460 480/641/480
f 527/703/527 530/706/530 461/617/461
f 461/617/461 530/706/530 481/644/481
f 530/709/530 532/710/532 481/643/481
f 481/643/481 532/710/532 462/618/462
f 535/713/535 482/646/482 534/712/534
f 534/712/534 482/646/482 463/619/463
f 537/717/537 464/620/464 535/715/535
f 535/715/535 464/620/464 482/645/482
f 539/719/539 540/720/540 541/721/541
f 541/721/541 540/720/540 542/722/542
f 540/720/540 539/719/539 543/723/543
f 543/723/543 539/719/539 544/724/544
f 541/725/541 542/726/542 545/727/545
f 545/727/545 542/726/542 546/728/546
f 546/728/546 547/729/547 545/727/545
f 545/727/545 547/729/547 548/730/548
f 547/729/547 549/731/549 548/730/548
f 548/730/548 549/731/549 550/732/550
f 549/733/549 551/734/551 550/735/550
f 550/735/550 551/734/551 552/736/552
f 551/734/551 553/737/553 552/736/552
f 552/736/552 553/737/553 554/738/554
f 555/739/555 556/740/556 557/741/557
f 557/741/557 556/740/556 558/742/558
f 556/740/556 555/739/555 553/737/553
f 553/737/553 555/739/555 554/738/554
f 557/743/557 558/744/558 559/745/559
f 559/745/559 558/744/558 560/746/560
f 559/745/559 560/746/560 561/747/561
f 561/747/561 560/746/560 562/748/562
f 562/748/562 563/749/563 561/747/561
f 561/747/561 563/749/563 564/750/564
f 563/751/563 565/752/565 564/753/564
f 564/753/564 565/752/565 566/754/566
f 565/752/565 543/723/543 566/754/566
f 566/754/566 543/723/543 544/724/544
f 567/755/567 568/756/568 569/757/569
f 569/757/569 568/756/568 570/758/570
f 569/757/569 571/759/571 567/755/567
f 567/755/567 571/759/571 572/760/572
f 571/761/571 573/762/573 572/763/572
f 572/763/572 573/762/573 574/764/574
f 573/762/573 575/765/575 574/764/574
f 574/764/574 575/765/575 576/766/576
f 575/765/575 577/767/577 576/766/576
f 576/766/576 577/767/577 578/768/578
f 578/769/578 577/770/577 579/771/579
f 579/771/579 577/770/577 580/772/580
f 579/771/579 580/772/580 581/773/581
f 581/773/581 580/772/580 582/774/582
f 583/775/583 581/773/581 584/776/584
f 584/776/584 581/773/581 582/774/582
f 584/776/584 585/777/585 583/775/583
f 583/775/583 585/777/585 586/778/586
f 586/779/586 585/780/585 587/781/587
f 587/781/587 585/780/585 588/782/588
f 587/781/587 588/782/588 589/783/589
f 589/783/589 588/782/588 590/784/590
f 589/783/589 590/784/590 591/785/591
f 591/785/591 590/784/590 592/786/592
f 591/787/591 592/788/592 593/789/593
f 593/789/593 592/788/592 594/790/594
f 593/789/593 594/790/594 568/756/568
f 568/756/568 594/790/594 570/758/570
f 544/724/544 539/719/539 570/758/570
f 570/758/570 539/719/539 569/757/569
f 548/730/548 575/765/575 545/727/545
f 545/727/545 575/765/575 573/762/573
f 554/738/554 582/774/582 552/736/552
f 552/736/552 582/774/582 580/772/580
f 554/738/554 555/739/555 582/774/582
f 582/774/582 555/739/555 584/776/584
f 559/745/559 561/747/561 588/782/588
f 588/782/588 561/747/561 590/784/590
f 544/724/544 570/758/570 566/754/566
f 566/754/566 570/758/570 594/790/594
f 541/721/541 571/759/571 539/719/539
f 539/719/539 571/759/571 569/757/569
f 545/727/545 573/762/573 541/725/541
f 541/725/541 573/762/573 571/761/571
f 548/730/548 550/732/550 575/765/575
f 575/765/575 550/732/550 577/767/577
f 552/736/552 580/772/580 550/735/550
f 550/735/550 580/772/580 577/770/577
f 555/739/555 557/741/557 584/776/584
f 584/776/584 557/741/557 585/777/585
f 559/745/559 588/782/588 557/743/557
f 557/743/557 588/782/588 585/780/585
f 561/747/561 564/750/564 590/784/590
f 590/784/590 564/750/564 592/786/592
f 564/753/564 566/754/566 592/788/592
f 592/788/592 566/754/566 594/790/594
f 484/648/484 540/720/540 486/650/486
f 486/650/486 540/720/540 543/723/543
f 491/657/491 547/729/547 489/655/489
f 489/655/489 547/729/547 546/728/546
f 495/663/495 498/666/498 551/734/551
f 551/734/551 498/666/498 553/737/553
f 500/668/500 556/740/556 498/666/498
f 498/666/498 556/740/556 553/737/553
f 503/673/503 506/676/506 560/746/560
f 560/746/560 506/676/506 562/748/562
f 510/682/510 486/650/486 565/752/565
f 565/752/565 486/650/486 543/723/543
f 568/756/568 567/755/567 514/686/514
f 514/686/514 567/755/567 513/685/513
f 574/764/574 576/766/576 517/690/517
f 517/690/517 576/766/576 520/694/520
f 581/773/581 526/702/526 579/771/579
f 579/771/579 526/702/526 524/700/524
f 581/773/581 583/775/583 526/702/526
f 526/702/526 583/775/583 528/704/528
f 589/783/589 533/711/533 587/781/587
f 587/781/587 533/711/533 531/708/531
f 568/756/568 514/686/514 593/789/593
f 593/789/593 514/686/514 538/718/538
f 487/651/487 542/722/542 484/648/484
f 484/648/484 542/722/542 540/720/540
f 489/655/489 546/728/546 487/653/487
f 487/653/487 546/728/546 542/726/542
f 491/657/491 494/660/494 547/729/547
f 547/729/547 494/660/494 549/731/549
f 494/661/494 495/663/495 549/733/549
f 549/733/549 495/663/495 551/734/551
f 502/670/502 558/742/558 500/668/500
f 500/668/500 558/742/558 556/740/556
f 503/673/503 560/746/560 502/671/502
f 502/671/502 560/746/560 558/744/558
f 506/676/506 508/678/508 562/748/562
f 562/748/562 508/678/508 563/749/563
f 508/681/508 510/682/510 563/751/563
f 563/751/563 510/682/510 565/752/565
f 567/755/567 572/760/572 513/685/513
f 513/685/513 572/760/572 515/687/515
f 572/763/572 574/764/574 515/689/515
f 515/689/515 574/764/574 517/690/517
f 576/766/576 578/768/578 520/694/520
f 520/694/520 578/768/578 522/696/522
f 578/769/578 579/771/579 522/698/522
f 522/698/522 579/771/579 524/700/524
f 586/778/586 529/705/529 583/775/583
f 583/775/583 529/705/529 528/704/528
f 587/781/587 531/708/531 586/779/586
f 586/779/586 531/708/531 529/707/529
f 591/785/591 536/714/536 589/783/589
f 589/783/589 536/714/536 533/711/533
f 593/789/593 538/718/538 591/787/591
f 591/787/591 538/718/538 536/716/536
s off
