# Apple ModelIO OBJ File: Table
mtllib Table.mtl
g Table_TopSG
v 1.66024 1.79906 -0.539444
v 1.41228 1.79906 -1.02608
v 1.66024 1.909 -0.539444
v 1.41228 1.909 -1.02608
v 1.02609 1.79906 -1.41228
v 1.02609 1.909 -1.41228
v 0.539444 1.79906 -1.66024
v 0.539444 1.909 -1.66024
v 0 1.79906 -1.74568
v 0 1.909 -1.74568
v -0.539444 1.79906 -1.66024
v -0.539444 1.909 -1.66024
v -1.02609 1.79906 -1.41228
v -1.02609 1.909 -1.41228
v -1.41228 1.79906 -1.02608
v -1.41228 1.909 -1.02608
v -1.66024 1.79906 -0.539443
v -1.66024 1.909 -0.539443
v -1.74568 1.79906 0
v -1.74568 1.909 0
v -1.66024 1.79906 0.539444
v -1.66024 1.909 0.539444
v -1.41228 1.79906 1.02608
v -1.41228 1.909 1.02608
v -1.02608 1.79906 1.41228
v -1.02608 1.909 1.41228
v -0.539444 1.79906 1.66024
v -0.539444 1.909 1.66024
v 0 1.79906 1.74568
v 0 1.909 1.74568
v 0.539444 1.79906 1.66024
v 0.539444 1.909 1.66024
v 1.02608 1.79906 1.41228
v 1.02608 1.909 1.41228
v 1.41228 1.79906 1.02608
v 1.41228 1.909 1.02608
v 1.66024 1.79906 0.539444
v 1.66024 1.909 0.539444
v 1.74568 1.79906 0
v 1.74568 1.909 0
v 1.30727 1.67085 -0.949783
v 1.53678 1.67085 -0.499331
v 0 1.67085 0
v 0.949785 1.67085 -1.30727
v 0.499331 1.67085 -1.53678
v 0 1.67085 -1.61587
v -0.499331 1.67085 -1.53678
v -0.949787 1.67085 -1.30727
v -1.30727 1.67085 -0.949785
v -1.53679 1.67085 -0.49933
v -1.61587 1.67085 0
v -1.53679 1.67085 0.499331
v -1.30727 1.67085 0.949784
v -0.949783 1.67085 1.30727
v -0.499331 1.67085 1.53678
v 0 1.67085 1.61587
v 0.499331 1.67085 1.53678
v 0.949783 1.67085 1.30727
v 1.30726 1.67085 0.949784
v 1.53678 1.67085 0.499331
v 1.61587 1.67085 0
v 1.53678 2.03721 -0.499331
v 1.30727 2.03721 -0.949783
v 0 2.03721 0
v 0.949785 2.03721 -1.30727
v 0.499331 2.03721 -1.53678
v 0 2.03721 -1.61587
v -0.499331 2.03721 -1.53678
v -0.949787 2.03721 -1.30727
v -1.30727 2.03721 -0.949785
v -1.53679 2.03721 -0.49933
v -1.61587 2.03721 0
v -1.53679 2.03721 0.499331
v -1.30727 2.03721 0.949784
v -0.949783 2.03721 1.30727
v -0.499331 2.03721 1.53678
v 0 2.03721 1.61587
v 0.499331 2.03721 1.53678
v 0.949783 2.03721 1.30727
v 1.30726 2.03721 0.949784
v 1.53678 2.03721 0.499331
v 1.61587 2.03721 0
v 1.62408 1.70841 -0.527695
v 1.38153 1.70841 -1.00374
v 1.00374 1.70841 -1.38152
v 0.527695 1.70841 -1.62408
v 0 1.70841 -1.70766
v -0.527697 1.70841 -1.62408
v -1.00374 1.70841 -1.38152
v -1.38153 1.70841 -1.00374
v -1.62408 1.70841 -0.527695
v -1.70766 1.70841 0
v -1.62408 1.70841 0.527695
v -1.38153 1.70841 1.00374
v -1.00373 1.70841 1.38153
v -0.527697 1.70841 1.62408
v 0 1.70841 1.70766
v 0.527695 1.70841 1.62408
v 1.00373 1.70841 1.38152
v 1.38152 1.70841 1.00374
v 1.62408 1.70841 0.527695
v 1.70766 1.70841 0
v 1.62408 1.99965 -0.527695
v 1.70766 1.99965 0
v 1.38153 1.99965 -1.00374
v 1.00374 1.99965 -1.38152
v 0.527695 1.99965 -1.62408
v 0 1.99965 -1.70766
v -0.527697 1.99965 -1.62408
v -1.00374 1.99965 -1.38152
v -1.38153 1.99965 -1.00374
v -1.62408 1.99965 -0.527695
v -1.70766 1.99965 0
v -1.62408 1.99965 0.527695
v -1.38153 1.99965 1.00374
v -1.00373 1.99965 1.38153
v -0.527697 1.99965 1.62408
v 0 1.99965 1.70766
v 0.527695 1.99965 1.62408
v 1.00373 1.99965 1.38152
v 1.38152 1.99965 1.00374
v 1.62408 1.99965 0.527695
vn 0.9353 -0.181278 -0.303896
vn 0.795612 -0.181281 -0.578047
vn 0.9353 0.181278 -0.303896
vn 0.795612 0.181282 -0.578047
vn 0.578046 -0.181281 -0.795613
vn 0.578046 0.181282 -0.795613
vn 0.303897 -0.181281 -0.935299
vn 0.303897 0.181281 -0.935299
vn 0 -0.18128 -0.983432
vn 0 0.18128 -0.983432
vn -0.303895 -0.181284 -0.935299
vn -0.303895 0.181284 -0.935299
vn -0.578047 -0.181285 -0.795611
vn -0.578047 0.181286 -0.795611
vn -0.795615 -0.181283 -0.578043
vn -0.795614 0.181283 -0.578043
vn -0.935299 -0.181278 -0.303897
vn -0.935299 0.181278 -0.303897
vn -0.983433 -0.181274 0
vn -0.983433 0.181274 -0
vn -0.935299 -0.181278 0.303897
vn -0.935299 0.181278 0.303897
vn -0.795612 -0.181282 0.578047
vn -0.795612 0.181282 0.578047
vn -0.578047 -0.181282 0.795612
vn -0.578047 0.181282 0.795612
vn -0.303897 -0.181282 0.935299
vn -0.303897 0.181282 0.935299
vn 0 -0.18128 0.983432
vn 0 0.18128 0.983432
vn 0.303898 -0.181282 0.935298
vn 0.303897 0.181282 0.935299
vn 0.578046 -0.181283 0.795612
vn 0.578047 0.18128 0.795613
vn 0.795612 -0.181285 0.578046
vn 0.795612 0.181282 0.578047
vn 0.935299 -0.181281 0.303897
vn 0.935298 0.181282 0.303898
vn 0.983433 -0.181274 2e-06
vn 0.983433 0.181274 2e-06
vn 0.041058 -0.998711 -0.02983
vn 0.048266 -0.998711 -0.015682
vn 0 -1 0
vn 0.02983 -0.998711 -0.041058
vn 0.015683 -0.998711 -0.048267
vn -0 -0.998711 -0.050751
vn -0.015683 -0.998711 -0.048267
vn -0.02983 -0.998711 -0.041058
vn -0.041058 -0.998711 -0.029831
vn -0.048267 -0.998711 -0.015682
vn -0.050751 -0.998711 0
vn -0.048267 -0.998711 0.015682
vn -0.041058 -0.998711 0.029831
vn -0.02983 -0.998711 0.041058
vn -0.015683 -0.998711 0.048267
vn 0 -0.998711 0.050751
vn 0.015683 -0.998711 0.048267
vn 0.02983 -0.998711 0.041057
vn 0.041058 -0.998711 0.02983
vn 0.048267 -0.998711 0.015683
vn 0.05075 -0.998711 0
vn 0.048267 0.998711 -0.015683
vn 0.041058 0.998711 -0.02983
vn 0 1 -0
vn 0.029831 0.998711 -0.041058
vn 0.015683 0.998711 -0.048267
vn 0 0.998711 -0.050752
vn -0.015683 0.998711 -0.048267
vn -0.029831 0.998711 -0.041059
vn -0.041058 0.998711 -0.029831
vn -0.048267 0.998711 -0.015683
vn -0.050751 0.998711 0
vn -0.048267 0.998711 0.015683
vn -0.041058 0.998711 0.02983
vn -0.029831 0.998711 0.041058
vn -0.015683 0.998711 0.048267
vn -0 0.998711 0.050751
vn 0.015683 0.998711 0.048267
vn 0.02983 0.998711 0.041057
vn 0.041058 0.998711 0.02983
vn 0.048267 0.998711 0.015683
vn 0.050751 0.998711 -0
vn 0.692096 -0.685882 -0.224874
vn 0.58873 -0.685884 -0.427738
vn 0.427739 -0.68588 -0.588733
vn 0.224876 -0.685882 -0.692096
vn 0 -0.68588 -0.727714
vn -0.224876 -0.685882 -0.692096
vn -0.42774 -0.68588 -0.588734
vn -0.588737 -0.685878 -0.427739
vn -0.692103 -0.685874 -0.224878
vn -0.727725 -0.685869 0
vn -0.692102 -0.685875 0.224878
vn -0.588732 -0.685883 0.427738
vn -0.427737 -0.685885 0.58873
vn -0.224876 -0.685883 0.692095
vn 0 -0.685881 0.727713
vn 0.224876 -0.685883 0.692095
vn 0.427736 -0.685885 0.58873
vn 0.588732 -0.685882 0.427739
vn 0.6921 -0.685877 0.224878
vn 0.72772 -0.685874 1e-06
vn 0.692096 0.685883 -0.224875
vn 0.72772 0.685875 1e-06
vn 0.58873 0.685885 -0.427738
vn 0.427739 0.685881 -0.588732
vn 0.224875 0.685881 -0.692097
vn 0 0.68588 -0.727714
vn -0.224876 0.685883 -0.692095
vn -0.427739 0.68588 -0.588733
vn -0.588736 0.685879 -0.427739
vn -0.692102 0.685875 -0.224879
vn -0.727724 0.68587 0
vn -0.692101 0.685876 0.224877
vn -0.588732 0.685883 0.427737
vn -0.427737 0.685885 0.58873
vn -0.224876 0.685884 0.692094
vn 0 0.685881 0.727713
vn 0.224875 0.685883 0.692095
vn 0.427739 0.685882 0.588732
vn 0.588733 0.685879 0.427741
vn 0.6921 0.685878 0.224878
vt 0.010937 0.017445
vt 0.010937 0.003968
vt 0.02301 0.017445
vt 0.02301 0.003968
vt 0.010937 0.996032
vt 0.010937 0.926708
vt 0.02301 0.996032
vt 0.02301 0.926708
vt 0.010937 0.852175
vt 0.02301 0.852175
vt 0.010937 0.775038
vt 0.02301 0.775038
vt 0.010937 0.697319
vt 0.02301 0.697319
vt 0.010937 0.62037
vt 0.02301 0.62037
vt 0.010937 0.545281
vt 0.02301 0.545281
vt 0.010937 0.473019
vt 0.02301 0.473019
vt 0.010937 0.404593
vt 0.02301 0.404593
vt 0.010937 0.340773
vt 0.02301 0.340773
vt 0.010937 0.282222
vt 0.02301 0.282222
vt 0.010937 0.229678
vt 0.02301 0.229678
vt 0.010937 0.183904
vt 0.02301 0.183904
vt 0.010937 0.144976
vt 0.02301 0.144976
vt 0.010937 0.112504
vt 0.02301 0.112504
vt 0.010937 0.085864
vt 0.02301 0.085864
vt 0.010937 0.064255
vt 0.02301 0.064255
vt 0.010937 0.046492
vt 0.02301 0.046492
vt 0.010937 0.03131
vt 0.02301 0.03131
vt 0.109093 0.041819
vt 0.150764 0.020587
vt 0.196404 0.161055
vt 0.076746 0.074621
vt 0.056052 0.115682
vt 0.049014 0.161108
vt 0.056222 0.206547
vt 0.077122 0.247534
vt 0.109647 0.28015
vt 0.150719 0.301212
vt 0.196337 0.308533
vt 0.241978 0.301318
vt 0.283144 0.280328
vt 0.315747 0.247591
vt 0.336595 0.206411
vt 0.343736 0.160905
vt 0.336554 0.115462
vt 0.315677 0.074464
vt 0.283282 0.04185
vt 0.242405 0.020795
vt 0.196955 0.013271
vt 0.56135 0.020053
vt 0.603021 0.041285
vt 0.516207 0.160774
vt 0.636091 0.074355
vt 0.656718 0.115548
vt 0.663711 0.160993
vt 0.656367 0.206371
vt 0.63547 0.24736
vt 0.602927 0.279881
vt 0.561915 0.300851
vt 0.516346 0.30819
vt 0.470698 0.301056
vt 0.42952 0.280089
vt 0.396855 0.247406
vt 0.375964 0.206196
vt 0.368862 0.160589
vt 0.376132 0.115104
vt 0.397005 0.074104
vt 0.42953 0.041565
vt 0.470417 0.020557
vt 0.5158 0.013164
vt 0.00268 0.017445
vt 0.00268 0.003968
vt 0.147123 0.009383
vt 0.103471 0.03452
vt 0.00268 0.996032
vt 0.00268 0.926708
vt 0.069401 0.069369
vt 0.00268 0.852175
vt 0.047446 0.11292
vt 0.00268 0.775038
vt 0.039992 0.161113
vt 0.00268 0.697319
vt 0.047612 0.209345
vt 0.00268 0.62037
vt 0.0698 0.252833
vt 0.00268 0.545281
vt 0.1043 0.287454
vt 0.00268 0.473019
vt 0.147891 0.309846
vt 0.00268 0.404593
vt 0.196315 0.317616
vt 0.00268 0.340773
vt 0.244791 0.309975
vt 0.00268 0.282222
vt 0.288501 0.287663
vt 0.00268 0.229678
vt 0.32311 0.252914
vt 0.00268 0.183904
vt 0.345213 0.209176
vt 0.00268 0.144976
vt 0.352775 0.160889
vt 0.00268 0.112504
vt 0.345163 0.112665
vt 0.00268 0.085864
vt 0.322978 0.069166
vt 0.00268 0.064255
vt 0.288621 0.034558
vt 0.00268 0.046492
vt 0.24526 0.012229
vt 0.00268 0.03131
vt 0.197214 0.004061
vt 0.030627 0.017445
vt 0.030627 0.03131
vt 0.563951 0.011214
vt 0.515732 0.004135
vt 0.609946 0.031754
vt 0.030627 0.003968
vt 0.643694 0.069151
vt 0.030627 0.996032
vt 0.030627 0.926708
vt 0.665327 0.112822
vt 0.030627 0.852175
vt 0.672749 0.161026
vt 0.030627 0.775038
vt 0.664945 0.209164
vt 0.030627 0.697319
vt 0.642794 0.25268
vt 0.030627 0.62037
vt 0.608253 0.287183
vt 0.030627 0.545281
vt 0.564743 0.309449
vt 0.030627 0.473019
vt 0.516367 0.317275
vt 0.030627 0.404593
vt 0.467912 0.3097
vt 0.030627 0.340773
vt 0.424169 0.287453
vt 0.030627 0.282222
vt 0.389494 0.252726
vt 0.030627 0.229678
vt 0.367317 0.208984
vt 0.030627 0.183904
vt 0.359811 0.160556
vt 0.030627 0.144976
vt 0.367541 0.112295
vt 0.030627 0.112504
vt 0.389682 0.068784
vt 0.030627 0.085864
vt 0.424223 0.034269
vt 0.030627 0.064255
vt 0.467594 0.011972
vt 0.030627 0.046492
usemtl TopSG
f 1/1/1 2/2/2 3/3/3
f 3/3/3 2/2/2 4/4/4
f 2/5/2 5/6/5 4/7/4
f 4/7/4 5/6/5 6/8/6
f 5/6/5 7/9/7 6/8/6
f 6/8/6 7/9/7 8/10/8
f 7/9/7 9/11/9 8/10/8
f 8/10/8 9/11/9 10/12/10
f 9/11/9 11/13/11 10/12/10
f 10/12/10 11/13/11 12/14/12
f 11/13/11 13/15/13 12/14/12
f 12/14/12 13/15/13 14/16/14
f 13/15/13 15/17/15 14/16/14
f 14/16/14 15/17/15 16/18/16
f 15/17/15 17/19/17 16/18/16
f 16/18/16 17/19/17 18/20/18
f 17/19/17 19/21/19 18/20/18
f 18/20/18 19/21/19 20/22/20
f 19/21/19 21/23/21 20/22/20
f 20/22/20 21/23/21 22/24/22
f 21/23/21 23/25/23 22/24/22
f 22/24/22 23/25/23 24/26/24
f 23/25/23 25/27/25 24/26/24
f 24/26/24 25/27/25 26/28/26
f 25/27/25 27/29/27 26/28/26
f 26/28/26 27/29/27 28/30/28
f 27/29/27 29/31/29 28/30/28
f 28/30/28 29/31/29 30/32/30
f 29/31/29 31/33/31 30/32/30
f 30/32/30 31/33/31 32/34/32
f 31/33/31 33/35/33 32/34/32
f 32/34/32 33/35/33 34/36/34
f 33/35/33 35/37/35 34/36/34
f 34/36/34 35/37/35 36/38/36
f 35/37/35 37/39/37 36/38/36
f 36/38/36 37/39/37 38/40/38
f 37/39/37 39/41/39 38/40/38
f 38/40/38 39/41/39 40/42/40
f 39/41/39 1/1/1 40/42/40
f 40/42/40 1/1/1 3/3/3
f 41/43/41 42/44/42 43/45/43
f 44/46/44 41/43/41 43/45/43
f 45/47/45 44/46/44 43/45/43
f 46/48/46 45/47/45 43/45/43
f 47/49/47 46/48/46 43/45/43
f 48/50/48 47/49/47 43/45/43
f 49/51/49 48/50/48 43/45/43
f 50/52/50 49/51/49 43/45/43
f 51/53/51 50/52/50 43/45/43
f 52/54/52 51/53/51 43/45/43
f 53/55/53 52/54/52 43/45/43
f 54/56/54 53/55/53 43/45/43
f 55/57/55 54/56/54 43/45/43
f 56/58/56 55/57/55 43/45/43
f 57/59/57 56/58/56 43/45/43
f 58/60/58 57/59/57 43/45/43
f 59/61/59 58/60/58 43/45/43
f 60/62/60 59/61/59 43/45/43
f 61/63/61 60/62/60 43/45/43
f 42/44/42 61/63/61 43/45/43
f 62/64/62 63/65/63 64/66/64
f 63/65/63 65/67/65 64/66/64
f 65/67/65 66/68/66 64/66/64
f 66/68/66 67/69/67 64/66/64
f 67/69/67 68/70/68 64/66/64
f 68/70/68 69/71/69 64/66/64
f 69/71/69 70/72/70 64/66/64
f 70/72/70 71/73/71 64/66/64
f 71/73/71 72/74/72 64/66/64
f 72/74/72 73/75/73 64/66/64
f 73/75/73 74/76/74 64/66/64
f 74/76/74 75/77/75 64/66/64
f 75/77/75 76/78/76 64/66/64
f 76/78/76 77/79/77 64/66/64
f 77/79/77 78/80/78 64/66/64
f 78/80/78 79/81/79 64/66/64
f 79/81/79 80/82/80 64/66/64
f 80/82/80 81/83/81 64/66/64
f 81/83/81 82/84/82 64/66/64
f 82/84/82 62/64/62 64/66/64
f 1/1/1 83/85/83 2/2/2
f 2/2/2 83/85/83 84/86/84
f 83/87/83 42/44/42 84/88/84
f 84/88/84 42/44/42 41/43/41
f 2/5/2 84/89/84 5/6/5
f 5/6/5 84/89/84 85/90/85
f 84/88/84 41/43/41 85/91/85
f 85/91/85 41/43/41 44/46/44
f 5/6/5 85/90/85 7/9/7
f 7/9/7 85/90/85 86/92/86
f 85/91/85 44/46/44 86/93/86
f 86/93/86 44/46/44 45/47/45
f 7/9/7 86/92/86 9/11/9
f 9/11/9 86/92/86 87/94/87
f 86/93/86 45/47/45 87/95/87
f 87/95/87 45/47/45 46/48/46
f 9/11/9 87/94/87 11/13/11
f 11/13/11 87/94/87 88/96/88
f 87/95/87 46/48/46 88/97/88
f 88/97/88 46/48/46 47/49/47
f 11/13/11 88/96/88 13/15/13
f 13/15/13 88/96/88 89/98/89
f 88/97/88 47/49/47 89/99/89
f 89/99/89 47/49/47 48/50/48
f 13/15/13 89/98/89 15/17/15
f 15/17/15 89/98/89 90/100/90
f 89/99/89 48/50/48 90/101/90
f 90/101/90 48/50/48 49/51/49
f 15/17/15 90/100/90 17/19/17
f 17/19/17 90/100/90 91/102/91
f 90/101/90 49/51/49 91/103/91
f 91/103/91 49/51/49 50/52/50
f 17/19/17 91/102/91 19/21/19
f 19/21/19 91/102/91 92/104/92
f 91/103/91 50/52/50 92/105/92
f 92/105/92 50/52/50 51/53/51
f 19/21/19 92/104/92 21/23/21
f 21/23/21 92/104/92 93/106/93
f 92/105/92 51/53/51 93/107/93
f 93/107/93 51/53/51 52/54/52
f 21/23/21 93/106/93 23/25/23
f 23/25/23 93/106/93 94/108/94
f 93/107/93 52/54/52 94/109/94
f 94/109/94 52/54/52 53/55/53
f 23/25/23 94/108/94 25/27/25
f 25/27/25 94/108/94 95/110/95
f 94/109/94 53/55/53 95/111/95
f 95/111/95 53/55/53 54/56/54
f 25/27/25 95/110/95 27/29/27
f 27/29/27 95/110/95 96/112/96
f 95/111/95 54/56/54 96/113/96
f 96/113/96 54/56/54 55/57/55
f 27/29/27 96/112/96 29/31/29
f 29/31/29 96/112/96 97/114/97
f 96/113/96 55/57/55 97/115/97
f 97/115/97 55/57/55 56/58/56
f 29/31/29 97/114/97 31/33/31
f 31/33/31 97/114/97 98/116/98
f 97/115/97 56/58/56 98/117/98
f 98/117/98 56/58/56 57/59/57
f 31/33/31 98/116/98 33/35/33
f 33/35/33 98/116/98 99/118/99
f 98/117/98 57/59/57 99/119/99
f 99/119/99 57/59/57 58/60/58
f 33/35/33 99/118/99 35/37/35
f 35/37/35 99/118/99 100/120/100
f 99/119/99 58/60/58 100/121/100
f 100/121/100 58/60/58 59/61/59
f 35/37/35 100/120/100 37/39/37
f 37/39/37 100/120/100 101/122/101
f 100/121/100 59/61/59 101/123/101
f 101/123/101 59/61/59 60/62/60
f 37/39/37 101/122/101 39/41/39
f 39/41/39 101/122/101 102/124/102
f 101/123/101 60/62/60 102/125/102
f 102/125/102 60/62/60 61/63/61
f 42/44/42 83/87/83 61/63/61
f 61/63/61 83/87/83 102/125/102
f 83/85/83 1/1/1 102/124/102
f 102/124/102 1/1/1 39/41/39
f 3/3/3 103/126/103 40/42/40
f 40/42/40 103/126/103 104/127/104
f 103/128/103 62/64/62 104/129/104
f 104/129/104 62/64/62 82/84/82
f 62/64/62 103/128/103 63/65/63
f 63/65/63 103/128/103 105/130/105
f 103/126/103 3/3/3 105/131/105
f 105/131/105 3/3/3 4/4/4
f 63/65/63 105/130/105 65/67/65
f 65/67/65 105/130/105 106/132/106
f 105/133/105 4/7/4 106/134/106
f 106/134/106 4/7/4 6/8/6
f 65/67/65 106/132/106 66/68/66
f 66/68/66 106/132/106 107/135/107
f 106/134/106 6/8/6 107/136/107
f 107/136/107 6/8/6 8/10/8
f 66/68/66 107/135/107 67/69/67
f 67/69/67 107/135/107 108/137/108
f 107/136/107 8/10/8 108/138/108
f 108/138/108 8/10/8 10/12/10
f 67/69/67 108/137/108 68/70/68
f 68/70/68 108/137/108 109/139/109
f 108/138/108 10/12/10 109/140/109
f 109/140/109 10/12/10 12/14/12
f 68/70/68 109/139/109 69/71/69
f 69/71/69 109/139/109 110/141/110
f 109/140/109 12/14/12 110/142/110
f 110/142/110 12/14/12 14/16/14
f 69/71/69 110/141/110 70/72/70
f 70/72/70 110/141/110 111/143/111
f 110/142/110 14/16/14 111/144/111
f 111/144/111 14/16/14 16/18/16
f 70/72/70 111/143/111 71/73/71
f 71/73/71 111/143/111 112/145/112
f 111/144/111 16/18/16 112/146/112
f 112/146/112 16/18/16 18/20/18
f 71/73/71 112/145/112 72/74/72
f 72/74/72 112/145/112 113/147/113
f 112/146/112 18/20/18 113/148/113
f 113/148/113 18/20/18 20/22/20
f 72/74/72 113/147/113 73/75/73
f 73/75/73 113/147/113 114/149/114
f 113/148/113 20/22/20 114/150/114
f 114/150/114 20/22/20 22/24/22
f 73/75/73 114/149/114 74/76/74
f 74/76/74 114/149/114 115/151/115
f 114/150/114 22/24/22 115/152/115
f 115/152/115 22/24/22 24/26/24
f 74/76/74 115/151/115 75/77/75
f 75/77/75 115/151/115 116/153/116
f 115/152/115 24/26/24 116/154/116
f 116/154/116 24/26/24 26/28/26
f 75/77/75 116/153/116 76/78/76
f 76/78/76 116/153/116 117/155/117
f 116/154/116 26/28/26 117/156/117
f 117/156/117 26/28/26 28/30/28
f 76/78/76 117/155/117 77/79/77
f 77/79/77 117/155/117 118/157/118
f 117/156/117 28/30/28 118/158/118
f 118/158/118 28/30/28 30/32/30
f 77/79/77 118/157/118 78/80/78
f 78/80/78 118/157/118 119/159/119
f 118/158/118 30/32/30 119/160/119
f 119/160/119 30/32/30 32/34/32
f 78/80/78 119/159/119 79/81/79
f 79/81/79 119/159/119 120/161/120
f 119/160/119 32/34/32 120/162/120
f 120/162/120 32/34/32 34/36/34
f 79/81/79 120/161/120 80/82/80
f 80/82/80 120/161/120 121/163/121
f 120/162/120 34/36/34 121/164/121
f 121/164/121 34/36/34 36/38/36
f 80/82/80 121/163/121 81/83/81
f 81/83/81 121/163/121 122/165/122
f 121/164/121 36/38/36 122/166/122
f 122/166/122 36/38/36 38/40/38
f 81/83/81 122/165/122 82/84/82
f 82/84/82 122/165/122 104/129/104
f 122/166/122 38/40/38 104/127/104
f 104/127/104 38/40/38 40/42/40
s off
g Table_LegSG
v -1.12553 -2.03721 0.108419
v -1.19874 -2.00498 0.108363
v -1.12553 -2.03721 -0.108418
v -1.19874 -2.00498 -0.108388
v -1.22441 -1.92923 0.108419
v -1.22441 -1.92923 -0.108418
v -1.12088 -1.93368 0.216816
v -1.12511 -2.00682 0.185083
v 1.12088 -1.93368 0.216816
v 1.12511 -2.00682 0.185083
v 1.12554 -2.03721 0.108419
v -1.1941 -1.93148 0.185083
v -0.908531 1.7421 0.117556
v -0.878193 1.74018 0.187766
v -0.805012 1.73745 0.216816
v 1.22441 -1.92923 0.108419
v 1.19875 -2.00498 0.108363
v 1.22441 -1.92923 -0.108418
v 1.19875 -2.00498 -0.108388
v 1.12554 -2.03721 -0.108418
v 1.19411 -1.93148 0.185083
v 0.878197 1.74018 0.187766
v 0.805023 1.73745 0.216816
v 0.908539 1.7421 0.117556
v -0.878536 1.73725 -0.186479
v -1.1941 -1.93148 -0.185083
v -0.908905 1.73785 -0.113288
v -0.805012 1.73745 -0.216815
v -1.12088 -1.93368 -0.216815
v 0.805023 1.73745 -0.216815
v 0.87854 1.73725 -0.186479
v 1.12088 -1.93368 -0.216815
v 1.19411 -1.93148 -0.185083
v 0.908909 1.73785 -0.113288
v -1.12511 -2.00682 -0.185083
v 1.12511 -2.00682 -0.185083
v -1.18465 -1.99208 0.170976
v 1.18465 -1.99208 0.170976
v -1.18465 -1.99208 -0.170985
v 1.18465 -1.99208 -0.170985
v 0.108418 -2.03721 1.12554
v 0.108364 -2.00498 1.19874
v -0.108421 -2.03721 1.12554
v -0.108387 -2.00498 1.19874
v 0.108418 -1.92923 1.22441
v -0.108421 -1.92923 1.22441
v 0.216816 -1.93368 1.12088
v 0.185081 -2.00682 1.12511
v 0.216816 -1.93368 -1.12088
v 0.185081 -2.00682 -1.12511
v 0.108418 -2.03721 -1.12554
v 0.185081 -1.93148 1.19411
v 0.117558 1.7421 0.908534
v 0.187767 1.74018 0.878193
v 0.216816 1.73745 0.805015
v 0.108418 -1.92923 -1.22441
v 0.108364 -2.00498 -1.19874
v -0.108421 -1.92923 -1.22441
v -0.108387 -2.00498 -1.19874
v -0.108421 -2.03721 -1.12554
v 0.185081 -1.93148 -1.19411
v 0.187767 1.74018 -0.878193
v 0.216816 1.73745 -0.805015
v 0.117558 1.7421 -0.908534
v -0.186481 1.73725 0.87854
v -0.185085 -1.93148 1.19411
v -0.113289 1.73785 0.908909
v -0.216816 1.73745 0.805015
v -0.216816 -1.93368 1.12088
v -0.216816 1.73745 -0.805015
v -0.186481 1.73725 -0.878541
v -0.216816 -1.93368 -1.12088
v -0.185085 -1.93148 -1.19411
v -0.113289 1.73785 -0.908909
v -0.185085 -2.00682 1.12511
v -0.185085 -2.00682 -1.12511
v 0.170975 -1.99208 1.18465
v 0.170975 -1.99208 -1.18465
v -0.170986 -1.99208 1.18465
v -0.170986 -1.99208 -1.18465
vn -0.012591 -0.994721 0.10184
vn -0.735463 -0.673482 0.074271
vn -0.012591 -0.994721 -0.101839
vn -0.735464 -0.673478 -0.074298
vn -0.991883 0.07751 0.100802
vn -0.991936 0.077619 -0.100187
vn -0.016357 -0.009144 0.999824
vn -0.009668 -0.728298 0.685192
vn 0.016357 -0.009144 0.999824
vn 0.009668 -0.728298 0.685193
vn 0.012591 -0.994721 0.10184
vn -0.711266 0.054603 0.700799
vn -0.991 0.085098 0.103328
vn -0.700477 0.059756 0.711169
vn -0.014041 0.001196 0.999901
vn 0.991883 0.07751 0.100802
vn 0.735474 -0.67347 0.074269
vn 0.991936 0.077619 -0.100193
vn 0.735474 -0.673467 -0.074296
vn 0.012591 -0.994721 -0.101839
vn 0.711272 0.054603 0.700792
vn 0.700484 0.059756 0.711162
vn 0.014041 0.001196 0.999901
vn 0.991 0.085098 0.103328
vn -0.702768 0.06019 -0.708869
vn -0.718065 0.055483 -0.693761
vn -0.991185 0.08519 -0.101464
vn -0.013998 0.001198 -0.999901
vn -0.016691 -0.009109 -0.999819
vn 0.013998 0.001198 -0.999901
vn 0.702781 0.060191 -0.708855
vn 0.016691 -0.009109 -0.999819
vn 0.718078 0.055484 -0.693748
vn 0.991184 0.08519 -0.10147
vn -0.009665 -0.728301 -0.68519
vn 0.009665 -0.7283 -0.68519
vn -0.6108 -0.55933 0.560423
vn 0.610808 -0.559325 0.560419
vn -0.610767 -0.559286 -0.560502
vn 0.610773 -0.559282 -0.560499
vn 0.101839 -0.994721 0.012591
vn 0.074272 -0.673475 0.735469
vn -0.101838 -0.994721 0.012591
vn -0.074291 -0.673473 0.735469
vn 0.100808 0.07751 0.991882
vn -0.100184 0.077619 0.991937
vn 0.999824 -0.009145 0.016357
vn 0.685189 -0.728301 0.009668
vn 0.999824 -0.009145 -0.016357
vn 0.68519 -0.728301 -0.009668
vn 0.101839 -0.994721 -0.012591
vn 0.7008 0.054603 0.711265
vn 0.103334 0.085098 0.991
vn 0.711171 0.059756 0.700475
vn 0.999901 0.001195 0.014041
vn 0.100806 0.07751 -0.991882
vn 0.074271 -0.673471 -0.735473
vn -0.100185 0.077619 -0.991937
vn -0.07429 -0.673472 -0.73547
vn -0.101838 -0.994721 -0.012591
vn 0.700801 0.054603 -0.711264
vn 0.711172 0.059756 -0.700474
vn 0.999901 0.001195 -0.014041
vn 0.103332 0.085098 -0.991
vn -0.708878 0.060191 0.702759
vn -0.693769 0.055482 0.718057
vn -0.10146 0.08519 0.991185
vn -0.999901 0.001198 0.013997
vn -0.999819 -0.009108 0.01669
vn -0.999901 0.001198 -0.013997
vn -0.708877 0.06019 -0.702759
vn -0.999819 -0.009109 -0.01669
vn -0.693768 0.055482 -0.718058
vn -0.101461 0.08519 -0.991185
vn -0.685196 -0.728294 0.009666
vn -0.685196 -0.728294 -0.009666
vn 0.560423 -0.559329 0.610801
vn 0.560427 -0.559317 -0.610808
vn -0.560493 -0.559291 0.610771
vn -0.56049 -0.559295 -0.61077
vt 0.022977 0.387645
vt 0.021184 0.379024
vt 0.047471 0.384679
vt 0.047038 0.375968
vt 0.018524 0.36933
vt 0.047362 0.365983
vt 0.003968 0.39017
vt 0.012995 0.388772
vt 0.035557 0.644691
vt 0.044649 0.64386
vt 0.053878 0.642665
vt 0.064 0.339349
vt 0.06374 0.329912
vt 0.48519 0.32466
vt 0.484985 0.315918
vt 0.063909 0.320779
vt 0.485097 0.306915
vt 0.054117 0.661134
vt 0.054355 0.651265
vt 0.082547 0.657637
vt 0.079902 0.648128
vt 0.078232 0.639685
vt 0.078448 0.055616
vt 0.495753 0.114175
vt 0.077642 0.064712
vt 0.494904 0.123139
vt 0.079714 0.046271
vt 0.496886 0.105501
vt 0.486078 0.360083
vt 0.065126 0.373593
vt 0.485556 0.351043
vt 0.064787 0.364158
vt 0.487112 0.369114
vt 0.065878 0.382701
vt 0.503517 0.061483
vt 0.501531 0.070357
vt 0.086207 0.003413
vt 0.084487 0.012379
vt 0.500051 0.079296
vt 0.083144 0.021712
vt 0.056748 0.383505
vt 0.087465 0.638623
vt 0.096465 0.637242
vt 0.508843 0.551844
vt 0.007261 0.377324
vt 0.013917 0.381731
vt 0.046956 0.650361
vt 0.041625 0.656071
vt 0.05449 0.376934
vt 0.059898 0.371221
vt 0.093409 0.64969
vt 0.08685 0.645466
vt 0.510856 0.582898
vt 0.509059 0.574343
vt 0.535151 0.580129
vt 0.534775 0.571492
vt 0.50644 0.564658
vt 0.535188 0.561588
vt 0.491835 0.585369
vt 0.500868 0.584025
vt 0.521852 0.839961
vt 0.530949 0.839185
vt 0.540194 0.838048
vt 0.551454 0.535038
vt 0.551179 0.525627
vt 0.972486 0.520191
vt 0.972274 0.511432
vt 0.551336 0.516513
vt 0.972377 0.502412
vt 0.540214 0.856546
vt 0.540562 0.846661
vt 0.568707 0.853235
vt 0.566145 0.843696
vt 0.564615 0.835209
vt 0.565257 0.25166
vt 0.982718 0.309443
vt 0.564477 0.260748
vt 0.981889 0.31842
vt 0.566497 0.24232
vt 0.983831 0.300761
vt 0.973393 0.555683
vt 0.552628 0.56919
vt 0.972867 0.546625
vt 0.552276 0.559782
vt 0.974431 0.564731
vt 0.553394 0.578271
vt 0.990362 0.256712
vt 0.988396 0.265592
vt 0.572875 0.199473
vt 0.571177 0.20844
vt 0.986938 0.274536
vt 0.56986 0.217773
vt 0.544346 0.579021
vt 0.573888 0.834192
vt 0.582943 0.832853
vt 0.996032 0.747781
vt 0.495118 0.572598
vt 0.5018 0.577027
vt 0.533157 0.845703
vt 0.527767 0.851352
vt 0.542164 0.572514
vt 0.54756 0.566907
vt 0.579643 0.84539
vt 0.573142 0.841083
usemtl LegSG
f 123/167/123 124/168/124 125/169/125
f 125/169/125 124/168/124 126/170/126
f 124/168/124 127/171/127 126/170/126
f 126/170/126 127/171/127 128/172/128
f 129/173/129 130/174/130 131/175/131
f 131/175/131 130/174/130 132/176/132
f 130/174/130 123/167/123 132/176/132
f 132/176/132 123/167/123 133/177/133
f 127/178/127 134/179/134 135/180/135
f 135/180/135 134/179/134 136/181/136
f 134/179/134 129/182/129 136/181/136
f 136/181/136 129/182/129 137/183/137
f 138/184/138 139/185/139 140/186/140
f 140/186/140 139/185/139 141/187/141
f 139/185/139 133/177/133 141/187/141
f 141/187/141 133/177/133 142/188/142
f 143/189/143 144/190/144 131/191/131
f 131/191/131 144/190/144 145/192/145
f 143/189/143 138/193/138 144/190/144
f 144/190/144 138/193/138 146/194/146
f 147/195/147 148/196/148 149/197/149
f 149/197/149 148/196/148 128/198/128
f 150/199/150 151/200/151 147/195/147
f 147/195/147 151/200/151 148/196/148
f 152/201/152 153/202/153 154/203/154
f 154/203/154 153/202/153 155/204/155
f 153/202/153 156/205/156 155/204/155
f 155/204/155 156/205/156 140/206/140
f 125/169/125 157/207/157 142/188/142
f 142/188/142 157/207/157 158/208/158
f 157/207/157 151/200/151 158/208/158
f 158/208/158 151/200/151 154/209/154
f 129/182/129 131/191/131 137/183/137
f 137/183/137 131/191/131 145/192/145
f 150/199/150 152/210/152 151/200/151
f 151/200/151 152/210/152 154/209/154
f 125/169/125 142/188/142 123/167/123
f 123/167/123 142/188/142 133/177/133
f 140/206/140 156/205/156 138/193/138
f 138/193/138 156/205/156 146/194/146
f 128/198/128 127/178/127 149/197/149
f 149/197/149 127/178/127 135/180/135
f 134/211/134 127/171/127 159/212/159
f 159/212/159 127/171/127 124/168/124
f 124/168/124 123/167/123 159/212/159
f 159/212/159 123/167/123 130/174/130
f 130/174/130 129/173/129 159/212/159
f 159/212/159 129/173/129 134/211/134
f 132/176/132 133/177/133 160/213/160
f 160/213/160 133/177/133 139/185/139
f 139/185/139 138/184/138 160/213/160
f 160/213/160 138/184/138 143/214/143
f 143/214/143 131/175/131 160/213/160
f 160/213/160 131/175/131 132/176/132
f 157/207/157 125/169/125 161/215/161
f 161/215/161 125/169/125 126/170/126
f 126/170/126 128/172/128 161/215/161
f 161/215/161 128/172/128 148/216/148
f 148/216/148 151/200/151 161/215/161
f 161/215/161 151/200/151 157/207/157
f 155/217/155 140/186/140 162/218/162
f 162/218/162 140/186/140 141/187/141
f 141/187/141 142/188/142 162/218/162
f 162/218/162 142/188/142 158/208/158
f 158/208/158 154/209/154 162/218/162
f 162/218/162 154/209/154 155/217/155
f 163/219/163 164/220/164 165/221/165
f 165/221/165 164/220/164 166/222/166
f 164/220/164 167/223/167 166/222/166
f 166/222/166 167/223/167 168/224/168
f 169/225/169 170/226/170 171/227/171
f 171/227/171 170/226/170 172/228/172
f 170/226/170 163/219/163 172/228/172
f 172/228/172 163/219/163 173/229/173
f 167/230/167 174/231/174 175/232/175
f 175/232/175 174/231/174 176/233/176
f 174/231/174 169/234/169 176/233/176
f 176/233/176 169/234/169 177/235/177
f 178/236/178 179/237/179 180/238/180
f 180/238/180 179/237/179 181/239/181
f 179/237/179 173/229/173 181/239/181
f 181/239/181 173/229/173 182/240/182
f 183/241/183 184/242/184 171/243/171
f 171/243/171 184/242/184 185/244/185
f 183/241/183 178/245/178 184/242/184
f 184/242/184 178/245/178 186/246/186
f 187/247/187 188/248/188 189/249/189
f 189/249/189 188/248/188 168/250/168
f 190/251/190 191/252/191 187/247/187
f 187/247/187 191/252/191 188/248/188
f 192/253/192 193/254/193 194/255/194
f 194/255/194 193/254/193 195/256/195
f 193/254/193 196/257/196 195/256/195
f 195/256/195 196/257/196 180/258/180
f 165/221/165 197/259/197 182/240/182
f 182/240/182 197/259/197 198/260/198
f 197/259/197 191/252/191 198/260/198
f 198/260/198 191/252/191 194/261/194
f 169/234/169 171/243/171 177/235/177
f 177/235/177 171/243/171 185/244/185
f 190/251/190 192/262/192 191/252/191
f 191/252/191 192/262/192 194/261/194
f 165/221/165 182/240/182 163/219/163
f 163/219/163 182/240/182 173/229/173
f 180/258/180 196/257/196 178/245/178
f 178/245/178 196/257/196 186/246/186
f 168/250/168 167/230/167 189/249/189
f 189/249/189 167/230/167 175/232/175
f 174/263/174 167/223/167 199/264/199
f 199/264/199 167/223/167 164/220/164
f 164/220/164 163/219/163 199/264/199
f 199/264/199 163/219/163 170/226/170
f 170/226/170 169/225/169 199/264/199
f 199/264/199 169/225/169 174/263/174
f 172/228/172 173/229/173 200/265/200
f 200/265/200 173/229/173 179/237/179
f 179/237/179 178/236/178 200/265/200
f 200/265/200 178/236/178 183/266/183
f 183/266/183 171/227/171 200/265/200
f 200/265/200 171/227/171 172/228/172
f 197/259/197 165/221/165 201/267/201
f 201/267/201 165/221/165 166/222/166
f 166/222/166 168/224/168 201/267/201
f 201/267/201 168/224/168 188/268/188
f 188/268/188 191/252/191 201/267/201
f 201/267/201 191/252/191 197/259/197
f 195/269/195 180/238/180 202/270/202
f 202/270/202 180/238/180 181/239/181
f 181/239/181 182/240/182 202/270/202
f 202/270/202 182/240/182 198/260/198
f 198/260/198 194/261/194 202/270/202
f 202/270/202 194/261/194 195/269/195
s off
