# Apple ModelIO OBJ File: MenuBoard
mtllib MenuBoard.mtl
g MenuBoard_FrameSG
v -4.69607 -2.75312 0.226606
v -4.60236 -2.66965 0.226606
v -4.71569 -2.71518 0.226606
v -4.61892 -2.62657 0.226606
v -4.64868 -2.76884 0.226606
v -4.56241 -2.68749 0.226606
v -4.77573 -2.77216 0.169884
v -4.75832 -2.75533 0.20999
v -4.77573 2.77332 0.171041
v -4.7584 2.75611 0.210327
v -4.71569 2.71518 0.226606
v -4.72018 -2.82888 0.171055
v -4.75947 -2.81227 0.170471
v -4.71785 -2.82888 -0.226606
v -4.75878 -2.81193 -0.226606
v -4.77573 -2.77099 -0.226606
v -4.69876 -2.81192 0.210365
v 4.64868 -2.76884 0.226606
v 4.69794 -2.81187 0.210024
v 4.71902 -2.82888 0.169888
v 4.69607 -2.75312 0.226606
v 4.56239 -2.68688 0.226606
v 4.60272 -2.66921 0.226606
v 4.71569 -2.71518 0.226606
v 4.61941 -2.62656 0.226606
v 4.77573 -2.77332 0.171041
v 4.75912 -2.81261 0.170469
v 4.77573 -2.77099 -0.226606
v 4.75878 -2.81193 -0.226606
v 4.71785 -2.82888 -0.226606
v 4.7584 -2.75611 0.210327
v 4.71569 2.71518 0.226606
v 4.75833 2.75533 0.20999
v 4.77573 2.77216 0.169884
v -4.64868 2.76884 0.226606
v -4.69607 2.75312 0.226606
v -4.56239 2.68688 0.226606
v -4.60271 2.66921 0.226606
v -4.61941 2.62656 0.226606
v -4.71901 2.82888 0.169888
v -4.69794 2.81187 0.210024
v 4.72018 2.82888 0.171055
v 4.69877 2.81192 0.210365
v 4.64868 2.76884 0.226606
v -4.75912 2.81261 0.170469
v -4.77573 2.771 -0.226606
v -4.75878 2.81193 -0.226606
v -4.71785 2.82888 -0.226606
v 4.69607 2.75312 0.226606
v 4.60236 2.66965 0.226606
v 4.61892 2.62657 0.226606
v 4.56241 2.68749 0.226606
v 4.75946 2.81227 0.170471
v 4.71785 2.82888 -0.226606
v 4.75878 2.81193 -0.226606
v 4.77573 2.771 -0.226606
v -4.5602 -2.57209 0.169994
v -4.54355 -2.61212 0.169872
v -4.5602 -2.57082 0.003511
v -4.54324 -2.61175 0.003511
v -4.50335 -2.62871 0.169764
v -4.50231 -2.62871 0.003511
v -4.57735 -2.58824 0.210045
v -4.57756 2.58817 0.210035
v -4.5602 2.5721 0.169994
v -4.52049 -2.64621 0.209982
v 4.50336 -2.62871 0.169764
v 4.52057 -2.64594 0.209978
v 4.54355 -2.61212 0.169872
v 4.54324 -2.61175 0.003511
v 4.50231 -2.62871 0.003511
v 4.5602 -2.57082 0.003511
v 4.54502 -2.60744 0.003511
v 4.5602 -2.57209 0.169994
v 4.57756 -2.58816 0.210035
v 4.5602 2.5721 0.169994
v 4.57735 2.58824 0.210045
v 4.54355 2.61213 0.169872
v 4.5602 2.57082 0.003511
v 4.54324 2.61175 0.003511
v 4.50336 2.62871 0.169764
v 4.50231 2.62871 0.003511
v 4.52049 2.64621 0.209982
v -4.50335 2.62871 0.169764
v -4.52057 2.64595 0.209978
v -4.54355 2.61213 0.169872
v -4.54324 2.61175 0.003511
v -4.50231 2.62871 0.003511
v -4.5602 2.57082 0.003511
v -4.54487 2.60781 0.003511
v -4.74101 -2.79503 0.210167
v 4.74079 -2.79525 0.210167
v -4.74079 2.79525 0.210167
v 4.74101 2.79503 0.210167
v -4.56053 -2.62936 0.210018
v 4.56072 -2.62913 0.210012
v 4.56053 2.62936 0.210018
v -4.56072 2.62913 0.210012
vn -0.073848 -0.079692 0.99408
vn 0.051894 0.052356 0.997279
vn -0.216788 -0.000583 0.976219
vn 0.072686 0.0003 0.997355
vn -0.000271 -0.178888 0.983869
vn 0.000201 0.100717 0.994915
vn -0.999245 -0.003221 0.038713
vn -0.709367 -0.002369 0.704835
vn -0.999235 0.002792 0.039005
vn -0.70994 0.002287 0.704259
vn -0.217541 0.000555 0.976051
vn -0.001577 -0.999263 0.038352
vn -0.681105 -0.730246 0.053262
vn -0.001771 -0.999998 -9e-06
vn -0.710502 -0.703693 -0.001833
vn -0.999996 -0.002972 -1.2e-05
vn -0.001213 -0.702773 0.711414
vn 0.000282 -0.178317 0.983973
vn 0.001276 -0.702493 0.711689
vn 0.001946 -0.999273 0.038071
vn 0.071788 -0.081699 0.994068
vn -0.00021 0.100861 0.994901
vn -0.051597 0.052634 0.99728
vn 0.21754 -0.000555 0.976051
vn -0.072614 0.000292 0.99736
vn 0.999235 -0.002792 0.039003
vn 0.72805 -0.683097 0.057632
vn 0.999995 -0.003006 -1.4e-05
vn 0.703753 -0.710443 -0.001829
vn 0.001751 -0.999999 -7e-06
vn 0.709942 -0.002287 0.704257
vn 0.216784 0.000583 0.97622
vn 0.709368 0.002369 0.704835
vn 0.999245 0.003221 0.038711
vn -0.000282 0.178313 0.983974
vn -0.07179 0.081699 0.994068
vn 0.00021 -0.100862 0.9949
vn 0.051598 -0.052634 0.99728
vn 0.072615 -0.000292 0.99736
vn -0.001946 0.999273 0.038067
vn -0.001276 0.702495 0.711688
vn 0.001577 0.999263 0.038349
vn 0.001213 0.702775 0.711411
vn 0.000271 0.178884 0.98387
vn -0.728046 0.683102 0.057632
vn -0.999995 0.003006 -1.5e-05
vn -0.703748 0.710448 -0.001832
vn -0.001751 0.999999 -7e-06
vn 0.073847 0.079689 0.994081
vn -0.051896 -0.052358 0.997279
vn -0.072686 -0.0003 0.997355
vn -0.000201 -0.100719 0.994915
vn 0.681106 0.730245 0.05326
vn 0.001771 0.999998 -8e-06
vn 0.710502 0.703693 -0.001832
vn 0.999996 0.002972 -1.2e-05
vn 0.996342 0.003164 0.085397
vn 0.706851 0.697159 0.119715
vn 0.999995 0.003237 2.3e-05
vn 0.70652 0.707687 0.002888
vn 0.001868 0.996369 0.085117
vn 0.001853 0.999998 1.3e-05
vn 0.667503 0.002073 0.744605
vn 0.667497 -0.002028 0.74461
vn 0.996342 -0.003156 0.085394
vn 0.00124 0.680931 0.732346
vn -0.001873 0.996369 0.085118
vn -0.001271 0.680965 0.732314
vn -0.70666 0.697378 0.119566
vn -0.706534 0.707673 0.002889
vn -0.001853 0.999998 1.3e-05
vn -0.999995 0.003237 2.3e-05
vn -0.923618 0.383304 0.002753
vn -0.996341 0.003156 0.085405
vn -0.667488 0.002028 0.744618
vn -0.996341 -0.003164 0.085408
vn -0.667494 -0.002073 0.744613
vn -0.706874 -0.697133 0.119725
vn -0.999995 -0.003237 2.3e-05
vn -0.706547 -0.70766 0.002898
vn -0.001868 -0.996369 0.085118
vn -0.001854 -0.999998 1.3e-05
vn -0.00124 -0.680954 0.732325
vn 0.001873 -0.996369 0.085118
vn 0.001271 -0.680986 0.732295
vn 0.706657 -0.69738 0.119571
vn 0.706533 -0.707674 0.002901
vn 0.001854 -0.999998 1.3e-05
vn 0.999995 -0.003237 2.3e-05
vn 0.923601 -0.383345 0.002759
vn -0.379376 -0.400444 0.834098
vn 0.369006 -0.406065 0.83603
vn -0.369012 0.406057 0.836031
vn 0.37938 0.400441 0.834097
vn 0.39835 0.385719 0.832189
vn -0.397425 0.387146 0.831968
vn -0.39837 -0.385729 0.832175
vn 0.397434 -0.387153 0.831961
vt 0.013566 0.98759
vt 0.022027 0.978064
vt 0.017492 0.989449
vt 0.026276 0.979932
vt 0.011886 0.98287
vt 0.020289 0.973893
vt 0.788857 0.010202
vt 0.793323 0.011914
vt 0.789144 0.5763
vt 0.793527 0.574547
vt 0.013516 0.993948
vt 0.556676 0.996032
vt 0.552655 0.991508
vt 0.617548 0.973918
vt 0.617556 0.978264
vt 0.576952 0.973677
vt 0.576953 0.978211
vt 0.788997 0.005775
vt 0.74838 0.005795
vt 0.748382 0.010327
vt 0.00713 0.988086
vt 0.008429 0.018014
vt 0.003629 0.012918
vt 0.621921 0.971735
vt 0.622121 0.012433
vt 0.61767 0.010284
vt 0.010098 0.013218
vt 0.01696 0.026936
vt 0.018664 0.022736
vt 0.014007 0.011295
vt 0.022876 0.020915
vt 0.844156 0.575484
vt 0.844162 0.579859
vt 0.803622 0.575243
vt 0.803618 0.579764
vt 0.617815 0.005875
vt 0.577193 0.005858
vt 0.577194 0.010389
vt 0.009914 0.006729
vt 0.556352 0.011182
vt 0.560364 0.006608
vt 0.848788 0.573752
vt 0.848686 0.011908
vt 0.844227 0.010198
vt 0.558281 0.98494
vt 0.556569 0.98967
vt 0.549799 0.975938
vt 0.548101 0.980147
vt 0.54394 0.981975
vt 0.637218 0.972075
vt 0.632767 0.969926
vt 0.637129 0.008445
vt 0.632757 0.010628
vt 0.563054 0.990082
vt 0.566772 0.012704
vt 0.561965 0.017896
vt 0.789155 0.580649
vt 0.748551 0.57608
vt 0.748551 0.580611
vt 0.637073 0.976491
vt 0.677694 0.976493
vt 0.677696 0.971958
vt 0.560297 0.013109
vt 0.551751 0.022667
vt 0.54749 0.020855
vt 0.553477 0.026834
vt 0.637114 0.0041
vt 0.677724 0.008681
vt 0.677718 0.004153
vt 0.84437 0.005808
vt 0.803806 0.005784
vt 0.803802 0.010299
vt 0.863312 0.01151
vt 0.863508 0.007013
vt 0.880312 0.011648
vt 0.880349 0.007192
vt 0.734881 0.0053
vt 0.735039 0.009712
vt 0.718063 0.005353
vt 0.718065 0.009819
vt 0.030076 0.975539
vt 0.540169 0.977528
vt 0.858856 0.009865
vt 0.8589 0.538429
vt 0.863357 0.536792
vt 0.739518 0.007966
vt 0.734925 0.92931
vt 0.739393 0.931065
vt 0.024891 0.969527
vt 0.021559 0.031258
vt 0.734762 0.933785
vt 0.717904 0.933684
vt 0.717948 0.929196
vt 0.889363 0.009922
vt 0.889379 0.005895
vt 0.90636 0.00979
vt 0.88938 0.005424
vt 0.906136 0.005397
vt 0.910818 0.008154
vt 0.906335 0.535152
vt 0.910783 0.536795
vt 0.026715 0.025406
vt 0.543658 0.025321
vt 0.906203 0.539531
vt 0.889332 0.535028
vt 0.889335 0.539582
vt 0.7047 0.006117
vt 0.704927 0.010631
vt 0.687428 0.006457
vt 0.687956 0.010741
vt 0.709408 0.008887
vt 0.704419 0.930299
vt 0.708886 0.932056
vt 0.548834 0.031176
vt 0.545222 0.971573
vt 0.704259 0.934726
vt 0.687442 0.934661
vt 0.687444 0.930181
vt 0.880351 0.536653
vt 0.880368 0.540698
vt 0.880369 0.541131
vt 0.863561 0.541185
vt 0.009261 0.992501
vt 0.793876 0.007256
vt 0.622488 0.976702
vt 0.0056 0.008427
vt 0.622598 0.007501
vt 0.849272 0.5786
vt 0.560981 0.99449
vt 0.632275 0.974854
vt 0.794128 0.579231
vt 0.564676 0.00821
vt 0.849219 0.007284
vt 0.63219 0.005664
vt 0.739036 0.003968
vt 0.8593 0.005506
vt 0.026363 0.973787
vt 0.910256 0.004077
vt 0.738974 0.935189
vt 0.022984 0.027038
vt 0.708955 0.004786
vt 0.910242 0.540735
vt 0.547403 0.026957
vt 0.859384 0.542524
vt 0.708418 0.936089
vt 0.543795 0.975859
usemtl FrameSG
f 1/1/1 2/2/2 3/3/3
f 3/3/3 2/2/2 4/4/4
f 5/5/5 6/6/6 1/1/1
f 1/1/1 6/6/6 2/2/2
f 7/7/7 8/8/8 9/9/9
f 9/9/9 8/8/8 10/10/10
f 8/11/8 3/3/3 10/12/10
f 10/12/10 3/3/3 11/13/11
f 12/14/12 13/15/13 14/16/14
f 14/16/14 13/15/13 15/17/15
f 13/18/13 7/7/7 15/19/15
f 15/19/15 7/7/7 16/20/16
f 5/5/5 17/21/17 18/22/18
f 18/22/18 17/21/17 19/23/19
f 17/24/17 12/14/12 19/25/19
f 19/25/19 12/14/12 20/26/20
f 18/22/18 21/27/21 22/28/22
f 22/28/22 21/27/21 23/29/23
f 21/27/21 24/30/24 23/29/23
f 23/29/23 24/30/24 25/31/25
f 26/32/26 27/33/27 28/34/28
f 28/34/28 27/33/27 29/35/29
f 27/36/27 20/26/20 29/37/29
f 29/37/29 20/26/20 30/38/30
f 24/30/24 31/39/31 32/40/32
f 32/40/32 31/39/31 33/41/33
f 31/42/31 26/32/26 33/43/33
f 33/43/33 26/32/26 34/44/34
f 35/45/35 36/46/36 37/47/37
f 37/47/37 36/46/36 38/48/38
f 36/46/36 11/13/11 38/48/38
f 38/48/38 11/13/11 39/49/39
f 40/50/40 41/51/41 42/52/42
f 42/52/42 41/51/41 43/53/43
f 41/54/41 35/45/35 43/55/43
f 43/55/43 35/45/35 44/56/44
f 9/9/9 45/57/45 46/58/46
f 46/58/46 45/57/45 47/59/47
f 45/60/45 40/50/40 47/61/47
f 47/61/47 40/50/40 48/62/48
f 49/63/49 50/64/50 32/40/32
f 32/40/32 50/64/50 51/65/51
f 44/56/44 52/66/52 49/63/49
f 49/63/49 52/66/52 50/64/50
f 42/52/42 53/67/53 54/68/54
f 54/68/54 53/67/53 55/69/55
f 53/70/53 34/44/34 55/71/55
f 55/71/55 34/44/34 56/72/56
f 57/73/57 58/74/58 59/75/59
f 59/75/59 58/74/58 60/76/60
f 58/77/58 61/78/61 60/79/60
f 60/79/60 61/78/61 62/80/62
f 4/4/4 63/81/63 39/49/39
f 39/49/39 63/81/63 64/82/64
f 63/83/63 57/73/57 64/84/64
f 64/84/64 57/73/57 65/85/65
f 61/78/61 66/86/66 67/87/67
f 67/87/67 66/86/66 68/88/68
f 66/89/66 6/6/6 68/90/68
f 68/90/68 6/6/6 22/28/22
f 69/91/69 70/92/70 67/87/67
f 67/87/67 70/92/70 71/93/71
f 72/94/72 73/95/73 74/96/74
f 70/97/70 69/98/69 73/95/73
f 69/98/69 74/96/74 73/95/73
f 74/96/74 75/99/75 76/100/76
f 76/100/76 75/99/75 77/101/77
f 75/102/75 25/31/25 77/103/77
f 77/103/77 25/31/25 51/65/51
f 76/100/76 78/104/78 79/105/79
f 79/105/79 78/104/78 80/106/80
f 78/107/78 81/108/81 80/109/80
f 80/109/80 81/108/81 82/110/82
f 81/108/81 83/111/83 84/112/84
f 84/112/84 83/111/83 85/113/85
f 83/114/83 52/66/52 85/115/85
f 85/115/85 52/66/52 37/47/37
f 86/116/86 87/117/87 84/112/84
f 84/112/84 87/117/87 88/118/88
f 89/119/89 90/120/90 65/85/65
f 87/121/87 86/122/86 90/120/90
f 86/122/86 65/85/65 90/120/90
f 42/52/42 54/68/54 40/50/40
f 40/50/40 54/68/54 48/62/48
f 12/14/12 14/16/14 20/26/20
f 20/26/20 14/16/14 30/38/30
f 26/32/26 28/34/28 34/44/34
f 34/44/34 28/34/28 56/72/56
f 16/20/16 7/7/7 46/58/46
f 46/58/46 7/7/7 9/9/9
f 5/5/5 18/22/18 6/6/6
f 6/6/6 18/22/18 22/28/22
f 24/30/24 32/40/32 25/31/25
f 25/31/25 32/40/32 51/65/51
f 44/56/44 35/45/35 52/66/52
f 52/66/52 35/45/35 37/47/37
f 11/13/11 3/3/3 39/49/39
f 39/49/39 3/3/3 4/4/4
f 61/78/61 67/87/67 62/80/62
f 62/80/62 67/87/67 71/93/71
f 74/96/74 76/100/76 72/94/72
f 72/94/72 76/100/76 79/105/79
f 81/108/81 84/112/84 82/110/82
f 82/110/82 84/112/84 88/118/88
f 65/85/65 57/73/57 89/119/89
f 89/119/89 57/73/57 59/75/59
f 5/5/5 1/1/1 17/21/17
f 17/21/17 1/1/1 91/123/91
f 3/3/3 8/11/8 1/1/1
f 1/1/1 8/11/8 91/123/91
f 7/7/7 13/18/13 8/8/8
f 8/8/8 13/18/13 91/124/91
f 13/15/13 12/14/12 91/125/91
f 91/125/91 12/14/12 17/24/17
f 24/30/24 21/27/21 31/39/31
f 31/39/31 21/27/21 92/126/92
f 21/27/21 18/22/18 92/126/92
f 92/126/92 18/22/18 19/23/19
f 20/26/20 27/36/27 19/25/19
f 19/25/19 27/36/27 92/127/92
f 27/33/27 26/32/26 92/128/92
f 92/128/92 26/32/26 31/42/31
f 11/13/11 36/46/36 10/12/10
f 10/12/10 36/46/36 93/129/93
f 36/46/36 35/45/35 93/129/93
f 93/129/93 35/45/35 41/54/41
f 40/50/40 45/60/45 41/51/41
f 41/51/41 45/60/45 93/130/93
f 45/57/45 9/9/9 93/131/93
f 93/131/93 9/9/9 10/10/10
f 44/56/44 49/63/49 43/55/43
f 43/55/43 49/63/49 94/132/94
f 32/40/32 33/41/33 49/63/49
f 49/63/49 33/41/33 94/132/94
f 34/44/34 53/70/53 33/43/33
f 33/43/33 53/70/53 94/133/94
f 53/67/53 42/52/42 94/134/94
f 94/134/94 42/52/42 43/53/43
f 61/78/61 58/77/58 66/86/66
f 66/86/66 58/77/58 95/135/95
f 57/73/57 63/83/63 58/74/58
f 58/74/58 63/83/63 95/136/95
f 63/81/63 4/4/4 95/137/95
f 95/137/95 4/4/4 2/2/2
f 6/6/6 66/89/66 2/2/2
f 2/2/2 66/89/66 95/137/95
f 74/96/74 69/98/69 75/99/75
f 75/99/75 69/98/69 96/138/96
f 67/87/67 68/88/68 69/91/69
f 69/91/69 68/88/68 96/139/96
f 22/28/22 23/29/23 68/90/68
f 68/90/68 23/29/23 96/140/96
f 23/29/23 25/31/25 96/140/96
f 96/140/96 25/31/25 75/102/75
f 81/108/81 78/107/78 83/111/83
f 83/111/83 78/107/78 97/141/97
f 76/100/76 77/101/77 78/104/78
f 78/104/78 77/101/77 97/142/97
f 77/103/77 51/65/51 97/143/97
f 97/143/97 51/65/51 50/64/50
f 52/66/52 83/114/83 50/64/50
f 50/64/50 83/114/83 97/143/97
f 65/85/65 86/122/86 64/84/64
f 64/84/64 86/122/86 98/144/98
f 84/112/84 85/113/85 86/116/86
f 86/116/86 85/113/85 98/145/98
f 37/47/37 38/48/38 85/115/85
f 85/115/85 38/48/38 98/146/98
f 38/48/38 39/49/39 98/146/98
f 98/146/98 39/49/39 64/82/64
s off
g MenuBoard_MainSG
v 4.73683 2.71871 0.003511
v -4.73695 2.71871 0.003511
v 4.73683 -2.71902 0.003511
v -4.73695 -2.71902 0.003511
vn -0 0 1
vt 0.571756 0.003975
vt 0.57166 0.996032
vt 0.002307 0.003968
vt 0.002278 0.995999
usemtl MainSG
f 99/147/99 100/148/99 101/149/99
f 101/149/99 100/148/99 102/150/99
s off
