# Apple ModelIO OBJ File: IchigoAme_OrangePlate
mtllib IchigoAme_OrangePlate.mtl
g IchigoAme_OrangePlate_UnderSG
v 0.465473 0 -0.151247
v 0.395956 0 -0.287683
v 0.304575 0.676948 -0.098967
v 0.259087 0.676948 -0.188242
v 0.28768 0 -0.39596
v 0.188238 0.676948 -0.25909
v 0.151243 0 -0.465477
v 0.098963 0.676948 -0.304579
v 2e-06 0 -0.489431
v 2e-06 0.676948 -0.320253
v -0.151239 0 -0.465477
v -0.098959 0.676948 -0.304579
v -0.287676 0 -0.39596
v -0.188234 0.676948 -0.25909
v -0.395952 0 -0.287683
v -0.259083 0.676948 -0.188242
v -0.465469 0 -0.151247
v -0.304571 0.676948 -0.098967
v -0.489424 0 -6e-06
v -0.320244 0.676948 -6e-06
v -0.465469 0 0.151236
v -0.304571 0.676948 0.098955
v -0.395952 0 0.287672
v -0.259083 0.676948 0.188231
v -0.287676 0 0.395948
v -0.188234 0.676948 0.259079
v -0.151239 0 0.465466
v -0.098959 0.676948 0.304567
v 2e-06 0 0.48942
v 2e-06 0.676948 0.32024
v 0.151243 0 0.465466
v 0.098963 0.676948 0.304567
v 0.28768 0 0.395948
v 0.188238 0.676948 0.259079
v 0.395956 0 0.287672
v 0.259087 0.676948 0.188231
v 0.465473 0 0.151236
v 0.304575 0.676948 0.098955
v 0.489428 0 -6e-06
v 0.320248 0.676948 -6e-06
vn 0.922678 0.24246 -0.299796
vn 0.784876 0.242461 -0.570248
vn 0.922679 0.24246 -0.299796
vn 0.570248 0.24246 -0.784876
vn 0.299797 0.242459 -0.922678
vn 0 0.242457 -0.970162
vn -0.299797 0.242459 -0.922678
vn -0.299797 0.242459 -0.922679
vn -0.570248 0.24246 -0.784876
vn -0.784876 0.24246 -0.570248
vn -0.922679 0.242459 -0.299796
vn -0.970163 0.242455 -0
vn -0.92268 0.242456 0.299794
vn -0.92268 0.242456 0.299793
vn -0.784876 0.242459 0.570248
vn -0.570241 0.24246 0.784881
vn -0.299797 0.242458 0.922679
vn 0 0.242457 0.970162
vn 0.299797 0.242459 0.922678
vn 0.299796 0.242459 0.922679
vn 0.570241 0.24246 0.784881
vn 0.784877 0.242459 0.570248
vn 0.92268 0.242458 0.299793
vn 0.970162 0.242457 -0
vn 0 -1 0
vt 0.131781 0.088755
vt 0.164661 0.045053
vt 0.336465 0.230921
vt 0.35798 0.202325
vt 0.200758 0.003968
vt 0.381599 0.175442
vt 0.200699 0.996032
vt 0.164608 0.954943
vt 0.381562 0.824582
vt 0.357946 0.797698
vt 0.131733 0.911236
vt 0.336435 0.769097
vt 0.102268 0.865163
vt 0.317155 0.738952
vt 0.076378 0.81699
vt 0.300214 0.707427
vt 0.054215 0.766992
vt 0.285714 0.674716
vt 0.035905 0.715459
vt 0.273729 0.64099
vt 0.021554 0.662685
vt 0.264344 0.606463
vt 0.011246 0.608976
vt 0.257593 0.571316
vt 0.005038 0.554639
vt 0.253536 0.535765
vt 0.002966 0.49999
vt 0.252176 0.500003
vt 0.005044 0.445338
vt 0.253539 0.464245
vt 0.011258 0.391003
vt 0.257601 0.428691
vt 0.021573 0.337295
vt 0.264355 0.393548
vt 0.03593 0.284523
vt 0.273744 0.359019
vt 0.054244 0.232992
vt 0.285733 0.325298
vt 0.076414 0.182996
vt 0.300237 0.292584
vt 0.102309 0.134825
vt 0.317181 0.261066
vt 0.727207 0.266061
vt 0.694171 0.311532
vt 0.744576 0.212608
vt 0.6487 0.344568
vt 0.595247 0.361937
vt 0.539042 0.361937
vt 0.485589 0.344568
vt 0.440119 0.311532
vt 0.407082 0.266062
vt 0.389714 0.212608
vt 0.389714 0.156404
vt 0.407082 0.10295
vt 0.440119 0.057479
vt 0.485589 0.024443
vt 0.539043 0.007075
vt 0.595247 0.007075
vt 0.648701 0.024443
vt 0.694171 0.057479
vt 0.727207 0.10295
vt 0.744576 0.156403
usemtl UnderSG
f 1/1/1 2/2/2 3/3/3
f 3/3/3 2/2/2 4/4/2
f 2/2/2 5/5/4 4/4/2
f 4/4/2 5/5/4 6/6/4
f 5/7/4 7/8/5 6/9/4
f 6/9/4 7/8/5 8/10/5
f 7/8/5 9/11/6 8/10/5
f 8/10/5 9/11/6 10/12/6
f 9/11/6 11/13/7 10/12/6
f 10/12/6 11/13/7 12/14/8
f 11/13/7 13/15/9 12/14/8
f 12/14/8 13/15/9 14/16/9
f 13/15/9 15/17/10 14/16/9
f 14/16/9 15/17/10 16/18/10
f 15/17/10 17/19/11 16/18/10
f 16/18/10 17/19/11 18/20/11
f 17/19/11 19/21/12 18/20/11
f 18/20/11 19/21/12 20/22/12
f 19/21/12 21/23/13 20/22/12
f 20/22/12 21/23/13 22/24/14
f 21/23/13 23/25/15 22/24/14
f 22/24/14 23/25/15 24/26/15
f 23/25/15 25/27/16 24/26/15
f 24/26/15 25/27/16 26/28/16
f 25/27/16 27/29/17 26/28/16
f 26/28/16 27/29/17 28/30/17
f 27/29/17 29/31/18 28/30/17
f 28/30/17 29/31/18 30/32/18
f 29/31/18 31/33/19 30/32/18
f 30/32/18 31/33/19 32/34/20
f 31/33/19 33/35/21 32/34/20
f 32/34/20 33/35/21 34/36/21
f 33/35/21 35/37/22 34/36/21
f 34/36/21 35/37/22 36/38/22
f 35/37/22 37/39/23 36/38/22
f 36/38/22 37/39/23 38/40/23
f 37/39/23 39/41/24 38/40/23
f 38/40/23 39/41/24 40/42/24
f 39/41/24 1/1/1 40/42/24
f 40/42/24 1/1/1 3/3/3
f 1/43/25 39/44/25 2/45/25
f 39/44/25 37/46/25 2/45/25
f 37/46/25 35/47/25 2/45/25
f 35/47/25 33/48/25 2/45/25
f 33/48/25 31/49/25 2/45/25
f 31/49/25 29/50/25 2/45/25
f 29/50/25 27/51/25 2/45/25
f 27/51/25 25/52/25 2/45/25
f 25/52/25 23/53/25 2/45/25
f 23/53/25 21/54/25 2/45/25
f 21/54/25 19/55/25 2/45/25
f 19/55/25 17/56/25 2/45/25
f 17/56/25 15/57/25 2/45/25
f 15/57/25 13/58/25 2/45/25
f 13/58/25 11/59/25 2/45/25
f 11/59/25 9/60/25 2/45/25
f 9/60/25 7/61/25 2/45/25
f 7/61/25 5/62/25 2/45/25
s off
g IchigoAme_OrangePlate_TopSG
v 0.873161 0.676948 -0.28371
v 0.918097 0.676948 -6e-06
v 0.742756 0.676948 -0.539646
v 0.873161 0.676948 0.283709
v 0.742756 0.676948 0.539639
v 0.539642 0.676948 0.742758
v 0.283707 0.676948 0.873165
v 2e-06 0.676948 0.918095
v -0.283707 0.676948 0.873165
v -0.539639 0.676948 0.742758
v -0.742752 0.676948 0.539639
v -0.873159 0.676948 0.283709
v -0.918098 0.676948 -6e-06
v -0.873159 0.676948 -0.28371
v -0.742752 0.676948 -0.539646
v -0.53964 0.676948 -0.74276
v -0.283707 0.676948 -0.873165
v 2e-06 0.676948 -0.9181
v 0.283707 0.676948 -0.873165
v 0.539642 0.676948 -0.74276
v 0.260332 0.704841 -0.189137
v 0.417879 0.724976 -0.3036
v 0.189146 0.704841 -0.260328
v 0.303606 0.724976 -0.417875
v 0.702673 0.773625 -0.510523
v 0.510519 0.773625 -0.702669
v 0.882725 0.89451 -0.641338
v 0.641335 0.89451 -0.882719
v 0.306042 0.704841 -0.099436
v 0.099436 0.704841 -0.306032
v 2e-06 0.704841 -0.321789
v -0.099436 0.704841 -0.306032
v -0.189146 0.704841 -0.260328
v -0.260334 0.704841 -0.189137
v -0.306042 0.704841 -0.099436
v -0.321789 0.704841 2e-06
v 0.321789 0.704841 2e-06
v -0.306042 0.704841 0.09944
v -0.260334 0.704841 0.18915
v -0.189146 0.704841 0.260334
v -0.099436 0.704841 0.306042
v 2e-06 0.704841 0.321793
v 0.099436 0.704841 0.306042
v 0.189142 0.704841 0.260334
v 0.260332 0.704841 0.18915
v 0.306042 0.704841 0.09944
v 0.934484 1.06168 -0.678947
v 0.67894 1.06168 -0.934484
v 0.356941 1.06168 -1.09855
v 0.337168 0.89451 -1.0377
v 2e-06 1.06168 -1.15508
v 2e-06 0.89451 -1.09111
v -0.356941 1.06168 -1.09855
v -0.337172 0.89451 -1.0377
v -0.678942 1.06168 -0.934484
v -0.641342 0.89451 -0.882719
v -0.934483 1.06168 -0.678944
v -0.88273 0.89451 -0.641335
v -1.09855 1.06168 -0.356945
v -1.03771 0.89451 -0.337166
v -1.15508 1.06168 -6e-06
v -1.09111 0.89451 2e-06
v -1.09855 1.06168 0.356937
v -1.03771 0.89451 0.337181
v -0.934483 1.06168 0.678938
v -0.88273 0.894515 0.641338
v -0.678942 1.06168 0.934479
v -0.641346 0.894515 0.882736
v -0.356941 1.06168 1.09855
v -0.337175 0.89451 1.03771
v 2e-06 1.06168 1.15509
v 2e-06 0.89451 1.09112
v 0.356941 1.06168 1.09855
v 0.337168 0.894515 1.03771
v 0.67894 1.06168 0.934479
v 0.641338 0.894515 0.882736
v 0.934484 1.06168 0.678938
v 0.882729 0.89451 0.641338
v 1.09855 1.06168 0.356937
v 1.0377 0.89451 0.337181
v 1.15509 1.06168 -6e-06
v 1.09111 0.89451 2e-06
v 1.09855 1.06168 -0.356945
v 1.0377 0.89451 -0.337166
v 0.268394 0.773625 -0.826044
v 0.159615 0.724976 -0.491238
v 2e-06 0.773625 -0.868551
v 2e-06 0.724976 -0.516521
v -0.2684 0.773625 -0.826044
v -0.159615 0.724976 -0.491238
v -0.510529 0.773625 -0.702669
v -0.30361 0.724976 -0.417875
v -0.702681 0.773625 -0.510513
v -0.417879 0.724976 -0.3036
v -0.826048 0.773625 -0.268402
v -0.491245 0.724976 -0.159615
v -0.868553 0.773625 2e-06
v -0.516525 0.724976 2e-06
v -0.826048 0.773629 0.268404
v -0.491245 0.724976 0.15962
v -0.702681 0.773629 0.510527
v -0.417879 0.724976 0.303606
v -0.51053 0.773629 0.702681
v -0.30361 0.724976 0.417879
v -0.2684 0.773629 0.82605
v -0.159615 0.724976 0.491251
v 2e-06 0.773625 0.868565
v 2e-06 0.724976 0.516525
v 0.268394 0.773629 0.82605
v 0.159615 0.724976 0.491251
v 0.510523 0.773629 0.702681
v 0.303606 0.724976 0.417879
v 0.702673 0.773629 0.510527
v 0.417879 0.724976 0.303606
v 0.82604 0.773625 0.268404
v 0.491241 0.724976 0.15962
v 0.868555 0.773629 2e-06
v 0.516525 0.724976 2e-06
v 0.82604 0.773625 -0.268402
v 0.491241 0.724976 -0.159615
v 0.960249 1.06168 -0.697664
v 0.69766 1.06168 -0.960253
v 0.366785 1.06168 -1.12885
v 2e-06 1.06168 -1.18693
v -0.366781 1.06168 -1.12885
v -0.69766 1.06168 -0.960253
v -0.960253 1.06168 -0.697657
v -1.12884 1.06168 -0.366779
v -1.18693 1.06168 -6e-06
v -1.12884 1.06168 0.366777
v -0.960253 1.06168 0.697657
v -0.69766 1.06168 0.960249
v -0.366781 1.06168 1.12884
v 2e-06 1.06168 1.18693
v 0.366785 1.06168 1.12884
v 0.697657 1.06168 0.960249
v 0.960249 1.06168 0.697657
v 1.12884 1.06168 0.366777
v 1.18693 1.06168 -6e-06
v 1.12884 1.06168 -0.366779
v 1.11618 0.869295 -0.362667
v 0.949478 0.869293 -0.689838
v 1.16265 0.976606 -0.377768
v 0.989006 0.976606 -0.718561
v 0.689835 0.869295 -0.949478
v 0.718554 0.976606 -0.989006
v 0.362667 0.869293 -1.11618
v 0.377768 0.976606 -1.16265
v 2e-06 0.869295 -1.17362
v 2e-06 0.976606 -1.22248
v -0.362667 0.869293 -1.11618
v -0.377768 0.976606 -1.16265
v -0.689831 0.869295 -0.949478
v -0.718552 0.976606 -0.989006
v -0.949474 0.869295 -0.689831
v -0.989004 0.976606 -0.718544
v -1.11618 0.869293 -0.362667
v -1.16265 0.976606 -0.377768
v -1.17361 0.869295 -6e-06
v -1.22248 0.976606 -6e-06
v -1.11618 0.869293 0.362663
v -1.16265 0.976606 0.377768
v -0.949474 0.869295 0.689833
v -0.989004 0.976607 0.718554
v -0.689831 0.869295 0.949471
v -0.718552 0.976606 0.989
v -0.362667 0.869295 1.11618
v -0.377768 0.976606 1.16264
v 2e-06 0.869293 1.17362
v 2e-06 0.976607 1.22248
v 0.362667 0.869295 1.11618
v 0.377768 0.976606 1.16264
v 0.689831 0.869295 0.949471
v 0.71855 0.976606 0.989
v 0.949478 0.869295 0.689833
v 0.989006 0.976607 0.718554
v 1.11618 0.869295 0.362663
v 1.16264 0.976607 0.377768
v 1.17362 0.869295 -6e-06
v 1.22248 0.976606 -6e-06
v 1.16791 1.01448 -0.379475
v 0.993481 1.01448 -0.721809
v 1.15452 1.04828 -0.375128
v 0.982096 1.04828 -0.713535
v 0.721802 1.01448 -0.993479
v 0.713531 1.04828 -0.98209
v 0.379475 1.01448 -1.16791
v 0.375128 1.04828 -1.15453
v 2e-06 1.01448 -1.22801
v 2e-06 1.04828 -1.21394
v -0.379475 1.01448 -1.16791
v -0.375124 1.04828 -1.15453
v -0.721802 1.01448 -0.993479
v -0.713528 1.04828 -0.98209
v -0.993479 1.01448 -0.721802
v -0.982096 1.04828 -0.713528
v -1.16791 1.01448 -0.379475
v -1.15453 1.04828 -0.375128
v -1.228 1.01448 -6e-06
v -1.21393 1.04828 -6e-06
v -1.16791 1.01448 0.379471
v -1.15453 1.04828 0.37512
v -0.993479 1.01448 0.721804
v -0.982096 1.04828 0.713531
v -0.721802 1.01448 0.993475
v -0.713535 1.04828 0.982092
v -0.379475 1.01448 1.1679
v -0.375124 1.04828 1.15452
v 2e-06 1.01448 1.22801
v 2e-06 1.04828 1.21394
v 0.379475 1.01448 1.1679
v 0.375128 1.04828 1.15452
v 0.721798 1.01448 0.993475
v 0.713524 1.04828 0.982092
v 0.993481 1.01448 0.721804
v 0.982096 1.04828 0.713531
v 1.1679 1.01448 0.379471
v 1.15451 1.04828 0.37512
v 1.228 1.01448 -6e-06
v 1.21393 1.04828 -6e-06
v 1.04837 0.777081 -0.340635
v 0.956762 0.707749 -0.310867
v 0.891796 0.77708 -0.64793
v 0.813869 0.707749 -0.591312
v 1.006 0.707749 -6e-06
v 1.10232 0.777081 -6e-06
v 0.956762 0.707749 0.310873
v 1.04837 0.777081 0.340635
v 0.64793 0.777081 -0.8918
v 0.591312 0.707749 -0.813873
v 0.340635 0.77708 -1.04837
v 0.310867 0.707749 -0.956766
v 2e-06 0.777082 -1.10232
v 2e-06 0.707749 -1.006
v -0.340639 0.77708 -1.04837
v -0.310873 0.707749 -0.95676
v -0.647926 0.777081 -0.8918
v -0.591309 0.707749 -0.813873
v -0.891792 0.777081 -0.647924
v -0.813871 0.707749 -0.591312
v -1.04837 0.77708 -0.340635
v -0.95676 0.707749 -0.310867
v -1.10232 0.777081 -6e-06
v -1.006 0.707749 -6e-06
v -1.04837 0.77708 0.340635
v -0.95676 0.707749 0.310873
v -0.891792 0.77708 0.647928
v -0.813871 0.707749 0.591307
v -0.647926 0.777082 0.891796
v -0.591309 0.707749 0.813875
v -0.340639 0.777082 1.04837
v -0.310873 0.707749 0.956764
v 2e-06 0.777079 1.10232
v 2e-06 0.707749 1.006
v 0.340635 0.777082 1.04837
v 0.310867 0.707749 0.956764
v 0.647926 0.777082 0.891796
v 0.591309 0.707749 0.813875
v 0.891796 0.77708 0.647928
v 0.813869 0.707749 0.591307
vn 0.004016 -0.999991 -0.001305
vn 0.004223 -0.999991 -0
vn 0.003417 -0.999991 -0.002482
vn 0.004016 -0.999991 0.001305
vn 0.003416 -0.999991 0.002482
vn 0.002482 -0.999991 0.003416
vn 0.001305 -0.999991 0.004016
vn 0 -0.999991 0.004223
vn -0.001305 -0.999991 0.004016
vn -0.002482 -0.999991 0.003416
vn -0.003416 -0.999991 0.002482
vn -0.004016 -0.999991 0.001305
vn -0.004223 -0.999991 -0
vn -0.004016 -0.999991 -0.001305
vn -0.003416 -0.999991 -0.002482
vn -0.002482 -0.999991 -0.003417
vn -0.001305 -0.999991 -0.004017
vn -0 -0.999991 -0.004223
vn 0.001305 -0.999991 -0.004017
vn 0.002482 -0.999991 -0.003417
vn -0.007347 0.999959 0.005338
vn -0.104852 0.991566 0.076179
vn -0.005338 0.999959 0.007348
vn -0.076179 0.991566 0.104852
vn -0.266216 0.944308 0.19342
vn -0.193417 0.944309 0.266216
vn -0.60025 0.670452 0.436112
vn -0.436108 0.670454 0.600252
vn -0.008637 0.999959 0.002807
vn -0.002806 0.999959 0.008637
vn -0 0.999959 0.009083
vn 0.002806 0.999959 0.008637
vn 0.005338 0.999959 0.007348
vn 0.007347 0.999959 0.005338
vn 0.008637 0.999959 0.002807
vn 0.009082 0.999959 0
vn -0.009082 0.999959 0
vn 0.008637 0.999959 -0.002807
vn 0.007347 0.999959 -0.005338
vn 0.005338 0.999959 -0.007347
vn 0.002806 0.999959 -0.008637
vn -0 0.999959 -0.009082
vn -0.002807 0.999959 -0.008637
vn -0.005338 0.999959 -0.007347
vn -0.007347 0.999959 -0.005338
vn -0.008638 0.999959 -0.002806
vn -0.690878 0.520314 0.501957
vn -0.501945 0.520328 0.690876
vn -0.263893 0.520331 0.812167
vn -0.22928 0.67045 0.70564
vn -0 0.520321 0.853971
vn -0 0.670447 0.741958
vn 0.263889 0.520325 0.812172
vn 0.229277 0.670449 0.705641
vn 0.501949 0.520318 0.690881
vn 0.436112 0.670451 0.600251
vn 0.690886 0.520297 0.501965
vn 0.600258 0.670444 0.436114
vn 0.812191 0.520289 0.263903
vn 0.705649 0.670442 0.229275
vn 0.853995 0.520281 4e-06
vn 0.741962 0.670442 -3e-06
vn 0.812196 0.520286 -0.263892
vn 0.705648 0.67044 -0.229284
vn 0.690895 0.520283 -0.501965
vn 0.600262 0.670437 -0.436118
vn 0.50197 0.520275 -0.690898
vn 0.436122 0.670431 -0.600267
vn 0.263898 0.520276 -0.812201
vn 0.229283 0.670437 -0.705651
vn 0 0.520291 -0.853989
vn -1e-06 0.670436 -0.741967
vn -0.263903 0.520289 -0.812191
vn -0.229285 0.670436 -0.705651
vn -0.501968 0.520277 -0.690898
vn -0.436113 0.670435 -0.600269
vn -0.690897 0.520278 -0.501967
vn -0.600255 0.670445 -0.436116
vn -0.812202 0.520277 -0.263893
vn -0.705642 0.670448 -0.229281
vn -0.853993 0.520284 4e-06
vn -0.741952 0.670453 -2e-06
vn -0.812182 0.520305 0.263902
vn -0.705634 0.670458 0.229274
vn -0.101689 0.944309 0.312955
vn -0.04005 0.991566 0.12326
vn -0 0.94431 0.329058
vn -0 0.991566 0.129603
vn 0.101688 0.944308 0.312957
vn 0.040049 0.991566 0.12326
vn 0.193418 0.944309 0.266215
vn 0.076179 0.991566 0.104853
vn 0.266213 0.94431 0.193416
vn 0.104851 0.991566 0.076179
vn 0.312955 0.944309 0.101685
vn 0.123259 0.991566 0.040048
vn 0.329054 0.944311 -3e-06
vn 0.129605 0.991566 -4e-06
vn 0.312952 0.94431 -0.101687
vn 0.123264 0.991565 -0.040054
vn 0.266216 0.944308 -0.193418
vn 0.104857 0.991565 -0.076183
vn 0.193421 0.944308 -0.266216
vn 0.076183 0.991565 -0.104856
vn 0.101689 0.944309 -0.312954
vn 0.040054 0.991565 -0.123263
vn -2e-06 0.944308 -0.329063
vn -0 0.991566 -0.129603
vn -0.101693 0.944307 -0.312958
vn -0.040056 0.991565 -0.123263
vn -0.193416 0.944308 -0.266219
vn -0.076184 0.991565 -0.104858
vn -0.266211 0.94431 -0.19342
vn -0.104854 0.991565 -0.076186
vn -0.312952 0.94431 -0.101684
vn -0.123264 0.991565 -0.04005
vn -0.32906 0.944309 -0
vn -0.129609 0.991565 0
vn -0.312954 0.944309 0.101684
vn -0.123262 0.991566 0.040047
vn 0.199499 0.969119 -0.144947
vn 0.144939 0.969121 -0.199493
vn 0.076198 0.969123 -0.23451
vn 0 0.969125 -0.246571
vn -0.076197 0.969122 -0.234513
vn -0.144947 0.96912 -0.199493
vn -0.199495 0.96912 -0.144942
vn -0.234508 0.969124 -0.076194
vn -0.246566 0.969126 0
vn -0.234502 0.969125 0.076195
vn -0.199479 0.969126 0.144926
vn -0.144927 0.969126 0.199475
vn -0.076197 0.969124 0.234506
vn 0 0.969122 0.246581
vn 0.0762 0.969123 0.23451
vn 0.144938 0.969123 0.199482
vn 0.199492 0.969121 0.144939
vn 0.234537 0.969116 0.076203
vn 0.246608 0.969115 1e-06
vn 0.234531 0.969117 -0.076201
vn 0.819087 -0.508202 -0.266136
vn 0.696758 -0.5082 -0.506222
vn 0.892004 -0.346881 -0.289831
vn 0.758782 -0.346877 -0.551295
vn 0.506227 -0.508195 -0.696759
vn 0.551293 -0.346867 -0.758788
vn 0.266137 -0.508197 -0.819089
vn 0.289833 -0.346872 -0.892007
vn 0 -0.508197 -0.861241
vn -0 -0.346877 -0.937911
vn -0.266137 -0.508192 -0.819092
vn -0.289832 -0.346875 -0.892006
vn -0.506237 -0.508188 -0.696756
vn -0.551301 -0.346877 -0.758777
vn -0.696757 -0.508191 -0.506233
vn -0.758781 -0.346888 -0.551289
vn -0.819086 -0.5082 -0.266142
vn -0.891997 -0.346894 -0.289836
vn -0.861238 -0.508202 -0
vn -0.937904 -0.346896 0
vn -0.819087 -0.508203 0.266133
vn -0.891997 -0.346897 0.289835
vn -0.696757 -0.508194 0.50623
vn -0.758776 -0.34689 0.551296
vn -0.50623 -0.508188 0.696761
vn -0.551292 -0.346884 0.758781
vn -0.266143 -0.508193 0.81909
vn -0.289839 -0.346878 0.892003
vn 0 -0.508199 0.86124
vn 0 -0.346871 0.937913
vn 0.266145 -0.508194 0.819088
vn 0.289842 -0.34687 0.892005
vn 0.506229 -0.508187 0.696763
vn 0.551291 -0.346877 0.758785
vn 0.69676 -0.50819 0.506229
vn 0.758782 -0.346878 0.551295
vn 0.819094 -0.508192 0.266133
vn 0.892005 -0.346876 0.289835
vn 0.861242 -0.508196 2e-06
vn 0.93791 -0.34688 4e-06
vn 0.944802 0.114529 -0.306974
vn 0.80369 0.114519 -0.583925
vn 0.734163 0.635688 -0.238547
vn 0.624518 0.635687 -0.453739
vn 0.583909 0.114536 -0.803699
vn 0.453759 0.63566 -0.624532
vn 0.306985 0.11452 -0.944799
vn 0.238558 0.635653 -0.73419
vn -1e-06 0.114508 -0.993422
vn -0 0.635666 -0.771964
vn -0.306989 0.114525 -0.944797
vn -0.23855 0.63566 -0.734187
vn -0.583924 0.114534 -0.803688
vn -0.453753 0.635673 -0.624522
vn -0.803682 0.114485 -0.583942
vn -0.624513 0.635689 -0.453744
vn -0.944805 0.114486 -0.30698
vn -0.734156 0.635695 -0.238551
vn -0.99342 0.114528 -0
vn -0.771934 0.635702 0
vn -0.944804 0.11451 0.306973
vn -0.734164 0.635692 0.238535
vn -0.803692 0.114478 0.583929
vn -0.624516 0.635692 0.453736
vn -0.583916 0.114461 0.803705
vn -0.453755 0.635664 0.62453
vn -0.306995 0.114472 0.944802
vn -0.238552 0.635657 0.734189
vn 0 0.114481 0.993426
vn 0 0.635676 0.771956
vn 0.306992 0.114487 0.944801
vn 0.238558 0.63566 0.734184
vn 0.583919 0.114485 0.803699
vn 0.453739 0.635677 0.624529
vn 0.803691 0.114536 0.58392
vn 0.624496 0.635718 0.453725
vn 0.9448 0.11456 0.306968
vn 0.734146 0.635715 0.238529
vn 0.993418 0.114545 5e-06
vn 0.771949 0.635684 3e-06
vn 0.670821 -0.708865 -0.217964
vn 0.469702 -0.869534 -0.152615
vn 0.570634 -0.708869 -0.414586
vn 0.399554 -0.869534 -0.290288
vn 0.493876 -0.869532 0
vn 0.705354 -0.708855 0
vn 0.469704 -0.869532 0.152617
vn 0.670829 -0.708858 0.217965
vn 0.414594 -0.708863 -0.570637
vn 0.290292 -0.869534 -0.39955
vn 0.217966 -0.70886 -0.670827
vn 0.152616 -0.869533 -0.469703
vn -1e-06 -0.708858 -0.705351
vn -3e-06 -0.869531 -0.493879
vn -0.217966 -0.708863 -0.670824
vn -0.152618 -0.869534 -0.4697
vn -0.414599 -0.708861 -0.570634
vn -0.290294 -0.869533 -0.399551
vn -0.570637 -0.708861 -0.414595
vn -0.399556 -0.869531 -0.290293
vn -0.670824 -0.708862 -0.217968
vn -0.469699 -0.869535 -0.152616
vn -0.705351 -0.708858 0
vn -0.493871 -0.869535 0
vn -0.670828 -0.708859 0.217965
vn -0.469697 -0.869536 0.152616
vn -0.570635 -0.70886 0.4146
vn -0.399548 -0.869537 0.290287
vn -0.414602 -0.708852 0.570644
vn -0.290295 -0.869532 0.399552
vn -0.21797 -0.708855 0.670831
vn -0.152617 -0.86953 0.469707
vn 0 -0.708864 0.705345
vn 0 -0.869531 0.493879
vn 0.217969 -0.708858 0.670828
vn 0.152618 -0.869528 0.469711
vn 0.414598 -0.708853 0.570645
vn 0.290295 -0.869531 0.399556
vn 0.570638 -0.708858 0.414599
vn 0.399549 -0.869536 0.290289
vt 0.461148 0.648388
vt 0.495988 0.600418
vt 0.442837 0.704777
vt 0.543947 0.56556
vt 0.600329 0.54723
vt 0.659617 0.547219
vt 0.716006 0.56553
vt 0.763976 0.600371
vt 0.798833 0.648329
vt 0.817163 0.704711
vt 0.817172 0.764
vt 0.798862 0.820388
vt 0.764021 0.86836
vt 0.716063 0.903216
vt 0.65968 0.921546
vt 0.600393 0.921557
vt 0.544005 0.903246
vt 0.496034 0.868406
vt 0.461178 0.820447
vt 0.442847 0.764065
vt 0.66614 0.260277
vt 0.627345 0.257329
vt 0.672372 0.242109
vt 0.637449 0.225953
vt 0.556463 0.246519
vt 0.573714 0.193824
vt 0.504812 0.238301
vt 0.527355 0.169981
vt 0.66614 0.288461
vt 0.68422 0.226541
vt 0.700497 0.21528
vt 0.719602 0.209539
vt 0.739652 0.209938
vt 0.758683 0.216477
vt 0.774846 0.228548
vt 0.786572 0.244997
vt 0.672375 0.306626
vt 0.792732 0.264255
vt 0.792733 0.284479
vt 0.786571 0.303734
vt 0.774843 0.320184
vt 0.758683 0.332252
vt 0.739654 0.338792
vt 0.719608 0.339192
vt 0.700505 0.333454
vt 0.684221 0.322195
vt 0.465879 0.232041
vt 0.492464 0.1519
vt 0.542582 0.084477
vt 0.569936 0.112428
vt 0.610897 0.036354
vt 0.628073 0.071267
vt 0.690323 0.012038
vt 0.695792 0.050357
vt 0.772906 0.01343
vt 0.766327 0.051411
vt 0.850775 0.040025
vt 0.832893 0.074045
vt 0.916528 0.089092
vt 0.88915 0.115919
vt 0.963995 0.155704
vt 0.929802 0.172862
vt 0.988916 0.233507
vt 0.951137 0.239417
vt 0.988914 0.315209
vt 0.951138 0.309301
vt 0.96401 0.39301
vt 0.929816 0.37586
vt 0.916542 0.459636
vt 0.889161 0.432807
vt 0.850788 0.508692
vt 0.832903 0.474678
vt 0.772934 0.535297
vt 0.766345 0.497318
vt 0.690333 0.536708
vt 0.695802 0.498379
vt 0.610898 0.512369
vt 0.628084 0.477455
vt 0.542611 0.464258
vt 0.569957 0.436307
vt 0.492468 0.396856
vt 0.527355 0.378769
vt 0.465868 0.316694
vt 0.504806 0.310438
vt 0.606367 0.149407
vt 0.656623 0.19972
vt 0.651048 0.117572
vt 0.682924 0.180939
vt 0.703213 0.101305
vt 0.713725 0.171323
vt 0.757675 0.101997
vt 0.745977 0.17173
vt 0.809147 0.119401
vt 0.776531 0.182066
vt 0.852697 0.151722
vt 0.802437 0.201286
vt 0.88421 0.195773
vt 0.821209 0.227519
vt 0.900749 0.247306
vt 0.831066 0.258238
vt 0.900753 0.301416
vt 0.831067 0.290496
vt 0.884224 0.352947
vt 0.821215 0.321209
vt 0.852708 0.396997
vt 0.802441 0.347443
vt 0.809152 0.429325
vt 0.776534 0.366665
vt 0.757683 0.446734
vt 0.745983 0.377001
vt 0.703224 0.447423
vt 0.713733 0.377408
vt 0.651062 0.431155
vt 0.682934 0.367795
vt 0.606381 0.399332
vt 0.656629 0.34902
vt 0.573714 0.354923
vt 0.637449 0.322788
vt 0.55646 0.30222
vt 0.627346 0.291411
vt 0.458522 0.230853
vt 0.485878 0.148472
vt 0.537424 0.079187
vt 0.607669 0.029758
vt 0.689305 0.004807
vt 0.774156 0.006274
vt 0.854154 0.03362
vt 0.921691 0.084046
vt 0.970434 0.152478
vt 0.996032 0.232394
vt 0.996027 0.316319
vt 0.970451 0.396237
vt 0.921703 0.464684
vt 0.854164 0.515095
vt 0.774189 0.542456
vt 0.689315 0.543939
vt 0.607669 0.518964
vt 0.53746 0.469547
vt 0.485883 0.400285
vt 0.458511 0.317884
vt 0.052337 0.414984
vt 0.06004 0.497245
vt 0.02684 0.41636
vt 0.034451 0.500815
vt 0.075612 0.575368
vt 0.051232 0.581954
vt 0.101003 0.649102
vt 0.077851 0.658746
vt 0.137435 0.720652
vt 0.114438 0.733869
vt 0.372781 0.029125
vt 0.333745 0.077591
vt 0.357407 0.015402
vt 0.317782 0.066573
vt 0.302699 0.129187
vt 0.285426 0.120317
vt 0.278769 0.185093
vt 0.260115 0.178459
vt 0.262087 0.24535
vt 0.241979 0.241093
vt 0.253333 0.310084
vt 0.231766 0.308485
vt 0.253488 0.379221
vt 0.230485 0.380636
vt 0.263808 0.4526
vt 0.239408 0.457461
vt 0.285877 0.530188
vt 0.260126 0.53903
vt 0.32157 0.612187
vt 0.29454 0.625326
vt 0.371766 0.70104
vt 0.343215 0.718094
vt 0.166932 0.027536
vt 0.127963 0.081078
vt 0.149916 0.013798
vt 0.110383 0.070169
vt 0.097498 0.137739
vt 0.07854 0.129082
vt 0.074462 0.199138
vt 0.053923 0.192801
vt 0.059019 0.265608
vt 0.036804 0.2617
vt 0.05156 0.337493
vt 0.027603 0.336193
vt 0.018581 0.41672
vt 0.026147 0.502009
vt 0.003968 0.417292
vt 0.010617 0.417041
vt 0.011443 0.504149
vt 0.018135 0.503171
vt 0.0433 0.584128
vt 0.02925 0.588004
vt 0.035644 0.586235
vt 0.070307 0.661845
vt 0.056943 0.667309
vt 0.063024 0.664823
vt 0.106755 0.737757
vt 0.092636 0.742842
vt 0.099114 0.740833
vt 0.352186 0.011225
vt 0.31257 0.063023
vt 0.342278 0.005125
vt 0.346874 0.007675
vt 0.30333 0.056765
vt 0.307536 0.059609
vt 0.279806 0.117419
vt 0.269854 0.112272
vt 0.274383 0.114617
vt 0.254049 0.176262
vt 0.243298 0.172349
vt 0.248192 0.174133
vt 0.235443 0.239655
vt 0.223864 0.237061
vt 0.229134 0.238249
vt 0.22474 0.307885
vt 0.212299 0.306769
vt 0.21796 0.307285
vt 0.222989 0.380995
vt 0.209687 0.38156
vt 0.215745 0.381314
vt 0.231433 0.458923
vt 0.217277 0.461411
vt 0.223725 0.460294
vt 0.251684 0.541755
vt 0.236691 0.546481
vt 0.243521 0.544345
vt 0.285686 0.629386
vt 0.269951 0.636439
vt 0.27712 0.63325
vt 0.333714 0.723117
vt 0.316229 0.729782
vt 0.324257 0.727127
vt 0.144167 0.009639
vt 0.104654 0.066654
vt 0.133342 0.003672
vt 0.13835 0.006146
vt 0.094507 0.06045
vt 0.099125 0.06327
vt 0.072378 0.126241
vt 0.061473 0.121191
vt 0.066437 0.123492
vt 0.047255 0.19069
vt 0.035458 0.186911
vt 0.040828 0.188636
vt 0.029595 0.260357
vt 0.016842 0.257924
vt 0.022644 0.259039
vt 0.019833 0.335675
vt 0.006085 0.334688
vt 0.012341 0.335148
vt 0.078131 0.413083
vt 0.105788 0.410293
vt 0.085834 0.493946
vt 0.113346 0.491011
vt 0.101031 0.338488
vt 0.075623 0.338282
vt 0.10475 0.27236
vt 0.081291 0.269124
vt 0.099948 0.568968
vt 0.125453 0.562509
vt 0.123942 0.639308
vt 0.147709 0.628964
vt 0.159597 0.706422
vt 0.181532 0.690768
vt 0.387342 0.043503
vt 0.401505 0.058934
vt 0.349525 0.088725
vt 0.365841 0.100454
vt 0.319928 0.137971
vt 0.337962 0.147083
vt 0.297416 0.191542
vt 0.316999 0.198107
vt 0.282174 0.249323
vt 0.30324 0.25318
vt 0.274837 0.311308
vt 0.297359 0.312177
vt 0.276351 0.377328
vt 0.300212 0.374809
vt 0.287968 0.447135
vt 0.313068 0.440728
vt 0.311258 0.520573
vt 0.337476 0.509588
vt 0.348182 0.597869
vt 0.375621 0.581321
vt 0.39979 0.682554
vt 0.428537 0.661823
vt 0.183157 0.041998
vt 0.199038 0.0576
vt 0.145374 0.092095
vt 0.16341 0.103691
vt 0.116438 0.14626
vt 0.136303 0.155034
vt 0.095039 0.205209
vt 0.116685 0.211277
vt 0.129227 0.407004
vt 0.121967 0.338095
vt 0.136484 0.489423
vt 0.146308 0.557483
vt 0.16693 0.620566
vt 0.198424 0.67791
vt 0.41228 0.071433
vt 0.37905 0.109997
vt 0.352724 0.154447
vt 0.333074 0.203326
vt 0.320511 0.25609
vt 0.315789 0.312553
vt 0.319663 0.372317
vt 0.333425 0.43494
vt 0.358582 0.499871
vt 0.39766 0.566248
vt 0.452124 0.644247
vt 0.211181 0.07028
vt 0.178017 0.113106
vt 0.152585 0.162062
vt 0.134473 0.21599
vt 0.124044 0.274625
usemtl TopSG
f 41/63/26 42/64/27 43/65/28
f 42/64/27 44/66/29 43/65/28
f 44/66/29 45/67/30 43/65/28
f 45/67/30 46/68/31 43/65/28
f 46/68/31 47/69/32 43/65/28
f 47/69/32 48/70/33 43/65/28
f 48/70/33 49/71/34 43/65/28
f 49/71/34 50/72/35 43/65/28
f 50/72/35 51/73/36 43/65/28
f 51/73/36 52/74/37 43/65/28
f 52/74/37 53/75/38 43/65/28
f 53/75/38 54/76/39 43/65/28
f 54/76/39 55/77/40 43/65/28
f 55/77/40 56/78/41 43/65/28
f 56/78/41 57/79/42 43/65/28
f 57/79/42 58/80/43 43/65/28
f 58/80/43 59/81/44 43/65/28
f 59/81/44 60/82/45 43/65/28
f 61/83/46 62/84/47 63/85/48
f 63/85/48 62/84/47 64/86/49
f 62/84/47 65/87/50 64/86/49
f 64/86/49 65/87/50 66/88/51
f 65/87/50 67/89/52 66/88/51
f 66/88/51 67/89/52 68/90/53
f 61/83/46 63/85/48 69/91/54
f 63/85/48 70/92/55 69/91/54
f 70/92/55 71/93/56 69/91/54
f 71/93/56 72/94/57 69/91/54
f 72/94/57 73/95/58 69/91/54
f 73/95/58 74/96/59 69/91/54
f 74/96/59 75/97/60 69/91/54
f 75/97/60 76/98/61 69/91/54
f 69/91/54 76/98/61 77/99/62
f 76/98/61 78/100/63 77/99/62
f 78/100/63 79/101/64 77/99/62
f 79/101/64 80/102/65 77/99/62
f 80/102/65 81/103/66 77/99/62
f 81/103/66 82/104/67 77/99/62
f 82/104/67 83/105/68 77/99/62
f 83/105/68 84/106/69 77/99/62
f 84/106/69 85/107/70 77/99/62
f 85/107/70 86/108/71 77/99/62
f 87/109/72 88/110/73 67/89/52
f 67/89/52 88/110/73 68/90/53
f 88/110/73 89/111/74 68/90/53
f 68/90/53 89/111/74 90/112/75
f 89/111/74 91/113/76 90/112/75
f 90/112/75 91/113/76 92/114/77
f 91/113/76 93/115/78 92/114/77
f 92/114/77 93/115/78 94/116/79
f 93/115/78 95/117/80 94/116/79
f 94/116/79 95/117/80 96/118/81
f 95/117/80 97/119/82 96/118/81
f 96/118/81 97/119/82 98/120/83
f 97/119/82 99/121/84 98/120/83
f 98/120/83 99/121/84 100/122/85
f 99/121/84 101/123/86 100/122/85
f 100/122/85 101/123/86 102/124/87
f 101/123/86 103/125/88 102/124/87
f 102/124/87 103/125/88 104/126/89
f 103/125/88 105/127/90 104/126/89
f 104/126/89 105/127/90 106/128/91
f 105/127/90 107/129/92 106/128/91
f 106/128/91 107/129/92 108/130/93
f 107/129/92 109/131/94 108/130/93
f 108/130/93 109/131/94 110/132/95
f 109/131/94 111/133/96 110/132/95
f 110/132/95 111/133/96 112/134/97
f 111/133/96 113/135/98 112/134/97
f 112/134/97 113/135/98 114/136/99
f 113/135/98 115/137/100 114/136/99
f 114/136/99 115/137/100 116/138/101
f 115/137/100 117/139/102 116/138/101
f 116/138/101 117/139/102 118/140/103
f 117/139/102 119/141/104 118/140/103
f 118/140/103 119/141/104 120/142/105
f 119/141/104 121/143/106 120/142/105
f 120/142/105 121/143/106 122/144/107
f 121/143/106 123/145/108 122/144/107
f 122/144/107 123/145/108 124/146/109
f 123/145/108 87/109/72 124/146/109
f 124/146/109 87/109/72 67/89/52
f 66/88/51 68/90/53 125/147/110
f 125/147/110 68/90/53 90/112/75
f 63/85/48 64/86/49 70/92/55
f 70/92/55 64/86/49 126/148/111
f 64/86/49 66/88/51 126/148/111
f 126/148/111 66/88/51 125/147/110
f 125/147/110 90/112/75 127/149/112
f 127/149/112 90/112/75 92/114/77
f 70/92/55 126/148/111 71/93/56
f 71/93/56 126/148/111 128/150/113
f 126/148/111 125/147/110 128/150/113
f 128/150/113 125/147/110 127/149/112
f 127/149/112 92/114/77 129/151/114
f 129/151/114 92/114/77 94/116/79
f 71/93/56 128/150/113 72/94/57
f 72/94/57 128/150/113 130/152/115
f 128/150/113 127/149/112 130/152/115
f 130/152/115 127/149/112 129/151/114
f 129/151/114 94/116/79 131/153/116
f 131/153/116 94/116/79 96/118/81
f 72/94/57 130/152/115 73/95/58
f 73/95/58 130/152/115 132/154/117
f 130/152/115 129/151/114 132/154/117
f 132/154/117 129/151/114 131/153/116
f 131/153/116 96/118/81 133/155/118
f 133/155/118 96/118/81 98/120/83
f 73/95/58 132/154/117 74/96/59
f 74/96/59 132/154/117 134/156/119
f 132/154/117 131/153/116 134/156/119
f 134/156/119 131/153/116 133/155/118
f 133/155/118 98/120/83 135/157/120
f 135/157/120 98/120/83 100/122/85
f 74/96/59 134/156/119 75/97/60
f 75/97/60 134/156/119 136/158/121
f 134/156/119 133/155/118 136/158/121
f 136/158/121 133/155/118 135/157/120
f 135/157/120 100/122/85 137/159/122
f 137/159/122 100/122/85 102/124/87
f 75/97/60 136/158/121 76/98/61
f 76/98/61 136/158/121 138/160/123
f 136/158/121 135/157/120 138/160/123
f 138/160/123 135/157/120 137/159/122
f 137/159/122 102/124/87 139/161/124
f 139/161/124 102/124/87 104/126/89
f 76/98/61 138/160/123 78/100/63
f 78/100/63 138/160/123 140/162/125
f 138/160/123 137/159/122 140/162/125
f 140/162/125 137/159/122 139/161/124
f 139/161/124 104/126/89 141/163/126
f 141/163/126 104/126/89 106/128/91
f 78/100/63 140/162/125 79/101/64
f 79/101/64 140/162/125 142/164/127
f 140/162/125 139/161/124 142/164/127
f 142/164/127 139/161/124 141/163/126
f 141/163/126 106/128/91 143/165/128
f 143/165/128 106/128/91 108/130/93
f 79/101/64 142/164/127 80/102/65
f 80/102/65 142/164/127 144/166/129
f 142/164/127 141/163/126 144/166/129
f 144/166/129 141/163/126 143/165/128
f 143/165/128 108/130/93 145/167/130
f 145/167/130 108/130/93 110/132/95
f 80/102/65 144/166/129 81/103/66
f 81/103/66 144/166/129 146/168/131
f 144/166/129 143/165/128 146/168/131
f 146/168/131 143/165/128 145/167/130
f 145/167/130 110/132/95 147/169/132
f 147/169/132 110/132/95 112/134/97
f 81/103/66 146/168/131 82/104/67
f 82/104/67 146/168/131 148/170/133
f 146/168/131 145/167/130 148/170/133
f 148/170/133 145/167/130 147/169/132
f 147/169/132 112/134/97 149/171/134
f 149/171/134 112/134/97 114/136/99
f 82/104/67 148/170/133 83/105/68
f 83/105/68 148/170/133 150/172/135
f 148/170/133 147/169/132 150/172/135
f 150/172/135 147/169/132 149/171/134
f 149/171/134 114/136/99 151/173/136
f 151/173/136 114/136/99 116/138/101
f 83/105/68 150/172/135 84/106/69
f 84/106/69 150/172/135 152/174/137
f 150/172/135 149/171/134 152/174/137
f 152/174/137 149/171/134 151/173/136
f 151/173/136 116/138/101 153/175/138
f 153/175/138 116/138/101 118/140/103
f 84/106/69 152/174/137 85/107/70
f 85/107/70 152/174/137 154/176/139
f 152/174/137 151/173/136 154/176/139
f 154/176/139 151/173/136 153/175/138
f 153/175/138 118/140/103 155/177/140
f 155/177/140 118/140/103 120/142/105
f 85/107/70 154/176/139 86/108/71
f 86/108/71 154/176/139 156/178/141
f 154/176/139 153/175/138 156/178/141
f 156/178/141 153/175/138 155/177/140
f 155/177/140 120/142/105 157/179/142
f 157/179/142 120/142/105 122/144/107
f 86/108/71 156/178/141 77/99/62
f 77/99/62 156/178/141 158/180/143
f 156/178/141 155/177/140 158/180/143
f 158/180/143 155/177/140 157/179/142
f 157/179/142 122/144/107 159/181/144
f 159/181/144 122/144/107 124/146/109
f 77/99/62 158/180/143 69/91/54
f 69/91/54 158/180/143 160/182/145
f 158/180/143 157/179/142 160/182/145
f 160/182/145 157/179/142 159/181/144
f 67/89/52 65/87/50 124/146/109
f 124/146/109 65/87/50 159/181/144
f 65/87/50 62/84/47 159/181/144
f 159/181/144 62/84/47 160/182/145
f 62/84/47 61/83/46 160/182/145
f 160/182/145 61/83/46 69/91/54
f 161/183/146 162/184/147 87/109/72
f 87/109/72 162/184/147 88/110/73
f 162/184/147 163/185/148 88/110/73
f 88/110/73 163/185/148 89/111/74
f 163/185/148 164/186/149 89/111/74
f 89/111/74 164/186/149 91/113/76
f 164/186/149 165/187/150 91/113/76
f 91/113/76 165/187/150 93/115/78
f 165/187/150 166/188/151 93/115/78
f 93/115/78 166/188/151 95/117/80
f 166/188/151 167/189/152 95/117/80
f 95/117/80 167/189/152 97/119/82
f 167/189/152 168/190/153 97/119/82
f 97/119/82 168/190/153 99/121/84
f 168/190/153 169/191/154 99/121/84
f 99/121/84 169/191/154 101/123/86
f 169/191/154 170/192/155 101/123/86
f 101/123/86 170/192/155 103/125/88
f 170/192/155 171/193/156 103/125/88
f 103/125/88 171/193/156 105/127/90
f 171/193/156 172/194/157 105/127/90
f 105/127/90 172/194/157 107/129/92
f 172/194/157 173/195/158 107/129/92
f 107/129/92 173/195/158 109/131/94
f 173/195/158 174/196/159 109/131/94
f 109/131/94 174/196/159 111/133/96
f 174/196/159 175/197/160 111/133/96
f 111/133/96 175/197/160 113/135/98
f 175/197/160 176/198/161 113/135/98
f 113/135/98 176/198/161 115/137/100
f 176/198/161 177/199/162 115/137/100
f 115/137/100 177/199/162 117/139/102
f 177/199/162 178/200/163 117/139/102
f 117/139/102 178/200/163 119/141/104
f 178/200/163 179/201/164 119/141/104
f 119/141/104 179/201/164 121/143/106
f 179/201/164 180/202/165 121/143/106
f 121/143/106 180/202/165 123/145/108
f 180/202/165 161/183/146 123/145/108
f 123/145/108 161/183/146 87/109/72
f 181/203/166 182/204/167 183/205/168
f 183/205/168 182/204/167 184/206/169
f 182/204/167 185/207/170 184/206/169
f 184/206/169 185/207/170 186/208/171
f 185/207/170 187/209/172 186/208/171
f 186/208/171 187/209/172 188/210/173
f 187/209/172 189/211/174 188/210/173
f 188/210/173 189/211/174 190/212/175
f 189/213/174 191/214/176 190/215/175
f 190/215/175 191/214/176 192/216/177
f 191/214/176 193/217/178 192/216/177
f 192/216/177 193/217/178 194/218/179
f 193/217/178 195/219/180 194/218/179
f 194/218/179 195/219/180 196/220/181
f 195/219/180 197/221/182 196/220/181
f 196/220/181 197/221/182 198/222/183
f 197/221/182 199/223/184 198/222/183
f 198/222/183 199/223/184 200/224/185
f 199/223/184 201/225/186 200/224/185
f 200/224/185 201/225/186 202/226/187
f 201/225/186 203/227/188 202/226/187
f 202/226/187 203/227/188 204/228/189
f 203/227/188 205/229/190 204/228/189
f 204/228/189 205/229/190 206/230/191
f 205/229/190 207/231/192 206/230/191
f 206/230/191 207/231/192 208/232/193
f 207/231/192 209/233/194 208/232/193
f 208/232/193 209/233/194 210/234/195
f 209/235/194 211/236/196 210/237/195
f 210/237/195 211/236/196 212/238/197
f 211/236/196 213/239/198 212/238/197
f 212/238/197 213/239/198 214/240/199
f 213/239/198 215/241/200 214/240/199
f 214/240/199 215/241/200 216/242/201
f 215/241/200 217/243/202 216/242/201
f 216/242/201 217/243/202 218/244/203
f 217/243/202 219/245/204 218/244/203
f 218/244/203 219/245/204 220/246/205
f 219/245/204 181/203/166 220/246/205
f 220/246/205 181/203/166 183/205/168
f 221/247/206 183/205/168 222/248/207
f 222/248/207 183/205/168 184/206/169
f 180/249/165 223/250/208 161/251/146
f 161/251/146 223/250/208 224/252/209
f 223/250/208 221/247/206 224/252/209
f 224/252/209 221/247/206 222/248/207
f 222/248/207 184/206/169 225/253/210
f 225/253/210 184/206/169 186/208/171
f 161/251/146 224/252/209 162/254/147
f 162/254/147 224/252/209 226/255/211
f 224/252/209 222/248/207 226/255/211
f 226/255/211 222/248/207 225/253/210
f 225/253/210 186/208/171 227/256/212
f 227/256/212 186/208/171 188/210/173
f 162/254/147 226/255/211 163/257/148
f 163/257/148 226/255/211 228/258/213
f 226/255/211 225/253/210 228/258/213
f 228/258/213 225/253/210 227/256/212
f 227/256/212 188/210/173 229/259/214
f 229/259/214 188/210/173 190/212/175
f 163/257/148 228/258/213 164/260/149
f 164/260/149 228/258/213 230/261/215
f 228/258/213 227/256/212 230/261/215
f 230/261/215 227/256/212 229/259/214
f 229/262/214 190/215/175 231/263/216
f 231/263/216 190/215/175 192/216/177
f 164/264/149 230/265/215 165/266/150
f 165/266/150 230/265/215 232/267/217
f 230/265/215 229/262/214 232/267/217
f 232/267/217 229/262/214 231/263/216
f 231/263/216 192/216/177 233/268/218
f 233/268/218 192/216/177 194/218/179
f 165/266/150 232/267/217 166/269/151
f 166/269/151 232/267/217 234/270/219
f 232/267/217 231/263/216 234/270/219
f 234/270/219 231/263/216 233/268/218
f 233/268/218 194/218/179 235/271/220
f 235/271/220 194/218/179 196/220/181
f 166/269/151 234/270/219 167/272/152
f 167/272/152 234/270/219 236/273/221
f 234/270/219 233/268/218 236/273/221
f 236/273/221 233/268/218 235/271/220
f 235/271/220 196/220/181 237/274/222
f 237/274/222 196/220/181 198/222/183
f 167/272/152 236/273/221 168/275/153
f 168/275/153 236/273/221 238/276/223
f 236/273/221 235/271/220 238/276/223
f 238/276/223 235/271/220 237/274/222
f 237/274/222 198/222/183 239/277/224
f 239/277/224 198/222/183 200/224/185
f 168/275/153 238/276/223 169/278/154
f 169/278/154 238/276/223 240/279/225
f 238/276/223 237/274/222 240/279/225
f 240/279/225 237/274/222 239/277/224
f 239/277/224 200/224/185 241/280/226
f 241/280/226 200/224/185 202/226/187
f 169/278/154 240/279/225 170/281/155
f 170/281/155 240/279/225 242/282/227
f 240/279/225 239/277/224 242/282/227
f 242/282/227 239/277/224 241/280/226
f 241/280/226 202/226/187 243/283/228
f 243/283/228 202/226/187 204/228/189
f 170/281/155 242/282/227 171/284/156
f 171/284/156 242/282/227 244/285/229
f 242/282/227 241/280/226 244/285/229
f 244/285/229 241/280/226 243/283/228
f 243/283/228 204/228/189 245/286/230
f 245/286/230 204/228/189 206/230/191
f 171/284/156 244/285/229 172/287/157
f 172/287/157 244/285/229 246/288/231
f 244/285/229 243/283/228 246/288/231
f 246/288/231 243/283/228 245/286/230
f 245/286/230 206/230/191 247/289/232
f 247/289/232 206/230/191 208/232/193
f 172/287/157 246/288/231 173/290/158
f 173/290/158 246/288/231 248/291/233
f 246/288/231 245/286/230 248/291/233
f 248/291/233 245/286/230 247/289/232
f 247/289/232 208/232/193 249/292/234
f 249/292/234 208/232/193 210/234/195
f 173/290/158 248/291/233 174/293/159
f 174/293/159 248/291/233 250/294/235
f 248/291/233 247/289/232 250/294/235
f 250/294/235 247/289/232 249/292/234
f 249/295/234 210/237/195 251/296/236
f 251/296/236 210/237/195 212/238/197
f 174/297/159 250/298/235 175/299/160
f 175/299/160 250/298/235 252/300/237
f 250/298/235 249/295/234 252/300/237
f 252/300/237 249/295/234 251/296/236
f 251/296/236 212/238/197 253/301/238
f 253/301/238 212/238/197 214/240/199
f 175/299/160 252/300/237 176/302/161
f 176/302/161 252/300/237 254/303/239
f 252/300/237 251/296/236 254/303/239
f 254/303/239 251/296/236 253/301/238
f 253/301/238 214/240/199 255/304/240
f 255/304/240 214/240/199 216/242/201
f 176/302/161 254/303/239 177/305/162
f 177/305/162 254/303/239 256/306/241
f 254/303/239 253/301/238 256/306/241
f 256/306/241 253/301/238 255/304/240
f 255/304/240 216/242/201 257/307/242
f 257/307/242 216/242/201 218/244/203
f 177/305/162 256/306/241 178/308/163
f 178/308/163 256/306/241 258/309/243
f 256/306/241 255/304/240 258/309/243
f 258/309/243 255/304/240 257/307/242
f 257/307/242 218/244/203 259/310/244
f 259/310/244 218/244/203 220/246/205
f 178/308/163 258/309/243 179/311/164
f 179/311/164 258/309/243 260/312/245
f 258/309/243 257/307/242 260/312/245
f 260/312/245 257/307/242 259/310/244
f 183/205/168 221/247/206 220/246/205
f 220/246/205 221/247/206 259/310/244
f 221/247/206 223/250/208 259/310/244
f 259/310/244 223/250/208 260/312/245
f 223/250/208 180/249/165 260/312/245
f 260/312/245 180/249/165 179/311/164
f 261/313/246 262/314/247 263/315/248
f 263/315/248 262/314/247 264/316/249
f 262/314/247 261/313/246 265/317/250
f 265/317/250 261/313/246 266/318/251
f 265/317/250 266/318/251 267/319/252
f 267/319/252 266/318/251 268/320/253
f 263/315/248 264/316/249 269/321/254
f 269/321/254 264/316/249 270/322/255
f 269/321/254 270/322/255 271/323/256
f 271/323/256 270/322/255 272/324/257
f 271/323/256 272/324/257 273/325/258
f 273/325/258 272/324/257 274/326/259
f 273/327/258 274/328/259 275/329/260
f 275/329/260 274/328/259 276/330/261
f 275/329/260 276/330/261 277/331/262
f 277/331/262 276/330/261 278/332/263
f 277/331/262 278/332/263 279/333/264
f 279/333/264 278/332/263 280/334/265
f 279/333/264 280/334/265 281/335/266
f 281/335/266 280/334/265 282/336/267
f 281/335/266 282/336/267 283/337/268
f 283/337/268 282/336/267 284/338/269
f 283/337/268 284/338/269 285/339/270
f 285/339/270 284/338/269 286/340/271
f 285/339/270 286/340/271 287/341/272
f 287/341/272 286/340/271 288/342/273
f 287/341/272 288/342/273 289/343/274
f 289/343/274 288/342/273 290/344/275
f 289/343/274 290/344/275 291/345/276
f 291/345/276 290/344/275 292/346/277
f 291/345/276 292/346/277 293/347/278
f 293/347/278 292/346/277 294/348/279
f 293/349/278 294/350/279 295/351/280
f 295/351/280 294/350/279 296/352/281
f 295/351/280 296/352/281 297/353/282
f 297/353/282 296/352/281 298/354/283
f 297/353/282 298/354/283 299/355/284
f 299/355/284 298/354/283 300/356/285
f 299/355/284 300/356/285 268/320/253
f 268/320/253 300/356/285 267/319/252
f 41/357/26 262/314/247 42/358/27
f 42/358/27 262/314/247 265/317/250
f 261/313/246 181/203/166 266/318/251
f 266/318/251 181/203/166 219/245/204
f 181/203/166 261/313/246 182/204/167
f 182/204/167 261/313/246 263/315/248
f 262/314/247 41/357/26 264/316/249
f 264/316/249 41/357/26 43/359/28
f 182/204/167 263/315/248 185/207/170
f 185/207/170 263/315/248 269/321/254
f 264/316/249 43/359/28 270/322/255
f 270/322/255 43/359/28 60/360/45
f 185/207/170 269/321/254 187/209/172
f 187/209/172 269/321/254 271/323/256
f 270/322/255 60/360/45 272/324/257
f 272/324/257 60/360/45 59/361/44
f 187/209/172 271/323/256 189/211/174
f 189/211/174 271/323/256 273/325/258
f 272/324/257 59/361/44 274/326/259
f 274/326/259 59/361/44 58/362/43
f 189/213/174 273/327/258 191/214/176
f 191/214/176 273/327/258 275/329/260
f 274/328/259 58/363/43 276/330/261
f 276/330/261 58/363/43 57/364/42
f 191/214/176 275/329/260 193/217/178
f 193/217/178 275/329/260 277/331/262
f 276/330/261 57/364/42 278/332/263
f 278/332/263 57/364/42 56/365/41
f 193/217/178 277/331/262 195/219/180
f 195/219/180 277/331/262 279/333/264
f 278/332/263 56/365/41 280/334/265
f 280/334/265 56/365/41 55/366/40
f 195/219/180 279/333/264 197/221/182
f 197/221/182 279/333/264 281/335/266
f 280/334/265 55/366/40 282/336/267
f 282/336/267 55/366/40 54/367/39
f 197/221/182 281/335/266 199/223/184
f 199/223/184 281/335/266 283/337/268
f 282/336/267 54/367/39 284/338/269
f 284/338/269 54/367/39 53/368/38
f 199/223/184 283/337/268 201/225/186
f 201/225/186 283/337/268 285/339/270
f 284/338/269 53/368/38 286/340/271
f 286/340/271 53/368/38 52/369/37
f 201/225/186 285/339/270 203/227/188
f 203/227/188 285/339/270 287/341/272
f 286/340/271 52/369/37 288/342/273
f 288/342/273 52/369/37 51/370/36
f 203/227/188 287/341/272 205/229/190
f 205/229/190 287/341/272 289/343/274
f 288/342/273 51/370/36 290/344/275
f 290/344/275 51/370/36 50/371/35
f 205/229/190 289/343/274 207/231/192
f 207/231/192 289/343/274 291/345/276
f 290/344/275 50/371/35 292/346/277
f 292/346/277 50/371/35 49/372/34
f 207/231/192 291/345/276 209/233/194
f 209/233/194 291/345/276 293/347/278
f 292/346/277 49/372/34 294/348/279
f 294/348/279 49/372/34 48/373/33
f 209/235/194 293/349/278 211/236/196
f 211/236/196 293/349/278 295/351/280
f 294/350/279 48/374/33 296/352/281
f 296/352/281 48/374/33 47/375/32
f 211/236/196 295/351/280 213/239/198
f 213/239/198 295/351/280 297/353/282
f 296/352/281 47/375/32 298/354/283
f 298/354/283 47/375/32 46/376/31
f 213/239/198 297/353/282 215/241/200
f 215/241/200 297/353/282 299/355/284
f 298/354/283 46/376/31 300/356/285
f 300/356/285 46/376/31 45/377/30
f 215/241/200 299/355/284 217/243/202
f 217/243/202 299/355/284 268/320/253
f 300/356/285 45/377/30 267/319/252
f 267/319/252 45/377/30 44/378/29
f 217/243/202 268/320/253 219/245/204
f 219/245/204 268/320/253 266/318/251
f 267/319/252 44/378/29 265/317/250
f 265/317/250 44/378/29 42/358/27
s off
