# Apple ModelIO OBJ File: Noren
mtllib Noren.mtl
g Noren_NorenSG
v -16.1375 -2.41386 0
v -14.582 -2.41386 0
v -16.1375 -0.80462 0
v -14.582 -0.80462 0
v -11.815 -2.41386 0
v -12.6378 -0.80462 0
v -11.6656 -0.80462 0
v -11.5163 -2.41386 0
v -10.6935 -0.80462 0
v -7.92641 -2.41386 0
v -8.74922 -0.80462 0
v -7.77709 -0.80462 0
v -7.62777 -2.41386 0
v -6.80495 -0.80462 0
v -4.02853 -2.41386 0
v -4.86068 -0.80462 0
v -3.88854 -0.80462 0
v -3.74855 -2.41386 0
v -2.91641 -0.80462 0
v -0.139987 -2.41386 0
v -0.972136 -0.80462 0
v 2e-06 -0.80462 0
v 0.139989 -2.41386 0
v 0.972138 -0.80462 0
v 3.74856 -2.41386 0
v 2.91641 -0.80462 0
v 3.88855 -0.80462 0
v 4.02853 -2.41386 0
v 4.86068 -0.80462 0
v 7.6371 -2.41386 0
v 6.80495 -0.80462 0
v 7.77709 -0.80462 0
v 7.91708 -2.41386 0
v 8.74922 -0.80462 0
v 11.5256 -2.41386 0
v 10.6935 -0.80462 0
v 11.6656 -0.80462 0
v 11.8056 -2.41386 0
v 12.6378 -0.80462 0
v 14.582 -2.41386 0
v 14.582 -0.80462 0
v 16.1375 -2.41386 0
v 16.1375 -0.80462 0
v -14.9709 0.804621 0
v -16.1375 0.804621 0
v -12.2489 0.804621 0
v -11.6656 0.804621 0
v -11.0823 0.804621 0
v -8.36037 0.804621 0
v -7.77709 0.804621 0
v -7.19381 0.804621 0
v -4.47183 0.804621 0
v -3.88854 0.804621 0
v -3.30526 0.804621 0
v -0.583281 0.804621 0
v 2e-06 0.804621 0
v 0.583283 0.804621 0
v 3.30526 0.804621 0
v 3.88855 0.804621 0
v 4.47183 0.804621 0
v 7.19381 0.804621 0
v 7.77709 0.804621 0
v 8.36037 0.804621 0
v 11.0824 0.804621 0
v 11.6656 0.804621 0
v 12.2489 0.804621 0
v 14.9709 0.804621 0
v 16.1375 0.804621 0
v -16.1375 2.41386 0
v -14.9709 2.41386 0
v -11.6656 2.41386 0
v -11.0823 2.41386 0
v -7.77709 2.41386 0
v -7.19381 2.41386 0
v -3.88854 2.41386 0
v -3.30526 2.41386 0
v 2e-06 2.41386 0
v 0.583283 2.41386 0
v 3.88855 2.41386 0
v 4.47183 2.41386 0
v 7.77709 2.41386 0
v 8.36037 2.41386 0
v 11.6656 2.41386 0
v 12.2489 2.41386 0
v 14.9709 2.41386 0
v 16.1375 2.41386 0
v -12.2489 2.41386 0
v -8.36037 2.41386 0
v -4.47183 2.41386 0
v -0.583281 2.41386 0
v 3.30526 2.41386 0
v 7.19381 2.41386 0
v 11.0824 2.41386 0
vn 0 0 1
vt 0.000602 0.996032
vt 0.000602 0.948222
vt 0.05077 0.996032
vt 0.05077 0.948222
vt 0.000602 0.863167
vt 0.05077 0.888459
vt 0.05077 0.858577
vt 0.000602 0.853988
vt 0.05077 0.828696
vt 0.000602 0.743642
vt 0.05077 0.768933
vt 0.05077 0.739052
vt 0.000602 0.734462
vt 0.05077 0.70917
vt 0.000602 0.623829
vt 0.05077 0.649408
vt 0.05077 0.619526
vt 0.000602 0.615223
vt 0.05077 0.589644
vt 0.000602 0.504303
vt 0.05077 0.529882
vt 0.05077 0.5
vt 0.000602 0.495697
vt 0.05077 0.470119
vt 0.000602 0.384778
vt 0.05077 0.410356
vt 0.05077 0.380474
vt 0.000602 0.376172
vt 0.05077 0.350594
vt 0.000602 0.265251
vt 0.05077 0.290831
vt 0.05077 0.260949
vt 0.000602 0.256646
vt 0.05077 0.231068
vt 0.000602 0.145727
vt 0.05077 0.171305
vt 0.05077 0.141423
vt 0.000602 0.137121
vt 0.05077 0.111541
vt 0.000602 0.05178
vt 0.05077 0.05178
vt 0.000602 0.003968
vt 0.05077 0.003968
vt 0.100938 0.960174
vt 0.100938 0.996032
vt 0.100938 0.876506
vt 0.100938 0.858577
vt 0.100938 0.840649
vt 0.100938 0.756981
vt 0.100938 0.739052
vt 0.100938 0.721123
vt 0.100938 0.637455
vt 0.100938 0.619526
vt 0.100938 0.601597
vt 0.100938 0.51793
vt 0.100938 0.5
vt 0.100938 0.482072
vt 0.100938 0.398404
vt 0.100938 0.380474
vt 0.100938 0.362546
vt 0.100938 0.278878
vt 0.100938 0.260949
vt 0.100938 0.243021
vt 0.100938 0.159353
vt 0.100938 0.141423
vt 0.100938 0.123495
vt 0.100938 0.039827
vt 0.100938 0.003968
vt 0.151106 0.996032
vt 0.151106 0.960174
vt 0.151106 0.858577
vt 0.151106 0.840649
vt 0.151106 0.739052
vt 0.151106 0.721123
vt 0.151106 0.619526
vt 0.151106 0.601597
vt 0.151106 0.5
vt 0.151106 0.482072
vt 0.151106 0.380474
vt 0.151106 0.362546
vt 0.151106 0.260949
vt 0.151106 0.243021
vt 0.151106 0.141423
vt 0.151106 0.123495
vt 0.151106 0.039827
vt 0.151106 0.003968
vt 0.151106 0.876506
vt 0.151106 0.756981
vt 0.151106 0.637455
vt 0.151106 0.51793
vt 0.151106 0.398404
vt 0.151106 0.278878
vt 0.151106 0.159353
usemtl NorenSG
f 1/1/1 2/2/1 3/3/1
f 3/3/1 2/2/1 4/4/1
f 5/5/1 6/6/1 2/2/1
f 2/2/1 6/6/1 4/4/1
f 7/7/1 8/8/1 9/9/1
f 8/8/1 10/10/1 9/9/1
f 9/9/1 10/10/1 11/11/1
f 12/12/1 13/13/1 14/14/1
f 13/13/1 15/15/1 14/14/1
f 14/14/1 15/15/1 16/16/1
f 17/17/1 18/18/1 19/19/1
f 18/18/1 20/20/1 19/19/1
f 19/19/1 20/20/1 21/21/1
f 22/22/1 23/23/1 24/24/1
f 23/23/1 25/25/1 24/24/1
f 24/24/1 25/25/1 26/26/1
f 27/27/1 28/28/1 29/29/1
f 28/28/1 30/30/1 29/29/1
f 29/29/1 30/30/1 31/31/1
f 32/32/1 33/33/1 34/34/1
f 33/33/1 35/35/1 34/34/1
f 34/34/1 35/35/1 36/36/1
f 37/37/1 38/38/1 39/39/1
f 38/38/1 40/40/1 39/39/1
f 39/39/1 40/40/1 41/41/1
f 40/40/1 42/42/1 41/41/1
f 41/41/1 42/42/1 43/43/1
f 4/4/1 44/44/1 3/3/1
f 3/3/1 44/44/1 45/45/1
f 4/4/1 6/6/1 44/44/1
f 44/44/1 6/6/1 46/46/1
f 47/47/1 7/7/1 48/48/1
f 48/48/1 7/7/1 9/9/1
f 9/9/1 11/11/1 48/48/1
f 48/48/1 11/11/1 49/49/1
f 50/50/1 12/12/1 51/51/1
f 51/51/1 12/12/1 14/14/1
f 14/14/1 16/16/1 51/51/1
f 51/51/1 16/16/1 52/52/1
f 53/53/1 17/17/1 54/54/1
f 54/54/1 17/17/1 19/19/1
f 19/19/1 21/21/1 54/54/1
f 54/54/1 21/21/1 55/55/1
f 56/56/1 22/22/1 57/57/1
f 57/57/1 22/22/1 24/24/1
f 24/24/1 26/26/1 57/57/1
f 57/57/1 26/26/1 58/58/1
f 59/59/1 27/27/1 60/60/1
f 60/60/1 27/27/1 29/29/1
f 29/29/1 31/31/1 60/60/1
f 60/60/1 31/31/1 61/61/1
f 62/62/1 32/32/1 63/63/1
f 63/63/1 32/32/1 34/34/1
f 34/34/1 36/36/1 63/63/1
f 63/63/1 36/36/1 64/64/1
f 65/65/1 37/37/1 66/66/1
f 66/66/1 37/37/1 39/39/1
f 39/39/1 41/41/1 66/66/1
f 66/66/1 41/41/1 67/67/1
f 41/41/1 43/43/1 67/67/1
f 67/67/1 43/43/1 68/68/1
f 45/45/1 44/44/1 69/69/1
f 69/69/1 44/44/1 70/70/1
f 71/71/1 47/47/1 72/72/1
f 72/72/1 47/47/1 48/48/1
f 73/73/1 50/50/1 74/74/1
f 74/74/1 50/50/1 51/51/1
f 75/75/1 53/53/1 76/76/1
f 76/76/1 53/53/1 54/54/1
f 77/77/1 56/56/1 78/78/1
f 78/78/1 56/56/1 57/57/1
f 79/79/1 59/59/1 80/80/1
f 80/80/1 59/59/1 60/60/1
f 81/81/1 62/62/1 82/82/1
f 82/82/1 62/62/1 63/63/1
f 83/83/1 65/65/1 84/84/1
f 84/84/1 65/65/1 66/66/1
f 67/67/1 68/68/1 85/85/1
f 85/85/1 68/68/1 86/86/1
f 46/46/1 47/47/1 87/87/1
f 87/87/1 47/47/1 71/71/1
f 6/6/1 7/7/1 46/46/1
f 46/46/1 7/7/1 47/47/1
f 5/5/1 7/7/1 6/6/1
f 49/49/1 50/50/1 88/88/1
f 88/88/1 50/50/1 73/73/1
f 11/11/1 12/12/1 49/49/1
f 49/49/1 12/12/1 50/50/1
f 10/10/1 12/12/1 11/11/1
f 52/52/1 53/53/1 89/89/1
f 89/89/1 53/53/1 75/75/1
f 16/16/1 17/17/1 52/52/1
f 52/52/1 17/17/1 53/53/1
f 15/15/1 17/17/1 16/16/1
f 55/55/1 56/56/1 90/90/1
f 90/90/1 56/56/1 77/77/1
f 21/21/1 22/22/1 55/55/1
f 55/55/1 22/22/1 56/56/1
f 20/20/1 22/22/1 21/21/1
f 58/58/1 59/59/1 91/91/1
f 91/91/1 59/59/1 79/79/1
f 26/26/1 27/27/1 58/58/1
f 58/58/1 27/27/1 59/59/1
f 25/25/1 27/27/1 26/26/1
f 61/61/1 62/62/1 92/92/1
f 92/92/1 62/62/1 81/81/1
f 31/31/1 32/32/1 61/61/1
f 61/61/1 32/32/1 62/62/1
f 30/30/1 32/32/1 31/31/1
f 64/64/1 65/65/1 93/93/1
f 93/93/1 65/65/1 83/83/1
f 36/36/1 37/37/1 64/64/1
f 64/64/1 37/37/1 65/65/1
f 35/35/1 37/37/1 36/36/1
s off
