# Apple ModelIO OBJ File: Taiyaki_PaperBowl_Yellow
mtllib Taiyaki_PaperBowl_Yellow.mtl
g Taiyaki_PaperBowl_Taiyaki_PaperBowlSG
v -0.533722 0.065977 0.125723
v -0.587997 0.081777 0.137972
v -0.51964 0.065977 0.194365
v -0.572044 0.081564 0.215622
v -0.587997 0.081777 -0.137972
v -0.533722 0.065977 -0.125723
v -0.519751 0.065977 -0.19441
v -0.572044 0.081564 -0.215622
v -0.350653 0.065977 0.302849
v -0.421587 0.065977 0.289574
v -0.379517 0.082889 0.341154
v -0.459217 0.082175 0.325584
v 0.350613 0.065977 0.302444
v 0.379517 0.082889 0.341154
v 0.421364 0.065977 0.289017
v 0.459217 0.082175 0.325584
v 0.533722 0.065977 0.125723
v 0.519751 0.065977 0.19441
v 0.587997 0.081777 0.137972
v 0.572044 0.081564 0.215622
v 0.533722 0.065977 -0.125723
v 0.587997 0.081777 -0.137972
v 0.51964 0.065977 -0.194365
v 0.572044 0.081564 -0.215622
v 0.350653 0.065977 -0.302849
v 0.421587 0.065977 -0.289574
v 0.379517 0.082889 -0.341154
v 0.459217 0.082175 -0.325584
v -0.350613 0.065977 -0.302444
v -0.379517 0.082889 -0.341154
v -0.421364 0.065977 -0.289017
v -0.459217 0.082175 -0.325584
v -0.526802 0.081636 0.281494
v -0.480518 0.065977 0.251497
v 0.480339 0.065977 0.251312
v 0.526802 0.081636 0.281494
v 0.526802 0.081636 -0.281494
v 0.480518 0.065977 -0.251497
v -0.480339 0.065977 -0.251312
v -0.526802 0.081636 -0.281494
v -0.486799 0.032487 0.435766
v -0.504244 0.079831 0.454548
v -0.57165 0.032822 0.419828
v -0.591288 0.078762 0.43737
v 0.50424 0.079816 0.454546
v 0.486788 0.032419 0.435892
v 0.571684 0.032722 0.419991
v 0.59128 0.078743 0.437368
v -0.643263 0.03304 0.373714
v -0.665064 0.077793 0.388823
v 0.643299 0.033001 0.373758
v 0.665064 0.077786 0.388823
v -0.70771 0.033152 0.221298
v -0.73205 0.0782 0.231104
v -0.707766 0.033114 -0.221298
v -0.732048 0.078194 -0.231102
v -0.691 0.033061 0.304096
v -0.714504 0.077626 0.316393
v -0.690964 0.033087 -0.304083
v -0.714506 0.07763 -0.316393
v -0.665064 0.077786 -0.388823
v -0.643299 0.033001 -0.373758
v -0.486788 0.032419 -0.435892
v -0.50424 0.079816 -0.454546
v 0.486799 0.032487 -0.435766
v 0.504244 0.079831 -0.454548
v -0.571684 0.032722 -0.419991
v -0.59128 0.078743 -0.437368
v 0.57165 0.032822 -0.419828
v 0.591288 0.078762 -0.43737
v 0.643263 0.03304 -0.373714
v 0.665064 0.077793 -0.388823
v 0.707766 0.033114 0.221298
v 0.732048 0.078194 0.231102
v 0.690964 0.033087 0.304083
v 0.714506 0.07763 0.316393
v 0.732048 0.078194 -0.231102
v 0.707766 0.033114 -0.221298
v 0.691 0.033061 -0.304096
v 0.714504 0.077626 -0.316393
v -0.471647 0 0.398811
v -0.478588 0.012954 0.423012
v -0.54714 0 0.384668
v -0.5599 0.012154 0.406906
v 0.478649 0.013026 0.423384
v 0.47167 0 0.398775
v 0.547075 0 0.384548
v 0.560131 0.012243 0.407406
v -0.608627 0 0.345236
v -0.627884 0.011625 0.362549
v 0.608492 0 0.345207
v 0.62804 0.011656 0.362701
v -0.663977 0 0.212332
v -0.6894 0.011621 0.216473
v -0.664358 0 -0.212339
v -0.689608 0.011652 -0.216497
v -0.649485 0 0.285748
v -0.673428 0.011548 0.296143
v -0.649406 0 -0.285715
v -0.673286 0.011519 -0.296083
v -0.62804 0.011656 -0.362701
v -0.608492 0 -0.345207
v -0.47167 0 -0.398775
v -0.478649 0.013026 -0.423384
v 0.471647 0 -0.398811
v 0.478588 0.012954 -0.423012
v -0.547075 0 -0.384548
v -0.560131 0.012243 -0.407406
v 0.54714 0 -0.384668
v 0.5599 0.012154 -0.406906
v 0.608627 0 -0.345236
v 0.627884 0.011625 -0.362549
v 0.66436 0 0.212336
v 0.689608 0.011652 0.216497
v 0.649406 0 0.285715
v 0.673286 0.011519 0.296083
v 0.68961 0.011652 -0.216497
v 0.664198 0 -0.212336
v 0.649502 0 -0.285728
v 0.673426 0.011546 -0.296143
v -0.840215 0.293447 0.282383
v -0.832845 0.275283 0.289906
v -0.822792 0.291984 0.373381
v -0.814822 0.274083 0.376499
v -0.832845 0.275283 -0.289906
v -0.840215 0.293447 -0.282383
v -0.822781 0.291983 -0.37339
v -0.814822 0.274084 -0.376499
v -0.770649 0.291959 0.449621
v -0.764646 0.274574 0.450214
v -0.693012 0.292377 0.500807
v -0.689356 0.274697 0.49942
v -0.602129 0.292689 0.519241
v -0.600407 0.274433 0.516642
v 0.600279 0.293976 0.518051
v 0.600962 0.276138 0.516954
v 0.689352 0.27469 0.49942
v 0.692957 0.29238 0.500866
v 0.764647 0.274575 0.450214
v 0.770649 0.291961 0.449625
v 0.814823 0.274084 0.376499
v 0.822781 0.291983 0.37339
v 0.832846 0.275283 0.289906
v 0.840216 0.293447 0.282383
v 0.840216 0.293447 -0.282383
v 0.832846 0.275283 -0.289906
v 0.822792 0.291984 -0.373381
v 0.814823 0.274083 -0.376499
v -0.770649 0.291961 -0.449625
v -0.764646 0.274575 -0.450214
v -0.692957 0.29238 -0.500866
v -0.689352 0.27469 -0.49942
v -0.600279 0.293976 -0.518051
v -0.600962 0.276138 -0.516954
v 0.600407 0.274433 -0.516642
v 0.602129 0.292689 -0.519241
v 0.689356 0.274697 -0.49942
v 0.693012 0.292377 -0.500807
v 0.764645 0.274574 -0.450214
v 0.770649 0.291959 -0.449621
v -0.816417 0.308068 -0.26144
v -0.816417 0.308068 0.26144
v -0.739078 0.296328 -0.217947
v -0.739078 0.296328 0.217947
v -0.799235 0.307797 0.352985
v -0.722225 0.29695 0.302204
v -0.746245 0.308153 0.430349
v -0.672924 0.297051 0.373955
v -0.667454 0.308782 0.482475
v -0.598919 0.296649 0.421707
v -0.57613 0.309087 0.501411
v -0.512337 0.296712 0.438602
v 0.573694 0.309497 0.499716
v 0.511812 0.295502 0.438194
v 0.667383 0.308656 0.482635
v 0.598957 0.296583 0.421885
v 0.746256 0.308096 0.430382
v 0.672968 0.297022 0.37401
v 0.799213 0.307828 0.352989
v 0.722193 0.296962 0.302193
v 0.816418 0.308068 0.26144
v 0.739077 0.296328 0.217947
v 0.816418 0.308068 -0.26144
v 0.739077 0.296328 -0.217947
v -0.746257 0.308096 -0.430382
v -0.799213 0.307828 -0.352989
v -0.672968 0.297022 -0.37401
v -0.722194 0.296962 -0.302193
v -0.667383 0.308656 -0.482635
v -0.598957 0.296583 -0.421885
v -0.573694 0.309497 -0.499716
v -0.511812 0.295502 -0.438194
v 0.57613 0.309087 -0.501411
v 0.512337 0.296712 -0.438602
v 0.746244 0.308153 -0.430349
v 0.667454 0.308782 -0.482475
v 0.672924 0.297051 -0.373955
v 0.598919 0.296649 -0.421707
v 0.799236 0.307797 -0.352985
v 0.722225 0.29695 -0.302204
v -0.795596 0.268749 0.276939
v -0.778379 0.267602 0.359661
v -0.730446 0.268071 0.430079
v -0.658524 0.268189 0.477083
v -0.573553 0.267936 0.493534
v 0.574083 0.269565 0.493834
v 0.658522 0.268181 0.477083
v 0.730448 0.268072 0.430079
v 0.778379 0.267603 0.359661
v 0.795595 0.268749 0.276939
v -0.778379 0.267603 -0.359661
v -0.795596 0.268749 -0.276939
v -0.730447 0.268072 -0.430079
v -0.658522 0.268181 -0.477083
v -0.574083 0.269565 -0.493834
v 0.658524 0.268189 -0.477083
v 0.573553 0.267936 -0.493534
v 0.730446 0.268071 -0.430079
v 0.778379 0.267602 -0.359661
v 0.795595 0.268749 -0.276939
v -0.707507 0.27054 0.194378
v -0.707507 0.27054 -0.194378
v -0.69133 0.272487 0.27742
v -0.691328 0.272486 -0.27742
v -0.64329 0.272728 0.347517
v -0.570669 0.271107 0.39398
v -0.485426 0.270282 0.410263
v 0.484396 0.267586 0.409666
v 0.570671 0.271111 0.393982
v 0.64329 0.272728 0.347517
v 0.691328 0.272486 0.27742
v 0.707506 0.27054 0.194378
v 0.707506 0.27054 -0.194378
v 0.69133 0.272487 -0.27742
v -0.484396 0.267586 -0.409666
v 0.485426 0.270282 -0.410263
v -0.570671 0.271111 -0.393982
v 0.570669 0.271107 -0.39398
v -0.64329 0.272728 -0.347517
v 0.64329 0.272728 -0.347517
vn 0.199907 0.979784 -0.00774
vn 0.784099 0.620057 -0.02678
vn 0.061815 0.997743 -0.026232
vn 0.694941 0.656372 -0.293653
vn 0.784118 0.620034 0.026774
vn 0.199903 0.979785 0.007704
vn 0.061968 0.99773 0.026372
vn 0.694931 0.656368 0.293686
vn 0.000315 0.999359 -0.035809
vn 0.011531 0.999329 -0.034777
vn 0.010073 0.412815 -0.910759
vn 0.282209 0.568099 -0.773059
vn -0.000337 0.999362 -0.035729
vn -0.009739 0.413171 -0.910602
vn -0.011467 0.999336 -0.034581
vn -0.283546 0.570334 -0.770922
vn -0.199903 0.979785 -0.007704
vn -0.061968 0.99773 -0.026372
vn -0.78412 0.620031 -0.026774
vn -0.694932 0.656368 -0.293684
vn -0.199907 0.979784 0.00774
vn -0.784101 0.620055 0.02678
vn -0.061815 0.997743 0.026232
vn -0.694942 0.656372 0.293652
vn -0.000315 0.999359 0.035809
vn -0.011531 0.999329 0.034777
vn -0.010073 0.412815 0.910759
vn -0.282209 0.568099 0.773059
vn 0.000337 0.999361 0.035729
vn 0.009739 0.413171 0.910602
vn 0.011467 0.999336 0.034581
vn 0.283546 0.570334 0.770922
vn 0.527814 0.639204 -0.559312
vn 0.029724 0.999024 -0.032689
vn -0.029611 0.999025 -0.032746
vn -0.527573 0.639486 -0.559218
vn -0.527814 0.639204 0.559312
vn -0.029724 0.999024 0.032689
vn 0.029611 0.999025 0.032746
vn 0.527573 0.639486 0.559218
vn -0.012012 -0.414399 0.910016
vn -0.011088 -0.230768 0.972946
vn -0.310982 -0.505746 0.804681
vn -0.338111 -0.335963 0.879096
vn 0.011124 -0.230719 0.972957
vn 0.011762 -0.414024 0.91019
vn 0.311958 -0.502397 0.806399
vn 0.337802 -0.335279 0.879476
vn -0.577974 -0.553216 0.599916
vn -0.638363 -0.393107 0.661785
vn 0.579415 -0.551805 0.599825
vn 0.638493 -0.392912 0.661776
vn -0.845085 -0.534051 0.024916
vn -0.937537 -0.347065 0.023868
vn -0.845088 -0.534047 -0.024882
vn -0.937537 -0.347065 -0.023868
vn -0.76266 -0.562505 0.319277
vn -0.847604 -0.396494 0.352647
vn -0.762835 -0.562224 -0.319353
vn -0.847625 -0.396453 -0.352643
vn -0.638493 -0.392911 -0.661776
vn -0.579415 -0.551805 -0.599825
vn -0.011762 -0.414024 -0.91019
vn -0.011124 -0.230719 -0.972957
vn 0.012012 -0.414399 -0.910016
vn 0.011088 -0.230768 -0.972946
vn -0.311958 -0.502396 -0.806399
vn -0.337802 -0.335279 -0.879476
vn 0.310982 -0.505746 -0.804681
vn 0.338111 -0.335963 -0.879096
vn 0.577974 -0.553217 -0.599914
vn 0.638363 -0.393107 -0.661785
vn 0.845515 -0.533366 0.025003
vn 0.937567 -0.346983 0.023876
vn 0.762836 -0.562224 0.319353
vn 0.847627 -0.396452 0.352639
vn 0.937572 -0.34697 -0.023871
vn 0.845582 -0.533264 -0.02493
vn 0.762773 -0.562118 -0.319687
vn 0.847616 -0.396441 -0.352677
vn -0.000207 -0.999833 0.018271
vn -0.009081 -0.723925 0.689819
vn -0.007294 -0.999775 0.019938
vn -0.229798 -0.766626 0.599565
vn 0.008739 -0.7242 0.689534
vn 0.000205 -0.999833 0.018262
vn 0.00733 -0.999773 0.020021
vn 0.229342 -0.768346 0.597533
vn -0.017951 -0.999658 0.019014
vn -0.42774 -0.785691 0.446909
vn 0.017999 -0.999656 0.019053
vn 0.427861 -0.786871 0.444713
vn -0.223925 -0.974585 0.006419
vn -0.619886 -0.784477 0.018375
vn -0.224452 -0.974464 -0.006348
vn -0.620189 -0.784239 -0.018278
vn -0.038396 -0.999134 0.016032
vn -0.563931 -0.791226 0.236521
vn -0.038332 -0.999135 -0.016095
vn -0.563576 -0.79143 -0.236689
vn -0.427861 -0.786871 -0.444713
vn -0.018 -0.999656 -0.019053
vn -0.000205 -0.999833 -0.018262
vn -0.008739 -0.7242 -0.689534
vn 0.000207 -0.999833 -0.018271
vn 0.009081 -0.723925 -0.689819
vn -0.00733 -0.999773 -0.020021
vn -0.229342 -0.768346 -0.597533
vn 0.007294 -0.999775 -0.019938
vn 0.229798 -0.766626 -0.599565
vn 0.017951 -0.999658 -0.019014
vn 0.427741 -0.78569 -0.44691
vn 0.223949 -0.97458 0.006407
vn 0.620609 -0.783903 0.018485
vn 0.03832 -0.999136 0.01609
vn 0.563576 -0.791429 0.236691
vn 0.620499 -0.783991 -0.01839
vn 0.223687 -0.97464 -0.006405
vn 0.038375 -0.999134 -0.01607
vn 0.563851 -0.791086 -0.237182
vn -0.967431 0.251573 0.028062
vn -0.486944 -0.873267 0.017056
vn -0.760282 0.566798 0.317349
vn -0.471403 -0.856215 0.211363
vn -0.486953 -0.873262 -0.017063
vn -0.96742 0.251614 -0.028071
vn -0.760199 0.566887 -0.317389
vn -0.471424 -0.856209 -0.211342
vn -0.573296 0.604313 0.553297
vn -0.372681 -0.839376 0.395672
vn -0.343978 0.575219 0.742161
vn -0.227798 -0.799262 0.556137
vn -0.021877 0.31072 0.95025
vn -0.01285 -0.543196 0.839507
vn 0.020245 0.294251 0.955514
vn 0.013966 -0.558849 0.829152
vn 0.225188 -0.795537 0.562504
vn 0.340221 0.583777 0.737193
vn 0.372735 -0.839342 0.395694
vn 0.573189 0.604467 0.55324
vn 0.471423 -0.85621 0.211341
vn 0.760189 0.566901 0.31739
vn 0.486936 -0.873271 0.017062
vn 0.967421 0.251612 0.028072
vn 0.967433 0.251568 -0.028062
vn 0.486928 -0.873276 -0.017056
vn 0.760277 0.566802 -0.317355
vn 0.4714 -0.856217 -0.211364
vn -0.573197 0.604455 -0.553245
vn -0.372732 -0.839344 -0.395693
vn -0.340222 0.583773 -0.737196
vn -0.225188 -0.795538 -0.562503
vn -0.020245 0.294251 -0.955514
vn -0.013966 -0.558849 -0.829152
vn 0.01285 -0.543196 -0.839508
vn 0.021877 0.31072 -0.95025
vn 0.227799 -0.799261 -0.556138
vn 0.343978 0.57522 -0.74216
vn 0.372678 -0.839377 -0.395673
vn 0.573296 0.604315 -0.553295
vn -0.130916 0.991393 0.000987
vn -0.130888 0.991397 -0.000946
vn 0.25595 0.966633 0.01045
vn 0.255953 0.966633 -0.010415
vn -0.070092 0.997312 0.021365
vn 0.220386 0.970347 -0.099281
vn -0.050827 0.997316 0.052709
vn 0.165675 0.970996 -0.172392
vn -0.017473 0.997006 0.075331
vn 0.106589 0.960459 -0.25721
vn 0.00154 0.965128 0.261774
vn 0.005576 0.949858 -0.312632
vn -0.001618 0.965944 0.258745
vn -0.005542 0.949359 -0.314144
vn 0.015757 0.997209 0.072973
vn -0.109086 0.959056 -0.261367
vn 0.050254 0.997335 0.052893
vn -0.165833 0.971124 -0.171517
vn 0.069881 0.997323 0.021539
vn -0.220602 0.970315 -0.09911
vn 0.130914 0.991393 -0.000987
vn -0.255946 0.966635 -0.01045
vn 0.130885 0.991397 0.000946
vn -0.25595 0.966634 0.010415
vn -0.050255 0.997335 -0.052893
vn -0.069881 0.997323 -0.021538
vn 0.165832 0.971124 0.171518
vn 0.220603 0.970315 0.099111
vn -0.015756 0.997209 -0.072972
vn 0.109086 0.959056 0.261366
vn 0.001618 0.965944 -0.258745
vn 0.005542 0.949359 0.314144
vn -0.00154 0.965128 -0.261774
vn -0.005576 0.949858 0.312632
vn 0.050826 0.997316 -0.052708
vn 0.017473 0.997006 -0.075332
vn -0.165675 0.970996 0.172392
vn -0.106589 0.960459 0.25721
vn 0.070092 0.997312 -0.021367
vn -0.220384 0.970348 0.099279
vn -0.858045 -0.512732 0.0294
vn -0.779124 -0.528592 0.336981
vn -0.602031 -0.520436 0.605562
vn -0.356647 -0.452629 0.81727
vn -0.018233 -0.393094 0.919317
vn 0.018604 -0.393503 0.919135
vn 0.353667 -0.450427 0.819777
vn 0.602045 -0.520436 0.605548
vn 0.779129 -0.528589 0.336973
vn 0.858044 -0.512734 0.0294
vn -0.77913 -0.528586 -0.336977
vn -0.858045 -0.512732 -0.0294
vn -0.602046 -0.520433 -0.60555
vn -0.353668 -0.450427 -0.819777
vn -0.018604 -0.393503 -0.919135
vn 0.356647 -0.452629 -0.81727
vn 0.018233 -0.393094 -0.919317
vn 0.602031 -0.520435 -0.605563
vn 0.779125 -0.528593 -0.336978
vn 0.858044 -0.512734 -0.029399
vn 0.796337 0.603803 -0.035631
vn 0.796341 0.603797 0.035637
vn 0.709776 0.633846 -0.30734
vn 0.709796 0.633837 0.307312
vn 0.553119 0.62866 -0.546668
vn 0.33507 0.568497 -0.751359
vn 0.021806 0.475637 -0.879371
vn -0.02147 0.475155 -0.87964
vn -0.338117 0.570795 -0.748245
vn -0.553047 0.628935 -0.546425
vn -0.709798 0.633835 -0.307311
vn -0.796343 0.603794 -0.035636
vn -0.796339 0.6038 0.03563
vn -0.709777 0.633845 0.307338
vn 0.02147 0.475155 0.87964
vn -0.021806 0.475637 0.879371
vn 0.338117 0.570795 0.748245
vn -0.33507 0.568497 0.751359
vn 0.553046 0.628935 0.546425
vn -0.553119 0.62866 0.546668
vt 0.799957 0.171386
vt 0.808731 0.153473
vt 0.835648 0.178783
vt 0.838046 0.161061
vt 0.708966 0.152643
vt 0.713906 0.170841
vt 0.690574 0.175179
vt 0.684092 0.159112
vt 0.863905 0.230639
vt 0.861938 0.208947
vt 0.877368 0.220291
vt 0.87306 0.197431
vt 0.857555 0.463376
vt 0.870499 0.474025
vt 0.853211 0.484801
vt 0.864757 0.496375
vt 0.801617 0.518723
vt 0.82354 0.514478
vt 0.807017 0.53642
vt 0.830938 0.530444
vt 0.720108 0.518287
vt 0.714525 0.535928
vt 0.698248 0.513772
vt 0.690672 0.529704
vt 0.664607 0.462295
vt 0.668696 0.483856
vt 0.651702 0.472829
vt 0.657241 0.495304
vt 0.660443 0.228693
vt 0.646798 0.218296
vt 0.662978 0.206462
vt 0.651139 0.19518
vt 0.859897 0.176609
vt 0.852059 0.190938
vt 0.841402 0.50251
vt 0.851207 0.516225
vt 0.670563 0.515283
vt 0.680438 0.501695
vt 0.67338 0.187873
vt 0.663841 0.174317
vt 0.100913 0.191224
vt 0.083189 0.1843
vt 0.108149 0.15618
vt 0.088903 0.150365
vt 0.083612 0.543741
vt 0.101453 0.537315
vt 0.105803 0.567004
vt 0.088205 0.575071
vt 0.119094 0.127489
vt 0.097672 0.117359
vt 0.117636 0.597728
vt 0.0972 0.607392
vt 0.183231 0.107234
vt 0.179612 0.089325
vt 0.341155 0.108428
vt 0.345067 0.090562
vt 0.154005 0.111844
vt 0.14882 0.093777
vt 0.370405 0.113569
vt 0.375913 0.095519
vt 0.11738 0.103738
vt 0.124475 0.124537
vt 0.40741 0.106012
vt 0.399994 0.127012
vt 0.42083 0.191564
vt 0.438637 0.185236
vt 0.420146 0.537257
vt 0.437933 0.543652
vt 0.416696 0.161918
vt 0.434251 0.153994
vt 0.405133 0.131236
vt 0.425482 0.121783
vt 0.415828 0.56688
vt 0.433377 0.574884
vt 0.404072 0.597507
vt 0.424429 0.607112
vt 0.181906 0.619935
vt 0.178137 0.637846
vt 0.152605 0.615033
vt 0.147239 0.633139
vt 0.343749 0.637719
vt 0.339939 0.619828
vt 0.115649 0.622897
vt 0.122894 0.601846
vt 0.36921 0.614886
vt 0.374616 0.632941
vt 0.406147 0.622609
vt 0.398838 0.601636
vt 0.119095 0.196159
vt 0.10927 0.193949
vt 0.124287 0.168243
vt 0.115789 0.162645
vt 0.109503 0.534363
vt 0.119222 0.531861
vt 0.123698 0.558693
vt 0.114233 0.56265
vt 0.13831 0.145732
vt 0.129956 0.135913
vt 0.137334 0.58101
vt 0.128506 0.590328
vt 0.186286 0.126732
vt 0.184929 0.117045
vt 0.337775 0.127779
vt 0.339301 0.118163
vt 0.160021 0.131543
vt 0.156952 0.121771
vt 0.363939 0.133155
vt 0.367234 0.123495
vt 0.394269 0.138477
vt 0.385383 0.147684
vt 0.40309 0.196922
vt 0.412791 0.194471
vt 0.402473 0.531818
vt 0.41203 0.534291
vt 0.398825 0.17008
vt 0.408276 0.166198
vt 0.39806 0.558639
vt 0.407285 0.562497
vt 0.384431 0.580957
vt 0.393169 0.590118
vt 0.185131 0.600541
vt 0.183681 0.610178
vt 0.158911 0.595375
vt 0.155694 0.60507
vt 0.338141 0.610082
vt 0.33667 0.600405
vt 0.362881 0.595308
vt 0.366119 0.604991
vt 0.884719 0.011572
vt 0.888551 0.002939
vt 0.92972 0.021811
vt 0.936731 0.014556
vt 0.632965 0.002957
vt 0.636805 0.011551
vt 0.592704 0.02239
vt 0.585726 0.015376
vt 0.966489 0.050583
vt 0.97509 0.046803
vt 0.987338 0.092062
vt 0.996032 0.091367
vt 0.989123 0.135539
vt 0.995823 0.136292
vt 0.976454 0.561685
vt 0.982909 0.562197
vt 0.979267 0.604092
vt 0.971311 0.602724
vt 0.956983 0.642812
vt 0.949435 0.638867
vt 0.920997 0.669659
vt 0.914988 0.662879
vt 0.87785 0.678685
vt 0.874422 0.670718
vt 0.645762 0.669467
vt 0.642249 0.677395
vt 0.605357 0.661223
vt 0.599284 0.667932
vt 0.557241 0.050954
vt 0.548844 0.047351
vt 0.537222 0.091225
vt 0.528786 0.090519
vt 0.535885 0.134312
vt 0.529384 0.134145
vt 0.537615 0.56005
vt 0.544295 0.560445
vt 0.541661 0.601902
vt 0.549635 0.600606
vt 0.56362 0.640786
vt 0.571194 0.636913
vt 0.646415 0.023769
vt 0.875094 0.023852
vt 0.666885 0.057312
vt 0.854436 0.057594
vt 0.918512 0.034479
vt 0.892978 0.069526
vt 0.954605 0.062963
vt 0.92575 0.095447
vt 0.975402 0.103308
vt 0.946748 0.130928
vt 0.980066 0.144716
vt 0.95647 0.167702
vt 0.968076 0.551842
vt 0.946261 0.5285
vt 0.961188 0.591334
vt 0.935614 0.563416
vt 0.939353 0.626945
vt 0.914155 0.595469
vt 0.905318 0.651022
vt 0.882926 0.617985
vt 0.865705 0.659324
vt 0.84713 0.627854
vt 0.654598 0.658172
vt 0.673495 0.626914
vt 0.568909 0.062911
vt 0.603872 0.034712
vt 0.597394 0.094668
vt 0.62925 0.069134
vt 0.548761 0.102272
vt 0.576975 0.129485
vt 0.544803 0.143739
vt 0.567912 0.166106
vt 0.552809 0.550878
vt 0.575085 0.527019
vt 0.581382 0.625082
vt 0.559938 0.58936
vt 0.606846 0.593865
vt 0.585754 0.561667
vt 0.615125 0.649483
vt 0.637811 0.616697
vt 0.162111 0.016723
vt 0.130038 0.020041
vt 0.098974 0.028529
vt 0.015852 0.124455
vt 0.022116 0.091646
vt 0.01422 0.158228
vt 0.014398 0.569771
vt 0.017222 0.602542
vt 0.024213 0.63443
vt 0.096861 0.69839
vt 0.128009 0.70703
vt 0.16015 0.710497
vt 0.395707 0.021829
vt 0.363618 0.018128
vt 0.426771 0.030701
vt 0.498189 0.095234
vt 0.504997 0.126974
vt 0.507669 0.159587
vt 0.504071 0.602226
vt 0.506305 0.569378
vt 0.497189 0.634001
vt 0.394075 0.706733
vt 0.425198 0.697976
vt 0.36192 0.7103
vt 0.842915 0.074335
vt 0.678174 0.073954
vt 0.879459 0.086135
vt 0.64262 0.085502
vt 0.910562 0.110307
vt 0.931682 0.143286
vt 0.942698 0.177845
vt 0.93272 0.517618
vt 0.921564 0.550727
vt 0.900411 0.580831
vt 0.870751 0.60219
vt 0.836739 0.612103
vt 0.684044 0.611281
vt 0.650142 0.601026
vt 0.582072 0.176458
vt 0.588297 0.516456
vt 0.591942 0.141734
vt 0.599893 0.549101
vt 0.612429 0.109284
vt 0.620713 0.579386
vt 0.157687 0.002886
vt 0.126814 0.005357
vt 0.368229 0.004347
vt 0.399102 0.007155
vt 0.095956 0.014333
vt 0.003968 0.115844
vt 0.010007 0.082773
vt 0.005505 0.148653
vt 0.005724 0.579377
vt 0.005867 0.611375
vt 0.012667 0.643437
vt 0.093792 0.712629
vt 0.124724 0.721741
vt 0.155641 0.72433
vt 0.36646 0.724125
vt 0.397419 0.72144
vt 0.42995 0.01649
vt 0.516325 0.118238
vt 0.509714 0.086336
vt 0.516343 0.150055
vt 0.514924 0.578942
vt 0.515426 0.610929
vt 0.50878 0.642956
vt 0.428339 0.712204
usemtl Taiyaki_PaperBowlSG
f 1/1/1 2/2/2 3/3/3
f 3/3/3 2/2/2 4/4/4
f 2/2/2 1/1/1 5/5/5
f 5/5/5 1/1/1 6/6/6
f 6/6/6 7/7/7 5/5/5
f 5/5/5 7/7/7 8/8/8
f 9/9/9 10/10/10 11/11/11
f 11/11/11 10/10/10 12/12/12
f 9/9/9 11/11/11 13/13/13
f 13/13/13 11/11/11 14/14/14
f 13/13/13 14/14/14 15/15/15
f 15/15/15 14/14/14 16/16/16
f 17/17/17 18/18/18 19/19/19
f 19/19/19 18/18/18 20/20/20
f 17/17/17 19/19/19 21/21/21
f 21/21/21 19/19/19 22/22/22
f 21/21/21 22/22/22 23/23/23
f 23/23/23 22/22/22 24/24/24
f 25/25/25 26/26/26 27/27/27
f 27/27/27 26/26/26 28/28/28
f 25/25/25 27/27/27 29/29/29
f 29/29/29 27/27/27 30/30/30
f 29/29/29 30/30/30 31/31/31
f 31/31/31 30/30/30 32/32/32
f 4/4/4 33/33/33 3/3/3
f 3/3/3 33/33/33 34/34/34
f 33/33/33 12/12/12 34/34/34
f 34/34/34 12/12/12 10/10/10
f 15/15/15 16/16/16 35/35/35
f 35/35/35 16/16/16 36/36/36
f 35/35/35 36/36/36 18/18/18
f 18/18/18 36/36/36 20/20/20
f 24/24/24 37/37/37 23/23/23
f 23/23/23 37/37/37 38/38/38
f 37/37/37 28/28/28 38/38/38
f 38/38/38 28/28/28 26/26/26
f 31/31/31 32/32/32 39/39/39
f 39/39/39 32/32/32 40/40/40
f 39/39/39 40/40/40 7/7/7
f 7/7/7 40/40/40 8/8/8
f 25/25/25 13/13/13 26/26/26
f 26/26/26 13/13/13 15/15/15
f 39/39/39 34/34/34 31/31/31
f 31/31/31 34/34/34 10/10/10
f 31/31/31 10/10/10 29/29/29
f 29/29/29 10/10/10 9/9/9
f 6/6/6 1/1/1 7/7/7
f 7/7/7 1/1/1 3/3/3
f 7/7/7 3/3/3 39/39/39
f 39/39/39 3/3/3 34/34/34
f 9/9/9 13/13/13 29/29/29
f 29/29/29 13/13/13 25/25/25
f 38/38/38 35/35/35 23/23/23
f 23/23/23 35/35/35 18/18/18
f 26/26/26 15/15/15 38/38/38
f 38/38/38 15/15/15 35/35/35
f 23/23/23 18/18/18 21/21/21
f 21/21/21 18/18/18 17/17/17
f 41/41/41 42/42/42 43/43/43
f 43/43/43 42/42/42 44/44/44
f 42/42/42 41/41/41 45/45/45
f 45/45/45 41/41/41 46/46/46
f 46/46/46 47/47/47 45/45/45
f 45/45/45 47/47/47 48/48/48
f 43/43/43 44/44/44 49/49/49
f 49/49/49 44/44/44 50/50/50
f 47/47/47 51/51/51 48/48/48
f 48/48/48 51/51/51 52/52/52
f 53/53/53 54/54/54 55/55/55
f 55/55/55 54/54/54 56/56/56
f 53/53/53 57/57/57 54/54/54
f 54/54/54 57/57/57 58/58/58
f 55/55/55 56/56/56 59/59/59
f 59/59/59 56/56/56 60/60/60
f 58/58/58 57/57/57 50/61/50
f 50/61/50 57/57/57 49/62/49
f 60/60/60 61/63/61 59/59/59
f 59/59/59 61/63/61 62/64/62
f 63/65/63 64/66/64 65/67/65
f 65/67/65 64/66/64 66/68/66
f 63/65/63 67/69/67 64/66/64
f 64/66/64 67/69/67 68/70/68
f 67/69/67 62/71/62 68/70/68
f 68/70/68 62/71/62 61/72/61
f 65/67/65 66/68/66 69/73/69
f 69/73/69 66/68/66 70/74/70
f 69/73/69 70/74/70 71/75/71
f 71/75/71 70/74/70 72/76/72
f 73/77/73 74/78/74 75/79/75
f 75/79/75 74/78/74 76/80/76
f 74/78/74 73/77/73 77/81/77
f 77/81/77 73/77/73 78/82/78
f 76/80/76 52/83/52 75/79/75
f 75/79/75 52/83/52 51/84/51
f 78/82/78 79/85/79 77/81/77
f 77/81/77 79/85/79 80/86/80
f 80/86/80 79/85/79 72/87/72
f 72/87/72 79/85/79 71/88/71
f 81/89/81 82/90/82 83/91/83
f 83/91/83 82/90/82 84/92/84
f 82/90/82 81/89/81 85/93/85
f 85/93/85 81/89/81 86/94/86
f 86/94/86 87/95/87 85/93/85
f 85/93/85 87/95/87 88/96/88
f 83/91/83 84/92/84 89/97/89
f 89/97/89 84/92/84 90/98/90
f 87/95/87 91/99/91 88/96/88
f 88/96/88 91/99/91 92/100/92
f 93/101/93 94/102/94 95/103/95
f 95/103/95 94/102/94 96/104/96
f 93/101/93 97/105/97 94/102/94
f 94/102/94 97/105/97 98/106/98
f 95/103/95 96/104/96 99/107/99
f 99/107/99 96/104/96 100/108/100
f 98/106/98 97/105/97 90/98/90
f 90/98/90 97/105/97 89/97/89
f 100/108/100 101/109/101 99/107/99
f 99/107/99 101/109/101 102/110/102
f 103/111/103 104/112/104 105/113/105
f 105/113/105 104/112/104 106/114/106
f 103/111/103 107/115/107 104/112/104
f 104/112/104 107/115/107 108/116/108
f 107/115/107 102/110/102 108/116/108
f 108/116/108 102/110/102 101/109/101
f 105/113/105 106/114/106 109/117/109
f 109/117/109 106/114/106 110/118/110
f 109/117/109 110/118/110 111/119/111
f 111/119/111 110/118/110 112/120/112
f 113/121/113 114/122/114 115/123/115
f 115/123/115 114/122/114 116/124/116
f 114/122/114 113/121/113 117/125/117
f 117/125/117 113/121/113 118/126/118
f 116/124/116 92/100/92 115/123/115
f 115/123/115 92/100/92 91/99/91
f 118/126/118 119/127/119 117/125/117
f 117/125/117 119/127/119 120/128/120
f 120/128/120 119/127/119 112/120/112
f 112/120/112 119/127/119 111/119/111
f 102/110/102 89/97/89 99/107/99
f 99/107/99 89/97/89 97/105/97
f 99/107/99 97/105/97 95/103/95
f 95/103/95 97/105/97 93/101/93
f 107/115/107 83/91/83 102/110/102
f 102/110/102 83/91/83 89/97/89
f 109/117/109 87/95/87 105/113/105
f 105/113/105 87/95/87 86/94/86
f 103/111/103 81/89/81 107/115/107
f 107/115/107 81/89/81 83/91/83
f 105/113/105 86/94/86 103/111/103
f 103/111/103 86/94/86 81/89/81
f 118/126/118 113/121/113 119/127/119
f 119/127/119 113/121/113 115/123/115
f 111/119/111 91/99/91 109/117/109
f 109/117/109 91/99/91 87/95/87
f 119/127/119 115/123/115 111/119/111
f 111/119/111 115/123/115 91/99/91
f 41/41/41 82/90/82 46/46/46
f 46/46/46 82/90/82 85/93/85
f 82/90/82 41/41/41 84/92/84
f 84/92/84 41/41/41 43/43/43
f 85/93/85 88/96/88 46/46/46
f 46/46/46 88/96/88 47/47/47
f 94/102/94 53/53/53 96/104/96
f 96/104/96 53/53/53 55/55/55
f 94/102/94 98/106/98 53/53/53
f 53/53/53 98/106/98 57/57/57
f 96/104/96 55/55/55 100/108/100
f 100/108/100 55/55/55 59/59/59
f 104/112/104 108/116/108 63/65/63
f 63/65/63 108/116/108 67/69/67
f 104/112/104 63/65/63 106/114/106
f 106/114/106 63/65/63 65/67/65
f 106/114/106 65/67/65 110/118/110
f 110/118/110 65/67/65 69/73/69
f 114/122/114 73/77/73 116/124/116
f 116/124/116 73/77/73 75/79/75
f 73/77/73 114/122/114 78/82/78
f 78/82/78 114/122/114 117/125/117
f 117/125/117 120/128/120 78/82/78
f 78/82/78 120/128/120 79/85/79
f 57/57/57 98/106/98 49/62/49
f 49/62/49 98/106/98 90/98/90
f 49/49/49 90/98/90 43/43/43
f 43/43/43 90/98/90 84/92/84
f 88/96/88 92/100/92 47/47/47
f 47/47/47 92/100/92 51/51/51
f 92/100/92 116/124/116 51/84/51
f 51/84/51 116/124/116 75/79/75
f 59/59/59 62/64/62 100/108/100
f 100/108/100 62/64/62 101/109/101
f 62/71/62 67/69/67 101/109/101
f 101/109/101 67/69/67 108/116/108
f 110/118/110 69/73/69 112/120/112
f 112/120/112 69/73/69 71/75/71
f 112/120/112 71/88/71 120/128/120
f 120/128/120 71/88/71 79/85/79
f 121/129/121 122/130/122 123/131/123
f 123/131/123 122/130/122 124/132/124
f 122/130/122 121/129/121 125/133/125
f 125/133/125 121/129/121 126/134/126
f 126/134/126 127/135/127 125/133/125
f 125/133/125 127/135/127 128/136/128
f 123/131/123 124/132/124 129/137/129
f 129/137/129 124/132/124 130/138/130
f 129/137/129 130/138/130 131/139/131
f 131/139/131 130/138/130 132/140/132
f 131/139/131 132/140/132 133/141/133
f 133/141/133 132/140/132 134/142/134
f 133/141/133 134/142/134 135/143/135
f 135/143/135 134/142/134 136/144/136
f 136/144/136 137/145/137 135/143/135
f 135/143/135 137/145/137 138/146/138
f 137/145/137 139/147/139 138/146/138
f 138/146/138 139/147/139 140/148/140
f 139/147/139 141/149/141 140/148/140
f 140/148/140 141/149/141 142/150/142
f 141/149/141 143/151/143 142/150/142
f 142/150/142 143/151/143 144/152/144
f 144/152/144 143/151/143 145/153/145
f 145/153/145 143/151/143 146/154/146
f 145/153/145 146/154/146 147/155/147
f 147/155/147 146/154/146 148/156/148
f 127/135/127 149/157/149 128/136/128
f 128/136/128 149/157/149 150/158/150
f 149/157/149 151/159/151 150/158/150
f 150/158/150 151/159/151 152/160/152
f 151/159/151 153/161/153 152/160/152
f 152/160/152 153/161/153 154/162/154
f 154/162/154 153/161/153 155/163/155
f 155/163/155 153/161/153 156/164/156
f 155/163/155 156/164/156 157/165/157
f 157/165/157 156/164/156 158/166/158
f 157/165/157 158/166/158 159/167/159
f 159/167/159 158/166/158 160/168/160
f 159/167/159 160/168/160 148/156/148
f 148/156/148 160/168/160 147/155/147
f 161/169/161 162/170/162 163/171/163
f 163/171/163 162/170/162 164/172/164
f 165/173/165 166/174/166 162/170/162
f 162/170/162 166/174/166 164/172/164
f 167/175/167 168/176/168 165/173/165
f 165/173/165 168/176/168 166/174/166
f 167/175/167 169/177/169 168/176/168
f 168/176/168 169/177/169 170/178/170
f 169/177/169 171/179/171 170/178/170
f 170/178/170 171/179/171 172/180/172
f 171/179/171 173/181/173 172/180/172
f 172/180/172 173/181/173 174/182/174
f 175/183/175 176/184/176 173/181/173
f 173/181/173 176/184/176 174/182/174
f 177/185/177 178/186/178 175/183/175
f 175/183/175 178/186/178 176/184/176
f 177/185/177 179/187/179 178/186/178
f 178/186/178 179/187/179 180/188/180
f 179/187/179 181/189/181 180/188/180
f 180/188/180 181/189/181 182/190/182
f 181/189/181 183/191/183 182/190/182
f 182/190/182 183/191/183 184/192/184
f 185/193/185 186/194/186 187/195/187
f 187/195/187 186/194/186 188/196/188
f 186/194/186 161/169/161 188/196/188
f 188/196/188 161/169/161 163/171/163
f 185/193/185 187/195/187 189/197/189
f 189/197/189 187/195/187 190/198/190
f 189/197/189 190/198/190 191/199/191
f 191/199/191 190/198/190 192/200/192
f 193/201/193 191/199/191 194/202/194
f 194/202/194 191/199/191 192/200/192
f 195/203/195 196/204/196 197/205/197
f 197/205/197 196/204/196 198/206/198
f 196/204/196 193/201/193 198/206/198
f 198/206/198 193/201/193 194/202/194
f 195/203/195 197/205/197 199/207/199
f 199/207/199 197/205/197 200/208/200
f 199/207/199 200/208/200 183/191/183
f 183/191/183 200/208/200 184/192/184
f 54/54/54 58/58/58 201/209/201
f 201/209/201 58/58/58 202/210/202
f 50/61/50 203/211/203 58/58/58
f 58/58/58 203/211/203 202/210/202
f 44/44/44 204/212/204 50/50/50
f 50/50/50 204/212/204 203/213/203
f 42/42/42 205/214/205 44/44/44
f 44/44/44 205/214/205 204/212/204
f 45/45/45 48/48/48 206/215/206
f 206/215/206 48/48/48 207/216/207
f 48/48/48 52/52/52 207/216/207
f 207/216/207 52/52/52 208/217/208
f 52/83/52 76/80/76 208/218/208
f 208/218/208 76/80/76 209/219/209
f 74/78/74 210/220/210 76/80/76
f 76/80/76 210/220/210 209/219/209
f 211/221/211 60/60/60 212/222/212
f 212/222/212 60/60/60 56/56/56
f 211/221/211 213/223/213 60/60/60
f 60/60/60 213/223/213 61/63/61
f 213/224/213 214/225/214 61/72/61
f 61/72/61 214/225/214 68/70/68
f 214/225/214 215/226/215 68/70/68
f 68/70/68 215/226/215 64/66/64
f 216/227/216 70/74/70 217/228/217
f 217/228/217 70/74/70 66/68/66
f 218/229/218 72/76/72 216/227/216
f 216/227/216 72/76/72 70/74/70
f 219/230/219 80/86/80 218/231/218
f 218/231/218 80/86/80 72/87/72
f 219/230/219 220/232/220 80/86/80
f 80/86/80 220/232/220 77/81/77
f 42/42/42 45/45/45 205/214/205
f 205/214/205 45/45/45 206/215/206
f 215/226/215 217/228/217 64/66/64
f 64/66/64 217/228/217 66/68/66
f 210/220/210 74/78/74 220/232/220
f 220/232/220 74/78/74 77/81/77
f 212/222/212 56/56/56 201/209/201
f 201/209/201 56/56/56 54/54/54
f 164/172/164 221/233/221 163/171/163
f 163/171/163 221/233/221 222/234/222
f 221/233/221 164/172/164 223/235/223
f 223/235/223 164/172/164 166/174/166
f 222/234/222 224/236/224 163/171/163
f 163/171/163 224/236/224 188/196/188
f 223/235/223 166/174/166 225/237/225
f 225/237/225 166/174/166 168/176/168
f 168/176/168 170/178/170 225/237/225
f 225/237/225 170/178/170 226/238/226
f 170/178/170 172/180/172 226/238/226
f 226/238/226 172/180/172 227/239/227
f 227/239/227 172/180/172 228/240/228
f 228/240/228 172/180/172 174/182/174
f 228/240/228 174/182/174 229/241/229
f 229/241/229 174/182/174 176/184/176
f 229/241/229 176/184/176 230/242/230
f 230/242/230 176/184/176 178/186/178
f 178/186/178 180/188/180 230/242/230
f 230/242/230 180/188/180 231/243/231
f 180/188/180 182/190/182 231/243/231
f 231/243/231 182/190/182 232/244/232
f 232/244/232 182/190/182 233/245/233
f 233/245/233 182/190/182 184/192/184
f 233/245/233 184/192/184 234/246/234
f 234/246/234 184/192/184 200/208/200
f 192/200/192 235/247/235 194/202/194
f 194/202/194 235/247/235 236/248/236
f 235/247/235 192/200/192 237/249/237
f 237/249/237 192/200/192 190/198/190
f 236/248/236 238/250/238 194/202/194
f 194/202/194 238/250/238 198/206/198
f 237/249/237 190/198/190 239/251/239
f 239/251/239 190/198/190 187/195/187
f 187/195/187 188/196/188 239/251/239
f 239/251/239 188/196/188 224/236/224
f 234/246/234 200/208/200 240/252/240
f 240/252/240 200/208/200 197/205/197
f 197/205/197 198/206/198 240/252/240
f 240/252/240 198/206/198 238/250/238
f 227/239/227 228/240/228 11/11/11
f 11/11/11 228/240/228 14/14/14
f 232/244/232 233/245/233 19/19/19
f 19/19/19 233/245/233 22/22/22
f 236/248/236 235/247/235 27/27/27
f 27/27/27 235/247/235 30/30/30
f 222/234/222 221/233/221 5/5/5
f 5/5/5 221/233/221 2/2/2
f 226/238/226 227/239/227 12/12/12
f 12/12/12 227/239/227 11/11/11
f 225/237/225 226/238/226 33/33/33
f 33/33/33 226/238/226 12/12/12
f 223/235/223 4/4/4 221/233/221
f 221/233/221 4/4/4 2/2/2
f 223/235/223 225/237/225 4/4/4
f 4/4/4 225/237/225 33/33/33
f 231/243/231 232/244/232 20/20/20
f 20/20/20 232/244/232 19/19/19
f 231/243/231 20/20/20 230/242/230
f 230/242/230 20/20/20 36/36/36
f 229/241/229 16/16/16 228/240/228
f 228/240/228 16/16/16 14/14/14
f 230/242/230 36/36/36 229/241/229
f 229/241/229 36/36/36 16/16/16
f 238/250/238 236/248/236 28/28/28
f 28/28/28 236/248/236 27/27/27
f 240/252/240 238/250/238 37/37/37
f 37/37/37 238/250/238 28/28/28
f 234/246/234 24/24/24 233/245/233
f 233/245/233 24/24/24 22/22/22
f 234/246/234 240/252/240 24/24/24
f 24/24/24 240/252/240 37/37/37
f 224/236/224 222/234/222 8/8/8
f 8/8/8 222/234/222 5/5/5
f 224/236/224 8/8/8 239/251/239
f 239/251/239 8/8/8 40/40/40
f 237/249/237 32/32/32 235/247/235
f 235/247/235 32/32/32 30/30/30
f 239/251/239 40/40/40 237/249/237
f 237/249/237 40/40/40 32/32/32
f 201/209/201 202/210/202 122/253/122
f 122/253/122 202/210/202 124/254/124
f 162/170/162 121/129/121 165/173/165
f 165/173/165 121/129/121 123/131/123
f 162/170/162 161/169/161 121/129/121
f 121/129/121 161/169/161 126/134/126
f 212/222/212 201/209/201 125/255/125
f 125/255/125 201/209/201 122/253/122
f 161/169/161 186/194/186 126/134/126
f 126/134/126 186/194/186 127/135/127
f 212/222/212 125/255/125 211/221/211
f 211/221/211 125/255/125 128/256/128
f 203/211/203 130/257/130 202/210/202
f 202/210/202 130/257/130 124/254/124
f 165/173/165 123/131/123 167/175/167
f 167/175/167 123/131/123 129/137/129
f 204/212/204 132/258/132 203/213/203
f 203/213/203 132/258/132 130/259/130
f 169/177/169 167/175/167 131/139/131
f 131/139/131 167/175/167 129/137/129
f 205/214/205 134/260/134 204/212/204
f 204/212/204 134/260/134 132/258/132
f 171/179/171 169/177/169 133/141/133
f 133/141/133 169/177/169 131/139/131
f 205/214/205 206/215/206 134/260/134
f 134/260/134 206/215/206 136/261/136
f 173/181/173 171/179/171 135/143/135
f 135/143/135 171/179/171 133/141/133
f 206/215/206 207/216/207 136/261/136
f 136/261/136 207/216/207 137/262/137
f 173/181/173 135/143/135 175/183/175
f 175/183/175 135/143/135 138/146/138
f 207/216/207 208/217/208 137/262/137
f 137/262/137 208/217/208 139/263/139
f 175/183/175 138/146/138 177/185/177
f 177/185/177 138/146/138 140/148/140
f 208/218/208 209/219/209 139/264/139
f 139/264/139 209/219/209 141/265/141
f 179/187/179 177/185/177 142/150/142
f 142/150/142 177/185/177 140/148/140
f 210/220/210 143/266/143 209/219/209
f 209/219/209 143/266/143 141/265/141
f 181/189/181 179/187/179 144/152/144
f 144/152/144 179/187/179 142/150/142
f 210/220/210 220/232/220 143/266/143
f 143/266/143 220/232/220 146/267/146
f 183/191/183 181/189/181 145/153/145
f 145/153/145 181/189/181 144/152/144
f 220/232/220 219/230/219 146/267/146
f 146/267/146 219/230/219 148/268/148
f 183/191/183 145/153/145 199/207/199
f 199/207/199 145/153/145 147/155/147
f 186/194/186 185/193/185 127/135/127
f 127/135/127 185/193/185 149/157/149
f 213/223/213 211/221/211 150/269/150
f 150/269/150 211/221/211 128/256/128
f 189/197/189 151/159/151 185/193/185
f 185/193/185 151/159/151 149/157/149
f 214/225/214 213/224/213 152/270/152
f 152/270/152 213/224/213 150/271/150
f 191/199/191 153/161/153 189/197/189
f 189/197/189 153/161/153 151/159/151
f 215/226/215 214/225/214 154/272/154
f 154/272/154 214/225/214 152/270/152
f 191/199/191 193/201/193 153/161/153
f 153/161/153 193/201/193 156/164/156
f 217/228/217 215/226/215 155/273/155
f 155/273/155 215/226/215 154/272/154
f 193/201/193 196/204/196 156/164/156
f 156/164/156 196/204/196 158/166/158
f 217/228/217 155/273/155 216/227/216
f 216/227/216 155/273/155 157/274/157
f 196/204/196 195/203/195 158/166/158
f 158/166/158 195/203/195 160/168/160
f 216/227/216 157/274/157 218/229/218
f 218/229/218 157/274/157 159/275/159
f 199/207/199 147/155/147 195/203/195
f 195/203/195 147/155/147 160/168/160
f 218/231/218 159/276/159 219/230/219
f 219/230/219 159/276/159 148/268/148
s off
