# Apple ModelIO OBJ File: Tube_1
mtllib Tube_1.mtl
g Tube_1_Tube_1SG
v -0.760411 -0.891274 -2.28383
v -0.537579 -0.617455 -2.14567
v -0.760411 -3.13629 2.1654
v -0.537579 -2.86247 2.30356
v -0.537579 -0.278996 -1.97489
v -0.537579 -2.52402 2.47434
v -0.760411 -0.005177 -1.83672
v -0.760411 -2.2502 2.61251
v -1.12096 0.099414 -1.78395
v -1.12096 -2.14561 2.66528
v -1.48151 -0.005177 -1.83672
v -1.48151 -2.2502 2.61251
v -1.70434 -0.278996 -1.97489
v -1.70434 -2.52402 2.47434
v -1.70434 -0.617455 -2.14567
v -1.70434 -2.86247 2.30356
v -1.48151 -0.891274 -2.28383
v -1.48151 -3.13629 2.1654
v -1.12096 -0.995862 -2.33661
v -1.12096 -3.24088 2.11262
v -0.760411 -20.2124 3.8936
v -0.537579 -20.2124 3.5869
v -0.760411 -4.24088 3.8936
v -0.537579 -4.24088 3.5869
v -0.537579 -20.2124 3.20779
v -0.537579 -4.24088 3.20779
v -0.760411 -20.2124 2.90109
v -0.760411 -4.24088 2.90109
v -1.12096 -20.2124 2.78394
v -1.12096 -4.24088 2.78394
v -1.48151 -20.2124 2.90109
v -1.48151 -4.24088 2.90109
v -1.70434 -20.2124 3.20779
v -1.70434 -4.24088 3.20779
v -1.70434 -20.2124 3.5869
v -1.70434 -4.24088 3.5869
v -1.48151 -20.2124 3.8936
v -1.48151 -4.24088 3.8936
v -1.12096 -20.2124 4.01075
v -1.12096 -4.24088 4.01075
v 1.5872 6.8352 0.210357
v 1.28049 6.8352 -0.012476
v 1.5872 20.2124 0.210357
v 1.28049 20.2124 -0.012476
v 0.901387 6.8352 -0.012476
v 0.901387 20.2124 -0.012476
v 0.594684 6.8352 0.210357
v 0.594684 20.2124 0.210357
v 0.477535 6.8352 0.570907
v 0.477535 20.2124 0.570907
v 0.594685 6.8352 0.931458
v 0.594685 20.2124 0.931458
v 0.901387 6.8352 1.15429
v 0.901387 20.2124 1.15429
v 1.28049 6.8352 1.15429
v 1.28049 20.2124 1.15429
v 1.5872 6.8352 0.931458
v 1.5872 20.2124 0.931458
v 1.70434 6.8352 0.570907
v 1.70434 20.2124 0.570907
v 1.57461 6.43601 0.210356
v 1.26879 6.45201 -0.012476
v 1.69142 6.4299 0.570907
v 1.57461 6.43601 0.931458
v 1.26879 6.45201 1.15429
v 0.890772 6.47179 1.15429
v 0.584951 6.48778 0.931458
v 0.468137 6.4939 0.570907
v 0.584951 6.48779 0.210356
v 0.890772 6.47179 -0.012476
v 1.4889 5.98188 0.210356
v 1.19492 6.06107 -0.012476
v 1.6012 5.95164 0.570907
v 1.4889 5.98188 0.931458
v 1.19492 6.06107 1.15429
v 0.831526 6.15896 1.15429
v 0.537538 6.23814 0.931458
v 0.425244 6.26839 0.570907
v 0.537538 6.23814 0.210356
v 0.831526 6.15896 -0.012476
v 1.26948 5.53038 0.210356
v 1.01907 5.70027 -0.012476
v 1.36512 5.46549 0.570907
v 1.26948 5.53038 0.931458
v 1.01907 5.70027 1.15429
v 0.709544 5.91027 1.15429
v 0.459135 6.08015 0.931458
v 0.363487 6.14505 0.570907
v 0.459135 6.08015 0.210356
v 0.709544 5.91027 -0.012476
v 0.735368 5.41657 -0.012476
v 0.905258 5.16616 0.210356
v 0.97015 5.07051 0.570907
v 0.905258 5.16616 0.931458
v 0.735368 5.41657 1.15429
v 0.525371 5.72609 1.15429
v 0.355481 5.9765 0.931458
v 0.290589 6.07215 0.570907
v 0.355481 5.9765 0.210356
v 0.525371 5.72609 -0.012476
v 0.374564 5.24072 -0.012476
v 0.453753 4.94673 0.210356
v 0.484 4.83444 0.570907
v 0.453753 4.94673 0.931458
v 0.374564 5.24072 1.15429
v 0.276681 5.60411 1.15429
v 0.197492 5.8981 0.931458
v 0.167245 6.01039 0.570907
v 0.197492 5.8981 0.210356
v 0.276681 5.60411 -0.012476
v -0.026262 5.16685 -0.012476
v -0.026262 4.86103 0.210357
v -0.026262 4.74421 0.570907
v -0.026262 4.86103 0.931458
v -0.026262 5.16685 1.15429
v -0.026262 5.54486 1.15429
v -0.026262 5.85069 0.931459
v -0.026262 5.9675 0.570907
v -0.026262 5.85069 0.210357
v -0.026262 5.54486 -0.012476
v -0.760412 5.85035 -0.878641
v -0.537579 5.54365 -0.878641
v -0.760412 5.85035 -1.78394
v -0.537579 5.54365 -1.78394
v -0.537579 5.16454 -0.878641
v -0.537579 5.16454 -1.78394
v -0.760412 4.85784 -0.878641
v -0.760412 4.85784 -1.78394
v -1.12096 4.74069 -0.878641
v -1.12096 4.74069 -1.78394
v -1.48151 4.85784 -0.878641
v -1.48151 4.85784 -1.78394
v -1.70434 5.16454 -0.878641
v -1.70434 5.16454 -1.78394
v -1.70434 5.54365 -0.878641
v -1.70434 5.54365 -1.78394
v -1.48151 5.85035 -0.878641
v -1.48151 5.85035 -1.78394
v -1.12096 5.9675 -0.878641
v -1.12096 5.9675 -1.78394
v -0.52832 5.54365 -0.543288
v -0.52832 5.16454 -0.543288
v -0.750512 4.85784 -0.531665
v -1.11003 4.74069 -0.512858
v -1.46954 4.85784 -0.49405
v -1.69174 5.16454 -0.482427
v -1.69174 5.54365 -0.482427
v -1.46954 5.85035 -0.49405
v -1.11003 5.9675 -0.512858
v -0.750512 5.85035 -0.531665
v -0.220434 5.54365 -0.053511
v -0.220434 5.16454 -0.053511
v -0.277967 4.85784 0.160084
v -0.37106 4.74069 0.505688
v -0.464151 4.85784 0.851292
v -0.521686 5.16454 1.06489
v -0.521686 5.54365 1.06489
v -0.464151 5.85035 0.851292
v -0.37106 5.9675 0.505688
v -0.277967 5.85035 0.160084
v -0.346518 5.54365 -0.116535
v -0.346518 5.16454 -0.116535
v -0.46995 4.85784 0.065398
v -0.669668 4.74069 0.359772
v -0.869386 4.85784 0.654146
v -0.992819 5.16454 0.836079
v -0.992819 5.54365 0.836079
v -0.869386 5.85035 0.654146
v -0.669668 5.9675 0.359772
v -0.46995 5.85035 0.065398
v -0.422586 5.54365 -0.192603
v -0.422586 5.16454 -0.192603
v -0.604519 4.85784 -0.06917
v -0.898893 4.74069 0.130548
v -1.19327 4.85784 0.330266
v -1.3752 5.16454 0.453699
v -1.3752 5.54365 0.453699
v -1.19327 5.85035 0.330266
v -0.898893 5.9675 0.130548
v -0.604519 5.85035 -0.06917
v -0.485609 5.54365 -0.318687
v -0.485609 5.16454 -0.318687
v -0.699204 4.85784 -0.261153
v -1.04481 4.74069 -0.168061
v -1.39041 4.85784 -0.074968
v -1.60401 5.16454 -0.017434
v -1.60401 5.54365 -0.017434
v -1.39041 5.85035 -0.074968
v -1.04481 5.9675 -0.168061
v -0.699204 5.85035 -0.261153
v -0.760411 3.74069 -3.8936
v -0.537579 3.74069 -3.5869
v -0.760411 1.09941 -3.8936
v -0.537579 1.09941 -3.5869
v -0.537579 3.74069 -3.20779
v -0.537579 1.09941 -3.20779
v -0.760411 3.74069 -2.90109
v -0.760411 1.09941 -2.90109
v -1.12096 3.74069 -2.78394
v -1.12096 1.09941 -2.78394
v -1.48151 3.74069 -2.90109
v -1.48151 1.09941 -2.90109
v -1.70434 3.74069 -3.20779
v -1.70434 1.09941 -3.20779
v -1.70434 3.74069 -3.5869
v -1.70434 1.09941 -3.5869
v -1.48151 3.74069 -3.8936
v -1.48151 1.09941 -3.8936
v -1.12096 3.74069 -4.01075
v -1.12096 1.09941 -4.01075
v -0.537579 4.13489 -3.19626
v -0.537579 4.15466 -3.57427
v -0.760411 4.11889 -2.89043
v -1.12096 4.11278 -2.77362
v -1.48151 4.11889 -2.89044
v -1.70434 4.13489 -3.19626
v -1.70434 4.15466 -3.57427
v -1.48151 4.17066 -3.8801
v -1.12096 4.17677 -3.99691
v -0.760411 4.17066 -3.8801
v -0.537579 5.53102 -2.19791
v -0.537579 5.15301 -2.17814
v -0.760412 4.84718 -2.16214
v -1.12096 4.73037 -2.15603
v -1.48151 4.84719 -2.16214
v -1.70434 5.15301 -2.17814
v -1.70434 5.53102 -2.19791
v -1.48151 5.83685 -2.21391
v -1.12096 5.95366 -2.22002
v -0.760412 5.83685 -2.21391
v -0.537579 5.45166 -2.61787
v -0.537579 5.08827 -2.51998
v -0.760412 4.79428 -2.44079
v -1.12096 4.68199 -2.41055
v -1.48151 4.79429 -2.44079
v -1.70434 5.08827 -2.51998
v -1.70434 5.45166 -2.61787
v -1.48151 5.74565 -2.69705
v -1.12096 5.85794 -2.7273
v -0.760412 5.74565 -2.69705
v -0.537579 5.26354 -3.0038
v -0.537579 4.95401 -2.7938
v -0.760412 4.70361 -2.62391
v -1.12096 4.60796 -2.55902
v -1.48151 4.70361 -2.62391
v -1.70434 4.95401 -2.7938
v -1.70434 5.26354 -3.0038
v -1.48151 5.51395 -3.17369
v -1.12096 5.60959 -3.23858
v -0.760412 5.51395 -3.17369
v -0.537579 4.96055 -3.30679
v -0.537579 4.75055 -2.99726
v -0.760412 4.58066 -2.74685
v -1.12096 4.51577 -2.65121
v -1.48151 4.58066 -2.74685
v -1.70434 4.75055 -2.99726
v -1.70434 4.96055 -3.30679
v -1.48151 5.13044 -3.5572
v -1.12096 5.19533 -3.65284
v -0.760411 5.13044 -3.5572
v -0.537579 4.47674 -3.13153
v -0.537579 4.57462 -3.49491
v -0.760412 4.39755 -2.83753
v -1.12096 4.3673 -2.72524
v -1.48151 4.39754 -2.83754
v -1.70434 4.47674 -3.13153
v -1.70434 4.57462 -3.49491
v -1.48151 4.65381 -3.7889
v -1.12096 4.68405 -3.9012
v -0.760411 4.65381 -3.7889
v -0.537579 0.734685 -3.57552
v -0.760411 0.717792 -3.88118
v -1.12096 0.711339 -3.99794
v -1.48151 0.717792 -3.88118
v -1.70434 0.734685 -3.57552
v -1.70434 0.755565 -3.1977
v -1.48151 0.77246 -2.89204
v -1.12096 0.778911 -2.77529
v -0.760411 0.772458 -2.89204
v -0.537579 0.755565 -3.1977
v -0.537579 -0.456862 -2.46889
v -0.760411 -0.73166 -2.60509
v -1.12096 -0.836623 -2.65712
v -1.48151 -0.73166 -2.60509
v -1.70434 -0.456862 -2.46889
v -1.70434 -0.11719 -2.30054
v -1.48151 0.157609 -2.16434
v -1.12096 0.262574 -2.11231
v -0.760411 0.157609 -2.16434
v -0.537579 -0.11719 -2.30054
v -0.537579 -0.304248 -2.78117
v -0.760411 -0.577394 -2.92041
v -1.12096 -0.681727 -2.97359
v -1.48151 -0.577394 -2.92041
v -1.70434 -0.304248 -2.78117
v -1.70434 0.03338 -2.60905
v -1.48151 0.306527 -2.46981
v -1.12096 0.410859 -2.41663
v -0.760411 0.306527 -2.46981
v -0.537579 0.03338 -2.60905
v -0.537579 -0.136519 -3.07546
v -0.760411 -0.388957 -3.24715
v -1.12096 -0.485379 -3.31274
v -1.48151 -0.388957 -3.24715
v -1.70434 -0.136519 -3.07546
v -1.70434 0.175511 -2.86323
v -1.48151 0.427949 -2.69154
v -1.12096 0.524373 -2.62596
v -0.760411 0.427951 -2.69154
v -0.537579 0.175511 -2.86323
v -0.537579 0.086986 -3.33045
v -0.760412 -0.101363 -3.56721
v -1.12096 -0.173303 -3.65765
v -1.48151 -0.101363 -3.56721
v -1.70434 0.086986 -3.33045
v -1.70434 0.319793 -3.0378
v -1.48151 0.50814 -2.80104
v -1.12096 0.580085 -2.71061
v -0.760411 0.508143 -2.80104
v -0.537579 0.319793 -3.0378
v -0.537579 0.38646 -3.50267
v -0.760412 0.297557 -3.79278
v -1.12096 0.263598 -3.9036
v -1.48151 0.297557 -3.79278
v -1.70434 0.38646 -3.50267
v -1.70434 0.49635 -3.14408
v -1.48151 0.585256 -2.85397
v -1.12096 0.619214 -2.74316
v -0.760412 0.585256 -2.85397
v -0.537579 0.49635 -3.14408
v -0.537579 -3.92298 3.20292
v -0.537579 -3.91184 3.58165
v -0.760411 -3.90283 3.88804
v -1.12096 -3.89939 4.00508
v -1.48151 -3.90283 3.88804
v -1.70434 -3.91184 3.58165
v -1.70434 -3.92298 3.20292
v -1.48151 -3.932 2.89653
v -1.12096 -3.93544 2.77949
v -0.760411 -3.932 2.89652
v -0.537579 -3.00981 2.5887
v -0.537579 -2.67483 2.76597
v -0.760411 -2.40382 2.90939
v -1.12096 -2.3003 2.96417
v -1.48151 -2.40382 2.90939
v -1.70434 -2.67483 2.76597
v -1.70434 -3.00981 2.5887
v -1.48151 -3.28082 2.44529
v -1.12096 -3.38434 2.39051
v -0.760411 -3.28082 2.44529
v -0.537579 -2.84042 3.03877
v -0.537579 -3.15445 2.8282
v -0.760412 -2.58636 3.20912
v -1.12096 -2.48932 3.27419
v -1.48151 -2.58636 3.20912
v -1.70434 -2.84042 3.03877
v -1.70434 -3.15445 2.8282
v -1.48151 -3.4085 2.65785
v -1.12096 -3.50555 2.59278
v -0.760412 -3.40851 2.65785
v -0.537579 -3.0424 3.27396
v -0.537579 -3.29922 2.99946
v -0.760411 -2.83462 3.49604
v -1.12096 -2.75526 3.58086
v -1.48151 -2.83462 3.49604
v -1.70434 -3.0424 3.27396
v -1.70434 -3.29922 2.99946
v -1.48151 -3.50699 2.77738
v -1.12096 -3.58636 2.69255
v -0.760412 -3.507 2.77738
v -0.537579 -3.4562 3.10816
v -0.537579 -3.29679 3.44795
v -0.760411 -3.16783 3.72284
v -1.12096 -3.11857 3.82784
v -1.48151 -3.16783 3.72284
v -1.70434 -3.29679 3.44795
v -1.70434 -3.4562 3.10816
v -1.48151 -3.58516 2.83327
v -1.12096 -3.63442 2.72827
v -0.760412 -3.58516 2.83327
v -0.537579 -3.6569 3.17335
v -0.537579 -3.59292 3.54538
v -0.760411 -3.54116 3.84636
v -1.12096 -3.52139 3.96132
v -1.48151 -3.54116 3.84636
v -1.70434 -3.59292 3.54538
v -1.70434 -3.6569 3.17335
v -1.48151 -3.70866 2.87237
v -1.12096 -3.72843 2.7574
v -0.760412 -3.70866 2.87236
vn 0.587861 -0.722379 -0.364125
vn 0.951104 -0.275814 -0.139028
vn 0.587937 -0.721975 -0.364805
vn 0.951152 -0.275543 -0.139231
vn 0.951009 0.276074 0.139157
vn 0.950957 0.27607 0.13952
vn 0.587711 0.722478 0.364172
vn 0.587623 0.722149 0.364966
vn -2e-06 0.892973 0.450111
vn -2e-06 0.892493 0.451062
vn -0.587711 0.722478 0.364172
vn -0.587623 0.722149 0.364966
vn -0.951009 0.276075 0.139158
vn -0.950957 0.276071 0.13952
vn -0.951104 -0.275814 -0.139028
vn -0.951152 -0.275544 -0.139231
vn -0.587861 -0.722379 -0.364125
vn -0.587936 -0.721975 -0.364805
vn -0 -0.892971 -0.450114
vn -0 -0.892534 -0.450979
vn 0.587787 0 0.809016
vn 0.951056 0 0.309018
vn 0.587703 0.000274 0.809077
vn 0.951006 0.000103 0.309172
vn 0.951057 0 -0.309017
vn 0.951104 -8.9e-05 -0.308869
vn 0.587785 0 -0.809017
vn 0.58786 -0.000228 -0.808963
vn -3e-06 0 -1
vn -3e-06 -0.000278 -1
vn -0.587786 0 -0.809017
vn -0.58786 -0.000228 -0.808963
vn -0.951056 0 -0.309018
vn -0.951104 -8.9e-05 -0.30887
vn -0.951056 0 0.309018
vn -0.951006 0.000103 0.309172
vn -0.587787 0 0.809016
vn -0.587703 0.000274 0.809077
vn 0 0 1
vn -0 0.000343 1
vn 0.80916 -0.000734 -0.587588
vn 0.309373 -0.000277 -0.950941
vn 0.809017 0 -0.587785
vn 0.309017 0 -0.951056
vn -0.308683 0.000225 -0.951165
vn -0.309017 0 -0.951056
vn -0.808896 0.000579 -0.587951
vn -0.809017 0 -0.587785
vn -1 0.000701 0
vn -1 0 0
vn -0.808896 0.000579 0.587951
vn -0.809017 0 0.587785
vn -0.308682 0.000225 0.951165
vn -0.309017 0 0.951057
vn 0.309373 -0.000277 0.950941
vn 0.309017 0 0.951057
vn 0.80916 -0.000734 0.587588
vn 0.809017 0 0.587785
vn 1 -0.00092 0
vn 1 0 0
vn 0.816069 -0.09354 -0.570335
vn 0.339239 -0.03907 -0.939889
vn 0.993442 -0.114338 -0
vn 0.816069 -0.09354 0.570335
vn 0.339239 -0.039071 0.939888
vn -0.274691 0.026748 0.961161
vn -0.792233 0.076695 0.60538
vn -0.99553 0.094445 0
vn -0.792234 0.076696 -0.605379
vn -0.274691 0.026749 -0.96116
vn 0.788211 -0.265017 -0.555419
vn 0.350823 -0.118876 -0.928866
vn 0.947923 -0.3185 0
vn 0.78821 -0.265017 0.555419
vn 0.350824 -0.118877 0.928865
vn -0.230046 0.071796 0.970528
vn -0.742902 0.231312 0.628165
vn -0.956134 0.29293 1e-06
vn -0.742902 0.231312 -0.628165
vn -0.230046 0.071796 -0.970528
vn 0.6813 -0.48719 -0.546329
vn 0.315289 -0.226122 -0.921663
vn 0.813569 -0.581468 2e-06
vn 0.6813 -0.487191 0.54633
vn 0.31529 -0.226123 0.921662
vn -0.177595 0.124244 0.976229
vn -0.624179 0.435941 0.648349
vn -0.821943 0.569569 -0
vn -0.624177 0.435939 -0.648352
vn -0.177594 0.124243 -0.97623
vn 0.226123 -0.31529 -0.921662
vn 0.487192 -0.681299 -0.54633
vn 0.58147 -0.813568 4e-06
vn 0.487191 -0.681299 0.54633
vn 0.226124 -0.315292 0.921661
vn -0.124244 0.177594 0.976229
vn -0.435939 0.624177 0.648352
vn -0.569569 0.821943 1e-06
vn -0.435939 0.624177 -0.648352
vn -0.124244 0.177593 -0.97623
vn 0.117805 -0.355148 -0.927357
vn 0.258992 -0.791639 -0.553382
vn 0.309924 -0.950761 2e-06
vn 0.258992 -0.791637 0.553384
vn 0.117806 -0.355148 0.927357
vn -0.073068 0.225407 0.971521
vn -0.243784 0.737021 0.630373
vn -0.31501 0.949088 -1e-06
vn -0.243785 0.737021 -0.630372
vn -0.073069 0.225407 -0.971521
vn 0.113637 -0.360428 -0.925839
vn 0.134738 -0.831921 -0.538288
vn 0.099925 -0.994421 0.033806
vn 0.024061 -0.804681 0.593219
vn -0.061175 -0.328067 0.942671
vn -0.12122 0.264362 0.956775
vn -0.13168 0.766974 0.628022
vn -0.091024 0.994667 0.048507
vn -0.02276 0.815659 -0.578085
vn 0.051051 0.276963 -0.959524
vn 0.585233 0.810852 -0.004583
vn 0.950672 0.310113 -0.007214
vn 0.58566 0.810516 -0.008153
vn 0.949793 0.312864 -0.003111
vn 0.950673 -0.310112 -0.007214
vn 0.952233 -0.305362 0.002596
vn 0.585232 -0.810853 -0.004584
vn 0.589603 -0.807665 0.006751
vn -0.004098 -0.999992 0.000182
vn -3e-06 -0.999966 0.008222
vn -0.590585 -0.806957 0.005528
vn -0.589603 -0.807665 0.006751
vn -0.951438 -0.307707 0.009099
vn -0.952233 -0.305362 0.002595
vn -0.951438 0.307707 0.009098
vn -0.949793 0.312864 -0.003111
vn -0.590587 0.806955 0.005528
vn -0.58566 0.810516 -0.008153
vn -0.004096 0.999992 0.000182
vn 0 0.999948 -0.010172
vn 0.943068 0.320281 -0.089682
vn 0.943068 -0.32028 -0.089682
vn 0.560422 -0.826381 -0.054976
vn -0.036103 -0.999331 0.005866
vn -0.607509 -0.791266 0.069502
vn -0.948255 -0.298158 0.109156
vn -0.948255 0.298158 0.109156
vn -0.607511 0.791265 0.069502
vn -0.036101 0.999331 0.005866
vn 0.560424 0.826379 -0.054976
vn 0.292094 0.33895 -0.894312
vn 0.294706 -0.340509 -0.892861
vn 0.169042 -0.848662 -0.501197
vn -0.020469 -0.997171 0.07233
vn -0.195893 -0.774202 0.601861
vn -0.297616 -0.288766 0.909966
vn -0.298633 0.288083 0.90985
vn -0.199014 0.773629 0.601574
vn -0.025509 0.997105 0.071631
vn 0.163546 0.848696 -0.502959
vn 0.533087 0.354356 -0.768277
vn 0.533088 -0.354355 -0.768277
vn 0.2924 -0.8606 -0.416978
vn -0.055502 -0.99558 0.075766
vn -0.37445 -0.765549 0.523185
vn -0.557661 -0.283693 0.780085
vn -0.557662 0.283694 0.780084
vn -0.374451 0.765548 0.523185
vn -0.055502 0.99558 0.075767
vn 0.292402 0.860598 -0.41698
vn 0.768277 0.354357 -0.533087
vn 0.768278 -0.354356 -0.533086
vn 0.416976 -0.860601 -0.292399
vn -0.075767 -0.99558 0.055501
vn -0.523183 -0.765549 0.374452
vn -0.780083 -0.283693 0.557663
vn -0.780084 0.283694 0.557661
vn -0.523185 0.765548 0.374451
vn -0.075767 0.99558 0.055504
vn 0.416979 0.860599 -0.292402
vn 0.900074 0.336847 -0.276406
vn 0.900075 -0.336847 -0.276405
vn 0.508685 -0.845986 -0.159836
vn -0.067162 -0.997429 0.025006
vn -0.598454 -0.775383 0.20158
vn -0.907384 -0.289136 0.305049
vn -0.907384 0.289136 0.305049
vn -0.598455 0.775381 0.201582
vn -0.067161 0.997429 0.025009
vn 0.508688 0.845984 -0.159838
vn 0.58687 0.003538 -0.809674
vn 0.950514 0.001343 -0.310678
vn 0.586857 -0.003301 -0.809684
vn 0.950512 -0.001244 -0.310687
vn 0.951563 -0.001112 0.307452
vn 0.951559 0.000975 0.307463
vn 0.588563 -0.002875 0.808446
vn 0.588549 0.00249 0.808458
vn -3e-06 -0.003493 0.999994
vn -3e-06 0.003 0.999996
vn -0.588563 -0.002875 0.808446
vn -0.588549 0.002491 0.808458
vn -0.951563 -0.001112 0.307453
vn -0.951559 0.000975 0.307464
vn -0.950514 0.001343 -0.310678
vn -0.950512 -0.001244 -0.310687
vn -0.58687 0.003538 -0.809674
vn -0.586857 -0.003301 -0.809684
vn 0 0.004424 -0.99999
vn 0 -0.004146 -0.999991
vn 0.960696 -0.027078 0.276279
vn 0.940355 0.038792 -0.337977
vn 0.604358 -0.077528 0.792931
vn -2e-06 -0.095657 0.995414
vn -0.604359 -0.077528 0.792931
vn -0.960696 -0.027079 0.27628
vn -0.940355 0.038791 -0.337977
vn -0.570948 0.093078 -0.815693
vn 0 0.113781 -0.993506
vn 0.570948 0.093078 -0.815693
vn 0.940355 0.337977 -0.03879
vn 0.960696 -0.276279 0.027078
vn 0.604357 -0.792932 0.077528
vn -3e-06 -0.995414 0.095657
vn -0.604357 -0.792933 0.077528
vn -0.960696 -0.27628 0.027078
vn -0.940355 0.337977 -0.038791
vn -0.570947 0.815694 -0.093077
vn 0 0.993506 -0.113781
vn 0.570947 0.815694 -0.093077
vn 0.929803 0.348631 -0.117993
vn 0.969518 -0.233819 0.073238
vn 0.624693 -0.745146 0.233486
vn -3e-06 -0.955347 0.295487
vn -0.624693 -0.745146 0.233486
vn -0.969518 -0.23382 0.073239
vn -0.929803 0.348631 -0.117993
vn -0.556381 0.78772 -0.264459
vn 0 0.948073 -0.318053
vn 0.556381 0.78772 -0.264459
vn 0.92287 0.312978 -0.224399
vn 0.974876 -0.182443 0.127797
vn 0.641714 -0.628252 0.439889
vn -2e-06 -0.820761 0.571271
vn -0.641714 -0.628252 0.439889
vn -0.974876 -0.182443 0.127797
vn -0.92287 0.312978 -0.224399
vn -0.547403 0.680811 -0.486669
vn 0 0.813667 -0.581331
vn 0.547403 0.680811 -0.486669
vn 0.922871 0.2244 -0.312977
vn 0.974875 -0.127798 0.182444
vn 0.641715 -0.439891 0.62825
vn -2e-06 -0.571273 0.82076
vn -0.641714 -0.43989 0.628251
vn -0.974875 -0.127798 0.182444
vn -0.92287 0.2244 -0.312978
vn -0.547403 0.48667 -0.68081
vn 0 0.58133 -0.813668
vn 0.547404 0.48667 -0.68081
vn 0.969518 -0.07324 0.233819
vn 0.929803 0.117993 -0.348632
vn 0.624695 -0.233488 0.745143
vn -2e-06 -0.29549 0.955346
vn -0.624694 -0.233488 0.745144
vn -0.969518 -0.07324 0.233819
vn -0.929803 0.117993 -0.348632
vn -0.556381 0.26446 -0.787719
vn -0 0.318054 -0.948073
vn 0.556382 0.26446 -0.787719
vn 0.93788 -0.043012 -0.344283
vn 0.567295 -0.102096 -0.817162
vn 0 -0.12486 -0.992174
vn -0.567295 -0.102096 -0.817162
vn -0.93788 -0.043012 -0.344283
vn -0.962801 0.025934 0.268962
vn -0.608669 0.073846 0.78998
vn -1e-06 0.088938 0.996037
vn 0.60867 0.073845 0.789979
vn 0.962802 0.025934 0.268962
vn 0.951131 -0.276963 -0.136535
vn 0.587855 -0.725564 -0.357747
vn 0 -0.896883 -0.442268
vn -0.587855 -0.725565 -0.357746
vn -0.951131 -0.276963 -0.136534
vn -0.950944 0.277535 0.136675
vn -0.587554 0.725959 0.35744
vn -0 0.897169 0.441687
vn 0.587554 0.725959 0.357441
vn 0.950944 0.277535 0.136676
vn 0.945479 -0.287606 -0.152817
vn 0.578528 -0.719699 -0.383847
vn -0 -0.881888 -0.471458
vn -0.578528 -0.719699 -0.383846
vn -0.945479 -0.287606 -0.152817
vn -0.956006 0.260643 0.134601
vn -0.595462 0.714698 0.366922
vn -0 0.890376 0.455227
vn 0.595462 0.714698 0.366922
vn 0.956006 0.260643 0.134602
vn 0.932223 -0.292744 -0.212748
vn 0.559704 -0.667898 -0.490554
vn -0 -0.804359 -0.594143
vn -0.559704 -0.667898 -0.490554
vn -0.932223 -0.292744 -0.212748
vn -0.967552 0.212628 0.136502
vn -0.618638 0.669459 0.411232
vn -2e-06 0.860365 0.509678
vn 0.618639 0.669457 0.411234
vn 0.967552 0.212627 0.136502
vn 0.919822 -0.246241 -0.305437
vn 0.545583 -0.521787 -0.655804
vn -0 -0.620672 -0.784071
vn -0.545583 -0.521786 -0.655804
vn -0.919823 -0.246241 -0.305437
vn -0.979068 0.137816 0.149773
vn -0.664357 0.531418 0.52557
vn -4e-06 0.745888 0.666071
vn 0.664356 0.531417 0.525573
vn 0.979068 0.137816 0.149773
vn 0.923026 -0.138788 -0.358834
vn 0.549016 -0.298567 -0.780666
vn -0 -0.356683 -0.934225
vn -0.549016 -0.298566 -0.780666
vn -0.923026 -0.138788 -0.358833
vn -0.976293 0.071549 0.204287
vn -0.65243 0.250576 0.715225
vn -4e-06 0.323237 0.946318
vn 0.652431 0.250577 0.715224
vn 0.976293 0.071548 0.204286
vn 0.958209 -0.015929 -0.285625
vn 0.943357 0.022091 0.331045
vn 0.575627 0.054813 0.815873
vn -1e-06 0.067603 0.997712
vn -0.575627 0.054814 0.815873
vn -0.943357 0.022091 0.331045
vn -0.958209 -0.01593 -0.285625
vn -0.599853 -0.043567 -0.798924
vn -2e-06 -0.053099 -0.998589
vn 0.599853 -0.043566 -0.798923
vn 0.956179 -0.256086 -0.14192
vn 0.945599 0.283538 0.159524
vn 0.579055 0.710377 0.400074
vn -3e-06 0.871117 0.491076
vn -0.579055 0.710377 0.400074
vn -0.945599 0.283539 0.159525
vn -0.956179 -0.256086 -0.141919
vn -0.596226 -0.702504 -0.388591
vn -0 -0.875414 -0.483373
vn 0.596226 -0.702503 -0.388592
vn 0.93591 0.284275 0.20799
vn 0.965006 -0.215617 -0.149242
vn 0.565251 0.665181 0.487878
vn -3e-06 0.805745 0.592262
vn -0.565252 0.665181 0.487877
vn -0.93591 0.284276 0.207991
vn -0.965006 -0.215617 -0.149243
vn -0.61421 -0.651448 -0.445378
vn -1e-06 -0.828614 -0.559821
vn 0.614209 -0.651448 -0.44538
vn 0.925029 0.252063 0.284228
vn 0.975178 -0.152831 -0.160218
vn 0.552134 0.552349 0.624547
vn -1e-06 0.661802 0.749678
vn -0.552134 0.552349 0.624547
vn -0.925029 0.252063 0.284228
vn -0.975178 -0.152831 -0.16022
vn -0.647928 -0.534178 -0.542994
vn -3e-06 -0.713451 -0.700706
vn 0.647929 -0.534179 -0.542992
vn 0.977259 -0.091536 -0.191276
vn 0.922898 0.171173 0.344903
vn 0.549842 0.370862 0.748421
vn -1e-06 0.444018 0.896018
vn -0.549843 0.370863 0.748421
vn -0.922898 0.171173 0.344904
vn -0.977259 -0.091536 -0.191276
vn -0.658644 -0.322292 -0.679938
vn -2e-06 -0.422485 -0.90637
vn 0.658645 -0.322292 -0.679937
vn 0.968546 -0.046898 -0.244377
vn 0.932077 0.079108 0.353518
vn 0.560347 0.181116 0.808213
vn -1e-06 0.219412 0.975632
vn -0.560347 0.181116 0.808213
vn -0.932076 0.079109 0.353518
vn -0.968546 -0.046898 -0.244376
vn -0.623813 -0.142249 -0.76852
vn -2e-06 -0.174569 -0.984645
vn 0.623812 -0.142247 -0.768521
vt 0.679504 0.004622
vt 0.70296 0.004622
vt 0.679504 0.312751
vt 0.70296 0.312751
vt 0.726411 0.004622
vt 0.726411 0.312751
vt 0.491352 0.004622
vt 0.514771 0.004622
vt 0.491352 0.312751
vt 0.514771 0.312751
vt 0.538175 0.004622
vt 0.538175 0.312751
vt 0.561582 0.004622
vt 0.561582 0.312751
vt 0.584979 0.004622
vt 0.584979 0.312751
vt 0.608376 0.004622
vt 0.608376 0.312751
vt 0.63178 0.004622
vt 0.63178 0.312751
vt 0.655186 0.004622
vt 0.655186 0.312751
vt 0.215475 0.005842
vt 0.238948 0.005842
vt 0.215475 0.994744
vt 0.238948 0.994744
vt 0.00422 0.005842
vt 0.027692 0.005842
vt 0.00422 0.994744
vt 0.027692 0.994744
vt 0.051165 0.005842
vt 0.051165 0.994744
vt 0.074638 0.005842
vt 0.074638 0.994744
vt 0.098111 0.005842
vt 0.098111 0.994744
vt 0.121584 0.005842
vt 0.121584 0.994744
vt 0.145056 0.005842
vt 0.145056 0.994744
vt 0.168529 0.005842
vt 0.168529 0.994744
vt 0.192002 0.005842
vt 0.192002 0.994744
vt 0.271044 0.835188
vt 0.24757 0.835188
vt 0.271044 0.006778
vt 0.24757 0.006778
vt 0.482259 0.835188
vt 0.458781 0.835188
vt 0.482259 0.006778
vt 0.458781 0.006778
vt 0.435315 0.835188
vt 0.435315 0.006778
vt 0.411849 0.835188
vt 0.411849 0.006778
vt 0.388384 0.835188
vt 0.388384 0.006778
vt 0.364918 0.835188
vt 0.364918 0.006778
vt 0.341453 0.835188
vt 0.341453 0.006778
vt 0.317985 0.835188
vt 0.317985 0.006778
vt 0.294516 0.835188
vt 0.294516 0.006778
vt 0.755215 0.922696
vt 0.783636 0.922047
vt 0.758033 0.950406
vt 0.786238 0.948131
vt 0.75676 0.893097
vt 0.784574 0.897143
vt 0.763411 0.865838
vt 0.789532 0.873476
vt 0.77382 0.840264
vt 0.798076 0.850457
vt 0.786538 0.816458
vt 0.809198 0.827244
vt 0.798732 0.794043
vt 0.820574 0.802682
vt 0.806926 0.772391
vt 0.827938 0.776607
vt 0.809451 0.752129
vt 0.828759 0.752032
vt 0.807864 0.733765
vt 0.825682 0.731307
vt 0.804428 0.716563
vt 0.821895 0.713569
vt 0.812785 0.922198
vt 0.81462 0.946477
vt 0.813327 0.900297
vt 0.816424 0.879302
vt 0.822019 0.85795
vt 0.829978 0.834745
vt 0.838934 0.808151
vt 0.844887 0.778705
vt 0.844791 0.751253
vt 0.842035 0.729264
vt 0.839568 0.711643
vt 0.841741 0.922418
vt 0.842456 0.945515
vt 0.841997 0.902126
vt 0.843149 0.882566
vt 0.84536 0.862079
vt 0.848688 0.838691
vt 0.852905 0.810687
vt 0.856048 0.779592
vt 0.856698 0.750987
vt 0.856338 0.728566
vt 0.856301 0.711466
vt 0.8698 0.945322
vt 0.870405 0.922438
vt 0.870296 0.902376
vt 0.869584 0.883041
vt 0.86826 0.862716
vt 0.866542 0.839399
vt 0.864896 0.811279
vt 0.864765 0.77999
vt 0.866698 0.751454
vt 0.869568 0.729407
vt 0.872081 0.712836
vt 0.8973 0.945967
vt 0.898928 0.922191
vt 0.898345 0.900934
vt 0.895639 0.880658
vt 0.891143 0.859961
vt 0.885178 0.837053
vt 0.879031 0.810161
vt 0.876048 0.780194
vt 0.878454 0.752765
vt 0.883333 0.731718
vt 0.88781 0.71556
vt 0.925651 0.947186
vt 0.929171 0.921652
vt 0.927899 0.89762
vt 0.922524 0.87542
vt 0.914434 0.854162
vt 0.905045 0.832052
vt 0.896155 0.807241
vt 0.89123 0.779806
vt 0.892767 0.754451
vt 0.898127 0.734901
vt 0.904048 0.719416
vt 0.296291 0.91473
vt 0.272803 0.91473
vt 0.296291 0.858682
vt 0.272803 0.858682
vt 0.249354 0.91473
vt 0.249354 0.858682
vt 0.484105 0.91473
vt 0.460609 0.91473
vt 0.484105 0.858682
vt 0.460609 0.858682
vt 0.437153 0.91473
vt 0.437153 0.858682
vt 0.413667 0.91473
vt 0.413667 0.858682
vt 0.390197 0.91473
vt 0.390197 0.858682
vt 0.366762 0.91473
vt 0.366762 0.858682
vt 0.343261 0.91473
vt 0.343261 0.858683
vt 0.319752 0.91473
vt 0.319752 0.858682
vt 0.804826 0.057376
vt 0.787191 0.02224
vt 0.838031 0.039468
vt 0.818107 0.00455
vt 0.807447 0.267407
vt 0.815138 0.246352
vt 0.825975 0.274605
vt 0.834373 0.253606
vt 0.822796 0.226055
vt 0.842591 0.232725
vt 0.828925 0.206708
vt 0.849388 0.211862
vt 0.832743 0.187682
vt 0.854089 0.190764
vt 0.83392 0.168172
vt 0.856368 0.168894
vt 0.832246 0.147322
vt 0.85621 0.145773
vt 0.827562 0.123709
vt 0.854416 0.120335
vt 0.819356 0.094926
vt 0.852305 0.089976
vt 0.90695 0.736522
vt 0.911752 0.721817
vt 0.946601 0.924348
vt 0.939561 0.950423
vt 0.950978 0.897676
vt 0.950818 0.870889
vt 0.945842 0.844756
vt 0.93675 0.81967
vt 0.925032 0.795862
vt 0.913723 0.773517
vt 0.906953 0.753417
vt 0.749655 0.078305
vt 0.736198 0.048346
vt 0.761123 0.075367
vt 0.747374 0.043346
vt 0.764053 0.245914
vt 0.775615 0.241935
vt 0.772702 0.265495
vt 0.780311 0.263205
vt 0.753225 0.227701
vt 0.77014 0.221913
vt 0.743844 0.209382
vt 0.765835 0.203784
vt 0.737857 0.190101
vt 0.763164 0.186648
vt 0.736103 0.1701
vt 0.762015 0.169535
vt 0.738509 0.149778
vt 0.762275 0.151543
vt 0.743952 0.129094
vt 0.763612 0.131286
vt 0.749539 0.106355
vt 0.764709 0.106577
vt 0.770593 0.072337
vt 0.756005 0.039195
vt 0.786407 0.262697
vt 0.786793 0.240731
vt 0.786915 0.220045
vt 0.786987 0.201924
vt 0.786803 0.185236
vt 0.786269 0.168737
vt 0.785182 0.151147
vt 0.783201 0.130713
vt 0.779238 0.104971
vt 0.783506 0.067275
vt 0.76758 0.033197
vt 0.794523 0.263667
vt 0.799377 0.242017
vt 0.804293 0.22156
vt 0.807935 0.203078
vt 0.809951 0.185654
vt 0.810152 0.168179
vt 0.808327 0.14947
vt 0.804027 0.12791
vt 0.796293 0.10112
vt 0.550629 0.754769
vt 0.527044 0.754769
vt 0.550629 0.591329
vt 0.527044 0.591329
vt 0.503452 0.754769
vt 0.503452 0.591329
vt 0.738323 0.754769
vt 0.715034 0.754769
vt 0.738323 0.591329
vt 0.715034 0.591329
vt 0.691783 0.754769
vt 0.691783 0.591329
vt 0.668534 0.754769
vt 0.668534 0.591329
vt 0.645269 0.754769
vt 0.645269 0.591329
vt 0.622005 0.754769
vt 0.622005 0.591329
vt 0.598675 0.754769
vt 0.598675 0.591329
vt 0.5753 0.754769
vt 0.5753 0.591329
vt 0.558994 0.566063
vt 0.536177 0.573747
vt 0.551749 0.544979
vt 0.528111 0.551714
vt 0.558432 0.355183
vt 0.531631 0.360007
vt 0.551535 0.328972
vt 0.525189 0.334827
vt 0.562375 0.384524
vt 0.53527 0.385646
vt 0.560453 0.413836
vt 0.534207 0.410927
vt 0.554809 0.439875
vt 0.529648 0.435037
vt 0.549115 0.462793
vt 0.524278 0.458409
vt 0.545369 0.483959
vt 0.520377 0.481748
vt 0.544436 0.504382
vt 0.519405 0.50531
vt 0.546629 0.524595
vt 0.522062 0.528812
vt 0.697277 0.544354
vt 0.693169 0.573814
vt 0.666799 0.545429
vt 0.662319 0.570199
vt 0.683326 0.328681
vt 0.678898 0.354597
vt 0.656328 0.324896
vt 0.651415 0.351811
vt 0.677263 0.38101
vt 0.649493 0.38176
vt 0.680089 0.407142
vt 0.653176 0.411506
vt 0.685673 0.432265
vt 0.659923 0.437891
vt 0.691019 0.456239
vt 0.666133 0.460943
vt 0.694496 0.47897
vt 0.670187 0.48187
vt 0.695995 0.500663
vt 0.671771 0.501899
vt 0.696282 0.521954
vt 0.670805 0.522371
vt 0.642285 0.541181
vt 0.637258 0.564431
vt 0.63299 0.322188
vt 0.628989 0.349728
vt 0.627319 0.382426
vt 0.631015 0.415036
vt 0.637004 0.442537
vt 0.641959 0.464986
vt 0.644998 0.484405
vt 0.64607 0.502619
vt 0.645237 0.521045
vt 0.619058 0.538556
vt 0.616661 0.560586
vt 0.612948 0.321077
vt 0.611962 0.348961
vt 0.611977 0.382881
vt 0.614024 0.416898
vt 0.616777 0.445157
vt 0.618839 0.467351
vt 0.62004 0.485895
vt 0.6205 0.50291
vt 0.620189 0.519967
vt 0.596799 0.538171
vt 0.598196 0.559463
vt 0.594225 0.321821
vt 0.597299 0.349491
vt 0.599522 0.383294
vt 0.599322 0.417247
vt 0.597666 0.445513
vt 0.596226 0.467711
vt 0.595422 0.486219
vt 0.595262 0.503154
vt 0.595757 0.519994
vt 0.57947 0.561205
vt 0.574634 0.540308
vt 0.580432 0.351498
vt 0.574418 0.324497
vt 0.58428 0.383763
vt 0.582376 0.416238
vt 0.577525 0.443667
vt 0.573198 0.46609
vt 0.570623 0.485522
vt 0.570008 0.503612
vt 0.571343 0.521523
vt 0.856075 0.486488
vt 0.857376 0.465728
vt 0.877687 0.488217
vt 0.878843 0.465148
vt 0.855862 0.446191
vt 0.876693 0.442767
vt 0.851417 0.427432
vt 0.871122 0.42157
vt 0.844513 0.408835
vt 0.863137 0.401783
vt 0.836261 0.389161
vt 0.854652 0.382812
vt 0.829191 0.36646
vt 0.848382 0.363478
vt 0.828235 0.340338
vt 0.847922 0.343121
vt 0.83616 0.314975
vt 0.854844 0.322784
vt 0.847906 0.294045
vt 0.865787 0.303485
vt 0.852832 0.509135
vt 0.874339 0.511693
vt 0.736281 0.516913
vt 0.728341 0.492017
vt 0.7594 0.509005
vt 0.75168 0.485242
vt 0.71931 0.463701
vt 0.745919 0.460388
vt 0.71904 0.43437
vt 0.74477 0.434906
vt 0.721673 0.406572
vt 0.7469 0.409488
vt 0.725861 0.379863
vt 0.751057 0.383918
vt 0.730339 0.3536
vt 0.755903 0.357789
vt 0.734507 0.327266
vt 0.760306 0.330993
vt 0.738121 0.30096
vt 0.763661 0.304113
vt 0.741309 0.274825
vt 0.766393 0.27788
vt 0.745043 0.541435
vt 0.768566 0.532835
vt 0.780337 0.501185
vt 0.772762 0.479492
vt 0.768092 0.45768
vt 0.76711 0.43543
vt 0.769439 0.412492
vt 0.774211 0.388329
vt 0.780037 0.362289
vt 0.785056 0.334464
vt 0.78791 0.306465
vt 0.78963 0.280254
vt 0.790155 0.523727
vt 0.799349 0.494022
vt 0.793049 0.474225
vt 0.789294 0.455111
vt 0.788186 0.435712
vt 0.789598 0.41514
vt 0.793284 0.392242
vt 0.798489 0.366064
vt 0.803448 0.337019
vt 0.806484 0.307769
vt 0.808488 0.281877
vt 0.808025 0.515771
vt 0.817602 0.488717
vt 0.814085 0.469882
vt 0.811436 0.452364
vt 0.809516 0.434858
vt 0.808288 0.416014
vt 0.807838 0.394207
vt 0.808676 0.3679
vt 0.811694 0.338114
vt 0.816647 0.308595
vt 0.822239 0.283695
vt 0.822247 0.510613
vt 0.836226 0.486251
vt 0.835834 0.467044
vt 0.834105 0.449367
vt 0.830932 0.432043
vt 0.826363 0.413929
vt 0.820778 0.393308
vt 0.815791 0.368191
vt 0.815899 0.338665
vt 0.823561 0.310116
vt 0.833871 0.28725
vt 0.835743 0.508498
vt 0.819849 0.582159
vt 0.784137 0.592732
vt 0.811089 0.554148
vt 0.776127 0.562543
vt 0.923385 0.474224
vt 0.917474 0.482065
vt 0.916321 0.469114
vt 0.910191 0.47712
vt 0.912325 0.490136
vt 0.904513 0.48567
vt 0.908008 0.498928
vt 0.899652 0.494935
vt 0.904181 0.508798
vt 0.895343 0.504753
vt 0.899782 0.520225
vt 0.890297 0.51466
vt 0.892427 0.53418
vt 0.881933 0.524739
vt 0.877964 0.55119
vt 0.866767 0.53529
vt 0.852897 0.568454
vt 0.842647 0.545415
vt 0.968514 0.663756
vt 0.957263 0.720751
vt 0.916404 0.659153
vt 0.907981 0.710524
vt 0.9685 0.495986
vt 0.96512 0.504975
vt 0.960595 0.493048
vt 0.957461 0.502006
vt 0.961689 0.513497
vt 0.954133 0.510426
vt 0.958258 0.522057
vt 0.950345 0.518863
vt 0.954918 0.531157
vt 0.945905 0.528022
vt 0.952472 0.54197
vt 0.940839 0.539279
vt 0.951818 0.557048
vt 0.935172 0.555187
vt 0.954058 0.579664
vt 0.929462 0.579161
vt 0.960116 0.613729
vt 0.924399 0.614053
vt 0.867779 0.695748
vt 0.883941 0.650761
vt 0.949624 0.498935
vt 0.95281 0.490107
vt 0.94628 0.507051
vt 0.942313 0.515119
vt 0.937334 0.523944
vt 0.930851 0.53485
vt 0.922069 0.550257
vt 0.910717 0.57393
vt 0.898063 0.608373
vt 0.835404 0.67629
vt 0.860216 0.639332
vt 0.941485 0.495465
vt 0.945215 0.48694
vt 0.937909 0.503217
vt 0.934021 0.511015
vt 0.929323 0.519699
vt 0.923162 0.53062
vt 0.914136 0.546059
vt 0.900734 0.569202
vt 0.882407 0.601782
vt 0.843672 0.625303
vt 0.811002 0.651374
vt 0.937788 0.483227
vt 0.933136 0.491366
vt 0.929122 0.498963
vt 0.925326 0.506838
vt 0.921347 0.515843
vt 0.916524 0.527317
vt 0.909224 0.543378
vt 0.896245 0.566578
vt 0.873766 0.595851
vt 0.830754 0.606591
vt 0.794743 0.622778
vt 0.930539 0.47896
vt 0.925078 0.486829
vt 0.920482 0.494554
vt 0.916574 0.502836
vt 0.912985 0.512377
vt 0.908996 0.524231
vt 0.902612 0.540193
vt 0.889471 0.56186
vt 0.864511 0.58604
usemtl Tube_1SG
f 1/1/1 2/2/2 3/3/3
f 3/3/3 2/2/2 4/4/4
f 2/2/2 5/5/5 4/4/4
f 4/4/4 5/5/5 6/6/6
f 5/7/5 7/8/7 6/9/6
f 6/9/6 7/8/7 8/10/8
f 7/8/7 9/11/9 8/10/8
f 8/10/8 9/11/9 10/12/10
f 9/11/9 11/13/11 10/12/10
f 10/12/10 11/13/11 12/14/12
f 11/13/11 13/15/13 12/14/12
f 12/14/12 13/15/13 14/16/14
f 13/15/13 15/17/15 14/16/14
f 14/16/14 15/17/15 16/18/16
f 15/17/15 17/19/17 16/18/16
f 16/18/16 17/19/17 18/20/18
f 17/19/17 19/21/19 18/20/18
f 18/20/18 19/21/19 20/22/20
f 19/21/19 1/1/1 20/22/20
f 20/22/20 1/1/1 3/3/3
f 21/23/21 22/24/22 23/25/23
f 23/25/23 22/24/22 24/26/24
f 22/27/22 25/28/25 24/29/24
f 24/29/24 25/28/25 26/30/26
f 25/28/25 27/31/27 26/30/26
f 26/30/26 27/31/27 28/32/28
f 27/31/27 29/33/29 28/32/28
f 28/32/28 29/33/29 30/34/30
f 29/33/29 31/35/31 30/34/30
f 30/34/30 31/35/31 32/36/32
f 31/35/31 33/37/33 32/36/32
f 32/36/32 33/37/33 34/38/34
f 33/37/33 35/39/35 34/38/34
f 34/38/34 35/39/35 36/40/36
f 35/39/35 37/41/37 36/40/36
f 36/40/36 37/41/37 38/42/38
f 37/41/37 39/43/39 38/42/38
f 38/42/38 39/43/39 40/44/40
f 39/43/39 21/23/21 40/44/40
f 40/44/40 21/23/21 23/25/23
f 41/45/41 42/46/42 43/47/43
f 43/47/43 42/46/42 44/48/44
f 42/49/42 45/50/45 44/51/44
f 44/51/44 45/50/45 46/52/46
f 45/50/45 47/53/47 46/52/46
f 46/52/46 47/53/47 48/54/48
f 47/53/47 49/55/49 48/54/48
f 48/54/48 49/55/49 50/56/50
f 49/55/49 51/57/51 50/56/50
f 50/56/50 51/57/51 52/58/52
f 51/57/51 53/59/53 52/58/52
f 52/58/52 53/59/53 54/60/54
f 53/59/53 55/61/55 54/60/54
f 54/60/54 55/61/55 56/62/56
f 55/61/55 57/63/57 56/62/56
f 56/62/56 57/63/57 58/64/58
f 57/63/57 59/65/59 58/64/58
f 58/64/58 59/65/59 60/66/60
f 59/65/59 41/45/41 60/66/60
f 60/66/60 41/45/41 43/47/43
f 41/67/41 61/68/61 42/69/42
f 42/69/42 61/68/61 62/70/62
f 59/71/59 63/72/63 41/67/41
f 41/67/41 63/72/63 61/68/61
f 59/71/59 57/73/57 63/72/63
f 63/72/63 57/73/57 64/74/64
f 57/73/57 55/75/55 64/74/64
f 64/74/64 55/75/55 65/76/65
f 55/75/55 53/77/53 65/76/65
f 65/76/65 53/77/53 66/78/66
f 53/77/53 51/79/51 66/78/66
f 66/78/66 51/79/51 67/80/67
f 51/79/51 49/81/49 67/80/67
f 67/80/67 49/81/49 68/82/68
f 47/83/47 69/84/69 49/81/49
f 49/81/49 69/84/69 68/82/68
f 45/85/45 70/86/70 47/83/47
f 47/83/47 70/86/70 69/84/69
f 42/87/42 62/88/62 45/85/45
f 45/85/45 62/88/62 70/86/70
f 61/68/61 71/89/71 62/70/62
f 62/70/62 71/89/71 72/90/72
f 63/72/63 73/91/73 61/68/61
f 61/68/61 73/91/73 71/89/71
f 63/72/63 64/74/64 73/91/73
f 73/91/73 64/74/64 74/92/74
f 64/74/64 65/76/65 74/92/74
f 74/92/74 65/76/65 75/93/75
f 65/76/65 66/78/66 75/93/75
f 75/93/75 66/78/66 76/94/76
f 66/78/66 67/80/67 76/94/76
f 76/94/76 67/80/67 77/95/77
f 67/80/67 68/82/68 77/95/77
f 77/95/77 68/82/68 78/96/78
f 69/84/69 79/97/79 68/82/68
f 68/82/68 79/97/79 78/96/78
f 70/86/70 80/98/80 69/84/69
f 69/84/69 80/98/80 79/97/79
f 62/88/62 72/99/72 70/86/70
f 70/86/70 72/99/72 80/98/80
f 71/89/71 81/100/81 72/90/72
f 72/90/72 81/100/81 82/101/82
f 73/91/73 83/102/83 71/89/71
f 71/89/71 83/102/83 81/100/81
f 73/91/73 74/92/74 83/102/83
f 83/102/83 74/92/74 84/103/84
f 74/92/74 75/93/75 84/103/84
f 84/103/84 75/93/75 85/104/85
f 75/93/75 76/94/76 85/104/85
f 85/104/85 76/94/76 86/105/86
f 76/94/76 77/95/77 86/105/86
f 86/105/86 77/95/77 87/106/87
f 77/95/77 78/96/78 87/106/87
f 87/106/87 78/96/78 88/107/88
f 79/97/79 89/108/89 78/96/78
f 78/96/78 89/108/89 88/107/88
f 80/98/80 90/109/90 79/97/79
f 79/97/79 90/109/90 89/108/89
f 72/99/72 82/110/82 80/98/80
f 80/98/80 82/110/82 90/109/90
f 82/101/82 81/100/81 91/111/91
f 91/111/91 81/100/81 92/112/92
f 81/100/81 83/102/83 92/112/92
f 92/112/92 83/102/83 93/113/93
f 83/102/83 84/103/84 93/113/93
f 93/113/93 84/103/84 94/114/94
f 84/103/84 85/104/85 94/114/94
f 94/114/94 85/104/85 95/115/95
f 85/104/85 86/105/86 95/115/95
f 95/115/95 86/105/86 96/116/96
f 86/105/86 87/106/87 96/116/96
f 96/116/96 87/106/87 97/117/97
f 87/106/87 88/107/88 97/117/97
f 97/117/97 88/107/88 98/118/98
f 88/107/88 89/108/89 98/118/98
f 98/118/98 89/108/89 99/119/99
f 89/108/89 90/109/90 99/119/99
f 99/119/99 90/109/90 100/120/100
f 90/109/90 82/110/82 100/120/100
f 100/120/100 82/110/82 91/121/91
f 91/111/91 92/112/92 101/122/101
f 101/122/101 92/112/92 102/123/102
f 92/112/92 93/113/93 102/123/102
f 102/123/102 93/113/93 103/124/103
f 94/114/94 104/125/104 93/113/93
f 93/113/93 104/125/104 103/124/103
f 95/115/95 105/126/105 94/114/94
f 94/114/94 105/126/105 104/125/104
f 96/116/96 106/127/106 95/115/95
f 95/115/95 106/127/106 105/126/105
f 97/117/97 107/128/107 96/116/96
f 96/116/96 107/128/107 106/127/106
f 98/118/98 108/129/108 97/117/97
f 97/117/97 108/129/108 107/128/107
f 98/118/98 99/119/99 108/129/108
f 108/129/108 99/119/99 109/130/109
f 99/119/99 100/120/100 109/130/109
f 109/130/109 100/120/100 110/131/110
f 100/120/100 91/121/91 110/131/110
f 110/131/110 91/121/91 101/132/101
f 101/122/101 102/123/102 111/133/111
f 111/133/111 102/123/102 112/134/112
f 102/123/102 103/124/103 112/134/112
f 112/134/112 103/124/103 113/135/113
f 104/125/104 114/136/114 103/124/103
f 103/124/103 114/136/114 113/135/113
f 105/126/105 115/137/115 104/125/104
f 104/125/104 115/137/115 114/136/114
f 106/127/106 116/138/116 105/126/105
f 105/126/105 116/138/116 115/137/115
f 107/128/107 117/139/117 106/127/106
f 106/127/106 117/139/117 116/138/116
f 108/129/108 118/140/118 107/128/107
f 107/128/107 118/140/118 117/139/117
f 108/129/108 109/130/109 118/140/118
f 118/140/118 109/130/109 119/141/119
f 109/130/109 110/131/110 119/141/119
f 119/141/119 110/131/110 120/142/120
f 110/131/110 101/132/101 120/142/120
f 120/142/120 101/132/101 111/143/111
f 121/144/121 122/145/122 123/146/123
f 123/146/123 122/145/122 124/147/124
f 122/145/122 125/148/125 124/147/124
f 124/147/124 125/148/125 126/149/126
f 125/150/125 127/151/127 126/152/126
f 126/152/126 127/151/127 128/153/128
f 127/151/127 129/154/129 128/153/128
f 128/153/128 129/154/129 130/155/130
f 129/154/129 131/156/131 130/155/130
f 130/155/130 131/156/131 132/157/132
f 131/156/131 133/158/133 132/157/132
f 132/157/132 133/158/133 134/159/134
f 133/158/133 135/160/135 134/159/134
f 134/159/134 135/160/135 136/161/136
f 135/160/135 137/162/137 136/161/136
f 136/161/136 137/162/137 138/163/138
f 137/162/137 139/164/139 138/163/138
f 138/163/138 139/164/139 140/165/140
f 139/164/139 121/144/121 140/165/140
f 140/165/140 121/144/121 123/146/123
f 141/166/141 142/167/142 122/168/122
f 122/168/122 142/167/142 125/169/125
f 142/170/142 143/171/143 125/172/125
f 125/172/125 143/171/143 127/173/127
f 143/171/143 144/174/144 127/173/127
f 127/173/127 144/174/144 129/175/129
f 144/174/144 145/176/145 129/175/129
f 129/175/129 145/176/145 131/177/131
f 145/176/145 146/178/146 131/177/131
f 131/177/131 146/178/146 133/179/133
f 146/178/146 147/180/147 133/179/133
f 133/179/133 147/180/147 135/181/135
f 148/182/148 137/183/137 147/180/147
f 147/180/147 137/183/137 135/181/135
f 149/184/149 139/185/139 148/182/148
f 148/182/148 139/185/139 137/183/137
f 150/186/150 121/187/121 149/184/149
f 149/184/149 121/187/121 139/185/139
f 141/166/141 122/168/122 150/186/150
f 150/186/150 122/168/122 121/187/121
f 120/142/120 111/143/111 151/188/151
f 151/188/151 111/143/111 152/189/152
f 112/134/112 153/190/153 111/133/111
f 111/133/111 153/190/153 152/191/152
f 113/135/113 154/192/154 112/134/112
f 112/134/112 154/192/154 153/190/153
f 114/136/114 155/193/155 113/135/113
f 113/135/113 155/193/155 154/192/154
f 115/137/115 156/194/156 114/136/114
f 114/136/114 156/194/156 155/193/155
f 116/138/116 157/195/157 115/137/115
f 115/137/115 157/195/157 156/194/156
f 116/138/116 117/139/117 157/195/157
f 157/195/157 117/139/117 158/196/158
f 117/139/117 118/140/118 158/196/158
f 158/196/158 118/140/118 159/197/159
f 118/140/118 119/141/119 159/197/159
f 159/197/159 119/141/119 160/198/160
f 119/141/119 120/142/120 160/198/160
f 160/198/160 120/142/120 151/188/151
f 151/199/151 152/200/152 161/201/161
f 161/201/161 152/200/152 162/202/162
f 153/203/153 163/204/163 152/205/152
f 152/205/152 163/204/163 162/206/162
f 154/207/154 164/208/164 153/203/153
f 153/203/153 164/208/164 163/204/163
f 155/209/155 165/210/165 154/207/154
f 154/207/154 165/210/165 164/208/164
f 156/211/156 166/212/166 155/209/155
f 155/209/155 166/212/166 165/210/165
f 156/211/156 157/213/157 166/212/166
f 166/212/166 157/213/157 167/214/167
f 157/213/157 158/215/158 167/214/167
f 167/214/167 158/215/158 168/216/168
f 158/215/158 159/217/159 168/216/168
f 168/216/168 159/217/159 169/218/169
f 159/217/159 160/219/160 169/218/169
f 169/218/169 160/219/160 170/220/170
f 160/219/160 151/199/151 170/220/170
f 170/220/170 151/199/151 161/201/161
f 161/201/161 162/202/162 171/221/171
f 171/221/171 162/202/162 172/222/172
f 162/206/162 163/204/163 172/223/172
f 172/223/172 163/204/163 173/224/173
f 163/204/163 164/208/164 173/224/173
f 173/224/173 164/208/164 174/225/174
f 164/208/164 165/210/165 174/225/174
f 174/225/174 165/210/165 175/226/175
f 165/210/165 166/212/166 175/226/175
f 175/226/175 166/212/166 176/227/176
f 166/212/166 167/214/167 176/227/176
f 176/227/176 167/214/167 177/228/177
f 167/214/167 168/216/168 177/228/177
f 177/228/177 168/216/168 178/229/178
f 168/216/168 169/218/169 178/229/178
f 178/229/178 169/218/169 179/230/179
f 169/218/169 170/220/170 179/230/179
f 179/230/179 170/220/170 180/231/180
f 170/220/170 161/201/161 180/231/180
f 180/231/180 161/201/161 171/221/171
f 171/221/171 172/222/172 181/232/181
f 181/232/181 172/222/172 182/233/182
f 172/223/172 173/224/173 182/234/182
f 182/234/182 173/224/173 183/235/183
f 173/224/173 174/225/174 183/235/183
f 183/235/183 174/225/174 184/236/184
f 174/225/174 175/226/175 184/236/184
f 184/236/184 175/226/175 185/237/185
f 175/226/175 176/227/176 185/237/185
f 185/237/185 176/227/176 186/238/186
f 176/227/176 177/228/177 186/238/186
f 186/238/186 177/228/177 187/239/187
f 178/229/178 188/240/188 177/228/177
f 177/228/177 188/240/188 187/239/187
f 179/230/179 189/241/189 178/229/178
f 178/229/178 189/241/189 188/240/188
f 180/231/180 190/242/190 179/230/179
f 179/230/179 190/242/190 189/241/189
f 171/221/171 181/232/181 180/231/180
f 180/231/180 181/232/181 190/242/190
f 181/232/181 182/233/182 141/166/141
f 141/166/141 182/233/182 142/167/142
f 182/234/182 183/235/183 142/170/142
f 142/170/142 183/235/183 143/171/143
f 183/235/183 184/236/184 143/171/143
f 143/171/143 184/236/184 144/174/144
f 184/236/184 185/237/185 144/174/144
f 144/174/144 185/237/185 145/176/145
f 185/237/185 186/238/186 145/176/145
f 145/176/145 186/238/186 146/178/146
f 186/238/186 187/239/187 146/178/146
f 146/178/146 187/239/187 147/180/147
f 188/240/188 148/182/148 187/239/187
f 187/239/187 148/182/148 147/180/147
f 189/241/189 149/184/149 188/240/188
f 188/240/188 149/184/149 148/182/148
f 190/242/190 150/186/150 189/241/189
f 189/241/189 150/186/150 149/184/149
f 181/232/181 141/166/141 190/242/190
f 190/242/190 141/166/141 150/186/150
f 191/243/191 192/244/192 193/245/193
f 193/245/193 192/244/192 194/246/194
f 192/244/192 195/247/195 194/246/194
f 194/246/194 195/247/195 196/248/196
f 195/249/195 197/250/197 196/251/196
f 196/251/196 197/250/197 198/252/198
f 197/250/197 199/253/199 198/252/198
f 198/252/198 199/253/199 200/254/200
f 199/253/199 201/255/201 200/254/200
f 200/254/200 201/255/201 202/256/202
f 201/255/201 203/257/203 202/256/202
f 202/256/202 203/257/203 204/258/204
f 203/257/203 205/259/205 204/258/204
f 204/258/204 205/259/205 206/260/206
f 205/259/205 207/261/207 206/260/206
f 206/260/206 207/261/207 208/262/208
f 207/261/207 209/263/209 208/262/208
f 208/262/208 209/263/209 210/264/210
f 209/263/209 191/243/191 210/264/210
f 210/264/210 191/243/191 193/245/193
f 211/265/211 195/266/195 212/267/212
f 212/267/212 195/266/195 192/268/192
f 213/269/213 197/270/197 211/271/211
f 211/271/211 197/270/197 195/272/195
f 214/273/214 199/274/199 213/269/213
f 213/269/213 199/274/199 197/270/197
f 214/273/214 215/275/215 199/274/199
f 199/274/199 215/275/215 201/276/201
f 215/275/215 216/277/216 201/276/201
f 201/276/201 216/277/216 203/278/203
f 216/277/216 217/279/217 203/278/203
f 203/278/203 217/279/217 205/280/205
f 217/279/217 218/281/218 205/280/205
f 205/280/205 218/281/218 207/282/207
f 218/281/218 219/283/219 207/282/207
f 207/282/207 219/283/219 209/284/209
f 220/285/220 191/286/191 219/283/219
f 219/283/219 191/286/191 209/284/209
f 212/267/212 192/268/192 220/285/220
f 220/285/220 192/268/192 191/286/191
f 124/287/124 126/288/126 221/289/221
f 221/289/221 126/288/126 222/290/222
f 126/291/126 128/292/128 222/293/222
f 222/293/222 128/292/128 223/294/223
f 128/292/128 130/295/130 223/294/223
f 223/294/223 130/295/130 224/296/224
f 132/297/132 225/298/225 130/295/130
f 130/295/130 225/298/225 224/296/224
f 134/299/134 226/300/226 132/297/132
f 132/297/132 226/300/226 225/298/225
f 136/301/136 227/302/227 134/299/134
f 134/299/134 227/302/227 226/300/226
f 138/303/138 228/304/228 136/301/136
f 136/301/136 228/304/228 227/302/227
f 140/305/140 229/306/229 138/303/138
f 138/303/138 229/306/229 228/304/228
f 140/305/140 123/307/123 229/306/229
f 229/306/229 123/307/123 230/308/230
f 123/307/123 124/287/124 230/308/230
f 230/308/230 124/287/124 221/289/221
f 221/289/221 222/290/222 231/309/231
f 231/309/231 222/290/222 232/310/232
f 222/293/222 223/294/223 232/311/232
f 232/311/232 223/294/223 233/312/233
f 223/294/223 224/296/224 233/312/233
f 233/312/233 224/296/224 234/313/234
f 225/298/225 235/314/235 224/296/224
f 224/296/224 235/314/235 234/313/234
f 226/300/226 236/315/236 225/298/225
f 225/298/225 236/315/236 235/314/235
f 227/302/227 237/316/237 226/300/226
f 226/300/226 237/316/237 236/315/236
f 228/304/228 238/317/238 227/302/227
f 227/302/227 238/317/238 237/316/237
f 229/306/229 239/318/239 228/304/228
f 228/304/228 239/318/239 238/317/238
f 229/306/229 230/308/230 239/318/239
f 239/318/239 230/308/230 240/319/240
f 230/308/230 221/289/221 240/319/240
f 240/319/240 221/289/221 231/309/231
f 231/309/231 232/310/232 241/320/241
f 241/320/241 232/310/232 242/321/242
f 232/311/232 233/312/233 242/322/242
f 242/322/242 233/312/233 243/323/243
f 233/312/233 234/313/234 243/323/243
f 243/323/243 234/313/234 244/324/244
f 235/314/235 245/325/245 234/313/234
f 234/313/234 245/325/245 244/324/244
f 236/315/236 246/326/246 235/314/235
f 235/314/235 246/326/246 245/325/245
f 237/316/237 247/327/247 236/315/236
f 236/315/236 247/327/247 246/326/246
f 238/317/238 248/328/248 237/316/237
f 237/316/237 248/328/248 247/327/247
f 239/318/239 249/329/249 238/317/238
f 238/317/238 249/329/249 248/328/248
f 239/318/239 240/319/240 249/329/249
f 249/329/249 240/319/240 250/330/250
f 240/319/240 231/309/231 250/330/250
f 250/330/250 231/309/231 241/320/241
f 241/320/241 242/321/242 251/331/251
f 251/331/251 242/321/242 252/332/252
f 242/322/242 243/323/243 252/333/252
f 252/333/252 243/323/243 253/334/253
f 243/323/243 244/324/244 253/334/253
f 253/334/253 244/324/244 254/335/254
f 244/324/244 245/325/245 254/335/254
f 254/335/254 245/325/245 255/336/255
f 245/325/245 246/326/246 255/336/255
f 255/336/255 246/326/246 256/337/256
f 246/326/246 247/327/247 256/337/256
f 256/337/256 247/327/247 257/338/257
f 247/327/247 248/328/248 257/338/257
f 257/338/257 248/328/248 258/339/258
f 248/328/248 249/329/249 258/339/258
f 258/339/258 249/329/249 259/340/259
f 249/329/249 250/330/250 259/340/259
f 259/340/259 250/330/250 260/341/260
f 250/330/250 241/320/241 260/341/260
f 260/341/260 241/320/241 251/331/251
f 252/332/252 261/342/261 251/331/251
f 251/331/251 261/342/261 262/343/262
f 253/334/253 263/344/263 252/333/252
f 252/333/252 263/344/263 261/345/261
f 254/335/254 264/346/264 253/334/253
f 253/334/253 264/346/264 263/344/263
f 254/335/254 255/336/255 264/346/264
f 264/346/264 255/336/255 265/347/265
f 255/336/255 256/337/256 265/347/265
f 265/347/265 256/337/256 266/348/266
f 256/337/256 257/338/257 266/348/266
f 266/348/266 257/338/257 267/349/267
f 257/338/257 258/339/258 267/349/267
f 267/349/267 258/339/258 268/350/268
f 258/339/258 259/340/259 268/350/268
f 268/350/268 259/340/259 269/351/269
f 260/341/260 270/352/270 259/340/259
f 259/340/259 270/352/270 269/351/269
f 251/331/251 262/343/262 260/341/260
f 260/341/260 262/343/262 270/352/270
f 261/342/261 211/265/211 262/343/262
f 262/343/262 211/265/211 212/267/212
f 263/344/263 213/269/213 261/345/261
f 261/345/261 213/269/213 211/271/211
f 264/346/264 214/273/214 263/344/263
f 263/344/263 214/273/214 213/269/213
f 264/346/264 265/347/265 214/273/214
f 214/273/214 265/347/265 215/275/215
f 265/347/265 266/348/266 215/275/215
f 215/275/215 266/348/266 216/277/216
f 266/348/266 267/349/267 216/277/216
f 216/277/216 267/349/267 217/279/217
f 267/349/267 268/350/268 217/279/217
f 217/279/217 268/350/268 218/281/218
f 268/350/268 269/351/269 218/281/218
f 218/281/218 269/351/269 219/283/219
f 270/352/270 220/285/220 269/351/269
f 269/351/269 220/285/220 219/283/219
f 262/343/262 212/267/212 270/352/270
f 270/352/270 212/267/212 220/285/220
f 271/353/271 272/354/272 194/355/194
f 194/355/194 272/354/272 193/356/193
f 272/354/272 273/357/273 193/356/193
f 193/356/193 273/357/273 210/358/210
f 274/359/274 208/360/208 273/357/273
f 273/357/273 208/360/208 210/358/210
f 275/361/275 206/362/206 274/359/274
f 274/359/274 206/362/206 208/360/208
f 276/363/276 204/364/204 275/361/275
f 275/361/275 204/364/204 206/362/206
f 277/365/277 202/366/202 276/363/276
f 276/363/276 202/366/202 204/364/204
f 277/365/277 278/367/278 202/366/202
f 202/366/202 278/367/278 200/368/200
f 278/367/278 279/369/279 200/368/200
f 200/368/200 279/369/279 198/370/198
f 279/369/279 280/371/280 198/370/198
f 198/370/198 280/371/280 196/372/196
f 280/373/280 271/353/271 196/374/196
f 196/374/196 271/353/271 194/355/194
f 2/375/2 1/376/1 281/377/281
f 281/377/281 1/376/1 282/378/282
f 1/376/1 19/379/19 282/378/282
f 282/378/282 19/379/19 283/380/283
f 17/381/17 284/382/284 19/379/19
f 19/379/19 284/382/284 283/380/283
f 15/383/15 285/384/285 17/381/17
f 17/381/17 285/384/285 284/382/284
f 13/385/13 286/386/286 15/383/15
f 15/383/15 286/386/286 285/384/285
f 11/387/11 287/388/287 13/385/13
f 13/385/13 287/388/287 286/386/286
f 9/389/9 288/390/288 11/387/11
f 11/387/11 288/390/288 287/388/287
f 9/389/9 7/391/7 288/390/288
f 288/390/288 7/391/7 289/392/289
f 7/391/7 5/393/5 289/392/289
f 289/392/289 5/393/5 290/394/290
f 5/395/5 2/375/2 290/396/290
f 290/396/290 2/375/2 281/377/281
f 281/377/281 282/378/282 291/397/291
f 291/397/291 282/378/282 292/398/292
f 282/378/282 283/380/283 292/398/292
f 292/398/292 283/380/283 293/399/293
f 284/382/284 294/400/294 283/380/283
f 283/380/283 294/400/294 293/399/293
f 285/384/285 295/401/295 284/382/284
f 284/382/284 295/401/295 294/400/294
f 286/386/286 296/402/296 285/384/285
f 285/384/285 296/402/296 295/401/295
f 287/388/287 297/403/297 286/386/286
f 286/386/286 297/403/297 296/402/296
f 288/390/288 298/404/298 287/388/287
f 287/388/287 298/404/298 297/403/297
f 288/390/288 289/392/289 298/404/298
f 298/404/298 289/392/289 299/405/299
f 289/392/289 290/394/290 299/405/299
f 299/405/299 290/394/290 300/406/300
f 290/396/290 281/377/281 300/407/300
f 300/407/300 281/377/281 291/397/291
f 291/397/291 292/398/292 301/408/301
f 301/408/301 292/398/292 302/409/302
f 292/398/292 293/399/293 302/409/302
f 302/409/302 293/399/293 303/410/303
f 294/400/294 304/411/304 293/399/293
f 293/399/293 304/411/304 303/410/303
f 295/401/295 305/412/305 294/400/294
f 294/400/294 305/412/305 304/411/304
f 296/402/296 306/413/306 295/401/295
f 295/401/295 306/413/306 305/412/305
f 297/403/297 307/414/307 296/402/296
f 296/402/296 307/414/307 306/413/306
f 298/404/298 308/415/308 297/403/297
f 297/403/297 308/415/308 307/414/307
f 298/404/298 299/405/299 308/415/308
f 308/415/308 299/405/299 309/416/309
f 299/405/299 300/406/300 309/416/309
f 309/416/309 300/406/300 310/417/310
f 300/407/300 291/397/291 310/418/310
f 310/418/310 291/397/291 301/408/301
f 301/408/301 302/409/302 311/419/311
f 311/419/311 302/409/302 312/420/312
f 302/409/302 303/410/303 312/420/312
f 312/420/312 303/410/303 313/421/313
f 304/411/304 314/422/314 303/410/303
f 303/410/303 314/422/314 313/421/313
f 305/412/305 315/423/315 304/411/304
f 304/411/304 315/423/315 314/422/314
f 306/413/306 316/424/316 305/412/305
f 305/412/305 316/424/316 315/423/315
f 307/414/307 317/425/317 306/413/306
f 306/413/306 317/425/317 316/424/316
f 308/415/308 318/426/318 307/414/307
f 307/414/307 318/426/318 317/425/317
f 308/415/308 309/416/309 318/426/318
f 318/426/318 309/416/309 319/427/319
f 309/416/309 310/417/310 319/427/319
f 319/427/319 310/417/310 320/428/320
f 310/418/310 301/408/301 320/429/320
f 320/429/320 301/408/301 311/419/311
f 311/419/311 312/420/312 321/430/321
f 321/430/321 312/420/312 322/431/322
f 312/420/312 313/421/313 322/431/322
f 322/431/322 313/421/313 323/432/323
f 314/422/314 324/433/324 313/421/313
f 313/421/313 324/433/324 323/432/323
f 315/423/315 325/434/325 314/422/314
f 314/422/314 325/434/325 324/433/324
f 316/424/316 326/435/326 315/423/315
f 315/423/315 326/435/326 325/434/325
f 317/425/317 327/436/327 316/424/316
f 316/424/316 327/436/327 326/435/326
f 318/426/318 328/437/328 317/425/317
f 317/425/317 328/437/328 327/436/327
f 318/426/318 319/427/319 328/437/328
f 328/437/328 319/427/319 329/438/329
f 319/427/319 320/428/320 329/438/329
f 329/438/329 320/428/320 330/439/330
f 320/429/320 311/419/311 330/440/330
f 330/440/330 311/419/311 321/430/321
f 321/430/321 322/431/322 271/353/271
f 271/353/271 322/431/322 272/354/272
f 322/431/322 323/432/323 272/354/272
f 272/354/272 323/432/323 273/357/273
f 324/433/324 274/359/274 323/432/323
f 323/432/323 274/359/274 273/357/273
f 325/434/325 275/361/275 324/433/324
f 324/433/324 275/361/275 274/359/274
f 326/435/326 276/363/276 325/434/325
f 325/434/325 276/363/276 275/361/275
f 327/436/327 277/365/277 326/435/326
f 326/435/326 277/365/277 276/363/276
f 328/437/328 278/367/278 327/436/327
f 327/436/327 278/367/278 277/365/277
f 328/437/328 329/438/329 278/367/278
f 278/367/278 329/438/329 279/369/279
f 329/438/329 330/439/330 279/369/279
f 279/369/279 330/439/330 280/371/280
f 330/440/330 321/430/321 280/373/280
f 280/373/280 321/430/321 271/353/271
f 331/441/331 332/442/332 26/443/26
f 26/443/26 332/442/332 24/444/24
f 332/445/332 333/446/333 24/447/24
f 24/447/24 333/446/333 23/448/23
f 333/446/333 334/449/334 23/448/23
f 23/448/23 334/449/334 40/450/40
f 335/451/335 38/452/38 334/449/334
f 334/449/334 38/452/38 40/450/40
f 336/453/336 36/454/36 335/451/335
f 335/451/335 36/454/36 38/452/38
f 337/455/337 34/456/34 336/453/336
f 336/453/336 34/456/34 36/454/36
f 337/455/337 338/457/338 34/456/34
f 34/456/34 338/457/338 32/458/32
f 338/457/338 339/459/339 32/458/32
f 32/458/32 339/459/339 30/460/30
f 339/459/339 340/461/340 30/460/30
f 30/460/30 340/461/340 28/462/28
f 340/461/340 331/441/331 28/462/28
f 28/462/28 331/441/331 26/443/26
f 4/463/4 6/464/6 341/465/341
f 341/465/341 6/464/6 342/466/342
f 6/467/6 8/468/8 342/469/342
f 342/469/342 8/468/8 343/470/343
f 8/468/8 10/471/10 343/470/343
f 343/470/343 10/471/10 344/472/344
f 10/471/10 12/473/12 344/472/344
f 344/472/344 12/473/12 345/474/345
f 12/473/12 14/475/14 345/474/345
f 345/474/345 14/475/14 346/476/346
f 14/475/14 16/477/16 346/476/346
f 346/476/346 16/477/16 347/478/347
f 16/477/16 18/479/18 347/478/347
f 347/478/347 18/479/18 348/480/348
f 18/479/18 20/481/20 348/480/348
f 348/480/348 20/481/20 349/482/349
f 20/481/20 3/483/3 349/482/349
f 349/482/349 3/483/3 350/484/350
f 3/483/3 4/463/4 350/484/350
f 350/484/350 4/463/4 341/465/341
f 342/466/342 351/485/351 341/465/341
f 341/465/341 351/485/351 352/486/352
f 343/470/343 353/487/353 342/469/342
f 342/469/342 353/487/353 351/488/351
f 344/472/344 354/489/354 343/470/343
f 343/470/343 354/489/354 353/487/353
f 344/472/344 345/474/345 354/489/354
f 354/489/354 345/474/345 355/490/355
f 345/474/345 346/476/346 355/490/355
f 355/490/355 346/476/346 356/491/356
f 346/476/346 347/478/347 356/491/356
f 356/491/356 347/478/347 357/492/357
f 347/478/347 348/480/348 357/492/357
f 357/492/357 348/480/348 358/493/358
f 348/480/348 349/482/349 358/493/358
f 358/493/358 349/482/349 359/494/359
f 349/482/349 350/484/350 359/494/359
f 359/494/359 350/484/350 360/495/360
f 341/465/341 352/486/352 350/484/350
f 350/484/350 352/486/352 360/495/360
f 351/485/351 361/496/361 352/486/352
f 352/486/352 361/496/361 362/497/362
f 353/487/353 363/498/363 351/488/351
f 351/488/351 363/498/363 361/499/361
f 354/489/354 364/500/364 353/487/353
f 353/487/353 364/500/364 363/498/363
f 354/489/354 355/490/355 364/500/364
f 364/500/364 355/490/355 365/501/365
f 355/490/355 356/491/356 365/501/365
f 365/501/365 356/491/356 366/502/366
f 356/491/356 357/492/357 366/502/366
f 366/502/366 357/492/357 367/503/367
f 358/493/358 368/504/368 357/492/357
f 357/492/357 368/504/368 367/503/367
f 359/494/359 369/505/369 358/493/358
f 358/493/358 369/505/369 368/504/368
f 359/494/359 360/495/360 369/505/369
f 369/505/369 360/495/360 370/506/370
f 360/495/360 352/486/352 370/506/370
f 370/506/370 352/486/352 362/497/362
f 362/497/362 361/496/361 371/507/371
f 371/507/371 361/496/361 372/508/372
f 361/499/361 363/498/363 372/509/372
f 372/509/372 363/498/363 373/510/373
f 363/498/363 364/500/364 373/510/373
f 373/510/373 364/500/364 374/511/374
f 365/501/365 375/512/375 364/500/364
f 364/500/364 375/512/375 374/511/374
f 366/502/366 376/513/376 365/501/365
f 365/501/365 376/513/376 375/512/375
f 367/503/367 377/514/377 366/502/366
f 366/502/366 377/514/377 376/513/376
f 368/504/368 378/515/378 367/503/367
f 367/503/367 378/515/378 377/514/377
f 369/505/369 379/516/379 368/504/368
f 368/504/368 379/516/379 378/515/378
f 369/505/369 370/506/370 379/516/379
f 379/516/379 370/506/370 380/517/380
f 370/506/370 362/497/362 380/517/380
f 380/517/380 362/497/362 371/507/371
f 371/507/371 372/508/372 381/518/381
f 381/518/381 372/508/372 382/519/382
f 372/509/372 373/510/373 382/520/382
f 382/520/382 373/510/373 383/521/383
f 373/510/373 374/511/374 383/521/383
f 383/521/383 374/511/374 384/522/384
f 375/512/375 385/523/385 374/511/374
f 374/511/374 385/523/385 384/522/384
f 376/513/376 386/524/386 375/512/375
f 375/512/375 386/524/386 385/523/385
f 377/514/377 387/525/387 376/513/376
f 376/513/376 387/525/387 386/524/386
f 378/515/378 388/526/388 377/514/377
f 377/514/377 388/526/388 387/525/387
f 378/515/378 379/516/379 388/526/388
f 388/526/388 379/516/379 389/527/389
f 379/516/379 380/517/380 389/527/389
f 389/527/389 380/517/380 390/528/390
f 380/517/380 371/507/371 390/528/390
f 390/528/390 371/507/371 381/518/381
f 381/518/381 382/519/382 331/441/331
f 331/441/331 382/519/382 332/442/332
f 382/520/382 383/521/383 332/445/332
f 332/445/332 383/521/383 333/446/333
f 383/521/383 384/522/384 333/446/333
f 333/446/333 384/522/384 334/449/334
f 385/523/385 335/451/335 384/522/384
f 384/522/384 335/451/335 334/449/334
f 386/524/386 336/453/336 385/523/385
f 385/523/385 336/453/336 335/451/335
f 387/525/387 337/455/337 386/524/386
f 386/524/386 337/455/337 336/453/336
f 388/526/388 338/457/338 387/525/387
f 387/525/387 338/457/338 337/455/337
f 389/527/389 339/459/339 388/526/388
f 388/526/388 339/459/339 338/457/338
f 389/527/389 390/528/390 339/459/339
f 339/459/339 390/528/390 340/461/340
f 390/528/390 381/518/381 340/461/340
f 340/461/340 381/518/381 331/441/331
s off
