# Apple ModelIO OBJ File: CeilingLamp
mtllib CeilingLamp.mtl
g Lamp_LampSG
v 19.3557 19.4867 -7.47266
v 19.3557 19.4867 -9.97908
v 19.3557 20.1968 -7.47266
v 19.3557 20.1968 -9.97908
v 14.9274 20.1968 -7.47266
v 14.9274 20.1968 -9.97908
v 14.9274 19.4867 -7.47266
v 14.9274 19.4867 -9.97908
vn 1 0 0
vn -1 0 0
vn 0 -1 0
vn 0 0 -1
vn 0 0 1
vt 0.548274 0.124422
vt 0.12312 0.124428
vt 0.548275 0.003971
vt 0.123138 0.003968
vt 0.548269 0.996031
vt 0.123127 0.996032
vt 0.548288 0.875551
vt 0.123138 0.875553
vt 0.002682 0.124421
vt 0.002664 0.87558
vt 0.668724 0.875586
vt 0.668729 0.124422
usemtl LampSG
f 1/1/1 2/2/1 3/3/1
f 3/3/1 2/2/1 4/4/1
f 5/5/2 6/6/2 7/7/2
f 7/7/2 6/6/2 8/8/2
f 7/7/3 8/8/3 1/1/3
f 1/1/3 8/8/3 2/2/3
f 2/2/4 8/8/4 4/9/4
f 4/9/4 8/8/4 6/10/4
f 7/7/5 1/1/5 5/11/5
f 5/11/5 1/1/5 3/12/5
s off
g Lamp_ASG
v 14.9274 20.1968 -11.0478
v 14.4864 20.1968 -11.0478
v 14.9274 20.5826 -11.0478
v 14.4864 20.5826 -11.0478
v 14.9274 20.5826 -6.40398
v 14.4864 20.5826 -6.40398
v 14.9274 20.1968 -6.40398
v 14.4864 20.1968 -6.40398
v 19.7967 20.1968 -11.0478
v 19.3557 20.1968 -11.0478
v 19.7967 20.5826 -11.0478
v 19.3557 20.5826 -11.0478
v 19.7967 20.5826 -6.40398
v 19.3557 20.5826 -6.40398
v 19.7967 20.1968 -6.40398
v 19.3557 20.1968 -6.40398
vn 0 0 -1
vn 0 0 1
vn 0 -1 0
vn -1 0 0
vn 1 0 0
vt 0.383487 0.075137
vt 0.302738 0.075138
vt 0.383486 0.004506
vt 0.30274 0.004504
vt 0.383494 0.996028
vt 0.302745 0.996032
vt 0.383493 0.925397
vt 0.302745 0.925399
vt 0.232105 0.075139
vt 0.232113 0.925399
vt 0.454124 0.925396
vt 0.454119 0.075136
vt 0.072442 0.924864
vt 0.15319 0.924874
vt 0.072434 0.995491
vt 0.153182 0.99551
vt 0.072551 0.003968
vt 0.153298 0.003972
vt 0.072542 0.074598
vt 0.153289 0.074606
vt 0.223822 0.924883
vt 0.223921 0.074609
vt 0.001911 0.074594
vt 0.001809 0.924855
usemtl ASG
f 9/13/6 10/14/6 11/15/6
f 11/15/6 10/14/6 12/16/6
f 13/17/7 14/18/7 15/19/7
f 15/19/7 14/18/7 16/20/7
f 15/19/8 16/20/8 9/13/8
f 9/13/8 16/20/8 10/14/8
f 10/14/9 16/20/9 12/21/9
f 12/21/9 16/20/9 14/22/9
f 15/19/10 9/13/10 13/23/10
f 13/23/10 9/13/10 11/24/10
f 17/25/6 18/26/6 19/27/6
f 19/27/6 18/26/6 20/28/6
f 21/29/7 22/30/7 23/31/7
f 23/31/7 22/30/7 24/32/7
f 23/31/8 24/32/8 17/25/8
f 17/25/8 24/32/8 18/26/8
f 18/26/9 24/32/9 20/33/9
f 20/33/9 24/32/9 22/34/9
f 23/31/10 17/25/10 21/35/10
f 21/35/10 17/25/10 19/36/10
s off
g Lamp_BSG
v 20.3323 20.1448 -7.03165
v 20.3323 20.1448 -7.47266
v 20.3323 20.5826 -7.03165
v 20.3323 20.5826 -7.47266
v 13.9508 20.5826 -7.03165
v 13.9508 20.5826 -7.47266
v 13.9508 20.1448 -7.03165
v 13.9508 20.1448 -7.47266
v 20.3323 20.1448 -9.97908
v 20.3323 20.1448 -10.4201
v 20.3323 20.5826 -9.97908
v 20.3323 20.5826 -10.4201
v 13.9508 20.5826 -9.97908
v 13.9508 20.5826 -10.4201
v 13.9508 20.1448 -9.97908
v 13.9508 20.1448 -10.4201
vn 1 0 0
vn -1 0 0
vn 0 -1 0
vn 0 0 -1
vn 0 0 1
vt 0.121671 0.064081
vt 0.061381 0.064042
vt 0.121641 0.00425
vt 0.061383 0.004204
vt 0.12164 0.996032
vt 0.06128 0.996017
vt 0.121599 0.936175
vt 0.061314 0.936179
vt 0.001531 0.064015
vt 0.001474 0.936168
vt 0.181425 0.93618
vt 0.181517 0.064077
vt 0.310133 0.063945
vt 0.249822 0.06389
vt 0.310062 0.003968
vt 0.249691 0.004025
vt 0.310047 0.99572
vt 0.249902 0.995668
vt 0.310137 0.936039
vt 0.249875 0.936043
vt 0.189953 0.06388
vt 0.190036 0.936058
vt 0.369974 0.936035
vt 0.369971 0.063939
usemtl BSG
f 25/37/11 26/38/11 27/39/11
f 27/39/11 26/38/11 28/40/11
f 29/41/12 30/42/12 31/43/12
f 31/43/12 30/42/12 32/44/12
f 31/43/13 32/44/13 25/37/13
f 25/37/13 32/44/13 26/38/13
f 26/38/14 32/44/14 28/45/14
f 28/45/14 32/44/14 30/46/14
f 31/43/15 25/37/15 29/47/15
f 29/47/15 25/37/15 27/48/15
f 33/49/11 34/50/11 35/51/11
f 35/51/11 34/50/11 36/52/11
f 37/53/12 38/54/12 39/55/12
f 39/55/12 38/54/12 40/56/12
f 39/55/13 40/56/13 33/49/13
f 33/49/13 40/56/13 34/50/13
f 34/50/14 40/56/14 36/57/14
f 36/57/14 40/56/14 38/58/14
f 39/55/15 33/49/15 37/59/15
f 37/59/15 33/49/15 35/60/15
s off
g Lamp_CSG
v 18.4506 19.3761 -10.0958
v 18.2672 19.3761 -10.0958
v 18.4506 19.4867 -10.0958
v 18.2672 19.4867 -10.0958
v 18.4506 19.4867 -7.35594
v 18.2672 19.4867 -7.35594
v 18.4506 19.3761 -7.35594
v 18.2672 19.3761 -7.35594
v 18.4506 19.3761 -7.47266
v 18.2672 19.3761 -7.47266
v 18.4506 19.3761 -9.97908
v 18.2672 19.3761 -9.97908
v 18.2672 19.4867 -9.97908
v 18.2672 19.4867 -7.47266
v 18.4506 19.4867 -7.47266
v 18.4506 19.4867 -9.97908
v 18.4506 20.1448 -9.97908
v 18.4506 20.1448 -10.0958
v 18.2672 20.1448 -10.0958
v 18.2672 20.1448 -9.97908
v 18.2672 20.1448 -7.47266
v 18.2672 20.1448 -7.35594
v 18.4506 20.1448 -7.35594
v 18.4506 20.1448 -7.47266
v 16.016 19.3761 -10.0958
v 15.8325 19.3761 -10.0958
v 16.016 19.4867 -10.0958
v 15.8325 19.4867 -10.0958
v 16.016 19.4867 -7.35594
v 15.8325 19.4867 -7.35594
v 16.016 19.3761 -7.35594
v 15.8325 19.3761 -7.35594
v 16.016 19.3761 -7.47266
v 15.8325 19.3761 -7.47266
v 16.016 19.3761 -9.97908
v 15.8325 19.3761 -9.97908
v 15.8325 19.4867 -9.97908
v 15.8325 19.4867 -7.47266
v 16.016 19.4867 -7.47266
v 16.016 19.4867 -9.97908
v 16.016 20.1448 -9.97908
v 16.016 20.1448 -10.0958
v 15.8325 20.1448 -10.0958
v 15.8325 20.1448 -9.97908
v 15.8325 20.1448 -7.47266
v 15.8325 20.1448 -7.35594
v 16.016 20.1448 -7.35594
v 16.016 20.1448 -7.47266
vn 0 0 -1
vn 0 0 1
vn 0 -1 0
vn -1 0 0
vn 1 0 0
vt 0.070891 0.183732
vt 0.028653 0.183732
vt 0.070891 0.158291
vt 0.028653 0.158291
vt 0.070891 0.845616
vt 0.028653 0.845616
vt 0.070891 0.820242
vt 0.028653 0.820242
vt 0.070891 0.793055
vt 0.028653 0.793055
vt 0.070891 0.210419
vt 0.028653 0.210419
vt 0.00153 0.210419
vt 0.00153 0.793055
vt 0.093972 0.793055
vt 0.093972 0.210419
vt 0.00153 0.183732
vt 0.093972 0.183732
vt 0.00153 0.820242
vt 0.093972 0.820242
vt 0.097072 0.158291
vt 0.097072 0.006406
vt 0.070891 0.006406
vt 0.028653 0.006406
vt 0.000813 0.158291
vt 0.000813 0.006406
vt 0.002932 0.845616
vt 0.002932 0.996032
vt 0.028653 0.996032
vt 0.070891 0.996032
vt 0.098278 0.845616
vt 0.098278 0.996032
vt 0.177098 0.180228
vt 0.13498 0.180228
vt 0.177098 0.154932
vt 0.13498 0.154932
vt 0.177098 0.845446
vt 0.13498 0.845446
vt 0.177098 0.820222
vt 0.13498 0.820222
vt 0.177098 0.793239
vt 0.13498 0.793239
vt 0.177098 0.207126
vt 0.13498 0.207126
vt 0.109385 0.207126
vt 0.109385 0.793239
vt 0.202555 0.793239
vt 0.202555 0.207126
vt 0.109385 0.180228
vt 0.202555 0.180228
vt 0.109385 0.820222
vt 0.202555 0.820222
vt 0.204081 0.154932
vt 0.204081 0.003968
vt 0.177098 0.003968
vt 0.13498 0.003968
vt 0.108445 0.154932
vt 0.108445 0.003968
vt 0.108165 0.845446
vt 0.108165 0.996334
vt 0.13498 0.996334
vt 0.177098 0.996334
vt 0.203733 0.845446
vt 0.203733 0.996334
usemtl CSG
f 41/61/16 42/62/16 43/63/16
f 43/63/16 42/62/16 44/64/16
f 45/65/17 46/66/17 47/67/17
f 47/67/17 46/66/17 48/68/17
f 49/69/18 50/70/18 51/71/18
f 51/71/18 50/70/18 52/72/18
f 52/72/19 50/70/19 53/73/19
f 53/73/19 50/70/19 54/74/19
f 49/69/20 51/71/20 55/75/20
f 55/75/20 51/71/20 56/76/20
f 51/71/18 52/72/18 41/61/18
f 41/61/18 52/72/18 42/62/18
f 52/72/19 53/73/19 42/62/19
f 42/62/19 53/73/19 44/77/19
f 56/76/20 51/71/20 43/78/20
f 43/78/20 51/71/20 41/61/20
f 54/74/19 50/70/19 46/79/19
f 46/79/19 50/70/19 48/68/19
f 50/70/18 49/69/18 48/68/18
f 48/68/18 49/69/18 47/67/18
f 49/69/20 55/75/20 47/67/20
f 47/67/20 55/75/20 45/80/20
f 56/81/20 43/63/20 57/82/20
f 57/82/20 43/63/20 58/83/20
f 43/63/16 44/64/16 58/83/16
f 58/83/16 44/64/16 59/84/16
f 44/64/19 53/85/19 59/84/19
f 59/84/19 53/85/19 60/86/19
f 54/87/19 46/66/19 61/88/19
f 61/88/19 46/66/19 62/89/19
f 46/66/17 45/65/17 62/89/17
f 62/89/17 45/65/17 63/90/17
f 45/65/20 55/91/20 63/90/20
f 63/90/20 55/91/20 64/92/20
f 65/93/16 66/94/16 67/95/16
f 67/95/16 66/94/16 68/96/16
f 69/97/17 70/98/17 71/99/17
f 71/99/17 70/98/17 72/100/17
f 73/101/18 74/102/18 75/103/18
f 75/103/18 74/102/18 76/104/18
f 76/104/19 74/102/19 77/105/19
f 77/105/19 74/102/19 78/106/19
f 73/101/20 75/103/20 79/107/20
f 79/107/20 75/103/20 80/108/20
f 75/103/18 76/104/18 65/93/18
f 65/93/18 76/104/18 66/94/18
f 76/104/19 77/105/19 66/94/19
f 66/94/19 77/105/19 68/109/19
f 80/108/20 75/103/20 67/110/20
f 67/110/20 75/103/20 65/93/20
f 78/106/19 74/102/19 70/111/19
f 70/111/19 74/102/19 72/100/19
f 74/102/18 73/101/18 72/100/18
f 72/100/18 73/101/18 71/99/18
f 73/101/20 79/107/20 71/99/20
f 71/99/20 79/107/20 69/112/20
f 80/113/20 67/95/20 81/114/20
f 81/114/20 67/95/20 82/115/20
f 67/95/16 68/96/16 82/115/16
f 82/115/16 68/96/16 83/116/16
f 68/96/19 77/117/19 83/116/19
f 83/116/19 77/117/19 84/118/19
f 78/119/19 70/98/19 85/120/19
f 85/120/19 70/98/19 86/121/19
f 70/98/17 69/97/17 86/121/17
f 86/121/17 69/97/17 87/122/17
f 69/97/20 79/123/20 87/122/20
f 87/122/20 79/123/20 88/124/20
s off
g Lamp_DSG
v 14.8107 19.4053 -9.58637
v 14.8107 19.4053 -9.40287
v 14.8107 19.4867 -9.58637
v 14.8107 19.4867 -9.40287
v 19.4725 19.4867 -9.58637
v 19.4725 19.4867 -9.40287
v 19.4725 19.4053 -9.58637
v 19.4725 19.4053 -9.40287
v 19.3557 19.4053 -9.58637
v 19.3557 19.4053 -9.40287
v 14.9274 19.4053 -9.58637
v 14.9274 19.4053 -9.40287
v 14.9274 19.4867 -9.40287
v 19.3557 19.4867 -9.40287
v 19.3557 19.4867 -9.58637
v 14.9274 19.4867 -9.58637
v 14.9274 20.1448 -9.58637
v 14.8107 20.1448 -9.58637
v 14.8107 20.1448 -9.40287
v 14.9274 20.1448 -9.40287
v 19.3557 20.1448 -9.40287
v 19.4725 20.1448 -9.40287
v 19.4725 20.1448 -9.58637
v 19.3557 20.1448 -9.58637
v 14.8107 19.4053 -8.06539
v 14.8107 19.4053 -7.8819
v 14.8107 19.4867 -8.06539
v 14.8107 19.4867 -7.8819
v 19.4725 19.4867 -8.06539
v 19.4725 19.4867 -7.8819
v 19.4725 19.4053 -8.06539
v 19.4725 19.4053 -7.8819
v 19.3557 19.4053 -8.06539
v 19.3557 19.4053 -7.8819
v 14.9274 19.4053 -8.06539
v 14.9274 19.4053 -7.8819
v 14.9274 19.4867 -7.8819
v 19.3557 19.4867 -7.8819
v 19.3557 19.4867 -8.06539
v 14.9274 19.4867 -8.06539
v 14.9274 20.1448 -8.06539
v 14.8107 20.1448 -8.06539
v 14.8107 20.1448 -7.8819
v 14.9274 20.1448 -7.8819
v 19.3557 20.1448 -7.8819
v 19.4725 20.1448 -7.8819
v 19.4725 20.1448 -8.06539
v 19.3557 20.1448 -8.06539
vn -1 0 0
vn 1 0 0
vn 0 -1 0
vn 0 0 1
vn 0 0 -1
vt 0.047723 0.118667
vt 0.018685 0.118666
vt 0.047723 0.105881
vt 0.018685 0.105881
vt 0.047723 0.893873
vt 0.018685 0.893873
vt 0.047723 0.881088
vt 0.018685 0.881088
vt 0.047723 0.862085
vt 0.018685 0.862085
vt 0.047723 0.137937
vt 0.018685 0.137937
vt 0.00564 0.137937
vt 0.00564 0.862085
vt 0.062594 0.862085
vt 0.062594 0.137937
vt 0.00564 0.118667
vt 0.062594 0.118667
vt 0.00564 0.881088
vt 0.062594 0.881088
vt 0.065864 0.105881
vt 0.065864 0.003968
vt 0.047723 0.003968
vt 0.018685 0.003968
vt 0.001183 0.105881
vt 0.001183 0.003968
vt 0.000575 0.893873
vt 0.000575 0.996032
vt 0.018685 0.996032
vt 0.047723 0.996032
vt 0.065417 0.893873
vt 0.065417 0.996032
vt 0.124425 0.121901
vt 0.095081 0.121901
vt 0.124425 0.108894
vt 0.095081 0.108894
vt 0.124425 0.888212
vt 0.095081 0.888212
vt 0.124425 0.875109
vt 0.095081 0.875109
vt 0.124425 0.856258
vt 0.095081 0.856258
vt 0.124425 0.141035
vt 0.095081 0.141035
vt 0.082143 0.141035
vt 0.082143 0.856258
vt 0.138672 0.856258
vt 0.138673 0.141035
vt 0.082143 0.121901
vt 0.138673 0.121901
vt 0.082143 0.875109
vt 0.138672 0.875109
vt 0.142022 0.108894
vt 0.142022 0.004326
vt 0.124425 0.004326
vt 0.095081 0.004326
vt 0.07576 0.108894
vt 0.07576 0.004326
vt 0.077264 0.888212
vt 0.077264 0.994115
vt 0.095081 0.994115
vt 0.124425 0.994115
vt 0.14437 0.888212
vt 0.14437 0.994115
usemtl DSG
f 89/125/21 90/126/21 91/127/21
f 91/127/21 90/126/21 92/128/21
f 93/129/22 94/130/22 95/131/22
f 95/131/22 94/130/22 96/132/22
f 97/133/23 98/134/23 99/135/23
f 99/135/23 98/134/23 100/136/23
f 100/136/24 98/134/24 101/137/24
f 101/137/24 98/134/24 102/138/24
f 97/133/25 99/135/25 103/139/25
f 103/139/25 99/135/25 104/140/25
f 99/135/23 100/136/23 89/125/23
f 89/125/23 100/136/23 90/126/23
f 100/136/24 101/137/24 90/126/24
f 90/126/24 101/137/24 92/141/24
f 104/140/25 99/135/25 91/142/25
f 91/142/25 99/135/25 89/125/25
f 102/138/24 98/134/24 94/143/24
f 94/143/24 98/134/24 96/132/24
f 98/134/23 97/133/23 96/132/23
f 96/132/23 97/133/23 95/131/23
f 97/133/25 103/139/25 95/131/25
f 95/131/25 103/139/25 93/144/25
f 104/145/25 91/127/25 105/146/25
f 105/146/25 91/127/25 106/147/25
f 91/127/21 92/128/21 106/147/21
f 106/147/21 92/128/21 107/148/21
f 92/128/24 101/149/24 107/148/24
f 107/148/24 101/149/24 108/150/24
f 102/151/24 94/130/24 109/152/24
f 109/152/24 94/130/24 110/153/24
f 94/130/22 93/129/22 110/153/22
f 110/153/22 93/129/22 111/154/22
f 93/129/25 103/155/25 111/154/25
f 111/154/25 103/155/25 112/156/25
f 113/157/21 114/158/21 115/159/21
f 115/159/21 114/158/21 116/160/21
f 117/161/22 118/162/22 119/163/22
f 119/163/22 118/162/22 120/164/22
f 121/165/23 122/166/23 123/167/23
f 123/167/23 122/166/23 124/168/23
f 124/168/24 122/166/24 125/169/24
f 125/169/24 122/166/24 126/170/24
f 121/165/25 123/167/25 127/171/25
f 127/171/25 123/167/25 128/172/25
f 123/167/23 124/168/23 113/157/23
f 113/157/23 124/168/23 114/158/23
f 124/168/24 125/169/24 114/158/24
f 114/158/24 125/169/24 116/173/24
f 128/172/25 123/167/25 115/174/25
f 115/174/25 123/167/25 113/157/25
f 126/170/24 122/166/24 118/175/24
f 118/175/24 122/166/24 120/164/24
f 122/166/23 121/165/23 120/164/23
f 120/164/23 121/165/23 119/163/23
f 121/165/25 127/171/25 119/163/25
f 119/163/25 127/171/25 117/176/25
f 128/177/25 115/159/25 129/178/25
f 129/178/25 115/159/25 130/179/25
f 115/159/21 116/160/21 130/179/21
f 130/179/21 116/160/21 131/180/21
f 116/160/24 125/181/24 131/180/24
f 131/180/24 125/181/24 132/182/24
f 126/183/24 118/162/24 133/184/24
f 133/184/24 118/162/24 134/185/24
f 118/162/22 117/161/22 134/185/22
f 134/185/22 117/161/22 135/186/22
f 117/161/25 127/187/25 135/186/25
f 135/186/25 127/187/25 136/188/25
s off
