# Apple ModelIO OBJ File: Door
mtllib Door.mtl
g Door_FrameDoorSG
v 6.07696 0.251811 0.181578
v 6.00582 0.270871 0.181578
v 6.07696 0.251811 -0.303782
v 6.00583 0.270871 -0.303782
v 5.95375 0.322944 0.181578
v 5.95375 0.322944 -0.303782
v 5.93469 0.394078 0.181578
v 5.93469 0.394078 -0.303782
v 6.07696 0.394078 0.323845
v 6.07696 0.322944 0.304785
v 6.69589 0.394078 0.323845
v 6.69595 0.322944 0.304785
v 6.07696 0.270871 0.252711
v 6.69595 0.270871 0.252711
v 6.69589 0.251811 0.181578
v 5.95375 0.394078 0.252711
v 5.93469 3.78763 0.181578
v 5.95375 3.78796 0.252713
v 6.00583 0.394078 0.304785
v 6.00583 3.78796 0.304787
v 6.07696 3.78763 0.323845
v 6.76296 0.394078 0.323845
v 6.75818 3.76822 0.323845
v 6.68827 3.78001 0.323845
v 6.83002 0.394078 0.323845
v 6.8281 3.75643 0.323845
v 6.89709 0.394078 0.323845
v 6.89802 3.74464 0.323845
v 6.89709 0.251811 0.181578
v 6.83002 0.251811 0.181578
v 6.89709 0.251811 -0.303782
v 6.83002 0.251811 -0.303782
v 6.76296 0.251811 0.181578
v 6.76296 0.251811 -0.303782
v 6.69589 0.251811 -0.303782
v 6.89708 0.322944 0.304785
v 12.3342 0.394078 0.323845
v 12.3342 0.322944 0.304785
v 6.89708 0.270871 0.252711
v 12.3342 0.270871 0.252711
v 12.3342 0.251811 0.181578
v 5.93469 3.98883 0.181578
v 5.95375 3.98898 0.252712
v 5.93469 12.837 0.181578
v 5.95375 12.837 0.252711
v 6.00583 3.98898 0.304785
v 6.00583 12.837 0.304785
v 6.07696 3.98883 0.323845
v 6.07696 12.837 0.323845
v 5.93469 3.8547 0.181578
v 5.93469 3.78763 -0.303782
v 5.93469 3.8547 -0.303782
v 5.93469 3.92176 0.181578
v 5.93469 3.92176 -0.303782
v 5.93469 3.98883 -0.303782
v 6.07696 3.92176 0.323845
v 6.65895 3.98548 0.323845
v 6.66872 3.91699 0.323845
v 6.07696 3.8547 0.323845
v 6.67849 3.8485 0.323845
v 6.79649 4.02522 0.186854
v 6.81484 3.95672 0.186854
v 6.79649 4.02522 -0.309059
v 6.81484 3.95672 -0.309059
v 6.86498 3.90658 0.186854
v 6.86498 3.90658 -0.309059
v 6.93348 3.88823 0.186854
v 6.93348 3.88823 -0.309059
v 6.72854 3.99792 0.306485
v 6.6529 12.8361 0.323845
v 6.72532 12.8246 0.306247
v 6.77901 4.0125 0.256211
v 6.77797 12.8116 0.256005
v 6.79649 12.8006 0.186854
v 6.92241 3.86971 0.256013
v 12.2978 3.88823 0.186854
v 12.3104 3.87075 0.256184
v 6.9094 3.81706 0.306255
v 12.325 3.82028 0.306454
v 12.3375 3.75069 0.323845
v 6.07696 3.98883 -0.44605
v 6.00583 3.98879 -0.426989
v 6.07696 12.837 -0.44605
v 6.00583 12.8368 -0.42699
v 5.95375 3.98879 -0.374916
v 5.95375 12.8368 -0.374916
v 5.93469 12.837 -0.303782
v 6.07696 3.8547 -0.44605
v 6.67648 3.84993 -0.44605
v 6.07696 3.78763 -0.44605
v 6.68827 3.78001 -0.44605
v 6.07696 3.92176 -0.44605
v 6.66469 3.91984 -0.44605
v 6.6529 3.98976 -0.44605
v 5.95375 3.78796 -0.374917
v 5.95375 0.394078 -0.374916
v 6.00583 3.78796 -0.426991
v 6.00582 0.394078 -0.426989
v 6.07696 0.394078 -0.44605
v 6.89374 3.75069 -0.44605
v 6.9063 3.82028 -0.428658
v 12.3333 3.74464 -0.44605
v 12.3219 3.81706 -0.42846
v 6.92089 3.87075 -0.378388
v 12.3089 3.86971 -0.378217
v 12.2978 3.88823 -0.309059
v 6.75676 3.77024 -0.44605
v 6.69589 0.394078 -0.44605
v 6.76296 0.394078 -0.44605
v 6.82525 3.76046 -0.44605
v 6.83002 0.394078 -0.44605
v 6.89709 0.394078 -0.44605
v 6.77797 4.01418 -0.37821
v 6.79649 12.8006 -0.309059
v 6.77901 12.8133 -0.378415
v 6.72532 4.00118 -0.428451
v 6.72854 12.8279 -0.42869
v 6.65895 12.8403 -0.44605
v 6.07696 0.270871 -0.374916
v 6.69595 0.270871 -0.374916
v 6.07696 0.322944 -0.426989
v 6.69595 0.322944 -0.426989
v 6.89711 0.270871 -0.374916
v 12.3342 0.251811 -0.303782
v 12.3342 0.270871 -0.374916
v 6.89711 0.322944 -0.426989
v 12.3342 0.322944 -0.426989
v 12.3342 0.394078 -0.44605
v 13.1202 0.251811 0.181578
v 13.1202 0.270871 0.252711
v 12.5354 0.251811 0.181578
v 12.5353 0.270871 0.252711
v 13.1202 0.322944 0.304785
v 12.5353 0.322944 0.304785
v 13.1202 0.394078 0.323845
v 12.5354 0.394078 0.323845
v 13.2625 0.394078 0.181578
v 13.2434 0.322944 0.181578
v 13.2625 0.394078 -0.303782
v 13.2434 0.322944 -0.303782
v 13.1914 0.270871 0.181578
v 13.1914 0.270871 -0.303782
v 13.1202 0.251811 -0.303782
v 13.1914 0.394078 0.304785
v 13.1202 3.78763 0.323845
v 13.1914 3.78798 0.304787
v 13.2434 0.394078 0.252711
v 13.2434 3.78798 0.252713
v 13.2625 3.78763 0.181578
v 13.1202 3.8547 0.323845
v 12.5548 3.84993 0.323845
v 12.543 3.78001 0.323845
v 13.1202 3.92176 0.323845
v 12.5666 3.91984 0.323845
v 13.1202 3.98883 0.323845
v 12.5784 3.98976 0.323845
v 13.2625 3.98883 0.181578
v 13.2625 3.92176 0.181578
v 13.2625 3.98883 -0.303782
v 13.2625 3.92176 -0.303782
v 13.2625 3.8547 0.181578
v 13.2625 3.8547 -0.303782
v 13.2625 3.78763 -0.303782
v 13.1914 3.98878 0.304785
v 13.1202 12.837 0.323845
v 13.1914 12.8368 0.304785
v 13.2434 3.98878 0.252711
v 13.2434 12.8368 0.252712
v 13.2625 12.837 0.181578
v 13.1202 3.98883 -0.44605
v 13.1202 3.92176 -0.44605
v 12.5723 3.98548 -0.44605
v 12.5625 3.91699 -0.44605
v 13.1202 3.8547 -0.44605
v 12.5528 3.8485 -0.44605
v 13.1202 3.78763 -0.44605
v 12.543 3.78001 -0.44605
v 13.2434 3.98899 -0.374916
v 13.2625 12.837 -0.303782
v 13.2434 12.837 -0.374916
v 13.1914 3.98899 -0.42699
v 13.1914 12.837 -0.426989
v 13.1202 12.837 -0.44605
v 13.1914 3.78798 -0.426991
v 13.1202 0.394078 -0.44605
v 13.1914 0.394078 -0.426989
v 13.2434 3.78798 -0.374918
v 13.2434 0.394078 -0.374916
v 13.1202 0.322944 -0.426989
v 12.5354 0.394078 -0.44605
v 12.5353 0.322944 -0.426989
v 13.1202 0.270871 -0.374916
v 12.5353 0.270871 -0.374916
v 12.5354 0.251811 -0.303782
v 6.07696 12.9711 0.323845
v 6.67648 12.9759 0.323845
v 6.07696 13.0382 0.323845
v 6.68827 13.0458 0.323845
v 6.07696 12.9041 0.323845
v 6.66469 12.906 0.323845
v 5.93469 13.0382 0.181578
v 5.95375 13.0379 0.252713
v 5.93469 13.5067 0.181578
v 5.95375 13.5067 0.252711
v 6.00583 13.0379 0.304787
v 6.00582 13.5067 0.304785
v 6.07696 13.5067 0.323845
v 5.93469 12.9041 0.181578
v 5.93469 12.9041 -0.303782
v 5.93469 12.9711 0.181578
v 5.93469 12.9711 -0.303782
v 5.93469 13.0382 -0.303782
v 13.1202 12.9041 0.323845
v 12.5723 12.8403 0.323845
v 12.5625 12.9088 0.323845
v 13.1202 12.9711 0.323845
v 12.5528 12.9773 0.323845
v 13.1202 13.0382 0.323845
v 12.543 13.0458 0.323845
v 13.2625 13.0382 0.181578
v 13.2625 12.9711 0.181578
v 13.2625 13.0382 -0.303782
v 13.2625 12.9711 -0.303782
v 13.2625 12.9041 0.181578
v 13.2625 12.9041 -0.303782
v 13.1914 13.0378 0.304787
v 13.1914 13.5067 0.304785
v 13.1202 13.5067 0.323845
v 13.2434 13.0378 0.252713
v 13.2434 13.5067 0.252711
v 13.2625 13.5067 0.181578
v 6.07696 13.649 0.181578
v 6.07696 13.6299 0.252711
v 6.69589 13.649 0.181578
v 6.69632 13.6299 0.252714
v 6.07696 13.5779 0.304785
v 6.69632 13.5779 0.304788
v 6.69589 13.5067 0.323845
v 5.95375 13.5779 0.181578
v 5.93469 13.5067 -0.303782
v 5.95375 13.5779 -0.303782
v 6.00583 13.6299 0.181578
v 6.00582 13.6299 -0.303782
v 6.07696 13.649 -0.303782
v 6.89709 13.5067 0.323845
v 6.83002 13.5067 0.323845
v 6.89374 13.0751 0.323845
v 6.82525 13.0654 0.323845
v 6.76296 13.5067 0.323845
v 6.75676 13.0556 0.323845
v 6.89709 13.649 0.181578
v 6.89729 13.6299 0.252712
v 12.3342 13.649 0.181578
v 12.3342 13.6299 0.252711
v 6.89729 13.5779 0.304786
v 12.3342 13.5779 0.304785
v 12.3342 13.5067 0.323845
v 6.76296 13.649 0.181578
v 6.69589 13.649 -0.303782
v 6.76296 13.649 -0.303782
v 6.83002 13.649 0.181578
v 6.83002 13.649 -0.303782
v 6.89709 13.649 -0.303782
v 13.1202 12.9711 -0.44605
v 12.5548 12.9759 -0.44605
v 13.1202 13.0382 -0.44605
v 12.543 13.0458 -0.44605
v 13.1202 12.9041 -0.44605
v 12.5666 12.906 -0.44605
v 12.5784 12.8361 -0.44605
v 13.2434 13.0378 -0.374918
v 13.2625 13.5067 -0.303782
v 13.2434 13.5067 -0.374916
v 13.1914 13.0378 -0.426991
v 13.1914 13.5067 -0.426989
v 13.1202 13.5067 -0.44605
v 13.1202 13.5779 0.304785
v 12.5354 13.5067 0.323845
v 12.535 13.5779 0.304788
v 13.1202 13.6299 0.252711
v 12.535 13.6299 0.252714
v 13.1202 13.649 0.181578
v 12.5354 13.649 0.181578
v 13.1914 13.6299 0.181578
v 13.1202 13.649 -0.303782
v 13.1914 13.6299 -0.303782
v 13.2434 13.5779 0.181578
v 13.2434 13.5779 -0.303782
v 13.1202 13.6299 -0.374916
v 12.5354 13.649 -0.303782
v 12.535 13.6299 -0.374919
v 13.1202 13.5779 -0.426989
v 12.535 13.5779 -0.426993
v 12.5354 13.5067 -0.44605
v 6.07696 12.9041 -0.44605
v 6.66872 12.9088 -0.44605
v 6.07696 12.9711 -0.44605
v 6.67849 12.9773 -0.44605
v 6.07696 13.0382 -0.44605
v 6.68827 13.0458 -0.44605
v 6.00583 13.0379 -0.426991
v 6.00583 13.5067 -0.426989
v 6.07696 13.5067 -0.44605
v 5.95375 13.0379 -0.374917
v 5.95375 13.5067 -0.374916
v 6.07696 13.5779 -0.426989
v 6.69589 13.5067 -0.44605
v 6.69632 13.5779 -0.426993
v 6.07696 13.6299 -0.374916
v 6.69632 13.6299 -0.374919
v 6.76296 13.5067 -0.44605
v 6.75818 13.0576 -0.44605
v 6.83002 13.5067 -0.44605
v 6.8281 13.0694 -0.44605
v 6.89709 13.5067 -0.44605
v 6.89802 13.0812 -0.44605
v 6.89703 13.5779 -0.426989
v 12.3342 13.5067 -0.44605
v 12.334 13.5779 -0.42699
v 6.89703 13.6299 -0.374916
v 12.334 13.6299 -0.374916
v 12.3342 13.649 -0.303782
v 6.81484 12.8691 -0.309059
v 6.81484 12.8691 0.186854
v 6.86498 12.9192 -0.309059
v 6.86498 12.9192 0.186854
v 6.93348 12.9376 -0.309059
v 6.93348 12.9376 0.186854
v 6.92246 12.9561 -0.378207
v 12.2978 12.9376 -0.309059
v 12.3106 12.9551 -0.378427
v 6.90945 13.0088 -0.428448
v 12.3251 13.0055 -0.428703
v 12.3375 13.0751 -0.44605
v 12.4348 12.8006 0.186854
v 12.4164 12.8691 0.186854
v 12.4348 12.8006 -0.309059
v 12.4164 12.8691 -0.309059
v 12.3663 12.9192 0.186854
v 12.3663 12.9192 -0.309059
v 12.2978 12.9376 0.186854
v 12.5027 12.8279 0.306488
v 12.506 4.00118 0.306246
v 12.4523 12.8133 0.256213
v 12.4533 4.01419 0.256005
v 12.4348 4.02522 0.186854
v 12.4032 13.0694 0.323845
v 12.4013 13.5067 0.323845
v 12.3333 13.0812 0.323845
v 12.4731 13.0576 0.323845
v 12.4683 13.5067 0.323845
v 12.3088 12.9561 0.256002
v 6.92071 12.9551 0.256223
v 12.3218 13.0088 0.306243
v 6.90612 13.0055 0.306499
v 12.4013 13.649 0.181578
v 12.4013 13.649 -0.303782
v 12.4683 13.649 0.181578
v 12.4683 13.649 -0.303782
v 12.4013 13.5067 -0.44605
v 12.406 13.0654 -0.44605
v 12.4683 13.5067 -0.44605
v 12.4745 13.0556 -0.44605
v 12.4533 12.8116 -0.378209
v 12.4348 4.02522 -0.309059
v 12.4523 4.01249 -0.378417
v 12.506 12.8246 -0.428451
v 12.5027 3.99791 -0.428692
v 12.4164 3.95672 -0.309059
v 12.4164 3.95672 0.186854
v 12.3663 3.90658 -0.309059
v 12.3663 3.90658 0.186854
v 12.4032 3.75643 -0.44605
v 12.4013 0.394078 -0.44605
v 12.4731 3.76822 -0.44605
v 12.4683 0.394078 -0.44605
v 12.4013 0.251811 -0.303782
v 12.4013 0.251811 0.181578
v 12.4683 0.251811 -0.303782
v 12.4683 0.251811 0.181578
v 12.4013 0.394078 0.323845
v 12.406 3.76046 0.323845
v 12.4683 0.394078 0.323845
v 12.4745 3.77024 0.323845
v 5.96445 0.332606 0.243049
v 6.01549 0.281569 0.243049
v 6.01549 0.332606 0.294086
v 6.83004 0.322944 0.304785
v 6.76299 0.322944 0.304785
v 6.76299 0.270871 0.252711
v 6.83004 0.270871 0.252711
v 6.00583 3.92197 0.304786
v 5.95375 3.92197 0.252712
v 5.95375 3.85496 0.252713
v 6.00583 3.85496 0.304786
v 6.84339 3.88786 0.26212
v 6.79718 3.93373 0.262241
v 6.74924 3.91956 0.306877
v 6.7583 3.84772 0.315459
v 6.83022 3.83884 0.306705
v 5.95375 3.92184 -0.374916
v 6.00583 3.92184 -0.42699
v 6.00583 3.8549 -0.42699
v 5.95375 3.8549 -0.374917
v 6.79613 3.93509 -0.384329
v 6.84212 3.88893 -0.38441
v 6.82796 3.84099 -0.429044
v 6.756 3.85004 -0.437656
v 6.74709 3.92193 -0.428919
v 6.01549 0.281569 -0.365254
v 5.96445 0.332606 -0.365254
v 6.01549 0.332606 -0.416291
v 6.83006 0.270871 -0.374916
v 6.763 0.270871 -0.374916
v 6.763 0.322944 -0.426989
v 6.83006 0.322944 -0.426989
v 13.1817 0.332606 0.294086
v 13.1817 0.281569 0.243049
v 13.2327 0.332606 0.243049
v 13.1914 3.92185 0.304785
v 13.1914 3.85491 0.304786
v 13.2434 3.85491 0.252712
v 13.2434 3.92185 0.252712
v 13.1914 3.85498 -0.426991
v 13.1914 3.92198 -0.42699
v 13.2434 3.92198 -0.374917
v 13.2434 3.85498 -0.374917
v 13.1817 0.281569 -0.365254
v 13.1817 0.332606 -0.416291
v 13.2327 0.332606 -0.365254
v 6.00583 12.904 0.304785
v 6.00583 12.9709 0.304786
v 5.95375 12.9709 0.252712
v 5.95375 12.904 0.252712
v 13.1914 12.9708 0.304786
v 13.1914 12.9038 0.304786
v 13.2434 12.9038 0.252712
v 13.2434 12.9708 0.252713
v 5.96445 13.5682 0.243049
v 6.01549 13.5682 0.294086
v 6.01549 13.6192 0.243049
v 6.76331 13.5779 0.304787
v 6.8303 13.5779 0.304786
v 6.8303 13.6299 0.252713
v 6.76331 13.6299 0.252713
v 13.1914 12.904 -0.42699
v 13.1914 12.9709 -0.42699
v 13.2434 12.9709 -0.374917
v 13.2434 12.904 -0.374916
v 13.1817 13.6192 0.243049
v 13.1817 13.5682 0.294086
v 13.2327 13.5682 0.243049
v 13.1817 13.5682 -0.416291
v 13.1817 13.6192 -0.365253
v 13.2327 13.5682 -0.365253
v 6.00583 12.9709 -0.426991
v 6.00583 12.9038 -0.42699
v 5.95375 12.9038 -0.374917
v 5.95375 12.9709 -0.374917
v 6.01549 13.5682 -0.416291
v 5.96445 13.5682 -0.365253
v 6.01549 13.6192 -0.365254
v 6.83013 13.5779 -0.42699
v 6.76323 13.5779 -0.426991
v 6.76323 13.6299 -0.374917
v 6.83013 13.6299 -0.374916
v 6.84333 12.938 -0.384337
v 6.79718 12.8921 -0.384443
v 6.74924 12.9063 -0.429082
v 6.75831 12.9781 -0.437661
v 6.83017 12.987 -0.428923
v 12.3879 12.938 0.262132
v 12.4341 12.8921 0.262241
v 12.482 12.9063 0.30688
v 12.473 12.9781 0.315457
v 12.4011 12.987 0.306719
v 12.4011 13.6299 0.252712
v 12.4011 13.5779 0.304786
v 12.468 13.5779 0.304787
v 12.468 13.6299 0.252713
v 12.401 13.5779 -0.426991
v 12.401 13.6299 -0.374917
v 12.468 13.6299 -0.374918
v 12.468 13.5779 -0.426992
v 12.4352 12.8907 -0.384336
v 12.3893 12.9369 -0.384458
v 12.4035 12.9848 -0.429098
v 12.4753 12.9758 -0.437664
v 12.4842 12.9039 -0.42892
v 12.3879 3.88786 -0.384325
v 12.4341 3.93372 -0.384448
v 12.482 3.91955 -0.429085
v 12.473 3.84772 -0.437664
v 12.4011 3.83884 -0.428909
v 12.4012 0.270871 -0.374916
v 12.4012 0.322944 -0.426989
v 12.4683 0.322944 -0.426989
v 12.4683 0.270871 -0.374916
v 12.4012 0.322944 0.304785
v 12.4012 0.270871 0.252711
v 12.4683 0.270871 0.252711
v 12.4683 0.322944 0.304785
v 12.4351 3.93509 0.262125
v 12.3891 3.88893 0.262206
v 12.4033 3.84099 0.306839
v 12.4753 3.85005 0.315452
v 12.4842 3.92192 0.306715
v 6.79612 12.8907 0.262131
v 6.84194 12.9369 0.262254
v 6.82776 12.9848 0.306894
v 6.75597 12.9758 0.31546
v 6.74709 12.9039 0.306714
vn -0.026849 -0.999078 0.033487
vn -0.498575 -0.866426 0.026992
vn -0.026849 -0.999078 -0.033487
vn -0.498575 -0.866426 -0.026992
vn -0.866285 -0.498817 0.027036
vn -0.866285 -0.498818 -0.027036
vn -0.999404 -0.005344 0.03409
vn -0.999404 -0.005344 -0.03409
vn -0.027427 -0.005143 0.999611
vn -0.020594 -0.486717 0.873317
vn -0 -0.005533 0.999985
vn 0 -0.50002 0.866014
vn -0.021513 -0.858763 0.511922
vn 0 -0.866021 0.500008
vn 0 -0.999414 0.034232
vn -0.864828 -0.00426 0.502051
vn -0.999414 0 0.034245
vn -0.865994 0 0.500055
vn -0.497586 -0.004165 0.867405
vn -0.500162 -0 0.865932
vn -0.028086 -0 0.999606
vn 0 -0.005419 0.999985
vn 0.001773 0.002742 0.999995
vn 0.000173 0.000172 1
vn 0 -0.005437 0.999985
vn 0.001656 0.004704 0.999988
vn 0 -0.005564 0.999985
vn 1.1e-05 0.0049 0.999988
vn 0 -0.999414 0.03423
vn 0 -0.999414 0.034225
vn 0 -0.999414 -0.03423
vn 0 -0.999414 -0.034228
vn 0 -0.999414 -0.034233
vn 0 -0.500003 0.866024
vn 0 -0.00556 0.999985
vn 0 -0.499991 0.866031
vn 0 -0.866026 0.5
vn 0 -0.866027 0.499996
vn 0 -0.999414 0.034229
vn -0.999414 -0 0.034224
vn -0.866038 -0 0.499979
vn -0.999414 0 0.034231
vn -0.866022 0 0.500006
vn -0.499921 0 0.866071
vn -0.500017 0 0.866016
vn -0.029155 0 0.999575
vn -0.029337 0 0.99957
vn -0.999414 -1e-06 0.034221
vn -0.999414 0 -0.034245
vn -0.999415 -1e-06 -0.034206
vn -0.999414 -1e-06 0.034219
vn -0.999415 -1e-06 -0.034203
vn -0.999414 -0 -0.034231
vn -0.028475 0 0.999595
vn 0.02556 6.4e-05 0.999673
vn 0.023507 0.008046 0.999691
vn -0.028065 0 0.999606
vn 0.013502 0.008677 0.999871
vn 0.999473 0.002094 0.032391
vn 0.866174 0.497644 0.045744
vn 0.999475 0.00208 -0.032342
vn 0.866188 0.497559 -0.046396
vn 0.497958 0.865949 0.046589
vn 0.498058 0.86593 -0.045857
vn 0.003391 0.999472 0.032318
vn 0.003414 0.999471 -0.032339
vn 0.473194 0.001258 0.880957
vn 0.025535 -4e-05 0.999674
vn 0.474119 -0.000982 0.88046
vn 0.861291 0.002197 0.508107
vn 0.861612 -0.001961 0.507564
vn 0.999475 -0.00208 0.032343
vn 0.003238 0.862375 0.506259
vn -0.003414 0.999471 0.032339
vn -0.003617 0.862166 0.506612
vn 0.001604 0.476187 0.879343
vn -0.002044 0.475567 0.879677
vn -1.9e-05 0.004895 0.999988
vn -0.029337 -0 -0.99957
vn -0.500018 -0 -0.866015
vn -0.029155 -0 -0.999575
vn -0.499922 0 -0.866071
vn -0.866022 -0 -0.500006
vn -0.866037 0 -0.499979
vn -0.999414 0 -0.034224
vn -0.027874 0 -0.999611
vn 0.013546 0.008894 -0.999869
vn -0.028081 -0 -0.999606
vn 0.00017 0.000172 -1
vn -0.028363 0 -0.999598
vn 0.023896 0.008573 -0.999678
vn 0.025535 4e-05 -0.999674
vn -0.865995 0 -0.500053
vn -0.864829 -0.00426 -0.502049
vn -0.500161 0 -0.865933
vn -0.497585 -0.004165 -0.867405
vn -0.027427 -0.005143 -0.999611
vn 1.9e-05 0.004895 -0.999988
vn 0.002044 0.475566 -0.879678
vn -1.1e-05 0.0049 -0.999988
vn -0.001604 0.476186 -0.879343
vn 0.003617 0.862166 -0.506612
vn -0.003238 0.862376 -0.506259
vn -0.003391 0.999472 -0.032317
vn 0.001732 0.00273 -0.999995
vn 0 -0.005539 -0.999985
vn 0 -0.005472 -0.999985
vn 0.001562 0.004642 -0.999988
vn 0 -0.005488 -0.999985
vn 0 -0.00556 -0.999985
vn 0.861612 0.001961 -0.507565
vn 0.999473 -0.002094 -0.03239
vn 0.861291 -0.002197 -0.508107
vn 0.474117 0.000982 -0.880461
vn 0.473193 -0.001258 -0.880958
vn 0.02556 -6.4e-05 -0.999673
vn -0.021513 -0.858763 -0.511922
vn 0 -0.866021 -0.500009
vn -0.020594 -0.486717 -0.873317
vn 0 -0.500021 -0.866013
vn 0 -0.866027 -0.499998
vn 0 -0.866025 -0.500001
vn 0 -0.499991 -0.866031
vn 0 -0.500002 -0.866024
vn 0 -0.005563 -0.999985
vn 0.028246 -0.999041 0.033447
vn 0.022649 -0.858363 0.512542
vn 0 -0.999414 0.034233
vn 0 -0.86602 0.500009
vn 0.021687 -0.486003 0.873688
vn 0 -0.500021 0.866013
vn 0.028861 -0.005124 0.99957
vn -0 -0.00554 0.999985
vn 0.999404 -0.005344 0.034091
vn 0.866284 -0.49882 0.027035
vn 0.999404 -0.005344 -0.034091
vn 0.866284 -0.498821 -0.027035
vn 0.498577 -0.866425 0.026991
vn 0.498577 -0.866425 -0.026991
vn 0.028246 -0.999041 -0.033447
vn 0.497587 -0.004165 0.867404
vn 0.029564 -0 0.999563
vn 0.500171 0 0.865927
vn 0.864826 -0.004259 0.502054
vn 0.865991 0 0.50006
vn 0.999413 0 0.034247
vn 0.029368 1e-06 0.999569
vn -0.014258 0.009361 0.999855
vn -0.000179 0.000181 1
vn 0.029911 0 0.999553
vn -0.02517 0.00903 0.999642
vn 0.030961 0 0.999521
vn -0.026953 4.2e-05 0.999637
vn 0.999414 0 0.034233
vn 0.999415 -0 0.034204
vn 0.999414 -0 -0.034226
vn 0.999414 -0 -0.034219
vn 0.999415 -0 0.034205
vn 0.999414 -1e-06 -0.034221
vn 0.999413 0 -0.034247
vn 0.500021 0 0.866013
vn 0.030757 -0 0.999527
vn 0.49992 0 0.866072
vn 0.86602 0 0.50001
vn 0.866037 0 0.499981
vn 0.999414 0 0.034226
vn 0.030757 0 -0.999527
vn 0.030019 0 -0.999549
vn -0.026988 6.8e-05 -0.999636
vn -0.024753 0.008472 -0.999658
vn 0.029564 0 -0.999563
vn -0.014209 0.009131 -0.999857
vn 0.029569 -0 -0.999563
vn -0.000182 0.000181 -1
vn 0.866037 -0 -0.499981
vn 0.999414 0 -0.034233
vn 0.86602 -0 -0.50001
vn 0.499919 0 -0.866072
vn 0.500022 -0 -0.866013
vn 0.030961 0 -0.999521
vn 0.500172 -0 -0.865926
vn 0.028861 -0.005124 -0.99957
vn 0.497587 -0.004165 -0.867404
vn 0.86599 0 -0.500062
vn 0.864826 -0.004259 -0.502054
vn 0.021687 -0.486003 -0.873688
vn 0 -0.005534 -0.999985
vn -0 -0.50002 -0.866014
vn 0.022649 -0.858363 -0.512542
vn 0 -0.866021 -0.500008
vn -0.027874 -0 0.999611
vn 0.01354 -0.008891 0.999869
vn -0.028161 0 0.999603
vn 0.001107 -0.001115 0.999999
vn -0.028363 -0 0.999598
vn 0.023894 -0.008574 0.999678
vn -0.999413 -0 0.034247
vn -0.865987 -2e-06 0.500066
vn -0.998855 0.034354 0.033298
vn -0.857857 0.027784 0.513137
vn -0.500141 -0 0.865944
vn -0.483988 0.027242 0.874651
vn -0.025573 0.033422 0.999114
vn -0.999415 1e-06 0.034203
vn -0.999414 1e-06 -0.034219
vn -0.999415 1e-06 0.034206
vn -0.999414 0 -0.034221
vn -0.999413 -0 -0.034249
vn 0.030019 -0 0.999549
vn -0.026988 -6.8e-05 0.999636
vn -0.024754 -0.008472 0.999658
vn 0.029563 -0 0.999563
vn -0.01421 -0.009131 0.999857
vn 0.029677 0 0.99956
vn -0.001184 -0.001175 0.999999
vn 0.999413 -0 0.034251
vn 0.999414 1e-06 0.034221
vn 0.999413 -0 -0.03425
vn 0.999415 1e-06 -0.034205
vn 0.999414 0 0.03422
vn 0.999415 0 -0.034203
vn 0.500156 0 0.865935
vn 0.483992 0.027241 0.874649
vn 0.026919 0.03331 0.999083
vn 0.865979 -1e-06 0.500081
vn 0.857854 0.027783 0.513142
vn 0.998855 0.034356 0.0333
vn -0.026848 0.999078 0.033497
vn -0.021504 0.858745 0.511952
vn 0 0.999413 0.034251
vn 2e-06 0.865977 0.500084
vn -0.020587 0.486747 0.873301
vn 0 0.500132 0.865949
vn -0 0.035982 0.999353
vn -0.866292 0.498806 0.027037
vn -0.998855 0.034354 -0.033298
vn -0.866292 0.498806 -0.027037
vn -0.498582 0.866422 0.026993
vn -0.498582 0.866422 -0.026994
vn -0.026848 0.999078 -0.033497
vn 0 0.037959 0.999279
vn 0 0.036833 0.999321
vn 0.000131 -0.033771 0.99943
vn 0.010228 -0.030421 0.999485
vn 1e-06 0.03615 0.999346
vn 0.011192 -0.017646 0.999782
vn -0 0.999414 0.034227
vn -0 0.866038 0.499979
vn -0 0.999414 0.034234
vn 0 0.866023 0.500005
vn -0 0.499919 0.866072
vn 0 0.500009 0.86602
vn 0 0.038133 0.999273
vn 0 0.999414 0.034219
vn 0 0.999413 -0.034249
vn 0 0.999415 -0.034201
vn 0 0.999414 0.03422
vn -2e-06 0.999415 -0.034199
vn 0 0.999414 -0.034235
vn 0.029368 -1e-06 -0.999569
vn -0.014252 -0.009358 -0.999855
vn 0.029646 0 -0.99956
vn -0.001165 -0.001173 -0.999999
vn 0.029911 -0 -0.999553
vn -0.025167 -0.009031 -0.999642
vn -0.026953 -4.2e-05 -0.999637
vn 0.865982 -0 -0.500074
vn 0.998855 0.034356 -0.0333
vn 0.857854 0.027782 -0.513142
vn 0.500149 0 -0.86594
vn 0.483991 0.027241 -0.874649
vn 0.026919 0.03331 -0.999083
vn 0.021679 0.486038 0.873669
vn 0 0.035962 0.999353
vn -1e-06 0.500126 0.865953
vn 0.022638 0.858343 0.512577
vn -3e-06 0.865978 0.500081
vn 0.028244 0.999041 0.033459
vn -0 0.999413 0.034249
vn 0.498583 0.866422 0.026993
vn 0.028244 0.999041 -0.033459
vn 0.498583 0.866421 -0.026993
vn 0.86629 0.498809 0.027036
vn 0.86629 0.498809 -0.027036
vn 0.022638 0.858343 -0.512576
vn -0 0.999413 -0.034251
vn -2e-06 0.865975 -0.500088
vn 0.021679 0.486038 -0.873669
vn -1e-06 0.500134 -0.865948
vn 0 0.03599 -0.999352
vn -0.028475 -0 -0.999595
vn 0.023508 -0.008046 -0.999691
vn -0.028065 -0 -0.999606
vn 0.013503 -0.008678 -0.999871
vn -0.028191 0 -0.999603
vn 0.001124 -0.001116 -0.999999
vn -0.500148 -0 -0.86594
vn -0.483988 0.027242 -0.874651
vn -0.025573 0.033422 -0.999114
vn -0.865983 -1e-06 -0.500073
vn -0.857856 0.027784 -0.513138
vn -0.020587 0.486746 -0.873301
vn -0 0.035955 -0.999353
vn 1e-06 0.500124 -0.865954
vn -0.021504 0.858745 -0.511952
vn 2e-06 0.86598 -0.500078
vn 1e-06 0.035942 -0.999354
vn 0.011514 -0.017806 -0.999775
vn 0 0.036759 -0.999324
vn 0.010915 -0.030998 -0.99946
vn -0 0.038133 -0.999273
vn 7.7e-05 -0.033669 -0.999433
vn 0 0.500009 -0.86602
vn -0 0.037959 -0.999279
vn 0 0.499918 -0.866073
vn 0 0.86602 -0.50001
vn 0 0.866035 -0.499983
vn 0 0.999414 -0.034228
vn 0.866179 -0.497635 -0.045752
vn 0.866214 -0.497509 0.046445
vn 0.497948 -0.865954 -0.046612
vn 0.498081 -0.865912 0.04595
vn 0.003392 -0.999472 -0.032318
vn 0.003415 -0.999471 0.032346
vn 0.003235 -0.862405 -0.506208
vn -0.003415 -0.999471 -0.032346
vn -0.003623 -0.862164 -0.506617
vn 0.001603 -0.476115 -0.879382
vn -0.002051 -0.475537 -0.879694
vn -0.000131 -0.033771 -0.99943
vn -0.999473 -0.002094 0.032392
vn -0.866183 -0.497629 0.045754
vn -0.999475 -0.00208 -0.032343
vn -0.866219 -0.497502 -0.046444
vn -0.497942 -0.865957 0.046611
vn -0.498076 -0.865915 -0.045948
vn -0.003392 -0.999472 0.032318
vn -0.473195 -0.001258 0.880957
vn -0.474115 0.000982 0.880463
vn -0.861291 -0.002197 0.508107
vn -0.861613 0.001961 0.507562
vn -0.999475 0.00208 0.032343
vn -0.010914 -0.030998 0.99946
vn -0 0.036759 0.999324
vn -7.7e-05 -0.033669 0.999433
vn -0.011513 -0.017806 0.999775
vn -1e-06 0.035942 0.999354
vn -0.003235 -0.862406 0.506208
vn 0.003623 -0.862164 0.506617
vn -0.001603 -0.476118 0.87938
vn 0.002051 -0.475539 0.879692
vn 2e-06 0.999415 0.034199
vn -0 0.999414 -0.03422
vn -0 0.999415 0.034201
vn -0 0.036833 -0.999321
vn -0.010228 -0.030421 -0.999485
vn -1e-06 0.03615 -0.999346
vn -0.011192 -0.017646 -0.999782
vn -0.861614 -0.001961 -0.507561
vn -0.999473 0.002094 -0.032392
vn -0.861291 0.002197 -0.508107
vn -0.474115 -0.000982 -0.880462
vn -0.473195 0.001258 -0.880957
vn -0.866178 0.497638 -0.045749
vn -0.866193 0.497551 0.046397
vn -0.497952 0.865952 -0.046591
vn -0.498054 0.865933 0.045856
vn -0.001656 0.004704 -0.999988
vn -0 -0.005437 -0.999985
vn -0.001773 0.002742 -0.999995
vn -0 -0.005419 -0.999985
vn 0 -0.999414 -0.034226
vn 0 -0.999414 0.034228
vn 0 -0.005488 0.999985
vn -0.001562 0.004642 0.999988
vn -0 -0.005472 0.999985
vn -0.001733 0.00273 0.999995
vn -0.830006 -0.428425 0.357131
vn -0.427436 -0.83556 0.345163
vn -0.443842 -0.452595 0.773409
vn 0 -0.499983 0.866036
vn 0 -0.499982 0.866036
vn 0 -0.866037 0.49998
vn 0 -0.866037 0.499981
vn -0.499949 0 0.866055
vn -0.866053 -5e-06 0.499952
vn -0.866051 -3e-06 0.499955
vn 0.3926 0.640973 0.65956
vn 0.651563 0.394621 0.647873
vn 0.393256 0.246284 0.88583
vn 0.183472 0.182552 0.965926
vn 0.25158 0.393472 0.884244
vn -0.866087 -6e-06 -0.499894
vn -0.499893 0 -0.866087
vn -0.499896 -0 -0.866085
vn -0.866085 -6e-06 -0.499897
vn 0.649342 0.394047 -0.650447
vn 0.393211 0.643267 -0.656957
vn 0.252423 0.397654 -0.882131
vn 0.183115 0.183072 -0.965895
vn 0.388936 0.245436 -0.88797
vn -0.427437 -0.83556 -0.345163
vn -0.830006 -0.428426 -0.35713
vn -0.443843 -0.452595 -0.773409
vn 0 -0.866031 -0.49999
vn 0 -0.499992 -0.86603
vn 0.443842 -0.452593 0.773411
vn 0.427436 -0.835562 0.34516
vn 0.830009 -0.428423 0.357125
vn 0.499889 -1e-06 0.866089
vn 0.49989 2e-06 0.866089
vn 0.866085 -1e-06 0.499896
vn 0.866088 -3e-06 0.499891
vn 0.499947 -2e-06 -0.866056
vn 0.499945 1e-06 -0.866057
vn 0.866053 -3e-06 -0.499953
vn 0.866052 -7e-06 -0.499954
vn 0.427437 -0.835561 -0.345161
vn 0.443843 -0.452591 -0.773411
vn 0.830009 -0.428423 -0.357125
vn -0.499892 -0 0.866088
vn -0.499897 0 0.866085
vn -0.866085 6e-06 0.499897
vn -0.866086 5e-06 0.499894
vn 0.499946 1e-06 0.866057
vn 0.499947 -2e-06 0.866056
vn 0.866054 2e-06 0.499951
vn 0.866051 5e-06 0.499955
vn -0.83001 0.428413 0.357136
vn -0.443846 0.452583 0.773415
vn -0.427446 0.83555 0.345177
vn 8e-06 0.499925 0.866069
vn -0 0.499928 0.866067
vn -0 0.866056 0.499948
vn 5e-06 0.866054 0.49995
vn 0.499887 -1e-06 -0.866091
vn 0.49989 -1e-06 -0.866089
vn 0.866085 5e-06 -0.499896
vn 0.866088 0 -0.499892
vn 0.427446 0.835549 0.345178
vn 0.443845 0.452579 0.773417
vn 0.830012 0.428411 0.357133
vn 0.443847 0.452581 -0.773415
vn 0.427447 0.835549 -0.345177
vn 0.830012 0.42841 -0.357134
vn -0.499949 -1e-06 -0.866055
vn -0.499946 1e-06 -0.866057
vn -0.866053 6e-06 -0.499953
vn -0.866052 2e-06 -0.499953
vn -0.443845 0.452582 -0.773415
vn -0.83001 0.428413 -0.357135
vn -0.427445 0.83555 -0.345177
vn -5e-06 0.499857 -0.866108
vn 4e-06 0.499853 -0.86611
vn 2e-06 0.8661 -0.49987
vn -1.3e-05 0.866105 -0.499862
vn 0.392454 -0.640834 -0.659782
vn 0.651752 -0.394585 -0.647705
vn 0.393303 -0.246205 -0.885831
vn 0.183499 -0.182523 -0.965926
vn 0.251492 -0.393305 -0.884344
vn -0.39245 -0.640861 0.659758
vn -0.651725 -0.394582 0.647734
vn -0.393284 -0.246199 0.885841
vn -0.183488 -0.182522 0.965929
vn -0.251482 -0.39331 0.884344
vn 1.3e-05 0.866104 0.499864
vn 5e-06 0.499858 0.866108
vn -4e-06 0.499854 0.86611
vn -2e-06 0.8661 0.49987
vn 0 0.499926 -0.866068
vn 1e-06 0.866055 -0.499948
vn -5e-06 0.866053 -0.499952
vn -8e-06 0.499922 -0.86607
vn -0.649861 -0.39387 -0.650036
vn -0.393149 -0.642782 -0.657469
vn -0.252403 -0.397353 -0.882271
vn -0.183117 -0.182875 -0.965932
vn -0.389084 -0.245202 -0.887969
vn -0.392589 0.641002 -0.659537
vn -0.651541 0.394617 -0.647899
vn -0.393243 0.246282 -0.885836
vn -0.183461 0.182553 -0.965928
vn -0.251569 0.393484 -0.884242
vn 0 -0.866036 -0.499982
vn 0 -0.499982 -0.866036
vn -0 -0.499983 -0.866035
vn -0 -0.866036 -0.499981
vn -0 -0.499993 0.86603
vn -0 -0.866031 0.49999
vn -0.649338 0.394041 0.650455
vn -0.393209 0.643281 0.656945
vn -0.252418 0.397659 0.88213
vn -0.183114 0.183076 0.965895
vn -0.38893 0.245435 0.887972
vn 0.649866 -0.393874 0.650029
vn 0.393152 -0.642768 0.657481
vn 0.252407 -0.39735 0.882272
vn 0.183121 -0.182874 0.965932
vn 0.389092 -0.245205 0.887965
vt 0.042126 0.96205
vt 0.042224 0.966356
vt 0.013152 0.962148
vt 0.013097 0.966498
vt 0.042416 0.970809
vt 0.012964 0.970965
vt 0.050234 0.017154
vt 0.054691 0.017208
vt 0.050295 0.046493
vt 0.054774 0.046412
vt 0.055201 0.962082
vt 0.050784 0.962066
vt 0.055271 0.924969
vt 0.050854 0.924963
vt 0.046353 0.961906
vt 0.046438 0.924962
vt 0.042024 0.924968
vt 0.054677 0.012783
vt 0.258844 0.016641
vt 0.258849 0.01221
vt 0.054657 0.008352
vt 0.258836 0.007781
vt 0.055185 0.966505
vt 0.259047 0.966944
vt 0.259037 0.962521
vt 0.055278 0.920946
vt 0.257984 0.921574
vt 0.258685 0.92578
vt 0.055284 0.916924
vt 0.257282 0.917368
vt 0.05529 0.912901
vt 0.256579 0.913161
vt 0.04202 0.912893
vt 0.04202 0.916919
vt 0.012862 0.912877
vt 0.012865 0.916926
vt 0.042022 0.920944
vt 0.012871 0.920975
vt 0.012881 0.925021
vt 0.050867 0.912899
vt 0.055683 0.586315
vt 0.051259 0.586311
vt 0.046444 0.912896
vt 0.046836 0.586305
vt 0.042412 0.586298
vt 0.270891 0.016546
vt 0.270871 0.012108
vt 0.804187 0.013054
vt 0.80416 0.008615
vt 0.270842 0.00767
vt 0.804131 0.004177
vt 0.271064 0.967021
vt 0.271084 0.962595
vt 0.802927 0.970426
vt 0.802953 0.965999
vt 0.262859 0.016611
vt 0.258963 0.045857
vt 0.262998 0.045835
vt 0.266874 0.01658
vt 0.267033 0.045813
vt 0.271069 0.045791
vt 0.267068 0.962567
vt 0.271097 0.927613
vt 0.266957 0.926998
vt 0.263053 0.962542
vt 0.262821 0.926387
vt 0.943399 0.548912
vt 0.943399 0.55323
vt 0.913865 0.548912
vt 0.913865 0.55323
vt 0.943399 0.556927
vt 0.913865 0.556927
vt 0.943399 0.560969
vt 0.913865 0.560969
vt 0.271873 0.923307
vt 0.80312 0.931368
vt 0.80246 0.926884
vt 0.272781 0.919034
vt 0.801703 0.922508
vt 0.947967 0.548912
vt 0.947967 0.009088
vt 0.943399 0.009088
vt 0.947967 0.560969
vt 0.943399 0.877741
vt 0.947967 0.877741
vt 0.265423 0.911701
vt 0.261056 0.912481
vt 0.266016 0.587992
vt 0.261745 0.587103
vt 0.257439 0.586339
vt 0.271149 0.059104
vt 0.27112 0.054666
vt 0.804465 0.055632
vt 0.804428 0.051193
vt 0.271093 0.050228
vt 0.804399 0.046753
vt 0.804379 0.042313
vt 0.26306 0.059143
vt 0.262927 0.095275
vt 0.259016 0.059163
vt 0.258688 0.096
vt 0.267105 0.059124
vt 0.267167 0.094546
vt 0.271414 0.093813
vt 0.259 0.050292
vt 0.054789 0.050836
vt 0.259018 0.054727
vt 0.054801 0.055261
vt 0.054812 0.059685
vt 0.256944 0.108389
vt 0.261261 0.109141
vt 0.257205 0.435782
vt 0.261687 0.435085
vt 0.265543 0.110017
vt 0.266059 0.434289
vt 0.909553 0.560969
vt 0.909553 0.877741
vt 0.913865 0.877741
vt 0.258108 0.10013
vt 0.054897 0.09692
vt 0.054907 0.100954
vt 0.257526 0.104259
vt 0.054918 0.104988
vt 0.054928 0.109021
vt 0.909553 0.548912
vt 0.913865 0.009088
vt 0.909553 0.009088
vt 0.272947 0.102678
vt 0.272132 0.0983
vt 0.803304 0.099345
vt 0.80416 0.09505
vt 0.804884 0.090724
vt 0.008797 0.962248
vt 0.008442 0.925047
vt 0.004352 0.962413
vt 0.003997 0.925083
vt 0.050351 0.059634
vt 0.05046 0.096936
vt 0.008437 0.91287
vt 0.01326 0.586254
vt 0.008835 0.586248
vt 0.004012 0.912865
vt 0.004411 0.586243
vt 0.050497 0.109032
vt 0.051131 0.436144
vt 0.055561 0.436136
vt 0.042445 0.539271
vt 0.046786 0.539196
vt 0.042423 0.574231
vt 0.046842 0.574236
vt 0.051222 0.539051
vt 0.051263 0.574235
vt 0.05568 0.539105
vt 0.055685 0.574233
vt 0.05567 0.525845
vt 0.051194 0.52592
vt 0.055646 0.496663
vt 0.051169 0.496596
vt 0.042701 0.530487
vt 0.042533 0.534936
vt 0.013361 0.5304
vt 0.0135 0.534849
vt 0.01356 0.539184
vt 0.055679 0.534686
vt 0.259773 0.539184
vt 0.259802 0.534743
vt 0.055675 0.530265
vt 0.259809 0.530302
vt 0.259795 0.525861
vt 0.263817 0.539195
vt 0.263455 0.573293
vt 0.259237 0.573973
vt 0.267861 0.539207
vt 0.267674 0.572613
vt 0.271905 0.539218
vt 0.2719 0.57193
vt 0.271927 0.525882
vt 0.267883 0.525875
vt 0.271972 0.496583
vt 0.267924 0.496582
vt 0.263839 0.525868
vt 0.263876 0.496581
vt 0.259829 0.496581
vt 0.27191 0.534773
vt 0.806448 0.540291
vt 0.806448 0.535841
vt 0.271917 0.530328
vt 0.806458 0.531392
vt 0.806477 0.526941
vt 0.271992 0.483245
vt 0.26794 0.483247
vt 0.271839 0.450159
vt 0.267674 0.449579
vt 0.263887 0.483249
vt 0.263517 0.449002
vt 0.259835 0.483252
vt 0.259361 0.448427
vt 0.271989 0.492137
vt 0.806536 0.497609
vt 0.806546 0.493158
vt 0.271995 0.487691
vt 0.806554 0.488707
vt 0.806558 0.484257
vt 0.259854 0.487695
vt 0.055634 0.483398
vt 0.05564 0.487819
vt 0.259852 0.492138
vt 0.055644 0.492242
vt 0.051174 0.48347
vt 0.055578 0.448232
vt 0.051143 0.448233
vt 0.004793 0.538909
vt 0.009223 0.539082
vt 0.004449 0.574082
vt 0.008881 0.574121
vt 0.013308 0.574151
vt 0.811022 0.966083
vt 0.811588 0.929972
vt 0.815061 0.966125
vt 0.815822 0.929281
vt 0.806986 0.966041
vt 0.807355 0.930668
vt 0.816318 0.012947
vt 0.816266 0.008502
vt 0.844574 0.012725
vt 0.844551 0.008318
vt 0.816235 0.004054
vt 0.84457 0.003868
vt 0.814998 0.970569
vt 0.843306 0.970831
vt 0.843312 0.966389
vt 0.80823 0.013018
vt 0.808429 0.04228
vt 0.812274 0.012982
vt 0.812479 0.042248
vt 0.816529 0.042217
vt 0.810506 0.540306
vt 0.806574 0.573396
vt 0.810717 0.574015
vt 0.814564 0.54032
vt 0.814857 0.574631
vt 0.818622 0.540333
vt 0.818998 0.575247
vt 0.818657 0.526986
vt 0.814597 0.526971
vt 0.818735 0.497632
vt 0.814668 0.497625
vt 0.810537 0.526956
vt 0.810602 0.497617
vt 0.818612 0.535884
vt 0.846968 0.535979
vt 0.846966 0.540401
vt 0.818624 0.531436
vt 0.846988 0.531549
vt 0.847025 0.527126
vt 0.887751 0.054899
vt 0.892159 0.054761
vt 0.888331 0.092473
vt 0.892828 0.092432
vt 0.896656 0.054557
vt 0.897328 0.092355
vt 0.843684 0.929054
vt 0.847754 0.966462
vt 0.848131 0.929074
vt 0.849038 0.012626
vt 0.844822 0.042009
vt 0.849307 0.042036
vt 0.887878 0.04597
vt 0.887776 0.050494
vt 0.85806 0.046329
vt 0.858272 0.05085
vt 0.858405 0.055253
vt 0.843815 0.916882
vt 0.843772 0.920941
vt 0.817718 0.916842
vt 0.81708 0.920994
vt 0.843728 0.924999
vt 0.816449 0.925139
vt 0.888467 0.104788
vt 0.892958 0.104774
vt 0.890292 0.436281
vt 0.894783 0.436261
vt 0.897448 0.104749
vt 0.899274 0.436236
vt 0.848268 0.91691
vt 0.851276 0.588153
vt 0.846822 0.588116
vt 0.88838 0.096575
vt 0.858776 0.09274
vt 0.858812 0.096816
vt 0.888425 0.100681
vt 0.858848 0.100893
vt 0.858884 0.104972
vt 0.814695 0.484266
vt 0.815001 0.450038
vt 0.818763 0.484272
vt 0.819233 0.449302
vt 0.810626 0.484262
vt 0.810775 0.450774
vt 0.806547 0.45151
vt 0.818725 0.493179
vt 0.847156 0.497675
vt 0.847166 0.493237
vt 0.818734 0.488726
vt 0.847191 0.488787
vt 0.847228 0.484339
vt 0.851458 0.540344
vt 0.846913 0.575871
vt 0.85139 0.57591
vt 0.899078 0.48449
vt 0.894563 0.484326
vt 0.899339 0.448637
vt 0.894822 0.448611
vt 0.890143 0.484232
vt 0.890312 0.44862
vt 0.890214 0.488649
vt 0.860714 0.484197
vt 0.86063 0.488613
vt 0.890366 0.493183
vt 0.860467 0.493148
vt 0.851534 0.527218
vt 0.85167 0.497626
vt 0.856288 0.484271
vt 0.860715 0.448674
vt 0.856227 0.448667
vt 0.851763 0.484411
vt 0.851739 0.448688
vt 0.847255 0.448733
vt 0.808519 0.055601
vt 0.809029 0.091318
vt 0.812573 0.05557
vt 0.813175 0.091909
vt 0.816627 0.055538
vt 0.817326 0.092496
vt 0.816575 0.051096
vt 0.84491 0.05084
vt 0.844979 0.05526
vt 0.816542 0.046656
vt 0.844857 0.046419
vt 0.849488 0.055147
vt 0.845332 0.092821
vt 0.849813 0.09282
vt 0.853992 0.055231
vt 0.854295 0.092794
vt 0.845363 0.096897
vt 0.818051 0.096742
vt 0.845393 0.100974
vt 0.818775 0.100994
vt 0.845423 0.105052
vt 0.819503 0.105256
vt 0.84991 0.105022
vt 0.847237 0.436484
vt 0.851725 0.43645
vt 0.854397 0.104996
vt 0.856212 0.436428
vt 0.8607 0.43642
vt 0.913865 0.004495
vt 0.943399 0.004495
vt 0.961937 0.882507
vt 0.961937 0.878975
vt 0.991645 0.882507
vt 0.991645 0.878975
vt 0.961937 0.874613
vt 0.991645 0.874613
vt 0.957435 0.874613
vt 0.961937 0.548253
vt 0.957435 0.548253
vt 0.810541 0.1068
vt 0.814966 0.105979
vt 0.812235 0.435213
vt 0.816575 0.436083
vt 0.820947 0.436816
vt 0.991645 0.536034
vt 0.991645 0.540221
vt 0.961937 0.536034
vt 0.961937 0.540221
vt 0.991645 0.543979
vt 0.961937 0.543979
vt 0.991645 0.548253
vt 0.805812 0.577726
vt 0.272582 0.576432
vt 0.804919 0.582024
vt 0.273361 0.580826
vt 0.996032 0.536034
vt 0.996032 0.009833
vt 0.991645 0.009833
vt 0.82039 0.583713
vt 0.846858 0.584035
vt 0.821087 0.587952
vt 0.819695 0.57948
vt 0.846889 0.579953
vt 0.996032 0.548253
vt 0.996032 0.874613
vt 0.812176 0.589356
vt 0.816576 0.588605
vt 0.809097 0.915124
vt 0.81339 0.916051
vt 0.890303 0.440395
vt 0.860706 0.440505
vt 0.89031 0.444509
vt 0.860711 0.44459
vt 0.847244 0.440569
vt 0.820375 0.440985
vt 0.84725 0.444652
vt 0.819805 0.445145
vt 0.957435 0.536034
vt 0.961937 0.009833
vt 0.957435 0.009833
vt 0.805082 0.442614
vt 0.805863 0.447008
vt 0.273491 0.441531
vt 0.272598 0.445829
vt 0.961937 0.005385
vt 0.991645 0.005385
vt 0.913865 0.885775
vt 0.913865 0.882004
vt 0.943399 0.885775
vt 0.943399 0.882004
vt 0.257924 0.439997
vt 0.055567 0.440168
vt 0.258643 0.444212
vt 0.055573 0.4442
vt 0.013273 0.582219
vt 0.042416 0.582275
vt 0.013289 0.578184
vt 0.04242 0.578252
vt 0.055684 0.582288
vt 0.258039 0.582217
vt 0.055684 0.57826
vt 0.258638 0.578096
vt 0.05082 0.013102
vt 0.046811 0.97015
vt 0.045886 0.965679
vt 0.050352 0.966424
vt 0.0513 0.965956
vt 0.050664 0.008535
vt 0.050863 0.916922
vt 0.050858 0.920943
vt 0.046439 0.920942
vt 0.046441 0.91692
vt 0.26705 0.966979
vt 0.266818 0.007735
vt 0.266857 0.012153
vt 0.262852 0.012188
vt 0.262827 0.007778
vt 0.26305 0.966953
vt 0.947967 0.556927
vt 0.947967 0.55323
vt 0.268412 0.918458
vt 0.267138 0.922045
vt 0.262805 0.921562
vt 0.262348 0.917239
vt 0.265987 0.916035
vt 0.267062 0.05025
vt 0.267086 0.054687
vt 0.263052 0.054707
vt 0.263031 0.050271
vt 0.909553 0.55323
vt 0.909553 0.556927
vt 0.266085 0.105697
vt 0.262495 0.104428
vt 0.262964 0.100095
vt 0.267317 0.099625
vt 0.268539 0.10328
vt 0.009381 0.965951
vt 0.008564 0.970438
vt 0.050847 0.050645
vt 0.050875 0.055513
vt 0.004905 0.966802
vt 0.008427 0.916925
vt 0.008428 0.920986
vt 0.003968 0.920999
vt 0.050476 0.100971
vt 0.050488 0.105002
vt 0.003976 0.916917
vt 0.051755 0.534931
vt 0.050694 0.534682
vt 0.04623 0.535503
vt 0.047075 0.531041
vt 0.051737 0.530068
vt 0.267874 0.534763
vt 0.263838 0.534753
vt 0.263845 0.530311
vt 0.267881 0.530319
vt 0.263901 0.487693
vt 0.267948 0.487692
vt 0.267943 0.492137
vt 0.263897 0.492137
vt 0.009804 0.535393
vt 0.005349 0.534544
vt 0.051717 0.487585
vt 0.051706 0.492447
vt 0.008989 0.530928
vt 0.806938 0.970467
vt 0.810961 0.970518
vt 0.812187 0.004096
vt 0.812226 0.00854
vt 0.808191 0.008579
vt 0.808153 0.004141
vt 0.814557 0.53587
vt 0.810503 0.535856
vt 0.810514 0.531406
vt 0.814569 0.53142
vt 0.84841 0.008604
vt 0.848557 0.004044
vt 0.847188 0.970336
vt 0.896063 0.050122
vt 0.891539 0.051018
vt 0.892333 0.04647
vt 0.848181 0.925026
vt 0.848229 0.920969
vt 0.897449 0.100627
vt 0.892929 0.10066
vt 0.892886 0.096543
vt 0.897409 0.096484
vt 0.810614 0.488713
vt 0.814674 0.48872
vt 0.814665 0.493172
vt 0.810606 0.493165
vt 0.893981 0.488086
vt 0.898524 0.488941
vt 0.850904 0.536226
vt 0.850942 0.531372
vt 0.894822 0.492636
vt 0.851161 0.488574
vt 0.852304 0.488877
vt 0.85686 0.488038
vt 0.856004 0.492591
vt 0.851133 0.493459
vt 0.812525 0.051129
vt 0.808476 0.051161
vt 0.808446 0.04672
vt 0.812494 0.046688
vt 0.848855 0.051021
vt 0.848794 0.046174
vt 0.853611 0.046938
vt 0.854518 0.05147
vt 0.849968 0.05069
vt 0.849878 0.100954
vt 0.849846 0.096887
vt 0.854329 0.09686
vt 0.854363 0.100927
vt 0.957435 0.878975
vt 0.957435 0.882507
vt 0.909553 0.004495
vt 0.807601 0.099871
vt 0.808875 0.096287
vt 0.813208 0.096769
vt 0.813661 0.101132
vt 0.809981 0.102334
vt 0.996032 0.543979
vt 0.996032 0.540221
vt 0.809266 0.582565
vt 0.81054 0.578982
vt 0.814868 0.579476
vt 0.815309 0.58381
vt 0.81166 0.584991
vt 0.894812 0.440372
vt 0.899336 0.440345
vt 0.851335 0.584086
vt 0.851375 0.579999
vt 0.899362 0.444491
vt 0.894826 0.444492
vt 0.851733 0.440529
vt 0.856219 0.440504
vt 0.856223 0.444583
vt 0.851734 0.444607
vt 0.957435 0.540221
vt 0.957435 0.543979
vt 0.811767 0.439633
vt 0.815382 0.440862
vt 0.814951 0.445205
vt 0.810625 0.445696
vt 0.809397 0.442071
vt 0.909553 0.882004
vt 0.909553 0.885775
vt 0.957435 0.005385
vt 0.269074 0.440998
vt 0.267825 0.444608
vt 0.263476 0.444164
vt 0.262996 0.439839
vt 0.266628 0.438609
vt 0.008843 0.582207
vt 0.004404 0.582198
vt 0.051138 0.440173
vt 0.051143 0.444202
vt 0.004414 0.578139
vt 0.008857 0.578164
vt 0.051261 0.582286
vt 0.046838 0.582282
vt 0.046841 0.578259
vt 0.051262 0.578261
vt 0.996032 0.005385
vt 0.947967 0.885775
vt 0.947967 0.882004
vt 0.266536 0.583687
vt 0.262979 0.582411
vt 0.263464 0.578101
vt 0.267785 0.57768
vt 0.268962 0.581324
vt 0.947967 0.004495
vt 0.996032 0.882507
vt 0.996032 0.878975
vt 0.808498 0.919502
vt 0.812099 0.920798
vt 0.811596 0.925141
vt 0.807249 0.92559
vt 0.806047 0.921936
usemtl FrameDoorSG
f 1/1/1 2/2/2 3/3/3
f 3/3/3 2/2/2 4/4/4
f 2/2/2 5/5/5 4/4/4
f 4/4/4 5/5/5 6/6/6
f 5/7/5 7/8/7 6/9/6
f 6/9/6 7/8/7 8/10/8
f 9/11/9 10/12/10 11/13/11
f 11/13/11 10/12/10 12/14/12
f 10/12/10 13/15/13 12/14/12
f 12/14/12 13/15/13 14/16/14
f 13/15/13 1/1/1 14/16/14
f 14/16/14 1/1/1 15/17/15
f 7/8/7 16/18/16 17/19/17
f 17/19/17 16/18/16 18/20/18
f 16/18/16 19/21/19 18/20/18
f 18/20/18 19/21/19 20/22/20
f 19/23/19 9/11/9 20/24/20
f 20/24/20 9/11/9 21/25/21
f 22/26/22 23/27/23 11/13/11
f 11/13/11 23/27/23 24/28/24
f 25/29/25 26/30/26 22/26/22
f 22/26/22 26/30/26 23/27/23
f 27/31/27 28/32/28 25/29/25
f 25/29/25 28/32/28 26/30/26
f 29/33/29 30/34/30 31/35/31
f 31/35/31 30/34/30 32/36/32
f 30/34/30 33/37/30 32/36/32
f 32/36/32 33/37/30 34/38/32
f 33/37/30 15/17/15 34/38/32
f 34/38/32 15/17/15 35/39/33
f 27/31/27 36/40/34 37/41/35
f 37/41/35 36/40/34 38/42/36
f 36/40/34 39/43/37 38/42/36
f 38/42/36 39/43/37 40/44/38
f 39/43/37 29/33/29 40/44/38
f 40/44/38 29/33/29 41/45/39
f 42/46/40 43/47/41 44/48/42
f 44/48/42 43/47/41 45/49/43
f 43/47/41 46/50/44 45/49/43
f 45/49/43 46/50/44 47/51/45
f 46/52/44 48/53/46 47/54/45
f 47/54/45 48/53/46 49/55/47
f 17/19/17 50/56/48 51/57/49
f 51/57/49 50/56/48 52/58/50
f 50/56/48 53/59/51 52/58/50
f 52/58/50 53/59/51 54/60/52
f 53/59/51 42/46/40 54/60/52
f 54/60/52 42/46/40 55/61/53
f 48/53/46 56/62/54 57/63/55
f 57/63/55 56/62/54 58/64/56
f 56/62/54 59/65/57 58/64/56
f 58/64/56 59/65/57 60/66/58
f 59/65/57 21/25/21 60/66/58
f 60/66/58 21/25/21 24/28/24
f 61/67/59 62/68/60 63/69/61
f 63/69/61 62/68/60 64/70/62
f 62/68/60 65/71/63 64/70/62
f 64/70/62 65/71/63 66/72/64
f 65/71/63 67/73/65 66/72/64
f 66/72/64 67/73/65 68/74/66
f 57/63/55 69/75/67 70/76/68
f 70/76/68 69/75/67 71/77/69
f 69/75/67 72/78/70 71/77/69
f 71/77/69 72/78/70 73/79/71
f 72/80/70 61/67/59 73/81/71
f 73/81/71 61/67/59 74/82/72
f 67/73/65 75/83/73 76/84/74
f 76/84/74 75/83/73 77/85/75
f 75/86/73 78/87/76 77/88/75
f 77/88/75 78/87/76 79/89/77
f 78/87/76 28/32/28 79/89/77
f 79/89/77 28/32/28 80/90/78
f 81/91/79 82/92/80 83/93/81
f 83/93/81 82/92/80 84/94/82
f 82/92/80 85/95/83 84/94/82
f 84/94/82 85/95/83 86/96/84
f 85/95/83 55/61/53 86/96/84
f 86/96/84 55/61/53 87/97/85
f 88/98/86 89/99/87 90/100/88
f 90/100/88 89/99/87 91/101/89
f 92/102/90 93/103/91 88/98/86
f 88/98/86 93/103/91 89/99/87
f 81/91/79 94/104/92 92/102/90
f 92/102/90 94/104/92 93/103/91
f 51/57/49 95/105/93 8/10/8
f 8/10/8 95/105/93 96/106/94
f 95/105/93 97/107/95 96/106/94
f 96/106/94 97/107/95 98/108/96
f 97/107/95 90/100/88 98/108/96
f 98/108/96 90/100/88 99/109/97
f 100/110/98 101/111/99 102/112/100
f 102/112/100 101/111/99 103/113/101
f 101/111/99 104/114/102 103/113/101
f 103/113/101 104/114/102 105/115/103
f 104/116/102 68/74/66 105/117/103
f 105/117/103 68/74/66 106/118/104
f 91/101/89 107/119/105 108/120/106
f 108/120/106 107/119/105 109/121/107
f 107/119/105 110/122/108 109/121/107
f 109/121/107 110/122/108 111/123/109
f 110/122/108 100/110/98 111/123/109
f 111/123/109 100/110/98 112/124/110
f 63/69/61 113/125/111 114/126/112
f 114/126/112 113/125/111 115/127/113
f 113/128/111 116/129/114 115/130/113
f 115/130/113 116/129/114 117/131/115
f 116/129/114 94/104/92 117/131/115
f 117/131/115 94/104/92 118/132/116
f 3/3/3 119/133/117 35/39/33
f 35/39/33 119/133/117 120/134/118
f 119/133/117 121/135/119 120/134/118
f 120/134/118 121/135/119 122/136/120
f 121/137/119 99/109/97 122/138/120
f 122/138/120 99/109/97 108/120/106
f 31/35/31 123/139/121 124/140/31
f 124/140/31 123/139/121 125/141/122
f 123/139/121 126/142/123 125/141/122
f 125/141/122 126/142/123 127/143/124
f 126/144/123 112/124/110 127/145/124
f 127/145/124 112/124/110 128/146/125
f 129/147/126 130/148/127 131/149/128
f 131/149/128 130/148/127 132/150/129
f 130/148/127 133/151/130 132/150/129
f 132/150/129 133/151/130 134/152/131
f 133/151/130 135/153/132 134/152/131
f 134/152/131 135/153/132 136/154/133
f 137/155/134 138/156/135 139/157/136
f 139/157/136 138/156/135 140/158/137
f 138/159/135 141/160/138 140/161/137
f 140/161/137 141/160/138 142/162/139
f 141/160/138 129/147/126 142/162/139
f 142/162/139 129/147/126 143/163/140
f 135/153/132 144/164/141 145/165/142
f 145/165/142 144/164/141 146/166/143
f 144/164/141 147/167/144 146/166/143
f 146/166/143 147/167/144 148/168/145
f 147/167/144 137/155/134 148/168/145
f 148/168/145 137/155/134 149/169/146
f 150/170/147 151/171/148 145/165/142
f 145/165/142 151/171/148 152/172/149
f 153/173/150 154/174/151 150/170/147
f 150/170/147 154/174/151 151/171/148
f 155/175/152 156/176/153 153/173/150
f 153/173/150 156/176/153 154/174/151
f 157/177/154 158/178/155 159/179/156
f 159/179/156 158/178/155 160/180/157
f 158/178/155 161/181/158 160/180/157
f 160/180/157 161/181/158 162/182/159
f 161/181/158 149/169/146 162/182/159
f 162/182/159 149/169/146 163/183/160
f 155/175/152 164/184/161 165/185/162
f 165/185/162 164/184/161 166/186/163
f 164/184/161 167/187/164 166/186/163
f 166/186/163 167/187/164 168/188/165
f 167/187/164 157/177/154 168/188/165
f 168/188/165 157/177/154 169/189/166
f 170/190/167 171/191/168 172/192/169
f 172/192/169 171/191/168 173/193/170
f 171/191/168 174/194/171 173/193/170
f 173/193/170 174/194/171 175/195/172
f 174/194/171 176/196/173 175/195/172
f 175/195/172 176/196/173 177/197/174
f 159/179/156 178/198/175 179/199/176
f 179/199/176 178/198/175 180/200/177
f 178/198/175 181/201/178 180/200/177
f 180/200/177 181/201/178 182/202/179
f 181/201/178 170/190/167 182/202/179
f 182/202/179 170/190/167 183/203/180
f 176/196/173 184/204/181 185/205/182
f 185/205/182 184/204/181 186/206/183
f 184/204/181 187/207/184 186/206/183
f 186/206/183 187/207/184 188/208/185
f 187/207/184 163/183/160 188/208/185
f 188/208/185 163/183/160 139/157/136
f 185/205/182 189/209/186 190/210/187
f 190/210/187 189/209/186 191/211/188
f 189/212/186 192/213/189 191/214/188
f 191/214/188 192/213/189 193/215/190
f 192/213/189 143/163/140 193/215/190
f 193/215/190 143/163/140 194/216/33
f 195/217/191 196/218/192 197/219/193
f 197/219/193 196/218/192 198/220/194
f 199/221/195 200/222/196 195/217/191
f 195/217/191 200/222/196 196/218/192
f 49/55/47 70/76/68 199/221/195
f 199/221/195 70/76/68 200/222/196
f 201/223/197 202/224/198 203/225/199
f 203/225/199 202/224/198 204/226/200
f 202/224/198 205/227/201 204/226/200
f 204/226/200 205/227/201 206/228/202
f 205/229/201 197/219/193 206/230/202
f 206/230/202 197/219/193 207/231/203
f 44/48/42 208/232/204 87/97/85
f 87/97/85 208/232/204 209/233/205
f 208/232/204 210/234/206 209/233/205
f 209/233/205 210/234/206 211/235/207
f 210/234/206 201/223/197 211/235/207
f 211/235/207 201/223/197 212/236/208
f 165/185/162 213/237/209 214/238/210
f 214/238/210 213/237/209 215/239/211
f 213/237/209 216/240/212 215/239/211
f 215/239/211 216/240/212 217/241/213
f 216/240/212 218/242/214 217/241/213
f 217/241/213 218/242/214 219/243/215
f 220/244/216 221/245/217 222/246/218
f 222/246/218 221/245/217 223/247/219
f 221/245/217 224/248/220 223/247/219
f 223/247/219 224/248/220 225/249/221
f 224/248/220 169/189/166 225/249/221
f 225/249/221 169/189/166 179/199/176
f 226/250/222 227/251/223 218/242/214
f 218/242/214 227/251/223 228/252/224
f 226/250/222 229/253/225 227/251/223
f 227/251/223 229/253/225 230/254/226
f 229/253/225 220/244/216 230/254/226
f 230/254/226 220/244/216 231/255/227
f 232/256/228 233/257/229 234/258/230
f 234/258/230 233/257/229 235/259/231
f 233/257/229 236/260/232 235/259/231
f 235/259/231 236/260/232 237/261/233
f 207/231/203 238/262/234 236/263/232
f 236/263/232 238/262/234 237/264/233
f 203/225/199 239/265/235 240/266/236
f 240/266/236 239/265/235 241/267/237
f 239/268/235 242/269/238 241/270/237
f 241/270/237 242/269/238 243/271/239
f 242/269/238 232/256/228 243/271/239
f 243/271/239 232/256/228 244/272/240
f 245/273/241 246/274/242 247/275/243
f 247/275/243 246/274/242 248/276/244
f 246/274/242 249/277/245 248/276/244
f 248/276/244 249/277/245 250/278/246
f 249/277/245 238/262/234 250/278/246
f 250/278/246 238/262/234 198/220/194
f 251/279/247 252/280/248 253/281/249
f 253/281/249 252/280/248 254/282/250
f 252/280/248 255/283/251 254/282/250
f 254/282/250 255/283/251 256/284/252
f 255/285/251 245/273/241 256/286/252
f 256/286/252 245/273/241 257/287/253
f 234/258/230 258/288/254 259/289/255
f 259/289/255 258/288/254 260/290/256
f 258/288/254 261/291/257 260/290/256
f 260/290/256 261/291/257 262/292/258
f 261/291/257 251/279/247 262/292/258
f 262/292/258 251/279/247 263/293/259
f 264/294/260 265/295/261 266/296/262
f 266/296/262 265/295/261 267/297/263
f 268/298/264 269/299/265 264/294/260
f 264/294/260 269/299/265 265/295/261
f 183/203/180 270/300/266 268/298/264
f 268/298/264 270/300/266 269/299/265
f 222/246/218 271/301/267 272/302/268
f 272/302/268 271/301/267 273/303/269
f 271/301/267 274/304/270 273/303/269
f 273/303/269 274/304/270 275/305/271
f 274/304/270 266/296/262 275/305/271
f 275/305/271 266/296/262 276/306/272
f 228/252/224 277/307/273 278/308/274
f 278/308/274 277/307/273 279/309/275
f 277/310/273 280/311/276 279/312/275
f 279/312/275 280/311/276 281/313/277
f 280/311/276 282/314/278 281/313/277
f 281/313/277 282/314/278 283/315/279
f 282/314/278 284/316/280 285/317/281
f 285/317/281 284/316/280 286/318/282
f 284/316/280 287/319/283 286/318/282
f 286/318/282 287/319/283 288/320/284
f 287/321/283 231/255/227 288/322/284
f 288/322/284 231/255/227 272/302/268
f 285/317/281 289/323/285 290/324/286
f 290/324/286 289/323/285 291/325/287
f 289/323/285 292/326/288 291/325/287
f 291/325/287 292/326/288 293/327/289
f 276/306/272 294/328/290 292/326/288
f 292/326/288 294/328/290 293/327/289
f 83/93/81 295/329/291 118/132/116
f 118/132/116 295/329/291 296/330/292
f 295/329/291 297/331/293 296/330/292
f 296/330/292 297/331/293 298/332/294
f 297/331/293 299/333/295 298/332/294
f 298/332/294 299/333/295 300/334/296
f 301/335/297 302/336/298 299/333/295
f 299/333/295 302/336/298 303/337/299
f 301/335/297 304/338/300 302/336/298
f 302/336/298 304/338/300 305/339/301
f 304/338/300 212/236/208 305/339/301
f 305/339/301 212/236/208 240/266/236
f 303/337/299 306/340/302 307/341/303
f 307/341/303 306/340/302 308/342/304
f 306/340/302 309/343/305 308/342/304
f 308/342/304 309/343/305 310/344/306
f 309/343/305 244/272/240 310/344/306
f 310/344/306 244/272/240 259/289/255
f 311/345/307 312/346/308 307/341/303
f 307/341/303 312/346/308 300/334/296
f 313/347/309 314/348/310 311/345/307
f 311/345/307 314/348/310 312/346/308
f 315/349/311 316/350/312 313/347/309
f 313/347/309 316/350/312 314/348/310
f 315/349/311 317/351/313 318/352/314
f 318/352/314 317/351/313 319/353/315
f 317/351/313 320/354/316 319/353/315
f 319/353/315 320/354/316 321/355/317
f 320/354/316 263/293/259 321/355/317
f 321/355/317 263/293/259 322/356/318
f 114/126/112 323/357/319 74/82/72
f 74/82/72 323/357/319 324/358/320
f 323/359/319 325/360/321 324/361/320
f 324/361/320 325/360/321 326/362/322
f 325/360/321 327/363/323 326/362/322
f 326/362/322 327/363/323 328/364/324
f 327/363/323 329/365/325 330/366/326
f 330/366/326 329/365/325 331/367/327
f 329/368/325 332/369/328 331/370/327
f 331/370/327 332/369/328 333/371/329
f 332/369/328 316/350/312 333/371/329
f 333/371/329 316/350/312 334/372/330
f 335/373/331 336/374/332 337/375/333
f 337/375/333 336/374/332 338/376/334
f 336/374/332 339/377/335 338/376/334
f 338/376/334 339/377/335 340/378/336
f 339/377/335 341/379/337 340/378/336
f 340/378/336 341/379/337 330/366/326
f 214/238/210 342/380/338 156/176/153
f 156/176/153 342/380/338 343/381/339
f 342/380/338 344/382/340 343/381/339
f 343/381/339 344/382/340 345/383/341
f 344/384/340 335/373/331 345/385/341
f 345/385/341 335/373/331 346/386/342
f 347/387/343 348/388/344 349/389/345
f 349/389/345 348/388/344 257/287/253
f 350/390/346 351/391/347 347/387/343
f 347/387/343 351/391/347 348/388/344
f 219/243/215 278/308/274 350/390/346
f 350/390/346 278/308/274 351/391/347
f 341/379/337 352/392/348 328/364/324
f 328/364/324 352/392/348 353/393/349
f 352/394/348 354/395/350 353/396/349
f 353/396/349 354/395/350 355/397/351
f 354/395/350 349/389/345 355/397/351
f 355/397/351 349/389/345 247/275/243
f 253/281/249 356/398/352 322/356/318
f 322/356/318 356/398/352 357/399/353
f 356/398/352 358/400/354 357/399/353
f 357/399/353 358/400/354 359/401/353
f 358/400/354 283/315/279 359/401/353
f 359/401/353 283/315/279 290/324/286
f 318/352/314 360/402/355 334/372/330
f 334/372/330 360/402/355 361/403/356
f 360/402/355 362/404/357 361/403/356
f 361/403/356 362/404/357 363/405/358
f 362/404/357 294/328/290 363/405/358
f 363/405/358 294/328/290 267/297/263
f 337/375/333 364/406/359 365/407/360
f 365/407/360 364/406/359 366/408/361
f 364/409/359 367/410/362 366/411/361
f 366/411/361 367/410/362 368/412/363
f 367/410/362 270/300/266 368/412/363
f 368/412/363 270/300/266 172/192/169
f 365/407/360 369/413/364 346/386/342
f 346/386/342 369/413/364 370/414/365
f 369/415/364 371/416/366 370/417/365
f 370/417/365 371/416/366 372/418/367
f 371/416/366 106/118/104 372/418/367
f 372/418/367 106/118/104 76/84/74
f 373/419/368 374/420/369 102/112/100
f 102/112/100 374/420/369 128/146/125
f 375/421/370 376/422/371 373/419/368
f 373/419/368 376/422/371 374/420/369
f 177/197/174 190/210/187 375/421/370
f 375/421/370 190/210/187 376/422/371
f 124/140/31 377/423/372 41/45/39
f 41/45/39 377/423/372 378/424/373
f 377/423/372 379/425/372 378/424/373
f 378/424/373 379/425/372 380/426/373
f 379/425/372 194/216/33 380/426/373
f 380/426/373 194/216/33 131/149/128
f 37/41/35 381/427/374 80/90/78
f 80/90/78 381/427/374 382/428/375
f 381/427/374 383/429/376 382/428/375
f 382/428/375 383/429/376 384/430/377
f 383/429/376 136/154/133 384/430/377
f 384/430/377 136/154/133 152/172/149
f 11/13/11 24/28/24 9/11/9
f 9/11/9 24/28/24 21/25/21
f 232/256/228 234/258/230 244/272/240
f 244/272/240 234/258/230 259/289/255
f 90/100/88 91/101/89 99/109/97
f 99/109/97 91/101/89 108/120/106
f 3/3/3 35/39/33 1/1/1
f 1/1/1 35/39/33 15/17/15
f 137/155/134 139/157/136 149/169/146
f 149/169/146 139/157/136 163/183/160
f 8/10/8 7/8/7 51/57/49
f 51/57/49 7/8/7 17/19/17
f 57/63/55 70/76/68 48/53/46
f 48/53/46 70/76/68 49/55/47
f 157/177/154 159/179/156 169/189/166
f 169/189/166 159/179/156 179/199/176
f 81/91/79 83/93/81 94/104/92
f 94/104/92 83/93/81 118/132/116
f 55/61/53 42/46/40 87/97/85
f 87/97/85 42/46/40 44/48/42
f 212/236/208 201/223/197 240/266/236
f 240/266/236 201/223/197 203/225/199
f 299/333/295 303/337/299 300/334/296
f 300/334/296 303/337/299 307/341/303
f 220/244/216 222/246/218 231/255/227
f 231/255/227 222/246/218 272/302/268
f 197/219/193 198/220/194 207/231/203
f 207/231/203 198/220/194 238/262/234
f 283/315/279 282/314/278 290/324/286
f 290/324/286 282/314/278 285/317/281
f 266/296/262 267/297/263 276/306/272
f 276/306/272 267/297/263 294/328/290
f 172/192/169 270/300/266 170/190/167
f 170/190/167 270/300/266 183/203/180
f 190/210/187 177/197/174 185/205/182
f 185/205/182 177/197/174 176/196/173
f 131/149/128 194/216/33 129/147/126
f 129/147/126 194/216/33 143/163/140
f 136/154/133 135/153/132 152/172/149
f 152/172/149 135/153/132 145/165/142
f 214/238/210 156/176/153 165/185/162
f 165/185/162 156/176/153 155/175/152
f 278/308/274 219/243/215 228/252/224
f 228/252/224 219/243/215 218/242/214
f 251/279/247 253/281/249 263/293/259
f 263/293/259 253/281/249 322/356/318
f 334/372/330 316/350/312 318/352/314
f 318/352/314 316/350/312 315/349/311
f 100/110/98 102/112/100 112/124/110
f 112/124/110 102/112/100 128/146/125
f 29/33/29 31/35/31 41/45/39
f 41/45/39 31/35/31 124/140/31
f 27/31/27 37/41/35 28/32/28
f 28/32/28 37/41/35 80/90/78
f 247/275/243 349/389/345 245/273/241
f 245/273/241 349/389/345 257/287/253
f 106/118/104 68/74/66 76/84/74
f 76/84/74 68/74/66 67/73/65
f 63/69/61 114/126/112 61/67/59
f 61/67/59 114/126/112 74/82/72
f 337/375/333 365/407/360 335/373/331
f 335/373/331 365/407/360 346/386/342
f 341/379/337 328/364/324 330/366/326
f 330/366/326 328/364/324 327/363/323
f 16/18/16 7/8/7 385/431/378
f 385/431/378 7/8/7 5/7/5
f 385/432/378 5/5/5 386/433/379
f 386/433/379 5/5/5 2/2/2
f 2/2/2 1/1/1 386/433/379
f 386/433/379 1/1/1 13/15/13
f 386/433/379 13/15/13 387/434/380
f 387/434/380 13/15/13 10/12/10
f 9/11/9 19/23/19 10/12/10
f 10/12/10 19/23/19 387/435/380
f 19/21/19 16/18/16 387/436/380
f 387/436/380 16/18/16 385/431/378
f 385/432/378 386/433/379 387/434/380
f 36/40/34 27/31/27 388/437/381
f 388/437/381 27/31/27 25/29/25
f 388/437/381 25/29/25 389/438/382
f 389/438/382 25/29/25 22/26/22
f 22/26/22 11/13/11 389/438/382
f 389/438/382 11/13/11 12/14/12
f 389/438/382 12/14/12 390/439/383
f 390/439/383 12/14/12 14/16/14
f 14/16/14 15/17/15 390/439/383
f 390/439/383 15/17/15 33/37/30
f 390/439/383 33/37/30 391/440/384
f 391/440/384 33/37/30 30/34/30
f 30/34/30 29/33/29 391/440/384
f 391/440/384 29/33/29 39/43/37
f 391/440/384 39/43/37 388/437/381
f 388/437/381 39/43/37 36/40/34
f 388/437/381 389/438/382 391/440/384
f 391/440/384 389/438/382 390/439/383
f 56/62/54 48/53/46 392/441/385
f 392/441/385 48/53/46 46/52/44
f 392/442/385 46/50/44 393/443/386
f 393/443/386 46/50/44 43/47/41
f 43/47/41 42/46/40 393/443/386
f 393/443/386 42/46/40 53/59/51
f 393/443/386 53/59/51 394/444/387
f 394/444/387 53/59/51 50/56/48
f 50/56/48 17/19/17 394/444/387
f 394/444/387 17/19/17 18/20/18
f 394/444/387 18/20/18 395/445/385
f 395/445/385 18/20/18 20/22/20
f 21/25/21 59/65/57 20/24/20
f 20/24/20 59/65/57 395/446/385
f 59/65/57 56/62/54 395/446/385
f 395/446/385 56/62/54 392/441/385
f 392/442/385 393/443/386 395/445/385
f 395/445/385 393/443/386 394/444/387
f 67/73/65 65/71/63 75/83/73
f 75/83/73 65/71/63 396/447/388
f 396/447/388 65/71/63 397/448/389
f 397/448/389 65/71/63 62/68/60
f 61/67/59 72/80/70 62/68/60
f 62/68/60 72/80/70 397/448/389
f 72/78/70 69/75/67 397/449/389
f 397/449/389 69/75/67 398/450/390
f 69/75/67 57/63/55 398/450/390
f 398/450/390 57/63/55 58/64/56
f 398/450/390 58/64/56 399/451/391
f 399/451/391 58/64/56 60/66/58
f 24/28/24 23/27/23 60/66/58
f 60/66/58 23/27/23 399/451/391
f 23/27/23 26/30/26 399/451/391
f 399/451/391 26/30/26 400/452/392
f 28/32/28 78/87/76 26/30/26
f 26/30/26 78/87/76 400/452/392
f 400/452/392 78/87/76 396/453/388
f 396/453/388 78/87/76 75/86/73
f 399/451/391 400/452/392 398/450/390
f 400/452/392 396/453/388 398/450/390
f 396/453/388 397/449/389 398/450/390
f 54/60/52 55/61/53 401/454/393
f 401/454/393 55/61/53 85/95/83
f 401/454/393 85/95/83 402/455/394
f 402/455/394 85/95/83 82/92/80
f 82/92/80 81/91/79 402/455/394
f 402/455/394 81/91/79 92/102/90
f 402/455/394 92/102/90 403/456/395
f 403/456/395 92/102/90 88/98/86
f 90/100/88 97/107/95 88/98/86
f 88/98/86 97/107/95 403/456/395
f 403/456/395 97/107/95 404/457/396
f 404/457/396 97/107/95 95/105/93
f 95/105/93 51/57/49 404/457/396
f 404/457/396 51/57/49 52/58/50
f 404/457/396 52/58/50 401/454/393
f 401/454/393 52/58/50 54/60/52
f 401/454/393 402/455/394 404/457/396
f 404/457/396 402/455/394 403/456/395
f 63/69/61 64/70/62 113/125/111
f 113/125/111 64/70/62 405/458/397
f 64/70/62 66/72/64 405/458/397
f 405/458/397 66/72/64 406/459/398
f 68/74/66 104/116/102 66/72/64
f 66/72/64 104/116/102 406/459/398
f 104/114/102 101/111/99 406/460/398
f 406/460/398 101/111/99 407/461/399
f 100/110/98 110/122/108 101/111/99
f 101/111/99 110/122/108 407/461/399
f 407/461/399 110/122/108 408/462/400
f 408/462/400 110/122/108 107/119/105
f 91/101/89 89/99/87 107/119/105
f 107/119/105 89/99/87 408/462/400
f 89/99/87 93/103/91 408/462/400
f 408/462/400 93/103/91 409/463/401
f 94/104/92 116/129/114 93/103/91
f 93/103/91 116/129/114 409/463/401
f 409/463/401 116/129/114 405/464/397
f 405/464/397 116/129/114 113/128/111
f 408/462/400 409/463/401 407/461/399
f 407/461/399 409/463/401 406/460/398
f 405/464/397 406/460/398 409/463/401
f 119/133/117 3/3/3 410/465/402
f 410/465/402 3/3/3 4/4/4
f 4/4/4 6/6/6 410/465/402
f 410/465/402 6/6/6 411/466/403
f 6/9/6 8/10/8 411/467/403
f 411/467/403 8/10/8 96/106/94
f 411/467/403 96/106/94 412/468/404
f 412/468/404 96/106/94 98/108/96
f 99/109/97 121/137/119 98/108/96
f 98/108/96 121/137/119 412/468/404
f 121/135/119 119/133/117 412/469/404
f 412/469/404 119/133/117 410/465/402
f 410/465/402 411/466/403 412/469/404
f 123/139/121 31/35/31 413/470/405
f 413/470/405 31/35/31 32/36/32
f 413/470/405 32/36/32 414/471/405
f 414/471/405 32/36/32 34/38/32
f 34/38/32 35/39/33 414/471/405
f 414/471/405 35/39/33 120/134/118
f 414/471/405 120/134/118 415/472/406
f 415/472/406 120/134/118 122/136/120
f 122/138/120 108/120/106 415/473/406
f 415/473/406 108/120/106 109/121/107
f 415/473/406 109/121/107 416/474/123
f 416/474/123 109/121/107 111/123/109
f 111/123/109 112/124/110 416/474/123
f 416/474/123 112/124/110 126/144/123
f 416/475/123 126/142/123 413/470/405
f 413/470/405 126/142/123 123/139/121
f 413/470/405 414/471/405 416/475/123
f 416/475/123 414/471/405 415/472/406
f 135/153/132 133/151/130 144/164/141
f 144/164/141 133/151/130 417/476/407
f 133/151/130 130/148/127 417/477/407
f 417/477/407 130/148/127 418/478/408
f 130/148/127 129/147/126 418/478/408
f 418/478/408 129/147/126 141/160/138
f 141/160/138 138/159/135 418/478/408
f 418/478/408 138/159/135 419/479/409
f 138/156/135 137/155/134 419/480/409
f 419/480/409 137/155/134 147/167/144
f 419/480/409 147/167/144 417/476/407
f 417/476/407 147/167/144 144/164/141
f 417/477/407 418/478/408 419/479/409
f 164/184/161 155/175/152 420/481/410
f 420/481/410 155/175/152 153/173/150
f 420/481/410 153/173/150 421/482/411
f 421/482/411 153/173/150 150/170/147
f 145/165/142 146/166/143 150/170/147
f 150/170/147 146/166/143 421/482/411
f 421/482/411 146/166/143 422/483/412
f 422/483/412 146/166/143 148/168/145
f 148/168/145 149/169/146 422/483/412
f 422/483/412 149/169/146 161/181/158
f 422/483/412 161/181/158 423/484/413
f 423/484/413 161/181/158 158/178/155
f 158/178/155 157/177/154 423/484/413
f 423/484/413 157/177/154 167/187/164
f 423/484/413 167/187/164 420/481/410
f 420/481/410 167/187/164 164/184/161
f 420/481/410 421/482/411 423/484/413
f 423/484/413 421/482/411 422/483/412
f 176/196/173 174/194/171 184/204/181
f 184/204/181 174/194/171 424/485/414
f 174/194/171 171/191/168 424/485/414
f 424/485/414 171/191/168 425/486/415
f 171/191/168 170/190/167 425/486/415
f 425/486/415 170/190/167 181/201/178
f 425/486/415 181/201/178 426/487/416
f 426/487/416 181/201/178 178/198/175
f 178/198/175 159/179/156 426/487/416
f 426/487/416 159/179/156 160/180/157
f 426/487/416 160/180/157 427/488/417
f 427/488/417 160/180/157 162/182/159
f 162/182/159 163/183/160 427/488/417
f 427/488/417 163/183/160 187/207/184
f 427/488/417 187/207/184 424/485/414
f 424/485/414 187/207/184 184/204/181
f 424/485/414 425/486/415 427/488/417
f 427/488/417 425/486/415 426/487/416
f 142/162/139 143/163/140 428/489/418
f 428/489/418 143/163/140 192/213/189
f 428/489/418 192/213/189 429/490/419
f 429/490/419 192/213/189 189/212/186
f 185/205/182 186/206/183 189/209/186
f 189/209/186 186/206/183 429/491/419
f 186/206/183 188/208/185 429/491/419
f 429/491/419 188/208/185 430/492/420
f 188/208/185 139/157/136 430/492/420
f 430/492/420 139/157/136 140/158/137
f 430/493/420 140/161/137 428/489/418
f 428/489/418 140/161/137 142/162/139
f 428/489/418 429/490/419 430/493/420
f 47/54/45 49/55/47 431/494/421
f 431/494/421 49/55/47 199/221/195
f 431/494/421 199/221/195 432/495/422
f 432/495/422 199/221/195 195/217/191
f 197/219/193 205/229/201 195/217/191
f 195/217/191 205/229/201 432/495/422
f 432/496/422 205/227/201 433/497/423
f 433/497/423 205/227/201 202/224/198
f 202/224/198 201/223/197 433/497/423
f 433/497/423 201/223/197 210/234/206
f 433/497/423 210/234/206 434/498/424
f 434/498/424 210/234/206 208/232/204
f 208/232/204 44/48/42 434/498/424
f 434/498/424 44/48/42 45/49/43
f 434/498/424 45/49/43 431/499/421
f 431/499/421 45/49/43 47/51/45
f 431/499/421 432/496/422 434/498/424
f 434/498/424 432/496/422 433/497/423
f 218/242/214 216/240/212 226/250/222
f 226/250/222 216/240/212 435/500/425
f 216/240/212 213/237/209 435/500/425
f 435/500/425 213/237/209 436/501/426
f 213/237/209 165/185/162 436/501/426
f 436/501/426 165/185/162 166/186/163
f 436/501/426 166/186/163 437/502/427
f 437/502/427 166/186/163 168/188/165
f 168/188/165 169/189/166 437/502/427
f 437/502/427 169/189/166 224/248/220
f 437/502/427 224/248/220 438/503/428
f 438/503/428 224/248/220 221/245/217
f 221/245/217 220/244/216 438/503/428
f 438/503/428 220/244/216 229/253/225
f 438/503/428 229/253/225 435/500/425
f 435/500/425 229/253/225 226/250/222
f 435/500/425 436/501/426 438/503/428
f 438/503/428 436/501/426 437/502/427
f 239/265/235 203/225/199 439/504/429
f 439/504/429 203/225/199 204/226/200
f 439/504/429 204/226/200 440/505/430
f 440/505/430 204/226/200 206/228/202
f 207/231/203 236/263/232 206/230/202
f 206/230/202 236/263/232 440/506/430
f 236/260/232 233/257/229 440/507/430
f 440/507/430 233/257/229 441/508/431
f 233/257/229 232/256/228 441/508/431
f 441/508/431 232/256/228 242/269/238
f 242/269/238 239/268/235 441/508/431
f 441/508/431 239/268/235 439/509/429
f 439/509/429 440/507/430 441/508/431
f 238/262/234 249/277/245 237/264/233
f 237/264/233 249/277/245 442/510/432
f 249/277/245 246/274/242 442/510/432
f 442/510/432 246/274/242 443/511/433
f 246/274/242 245/273/241 443/511/433
f 443/511/433 245/273/241 255/285/251
f 443/512/433 255/283/251 444/513/434
f 444/513/434 255/283/251 252/280/248
f 252/280/248 251/279/247 444/513/434
f 444/513/434 251/279/247 261/291/257
f 444/513/434 261/291/257 445/514/435
f 445/514/435 261/291/257 258/288/254
f 258/288/254 234/258/230 445/514/435
f 445/514/435 234/258/230 235/259/231
f 445/514/435 235/259/231 442/515/432
f 442/515/432 235/259/231 237/261/233
f 442/515/432 443/512/433 445/514/435
f 445/514/435 443/512/433 444/513/434
f 182/202/179 183/203/180 446/516/436
f 446/516/436 183/203/180 268/298/264
f 446/516/436 268/298/264 447/517/437
f 447/517/437 268/298/264 264/294/260
f 266/296/262 274/304/270 264/294/260
f 264/294/260 274/304/270 447/517/437
f 447/517/437 274/304/270 448/518/438
f 448/518/438 274/304/270 271/301/267
f 271/301/267 222/246/218 448/518/438
f 448/518/438 222/246/218 223/247/219
f 448/518/438 223/247/219 449/519/439
f 449/519/439 223/247/219 225/249/221
f 225/249/221 179/199/176 449/519/439
f 449/519/439 179/199/176 180/200/177
f 449/519/439 180/200/177 446/516/436
f 446/516/436 180/200/177 182/202/179
f 446/516/436 447/517/437 449/519/439
f 449/519/439 447/517/437 448/518/438
f 284/316/280 282/314/278 450/520/440
f 450/520/440 282/314/278 280/311/276
f 450/520/440 280/311/276 451/521/441
f 451/521/441 280/311/276 277/310/273
f 228/252/224 227/251/223 277/307/273
f 277/307/273 227/251/223 451/522/441
f 227/251/223 230/254/226 451/522/441
f 451/522/441 230/254/226 452/523/442
f 230/254/226 231/255/227 452/523/442
f 452/523/442 231/255/227 287/321/283
f 452/524/442 287/319/283 450/520/440
f 450/520/440 287/319/283 284/316/280
f 450/520/440 451/521/441 452/524/442
f 276/306/272 292/326/288 275/305/271
f 275/305/271 292/326/288 453/525/443
f 292/326/288 289/323/285 453/526/443
f 453/526/443 289/323/285 454/527/444
f 289/323/285 285/317/281 454/527/444
f 454/527/444 285/317/281 286/318/282
f 286/318/282 288/320/284 454/527/444
f 454/527/444 288/320/284 455/528/445
f 288/322/284 272/302/268 455/529/445
f 455/529/445 272/302/268 273/303/269
f 455/529/445 273/303/269 453/525/443
f 453/525/443 273/303/269 275/305/271
f 453/526/443 454/527/444 455/528/445
f 299/333/295 297/331/293 301/335/297
f 301/335/297 297/331/293 456/530/446
f 297/331/293 295/329/291 456/530/446
f 456/530/446 295/329/291 457/531/447
f 295/329/291 83/93/81 457/531/447
f 457/531/447 83/93/81 84/94/82
f 457/531/447 84/94/82 458/532/448
f 458/532/448 84/94/82 86/96/84
f 86/96/84 87/97/85 458/532/448
f 458/532/448 87/97/85 209/233/205
f 458/532/448 209/233/205 459/533/449
f 459/533/449 209/233/205 211/235/207
f 211/235/207 212/236/208 459/533/449
f 459/533/449 212/236/208 304/338/300
f 459/533/449 304/338/300 456/530/446
f 456/530/446 304/338/300 301/335/297
f 456/530/446 457/531/447 459/533/449
f 459/533/449 457/531/447 458/532/448
f 303/337/299 302/336/298 306/340/302
f 306/340/302 302/336/298 460/534/450
f 302/336/298 305/339/301 460/534/450
f 460/534/450 305/339/301 461/535/451
f 305/339/301 240/266/236 461/535/451
f 461/535/451 240/266/236 241/267/237
f 461/536/451 241/270/237 462/537/452
f 462/537/452 241/270/237 243/271/239
f 243/271/239 244/272/240 462/537/452
f 462/537/452 244/272/240 309/343/305
f 462/537/452 309/343/305 460/538/450
f 460/538/450 309/343/305 306/340/302
f 460/538/450 461/536/451 462/537/452
f 317/351/313 315/349/311 463/539/453
f 463/539/453 315/349/311 313/347/309
f 463/539/453 313/347/309 464/540/454
f 464/540/454 313/347/309 311/345/307
f 307/341/303 308/342/304 311/345/307
f 311/345/307 308/342/304 464/540/454
f 464/540/454 308/342/304 465/541/455
f 465/541/455 308/342/304 310/344/306
f 310/344/306 259/289/255 465/541/455
f 465/541/455 259/289/255 260/290/256
f 465/541/455 260/290/256 466/542/456
f 466/542/456 260/290/256 262/292/258
f 262/292/258 263/293/259 466/542/456
f 466/542/456 263/293/259 320/354/316
f 466/542/456 320/354/316 463/539/453
f 463/539/453 320/354/316 317/351/313
f 463/539/453 464/540/454 466/542/456
f 466/542/456 464/540/454 465/541/455
f 327/363/323 325/360/321 329/365/325
f 329/365/325 325/360/321 467/543/457
f 467/543/457 325/360/321 468/544/458
f 468/544/458 325/360/321 323/359/319
f 114/126/112 115/127/113 323/357/319
f 323/357/319 115/127/113 468/545/458
f 115/130/113 117/131/115 468/546/458
f 468/546/458 117/131/115 469/547/459
f 117/131/115 118/132/116 469/547/459
f 469/547/459 118/132/116 296/330/292
f 469/547/459 296/330/292 470/548/460
f 470/548/460 296/330/292 298/332/294
f 300/334/296 312/346/308 298/332/294
f 298/332/294 312/346/308 470/548/460
f 312/346/308 314/348/310 470/548/460
f 470/548/460 314/348/310 471/549/461
f 316/350/312 332/369/328 314/348/310
f 314/348/310 332/369/328 471/549/461
f 471/549/461 332/369/328 467/550/457
f 467/550/457 332/369/328 329/368/325
f 470/548/460 471/549/461 469/547/459
f 471/549/461 467/550/457 469/547/459
f 467/550/457 468/546/458 469/547/459
f 341/379/337 339/377/335 352/392/348
f 352/392/348 339/377/335 472/551/462
f 472/551/462 339/377/335 473/552/463
f 473/552/463 339/377/335 336/374/332
f 335/373/331 344/384/340 336/374/332
f 336/374/332 344/384/340 473/552/463
f 344/382/340 342/380/338 473/553/463
f 473/553/463 342/380/338 474/554/464
f 342/380/338 214/238/210 474/554/464
f 474/554/464 214/238/210 215/239/211
f 474/554/464 215/239/211 475/555/465
f 475/555/465 215/239/211 217/241/213
f 219/243/215 350/390/346 217/241/213
f 217/241/213 350/390/346 475/555/465
f 350/390/346 347/387/343 475/555/465
f 475/555/465 347/387/343 476/556/466
f 349/389/345 354/395/350 347/387/343
f 347/387/343 354/395/350 476/556/466
f 476/556/466 354/395/350 472/557/462
f 472/557/462 354/395/350 352/394/348
f 475/555/465 476/556/466 474/554/464
f 476/556/466 472/557/462 474/554/464
f 472/557/462 473/553/463 474/554/464
f 356/398/352 253/281/249 477/558/467
f 477/558/467 253/281/249 254/282/250
f 477/558/467 254/282/250 478/559/468
f 478/559/468 254/282/250 256/284/252
f 256/286/252 257/287/253 478/560/468
f 478/560/468 257/287/253 348/388/344
f 478/560/468 348/388/344 479/561/469
f 479/561/469 348/388/344 351/391/347
f 278/308/274 279/309/275 351/391/347
f 351/391/347 279/309/275 479/561/469
f 479/562/469 279/312/275 480/563/470
f 480/563/470 279/312/275 281/313/277
f 281/313/277 283/315/279 480/563/470
f 480/563/470 283/315/279 358/400/354
f 480/563/470 358/400/354 477/558/467
f 477/558/467 358/400/354 356/398/352
f 477/558/467 478/559/468 480/563/470
f 480/563/470 478/559/468 479/562/469
f 360/402/355 318/352/314 481/564/471
f 481/564/471 318/352/314 319/353/315
f 481/564/471 319/353/315 482/565/472
f 482/565/472 319/353/315 321/355/317
f 321/355/317 322/356/318 482/565/472
f 482/565/472 322/356/318 357/399/353
f 482/565/472 357/399/353 483/566/473
f 483/566/473 357/399/353 359/401/353
f 359/401/353 290/324/286 483/566/473
f 483/566/473 290/324/286 291/325/287
f 483/566/473 291/325/287 484/567/474
f 484/567/474 291/325/287 293/327/289
f 294/328/290 362/404/357 293/327/289
f 293/327/289 362/404/357 484/567/474
f 362/404/357 360/402/355 484/567/474
f 484/567/474 360/402/355 481/564/471
f 481/564/471 482/565/472 484/567/474
f 484/567/474 482/565/472 483/566/473
f 337/375/333 338/376/334 364/406/359
f 364/406/359 338/376/334 485/568/475
f 338/376/334 340/378/336 485/568/475
f 485/568/475 340/378/336 486/569/476
f 330/366/326 331/367/327 340/378/336
f 340/378/336 331/367/327 486/569/476
f 331/370/327 333/371/329 486/570/476
f 486/570/476 333/371/329 487/571/477
f 334/372/330 361/403/356 333/371/329
f 333/371/329 361/403/356 487/571/477
f 487/571/477 361/403/356 488/572/478
f 488/572/478 361/403/356 363/405/358
f 267/297/263 265/295/261 363/405/358
f 363/405/358 265/295/261 488/572/478
f 265/295/261 269/299/265 488/572/478
f 488/572/478 269/299/265 489/573/479
f 270/300/266 367/410/362 269/299/265
f 269/299/265 367/410/362 489/573/479
f 489/573/479 367/410/362 485/574/475
f 485/574/475 367/410/362 364/409/359
f 488/572/478 489/573/479 487/571/477
f 487/571/477 489/573/479 486/570/476
f 485/574/475 486/570/476 489/573/479
f 106/118/104 371/416/366 105/117/103
f 105/117/103 371/416/366 490/575/480
f 490/575/480 371/416/366 491/576/481
f 491/576/481 371/416/366 369/415/364
f 365/407/360 366/408/361 369/413/364
f 369/413/364 366/408/361 491/577/481
f 366/411/361 368/412/363 491/578/481
f 491/578/481 368/412/363 492/579/482
f 368/412/363 172/192/169 492/579/482
f 492/579/482 172/192/169 173/193/170
f 492/579/482 173/193/170 493/580/483
f 493/580/483 173/193/170 175/195/172
f 177/197/174 375/421/370 175/195/172
f 175/195/172 375/421/370 493/580/483
f 375/421/370 373/419/368 493/580/483
f 493/580/483 373/419/368 494/581/484
f 102/112/100 103/113/101 373/419/368
f 373/419/368 103/113/101 494/581/484
f 494/581/484 103/113/101 490/582/480
f 490/582/480 103/113/101 105/115/103
f 493/580/483 494/581/484 492/579/482
f 494/581/484 490/582/480 492/579/482
f 490/582/480 491/578/481 492/579/482
f 377/423/372 124/140/31 495/583/485
f 495/583/485 124/140/31 125/141/122
f 495/583/485 125/141/122 496/584/486
f 496/584/486 125/141/122 127/143/124
f 127/145/124 128/146/125 496/585/486
f 496/585/486 128/146/125 374/420/369
f 496/585/486 374/420/369 497/586/487
f 497/586/487 374/420/369 376/422/371
f 376/422/371 190/210/187 497/586/487
f 497/586/487 190/210/187 191/211/188
f 497/587/487 191/214/188 498/588/488
f 498/588/488 191/214/188 193/215/190
f 193/215/190 194/216/33 498/588/488
f 498/588/488 194/216/33 379/425/372
f 498/588/488 379/425/372 495/583/485
f 495/583/485 379/425/372 377/423/372
f 495/583/485 496/584/486 498/588/488
f 498/588/488 496/584/486 497/587/487
f 381/427/374 37/41/35 499/589/489
f 499/589/489 37/41/35 38/42/36
f 499/589/489 38/42/36 500/590/490
f 500/590/490 38/42/36 40/44/38
f 40/44/38 41/45/39 500/590/490
f 500/590/490 41/45/39 378/424/373
f 500/590/490 378/424/373 501/591/490
f 501/591/490 378/424/373 380/426/373
f 380/426/373 131/149/128 501/591/490
f 501/591/490 131/149/128 132/150/129
f 501/591/490 132/150/129 502/592/489
f 502/592/489 132/150/129 134/152/131
f 134/152/131 136/154/133 502/592/489
f 502/592/489 136/154/133 383/429/376
f 502/592/489 383/429/376 499/589/489
f 499/589/489 383/429/376 381/427/374
f 499/589/489 500/590/490 502/592/489
f 502/592/489 500/590/490 501/591/490
f 346/386/342 370/414/365 345/385/341
f 345/385/341 370/414/365 503/593/491
f 370/417/365 372/418/367 503/594/491
f 503/594/491 372/418/367 504/595/492
f 76/84/74 77/85/75 372/418/367
f 372/418/367 77/85/75 504/595/492
f 77/88/75 79/89/77 504/596/492
f 504/596/492 79/89/77 505/597/493
f 80/90/78 382/428/375 79/89/77
f 79/89/77 382/428/375 505/597/493
f 505/597/493 382/428/375 506/598/494
f 506/598/494 382/428/375 384/430/377
f 152/172/149 151/171/148 384/430/377
f 384/430/377 151/171/148 506/598/494
f 151/171/148 154/174/151 506/598/494
f 506/598/494 154/174/151 507/599/495
f 156/176/153 343/381/339 154/174/151
f 154/174/151 343/381/339 507/599/495
f 507/599/495 343/381/339 503/600/491
f 503/600/491 343/381/339 345/383/341
f 506/598/494 507/599/495 505/597/493
f 505/597/493 507/599/495 504/596/492
f 503/600/491 504/596/492 507/599/495
f 74/82/72 324/358/320 73/81/71
f 73/81/71 324/358/320 508/601/496
f 324/361/320 326/362/322 508/602/496
f 508/602/496 326/362/322 509/603/497
f 328/364/324 353/393/349 326/362/322
f 326/362/322 353/393/349 509/603/497
f 353/396/349 355/397/351 509/604/497
f 509/604/497 355/397/351 510/605/498
f 247/275/243 248/276/244 355/397/351
f 355/397/351 248/276/244 510/605/498
f 510/605/498 248/276/244 511/606/499
f 511/606/499 248/276/244 250/278/246
f 198/220/194 196/218/192 250/278/246
f 250/278/246 196/218/192 511/606/499
f 196/218/192 200/222/196 511/606/499
f 511/606/499 200/222/196 512/607/500
f 70/76/68 71/77/69 200/222/196
f 200/222/196 71/77/69 512/607/500
f 512/607/500 71/77/69 508/608/496
f 508/608/496 71/77/69 73/79/71
f 511/606/499 512/607/500 510/605/498
f 510/605/498 512/607/500 509/604/497
f 508/608/496 509/604/497 512/607/500
s off
g Door_Glass3SG
v 6.65442 3.55863 -0.000912
v 12.55 3.55863 -0.000912
v 6.65442 13.2391 -0.000912
v 12.55 13.2391 -0.000912
vn 0 0 1
vt 0.002417 0.003968
vt 0.606595 0.003968
vt 0.002417 0.996032
vt 0.606595 0.996032
usemtl Glass3SG
f 513/609/501 514/610/501 515/611/501
f 515/611/501 514/610/501 516/612/501
s off
