# Apple ModelIO OBJ File: IchigoAme_BigSpoon
mtllib IchigoAme_BigSpoon.mtl
g IchigoAme_BigSpoon_IchigoAme_BigSpoonSG
v 0.017294 -0.904274 0.145809
v 0.039534 -0.721132 0.26243
v -0.002892 -0.88398 0.135174
v 0.002195 -0.704652 0.242605
v 0.045576 -0.512846 0.286682
v 0.007736 -0.500761 0.26424
v 0.040051 -0.287153 0.244997
v 0.002878 -0.279774 0.226536
v -0.011326 -0.118219 0.138987
v 0.024435 -0.080635 0.14739
v -0.022385 0.075322 0.09947
v 0.031916 0.075067 0.107487
v 0.028402 1.39497 0.10091
v -0.041452 1.36155 0.095053
v -0.05271 1.42186 0.028843
v 0.015009 1.45516 0.022676
v -0.064354 1.4212 -0.036682
v 0.001226 1.45438 -0.054876
v -0.012939 1.39263 -0.131742
v -0.076385 1.35957 -0.101526
v -0.007326 0.072842 -0.113344
v -0.055542 0.073441 -0.087118
v -0.027555 -0.083583 -0.14518
v -0.058104 -0.120872 -0.124239
v -0.045803 -0.292022 -0.238132
v -0.074366 -0.284154 -0.208143
v -0.082027 -0.50585 -0.240891
v -0.054193 -0.518505 -0.274752
v -0.079069 -0.70926 -0.214691
v -0.050789 -0.726254 -0.245842
v -0.046211 -0.886436 -0.108606
v -0.030855 -0.907004 -0.125145
v -0.015497 -0.933204 -0.037451
v -0.024742 -0.912189 -0.028328
v -0.010303 -0.91137 0.052933
v 0.001593 -0.932235 0.058723
v 0.030701 -0.91265 -0.038176
v 0.017199 -0.886964 -0.119869
v 0.097666 -0.708971 -0.08884
v 0.018585 -0.710074 -0.232038
v 0.045141 -0.911832 0.043085
v 0.124754 -0.707435 0.063593
v 0.06052 -0.884508 0.123911
v 0.09985 -0.705466 0.22526
v 0.108604 -0.505492 -0.101059
v 0.015627 -0.506664 -0.258234
v 0.138525 -0.503796 0.06732
v 0.105391 -0.501575 0.246895
v 0.023289 -0.284967 -0.225491
v 0.10103 -0.28394 -0.089832
v 0.12678 -0.282481 0.055063
v 0.100534 -0.280587 0.209188
v 0.039812 -0.080981 -0.14204
v 0.083803 -0.080334 -0.059343
v 0.099398 -0.079449 0.028399
v 0.086586 -0.07833 0.121185
v 0.048681 0.072573 -0.105629
v 0.082968 0.073006 -0.047562
v 0.094021 0.073633 0.014635
v 0.081841 0.074454 0.080959
v 0.058697 1.35845 -0.125519
v 0.070728 1.42008 -0.060678
v 0.082373 1.42074 0.00485
v 0.09363 1.36043 0.071058
v 0.019361 -0.829349 -0.028633
v 0.072235 -0.666317 -0.069056
v 0.007938 -0.808784 -0.09391
v -0.006342 -0.667072 -0.180956
v 0.03092 -0.828692 0.036407
v 0.093914 -0.665088 0.052952
v 0.042612 -0.806817 0.10121
v 0.058701 -0.663384 0.185062
v 0.08672 -0.503502 -0.079855
v -0.008711 -0.504264 -0.201927
v 0.110672 -0.502143 0.054914
v 0.063135 -0.500189 0.202379
v -0.002579 -0.326819 -0.175714
v 0.074926 -0.326124 -0.069851
v 0.095533 -0.324956 0.046125
v 0.059248 -0.323313 0.172199
v 0.01041 -0.200617 -0.108509
v 0.023125 -0.162842 -0.038696
v 0.035604 -0.162135 0.031534
v 0.04785 -0.198493 0.102179
v -0.052189 -0.079201 -0.035187
v -0.067726 0.074261 -0.020796
v -0.036596 -0.078317 0.052555
v -0.056673 0.074888 0.041403
vn 0.154105 -0.679454 0.717352
vn 0.174428 -0.338655 0.924601
vn -0.992416 0.072298 0.099422
vn -0.995599 0.089195 -0.028768
vn 0.181144 0.017418 0.983302
vn -0.995897 0.012858 -0.08958
vn 0.144903 0.281771 0.948477
vn -0.997216 -0.070007 -0.025658
vn -0.927808 -0.142894 0.344608
vn 0.107631 0.3324 0.936977
vn -0.648255 0.007622 0.761385
vn 0.171808 0.027255 0.984753
vn 0.173993 0.089575 0.980665
vn -0.662239 0.022387 0.748959
vn -0.961644 0.079938 0.262394
vn 0.071678 0.931867 0.35565
vn -0.993445 0.078131 0.083447
vn -0.058462 0.924484 -0.376712
vn -0.174774 0.069812 -0.98213
vn -0.879794 0.010048 -0.475249
vn -0.178016 0.007432 -0.983999
vn -0.870897 -0.005005 -0.49144
vn -0.222899 0.313654 -0.923004
vn -0.98923 -0.146363 -0.001044
vn -0.191681 0.262684 -0.945651
vn -0.927086 -0.066008 0.36899
vn -0.904112 0.018081 0.426912
vn -0.168738 -0.002413 -0.985658
vn -0.925048 0.093201 0.36824
vn -0.153584 -0.357239 -0.921299
vn -0.966167 0.073782 0.247138
vn -0.100081 -0.693856 -0.713125
vn -0.017768 -0.989017 -0.146727
vn -0.946832 0.229645 0.225326
vn -0.967288 0.228495 0.1102
vn 0.0373 -0.985893 0.163166
vn 0.855755 -0.45387 -0.248366
vn 0.713653 -0.451403 -0.535663
vn 0.930813 -0.177029 -0.319762
vn 0.711872 -0.211071 -0.669841
vn 0.890502 -0.451903 -0.052823
vn 0.984602 -0.173976 -0.017077
vn 0.85606 -0.44333 0.265742
vn 0.899781 -0.200418 0.38759
vn 0.936063 -0.007024 -0.351763
vn 0.706903 0.005461 -0.707289
vn 0.999964 -0.003399 0.00783
vn 0.907265 0.01682 0.420224
vn 0.675001 0.161932 -0.719828
vn 0.934373 0.078732 -0.347488
vn 0.996607 0.08226 0.002726
vn 0.881092 0.173622 0.439923
vn 0.64985 0.209449 -0.730634
vn 0.937789 0.096271 -0.333593
vn 0.994967 0.099506 -0.01184
vn 0.86104 0.221419 0.457802
vn 0.623499 0.006794 -0.781794
vn 0.962275 0.006005 -0.272014
vn 0.997052 0.007976 -0.076315
vn 0.854622 0.019888 0.51887
vn 0.649856 0.01261 -0.759953
vn 0.960012 0.082285 -0.267594
vn 0.993141 0.084163 -0.08117
vn 0.871824 0.025189 0.489171
vn -0.886114 0.378857 0.266962
vn -0.909189 0.187997 0.371528
vn -0.751222 0.3486 0.560485
vn -0.692138 0.183969 0.697926
vn -0.92515 0.376645 0.047295
vn -0.982172 0.18386 -0.039173
vn -0.899525 0.340195 -0.274084
vn -0.890838 0.172699 -0.420217
vn -0.910049 0.006645 0.414448
vn -0.674654 -0.001566 0.738133
vn -0.997136 0.001709 -0.075616
vn -0.887631 -0.013644 -0.460353
vn -0.679181 -0.166741 0.71478
vn -0.910061 -0.164429 0.380463
vn -0.984846 -0.168666 -0.040379
vn -0.88326 -0.178318 -0.433653
vn -0.722731 -0.363969 0.587526
vn -0.841998 -0.461123 0.28001
vn -0.885312 -0.463582 0.036253
vn -0.879618 -0.372878 -0.295355
vn -0.948641 -0.288094 0.1307
vn -0.996133 -0.010105 0.087281
vn -0.934593 -0.287292 0.209761
vn -0.965182 -0.008343 0.261447
vt 0.147749 0.009771
vt 0.199548 0.062817
vt 0.143095 0.01912
vt 0.187766 0.072149
vt 0.219762 0.131039
vt 0.205608 0.136979
vt 0.217004 0.209612
vt 0.202373 0.212131
vt 0.178202 0.276265
vt 0.19304 0.291038
vt 0.174754 0.360631
vt 0.198869 0.358012
vt 0.258607 0.941076
vt 0.226905 0.927918
vt 0.200926 0.957018
vt 0.216116 0.991138
vt 0.172262 0.959688
vt 0.163637 0.996032
vt 0.112626 0.954674
vt 0.141352 0.935886
vt 0.063667 0.370592
vt 0.087862 0.368716
vt 0.057067 0.303536
vt 0.069005 0.286282
vt 0.018862 0.227661
vt 0.033693 0.227513
vt 0.017016 0.154405
vt 0.002092 0.151153
vt 0.022605 0.087799
vt 0.009387 0.080872
vt 0.056202 0.027674
vt 0.049892 0.019453
vt 0.080499 0.007457
vt 0.084056 0.015483
vt 0.113239 0.012573
vt 0.11515 0.003968
vt 0.437095 0.025741
vt 0.46357 0.037318
vt 0.441414 0.09767
vt 0.494108 0.099309
vt 0.409324 0.023224
vt 0.392102 0.093183
vt 0.381206 0.029829
vt 0.339981 0.085271
vt 0.439021 0.163915
vt 0.500093 0.166883
vt 0.382496 0.158773
vt 0.321869 0.150666
vt 0.48506 0.242561
vt 0.429941 0.239316
vt 0.377851 0.234595
vt 0.323021 0.227875
vt 0.45234 0.317689
vt 0.414797 0.315266
vt 0.379133 0.312041
vt 0.341761 0.307692
vt 0.434326 0.381274
vt 0.404942 0.378622
vt 0.377467 0.376133
vt 0.348087 0.373443
vt 0.382813 0.928485
vt 0.353028 0.951469
vt 0.325369 0.948958
vt 0.300214 0.920986
vt 0.09108 0.046452
vt 0.088428 0.101007
vt 0.070745 0.055589
vt 0.047108 0.102489
vt 0.112371 0.044395
vt 0.125297 0.09752
vt 0.134112 0.049476
vt 0.166287 0.091246
vt 0.091065 0.149776
vt 0.04381 0.153233
vt 0.131756 0.146015
vt 0.178944 0.140731
vt 0.056989 0.20886
vt 0.098061 0.203672
vt 0.134686 0.200309
vt 0.17606 0.19795
vt 0.083525 0.249183
vt 0.109117 0.259721
vt 0.133964 0.25745
vt 0.157228 0.242437
vt 0.10699 0.302304
vt 0.117512 0.366337
vt 0.14383 0.298929
vt 0.145175 0.363765
vt 0.458871 0.383691
vt 0.411095 0.947279
vt 0.477973 0.323334
vt 0.510222 0.244894
vt 0.525123 0.163618
vt 0.516399 0.089387
vt 0.475724 0.024078
vt 0.443323 0.008688
vt 0.406268 0.005327
vt 0.371646 0.014624
vt 0.319852 0.071479
vt 0.297824 0.142929
vt 0.297826 0.225646
vt 0.315532 0.308655
vt 0.32351 0.371404
vt 0.269005 0.934379
vt 0.31037 0.98263
vt 0.361719 0.987291
usemtl IchigoAme_BigSpoonSG
f 1/1/1 2/2/2 3/3/3
f 3/3/3 2/2/2 4/4/4
f 2/2/2 5/5/5 4/4/4
f 4/4/4 5/5/5 6/6/6
f 5/5/5 7/7/7 6/6/6
f 6/6/6 7/7/7 8/8/8
f 8/8/8 7/7/7 9/9/9
f 9/9/9 7/7/7 10/10/10
f 9/9/9 10/10/10 11/11/11
f 11/11/11 10/10/10 12/12/12
f 13/13/13 14/14/14 12/12/12
f 12/12/12 14/14/14 11/11/11
f 14/14/14 13/13/13 15/15/15
f 15/15/15 13/13/13 16/16/16
f 15/15/15 16/16/16 17/17/17
f 17/17/17 16/16/16 18/18/18
f 18/18/18 19/19/19 17/17/17
f 17/17/17 19/19/19 20/20/20
f 19/19/19 21/21/21 20/20/20
f 20/20/20 21/21/21 22/22/22
f 21/21/21 23/23/23 22/22/22
f 22/22/22 23/23/23 24/24/24
f 23/23/23 25/25/25 24/24/24
f 24/24/24 25/25/25 26/26/26
f 26/26/26 25/25/25 27/27/27
f 27/27/27 25/25/25 28/28/28
f 27/27/27 28/28/28 29/29/29
f 29/29/29 28/28/28 30/30/30
f 29/29/29 30/30/30 31/31/31
f 31/31/31 30/30/30 32/32/32
f 32/32/32 33/33/33 31/31/31
f 31/31/31 33/33/33 34/34/34
f 34/34/34 33/33/33 35/35/35
f 35/35/35 33/33/33 36/36/36
f 35/35/35 36/36/36 3/3/3
f 3/3/3 36/36/36 1/1/1
f 37/37/37 38/38/38 39/39/39
f 39/39/39 38/38/38 40/40/40
f 41/41/41 37/37/37 42/42/42
f 42/42/42 37/37/37 39/39/39
f 41/41/41 42/42/42 43/43/43
f 43/43/43 42/42/42 44/44/44
f 39/39/39 40/40/40 45/45/45
f 45/45/45 40/40/40 46/46/46
f 42/42/42 39/39/39 47/47/47
f 47/47/47 39/39/39 45/45/45
f 42/42/42 47/47/47 44/44/44
f 44/44/44 47/47/47 48/48/48
f 46/46/46 49/49/49 45/45/45
f 45/45/45 49/49/49 50/50/50
f 47/47/47 45/45/45 51/51/51
f 51/51/51 45/45/45 50/50/50
f 48/48/48 47/47/47 52/52/52
f 52/52/52 47/47/47 51/51/51
f 49/49/49 53/53/53 50/50/50
f 50/50/50 53/53/53 54/54/54
f 51/51/51 50/50/50 55/55/55
f 55/55/55 50/50/50 54/54/54
f 52/52/52 51/51/51 56/56/56
f 56/56/56 51/51/51 55/55/55
f 53/53/53 57/57/57 54/54/54
f 54/54/54 57/57/57 58/58/58
f 55/55/55 54/54/54 59/59/59
f 59/59/59 54/54/54 58/58/58
f 56/56/56 55/55/55 60/60/60
f 60/60/60 55/55/55 59/59/59
f 57/57/57 61/61/61 58/58/58
f 58/58/58 61/61/61 62/62/62
f 59/59/59 58/58/58 63/63/63
f 63/63/63 58/58/58 62/62/62
f 60/60/60 59/59/59 64/64/64
f 64/64/64 59/59/59 63/63/63
f 65/65/65 66/66/66 67/67/67
f 67/67/67 66/66/66 68/68/68
f 65/65/65 69/69/69 66/66/66
f 66/66/66 69/69/69 70/70/70
f 69/69/69 71/71/71 70/70/70
f 70/70/70 71/71/71 72/72/72
f 66/66/66 73/73/73 68/68/68
f 68/68/68 73/73/73 74/74/74
f 66/66/66 70/70/70 73/73/73
f 73/73/73 70/70/70 75/75/75
f 70/70/70 72/72/72 75/75/75
f 75/75/75 72/72/72 76/76/76
f 74/74/74 73/73/73 77/77/77
f 77/77/77 73/73/73 78/78/78
f 73/73/73 75/75/75 78/78/78
f 78/78/78 75/75/75 79/79/79
f 76/76/76 80/80/80 75/75/75
f 75/75/75 80/80/80 79/79/79
f 77/77/77 78/78/78 81/81/81
f 81/81/81 78/78/78 82/82/82
f 78/78/78 79/79/79 82/82/82
f 82/82/82 79/79/79 83/83/83
f 80/80/80 84/84/84 79/79/79
f 79/79/79 84/84/84 83/83/83
f 24/24/24 85/85/85 22/22/22
f 22/22/22 85/85/85 86/86/86
f 85/85/85 87/87/87 86/86/86
f 86/86/86 87/87/87 88/88/88
f 9/9/9 11/11/11 87/87/87
f 87/87/87 11/11/11 88/88/88
f 17/17/17 20/20/20 86/86/86
f 86/86/86 20/20/20 22/22/22
f 88/88/88 15/15/15 86/86/86
f 86/86/86 15/15/15 17/17/17
f 11/11/11 14/14/14 88/88/88
f 88/88/88 14/14/14 15/15/15
f 34/34/34 65/65/65 31/31/31
f 31/31/31 65/65/65 67/67/67
f 31/31/31 67/67/67 29/29/29
f 29/29/29 67/67/67 68/68/68
f 34/34/34 35/35/35 65/65/65
f 65/65/65 35/35/35 69/69/69
f 35/35/35 3/3/3 69/69/69
f 69/69/69 3/3/3 71/71/71
f 3/3/3 4/4/4 71/71/71
f 71/71/71 4/4/4 72/72/72
f 29/29/29 68/68/68 27/27/27
f 27/27/27 68/68/68 74/74/74
f 4/4/4 6/6/6 72/72/72
f 72/72/72 6/6/6 76/76/76
f 26/26/26 27/27/27 77/77/77
f 77/77/77 27/27/27 74/74/74
f 8/8/8 80/80/80 6/6/6
f 6/6/6 80/80/80 76/76/76
f 85/85/85 24/24/24 82/82/82
f 82/82/82 24/24/24 81/81/81
f 24/24/24 26/26/26 81/81/81
f 81/81/81 26/26/26 77/77/77
f 87/87/87 85/85/85 83/83/83
f 83/83/83 85/85/85 82/82/82
f 9/9/9 84/84/84 8/8/8
f 8/8/8 84/84/84 80/80/80
f 87/87/87 83/83/83 9/9/9
f 9/9/9 83/83/83 84/84/84
f 57/57/57 21/89/21 61/61/61
f 61/61/61 21/89/21 19/90/19
f 23/91/23 21/89/21 53/53/53
f 53/53/53 21/89/21 57/57/57
f 25/92/25 23/91/23 49/49/49
f 49/49/49 23/91/23 53/53/53
f 28/93/28 25/92/25 46/46/46
f 46/46/46 25/92/25 49/49/49
f 30/94/30 28/93/28 40/40/40
f 40/40/40 28/93/28 46/46/46
f 32/95/32 30/94/30 38/38/38
f 38/38/38 30/94/30 40/40/40
f 32/95/32 38/38/38 33/96/33
f 33/96/33 38/38/38 37/37/37
f 36/97/36 33/96/33 41/41/41
f 41/41/41 33/96/33 37/37/37
f 1/98/1 36/97/36 43/43/43
f 43/43/43 36/97/36 41/41/41
f 1/98/1 43/43/43 2/99/2
f 2/99/2 43/43/43 44/44/44
f 2/99/2 44/44/44 5/100/5
f 5/100/5 44/44/44 48/48/48
f 5/100/5 48/48/48 7/101/7
f 7/101/7 48/48/48 52/52/52
f 7/101/7 52/52/52 10/102/10
f 10/102/10 52/52/52 56/56/56
f 10/102/10 56/56/56 12/103/12
f 12/103/12 56/56/56 60/60/60
f 60/60/60 64/64/64 12/103/12
f 12/103/12 64/64/64 13/104/13
f 16/105/16 13/104/13 63/63/63
f 63/63/63 13/104/13 64/64/64
f 18/106/18 16/105/16 62/62/62
f 62/62/62 16/105/16 63/63/63
f 18/106/18 62/62/62 19/90/19
f 19/90/19 62/62/62 61/61/61
s off
