# Apple ModelIO OBJ File: Wall_Sign
mtllib Wall_Sign.mtl
g Wall_Sign_SignSG
v -0.43189 -4.71893 3.55069
v -0.638958 -4.63316 3.55069
v -0.43189 -4.71893 0.053114
v -0.638958 -4.63316 0.053114
v -0.724728 -4.4261 3.55069
v -0.724728 -4.4261 0.053114
v -0.43189 -4.4261 3.84353
v -0.43189 -4.63316 3.75776
v 0.446768 -4.4261 3.84353
v 0.446768 -4.63316 3.75776
v 0.446768 -4.71893 3.55069
v -0.638958 -4.4261 3.75776
v -0.724728 4.60447 3.55069
v -0.638958 4.60447 3.75776
v -0.43189 4.60447 3.84353
v 0.739603 -4.4261 3.55069
v 0.653833 -4.63316 3.55069
v 0.739603 -4.4261 0.053114
v 0.653833 -4.63316 0.053114
v 0.446768 -4.71893 0.053114
v 0.653833 -4.4261 3.75776
v 0.446768 4.60447 3.84353
v 0.653833 4.60447 3.75776
v 0.739603 4.60447 3.55069
v -0.638958 4.81153 3.55069
v -0.724728 4.60447 0.053114
v -0.638958 4.81153 0.053114
v -0.43189 4.8973 3.55069
v -0.43189 4.8973 0.053114
v -0.43189 4.81153 3.75776
v 0.446768 4.8973 3.55069
v 0.446768 4.81153 3.75776
v 0.653833 4.81153 3.55069
v 0.446768 4.8973 0.053114
v 0.653833 4.81153 0.053114
v 0.739603 4.60447 0.053114
v -0.638958 4.60447 -0.153953
v -0.638958 -4.4261 -0.153953
v -0.43189 4.60447 -0.239723
v -0.43189 -4.4261 -0.239723
v -0.43189 4.81153 -0.153953
v 0.446768 4.60447 -0.239723
v 0.446768 4.81153 -0.153953
v 0.653833 4.60447 -0.153953
v 0.446768 -4.4261 -0.239723
v 0.653833 -4.4261 -0.153953
v -0.43189 -4.63316 -0.153953
v 0.446768 -4.63316 -0.153953
v -0.6009 -4.5951 3.7197
v 0.615778 -4.5951 3.7197
v -0.6009 4.77348 3.7197
v 0.615778 4.77348 3.7197
v -0.6009 4.77348 -0.115896
v 0.615778 4.77348 -0.115896
v -0.6009 -4.5951 -0.115896
v 0.615778 -4.5951 -0.115896
vn -0.077645 -0.996741 0.021868
vn -0.712966 -0.701004 0.016489
vn -0.077645 -0.996741 -0.021868
vn -0.712966 -0.701004 -0.016489
vn -0.9997 -0.008929 0.022804
vn -0.9997 -0.008929 -0.022804
vn -0.078281 -0.00872 0.996893
vn -0.058633 -0.704921 0.706859
vn 0.078281 -0.00872 0.996893
vn 0.058633 -0.704921 0.706859
vn 0.077645 -0.996741 0.021868
vn -0.709849 -0.0061 0.704327
vn -0.9997 0.008929 0.022804
vn -0.709849 0.0061 0.704327
vn -0.078281 0.00872 0.996893
vn 0.9997 -0.008929 0.022804
vn 0.71297 -0.701001 0.016489
vn 0.9997 -0.008929 -0.022804
vn 0.71297 -0.701001 -0.016489
vn 0.077645 -0.996741 -0.021868
vn 0.709852 -0.0061 0.704324
vn 0.078281 0.00872 0.996893
vn 0.709852 0.0061 0.704324
vn 0.9997 0.008929 0.022804
vn -0.712969 0.701002 0.016489
vn -0.9997 0.008929 -0.022804
vn -0.712969 0.701002 -0.016489
vn -0.077649 0.996741 0.021869
vn -0.077649 0.996741 -0.021869
vn -0.058633 0.704918 0.706861
vn 0.077649 0.996741 0.021869
vn 0.058633 0.704918 0.706861
vn 0.712972 0.700999 0.016489
vn 0.077649 0.996741 -0.021869
vn 0.712972 0.700999 -0.016489
vn 0.9997 0.008929 -0.022804
vn -0.709849 0.0061 -0.704327
vn -0.709849 -0.0061 -0.704327
vn -0.078281 0.00872 -0.996893
vn -0.078281 -0.00872 -0.996893
vn -0.058633 0.704918 -0.706861
vn 0.078281 0.00872 -0.996893
vn 0.058633 0.704918 -0.706861
vn 0.709852 0.0061 -0.704324
vn 0.078281 -0.00872 -0.996893
vn 0.709852 -0.0061 -0.704324
vn -0.058633 -0.704921 -0.706858
vn 0.058633 -0.704921 -0.706859
vn -0.495525 -0.603759 0.624444
vn 0.495534 -0.603754 0.624442
vn -0.495525 0.603759 0.624444
vn 0.495535 0.603755 0.624441
vn -0.495525 0.603759 -0.624444
vn 0.495535 0.603755 -0.62444
vn -0.495525 -0.603759 -0.624444
vn 0.495535 -0.603753 -0.624441
vt 0.360283 0.777726
vt 0.373483 0.77764
vt 0.359837 0.982836
vt 0.372989 0.982955
vt 0.383875 0.763152
vt 0.38412 0.750543
vt 0.579828 0.763185
vt 0.579723 0.750645
vt 0.359152 0.750574
vt 0.360283 0.763492
vt 0.309791 0.75065
vt 0.308756 0.76397
vt 0.30886 0.777343
vt 0.371641 0.750548
vt 0.384227 0.245566
vt 0.371739 0.245598
vt 0.359281 0.245666
vt 0.2848 0.750602
vt 0.285014 0.763223
vt 0.089124 0.75044
vt 0.089001 0.762985
vt 0.295688 0.777208
vt 0.295126 0.982758
vt 0.308286 0.982704
vt 0.29729 0.75062
vt 0.310261 0.245634
vt 0.297801 0.245547
vt 0.285314 0.245496
vt 0.383991 0.232848
vt 0.579904 0.245589
vt 0.580027 0.233046
vt 0.373483 0.221274
vt 0.360279 0.221045
vt 0.373392 0.016986
vt 0.360311 0.017079
vt 0.359923 0.233537
vt 0.309282 0.221046
vt 0.309635 0.233517
vt 0.296082 0.221283
vt 0.309068 0.0171
vt 0.295988 0.017019
vt 0.285571 0.232774
vt 0.08947 0.232664
vt 0.089572 0.245215
vt 0.592438 0.245554
vt 0.592255 0.75069
vt 0.002796 0.245093
vt 0.015336 0.245137
vt 0.00236 0.750404
vt 0.0149 0.750381
vt 0.015036 0.232553
vt 0.064492 0.245182
vt 0.06481 0.232598
vt 0.36062 0.003968
vt 0.308746 0.003988
vt 0.077032 0.24516
vt 0.06405 0.750425
vt 0.076588 0.75047
vt 0.360134 0.996032
vt 0.307941 0.995901
vt 0.014579 0.762961
vt 0.064354 0.763
vt 0.372041 0.760967
vt 0.371834 0.766048
vt 0.297624 0.766072
vt 0.296828 0.761152
vt 0.371562 0.234261
vt 0.298001 0.234224
vt 0.004569 0.234585
vt 0.590517 0.235067
vt 0.371502 0.006072
vt 0.078975 0.234654
vt 0.075262 0.234649
vt 0.297863 0.006099
vt 0.371098 0.993934
vt 0.590307 0.761177
vt 0.004128 0.760911
vt 0.078513 0.760976
vt 0.297001 0.993757
vt 0.074808 0.760965
usemtl SignSG
f 1/1/1 2/2/2 3/3/3
f 3/3/3 2/2/2 4/4/4
f 2/5/2 5/6/5 4/7/4
f 4/7/4 5/6/5 6/8/6
f 7/9/7 8/10/8 9/11/9
f 9/11/9 8/10/8 10/12/10
f 8/10/8 1/1/1 10/12/10
f 10/12/10 1/1/1 11/13/11
f 5/6/5 12/14/12 13/15/13
f 13/15/13 12/14/12 14/16/14
f 12/14/12 7/9/7 14/16/14
f 14/16/14 7/9/7 15/17/15
f 16/18/16 17/19/17 18/20/18
f 18/20/18 17/19/17 19/21/19
f 17/22/17 11/13/11 19/23/19
f 19/23/19 11/13/11 20/24/20
f 9/11/9 21/25/21 22/26/22
f 22/26/22 21/25/21 23/27/23
f 21/25/21 16/18/16 23/27/23
f 23/27/23 16/18/16 24/28/24
f 13/15/13 25/29/25 26/30/26
f 26/30/26 25/29/25 27/31/27
f 25/32/25 28/33/28 27/34/27
f 27/34/27 28/33/28 29/35/29
f 28/33/28 30/36/30 31/37/31
f 31/37/31 30/36/30 32/38/32
f 30/36/30 15/17/15 32/38/32
f 32/38/32 15/17/15 22/26/22
f 31/37/31 33/39/33 34/40/34
f 34/40/34 33/39/33 35/41/35
f 33/42/33 24/28/24 35/43/35
f 35/43/35 24/28/24 36/44/36
f 26/30/26 37/45/37 6/8/6
f 6/8/6 37/45/37 38/46/38
f 37/47/37 39/48/39 38/49/38
f 38/49/38 39/48/39 40/50/40
f 39/48/39 41/51/41 42/52/42
f 42/52/42 41/51/41 43/53/43
f 41/54/41 29/35/29 43/55/43
f 43/55/43 29/35/29 34/40/34
f 42/52/42 44/56/44 45/57/45
f 45/57/45 44/56/44 46/58/46
f 44/56/44 36/44/36 46/58/46
f 46/58/46 36/44/36 18/20/18
f 3/3/3 47/59/47 20/24/20
f 20/24/20 47/59/47 48/60/48
f 47/61/47 40/50/40 48/62/48
f 48/62/48 40/50/40 45/57/45
f 7/9/7 9/11/9 15/17/15
f 15/17/15 9/11/9 22/26/22
f 28/33/28 31/37/31 29/35/29
f 29/35/29 31/37/31 34/40/34
f 39/48/39 42/52/42 40/50/40
f 40/50/40 42/52/42 45/57/45
f 3/3/3 20/24/20 1/1/1
f 1/1/1 20/24/20 11/13/11
f 16/18/16 18/20/18 24/28/24
f 24/28/24 18/20/18 36/44/36
f 6/8/6 5/6/5 26/30/26
f 26/30/26 5/6/5 13/15/13
f 5/6/5 2/5/2 12/14/12
f 12/14/12 2/5/2 49/63/49
f 2/2/2 1/1/1 49/64/49
f 49/64/49 1/1/1 8/10/8
f 8/10/8 7/9/7 49/63/49
f 49/63/49 7/9/7 12/14/12
f 10/12/10 11/13/11 50/65/50
f 50/65/50 11/13/11 17/22/17
f 16/18/16 21/25/21 17/19/17
f 17/19/17 21/25/21 50/66/50
f 21/25/21 9/11/9 50/66/50
f 50/66/50 9/11/9 10/12/10
f 30/36/30 28/33/28 51/67/51
f 51/67/51 28/33/28 25/32/25
f 13/15/13 14/16/14 25/29/25
f 25/29/25 14/16/14 51/67/51
f 14/16/14 15/17/15 51/67/51
f 51/67/51 15/17/15 30/36/30
f 24/28/24 33/42/33 23/27/23
f 23/27/23 33/42/33 52/68/52
f 33/39/33 31/37/31 52/68/52
f 52/68/52 31/37/31 32/38/32
f 32/38/32 22/26/22 52/68/52
f 52/68/52 22/26/22 23/27/23
f 41/51/41 39/48/39 53/69/53
f 53/69/53 39/48/39 37/47/37
f 26/30/26 27/31/27 37/45/37
f 37/45/37 27/31/27 53/70/53
f 27/34/27 29/35/29 53/71/53
f 53/71/53 29/35/29 41/54/41
f 36/44/36 44/56/44 35/43/35
f 35/43/35 44/56/44 54/72/54
f 44/56/44 42/52/42 54/73/54
f 54/73/54 42/52/42 43/53/43
f 43/55/43 34/40/34 54/74/54
f 54/74/54 34/40/34 35/41/35
f 47/59/47 3/3/3 55/75/55
f 55/75/55 3/3/3 4/4/4
f 6/8/6 38/46/38 4/7/4
f 4/7/4 38/46/38 55/76/55
f 38/49/38 40/50/40 55/77/55
f 55/77/55 40/50/40 47/61/47
f 18/20/18 19/21/19 46/58/46
f 46/58/46 19/21/19 56/78/56
f 19/23/19 20/24/20 56/79/56
f 56/79/56 20/24/20 48/60/48
f 48/62/48 45/57/45 56/80/56
f 56/80/56 45/57/45 46/58/46
s off
g Wall_Sign_Tube3SG
v 0.417698 3.46984 -1.41512
v 0.159561 3.6574 -1.41414
v 0.417698 3.46785 1.41831
v 0.159561 3.65541 1.41929
v -0.159565 3.6574 -1.41414
v -0.159565 3.65541 1.41929
v -0.417706 3.46984 -1.41512
v -0.417706 3.46785 1.41831
v -0.516342 3.16634 -1.41672
v -0.516342 3.16436 1.41672
v -0.417706 2.86285 -1.41831
v -0.417706 2.86087 1.41513
v -0.159569 2.67529 -1.41929
v -0.159569 2.67331 1.41414
v 0.159561 2.67529 -1.41929
v 0.159561 2.67331 1.41414
v 0.417698 2.86285 -1.41831
v 0.417698 2.86087 1.41513
v 0.516342 3.16634 -1.41672
v 0.516342 3.16436 1.41672
v 0.417698 -2.86087 -1.41512
v 0.159561 -2.67331 -1.41414
v 0.417698 -2.86286 1.41831
v 0.159561 -2.6753 1.41929
v -0.159565 -2.67331 -1.41414
v -0.159565 -2.6753 1.41929
v -0.417706 -2.86087 -1.41512
v -0.417706 -2.86286 1.41831
v -0.516342 -3.16437 -1.41672
v -0.516342 -3.16635 1.41672
v -0.417706 -3.46786 -1.41831
v -0.417706 -3.46984 1.41513
v -0.159569 -3.65542 -1.41929
v -0.159569 -3.6574 1.41414
v 0.159561 -3.65542 -1.41929
v 0.159561 -3.6574 1.41414
v 0.417698 -3.46786 -1.41831
v 0.417698 -3.46984 1.41513
v 0.516342 -3.16437 -1.41672
v 0.516342 -3.16635 1.41672
vn 0.809434 0.587212 0.00041
vn 0.309273 0.950973 0.000666
vn 0.808582 0.588383 0.000411
vn 0.308746 0.951144 0.000666
vn -0.309272 0.950973 0.000666
vn -0.308745 0.951145 0.000667
vn -0.80944 0.587203 0.000411
vn -0.808588 0.588375 0.000412
vn -1 -0.000898 -1e-06
vn -1 0.00089 1e-06
vn -0.808592 -0.588369 -0.000411
vn -0.809443 -0.587198 -0.00041
vn -0.308754 -0.951142 -0.000664
vn -0.309282 -0.95097 -0.000664
vn 0.308754 -0.951142 -0.000664
vn 0.309282 -0.95097 -0.000664
vn 0.808586 -0.588378 -0.000411
vn 0.809437 -0.587207 -0.00041
vn 1 -0.000894 -1e-06
vn 1 0.000894 1e-06
vn 0.809433 0.587212 0.000411
vn 0.309272 0.950974 0.000667
vn 0.808582 0.588383 0.000412
vn 0.308744 0.951145 0.000667
vn -0.309271 0.950974 0.000667
vn -0.808589 0.588374 0.000412
vn -1 -0.000898 -0
vn -0.808592 -0.58837 -0.000411
vn -0.308752 -0.951142 -0.000664
vn -0.30928 -0.950971 -0.000664
vn 0.308753 -0.951142 -0.000664
vn 0.30928 -0.950971 -0.000664
vn 0.808585 -0.588379 -0.000411
vn 1 -0.000894 -0
vt 0.001747 0.996032
vt 0.001747 0.947451
vt 0.438584 0.996032
vt 0.438584 0.947451
vt 0.001747 0.89824
vt 0.438584 0.89824
vt 0.001747 0.849029
vt 0.438584 0.849029
vt 0.001747 0.799778
vt 0.438584 0.799778
vt 0.001747 0.75052
vt 0.438584 0.75052
vt 0.001747 0.70128
vt 0.438584 0.70128
vt 0.001747 0.652021
vt 0.438584 0.652021
vt 0.001747 0.602771
vt 0.438584 0.602771
vt 0.001747 0.553511
vt 0.438584 0.553511
vt 0.001747 0.504225
vt 0.438584 0.504225
vt 0.001747 0.495786
vt 0.001747 0.447197
vt 0.438575 0.495786
vt 0.438575 0.447197
vt 0.001747 0.397984
vt 0.438575 0.397984
vt 0.001747 0.348773
vt 0.438575 0.348773
vt 0.001747 0.299522
vt 0.438575 0.299522
vt 0.001747 0.250263
vt 0.438575 0.250263
vt 0.001747 0.201025
vt 0.438575 0.201025
vt 0.001747 0.151764
vt 0.438575 0.151764
vt 0.001747 0.102515
vt 0.438575 0.102515
vt 0.001747 0.053254
vt 0.438575 0.053254
vt 0.001747 0.003968
vt 0.438575 0.003968
usemtl Tube3SG
f 57/81/57 58/82/58 59/83/59
f 59/83/59 58/82/58 60/84/60
f 58/82/58 61/85/61 60/84/60
f 60/84/60 61/85/61 62/86/62
f 63/87/63 64/88/64 61/85/61
f 61/85/61 64/88/64 62/86/62
f 65/89/65 66/90/66 63/87/63
f 63/87/63 66/90/66 64/88/64
f 67/91/67 68/92/68 65/89/65
f 65/89/65 68/92/68 66/90/66
f 69/93/69 70/94/70 67/91/67
f 67/91/67 70/94/70 68/92/68
f 69/93/69 71/95/71 70/94/70
f 70/94/70 71/95/71 72/96/72
f 71/95/71 73/97/73 72/96/72
f 72/96/72 73/97/73 74/98/74
f 73/97/73 75/99/75 74/98/74
f 74/98/74 75/99/75 76/100/76
f 75/99/75 57/101/57 76/100/76
f 76/100/76 57/101/57 59/102/59
f 77/103/77 78/104/78 79/105/79
f 79/105/79 78/104/78 80/106/80
f 78/104/78 81/107/81 80/106/80
f 80/106/80 81/107/81 82/108/62
f 83/109/63 84/110/82 81/107/81
f 81/107/81 84/110/82 82/108/62
f 85/111/83 86/112/66 83/109/63
f 83/109/63 86/112/66 84/110/82
f 87/113/84 88/114/68 85/111/83
f 85/111/83 88/114/68 86/112/66
f 89/115/85 90/116/86 87/113/84
f 87/113/84 90/116/86 88/114/68
f 89/115/85 91/117/87 90/116/86
f 90/116/86 91/117/87 92/118/88
f 91/117/87 93/119/89 92/118/88
f 92/118/88 93/119/89 94/120/74
f 93/119/89 95/121/90 94/120/74
f 94/120/74 95/121/90 96/122/76
f 95/121/90 77/123/77 96/122/76
f 96/122/76 77/123/77 79/124/79
s off
