# This file uses centimeters as units for non-parametric coordinates.

mtllib spoon.mtl
g default
v 1.495776 1.405580 -0.839485
v 1.387750 1.443089 -1.005466
v 1.033630 1.078771 -0.856526
v 1.141549 1.044828 -0.688206
v 0.747570 0.778248 -0.734255
v 0.850926 0.747741 -0.567724
v 0.596974 0.620939 -0.675618
v 0.696864 0.596354 -0.505027
v 1.211379 0.933912 -0.751001
v 0.922650 0.635231 -0.629918
v 0.770807 0.496339 -0.548538
v 1.568793 1.310854 -0.897998
v 1.471737 1.336066 -1.078996
v 1.097875 0.963486 -0.925959
v 0.812759 0.667674 -0.801761
v 0.671994 0.523227 -0.738603
v 0.553627 0.585197 -0.662947
v 0.665624 0.554980 -0.478916
v 0.742968 0.458070 -0.521547
v 0.628668 0.492034 -0.732445
v 0.546447 0.537689 -0.650876
v 0.652339 0.513449 -0.473436
v 0.467825 0.514274 -0.742685
v 0.472419 0.497072 -0.702267
v 0.642195 0.435464 -0.389653
v 0.661244 0.445320 -0.367947
v 0.326700 0.426600 -0.757734
v 0.330634 0.422235 -0.721752
v 0.592750 0.357397 -0.306245
v 0.613232 0.353918 -0.281037
v 0.208558 0.343554 -0.718597
v 0.211559 0.342948 -0.693710
v 0.510259 0.268874 -0.251448
v 0.531457 0.266845 -0.219906
v 0.408752 0.189927 -0.213939
v 0.430025 0.181782 -0.182971
v 0.305184 0.123255 -0.205796
v 0.307509 0.114594 -0.176261
v 0.122808 0.255938 -0.671341
v 0.138129 0.260179 -0.641153
v 0.060389 0.178944 -0.607794
v 0.079925 0.192386 -0.581255
v 0.022070 0.115332 -0.531717
v 0.039163 0.128962 -0.505520
v 0.199476 0.071903 -0.219661
v 0.207846 0.064861 -0.197763
v 0.116103 0.046003 -0.257241
v 0.116369 0.029508 -0.243144
v 0.009471 0.075883 -0.458824
v 0.029908 0.093338 -0.449300
v 0.021366 0.045884 -0.376741
v 0.047148 0.066273 -0.382844
v 0.072058 0.050341 -0.318634
v 0.052937 0.025032 -0.308073
v 0.519631 0.388358 -0.580560
v 0.551188 0.379110 -0.526946
v 0.476503 0.383950 -0.616205
v 0.384033 0.346936 -0.639112
v 0.295017 0.286928 -0.622060
v 0.219490 0.225582 -0.580326
v 0.158475 0.170732 -0.527918
v 0.120457 0.121182 -0.467419
v 0.115562 0.101463 -0.432308
v 0.122995 0.086931 -0.394949
v 0.141031 0.078855 -0.358740
v 0.172222 0.080175 -0.330586
v 0.211111 0.090093 -0.310839
v 0.294882 0.129292 -0.299093
v 0.382560 0.181186 -0.316147
v 0.465006 0.242791 -0.350857
v 0.528848 0.306620 -0.401466
v 0.558786 0.359062 -0.476044
v 0.481604 0.330428 -0.550798
v 0.497391 0.325938 -0.524331
v 0.466429 0.334147 -0.570120
v 0.417453 0.300998 -0.567389
v 0.350722 0.250591 -0.548105
v 0.282047 0.198931 -0.514791
v 0.221191 0.152357 -0.476371
v 0.177313 0.117351 -0.438728
v 0.165654 0.107770 -0.424881
v 0.174538 0.102607 -0.408252
v 0.186158 0.098157 -0.387279
v 0.196662 0.096637 -0.370691
v 0.216951 0.103860 -0.371248
v 0.278574 0.134662 -0.381578
v 0.349924 0.179742 -0.404636
v 0.420162 0.231828 -0.436221
v 0.476158 0.284863 -0.471201
v 0.507115 0.322523 -0.502009
v 0.709630 0.384480 -0.415548
v 0.647926 0.302505 -0.315790
v 0.557760 0.219011 -0.242759
v 0.453222 0.131977 -0.208275
v 0.331024 0.067725 -0.184560
v 0.224161 0.020349 -0.199989
v 0.134221 -0.014276 -0.248302
v 0.070241 -0.023314 -0.314906
v 0.031215 -0.005901 -0.389239
v 0.026277 0.026424 -0.475292
v 0.042932 0.080699 -0.557497
v 0.524035 0.443497 -0.759469
v 0.382587 0.363718 -0.772834
v 0.253712 0.293810 -0.750773
v 0.171036 0.213771 -0.701968
v 0.095264 0.141941 -0.634688
v 0.635539 0.334614 -0.562432
v 0.596239 0.346622 -0.629893
v 0.652425 0.322455 -0.510273
v 0.601011 0.255552 -0.462315
v 0.521308 0.170955 -0.411016
v 0.425360 0.092700 -0.366768
v 0.324143 0.029647 -0.333991
v 0.229521 -0.011772 -0.325923
v 0.191628 -0.022655 -0.331941
v 0.168903 -0.021612 -0.371468
v 0.143803 -0.012383 -0.420373
v 0.126046 0.000850 -0.459076
v 0.146415 0.015580 -0.483643
v 0.212243 0.062810 -0.539865
v 0.295833 0.127628 -0.593823
v 0.388167 0.204473 -0.638232
v 0.483514 0.285628 -0.664251
v 0.560721 0.349780 -0.673164
v 0.565117 0.256054 -0.532092
v 0.525699 0.266232 -0.599913
v 0.180023 0.001331 -0.436218
v 0.208719 -0.008150 -0.381975
v 0.295418 0.033779 -0.408661
v 0.258079 0.044936 -0.477081
v 0.389350 0.095953 -0.447764
v 0.346292 0.107639 -0.523262
v 0.482575 0.172685 -0.491024
v 0.438411 0.183915 -0.566537
v 0.436581 0.288277 -0.536290
v 0.456264 0.282878 -0.504025
v 0.208161 0.107688 -0.395776
v 0.194421 0.112337 -0.419004
v 0.264598 0.137783 -0.416797
v 0.245374 0.143764 -0.448455
v 0.331383 0.180828 -0.444683
v 0.308570 0.187342 -0.481656
v 0.399344 0.230937 -0.475890
v 0.376173 0.237233 -0.513299
v 0.499053 0.353506 -0.562634
v 0.519933 0.347419 -0.527387
v 0.527002 0.335713 -0.492640
v 0.499467 0.293385 -0.437896
v 0.441199 0.236672 -0.394863
v 0.366245 0.180892 -0.361913
v 0.287996 0.132554 -0.342660
v 0.216805 0.098124 -0.344082
v 0.187626 0.089954 -0.354568
v 0.166405 0.089357 -0.375320
v 0.151877 0.094870 -0.401342
v 0.145570 0.104900 -0.427607
v 0.152885 0.119829 -0.453169
v 0.192158 0.161872 -0.502044
v 0.252289 0.212542 -0.546877
v 0.323948 0.267864 -0.583240
v 0.400365 0.320710 -0.600259
v 0.470520 0.352118 -0.587761
v 0.541143 0.445274 -0.606635
v 0.594112 0.430285 -0.517207
v 0.600188 0.393132 -0.446589
v 0.563849 0.325503 -0.358452
v 0.490915 0.251015 -0.302792
v 0.398625 0.181163 -0.266281
v 0.300543 0.124165 -0.249640
v 0.203785 0.078941 -0.271227
v 0.149708 0.065197 -0.298975
v 0.107547 0.064003 -0.338134
v 0.087847 0.076784 -0.388984
v 0.075256 0.095144 -0.439507
v 0.080625 0.121105 -0.484772
v 0.120041 0.179005 -0.555221
v 0.182517 0.238930 -0.614530
v 0.259936 0.309366 -0.664115
v 0.363172 0.378129 -0.682653
v 0.480104 0.432309 -0.654923
v 0.394301 0.460694 -0.720119
v 0.403834 0.474095 -0.760881
v 0.455258 0.404563 -0.770632
v 0.527102 0.322652 -0.669907
v 0.563726 0.306744 -0.613386
v 0.600224 0.296653 -0.549840
v 0.630916 0.294303 -0.488974
v 0.684756 0.345063 -0.367743
v 0.641166 0.408427 -0.327132
v 0.621768 0.398307 -0.346472
v 0.587664 0.360165 -0.397363
v 0.549540 0.334630 -0.434954
v 0.518551 0.317047 -0.463702
v 0.495709 0.306950 -0.488361
v 0.478428 0.305801 -0.515666
v 0.461370 0.310579 -0.543986
v 0.446064 0.320866 -0.570706
v 0.437219 0.340105 -0.598890
v 0.430112 0.369184 -0.634310
v 0.419849 0.410105 -0.678482
v 0.459376 0.228362 -0.230799
v 0.479090 0.223070 -0.197592
v 0.508322 0.173405 -0.224563
v 0.474426 0.130339 -0.388397
v 0.436601 0.132883 -0.469429
v 0.392330 0.144466 -0.545778
v 0.341241 0.164901 -0.617800
v 0.210183 0.251051 -0.727727
v 0.160153 0.299337 -0.692680
v 0.172930 0.296830 -0.666629
v 0.218966 0.273407 -0.641351
v 0.255566 0.255482 -0.603454
v 0.287119 0.239614 -0.566881
v 0.315975 0.224221 -0.532763
v 0.342636 0.211534 -0.498058
v 0.365989 0.205083 -0.460347
v 0.386104 0.204993 -0.419704
v 0.405133 0.207850 -0.377020
v 0.425585 0.210863 -0.331338
v 0.446522 0.215136 -0.281693
v 0.268023 0.382419 -0.748223
v 0.271199 0.384731 -0.713414
v 0.310100 0.344289 -0.677550
v 0.338373 0.318121 -0.633930
v 0.362031 0.295738 -0.594453
v 0.384963 0.276923 -0.559804
v 0.407894 0.263383 -0.526091
v 0.429746 0.257450 -0.490618
v 0.450597 0.259167 -0.453448
v 0.472986 0.266017 -0.415049
v 0.499929 0.275489 -0.373817
v 0.531015 0.288506 -0.327428
v 0.555131 0.314228 -0.273920
v 0.573254 0.311453 -0.247268
v 0.604726 0.261408 -0.273167
v 0.564159 0.213314 -0.435472
v 0.525858 0.214199 -0.512022
v 0.483426 0.224908 -0.584528
v 0.436156 0.245262 -0.653947
v 0.313190 0.328753 -0.766474
v 0.352923 0.149934 -0.208272
v 0.353962 0.141381 -0.175478
v 0.387853 0.095707 -0.191009
v 0.374429 0.058672 -0.348095
v 0.341812 0.062591 -0.427081
v 0.301129 0.074159 -0.499974
v 0.252303 0.093202 -0.567353
v 0.125874 0.172312 -0.665384
v 0.084932 0.213339 -0.635794
v 0.107407 0.222393 -0.611493
v 0.149725 0.207542 -0.585921
v 0.186833 0.197651 -0.554887
v 0.220341 0.186678 -0.524918
v 0.250052 0.174891 -0.495780
v 0.275873 0.164559 -0.464775
v 0.297158 0.158225 -0.430008
v 0.313627 0.156142 -0.391676
v 0.326602 0.155779 -0.350279
v 0.338209 0.154167 -0.305306
v 0.348844 0.150377 -0.256290
v 0.057550 0.157023 -0.539779
v 0.034250 0.138853 -0.562299
v 0.060067 0.103170 -0.589023
v 0.176625 0.036433 -0.511189
v 0.217955 0.020504 -0.455303
v 0.251093 0.010116 -0.393256
v 0.275586 0.006006 -0.325609
v 0.267499 0.039250 -0.189332
v 0.244045 0.083975 -0.188467
v 0.249133 0.094344 -0.213221
v 0.252176 0.099952 -0.258142
v 0.252450 0.107328 -0.301610
v 0.250951 0.112609 -0.340155
v 0.245730 0.116770 -0.374724
v 0.234571 0.120757 -0.405421
v 0.217996 0.126112 -0.432984
v 0.196263 0.132514 -0.456863
v 0.169049 0.139082 -0.478169
v 0.135415 0.144667 -0.499016
v 0.095684 0.149412 -0.521473
v 0.687525 0.376681 -0.557320
v 0.622273 0.395767 -0.670975
v 0.554233 0.382838 -0.713816
v 0.495694 0.354370 -0.723733
v 0.438101 0.317360 -0.724770
v 0.381988 0.277771 -0.718518
v 0.329357 0.237234 -0.704112
v 0.282176 0.197053 -0.682618
v 0.237600 0.159058 -0.657031
v 0.194495 0.122516 -0.626844
v 0.157276 0.090785 -0.595489
v 0.124000 0.060180 -0.559369
v 0.100241 0.033920 -0.522730
v 0.087205 0.004447 -0.470617
v 0.096960 -0.019766 -0.410490
v 0.127843 -0.031943 -0.350076
v 0.174194 -0.028748 -0.299027
v 0.232671 -0.011953 -0.268099
v 0.286373 0.011074 -0.252967
v 0.340986 0.038533 -0.252888
v 0.394837 0.068256 -0.262392
v 0.451408 0.104008 -0.280179
v 0.502509 0.141527 -0.302589
v 0.551447 0.183163 -0.325324
v 0.595846 0.226676 -0.352766
v 0.632926 0.269316 -0.389154
v 0.662504 0.309967 -0.431111
v 0.683832 0.344451 -0.478769
vt 0.916259 0.475680
vt 0.763384 0.475680
vt 0.763384 0.275118
vt 0.916259 0.275118
vt 0.763384 0.115891
vt 0.916259 0.115891
vt 0.763384 0.036264
vt 0.916259 0.036264
vt 0.984492 0.115891
vt 0.984492 0.275118
vt 0.984492 0.036264
vt 0.984492 0.475680
vt 0.916259 0.528337
vt 0.763384 0.528337
vt 0.916259 0.729533
vt 0.763384 0.729533
vt 0.916259 0.888573
vt 0.763384 0.888573
vt 0.916259 0.968133
vt 0.763384 0.968133
vt 0.693890 0.115891
vt 0.693890 0.036264
vt 0.693890 0.275118
vt 0.693890 0.475680
vt 0.763384 0.015688
vt 0.916259 0.015688
vt 0.984492 0.015688
vt 0.916259 0.987474
vt 0.763384 0.987474
vt 0.693890 0.015688
vt 0.182525 0.529388
vt 0.299880 0.531757
vt 0.306861 0.552390
vt 0.166546 0.540270
vt 0.363183 0.481792
vt 0.368440 0.505318
vt 0.101881 0.480908
vt 0.097660 0.496302
vt 0.439194 0.403020
vt 0.413291 0.453117
vt 0.393608 0.443596
vt 0.422370 0.394386
vt 0.076976 0.450167
vt 0.065430 0.459945
vt 0.041561 0.416345
vt 0.054154 0.403681
vt 0.436541 0.348438
vt 0.454283 0.352016
vt 0.022729 0.368736
vt 0.038739 0.361131
vt 0.030998 0.317142
vt 0.011089 0.318654
vt 0.008786 0.267539
vt 0.029075 0.269996
vt 0.034920 0.227325
vt 0.016721 0.218290
vt 0.030505 0.169457
vt 0.047493 0.172151
vt 0.461664 0.296598
vt 0.448738 0.299480
vt 0.447265 0.252758
vt 0.462105 0.248342
vt 0.437376 0.213882
vt 0.423805 0.172208
vt 0.441298 0.167838
vt 0.453724 0.207629
vt 0.371702 0.071366
vt 0.400067 0.096312
vt 0.384123 0.108237
vt 0.366186 0.088980
vt 0.088387 0.101285
vt 0.075739 0.093690
vt 0.109117 0.067539
vt 0.108364 0.081497
vt 0.167775 0.043134
vt 0.168106 0.031861
vt 0.330723 0.042148
vt 0.325396 0.054653
vt 0.280568 0.017101
vt 0.274070 0.032221
vt 0.224744 0.030175
vt 0.224308 0.013744
vt 0.615313 0.956442
vt 0.463735 0.947994
vt 0.501826 0.885544
vt 0.576576 0.888209
vt 0.410922 0.897731
vt 0.452631 0.858856
vt 0.400536 0.780378
vt 0.419414 0.823060
vt 0.374328 0.844107
vt 0.354576 0.793049
vt 0.342218 0.742582
vt 0.389000 0.736687
vt 0.347944 0.640592
vt 0.387554 0.650042
vt 0.383687 0.692225
vt 0.337253 0.687604
vt 0.370661 0.561046
vt 0.405374 0.572752
vt 0.395429 0.609980
vt 0.357040 0.600290
vt 0.454880 0.477113
vt 0.433489 0.504872
vt 0.406576 0.490448
vt 0.425428 0.461253
vt 0.484326 0.453530
vt 0.462017 0.429188
vt 0.522177 0.441365
vt 0.512866 0.412641
vt 0.563437 0.404898
vt 0.562049 0.435190
vt 0.600870 0.449680
vt 0.617460 0.412883
vt 0.635449 0.478243
vt 0.667646 0.459726
vt 0.687021 0.494549
vt 0.658636 0.509748
vt 0.695633 0.624764
vt 0.688179 0.582611
vt 0.721160 0.573283
vt 0.733923 0.622001
vt 0.696362 0.712171
vt 0.698572 0.668413
vt 0.736980 0.670042
vt 0.736569 0.720177
vt 0.677469 0.794921
vt 0.690178 0.754985
vt 0.733184 0.769840
vt 0.720314 0.816447
vt 0.699177 0.858766
vt 0.656937 0.830447
vt 0.626500 0.861012
vt 0.673513 0.895300
vt 0.561835 0.843360
vt 0.517577 0.841965
vt 0.525648 0.812244
vt 0.554725 0.813185
vt 0.500769 0.802564
vt 0.481530 0.825954
vt 0.472134 0.756043
vt 0.483735 0.782909
vt 0.455824 0.799929
vt 0.439105 0.767649
vt 0.429599 0.730365
vt 0.465235 0.724324
vt 0.426789 0.653488
vt 0.462690 0.655497
vt 0.462149 0.690244
vt 0.425464 0.691714
vt 0.439225 0.581836
vt 0.471268 0.588883
vt 0.465886 0.621400
vt 0.431777 0.616628
vt 0.500331 0.509671
vt 0.488143 0.531709
vt 0.462363 0.519938
vt 0.479739 0.495308
vt 0.515347 0.493971
vt 0.502202 0.476810
vt 0.534907 0.487493
vt 0.529629 0.466540
vt 0.556581 0.487249
vt 0.559229 0.464780
vt 0.576642 0.494197
vt 0.587344 0.475823
vt 0.592310 0.510861
vt 0.612060 0.496343
vt 0.630520 0.523425
vt 0.605087 0.534101
vt 0.620543 0.594336
vt 0.653154 0.589604
vt 0.658541 0.627127
vt 0.624119 0.628407
vt 0.622853 0.698503
vt 0.624917 0.663561
vt 0.660339 0.665947
vt 0.657969 0.704636
vt 0.609357 0.761980
vt 0.617803 0.731835
vt 0.651767 0.741906
vt 0.640586 0.776153
vt 0.623256 0.805675
vt 0.596930 0.787126
vt 0.597919 0.828888
vt 0.579668 0.805092
vt 0.133608 0.442119
vt 0.183334 0.471930
vt 0.086217 0.385620
vt 0.110383 0.418365
vt 0.069037 0.348982
vt 0.062422 0.269765
vt 0.061278 0.309807
vt 0.074732 0.186751
vt 0.067580 0.229815
vt 0.124550 0.098785
vt 0.106566 0.118743
vt 0.175167 0.066775
vt 0.221935 0.055345
vt 0.265358 0.057117
vt 0.309527 0.076605
vt 0.353562 0.109493
vt 0.332331 0.442548
vt 0.291570 0.469034
vt 0.358421 0.413734
vt 0.381504 0.377367
vt 0.399886 0.339883
vt 0.410145 0.302046
vt 0.408294 0.264967
vt 0.404150 0.231160
vt 0.395471 0.191561
vt 0.367163 0.128604
vt 0.201972 0.429025
vt 0.265269 0.426559
vt 0.164351 0.415626
vt 0.126209 0.369428
vt 0.143332 0.396010
vt 0.113815 0.338209
vt 0.107660 0.268569
vt 0.108210 0.303817
vt 0.113334 0.198092
vt 0.108299 0.233751
vt 0.159181 0.116309
vt 0.137738 0.138957
vt 0.188638 0.096777
vt 0.222289 0.088540
vt 0.256928 0.090222
vt 0.288527 0.101332
vt 0.312676 0.121648
vt 0.326783 0.143573
vt 0.352450 0.232061
vt 0.346611 0.199635
vt 0.354739 0.298306
vt 0.355203 0.264747
vt 0.337771 0.363825
vt 0.348906 0.331990
vt 0.322172 0.392178
vt 0.301606 0.413832
vt 0.250876 0.375626
vt 0.211957 0.376844
vt 0.209597 0.351549
vt 0.252208 0.350181
vt 0.294868 0.353962
vt 0.287429 0.378968
vt 0.176237 0.381738
vt 0.167786 0.357486
vt 0.222047 0.111413
vt 0.250527 0.112614
vt 0.249675 0.132605
vt 0.217333 0.131740
vt 0.186464 0.127859
vt 0.198812 0.112086
vt 0.273403 0.114957
vt 0.280971 0.130524
vt 0.212372 0.153964
vt 0.174620 0.149327
vt 0.250124 0.154788
vt 0.287945 0.151787
vt 0.160444 0.203554
vt 0.206693 0.205980
vt 0.205654 0.234954
vt 0.157081 0.234651
vt 0.252812 0.206028
vt 0.254004 0.234513
vt 0.302877 0.233486
vt 0.299347 0.203966
vt 0.156518 0.266428
vt 0.205550 0.264763
vt 0.206078 0.294684
vt 0.157500 0.298235
vt 0.161098 0.329082
vt 0.207406 0.324038
vt 0.254701 0.293617
vt 0.254791 0.263883
vt 0.304008 0.294910
vt 0.304644 0.263982
vt 0.253663 0.322550
vt 0.300732 0.325349
vt 0.552714 0.771575
vt 0.529225 0.770666
vt 0.528089 0.746908
vt 0.554962 0.748074
vt 0.581622 0.752668
vt 0.575109 0.775608
vt 0.506482 0.772945
vt 0.500929 0.749164
vt 0.537667 0.504809
vt 0.555039 0.504569
vt 0.556316 0.522381
vt 0.536860 0.522060
vt 0.574832 0.519822
vt 0.569023 0.505754
vt 0.523763 0.505704
vt 0.518216 0.519051
vt 0.558007 0.544050
vt 0.534868 0.543469
vt 0.511876 0.539429
vt 0.581187 0.541266
vt 0.530955 0.596804
vt 0.560232 0.597880
vt 0.560400 0.628322
vt 0.529287 0.627000
vt 0.501542 0.593845
vt 0.498200 0.624780
vt 0.589882 0.597081
vt 0.591692 0.628786
vt 0.528207 0.658300
vt 0.559849 0.659771
vt 0.558748 0.691095
vt 0.527443 0.689590
vt 0.496030 0.656944
vt 0.495609 0.689352
vt 0.590219 0.694008
vt 0.591860 0.661514
vt 0.527438 0.719562
vt 0.557058 0.720945
vt 0.586850 0.724917
vt 0.497179 0.720647
vt 0.529623 0.790903
vt 0.551504 0.791680
vt 0.568778 0.790852
vt 0.512263 0.788877
vt 0.280768 0.397160
vt 0.252133 0.399293
vt 0.212147 0.400683
vt 0.183676 0.398989
vt 0.048803 0.131946
vt 0.062438 0.140421
vt 0.086944 0.152901
vt 0.122637 0.167080
vt 0.166201 0.174883
vt 0.208965 0.178736
vt 0.251475 0.179309
vt 0.294463 0.176629
vt 0.338595 0.170900
vt 0.385340 0.163332
vt 0.408192 0.143371
vt 0.423836 0.133429
vt 0.417262 0.537828
vt 0.383759 0.526622
vt 0.449179 0.549437
vt 0.478584 0.558630
vt 0.506133 0.565077
vt 0.532818 0.568634
vt 0.559445 0.569455
vt 0.586367 0.567521
vt 0.614378 0.562532
vt 0.644745 0.554589
vt 0.678583 0.543874
vt 0.708702 0.535372
vn 0.021199 0.625713 0.779765
vn -0.575816 0.797933 -0.178155
vn -0.735078 0.668316 -0.114077
vn -0.129489 0.480229 0.867533
vn -0.737739 0.666519 -0.107210
vn -0.133324 0.485593 0.863958
vn -0.717647 0.687288 -0.112331
vn -0.167233 0.552559 0.816524
vn 0.725584 -0.681778 0.093308
vn 0.733405 -0.672953 0.096180
vn 0.737096 -0.660048 0.145002
vn 0.860234 -0.508384 0.039283
vn 0.282061 -0.339622 -0.897273
vn 0.133257 -0.482720 -0.865577
vn 0.135496 -0.504325 -0.852817
vn 0.173976 -0.540367 -0.823247
vn -0.620140 0.762075 -0.186196
vn -0.006816 0.599670 0.800218
vn 0.974403 -0.219238 0.049739
vn 0.432609 -0.147470 -0.889439
vn -0.761309 0.337044 0.553904
vn -0.825885 0.350457 0.441694
vn -0.095379 0.655220 -0.749393
vn -0.615769 0.498064 0.610542
vn 0.659583 0.467195 0.588795
vn -0.827359 0.490083 0.274400
vn -0.417017 0.696742 0.583650
vn -0.464057 0.667519 0.582297
vn -0.216279 0.504219 -0.836055
vn -0.330001 0.435531 -0.837503
vn 0.581370 0.385780 0.716367
vn -0.748871 0.635226 0.188892
vn -0.698585 0.691643 0.183329
vn 0.525140 0.313103 0.791325
vn -0.453841 0.372090 -0.809677
vn -0.356804 0.717593 0.598123
vn -0.656883 0.733514 0.174534
vn 0.345565 0.312018 0.885003
vn 0.228549 0.276596 0.933413
vn -0.617014 0.770618 0.159506
vn -0.571193 0.803306 0.168639
vn 0.152660 0.234230 0.960120
vn 0.108369 0.154951 0.981960
vn -0.536956 0.822675 0.186773
vn -0.501502 0.848675 0.168067
vn -0.027242 0.216067 0.975998
vn -0.318111 0.710295 0.627922
vn -0.608104 0.355345 -0.709887
vn -0.690715 0.299570 -0.658157
vn -0.300904 0.703546 0.643801
vn -0.740901 0.231358 -0.630507
vn -0.805248 0.237056 -0.543488
vn -0.359765 0.778064 0.514961
vn -0.341206 0.744844 0.573399
vn -0.457050 0.788844 0.410890
vn -0.425297 0.792506 0.437100
vn -0.917465 0.205018 -0.340919
vn -0.974636 0.064040 -0.214437
vn -0.289455 0.250596 0.923806
vn -0.451219 0.877475 0.162600
vn -0.428330 0.861753 0.271874
vn -0.413079 0.076952 0.907438
vn -0.585643 -0.041172 0.809523
vn -0.435331 0.826816 0.356177
vn -0.433753 0.806147 0.402474
vn -0.999252 0.030370 -0.023959
vn -0.385635 0.835608 0.391208
vn -0.959209 0.049620 0.278308
vn -0.825098 -0.038589 0.563671
vn -0.409709 0.829684 0.379161
vn -0.738934 0.364839 0.566452
vn -0.805095 0.383819 0.452223
vn -0.556084 0.461208 0.691417
vn -0.323879 0.570492 0.754746
vn -0.404028 0.527606 0.747257
vn -0.255038 0.607233 0.752478
vn -0.185095 0.680140 0.709330
vn -0.203021 0.636218 0.744318
vn -0.179671 0.766910 0.616090
vn -0.182209 0.726854 0.662181
vn -0.159206 0.839920 0.518833
vn -0.168096 0.804892 0.569116
vn -0.160481 0.885537 0.435970
vn -0.185329 0.918715 0.348734
vn -0.225899 0.935520 0.271609
vn -0.295559 0.936374 0.189338
vn -0.367364 0.919937 0.136965
vn -0.441390 0.890250 0.112379
vn -0.549699 0.832636 0.067436
vn -0.502846 0.859391 0.092700
vn -0.635390 0.769037 0.069722
vn -0.590188 0.805329 0.055893
vn -0.724770 0.680925 0.105111
vn -0.683794 0.724755 0.084596
vn -0.759808 0.631407 0.154975
vn -0.809782 0.517621 0.276264
vn -0.705867 0.556822 0.437836
vn -0.642086 0.537512 0.546631
vn -0.579457 0.630896 0.515946
vn -0.633955 0.647004 0.423660
vn -0.490916 0.639201 0.591966
vn -0.522672 0.573589 0.630721
vn -0.376325 0.690064 0.618216
vn -0.413691 0.668968 0.617528
vn -0.425340 0.627183 0.652478
vn -0.376698 0.667067 0.642745
vn -0.347123 0.694584 0.630126
vn -0.353835 0.705784 0.613735
vn -0.283302 0.749002 0.598946
vn -0.290135 0.757953 0.584234
vn -0.325170 0.728997 0.602352
vn -0.315289 0.719731 0.618530
vn -0.239804 0.794823 0.557450
vn -0.242403 0.790359 0.562649
vn -0.260930 0.780089 0.568662
vn -0.258825 0.776700 0.574236
vn -0.186540 0.849414 0.493659
vn -0.208678 0.817541 0.536730
vn -0.211432 0.813981 0.541046
vn -0.202090 0.844445 0.496057
vn -0.171861 0.888835 0.424777
vn -0.194096 0.884362 0.424536
vn -0.186361 0.920474 0.343506
vn -0.198965 0.916729 0.346441
vn -0.223672 0.936177 0.271191
vn -0.233335 0.932315 0.276304
vn -0.290095 0.935408 0.202130
vn -0.296861 0.930471 0.214704
vn -0.370493 0.914000 0.165343
vn -0.374497 0.911238 0.171459
vn -0.440664 0.885442 0.147671
vn -0.433961 0.887910 0.152621
vn -0.487231 0.858672 0.159025
vn -0.481026 0.862228 0.158672
vn -0.506506 0.846056 0.166255
vn -0.503373 0.847274 0.169536
vn -0.571404 0.796234 0.198768
vn -0.534594 0.825070 0.182946
vn -0.543355 0.821290 0.173917
vn -0.580500 0.792081 0.188750
vn -0.613583 0.756404 0.226646
vn -0.597631 0.772924 0.213133
vn -0.610113 0.765908 0.202846
vn -0.637099 0.740991 0.212221
vn -0.672092 0.701604 0.236737
vn -0.633004 0.731823 0.252472
vn -0.710985 0.629510 0.313396
vn -0.653192 0.686616 0.319215
vn 0.946207 0.028386 0.322315
vn 0.851333 -0.292723 0.435369
vn 0.905277 -0.208187 0.370314
vn 0.775034 -0.396671 0.491908
vn 0.637807 -0.535824 0.553258
vn 0.701879 -0.465202 0.539400
vn 0.430880 -0.583246 0.688598
vn 0.539542 -0.576665 0.613475
vn -0.057199 -0.656359 0.752277
vn 0.161821 -0.624883 0.763764
vn -0.269406 -0.734891 0.622380
vn -0.509597 -0.802847 0.309432
vn -0.689996 -0.723466 -0.022414
vn -0.683054 -0.641552 -0.349069
vn -0.590163 -0.574382 -0.567268
vn 0.269622 0.112543 -0.956367
vn 0.164706 -0.120822 -0.978915
vn 0.071314 -0.202938 -0.976591
vn -0.038330 -0.257831 -0.965429
vn -0.164010 -0.280691 -0.945681
vn -0.201746 -0.340746 -0.918254
vn -0.248813 -0.406129 -0.879290
vn -0.306733 -0.456316 -0.835279
vn -0.440545 -0.541548 -0.715993
vn 0.794289 -0.461928 -0.394624
vn 0.694217 -0.445257 -0.565517
vn 0.822346 -0.554972 -0.125509
vn 0.759951 -0.649707 -0.018851
vn 0.786970 -0.614124 -0.059407
vn 0.728406 -0.684494 0.029872
vn 0.642918 -0.762293 0.074610
vn 0.690002 -0.721518 0.057519
vn 0.524187 -0.836479 0.159785
vn 0.584321 -0.803502 0.113817
vn 0.224922 -0.935190 0.273552
vn 0.373722 -0.893128 0.250309
vn 0.072887 -0.975523 0.207469
vn -0.065447 -0.997536 -0.025277
vn -0.162577 -0.958161 -0.235575
vn -0.201425 -0.877421 -0.435384
vn -0.135465 -0.812871 -0.566471
vn -0.032547 -0.775296 -0.630760
vn 0.129546 -0.690752 -0.711393
vn 0.081141 -0.719877 -0.689343
vn 0.220978 -0.620521 -0.752411
vn 0.182887 -0.653014 -0.734933
vn 0.337167 -0.569464 -0.749687
vn 0.273896 -0.597425 -0.753700
vn 0.381843 -0.535958 -0.752957
vn 0.451106 -0.504394 -0.736268
vn 0.553971 -0.679473 -0.481074
vn 0.599206 -0.693340 -0.400290
vn 0.590082 -0.712290 -0.380060
vn 0.530194 -0.697121 -0.482615
vn 0.454070 -0.664424 -0.593600
vn 0.476613 -0.657412 -0.583652
vn 0.664757 -0.698812 -0.264119
vn 0.659481 -0.711185 -0.243520
vn 0.189651 -0.958421 -0.213217
vn 0.139962 -0.940385 -0.309979
vn 0.242322 -0.903565 -0.353343
vn 0.298265 -0.922056 -0.246680
vn 0.336245 -0.937317 -0.091526
vn 0.246405 -0.963822 -0.101645
vn 0.089240 -0.907000 -0.411567
vn 0.144238 -0.873558 -0.464857
vn 0.357104 -0.897378 -0.259210
vn 0.402587 -0.910874 -0.090732
vn 0.293928 -0.876956 -0.380204
vn 0.191082 -0.847320 -0.495516
vn 0.492838 -0.861012 -0.125577
vn 0.437319 -0.849122 -0.296217
vn 0.469915 -0.824765 -0.314552
vn 0.530929 -0.833660 -0.152073
vn 0.370624 -0.829651 -0.417513
vn 0.403018 -0.806235 -0.433084
vn 0.310015 -0.774002 -0.552097
vn 0.272781 -0.799086 -0.535773
vn 0.568701 -0.802821 -0.179046
vn 0.502228 -0.798410 -0.332128
vn 0.534300 -0.770298 -0.348087
vn 0.605209 -0.770591 -0.199778
vn 0.636766 -0.739070 -0.219783
vn 0.564589 -0.741111 -0.363310
vn 0.467152 -0.753482 -0.462638
vn 0.435088 -0.780829 -0.448336
vn 0.382494 -0.717170 -0.582551
vn 0.346984 -0.746122 -0.568247
vn 0.499157 -0.725010 -0.474556
vn 0.418852 -0.688651 -0.591881
vn -0.558713 0.730824 0.392093
vn -0.499089 0.714184 0.490766
vn -0.468430 0.730253 0.497297
vn -0.545487 0.751784 0.370492
vn -0.595358 0.758333 0.265481
vn -0.604015 0.741006 0.293387
vn -0.433198 0.692789 0.576527
vn -0.400169 0.703807 0.586959
vn -0.225379 0.907166 0.355321
vn -0.257927 0.919565 0.296436
vn -0.314898 0.898358 0.306254
vn -0.266134 0.882015 0.388873
vn -0.360320 0.907154 0.217349
vn -0.300528 0.925055 0.232285
vn -0.196447 0.886790 0.418345
vn -0.216429 0.858682 0.464569
vn -0.362512 0.878829 0.310234
vn -0.296986 0.857980 0.419129
vn -0.237886 0.831420 0.502147
vn -0.413551 0.886380 0.208099
vn -0.336629 0.826782 0.450680
vn -0.420393 0.851212 0.314178
vn -0.436060 0.842719 0.315716
vn -0.349016 0.817559 0.458023
vn -0.267266 0.797828 0.540407
vn -0.280538 0.787727 0.548439
vn -0.474500 0.857031 0.200866
vn -0.490516 0.847241 0.203901
vn -0.372456 0.800532 0.469494
vn -0.461204 0.826053 0.323925
vn -0.495506 0.800061 0.338196
vn -0.406115 0.774504 0.484989
vn -0.305597 0.768370 0.562333
vn -0.339949 0.740975 0.579129
vn -0.553490 0.800878 0.228568
vn -0.517996 0.828291 0.213572
vn -0.439554 0.749110 0.495607
vn -0.525719 0.773497 0.354009
vn -0.581247 0.775873 0.245302
vn -0.372142 0.717421 0.588913
vn -0.540317 0.684875 0.488881
vn -0.582605 0.697216 0.417686
vn -0.614536 0.713636 0.336258
vn -0.482487 0.675209 0.557942
vn 0.496999 -0.663693 -0.559020
vn 0.563257 -0.674393 -0.477426
vn 0.602769 -0.684393 -0.410214
vn 0.657849 -0.696336 -0.286968
vn -0.471756 0.868074 0.154580
vn -0.172980 0.232337 0.957130
vn 0.289479 -0.598883 0.746686
vn 0.455396 -0.864487 0.212784
vn 0.451368 -0.886309 -0.103554
vn 0.401168 -0.872965 -0.277483
vn 0.335381 -0.852610 -0.400720
vn 0.232252 -0.823147 -0.518159
vn 0.021714 -0.747949 -0.663401
vn -0.370256 -0.504186 -0.780197
vn -0.868743 0.197639 -0.454119
vn -0.415967 0.790973 0.448702
vn -0.171348 0.793506 0.583941
vn -0.223100 0.802629 0.553185
vn -0.227635 0.798362 0.557495
vn -0.255913 0.809574 0.528298
vn -0.321820 0.838358 0.439986
vn -0.399149 0.861668 0.313383
vn -0.453543 0.867896 0.202623
vn -0.471715 0.868543 0.152049
vn -0.467497 0.871572 0.147675
vn -0.466711 0.878221 0.104443
s 1
g polySurface2 spoonredbeans_low
usemtl pasted__standardSurface5SG
f 1/1/1 2/2/2 3/3/3 4/4/4
f 4/4/4 3/3/3 5/5/5 6/6/6
f 6/6/6 5/5/5 7/7/7 8/8/8
f 4/4/4 6/6/6 10/9/9 9/10/10
f 6/6/6 8/8/8 11/11/11 10/9/9
f 1/1/1 4/4/4 9/10/10 12/12/12
f 2/2/2 1/1/1 12/13/12 13/14/13
f 13/14/13 12/13/12 9/15/10 14/16/14
f 9/15/10 10/17/9 15/18/15 14/16/14
f 10/17/9 11/19/11 16/20/16 15/18/15
f 15/21/15 16/22/16 7/7/7 5/5/5
f 5/5/5 3/3/3 14/23/14 15/21/15
f 13/24/13 14/23/14 3/3/3 2/2/2
f 8/8/8 7/7/7 17/25/17 18/26/18
f 11/11/11 8/8/8 18/26/18 19/27/19
f 16/20/16 11/19/11 19/28/19 20/29/20
f 7/7/7 16/22/16 20/30/20 17/25/17
f 18/31/18 17/32/17 21/33/21 22/34/22
f 21/33/21 17/32/17 23/35/23 24/36/24
f 26/37/25 18/31/18 22/34/22 25/38/26
f 28/39/27 181/40/28 182/41/29 27/42/30
f 189/43/31 190/44/32 29/45/33 30/46/34
f 27/42/30 221/47/35 222/48/36 28/39/27
f 29/45/33 233/49/37 234/50/38 30/46/34
f 34/51/39 33/52/40 201/53/41 202/54/42
f 36/55/43 35/56/44 241/57/45 242/58/46
f 32/59/47 31/60/48 209/61/49 210/62/50
f 39/63/51 249/64/52 250/65/53 40/66/54
f 44/67/55 261/68/56 262/69/57 43/70/58
f 269/71/59 270/72/60 45/73/61 46/74/62
f 48/75/63 46/74/62 45/73/61 47/76/64
f 50/77/65 44/67/55 43/70/58 49/78/66
f 52/79/67 50/77/65 49/78/66 51/80/68
f 54/81/69 48/75/63 47/76/64 53/82/70
f 53/82/70 52/79/67 51/80/68 54/81/69
f 22/83/22 21/84/21 163/85/71 164/86/72
f 24/87/24 180/88/73 163/85/71 21/84/21
f 179/89/74 200/90/75 181/91/28 28/92/27
f 222/93/36 223/94/76 179/89/74 28/92/27
f 210/95/50 211/96/77 178/97/78 32/98/47
f 250/99/53 251/100/79 177/101/80 40/102/54
f 175/103/81 280/104/82 261/105/56 44/106/55
f 174/107/83 175/103/81 44/106/55 50/108/65
f 173/109/84 174/107/83 50/108/65 52/110/67
f 52/110/67 53/111/70 172/112/85 173/109/84
f 171/113/86 172/112/85 53/111/70 47/114/64
f 170/115/87 171/113/86 47/114/64 45/116/61
f 270/117/60 271/118/88 170/115/87 45/116/61
f 168/119/89 260/120/90 241/121/45 35/122/44
f 167/123/91 220/124/92 201/125/41 33/126/40
f 166/127/93 232/128/94 233/129/37 29/130/33
f 190/131/32 191/132/95 166/127/93 29/130/33
f 164/86/72 165/133/96 25/134/26 22/83/22
f 56/135/97 55/136/98 145/137/99 146/138/100
f 162/139/101 145/137/99 55/136/98 57/140/102
f 161/141/103 198/142/104 199/143/105 58/144/106
f 224/145/107 225/146/108 161/141/103 58/144/106
f 212/147/109 213/148/110 160/149/111 59/150/112
f 252/151/113 253/152/114 159/153/115 60/154/116
f 157/155/117 278/156/118 279/157/119 62/158/120
f 156/159/121 157/155/117 62/158/120 63/160/122
f 155/161/123 156/159/121 63/160/122 64/162/124
f 154/163/125 155/161/123 64/162/124 65/164/126
f 153/165/127 154/163/125 65/164/126 66/166/128
f 152/167/129 153/165/127 66/166/128 67/168/130
f 272/169/131 273/170/132 152/167/129 67/168/130
f 258/171/133 259/172/134 69/173/135 150/174/136
f 149/175/137 218/176/138 219/177/139 70/178/140
f 148/179/141 230/180/142 231/181/143 71/182/144
f 192/183/145 193/184/146 148/179/141 71/182/144
f 72/185/147 56/135/97 146/138/100 147/186/148
f 91/187/149 19/188/19 18/31/18 26/37/25
f 92/189/150 188/190/151 189/43/31 30/46/34
f 234/50/38 235/191/152 92/189/150 30/46/34
f 202/54/42 203/192/153 93/193/154 34/51/39
f 242/58/46 243/194/155 94/195/156 36/55/43
f 96/196/157 268/197/158 269/71/59 46/74/62
f 97/198/159 96/196/157 46/74/62 48/75/63
f 98/199/160 97/198/159 48/75/63 54/81/69
f 99/200/161 98/199/160 54/81/69 51/80/68
f 100/201/162 99/200/161 51/80/68 49/78/66
f 101/202/163 100/201/162 49/78/66 43/70/58
f 102/203/164 23/35/23 17/32/17 20/204/20
f 182/41/29 183/205/165 103/206/166 27/42/30
f 103/206/166 240/207/167 221/47/35 27/42/30
f 104/208/168 208/209/169 209/61/49 31/60/48
f 105/210/170 248/211/171 249/64/52 39/63/51
f 262/69/57 263/212/172 101/202/163 43/70/58
f 20/204/20 19/188/19 281/213/173 282/214/174
f 91/187/149 308/215/175 281/213/173 19/188/19
f 306/216/176 307/217/177 188/190/151 92/189/150
f 235/191/152 305/218/178 306/216/176 92/189/150
f 203/192/153 303/219/179 304/220/180 93/193/154
f 243/194/155 301/221/181 302/222/182 94/195/156
f 96/196/157 298/223/183 299/224/184 268/197/158
f 297/225/185 298/223/183 96/196/157 97/198/159
f 98/199/160 296/226/186 297/225/185 97/198/159
f 99/200/161 295/227/187 296/226/186 98/199/160
f 294/228/188 295/227/187 99/200/161 100/201/162
f 101/202/163 293/229/189 294/228/188 100/201/162
f 263/212/172 292/230/190 293/229/189 101/202/163
f 105/210/170 289/231/191 290/232/192 248/211/171
f 104/208/168 287/233/193 288/234/194 208/209/169
f 285/235/195 286/236/196 240/207/167 103/206/166
f 183/205/165 284/237/197 285/235/195 103/206/166
f 102/203/164 20/204/20 282/214/174 283/238/198
f 185/239/199 186/240/200 125/241/201 126/242/202
f 123/243/203 184/244/204 185/239/199 126/242/202
f 186/240/200 187/245/205 110/246/206 125/241/201
f 116/247/207 117/248/208 127/249/209 128/250/210
f 114/251/211 115/252/212 116/247/207 128/250/210
f 118/253/213 119/254/214 127/249/209 117/248/208
f 114/251/211 128/250/210 266/255/215 267/256/216
f 265/257/217 266/255/215 128/250/210 127/249/209
f 127/249/209 119/254/214 264/258/218 265/257/217
f 244/259/219 245/260/220 131/261/221 112/262/222
f 131/261/221 245/260/220 246/263/223 132/264/224
f 121/265/225 132/264/224 246/263/223 247/266/226
f 204/267/227 205/268/228 133/269/229 111/270/230
f 125/241/201 110/246/206 236/271/231 237/272/232
f 134/273/233 133/269/229 205/268/228 206/274/234
f 122/275/235 134/273/233 206/274/234 207/276/236
f 238/277/237 239/278/238 123/243/203 126/242/202
f 237/272/232 238/277/237 126/242/202 125/241/201
f 195/279/239 196/280/240 135/281/241 136/282/242
f 89/283/243 194/284/244 195/279/239 136/282/242
f 196/280/240 197/285/245 76/286/246 135/281/241
f 82/287/247 83/288/248 137/289/249 138/290/250
f 85/291/251 137/289/249 83/288/248 84/292/252
f 81/293/253 82/287/247 138/290/250 80/294/254
f 138/290/250 137/289/249 275/295/255 276/296/256
f 80/294/254 138/290/250 276/296/256 277/297/257
f 274/298/258 275/295/255 137/289/249 85/291/251
f 255/299/259 256/300/260 141/301/261 142/302/262
f 254/303/263 255/299/259 142/302/262 78/304/264
f 256/300/260 257/305/265 87/306/266 141/301/261
f 215/307/267 216/308/268 143/309/269 144/310/270
f 214/311/271 215/307/267 144/310/270 77/312/272
f 88/313/273 143/309/269 216/308/268 217/314/274
f 135/281/241 227/315/275 228/316/276 136/282/242
f 136/282/242 228/316/276 229/317/277 89/283/243
f 226/318/278 227/315/275 135/281/241 76/286/246
f 146/138/100 145/137/99 73/319/279 74/320/280
f 147/186/148 146/138/100 74/320/280 90/321/281
f 193/184/146 194/284/244 89/283/243 148/179/141
f 89/283/243 229/317/277 230/180/142 148/179/141
f 88/313/273 217/314/274 218/176/138 149/175/137
f 257/305/265 258/171/133 150/174/136 87/306/266
f 273/170/132 274/298/258 85/291/251 152/167/129
f 85/291/251 84/292/252 153/165/127 152/167/129
f 84/292/252 83/288/248 154/163/125 153/165/127
f 83/288/248 82/287/247 155/161/123 154/163/125
f 82/287/247 81/293/253 156/159/121 155/161/123
f 81/293/253 80/294/254 157/155/117 156/159/121
f 80/294/254 277/297/257 278/156/118 157/155/117
f 253/152/114 254/303/263 78/304/264 159/153/115
f 213/148/110 214/311/271 77/312/272 160/149/111
f 225/146/108 226/318/278 76/286/246 161/141/103
f 76/286/246 197/285/245 198/142/104 161/141/103
f 73/319/279 145/137/99 162/139/101 75/322/282
f 164/86/72 163/85/71 55/136/98 56/135/97
f 56/135/97 72/185/147 165/133/96 164/86/72
f 191/132/95 192/183/145 71/182/144 166/127/93
f 71/182/144 231/181/143 232/128/94 166/127/93
f 70/178/140 219/177/139 220/124/92 167/123/91
f 69/173/135 259/172/134 260/120/90 168/119/89
f 271/118/88 272/169/131 67/168/130 170/115/87
f 67/168/130 66/166/128 171/113/86 170/115/87
f 66/166/128 65/164/126 172/112/85 171/113/86
f 173/109/84 172/112/85 65/164/126 64/162/124
f 64/162/124 63/160/122 174/107/83 173/109/84
f 63/160/122 62/158/120 175/103/81 174/107/83
f 62/158/120 279/157/119 280/104/82 175/103/81
f 251/100/79 252/151/113 60/154/116 177/101/80
f 211/96/77 212/147/109 59/150/112 178/97/78
f 223/94/76 224/145/107 58/144/106 179/89/74
f 58/144/106 199/143/105 200/90/75 179/89/74
f 163/85/71 180/88/73 57/140/102 55/136/98
f 182/41/29 181/40/28 24/36/24 23/35/23
f 102/203/164 183/205/165 182/41/29 23/35/23
f 283/238/198 284/237/197 183/205/165 102/203/164
f 185/239/199 184/244/204 124/323/283 108/324/284
f 108/324/284 107/325/285 186/240/200 185/239/199
f 109/326/286 187/245/205 186/240/200 107/325/285
f 188/190/151 307/217/177 308/215/175 91/187/149
f 189/43/31 188/190/151 91/187/149 26/37/25
f 26/37/25 25/38/26 190/44/32 189/43/31
f 165/133/96 191/132/95 190/131/32 25/134/26
f 72/185/147 192/183/145 191/132/95 165/133/96
f 147/186/148 193/184/146 192/183/145 72/185/147
f 90/321/281 194/284/244 193/184/146 147/186/148
f 195/279/239 194/284/244 90/321/281 74/320/280
f 74/320/280 73/319/279 196/280/240 195/279/239
f 75/322/282 197/285/245 196/280/240 73/319/279
f 198/142/104 197/285/245 75/322/282 162/139/101
f 199/143/105 198/142/104 162/139/101 57/140/102
f 200/90/75 199/143/105 57/140/102 180/88/73
f 181/91/28 200/90/75 180/88/73 24/87/24
f 202/54/42 201/53/41 35/56/44 36/55/43
f 94/195/156 203/192/153 202/54/42 36/55/43
f 302/222/182 303/219/179 203/192/153 94/195/156
f 112/262/222 131/261/221 205/268/228 204/267/227
f 206/274/234 205/268/228 131/261/221 132/264/224
f 207/276/236 206/274/234 132/264/224 121/265/225
f 208/209/169 288/234/194 289/231/191 105/210/170
f 209/61/49 208/209/169 105/210/170 39/63/51
f 210/62/50 209/61/49 39/63/51 40/66/54
f 177/101/80 211/96/77 210/95/50 40/102/54
f 60/154/116 212/147/109 211/96/77 177/101/80
f 159/153/115 213/148/110 212/147/109 60/154/116
f 78/304/264 214/311/271 213/148/110 159/153/115
f 78/304/264 142/302/262 215/307/267 214/311/271
f 142/302/262 141/301/261 216/308/268 215/307/267
f 217/314/274 216/308/268 141/301/261 87/306/266
f 218/176/138 217/314/274 87/306/266 150/174/136
f 219/177/139 218/176/138 150/174/136 69/173/135
f 220/124/92 219/177/139 69/173/135 168/119/89
f 201/125/41 220/124/92 168/119/89 35/122/44
f 222/48/36 221/47/35 31/60/48 32/59/47
f 178/97/78 223/94/76 222/93/36 32/98/47
f 59/150/112 224/145/107 223/94/76 178/97/78
f 160/149/111 225/146/108 224/145/107 59/150/112
f 77/312/272 226/318/278 225/146/108 160/149/111
f 77/312/272 144/310/270 227/315/275 226/318/278
f 228/316/276 227/315/275 144/310/270 143/309/269
f 229/317/277 228/316/276 143/309/269 88/313/273
f 230/180/142 229/317/277 88/313/273 149/175/137
f 231/181/143 230/180/142 149/175/137 70/178/140
f 232/128/94 231/181/143 70/178/140 167/123/91
f 233/129/37 232/128/94 167/123/91 33/126/40
f 234/50/38 233/49/37 33/52/40 34/51/39
f 93/193/154 235/191/152 234/50/38 34/51/39
f 304/220/180 305/218/178 235/191/152 93/193/154
f 237/272/232 236/271/231 111/270/230 133/269/229
f 133/269/229 134/273/233 238/277/237 237/272/232
f 134/273/233 122/275/235 239/278/238 238/277/237
f 240/207/167 286/236/196 287/233/193 104/208/168
f 221/47/35 240/207/167 104/208/168 31/60/48
f 242/58/46 241/57/45 37/327/287 38/328/288
f 95/329/289 243/194/155 242/58/46 38/328/288
f 300/330/290 301/221/181 243/194/155 95/329/289
f 113/331/291 129/332/292 245/260/220 244/259/219
f 246/263/223 245/260/220 129/332/292 130/333/293
f 247/266/226 246/263/223 130/333/293 120/334/294
f 248/211/171 290/232/192 291/335/295 106/336/296
f 249/64/52 248/211/171 106/336/296 41/337/297
f 250/65/53 249/64/52 41/337/297 42/338/298
f 176/339/299 251/100/79 250/99/53 42/340/298
f 61/341/300 252/151/113 251/100/79 176/339/299
f 158/342/301 253/152/114 252/151/113 61/341/300
f 79/343/302 254/303/263 253/152/114 158/342/301
f 79/343/302 140/344/303 255/299/259 254/303/263
f 140/344/303 139/345/304 256/300/260 255/299/259
f 139/345/304 86/346/305 257/305/265 256/300/260
f 151/347/306 258/171/133 257/305/265 86/346/305
f 68/348/307 259/172/134 258/171/133 151/347/306
f 260/120/90 259/172/134 68/348/307 169/349/308
f 241/121/45 260/120/90 169/349/308 37/350/287
f 262/69/57 261/68/56 42/338/298 41/337/297
f 106/336/296 263/212/172 262/69/57 41/337/297
f 106/336/296 291/335/295 292/230/190 263/212/172
f 265/257/217 264/258/218 120/334/294 130/333/293
f 129/332/292 266/255/215 265/257/217 130/333/293
f 267/256/216 266/255/215 129/332/292 113/331/291
f 268/197/158 299/224/184 300/330/290 95/329/289
f 269/71/59 268/197/158 95/329/289 38/328/288
f 37/327/287 270/72/60 269/71/59 38/328/288
f 169/349/308 271/118/88 270/117/60 37/350/287
f 68/348/307 272/169/131 271/118/88 169/349/308
f 151/347/306 273/170/132 272/169/131 68/348/307
f 86/346/305 274/298/258 273/170/132 151/347/306
f 86/346/305 139/345/304 275/295/255 274/298/258
f 276/296/256 275/295/255 139/345/304 140/344/303
f 277/297/257 276/296/256 140/344/303 79/343/302
f 278/156/118 277/297/257 79/343/302 158/342/301
f 279/157/119 278/156/118 158/342/301 61/341/300
f 280/104/82 279/157/119 61/341/300 176/339/299
f 261/105/56 280/104/82 176/339/299 42/340/298
f 282/214/174 281/213/173 107/325/285 108/324/284
f 283/238/198 282/214/174 108/324/284 124/323/283
f 124/323/283 184/244/204 284/237/197 283/238/198
f 285/235/195 284/237/197 184/244/204 123/243/203
f 123/243/203 239/278/238 286/236/196 285/235/195
f 287/233/193 286/236/196 239/278/238 122/275/235
f 288/234/194 287/233/193 122/275/235 207/276/236
f 289/231/191 288/234/194 207/276/236 121/265/225
f 290/232/192 289/231/191 121/265/225 247/266/226
f 291/335/295 290/232/192 247/266/226 120/334/294
f 292/230/190 291/335/295 120/334/294 264/258/218
f 293/229/189 292/230/190 264/258/218 119/254/214
f 294/228/188 293/229/189 119/254/214 118/253/213
f 117/248/208 295/227/187 294/228/188 118/253/213
f 296/226/186 295/227/187 117/248/208 116/247/207
f 297/225/185 296/226/186 116/247/207 115/252/212
f 114/251/211 298/223/183 297/225/185 115/252/212
f 299/224/184 298/223/183 114/251/211 267/256/216
f 300/330/290 299/224/184 267/256/216 113/331/291
f 113/331/291 244/259/219 301/221/181 300/330/290
f 302/222/182 301/221/181 244/259/219 112/262/222
f 112/262/222 204/267/227 303/219/179 302/222/182
f 304/220/180 303/219/179 204/267/227 111/270/230
f 111/270/230 236/271/231 305/218/178 304/220/180
f 306/216/176 305/218/178 236/271/231 110/246/206
f 110/246/206 187/245/205 307/217/177 306/216/176
f 308/215/175 307/217/177 187/245/205 109/326/286
f 281/213/173 308/215/175 109/326/286 107/325/285
