# Apple ModelIO OBJ File: ChoppingBoard
mtllib ChoppingBoard.mtl
g ChoppingBoard_ChoppingBoardSG
v -1.65707 -0.059664 0.670627
v -1.65707 -0.059664 0
v -1.64158 -0.066076 0.669409
v -1.64158 -0.066076 0
v -1.66348 -0.044182 0.671132
v -1.66348 -0.044182 0
v 1.63541 -0.059664 -0.80736
v 1.65707 -0.059664 -0.670623
v 1.6205 -0.066076 -0.802516
v 1.64159 -0.066076 -0.669404
v 1.64158 -0.044182 -0.809366
v 1.66348 -0.044182 -0.671127
v -1.49735 -0.044182 0
v -1.50376 -0.059664 0
v -1.49735 -0.044182 -0.46808
v -1.50376 -0.059664 -0.469355
v -1.51924 -0.066076 0
v -1.51924 -0.066076 -0.472434
v -1.3206 -0.044182 0
v -1.31419 -0.059664 0
v -1.3206 -0.044182 0.468081
v -1.31419 -0.059664 0.469357
v -1.29871 -0.066076 0
v -1.29871 -0.066076 0.472437
v 1.65707 0.059664 0.670627
v 1.65707 0.059664 0
v 1.64159 0.066076 0.669409
v 1.64159 0.066076 0
v 1.66348 0.044182 0.671132
v 1.66348 0.044182 0
v -1.63541 0.059664 -0.80736
v -1.65707 0.059664 -0.670623
v -1.6205 0.066076 -0.802516
v -1.64158 0.066076 -0.669404
v -1.64158 0.044182 -0.809366
v -1.66348 0.044182 -0.671127
v -1.39838 0.044159 0.507665
v -1.39879 0.059657 0.514071
v -1.36019 0.044182 0.507665
v -1.35891 0.059664 0.514078
v -1.39979 0.066076 0.529537
v -1.35583 0.066076 0.52956
v -1.21614 -0.044182 1.11847
v 1.21614 -0.044182 1.11847
v -1.21614 0 1.11847
v 1.21614 0 1.11847
v -1.21614 0 -1.11847
v 1.21614 0 -1.11847
v -1.21614 -0.044182 -1.11847
v 1.21614 -0.044182 -1.11847
v 1.66348 -0.044182 0
v 1.66348 0 0
v 1.66348 0 -0.671127
v -1.66348 0 0
v -1.66348 0 0.671132
v -1.64158 0 0.809367
v -1.64158 -0.044182 0.809367
v -1.57804 0 0.934073
v -1.57804 -0.044182 0.934073
v -1.47908 0 1.03304
v -1.47908 -0.044182 1.03304
v -1.35437 0 1.09658
v -1.35437 -0.044182 1.09658
v 1.35437 0 1.09658
v 1.35437 -0.044182 1.09658
v 1.47908 0 1.03304
v 1.47908 -0.044182 1.03304
v 1.57804 0 0.934073
v 1.57804 -0.044182 0.934073
v 1.64158 0 0.809367
v 1.64158 -0.044182 0.809367
v 1.66348 0 0.671132
v 1.66348 -0.044182 0.671132
v -1.66348 -0.044182 -0.671127
v -1.66348 0 -0.671127
v -1.64158 -0.044182 -0.809366
v -1.64158 0 -0.809366
v -1.57804 -0.044182 -0.934072
v -1.57804 0 -0.934072
v -1.47908 -0.044182 -1.03304
v -1.47908 0 -1.03304
v -1.35437 -0.044182 -1.09658
v -1.35437 0 -1.09658
v 1.35437 -0.044182 -1.09658
v 1.35437 0 -1.09658
v 1.47908 -0.044182 -1.03304
v 1.47908 0 -1.03304
v 1.57804 -0.044182 -0.934072
v 1.57804 0 -0.934072
v 1.64158 0 -0.809366
v 1.21441 -0.066076 -1.09658
v 1.34752 -0.066076 -1.0755
v 1.21614 -0.066076 0
v 1.35437 -0.066076 0
v 1.46605 -0.066076 -1.0151
v 1.56011 -0.066076 -0.921043
v 1.47908 -0.066076 0
v 1.57804 -0.066076 0
v 1.64159 -0.066076 0
v -1.21614 -0.066076 0
v -1.21441 -0.066076 -1.09658
v -1.64158 -0.066076 -0.669404
v -1.6205 -0.066076 -0.802516
v -1.6205 -0.066076 0.802517
v -1.46212 -0.066076 0.52956
v -1.39979 -0.066076 0.529537
v -1.56011 -0.066076 0.921044
v -1.46605 -0.066076 1.01511
v -1.21441 -0.066076 1.09658
v -1.31544 -0.066076 0.512828
v 1.21441 -0.066076 1.09658
v 1.34752 -0.066076 1.0755
v 1.46605 -0.066076 1.01511
v 1.56011 -0.066076 0.921044
v 1.6205 -0.066076 0.802517
v 1.64159 -0.066076 0.669409
v -1.49735 0 -0.46808
v -1.49735 0 0
v -1.3206 0 0.468081
v -1.3206 0 0
v -1.49735 -0.044182 0.468081
v -1.49735 0 0.468081
v -1.45776 0 0.507665
v -1.39838 0 0.507665
v -1.45776 -0.044182 0.507665
v -1.39838 -0.044159 0.507665
v -1.36019 -0.044182 0.507665
v -1.36019 0 0.507665
v -1.3206 -0.044182 -0.468081
v -1.3206 0 -0.468081
v -1.39838 -0.044159 -0.507661
v -1.39838 0 -0.507661
v -1.45776 -0.044182 -0.507661
v -1.45776 0 -0.507661
v -1.36019 0 -0.507661
v -1.36019 -0.044182 -0.507661
v -1.48593 -0.044144 -0.495655
v -1.48576 0 -0.496067
v -1.3322 -0.044182 0.496071
v -1.3322 0 0.496071
v -1.48576 -0.044182 0.496071
v -1.48576 0 0.496071
v -1.3322 -0.044182 -0.49607
v -1.3322 0 -0.49607
v -1.39979 -0.066076 -0.529533
v -1.46605 -0.066076 -1.0151
v -1.35583 -0.066076 -0.529555
v -1.34752 -0.066076 -1.0755
v -1.31544 -0.066076 -0.512828
v -1.34752 -0.066076 1.0755
v -1.35583 -0.066076 0.52956
v -1.29871 -0.066076 -0.472436
v -1.46229 -0.066076 -0.529555
v -1.56011 -0.066076 -0.921043
v -1.50251 -0.066076 0.512828
v -1.50291 -0.066076 -0.512085
v -1.51924 -0.066076 0.472436
v -1.21614 0.044182 1.11847
v 1.21614 0.044182 1.11847
v -1.21614 0.044182 -1.11847
v 1.21614 0.044182 -1.11847
v 1.66348 0.044182 -0.671127
v -1.66348 0.044182 0
v -1.66348 0.044182 0.671132
v -1.64158 0.044182 0.809367
v -1.57804 0.044182 0.934073
v -1.47908 0.044182 1.03304
v -1.35437 0.044182 1.09658
v 1.35437 0.044182 1.09658
v 1.47908 0.044182 1.03304
v 1.57804 0.044182 0.934073
v 1.64158 0.044182 0.809367
v -1.57804 0.044182 -0.934072
v -1.47908 0.044182 -1.03304
v -1.35437 0.044182 -1.09658
v 1.35437 0.044182 -1.09658
v 1.47908 0.044182 -1.03304
v 1.57804 0.044182 -0.934072
v 1.64158 0.044182 -0.809366
v -1.51924 0.066076 -0.472434
v -1.64158 0.066076 0
v -1.51924 0.066076 0
v 1.35437 0.066076 0
v 1.34752 0.066076 -1.0755
v 1.21614 0.066076 0
v 1.21441 0.066076 -1.09658
v 1.57804 0.066076 0
v 1.56011 0.066076 -0.921043
v 1.47908 0.066076 0
v 1.46605 0.066076 -1.0151
v 1.6205 0.066076 -0.802516
v 1.64159 0.066076 -0.669404
v -1.21614 0.066076 0
v -1.21441 0.066076 -1.09658
v -1.6205 0.066076 0.802517
v -1.64158 0.066076 0.669409
v -1.46212 0.066076 0.52956
v -1.56011 0.066076 0.921044
v -1.46605 0.066076 1.01511
v -1.29871 0.066076 0.472437
v -1.21441 0.066076 1.09658
v -1.31544 0.066076 0.512828
v 1.21441 0.066076 1.09658
v 1.34752 0.066076 1.0755
v 1.46605 0.066076 1.01511
v 1.56011 0.066076 0.921044
v 1.6205 0.066076 0.802517
v -1.49735 0.044182 -0.46808
v -1.49735 0.044182 0
v -1.3206 0.044182 0.468081
v -1.3206 0.044182 0
v -1.49735 0.044182 0.468081
v -1.45776 0.044182 0.507665
v -1.3206 0.044182 -0.468081
v -1.39838 0.044159 -0.507661
v -1.45776 0.044182 -0.507661
v -1.36019 0.044182 -0.507661
v -1.48593 0.044144 -0.495655
v -1.3322 0.044182 0.496071
v -1.48576 0.044182 0.496071
v -1.3322 0.044182 -0.49607
v -1.34752 0.066076 -1.0755
v -1.46605 0.066076 -1.0151
v -1.35583 0.066076 -0.529555
v -1.39979 0.066076 -0.529533
v -1.31544 0.066076 -0.512828
v -1.34752 0.066076 1.0755
v -1.29871 0.066076 -0.472436
v -1.29871 0.066076 0
v -1.56011 0.066076 -0.921043
v -1.46229 0.066076 -0.529555
v -1.50251 0.066076 0.512828
v -1.50284 0.066076 -0.512026
v -1.51924 0.066076 0.472436
v -1.63541 -0.059664 0.80736
v -1.21563 -0.059664 1.11206
v 1.21563 -0.059664 1.11206
v 1.35237 -0.059664 1.0904
v 1.65707 -0.059664 0.670627
v 1.65707 -0.059664 0
v -1.21563 -0.059664 -1.11206
v -1.35236 -0.059664 -1.0904
v 1.21563 -0.059664 -1.11206
v -1.57279 -0.059664 0.930257
v -1.47526 -0.059664 1.02779
v -1.35236 -0.059664 1.0904
v 1.47526 -0.059664 1.02779
v 1.57279 -0.059664 0.930257
v 1.63541 -0.059664 0.80736
v -1.63541 -0.059664 -0.80736
v -1.65707 -0.059664 -0.670623
v -1.57279 -0.059664 -0.930255
v -1.47526 -0.059664 -1.02778
v 1.35237 -0.059664 -1.0904
v 1.47526 -0.059664 -1.02778
v 1.57279 -0.059664 -0.930255
v -1.49094 -0.059648 -0.500386
v -1.32729 -0.059664 0.500978
v -1.39879 -0.059657 0.514071
v -1.45904 -0.059664 0.514078
v -1.35891 -0.059664 0.514078
v -1.39879 -0.059657 -0.514067
v -1.35891 -0.059664 -0.514074
v -1.32729 -0.059664 -0.500979
v -1.45909 -0.059664 -0.514074
v -1.50376 -0.059664 0.469356
v -1.49066 -0.059664 0.500978
v -1.31419 -0.059664 -0.469357
v -1.65707 0.059664 0.670627
v -1.65707 0.059664 0
v -1.21563 0.059664 1.11206
v -1.35236 0.059664 1.0904
v 1.21563 0.059664 1.11206
v 1.63541 0.059664 0.80736
v -1.21563 0.059664 -1.11206
v 1.21563 0.059664 -1.11206
v 1.35237 0.059664 -1.0904
v -1.63541 0.059664 0.80736
v -1.57279 0.059664 0.930257
v -1.47526 0.059664 1.02779
v 1.35237 0.059664 1.0904
v 1.47526 0.059664 1.02779
v 1.57279 0.059664 0.930257
v -1.57279 0.059664 -0.930255
v -1.47526 0.059664 -1.02778
v -1.35236 0.059664 -1.0904
v 1.47526 0.059664 -1.02778
v 1.57279 0.059664 -0.930255
v 1.63541 0.059664 -0.80736
v 1.65707 0.059664 -0.670623
v -1.50376 0.059664 0
v -1.50376 0.059664 0.469356
v -1.50376 0.059664 -0.469355
v -1.31419 0.059664 0
v -1.31419 0.059664 -0.469357
v -1.31419 0.059664 0.469357
v -1.32729 0.059664 0.500978
v -1.39879 0.059657 -0.514067
v -1.45909 0.059664 -0.514074
v -1.35891 0.059664 -0.514074
v -1.49092 0.059648 -0.500369
v -1.49066 0.059664 0.500978
v -1.45904 0.059664 0.514078
v -1.32729 0.059664 -0.500979
vn -0.716463 -0.69736 0.019225
vn -0.707263 -0.70695 0
vn -0.199886 -0.979805 0.005307
vn -0.102262 -0.994758 0
vn -0.994061 -0.105452 0.026866
vn -0.994277 -0.106833 0
vn 0.689966 -0.688322 -0.223963
vn 0.716485 -0.697338 -0.019226
vn 0.018871 -0.999803 -0.006117
vn 0.199849 -0.979812 -0.005307
vn 0.945851 -0.104613 -0.307281
vn 0.994061 -0.105459 -0.026864
vn 0.994261 -0.106978 0
vn 0.706418 -0.707795 0
vn 0.993493 -0.111475 0.023339
vn 0.678915 -0.734008 0.017518
vn 0.083153 -0.996537 0
vn 0.027338 -0.999626 0.000788
vn -0.994263 -0.106963 0
vn -0.706417 -0.707796 0
vn -0.993483 -0.111511 -0.023594
vn -0.678805 -0.734102 -0.017859
vn -0.11198 -0.993711 0
vn -0.02686 -0.999639 -0.00079
vn 0.716489 0.697333 0.019226
vn 0.707286 0.706927 0
vn 0.199882 0.979806 0.005308
vn 0.069287 0.997597 -0
vn 0.994061 0.105461 0.026864
vn 0.994275 0.106855 0
vn -0.689996 0.688284 -0.223986
vn -0.716495 0.697327 -0.019226
vn -0.033346 0.999385 -0.010811
vn -0.199863 0.979809 -0.005306
vn -0.945848 0.104602 -0.307295
vn -0.994064 0.105424 -0.026867
vn -1e-06 0.107529 -0.994202
vn -1e-06 0.711496 -0.70269
vn -0.172527 0.11601 -0.978149
vn -0.118712 0.753482 -0.646663
vn -0 0.999968 -0.008045
vn -0.000806 0.999991 -0.00421
vn -0.00846 -0.105387 0.994395
vn 0.00846 -0.105386 0.994395
vn -0.008518 0 0.999964
vn 0.008518 0 0.999964
vn -0.008517 0 -0.999964
vn 0.008517 0 -0.999964
vn -0.008459 -0.105387 -0.994395
vn 0.008459 -0.105387 -0.994395
vn 0.994275 -0.106855 0
vn 1 0 0
vn 0.999634 0 -0.027044
vn -1 0 0
vn -0.999634 0 0.027046
vn -0.951054 0 0.309026
vn -0.94585 -0.104575 0.307297
vn -0.809026 0 0.587773
vn -0.804593 -0.104528 0.584554
vn -0.587783 0 0.809018
vn -0.584561 -0.104543 0.804586
vn -0.309013 0 0.951058
vn -0.307282 -0.104616 0.94585
vn 0.309011 0 0.951059
vn 0.307282 -0.104598 0.945853
vn 0.587783 0 0.809018
vn 0.584566 -0.104542 0.804583
vn 0.809029 0 0.587769
vn 0.804593 -0.104557 0.584549
vn 0.951057 0 0.309015
vn 0.94585 -0.104617 0.307285
vn 0.999634 0 0.027044
vn 0.994061 -0.105461 0.026864
vn -0.994064 -0.105424 -0.026866
vn -0.999634 0 -0.027046
vn -0.945849 -0.104602 -0.307292
vn -0.951054 0 -0.309024
vn -0.80459 -0.104529 -0.584558
vn -0.809022 0 -0.587778
vn -0.584568 -0.104529 -0.804583
vn -0.58779 0 -0.809014
vn -0.307291 -0.104601 -0.945849
vn -0.309022 0 -0.951055
vn 0.307291 -0.104601 -0.945849
vn 0.309019 0 -0.951056
vn 0.584571 -0.104543 -0.804579
vn 0.58779 0 -0.809014
vn 0.80459 -0.104556 -0.584554
vn 0.809025 0 -0.587774
vn 0.951058 0 -0.309012
vn 5e-05 -0.999982 -0.006055
vn 0.002272 -0.999973 -0.007009
vn 0 -1 0
vn 0.0051 -0.999962 -0.007019
vn 0.00949 -0.999931 -0.006895
vn 0.069287 -0.997597 0
vn -5.2e-05 -0.999981 -0.006249
vn -0.199868 -0.979809 -0.005307
vn -0.033347 -0.999385 -0.010811
vn -0.033377 -0.999384 0.010821
vn 0.00117 -0.99997 -0.007638
vn -0 -0.999968 -0.008045
vn -0.022625 -0.999609 0.016437
vn -0.013969 -0.999718 0.019226
vn -5.2e-05 -0.999981 0.006249
vn -0.001939 -0.999996 -0.001939
vn 5e-05 -0.999982 0.006055
vn 0.002272 -0.999973 0.007009
vn 0.0051 -0.999962 0.00702
vn 0.009491 -0.999931 0.006895
vn 0.018872 -0.999803 0.006118
vn 0.199882 -0.979806 0.005307
vn 0.999731 -1e-06 0.023187
vn -0.999727 0 -0.023367
vn 0.993484 -0.111508 -0.023587
vn 0.999727 0 -0.023359
vn 0.131574 0 -0.991306
vn 2e-06 0 -1
vn 0.132047 -0.114661 -0.98459
vn 3e-06 -0.10753 -0.994202
vn -0.172524 -0.116012 -0.97815
vn -0.172592 0 -0.984993
vn -0.993486 -0.111484 0.023594
vn -0.999727 0 0.023367
vn -0 -0.107549 0.9942
vn 1e-06 0 1
vn 0.134879 -0.113975 0.984285
vn 0.133677 0 0.991025
vn -0.172536 0 0.985003
vn -0.172464 -0.11601 0.978161
vn 0.70212 -0.127074 0.700628
vn 0.705487 -4e-06 0.708723
vn -0.701173 -0.129375 -0.701155
vn -0.707115 0 -0.707099
vn 0.701175 -0.129382 -0.701152
vn 0.707116 0 -0.707098
vn -0.701134 -0.129397 0.70119
vn -0.707079 0 0.707135
vn -0 -0.999968 0.008051
vn -0.013965 -0.999718 -0.019221
vn -0.000805 -0.999991 0.004211
vn -0.006568 -0.999773 -0.02026
vn -0.001939 -0.999996 0.001939
vn -0.006568 -0.999773 0.02026
vn -0.000806 -0.999991 -0.004211
vn -0.026858 -0.999639 0.00079
vn 0.001212 -0.99997 0.007596
vn -0.022596 -0.99961 -0.016418
vn 0.002534 -0.999994 -0.002534
vn 0.002557 -0.999994 0.002545
vn 0.027331 -0.999626 -0.000804
vn -0.00846 0.105388 0.994395
vn 0.00846 0.105387 0.994395
vn -0.008459 0.105388 -0.994395
vn 0.008459 0.105387 -0.994395
vn 0.994061 0.105459 -0.026864
vn -0.994277 0.106833 0
vn -0.994061 0.105452 0.026866
vn -0.94585 0.104575 0.307299
vn -0.804592 0.104528 0.584555
vn -0.584562 0.104548 0.804585
vn -0.307282 0.104622 0.94585
vn 0.307281 0.104602 0.945852
vn 0.584565 0.104543 0.804583
vn 0.804594 0.104556 0.584548
vn 0.94585 0.104616 0.307282
vn -0.804589 0.104529 -0.58456
vn -0.584569 0.104534 -0.804582
vn -0.30729 0.104607 -0.945849
vn 0.307289 0.104598 -0.94585
vn 0.584571 0.104542 -0.804579
vn 0.804591 0.104558 -0.584552
vn 0.945851 0.104614 -0.307281
vn 0.027345 0.999626 0.00079
vn -0.10226 0.994758 0
vn 0.083153 0.996537 0
vn 0 1 0
vn 0.002272 0.999973 -0.00701
vn 5e-05 0.999982 -0.006056
vn 0.009491 0.999931 -0.006896
vn 0.0051 0.999962 -0.007019
vn 0.018872 0.999803 -0.006119
vn 0.199849 0.979812 -0.005307
vn -5.2e-05 0.99998 -0.006249
vn -0.033377 0.999384 0.010822
vn -0.199886 0.979805 0.005307
vn 0.00117 0.99997 -0.007638
vn -0.022625 0.999609 0.016437
vn -0.013969 0.999718 0.019225
vn -0.026859 0.999639 -0.00079
vn -5.2e-05 0.99998 0.006249
vn -0.001939 0.999996 -0.001938
vn 5e-05 0.999982 0.006055
vn 0.002272 0.999973 0.007009
vn 0.0051 0.999962 0.007019
vn 0.00949 0.999931 0.006895
vn 0.01887 0.999803 0.006118
vn 0.993495 0.111462 0.023344
vn 0.994261 0.106978 0
vn -0.993486 0.111483 -0.023594
vn -0.994263 0.106963 0
vn 0.993484 0.111508 -0.023587
vn 0.132047 0.114661 -0.98459
vn -0.993483 0.111511 0.023595
vn 1e-06 0.10755 0.9942
vn 0.134915 0.113906 0.984288
vn -0.172463 0.116011 0.978161
vn 0.702147 0.126815 0.700648
vn -0.70117 0.12939 -0.701155
vn 0.701176 0.129383 -0.701151
vn -0.701139 0.129382 0.701188
vn -0.006568 0.999773 -0.02026
vn -0.013965 0.999718 -0.01922
vn -0.000805 0.999991 0.004211
vn -0 0.999968 0.008051
vn -0.001939 0.999996 0.001938
vn -0.006568 0.999773 0.02026
vn -0.026858 0.999639 0.00079
vn -0.11198 0.993711 0
vn -0.022596 0.99961 -0.016416
vn 0.001213 0.99997 0.007589
vn 0.002534 0.999994 -0.002534
vn 0.002563 0.999993 0.002552
vn 0.02733 0.999626 -0.000804
vn -0.690004 -0.688277 0.223985
vn -0.006046 -0.697325 0.716729
vn 0.006047 -0.697316 0.716738
vn 0.22397 -0.688321 0.689965
vn 0.71649 -0.697333 0.019226
vn 0.707286 -0.706927 0
vn -0.006046 -0.697325 -0.716729
vn -0.223977 -0.688295 -0.689988
vn 0.006047 -0.697317 -0.716738
vn -0.587242 -0.687837 0.426645
vn -0.426641 -0.687852 0.587229
vn -0.223965 -0.68832 0.689968
vn 0.426651 -0.687833 0.587243
vn 0.587248 -0.687833 0.426644
vn 0.689965 -0.68832 0.22397
vn -0.689997 -0.688285 -0.22398
vn -0.716495 -0.697327 -0.019226
vn -0.587249 -0.687824 -0.426657
vn -0.426664 -0.687816 -0.587254
vn 0.223975 -0.688323 -0.689961
vn 0.426655 -0.687833 -0.587241
vn 0.587241 -0.687837 -0.426648
vn 0.427487 -0.797344 0.426024
vn -0.425244 -0.798969 -0.425225
vn 4e-06 -0.711492 -0.702694
vn 0.09408 -0.747516 -0.657547
vn -0.11871 -0.753481 -0.646664
vn -2e-06 -0.711604 0.702581
vn -0.118678 -0.753467 0.646686
vn -0.425194 -0.798993 0.42523
vn 0.097468 -0.748542 0.655885
vn 0.678829 -0.73408 -0.017853
vn 0.425192 -0.799025 -0.425171
vn -0.678837 -0.734072 0.017859
vn -0.716463 0.69736 0.019225
vn -0.707263 0.70695 0
vn -0.006047 0.697325 0.71673
vn -0.22396 0.688333 0.689956
vn 0.006047 0.697316 0.716739
vn 0.689964 0.688322 0.223968
vn -0.006046 0.697325 -0.716729
vn 0.006047 0.697315 -0.716739
vn 0.223973 0.688311 -0.689974
vn -0.690003 0.688276 0.223991
vn -0.587242 0.687836 0.426648
vn -0.426637 0.687863 0.587218
vn 0.223966 0.68832 0.689968
vn 0.42665 0.687829 0.587248
vn 0.587243 0.687835 0.426649
vn -0.587249 0.687824 -0.426658
vn -0.42666 0.687827 -0.587243
vn -0.223972 0.68831 -0.689975
vn 0.426651 0.687832 -0.587244
vn 0.587244 0.687834 -0.426648
vn 0.689966 0.688319 -0.223972
vn 0.716485 0.697338 -0.019226
vn 0.706418 0.707795 0
vn 0.678829 0.73408 -0.017852
vn 0.67895 0.733975 0.017546
vn -0.706417 0.707796 0
vn -0.678804 0.734102 0.017859
vn -0.678837 0.734072 -0.017859
vn -0.42523 0.798979 -0.425221
vn 5e-06 0.711607 0.702578
vn 0.09766 0.748341 0.656086
vn -0.118677 0.753462 0.646692
vn 0.428175 0.796601 0.426724
vn 0.425183 0.79902 -0.425191
vn 0.094082 0.747514 -0.657549
vn -0.425205 0.79898 0.425243
vt 0.854204 0.643444
vt 0.725122 0.643461
vt 0.853963 0.640218
vt 0.725122 0.640236
vt 0.024079 0.917904
vt 0.023958 0.791016
vt 0.027244 0.917836
vt 0.027143 0.791016
vt 0.569744 0.009405
vt 0.596117 0.005226
vt 0.570751 0.012508
vt 0.596358 0.00845
vt 0.041826 0.055658
vt 0.04206 0.081618
vt 0.038845 0.05603
vt 0.038892 0.081672
vt 0.952871 0.129586
vt 0.949654 0.129592
vt 0.952674 0.039867
vt 0.949476 0.039663
vt 0.725128 0.613472
vt 0.725127 0.616696
vt 0.634816 0.613415
vt 0.634214 0.616635
vt 0.952968 0.352476
vt 0.949751 0.352483
vt 0.952698 0.262675
vt 0.949493 0.262482
vt 0.725132 0.577438
vt 0.725132 0.574214
vt 0.815438 0.577432
vt 0.816037 0.574213
vt 0.157573 0.00514
vt 0.28665 0.005172
vt 0.157814 0.008364
vt 0.286649 0.008397
vt 0.057482 0.33708
vt 0.058338 0.209213
vt 0.060674 0.33704
vt 0.061528 0.20923
vt 0.442108 0.639187
vt 0.415725 0.643388
vt 0.441097 0.636085
vt 0.415481 0.640162
vt 0.007138 0.635944
vt 0.007143 0.662848
vt 0.003878 0.635942
vt 0.003935 0.662912
vt 0.969865 0.243475
vt 0.973064 0.24345
vt 0.969822 0.25087
vt 0.972941 0.250906
vt 0.187939 0.593462
vt 0.184732 0.593649
vt 0.187936 0.585829
vt 0.184737 0.585193
vt 0.040639 0.937105
vt 0.040698 0.470243
vt 0.049118 0.937106
vt 0.049179 0.470243
vt 0.01608 0.527161
vt 0.015787 0.059227
vt 0.024583 0.527157
vt 0.024285 0.059221
vt 0.041519 0.209125
vt 0.049927 0.20917
vt 0.050408 0.081626
vt 0.01556 0.791018
vt 0.015745 0.917922
vt 0.015874 0.944156
vt 0.024099 0.944147
vt 0.016006 0.97005
vt 0.024163 0.970006
vt 0.016147 0.996003
vt 0.024393 0.995943
vt 0.048939 0.990747
vt 0.040397 0.990699
vt 0.049055 0.963873
vt 0.040616 0.963839
vt 0.049099 0.443376
vt 0.040636 0.4434
vt 0.048962 0.416596
vt 0.040528 0.416625
vt 0.048871 0.38995
vt 0.040482 0.389949
vt 0.048913 0.363484
vt 0.040552 0.363449
vt 0.049078 0.337022
vt 0.040674 0.33697
vt 0.02404 0.662861
vt 0.015593 0.662852
vt 0.02419 0.636005
vt 0.015667 0.635962
vt 0.024385 0.608845
vt 0.015793 0.608795
vt 0.02456 0.581538
vt 0.015944 0.581501
vt 0.024618 0.554234
vt 0.016043 0.554223
vt 0.024224 0.032421
vt 0.015766 0.032422
vt 0.024297 0.005492
vt 0.015738 0.005481
vt 0.040275 0.004433
vt 0.048447 0.004183
vt 0.041083 0.030175
vt 0.049183 0.029919
vt 0.049973 0.055515
vt 0.514161 0.090634
vt 0.518224 0.065025
vt 0.725133 0.090304
vt 0.725133 0.063706
vt 0.529849 0.042222
vt 0.547948 0.024126
vt 0.725133 0.039713
vt 0.725133 0.020672
vt 0.725133 0.008446
vt 0.725133 0.558323
vt 0.514144 0.557975
vt 0.596294 0.640161
vt 0.570679 0.636088
vt 0.879579 0.63616
vt 0.827048 0.605667
vt 0.827043 0.59367
vt 0.902376 0.624509
vt 0.920464 0.606396
vt 0.936127 0.557981
vt 0.823811 0.577435
vt 0.936105 0.090634
vt 0.932041 0.065025
vt 0.920417 0.042222
vt 0.902318 0.024126
vt 0.879515 0.012508
vt 0.853908 0.00845
vt 0.961138 0.039851
vt 0.961358 0.129566
vt 0.961209 0.262644
vt 0.961449 0.352456
vt 0.953079 0.219669
vt 0.961616 0.2197
vt 0.961502 0.23171
vt 0.961351 0.24335
vt 0.952851 0.231659
vt 0.952821 0.243266
vt 0.952653 0.250721
vt 0.961262 0.250816
vt 0.953193 0.442436
vt 0.961684 0.442399
vt 0.953108 0.017478
vt 0.961096 0.017508
vt 0.952897 0.028306
vt 0.961117 0.028391
vt 0.961079 0.010599
vt 0.953076 0.010559
vt 0.952713 0.034088
vt 0.961128 0.034082
vt 0.952568 0.256709
vt 0.96122 0.256736
vt 0.952877 0.225649
vt 0.961569 0.225711
vt 0.953427 0.448216
vt 0.961701 0.448112
vt 0.953229 0.005124
vt 0.961064 0.005187
vt 0.623221 0.59365
vt 0.52982 0.606369
vt 0.623227 0.585196
vt 0.518202 0.583575
vt 0.626454 0.577427
vt 0.932076 0.583587
vt 0.827038 0.585209
vt 0.634229 0.574206
vt 0.623213 0.60567
vt 0.5479 0.624461
vt 0.823821 0.613443
vt 0.626581 0.613483
vt 0.816044 0.616669
vt 0.057596 0.93711
vt 0.057662 0.470242
vt 0.007577 0.527165
vt 0.00729 0.059232
vt 0.058775 0.081618
vt 0.007161 0.791026
vt 0.007406 0.917948
vt 0.007649 0.9442
vt 0.007846 0.970088
vt 0.007901 0.996032
vt 0.057477 0.99078
vt 0.0575 0.963896
vt 0.057565 0.443335
vt 0.057393 0.416556
vt 0.057248 0.389931
vt 0.057261 0.363512
vt 0.007201 0.608759
vt 0.00733 0.581459
vt 0.007475 0.554193
vt 0.007308 0.032436
vt 0.00718 0.005509
vt 0.056615 0.003968
vt 0.057278 0.029676
vt 0.058155 0.055321
vt 0.377555 0.616637
vt 0.286643 0.640247
vt 0.286643 0.616705
vt 0.286638 0.06367
vt 0.493553 0.065022
vt 0.286635 0.090272
vt 0.497616 0.090628
vt 0.286646 0.020626
vt 0.463833 0.024124
vt 0.286642 0.039672
vt 0.48193 0.042221
vt 0.441032 0.012501
vt 0.415425 0.008436
vt 0.286642 0.558319
vt 0.497629 0.557976
vt 0.132188 0.636085
vt 0.157804 0.640162
vt 0.184726 0.605636
vt 0.109403 0.624462
vt 0.09132 0.606372
vt 0.195738 0.574205
vt 0.07565 0.557977
vt 0.187965 0.577425
vt 0.075622 0.090591
vt 0.079678 0.064973
vt 0.091296 0.04216
vt 0.10939 0.02405
vt 0.132196 0.012422
vt 0.969606 0.039827
vt 0.969843 0.129542
vt 0.969709 0.262639
vt 0.969929 0.35243
vt 0.970172 0.219684
vt 0.97017 0.231863
vt 0.970178 0.442391
vt 0.969088 0.017443
vt 0.969338 0.028273
vt 0.969087 0.010517
vt 0.969541 0.034053
vt 0.969822 0.256752
vt 0.970302 0.22577
vt 0.969974 0.448172
vt 0.968902 0.005077
vt 0.493577 0.583576
vt 0.481965 0.606371
vt 0.388547 0.585193
vt 0.388553 0.593649
vt 0.38532 0.577425
vt 0.079707 0.583577
vt 0.377546 0.574205
vt 0.286643 0.574211
vt 0.463882 0.624462
vt 0.388558 0.60567
vt 0.187954 0.61341
vt 0.385177 0.613474
vt 0.195731 0.616637
vt 0.027238 0.944151
vt 0.880589 0.639262
vt 0.037423 0.937018
vt 0.03748 0.470329
vt 0.939352 0.558218
vt 0.93933 0.090397
vt 0.037403 0.443408
vt 0.935144 0.064017
vt 0.037482 0.336888
vt 0.03833 0.209108
vt 0.854149 0.005227
vt 0.725133 0.005223
vt 0.02781 0.527068
vt 0.027897 0.554233
vt 0.510919 0.558211
vt 0.5151 0.584583
vt 0.510937 0.090397
vt 0.027509 0.059304
vt 0.027275 0.969987
vt 0.904295 0.627146
vt 0.02752 0.995722
vt 0.923103 0.608311
vt 0.037159 0.990478
vt 0.037396 0.963824
vt 0.935178 0.584594
vt 0.037305 0.416633
vt 0.923056 0.040304
vt 0.037275 0.389946
vt 0.904235 0.021486
vt 0.037357 0.363436
vt 0.880522 0.009405
vt 0.027445 0.636028
vt 0.027247 0.662929
vt 0.569668 0.639189
vt 0.59605 0.643387
vt 0.545984 0.627097
vt 0.027669 0.608868
vt 0.527183 0.608285
vt 0.027853 0.581552
vt 0.515122 0.064017
vt 0.027452 0.032424
vt 0.52721 0.040304
vt 0.027543 0.005699
vt 0.546031 0.021486
vt 0.037178 0.004724
vt 0.03799 0.030279
vt 0.949684 0.034016
vt 0.628969 0.611035
vt 0.94944 0.256701
vt 0.82139 0.579859
vt 0.949621 0.243151
vt 0.94965 0.231595
vt 0.823833 0.593483
vt 0.82385 0.60504
vt 0.82384 0.585844
vt 0.949482 0.250671
vt 0.950118 0.017529
vt 0.950062 0.010493
vt 0.626428 0.593464
vt 0.626423 0.585832
vt 0.950334 0.004531
vt 0.628875 0.579852
vt 0.626409 0.605017
vt 0.949894 0.028273
vt 0.815443 0.613449
vt 0.949864 0.219879
vt 0.949764 0.225614
vt 0.821404 0.611018
vt 0.634828 0.577426
vt 0.949974 0.442666
vt 0.950402 0.448913
vt 0.004237 0.917897
vt 0.003976 0.791029
vt 0.15756 0.643387
vt 0.286643 0.643474
vt 0.060813 0.937026
vt 0.060724 0.963901
vt 0.072425 0.558214
vt 0.076605 0.584584
vt 0.072398 0.090354
vt 0.06088 0.470328
vt 0.060446 0.363523
vt 0.131188 0.009321
vt 0.004351 0.52708
vt 0.004066 0.059319
vt 0.500854 0.558212
vt 0.50084 0.090391
vt 0.004081 0.032445
vt 0.496656 0.064015
vt 0.131178 0.639187
vt 0.004507 0.944225
vt 0.107487 0.627099
vt 0.004732 0.970102
vt 0.088684 0.608286
vt 0.00477 0.995846
vt 0.060719 0.990587
vt 0.076574 0.063965
vt 0.060801 0.443316
vt 0.088656 0.040244
vt 0.060613 0.416537
vt 0.10747 0.021411
vt 0.060447 0.389922
vt 0.003916 0.608748
vt 0.465799 0.627099
vt 0.004039 0.581443
vt 0.484601 0.608286
vt 0.004202 0.554177
vt 0.496679 0.584583
vt 0.003935 0.005723
vt 0.484569 0.040303
vt 0.05972 0.004083
vt 0.060365 0.029585
vt 0.465751 0.021483
vt 0.061287 0.055232
vt 0.442039 0.0094
vt 0.061958 0.081675
vt 0.415667 0.005214
vt 0.973061 0.129532
vt 0.973392 0.219875
vt 0.286643 0.61348
vt 0.196333 0.613417
vt 0.376953 0.613417
vt 0.972804 0.039607
vt 0.973147 0.352421
vt 0.973399 0.442605
vt 0.286643 0.577436
vt 0.376947 0.577424
vt 0.196337 0.577425
vt 0.972908 0.262427
vt 0.972873 0.256746
vt 0.190389 0.579849
vt 0.972081 0.017482
vt 0.972341 0.02823
vt 0.385346 0.593462
vt 0.385363 0.605017
vt 0.385349 0.58583
vt 0.972104 0.010434
vt 0.972567 0.033969
vt 0.382793 0.611034
vt 0.973477 0.225794
vt 0.190375 0.610986
vt 0.187922 0.605008
vt 0.973392 0.231895
vt 0.973002 0.448854
vt 0.382897 0.579849
vt 0.971798 0.004465
usemtl ChoppingBoardSG
f 1/1/1 2/2/2 3/3/3
f 3/3/3 2/2/2 4/4/4
f 5/5/5 6/6/6 1/7/1
f 1/7/1 6/6/6 2/8/2
f 7/9/7 8/10/8 9/11/9
f 9/11/9 8/10/8 10/12/10
f 11/13/11 12/14/12 7/15/7
f 7/15/7 12/14/12 8/16/8
f 13/17/13 14/18/14 15/19/15
f 15/19/15 14/18/14 16/20/16
f 14/21/14 17/22/17 16/23/16
f 16/23/16 17/22/17 18/24/18
f 19/25/19 20/26/20 21/27/21
f 21/27/21 20/26/20 22/28/22
f 20/29/20 23/30/23 22/31/22
f 22/31/22 23/30/23 24/32/24
f 25/33/25 26/34/26 27/35/27
f 27/35/27 26/34/26 28/36/28
f 29/37/29 30/38/30 25/39/25
f 25/39/25 30/38/30 26/40/26
f 31/41/31 32/42/32 33/43/33
f 33/43/33 32/42/32 34/44/34
f 35/45/35 36/46/36 31/47/31
f 31/47/31 36/46/36 32/48/32
f 37/49/37 38/50/38 39/51/39
f 39/51/39 38/50/38 40/52/40
f 38/53/38 41/54/41 40/55/40
f 40/55/40 41/54/41 42/56/42
f 43/57/43 44/58/44 45/59/45
f 45/59/45 44/58/44 46/60/46
f 47/61/47 48/62/48 49/63/49
f 49/63/49 48/62/48 50/64/50
f 51/65/51 12/14/12 52/66/52
f 52/66/52 12/14/12 53/67/53
f 6/6/6 5/5/5 54/68/54
f 54/68/54 5/5/5 55/69/55
f 55/69/55 5/5/5 56/70/56
f 56/70/56 5/5/5 57/71/57
f 56/70/56 57/71/57 58/72/58
f 58/72/58 57/71/57 59/73/59
f 58/72/58 59/73/59 60/74/60
f 60/74/60 59/73/59 61/75/61
f 60/76/60 61/77/61 62/78/62
f 62/78/62 61/77/61 63/79/63
f 62/78/62 63/79/63 45/59/45
f 45/59/45 63/79/63 43/57/43
f 46/60/46 44/58/44 64/80/64
f 64/80/64 44/58/44 65/81/65
f 64/80/64 65/81/65 66/82/66
f 66/82/66 65/81/65 67/83/67
f 66/82/66 67/83/67 68/84/68
f 68/84/68 67/83/67 69/85/69
f 68/84/68 69/85/69 70/86/70
f 70/86/70 69/85/69 71/87/71
f 70/86/70 71/87/71 72/88/72
f 72/88/72 71/87/71 73/89/73
f 74/90/74 75/91/75 76/92/76
f 76/92/76 75/91/75 77/93/77
f 76/92/76 77/93/77 78/94/78
f 78/94/78 77/93/77 79/95/79
f 78/94/78 79/95/79 80/96/80
f 80/96/80 79/95/79 81/97/81
f 80/96/80 81/97/81 82/98/82
f 82/98/82 81/97/81 83/99/83
f 82/98/82 83/99/83 49/63/49
f 49/63/49 83/99/83 47/61/47
f 50/64/50 48/62/48 84/100/84
f 84/100/84 48/62/48 85/101/85
f 84/100/84 85/101/85 86/102/86
f 86/102/86 85/101/85 87/103/87
f 86/104/86 87/105/87 88/106/88
f 88/106/88 87/105/87 89/107/89
f 88/106/88 89/107/89 11/13/11
f 11/13/11 89/107/89 90/108/90
f 11/13/11 90/108/90 12/14/12
f 12/14/12 90/108/90 53/67/53
f 18/24/18 17/22/17 4/4/4
f 91/109/91 92/110/92 93/111/93
f 93/111/93 92/110/92 94/112/93
f 95/113/94 96/114/95 97/115/93
f 97/115/93 96/114/95 98/116/93
f 92/110/92 95/113/94 94/112/93
f 94/112/93 95/113/94 97/115/93
f 9/11/9 10/12/10 99/117/96
f 99/117/96 98/116/93 9/11/9
f 9/11/9 98/116/93 96/114/95
f 100/118/93 101/119/97 93/111/93
f 93/111/93 101/119/97 91/109/91
f 4/4/4 102/120/98 103/121/99
f 104/122/100 3/3/3 4/4/4
f 105/123/101 106/124/102 107/125/103
f 107/125/103 106/124/102 108/126/104
f 100/118/93 109/127/105 24/32/24
f 110/128/106 24/32/24 109/127/105
f 111/129/107 109/127/105 93/111/93
f 93/111/93 109/127/105 100/118/93
f 111/129/107 93/111/93 112/130/108
f 112/130/108 93/111/93 94/112/93
f 112/130/108 94/112/93 113/131/109
f 113/131/109 94/112/93 97/115/93
f 113/131/109 97/115/93 114/132/110
f 114/132/110 97/115/93 98/116/93
f 99/117/96 115/133/111 98/116/93
f 98/116/93 115/133/111 114/132/110
f 99/117/96 116/134/112 115/133/111
f 74/90/74 6/6/6 75/91/75
f 75/91/75 6/6/6 54/68/54
f 73/89/73 51/65/51 72/88/72
f 72/88/72 51/65/51 52/66/52
f 117/135/113 118/136/52 15/19/15
f 15/19/15 118/136/52 13/17/13
f 119/137/114 120/138/54 21/27/21
f 21/27/21 120/138/54 19/25/19
f 13/17/13 118/136/52 121/139/115
f 121/139/115 118/136/52 122/140/116
f 123/141/117 124/142/118 125/143/119
f 125/143/119 124/142/118 126/144/120
f 126/144/120 124/142/118 127/145/121
f 127/145/121 124/142/118 128/146/122
f 19/25/19 120/138/54 129/147/123
f 129/147/123 120/138/54 130/148/124
f 131/149/125 132/150/126 133/151/127
f 133/151/127 132/150/126 134/152/128
f 135/153/129 132/150/126 136/154/130
f 136/154/130 132/150/126 131/149/125
f 137/155/131 133/151/127 138/156/132
f 138/156/132 133/151/127 134/152/128
f 138/156/132 117/135/113 137/155/131
f 137/155/131 117/135/113 15/19/15
f 127/145/121 128/146/122 139/157/133
f 139/157/133 128/146/122 140/158/134
f 139/157/133 140/158/134 21/27/21
f 21/27/21 140/158/134 119/137/114
f 121/139/115 122/140/116 141/159/135
f 141/159/135 122/140/116 142/160/136
f 141/159/135 142/160/136 125/143/119
f 125/143/119 142/160/136 123/141/117
f 129/147/123 130/148/124 143/161/137
f 143/161/137 130/148/124 144/162/138
f 143/163/137 144/164/138 136/154/130
f 136/154/130 144/164/138 135/153/129
f 145/165/139 146/166/140 147/167/141
f 147/167/141 146/166/140 148/168/142
f 147/167/141 148/168/142 149/169/143
f 149/169/143 148/168/142 101/119/97
f 150/170/144 108/126/104 151/171/145
f 151/171/145 108/126/104 106/124/102
f 100/118/93 152/172/146 101/119/97
f 152/172/146 149/169/143 101/119/97
f 152/172/146 100/118/93 23/30/23
f 24/32/24 23/30/23 100/118/93
f 151/171/145 110/128/106 150/170/144
f 150/170/144 110/128/106 109/127/105
f 153/173/147 154/174/148 145/165/139
f 145/165/139 154/174/148 146/166/140
f 155/175/149 105/123/101 104/122/100
f 104/122/100 105/123/101 107/125/103
f 156/176/150 103/121/99 153/173/147
f 153/173/147 103/121/99 154/174/148
f 157/177/151 4/4/4 17/22/17
f 4/4/4 103/121/99 18/24/18
f 156/176/150 18/24/18 103/121/99
f 4/4/4 157/177/151 104/122/100
f 157/177/151 155/175/149 104/122/100
f 158/178/152 45/59/45 159/179/153
f 159/179/153 45/59/45 46/60/46
f 47/61/47 160/180/154 48/62/48
f 48/62/48 160/180/154 161/181/155
f 30/38/30 52/66/52 162/182/156
f 162/182/156 52/66/52 53/67/53
f 163/183/157 54/68/54 164/184/158
f 164/184/158 54/68/54 55/69/55
f 55/69/55 56/70/56 164/184/158
f 164/184/158 56/70/56 165/185/159
f 56/70/56 58/72/58 165/185/159
f 165/185/159 58/72/58 166/186/160
f 58/72/58 60/74/60 166/186/160
f 166/186/160 60/74/60 167/187/161
f 60/76/60 62/78/62 167/188/161
f 167/188/161 62/78/62 168/189/162
f 62/78/62 45/59/45 168/189/162
f 168/189/162 45/59/45 158/178/152
f 46/60/46 64/80/64 159/179/153
f 159/179/153 64/80/64 169/190/163
f 64/80/64 66/82/66 169/190/163
f 169/190/163 66/82/66 170/191/164
f 66/82/66 68/84/68 170/191/164
f 170/191/164 68/84/68 171/192/165
f 68/84/68 70/86/70 171/192/165
f 171/192/165 70/86/70 172/193/166
f 70/86/70 72/88/72 172/193/166
f 172/193/166 72/88/72 29/37/29
f 36/46/36 35/45/35 75/91/75
f 75/91/75 35/45/35 77/93/77
f 35/45/35 173/194/167 77/93/77
f 77/93/77 173/194/167 79/95/79
f 173/194/167 174/195/168 79/95/79
f 79/95/79 174/195/168 81/97/81
f 174/195/168 175/196/169 81/97/81
f 81/97/81 175/196/169 83/99/83
f 175/196/169 160/180/154 83/99/83
f 83/99/83 160/180/154 47/61/47
f 161/181/155 176/197/170 48/62/48
f 48/62/48 176/197/170 85/101/85
f 176/197/170 177/198/171 85/101/85
f 85/101/85 177/198/171 87/103/87
f 177/199/171 178/200/172 87/105/87
f 87/105/87 178/200/172 89/107/89
f 178/200/172 179/201/173 89/107/89
f 89/107/89 179/201/173 90/108/90
f 179/201/173 162/182/156 90/108/90
f 90/108/90 162/182/156 53/67/53
f 180/202/174 181/203/175 182/204/176
f 183/205/177 184/206/178 185/207/177
f 185/207/177 184/206/178 186/208/179
f 187/209/177 188/210/180 189/211/177
f 189/211/177 188/210/180 190/212/181
f 189/211/177 190/212/181 183/205/177
f 183/205/177 190/212/181 184/206/178
f 191/213/182 28/36/28 192/214/183
f 188/210/180 187/209/177 191/213/182
f 191/213/182 187/209/177 28/36/28
f 193/215/177 185/207/177 194/216/184
f 194/216/184 185/207/177 186/208/179
f 181/203/175 33/43/33 34/44/34
f 195/217/185 181/203/175 196/218/186
f 197/219/187 198/220/188 41/54/41
f 41/54/41 198/220/188 199/221/189
f 193/215/177 200/222/190 201/223/191
f 202/224/192 201/223/191 200/222/190
f 203/225/193 185/207/177 201/223/191
f 201/223/191 185/207/177 193/215/177
f 183/205/177 185/207/177 204/226/194
f 204/226/194 185/207/177 203/225/193
f 189/211/177 183/205/177 205/227/195
f 205/227/195 183/205/177 204/226/194
f 187/209/177 189/211/177 206/228/196
f 206/228/196 189/211/177 205/227/195
f 28/36/28 187/209/177 207/229/197
f 207/229/197 187/209/177 206/228/196
f 28/36/28 207/229/197 27/35/27
f 36/46/36 75/91/75 163/183/157
f 163/183/157 75/91/75 54/68/54
f 29/37/29 72/88/72 30/38/30
f 30/38/30 72/88/72 52/66/52
f 117/135/113 208/230/198 118/136/52
f 118/136/52 208/230/198 209/231/199
f 119/137/114 210/232/200 120/138/54
f 120/138/54 210/232/200 211/233/201
f 209/231/199 212/234/202 118/136/52
f 118/136/52 212/234/202 122/140/116
f 123/141/117 213/235/203 124/142/118
f 124/142/118 213/235/203 37/49/37
f 37/49/37 39/51/39 124/142/118
f 124/142/118 39/51/39 128/146/122
f 211/233/201 214/236/204 120/138/54
f 120/138/54 214/236/204 130/148/124
f 215/237/205 216/238/206 132/150/126
f 132/150/126 216/238/206 134/152/128
f 135/153/129 217/239/207 132/150/126
f 132/150/126 217/239/207 215/237/205
f 218/240/208 138/156/132 216/238/206
f 216/238/206 138/156/132 134/152/128
f 208/230/198 117/135/113 218/240/208
f 218/240/208 117/135/113 138/156/132
f 39/51/39 219/241/209 128/146/122
f 128/146/122 219/241/209 140/158/134
f 219/241/209 210/232/200 140/158/134
f 140/158/134 210/232/200 119/137/114
f 212/234/202 220/242/210 122/140/116
f 122/140/116 220/242/210 142/160/136
f 220/242/210 213/235/203 142/160/136
f 142/160/136 213/235/203 123/141/117
f 214/236/204 221/243/211 130/148/124
f 130/148/124 221/243/211 144/162/138
f 221/244/211 217/239/207 144/164/138
f 144/164/138 217/239/207 135/153/129
f 222/245/212 223/246/213 224/247/214
f 224/247/214 223/246/213 225/248/215
f 194/216/184 222/245/212 226/249/216
f 226/249/216 222/245/212 224/247/214
f 227/250/217 42/56/42 199/221/189
f 199/221/189 42/56/42 41/54/41
f 193/215/177 194/216/184 228/251/218
f 228/251/218 194/216/184 226/249/216
f 228/251/218 229/252/219 193/215/177
f 200/222/190 193/215/177 229/252/219
f 201/223/191 202/224/192 227/250/217
f 227/250/217 202/224/192 42/56/42
f 223/246/213 230/253/220 225/248/215
f 225/248/215 230/253/220 231/254/221
f 232/255/222 195/217/185 197/219/187
f 197/219/187 195/217/185 198/220/188
f 230/253/220 33/43/33 231/254/221
f 231/254/221 33/43/33 233/256/223
f 234/257/224 182/204/176 181/203/175
f 181/203/175 180/202/174 33/43/33
f 233/256/223 33/43/33 180/202/174
f 181/203/175 195/217/185 234/257/224
f 234/257/224 195/217/185 232/255/222
f 1/7/1 235/258/225 5/5/5
f 5/5/5 235/258/225 57/71/57
f 3/3/3 104/122/100 1/1/1
f 1/1/1 104/122/100 235/259/225
f 43/57/43 236/260/226 44/58/44
f 44/58/44 236/260/226 237/261/227
f 236/262/226 109/127/105 237/263/227
f 237/263/227 109/127/105 111/129/107
f 237/261/227 238/264/228 44/58/44
f 44/58/44 238/264/228 65/81/65
f 111/129/107 112/130/108 237/263/227
f 237/263/227 112/130/108 238/265/228
f 73/89/73 239/266/229 51/65/51
f 51/65/51 239/266/229 240/267/230
f 239/268/229 116/134/112 240/269/230
f 240/269/230 116/134/112 99/117/96
f 241/270/231 242/271/232 49/63/49
f 49/63/49 242/271/232 82/98/82
f 101/119/97 148/168/142 241/272/231
f 241/272/231 148/168/142 242/273/232
f 101/119/97 241/272/231 91/109/91
f 91/109/91 241/272/231 243/274/233
f 241/270/231 49/63/49 243/275/233
f 243/275/233 49/63/49 50/64/50
f 57/71/57 235/258/225 59/73/59
f 59/73/59 235/258/225 244/276/234
f 235/259/225 104/122/100 244/277/234
f 244/277/234 104/122/100 107/125/103
f 59/73/59 244/276/234 61/75/61
f 61/75/61 244/276/234 245/278/235
f 244/277/234 107/125/103 245/279/235
f 245/279/235 107/125/103 108/126/104
f 61/77/61 245/280/235 63/79/63
f 63/79/63 245/280/235 246/281/236
f 245/279/235 108/126/104 246/282/236
f 246/282/236 108/126/104 150/170/144
f 109/127/105 236/262/226 150/170/144
f 150/170/144 236/262/226 246/282/236
f 236/260/226 43/57/43 246/281/236
f 246/281/236 43/57/43 63/79/63
f 65/81/65 238/264/228 67/83/67
f 67/83/67 238/264/228 247/283/237
f 238/265/228 112/130/108 247/284/237
f 247/284/237 112/130/108 113/131/109
f 67/83/67 247/283/237 69/85/69
f 69/85/69 247/283/237 248/285/238
f 247/284/237 113/131/109 248/286/238
f 248/286/238 113/131/109 114/132/110
f 69/85/69 248/285/238 71/87/71
f 71/87/71 248/285/238 249/287/239
f 248/286/238 114/132/110 249/288/239
f 249/288/239 114/132/110 115/133/111
f 116/134/112 239/268/229 115/133/111
f 115/133/111 239/268/229 249/288/239
f 239/266/229 73/89/73 249/287/239
f 249/287/239 73/89/73 71/87/71
f 76/92/76 250/289/240 74/90/74
f 74/90/74 250/289/240 251/290/241
f 250/291/240 103/121/99 251/292/241
f 251/292/241 103/121/99 102/120/98
f 4/4/4 2/2/2 102/120/98
f 102/120/98 2/2/2 251/292/241
f 2/8/2 6/6/6 251/290/241
f 251/290/241 6/6/6 74/90/74
f 103/121/99 250/291/240 154/174/148
f 154/174/148 250/291/240 252/293/242
f 250/289/240 76/92/76 252/294/242
f 252/294/242 76/92/76 78/94/78
f 154/174/148 252/293/242 146/166/140
f 146/166/140 252/293/242 253/295/243
f 252/294/242 78/94/78 253/296/243
f 253/296/243 78/94/78 80/96/80
f 146/166/140 253/295/243 148/168/142
f 148/168/142 253/295/243 242/273/232
f 253/296/243 80/96/80 242/271/232
f 242/271/232 80/96/80 82/98/82
f 91/109/91 243/274/233 92/110/92
f 92/110/92 243/274/233 254/297/244
f 243/275/233 50/64/50 254/298/244
f 254/298/244 50/64/50 84/100/84
f 92/110/92 254/297/244 95/113/94
f 95/113/94 254/297/244 255/299/245
f 254/298/244 84/100/84 255/300/245
f 255/300/245 84/100/84 86/102/86
f 95/113/94 255/299/245 96/114/95
f 96/114/95 255/299/245 256/301/246
f 255/302/245 86/104/86 256/303/246
f 256/303/246 86/104/86 88/106/88
f 96/114/95 256/301/246 9/11/9
f 9/11/9 256/301/246 7/9/7
f 256/303/246 88/106/88 7/15/7
f 7/15/7 88/106/88 11/13/11
f 240/267/230 8/16/8 51/65/51
f 51/65/51 8/16/8 12/14/12
f 99/117/96 10/12/10 240/269/230
f 240/269/230 10/12/10 8/10/8
f 15/19/15 16/20/16 137/155/131
f 137/155/131 16/20/16 257/304/247
f 16/23/16 18/24/18 257/305/247
f 257/305/247 18/24/18 156/176/150
f 21/27/21 22/28/22 139/157/133
f 139/157/133 22/28/22 258/306/248
f 22/31/22 24/32/24 258/307/248
f 258/307/248 24/32/24 110/128/106
f 126/144/120 259/308/249 125/143/119
f 125/143/119 259/308/249 260/309/250
f 259/310/249 106/124/102 260/311/250
f 260/311/250 106/124/102 105/123/101
f 259/310/249 261/312/251 106/124/102
f 106/124/102 261/312/251 151/171/145
f 126/144/120 127/145/121 259/308/249
f 259/308/249 127/145/121 261/313/251
f 131/149/125 262/314/252 136/154/130
f 136/154/130 262/314/252 263/315/253
f 262/316/252 145/165/139 263/317/253
f 263/317/253 145/165/139 147/167/141
f 136/154/130 263/315/253 143/163/137
f 143/163/137 263/315/253 264/318/254
f 263/317/253 147/167/141 264/319/254
f 264/319/254 147/167/141 149/169/143
f 262/316/252 265/320/255 145/165/139
f 145/165/139 265/320/255 153/173/147
f 131/149/125 133/151/127 262/314/252
f 262/314/252 133/151/127 265/321/255
f 14/21/14 266/322/256 17/22/17
f 17/22/17 266/322/256 157/177/151
f 13/17/13 121/139/115 14/18/14
f 14/18/14 121/139/115 266/323/256
f 125/143/119 260/309/250 141/159/135
f 141/159/135 260/309/250 267/324/257
f 260/311/250 105/123/101 267/325/257
f 267/325/257 105/123/101 155/175/149
f 20/29/20 268/326/258 23/30/23
f 23/30/23 268/326/258 152/172/146
f 19/25/19 129/147/123 20/26/20
f 20/26/20 129/147/123 268/327/258
f 265/320/255 257/305/247 153/173/147
f 153/173/147 257/305/247 156/176/150
f 133/151/127 137/155/131 265/321/255
f 265/321/255 137/155/131 257/304/247
f 261/312/251 258/307/248 151/171/145
f 151/171/145 258/307/248 110/128/106
f 127/145/121 139/157/133 261/313/251
f 261/313/251 139/157/133 258/306/248
f 266/322/256 267/325/257 157/177/151
f 157/177/151 267/325/257 155/175/149
f 121/139/115 141/159/135 266/323/256
f 266/323/256 141/159/135 267/324/257
f 268/326/258 264/319/254 152/172/146
f 152/172/146 264/319/254 149/169/143
f 129/147/123 143/161/137 268/327/258
f 268/327/258 143/161/137 264/328/254
f 164/184/158 269/329/259 163/183/157
f 163/183/157 269/329/259 270/330/260
f 269/331/259 196/218/186 270/332/260
f 270/332/260 196/218/186 181/203/175
f 271/333/261 272/334/262 158/178/152
f 158/178/152 272/334/262 168/189/162
f 201/223/191 227/250/217 271/335/261
f 271/335/261 227/250/217 272/336/262
f 201/223/191 271/335/261 203/225/193
f 203/225/193 271/335/261 273/337/263
f 271/333/261 158/178/152 273/338/263
f 273/338/263 158/178/152 159/179/153
f 25/39/25 274/339/264 29/37/29
f 29/37/29 274/339/264 172/193/166
f 27/35/27 207/229/197 25/33/25
f 25/33/25 207/229/197 274/340/264
f 160/180/154 275/341/265 161/181/155
f 161/181/155 275/341/265 276/342/266
f 275/343/265 194/216/184 276/344/266
f 276/344/266 194/216/184 186/208/179
f 276/342/266 277/345/267 161/181/155
f 161/181/155 277/345/267 176/197/170
f 186/208/179 184/206/178 276/344/266
f 276/344/266 184/206/178 277/346/267
f 196/218/186 269/331/259 195/217/185
f 195/217/185 269/331/259 278/347/268
f 269/329/259 164/184/158 278/348/268
f 278/348/268 164/184/158 165/185/159
f 195/217/185 278/347/268 198/220/188
f 198/220/188 278/347/268 279/349/269
f 278/348/268 165/185/159 279/350/269
f 279/350/269 165/185/159 166/186/160
f 198/220/188 279/349/269 199/221/189
f 199/221/189 279/349/269 280/351/270
f 279/350/269 166/186/160 280/352/270
f 280/352/270 166/186/160 167/187/161
f 199/221/189 280/351/270 227/250/217
f 227/250/217 280/351/270 272/336/262
f 280/353/270 167/188/161 272/334/262
f 272/334/262 167/188/161 168/189/162
f 203/225/193 273/337/263 204/226/194
f 204/226/194 273/337/263 281/354/271
f 273/338/263 159/179/153 281/355/271
f 281/355/271 159/179/153 169/190/163
f 204/226/194 281/354/271 205/227/195
f 205/227/195 281/354/271 282/356/272
f 281/355/271 169/190/163 282/357/272
f 282/357/272 169/190/163 170/191/164
f 205/227/195 282/356/272 206/228/196
f 206/228/196 282/356/272 283/358/273
f 282/357/272 170/191/164 283/359/273
f 283/359/273 170/191/164 171/192/165
f 206/228/196 283/358/273 207/229/197
f 207/229/197 283/358/273 274/340/264
f 283/359/273 171/192/165 274/339/264
f 274/339/264 171/192/165 172/193/166
f 35/45/35 31/47/31 173/194/167
f 173/194/167 31/47/31 284/360/274
f 31/41/31 33/43/33 284/361/274
f 284/361/274 33/43/33 230/253/220
f 270/330/260 32/48/32 163/183/157
f 163/183/157 32/48/32 36/46/36
f 181/203/175 34/44/34 270/332/260
f 270/332/260 34/44/34 32/42/32
f 173/194/167 284/360/274 174/195/168
f 174/195/168 284/360/274 285/362/275
f 284/361/274 230/253/220 285/363/275
f 285/363/275 230/253/220 223/246/213
f 174/195/168 285/362/275 175/196/169
f 175/196/169 285/362/275 286/364/276
f 285/363/275 223/246/213 286/365/276
f 286/365/276 223/246/213 222/245/212
f 194/216/184 275/343/265 222/245/212
f 222/245/212 275/343/265 286/365/276
f 275/341/265 160/180/154 286/364/276
f 286/364/276 160/180/154 175/196/169
f 176/197/170 277/345/267 177/198/171
f 177/198/171 277/345/267 287/366/277
f 277/346/267 184/206/178 287/367/277
f 287/367/277 184/206/178 190/212/181
f 177/199/171 287/368/277 178/200/172
f 178/200/172 287/368/277 288/369/278
f 287/367/277 190/212/181 288/370/278
f 288/370/278 190/212/181 188/210/180
f 178/200/172 288/369/278 179/201/173
f 179/201/173 288/369/278 289/371/279
f 288/370/278 188/210/180 289/372/279
f 289/372/279 188/210/180 191/213/182
f 179/201/173 289/371/279 162/182/156
f 162/182/156 289/371/279 290/373/280
f 289/372/279 191/213/182 290/374/280
f 290/374/280 191/213/182 192/214/183
f 28/36/28 26/34/26 192/214/183
f 192/214/183 26/34/26 290/374/280
f 26/40/26 30/38/30 290/373/280
f 290/373/280 30/38/30 162/182/156
f 209/231/199 291/375/281 212/234/202
f 212/234/202 291/375/281 292/376/282
f 291/377/281 182/204/176 292/378/282
f 292/378/282 182/204/176 234/257/224
f 291/377/281 293/379/283 182/204/176
f 182/204/176 293/379/283 180/202/174
f 209/231/199 208/230/198 291/375/281
f 291/375/281 208/230/198 293/380/283
f 211/233/201 294/381/284 214/236/204
f 214/236/204 294/381/284 295/382/285
f 294/383/284 229/252/219 295/384/285
f 295/384/285 229/252/219 228/251/218
f 294/383/284 296/385/286 229/252/219
f 229/252/219 296/385/286 200/222/190
f 211/233/201 210/232/200 294/381/284
f 294/381/284 210/232/200 296/386/286
f 39/51/39 40/52/40 219/241/209
f 219/241/209 40/52/40 297/387/287
f 40/55/40 42/56/42 297/388/287
f 297/388/287 42/56/42 202/224/192
f 215/237/205 298/389/288 216/238/206
f 216/238/206 298/389/288 299/390/289
f 298/391/288 225/248/215 299/392/289
f 299/392/289 225/248/215 231/254/221
f 298/391/288 300/393/290 225/248/215
f 225/248/215 300/393/290 224/247/214
f 215/237/205 217/239/207 298/389/288
f 298/389/288 217/239/207 300/394/290
f 216/238/206 299/390/289 218/240/208
f 218/240/208 299/390/289 301/395/291
f 299/392/289 231/254/221 301/396/291
f 301/396/291 231/254/221 233/256/223
f 212/234/202 292/376/282 220/242/210
f 220/242/210 292/376/282 302/397/292
f 292/378/282 234/257/224 302/398/292
f 302/398/292 234/257/224 232/255/222
f 38/53/38 303/399/293 41/54/41
f 41/54/41 303/399/293 197/219/187
f 37/49/37 213/235/203 38/50/38
f 38/50/38 213/235/203 303/400/293
f 214/236/204 295/382/285 221/243/211
f 221/243/211 295/382/285 304/401/294
f 295/384/285 228/251/218 304/402/294
f 304/402/294 228/251/218 226/249/216
f 293/379/283 301/396/291 180/202/174
f 180/202/174 301/396/291 233/256/223
f 208/230/198 218/240/208 293/380/283
f 293/380/283 218/240/208 301/395/291
f 296/385/286 297/388/287 200/222/190
f 200/222/190 297/388/287 202/224/192
f 210/232/200 219/241/209 296/386/286
f 296/386/286 219/241/209 297/387/287
f 303/399/293 302/398/292 197/219/187
f 197/219/187 302/398/292 232/255/222
f 213/235/203 220/242/210 303/400/293
f 303/400/293 220/242/210 302/397/292
f 300/393/290 304/402/294 224/247/214
f 224/247/214 304/402/294 226/249/216
f 217/239/207 221/244/211 300/394/290
f 300/394/290 221/244/211 304/403/294
s off
