# Apple ModelIO OBJ File: IchigoAme_SugarJar
mtllib IchigoAme_SugarJar.mtl
g IchigoAme_SugarJar_Glass5SG
v 0.281402 -0.668842 -0.204451
v 0.330809 -0.668842 -0.107486
v -1e-06 -0.668842 1e-06
v 0.204451 -0.668842 -0.281402
v 0.107486 -0.668842 -0.330809
v 1e-06 -0.668842 -0.347834
v -0.107487 -0.668842 -0.330809
v -0.204455 -0.668842 -0.281402
v -0.281406 -0.668842 -0.204451
v -0.330813 -0.668842 -0.107486
v -0.34784 -0.668842 1e-06
v -0.330813 -0.668842 0.107487
v -0.281406 -0.668842 0.204455
v -0.204455 -0.668842 0.281406
v -0.107487 -0.668842 0.330813
v -1e-06 -0.668842 0.34784
v 0.107486 -0.668842 0.330813
v 0.204451 -0.668842 0.281406
v 0.281402 -0.668842 0.204455
v 0.330809 -0.668842 0.107487
v 0.347834 -0.668842 1e-06
v 0.41519 -0.651412 -0.134902
v 0.353181 -0.651412 -0.256602
v 0.486723 -0.601772 -0.158144
v 0.414031 -0.601772 -0.300813
v 0.551306 -0.439854 -0.17913
v 0.534522 -0.527484 -0.173677
v 0.468969 -0.439854 -0.340725
v 0.45469 -0.527484 -0.330351
v 0.256602 -0.651412 -0.353181
v 0.300813 -0.601772 -0.414031
v 0.340724 -0.439854 -0.468969
v 0.330351 -0.527484 -0.45469
v 0.134902 -0.651412 -0.415186
v 0.158144 -0.601772 -0.486719
v 0.17913 -0.439854 -0.551306
v 0.173677 -0.527484 -0.53452
v 1e-06 -0.651412 -0.436555
v -1e-06 -0.601772 -0.51177
v -1e-06 -0.439854 -0.579675
v -1e-06 -0.527484 -0.562027
v -0.134905 -0.651412 -0.415186
v -0.158148 -0.601772 -0.486719
v -0.179131 -0.439854 -0.551302
v -0.173678 -0.527484 -0.53452
v -0.256604 -0.651412 -0.353181
v -0.300814 -0.601772 -0.414031
v -0.340728 -0.439854 -0.468969
v -0.330355 -0.527484 -0.45469
v -0.353182 -0.651412 -0.256602
v -0.414033 -0.601772 -0.300813
v -0.46897 -0.439854 -0.340725
v -0.454692 -0.527484 -0.330351
v -0.415196 -0.651412 -0.134902
v -0.486729 -0.601772 -0.158144
v -0.55131 -0.439854 -0.17913
v -0.534522 -0.527484 -0.173677
v -0.436557 -0.651412 1e-06
v -0.511776 -0.601772 1e-06
v -0.579679 -0.439854 1e-06
v -0.56203 -0.527484 1e-06
v -0.415196 -0.651412 0.134905
v -0.486729 -0.601772 0.158148
v -0.55131 -0.439854 0.179131
v -0.534522 -0.527484 0.173678
v -0.353182 -0.651412 0.256604
v -0.414033 -0.601772 0.300814
v -0.46897 -0.439854 0.340728
v -0.454692 -0.527484 0.330355
v -0.256604 -0.651412 0.353185
v -0.300814 -0.601772 0.414033
v -0.340728 -0.439854 0.46897
v -0.330355 -0.527484 0.454692
v -0.134905 -0.651412 0.415194
v -0.158148 -0.601772 0.486729
v -0.179131 -0.439854 0.55131
v -0.173678 -0.527484 0.534522
v -1e-06 -0.651412 0.436557
v -1e-06 -0.601772 0.511776
v -1e-06 -0.439854 0.579679
v -1e-06 -0.527484 0.56203
v 0.134902 -0.651412 0.415194
v 0.158144 -0.601772 0.486729
v 0.17913 -0.439854 0.55131
v 0.173677 -0.527484 0.534522
v 0.256602 -0.651412 0.353185
v 0.300813 -0.601772 0.414033
v 0.340724 -0.439854 0.46897
v 0.330351 -0.527484 0.454692
v 0.353181 -0.651412 0.256604
v 0.414031 -0.601772 0.300814
v 0.468969 -0.439854 0.340728
v 0.45469 -0.527484 0.330355
v 0.415185 -0.651412 0.134905
v 0.486723 -0.601772 0.158148
v 0.5513 -0.439854 0.179131
v 0.53452 -0.527484 0.173678
v 0.436555 -0.651412 1e-06
v 0.51177 -0.601772 1e-06
v 0.579677 -0.439854 1e-06
v 0.562027 -0.527484 1e-06
v 0.297914 -0.576763 -0.09679
v 0.373894 -0.561067 -0.121481
v 0.253414 -0.576763 -0.184114
v 0.31805 -0.561067 -0.231077
v 0.438305 -0.516369 -0.142411
v 0.372844 -0.516369 -0.270885
v 0.481347 -0.449474 -0.156395
v 0.409454 -0.449474 -0.297485
v 0.496459 -0.370568 -0.161307
v 0.42231 -0.370568 -0.30683
v -1e-06 -0.576763 1e-06
v 0.184114 -0.576763 -0.253416
v 0.09679 -0.576763 -0.297914
v -1e-06 -0.576763 -0.313247
v -0.0968 -0.576763 -0.297914
v -0.184129 -0.576763 -0.253414
v -0.253429 -0.576763 -0.184114
v -0.297926 -0.576763 -0.096796
v -0.313253 -0.576763 1e-06
v -0.297926 -0.576763 0.096802
v -0.253429 -0.576763 0.184127
v -0.184127 -0.576763 0.253426
v -0.096802 -0.576763 0.297926
v -1e-06 -0.576763 0.313251
v 0.09679 -0.576763 0.297926
v 0.184114 -0.576763 0.253426
v 0.253414 -0.576763 0.184129
v 0.297909 -0.576763 0.0968
v 0.313245 -0.576763 -1e-06
v 0.496459 0.354702 -0.161307
v 0.42231 0.354702 -0.30683
v 0.306823 0.354702 -0.422312
v 0.306823 -0.370568 -0.422312
v 0.161307 0.354702 -0.496459
v 0.161307 -0.370568 -0.496459
v -1e-06 0.354702 -0.522009
v -1e-06 -0.370568 -0.522009
v -0.161313 0.354702 -0.496459
v -0.161313 -0.370568 -0.496459
v -0.306836 0.354702 -0.422312
v -0.306836 -0.370568 -0.422312
v -0.422323 0.354702 -0.30683
v -0.422323 -0.370568 -0.30683
v -0.49647 0.354702 -0.161307
v -0.49647 -0.370568 -0.161307
v -0.522017 0.354702 1e-06
v -0.522017 -0.370568 1e-06
v -0.49647 0.354702 0.161313
v -0.49647 -0.370568 0.161313
v -0.422323 0.354702 0.306836
v -0.422323 -0.370568 0.306836
v -0.306836 0.354702 0.422321
v -0.306836 -0.370568 0.422321
v -0.161313 0.354702 0.49647
v -0.161313 -0.370568 0.49647
v -1e-06 0.354702 0.522017
v -1e-06 -0.370568 0.522017
v 0.161307 0.354702 0.49647
v 0.161307 -0.370568 0.49647
v 0.306823 0.354702 0.422321
v 0.306823 -0.370568 0.422321
v 0.42231 0.354702 0.306836
v 0.42231 -0.370568 0.306836
v 0.496455 0.354702 0.161313
v 0.496455 -0.370568 0.161313
v 0.522007 0.354702 1e-06
v 0.522007 -0.370568 1e-06
v 0.297485 -0.449474 -0.409454
v 0.270883 -0.516369 -0.372846
v 0.231073 -0.561067 -0.31805
v 0.156395 -0.449474 -0.481347
v 0.142411 -0.516369 -0.438309
v 0.121481 -0.561067 -0.373896
v -1e-06 -0.449474 -0.506118
v -1e-06 -0.516369 -0.460864
v -1e-06 -0.561067 -0.393137
v -0.156401 -0.449474 -0.481347
v -0.142417 -0.516369 -0.438305
v -0.121489 -0.561067 -0.373894
v -0.297495 -0.449474 -0.409454
v -0.270896 -0.516369 -0.372844
v -0.231088 -0.561067 -0.31805
v -0.409466 -0.449474 -0.297485
v -0.372858 -0.516369 -0.270885
v -0.31806 -0.561067 -0.231077
v -0.48136 -0.449474 -0.156395
v -0.438317 -0.516369 -0.142413
v -0.373904 -0.561067 -0.121483
v -0.506129 -0.449474 1e-06
v -0.460872 -0.516369 1e-06
v -0.393147 -0.561067 1e-06
v -0.48136 -0.449474 0.156401
v -0.438317 -0.516369 0.142417
v -0.373904 -0.561067 0.121489
v -0.409466 -0.449474 0.297497
v -0.372858 -0.516369 0.270896
v -0.31806 -0.561067 0.231086
v -0.297495 -0.449474 0.409466
v -0.270896 -0.516369 0.372854
v -0.231086 -0.561067 0.31806
v -0.156401 -0.449474 0.481358
v -0.142419 -0.516369 0.438315
v -0.121489 -0.561067 0.373902
v -1e-06 -0.449474 0.506129
v -1e-06 -0.516369 0.46087
v -1e-06 -0.561067 0.393147
v 0.156395 -0.449474 0.481358
v 0.142411 -0.516369 0.438315
v 0.121483 -0.561067 0.373902
v 0.297485 -0.449474 0.409466
v 0.270883 -0.516369 0.372854
v 0.231073 -0.561067 0.31806
v 0.409454 -0.449474 0.297497
v 0.372841 -0.516369 0.270896
v 0.31805 -0.561067 0.231088
v 0.481341 -0.449474 0.156401
v 0.438302 -0.516369 0.142415
v 0.37389 -0.561067 0.121489
v 0.506118 -0.449474 1e-06
v 0.460864 -0.516369 1e-06
v 0.393137 -0.561067 1e-06
v 0.551306 0.391766 -0.17913
v 0.521356 0.454973 -0.169398
v 0.579677 0.391766 1e-06
v 0.548182 0.454973 1e-06
v 0.443492 0.454973 -0.322214
v 0.468969 0.391766 -0.340725
v 0.322214 0.454973 -0.443492
v 0.340724 0.391766 -0.468969
v 0.169398 0.454973 -0.521354
v 0.17913 0.391766 -0.551306
v -1e-06 0.454973 -0.548184
v -1e-06 0.391766 -0.579675
v -0.169399 0.454973 -0.521352
v -0.179131 0.391766 -0.551302
v -0.322218 0.454973 -0.443492
v -0.340728 0.391766 -0.468969
v -0.443494 0.454973 -0.322214
v -0.46897 0.391766 -0.340725
v -0.52136 0.454973 -0.169398
v -0.55131 0.391766 -0.17913
v -0.548185 0.454973 1e-06
v -0.579679 0.391766 1e-06
v -0.52136 0.454973 0.169402
v -0.55131 0.391766 0.179131
v -0.443494 0.454973 0.322218
v -0.46897 0.391766 0.340728
v -0.322218 0.454973 0.443494
v -0.340728 0.391766 0.46897
v -0.169399 0.454973 0.521358
v -0.179131 0.391766 0.55131
v -1e-06 0.454973 0.548188
v -1e-06 0.391766 0.579679
v 0.169398 0.454973 0.521358
v 0.17913 0.391766 0.55131
v 0.322214 0.454973 0.443494
v 0.340724 0.391766 0.46897
v 0.443492 0.454973 0.322218
v 0.468969 0.391766 0.340728
v 0.521345 0.454973 0.169402
v 0.5513 0.391766 0.179131
v 0.472133 0.490514 -0.153403
v 0.401617 0.490514 -0.291793
v 0.291791 0.490514 -0.401617
v 0.153406 0.490514 -0.472133
v -1e-06 0.490514 -0.496429
v -0.153407 0.490514 -0.472131
v -0.291801 0.490514 -0.401617
v -0.401625 0.490514 -0.291793
v -0.472139 0.490514 -0.153403
v -0.49643 0.490514 1e-06
v -0.472139 0.490514 0.153407
v -0.401625 0.490514 0.291799
v -0.291801 0.490514 0.401625
v -0.153407 0.490514 0.472135
v -1e-06 0.490514 0.49643
v 0.153406 0.490514 0.472135
v 0.291791 0.490514 0.401625
v 0.401617 0.490514 0.291799
v 0.472126 0.490514 0.153407
v 0.496428 0.490514 1e-06
v 0.420917 0.462945 -0.136761
v 0.46519 0.410985 -0.151143
v 0.442579 0.462945 1e-06
v 0.489129 0.410985 1e-06
v 0.395702 0.410985 -0.287503
v 0.358048 0.462946 -0.26014
v 0.287494 0.410985 -0.395711
v 0.260138 0.462946 -0.35805
v 0.151143 0.410985 -0.465192
v 0.136761 0.462945 -0.420919
v -1e-06 0.410985 -0.489131
v -1e-06 0.462946 -0.442577
v -0.151154 0.410985 -0.46519
v -0.136765 0.462946 -0.420915
v -0.287509 0.410985 -0.395711
v -0.260146 0.462946 -0.35805
v -0.395721 0.410985 -0.287503
v -0.35806 0.462946 -0.26014
v -0.465198 0.410985 -0.151143
v -0.420923 0.462946 -0.136761
v -0.489135 0.410985 1e-06
v -0.442583 0.462946 1e-06
v -0.465198 0.410985 0.151154
v -0.420923 0.462946 0.136765
v -0.395721 0.410985 0.287509
v -0.35806 0.462946 0.260146
v -0.287509 0.410985 0.395719
v -0.260146 0.462946 0.358056
v -0.151154 0.410985 0.465196
v -0.136765 0.462946 0.420923
v -1e-06 0.410985 0.489133
v -1e-06 0.462946 0.442581
v 0.151143 0.410985 0.465196
v 0.136761 0.462946 0.420923
v 0.287494 0.410985 0.395719
v 0.260138 0.462945 0.358056
v 0.395702 0.410985 0.287509
v 0.358048 0.462946 0.260146
v 0.465183 0.410985 0.151154
v 0.420911 0.462946 0.136765
v 0.472133 0.556077 -0.153403
v 0.461892 0.567494 -0.150073
v 0.496428 0.556077 1e-06
v 0.485662 0.567494 1e-06
v 0.392904 0.567494 -0.285462
v 0.401617 0.556077 -0.291793
v 0.28546 0.567494 -0.392904
v 0.291791 0.556077 -0.401617
v 0.150073 0.567494 -0.461892
v 0.153406 0.556077 -0.472133
v -1e-06 0.567494 -0.485662
v -1e-06 0.556077 -0.496429
v -0.150081 0.567494 -0.46189
v -0.153407 0.556077 -0.472131
v -0.285472 0.567494 -0.392904
v -0.291801 0.556077 -0.401617
v -0.392913 0.567494 -0.285462
v -0.401625 0.556077 -0.291793
v -0.461899 0.567494 -0.150073
v -0.472139 0.556077 -0.153403
v -0.485663 0.567494 1e-06
v -0.49643 0.556077 1e-06
v -0.461899 0.567494 0.150079
v -0.472139 0.556077 0.153407
v -0.392913 0.567494 0.28547
v -0.401625 0.556077 0.291799
v -0.285472 0.567494 0.392913
v -0.291801 0.556077 0.401625
v -0.150081 0.567494 0.461894
v -0.153407 0.556077 0.472135
v -1e-06 0.567494 0.485663
v -1e-06 0.556077 0.49643
v 0.150073 0.567494 0.461894
v 0.153406 0.556077 0.472135
v 0.28546 0.567494 0.392913
v 0.291791 0.556077 0.401625
v 0.392904 0.567494 0.28547
v 0.401617 0.556077 0.291799
v 0.461886 0.567494 0.150079
v 0.472126 0.556077 0.153407
v 0.431158 0.567494 -0.140091
v 0.420917 0.556077 -0.136761
v 0.453348 0.567494 1e-06
v 0.442579 0.556077 1e-06
v 0.358048 0.556077 -0.26014
v 0.36676 0.567494 -0.266469
v 0.260138 0.556077 -0.35805
v 0.266465 0.567494 -0.366763
v 0.136761 0.556077 -0.420919
v 0.140091 0.567494 -0.431158
v -1e-06 0.556077 -0.442577
v -1e-06 0.567494 -0.453346
v -0.136765 0.556077 -0.420915
v -0.140095 0.567494 -0.431158
v -0.260146 0.556077 -0.35805
v -0.266475 0.567494 -0.366763
v -0.35806 0.556077 -0.26014
v -0.366771 0.567494 -0.266469
v -0.420923 0.556077 -0.136761
v -0.431166 0.567494 -0.140091
v -0.442583 0.556077 1e-06
v -0.453352 0.567494 1e-06
v -0.420923 0.556077 0.136765
v -0.431166 0.567494 0.140095
v -0.35806 0.556077 0.260146
v -0.366771 0.567494 0.266475
v -0.260146 0.556077 0.358056
v -0.266475 0.567494 0.366769
v -0.136765 0.556077 0.420923
v -0.140095 0.567494 0.431164
v -1e-06 0.556077 0.442581
v -1e-06 0.567494 0.45335
v 0.136761 0.556077 0.420923
v 0.140091 0.567494 0.431164
v 0.260138 0.556077 0.358056
v 0.266465 0.567494 0.366769
v 0.358048 0.556077 0.260146
v 0.36676 0.567494 0.266475
v 0.420911 0.556077 0.136765
v 0.431153 0.567494 0.140095
vn 0.065333 -0.996734 -0.047467
vn 0.076803 -0.996734 -0.024955
vn 0 -1 0
vn 0.047466 -0.996734 -0.065333
vn 0.024956 -0.996734 -0.076804
vn 0 -0.996734 -0.080757
vn -0.024955 -0.996734 -0.076804
vn -0.047466 -0.996734 -0.065333
vn -0.065333 -0.996734 -0.047467
vn -0.076803 -0.996734 -0.024955
vn -0.080757 -0.996734 0
vn -0.076802 -0.996734 0.024955
vn -0.065333 -0.996734 0.047467
vn -0.047467 -0.996734 0.065333
vn -0.024955 -0.996734 0.076802
vn -0 -0.996734 0.080758
vn 0.024955 -0.996734 0.076803
vn 0.047467 -0.996734 0.065333
vn 0.065333 -0.996734 0.047466
vn 0.076804 -0.996734 0.024955
vn 0.080757 -0.996734 1e-06
vn 0.391883 -0.911161 -0.127329
vn 0.333355 -0.911162 -0.242194
vn 0.68586 -0.692774 -0.222846
vn 0.583429 -0.692771 -0.423886
vn 0.950892 -0.018593 -0.308964
vn 0.882061 -0.373939 -0.286597
vn 0.808875 -0.018593 -0.587686
vn 0.750326 -0.373934 -0.545146
vn 0.242191 -0.911161 -0.333359
vn 0.423879 -0.692772 -0.583432
vn 0.587686 -0.018593 -0.808876
vn 0.545142 -0.373939 -0.750327
vn 0.127331 -0.91116 -0.391885
vn 0.222846 -0.692777 -0.685857
vn 0.308958 -0.018593 -0.950894
vn 0.286595 -0.373946 -0.882059
vn 1e-06 -0.911159 -0.412056
vn -1e-06 -0.692775 -0.721154
vn -1.2e-05 -0.018592 -0.999827
vn -3e-06 -0.373941 -0.927453
vn -0.127329 -0.911161 -0.391884
vn -0.222846 -0.692778 -0.685856
vn -0.308957 -0.018591 -0.950894
vn -0.286593 -0.373935 -0.882064
vn -0.242193 -0.911161 -0.333359
vn -0.42388 -0.692773 -0.583431
vn -0.587678 -0.018592 -0.808881
vn -0.545141 -0.373935 -0.750329
vn -0.333352 -0.911162 -0.242199
vn -0.58343 -0.692768 -0.42389
vn -0.808876 -0.018594 -0.587686
vn -0.750327 -0.373934 -0.545144
vn -0.391883 -0.911161 -0.127332
vn -0.685867 -0.692764 -0.222854
vn -0.950892 -0.018594 -0.308964
vn -0.882062 -0.373931 -0.286605
vn -0.412044 -0.911164 -0
vn -0.721166 -0.692763 -0
vn -0.999827 -0.018595 0
vn -0.927458 -0.373927 0
vn -0.391882 -0.911161 0.127332
vn -0.685867 -0.692764 0.222855
vn -0.950893 -0.018594 0.308962
vn -0.882063 -0.373931 0.286602
vn -0.333353 -0.911162 0.242199
vn -0.583429 -0.692768 0.42389
vn -0.808876 -0.018594 0.587686
vn -0.750326 -0.373936 0.545145
vn -0.242199 -0.911161 0.333355
vn -0.42389 -0.692768 0.583429
vn -0.587686 -0.018594 0.808876
vn -0.545145 -0.373936 0.750326
vn -0.12733 -0.911162 0.391881
vn -0.222854 -0.692765 0.685867
vn -0.308962 -0.018594 0.950893
vn -0.286603 -0.373931 0.882063
vn 0 -0.911164 0.412044
vn 0 -0.692766 0.721163
vn 0 -0.018595 0.999827
vn -0 -0.373926 0.927458
vn 0.12733 -0.911162 0.391881
vn 0.222853 -0.692765 0.685866
vn 0.308964 -0.018594 0.950892
vn 0.286605 -0.373931 0.882062
vn 0.242198 -0.911161 0.333355
vn 0.42389 -0.692767 0.583431
vn 0.587686 -0.018594 0.808876
vn 0.545144 -0.373934 0.750327
vn 0.333357 -0.911162 0.242192
vn 0.583429 -0.692772 0.423883
vn 0.808884 -0.018592 0.587674
vn 0.750331 -0.373929 0.545144
vn 0.391879 -0.911163 0.127329
vn 0.685859 -0.692775 0.222846
vn 0.950893 -0.018591 0.308962
vn 0.882068 -0.373924 0.286596
vn 0.41205 -0.911161 3e-06
vn 0.721156 -0.692773 3e-06
vn 0.999827 -0.018592 1.8e-05
vn 0.927456 -0.373933 8e-06
vn -0.076798 0.996734 0.024956
vn -0.391879 0.911162 0.127338
vn -0.065324 0.996735 0.047463
vn -0.333345 0.911165 0.242197
vn -0.685861 0.692768 0.222863
vn -0.58343 0.692765 0.423893
vn -0.88206 0.373933 0.286609
vn -0.750321 0.373939 0.545149
vn -0.950881 0.019138 0.308964
vn -0.808862 0.01914 0.587687
vn 0 1 -0
vn -0.047464 0.996735 0.065325
vn -0.024955 0.996734 0.076796
vn 0 0.996734 0.080751
vn 0.024954 0.996734 0.076796
vn 0.047462 0.996735 0.065325
vn 0.065325 0.996735 0.047463
vn 0.076799 0.996734 0.024955
vn 0.080745 0.996735 0
vn 0.076798 0.996734 -0.024953
vn 0.065325 0.996735 -0.047463
vn 0.047462 0.996735 -0.065324
vn 0.024954 0.996734 -0.076799
vn -0 0.996735 -0.080745
vn -0.024954 0.996734 -0.076799
vn -0.047462 0.996735 -0.065324
vn -0.065327 0.996734 -0.047463
vn -0.076795 0.996735 -0.024953
vn -0.080751 0.996734 -2e-06
vn -0.950336 -0.038893 0.308787
vn -0.808398 -0.038896 0.587349
vn -0.58734 -0.038894 0.808405
vn -0.587677 0.01914 0.80887
vn -0.308793 -0.03889 0.950334
vn -0.30897 0.019138 0.950879
vn 0 -0.038889 0.999244
vn 0 0.019138 0.999817
vn 0.308782 -0.038891 0.950337
vn 0.30896 0.019139 0.950883
vn 0.58733 -0.038892 0.808413
vn 0.587667 0.019141 0.808877
vn 0.808402 -0.038893 0.587345
vn 0.808865 0.01914 0.587683
vn 0.950338 -0.038894 0.30878
vn 0.950883 0.019137 0.308958
vn 0.999243 -0.038893 0
vn 0.999817 0.019135 -0
vn 0.95034 -0.038893 -0.308775
vn 0.950885 0.019136 -0.308953
vn 0.808404 -0.038893 -0.587342
vn 0.808868 0.019137 -0.587679
vn 0.587338 -0.038893 -0.808407
vn 0.587676 0.019137 -0.80887
vn 0.308781 -0.038895 -0.950338
vn 0.308959 0.019137 -0.950883
vn 0 -0.038896 -0.999243
vn 0 0.019136 -0.999817
vn -0.308792 -0.038895 -0.950334
vn -0.308969 0.019136 -0.950879
vn -0.587348 -0.038896 -0.808399
vn -0.587685 0.019136 -0.808863
vn -0.808407 -0.038896 -0.587337
vn -0.808872 0.019138 -0.587674
vn -0.950337 -0.038894 -0.308783
vn -0.950883 0.019138 -0.308959
vn -0.999244 -0.03889 -1.4e-05
vn -0.999817 0.019137 -1.4e-05
vn -0.545155 0.373931 0.750321
vn -0.423895 0.692764 0.58343
vn -0.242194 0.911167 0.333341
vn -0.286612 0.373924 0.882063
vn -0.222863 0.692763 0.685866
vn -0.127337 0.911163 0.391876
vn 3e-06 0.373929 0.927458
vn 7e-06 0.692765 0.721164
vn 5e-06 0.911161 0.412051
vn 0.286602 0.373937 0.88206
vn 0.222856 0.692767 0.685864
vn 0.127334 0.911161 0.391882
vn 0.545139 0.373939 0.750329
vn 0.423885 0.692762 0.58344
vn 0.242191 0.911164 0.333352
vn 0.750321 0.373932 0.545154
vn 0.58343 0.692764 0.423896
vn 0.333345 0.911165 0.242198
vn 0.882066 0.373926 0.2866
vn 0.685861 0.692771 0.222854
vn 0.39188 0.911162 0.127332
vn 0.927458 0.373927 -0
vn 0.721157 0.692772 0
vn 0.412052 0.91116 0
vn 0.882068 0.373925 -0.286594
vn 0.685862 0.692772 -0.222845
vn 0.391881 0.911162 -0.127329
vn 0.750327 0.373924 -0.545152
vn 0.58343 0.692771 -0.423885
vn 0.333347 0.911165 -0.242195
vn 0.545141 0.373927 -0.750333
vn 0.423881 0.692772 -0.583432
vn 0.242193 0.911163 -0.333353
vn 0.286596 0.373935 -0.882063
vn 0.22285 0.692772 -0.685861
vn 0.12733 0.911161 -0.391883
vn 0 0.373939 -0.927454
vn -0 0.692773 -0.721155
vn -0 0.911158 -0.412057
vn -0.286605 0.373936 -0.88206
vn -0.222856 0.692773 -0.685858
vn -0.127338 0.911161 -0.391881
vn -0.545151 0.373931 -0.750323
vn -0.423888 0.692772 -0.583426
vn -0.242196 0.911164 -0.33335
vn -0.750333 0.373934 -0.545137
vn -0.583437 0.692768 -0.42388
vn -0.333357 0.911161 -0.242195
vn -0.882062 0.373931 -0.286605
vn -0.685867 0.692763 -0.222857
vn -0.391877 0.911163 -0.127335
vn -0.927459 0.373926 -1.5e-05
vn -0.721164 0.692765 -1e-05
vn -0.412051 0.911161 -6e-06
vn 0.950543 0.032862 -0.30885
vn 0.743019 0.624212 -0.241417
vn 0.99946 0.032864 1.9e-05
vn 0.781255 0.624212 2e-05
vn 0.632045 0.624216 -0.45921
vn 0.808578 0.032861 -0.58747
vn 0.459209 0.624215 -0.632047
vn 0.58747 0.032861 -0.808578
vn 0.241418 0.62421 -0.74302
vn 0.308845 0.032861 -0.950545
vn -7e-06 0.624202 -0.781263
vn -1.2e-05 0.032861 -0.99946
vn -0.241418 0.624203 -0.743027
vn -0.308843 0.032861 -0.950545
vn -0.459208 0.6242 -0.632061
vn -0.587462 0.032861 -0.808584
vn -0.632057 0.624197 -0.459219
vn -0.808578 0.032861 -0.58747
vn -0.743028 0.6242 -0.24142
vn -0.950543 0.032861 -0.30885
vn -0.78126 0.624206 0
vn -0.99946 0.032862 -0
vn -0.74303 0.624198 0.241421
vn -0.950544 0.032861 0.308848
vn -0.632063 0.624189 0.459222
vn -0.808578 0.03286 0.58747
vn -0.459217 0.624193 0.632063
vn -0.58747 0.032861 0.808578
vn -0.241418 0.624207 0.743023
vn -0.308849 0.032861 0.950543
vn -0 0.624214 0.781253
vn 0 0.032862 0.99946
vn 0.24142 0.62421 0.74302
vn 0.308851 0.032861 0.950543
vn 0.459214 0.624205 0.632053
vn 0.58747 0.032861 0.808578
vn 0.632061 0.624207 0.4592
vn 0.808587 0.032861 0.587458
vn 0.743018 0.624213 0.241418
vn 0.950544 0.032863 0.308848
vn 0.831276 0.485826 -0.2701
vn 0.707113 0.48584 -0.513761
vn 0.51376 0.485835 -0.707117
vn 0.270104 0.485823 -0.831276
vn -6e-06 0.485811 -0.874064
vn -0.270099 0.485811 -0.831285
vn -0.513758 0.485814 -0.707134
vn -0.707133 0.485809 -0.513763
vn -0.831286 0.485814 -0.270089
vn -0.874066 0.485808 0
vn -0.831289 0.485811 0.270086
vn -0.707143 0.485793 0.513764
vn -0.513759 0.485798 0.707144
vn -0.270086 0.485813 0.831288
vn 0 0.485826 0.874056
vn 0.270091 0.485823 0.831281
vn 0.513757 0.48582 0.70713
vn 0.707135 0.48582 0.51375
vn 0.831291 0.4858 0.2701
vn 0.874066 0.485808 2.1e-05
vn -0.899042 -0.326155 0.292142
vn -0.772401 -0.583441 0.250984
vn -0.945312 -0.326166 -2.3e-05
vn -0.812159 -0.583436 -1.6e-05
vn -0.657034 -0.583448 0.477384
vn -0.764776 -0.326141 0.555653
vn -0.477377 -0.583441 0.657044
vn -0.555659 -0.326142 0.764771
vn -0.25098 -0.583437 0.772405
vn -0.29213 -0.326166 0.899042
vn 6e-06 -0.583441 0.812156
vn 1.4e-05 -0.326179 0.945308
vn 0.250975 -0.583448 0.772399
vn 0.292117 -0.326182 0.89904
vn 0.477363 -0.583451 0.657046
vn 0.555627 -0.326171 0.764781
vn 0.657039 -0.583453 0.477371
vn 0.764771 -0.326172 0.555642
vn 0.772397 -0.583457 0.25096
vn 0.899045 -0.326173 0.292111
vn 0.812143 -0.583458 0
vn 0.945309 -0.326176 0
vn 0.772396 -0.583458 -0.250962
vn 0.899046 -0.326179 -0.292103
vn 0.657037 -0.583456 -0.477369
vn 0.764771 -0.326178 -0.555638
vn 0.477363 -0.583458 -0.65704
vn 0.555632 -0.326174 -0.764777
vn 0.250964 -0.583464 -0.77239
vn 0.292108 -0.326177 -0.899045
vn 0 -0.583465 -0.812138
vn -0 -0.326168 -0.945312
vn -0.250967 -0.583462 -0.772391
vn -0.292121 -0.326164 -0.899045
vn -0.477371 -0.583453 -0.657038
vn -0.555653 -0.326151 -0.764772
vn -0.657038 -0.583453 -0.477371
vn -0.764786 -0.326149 -0.555634
vn -0.772397 -0.583446 -0.250986
vn -0.899044 -0.326155 -0.292134
vn 0.943068 0.129319 -0.306431
vn 0.28184 0.955081 -0.091574
vn 0.991605 0.129307 2.1e-05
vn 0.296353 0.955078 7e-06
vn 0.239737 0.955085 -0.174182
vn 0.802215 0.129334 -0.582859
vn 0.17418 0.955086 -0.239735
vn 0.582857 0.129338 -0.802215
vn 0.09157 0.955082 -0.281839
vn 0.306435 0.129322 -0.943066
vn -2e-06 0.955081 -0.296345
vn -7e-06 0.129307 -0.991605
vn -0.09158 0.955081 -0.281841
vn -0.306421 0.129309 -0.943072
vn -0.174187 0.955082 -0.239744
vn -0.582843 0.12932 -0.802228
vn -0.239746 0.955082 -0.174183
vn -0.802222 0.129329 -0.58285
vn -0.281855 0.955077 -0.091572
vn -0.943074 0.129318 -0.306412
vn -0.296355 0.955078 -0
vn -0.991605 0.129308 0
vn -0.281855 0.955077 0.091574
vn -0.943077 0.129312 0.306406
vn -0.239745 0.955083 0.174184
vn -0.802229 0.129319 0.582842
vn -0.174185 0.955082 0.239746
vn -0.582839 0.129315 0.802233
vn -0.091575 0.955079 0.281848
vn -0.306402 0.129309 0.943079
vn 0 0.955076 0.29636
vn -0 0.129307 0.991605
vn 0.091567 0.955079 0.281849
vn 0.306415 0.129323 0.943072
vn 0.174179 0.955084 0.239741
vn 0.582848 0.129332 0.802223
vn 0.239744 0.955083 0.174182
vn 0.802232 0.129323 0.582838
vn 0.281839 0.955082 0.091575
vn 0.94307 0.129313 0.306425
vn -0.208675 0.975631 0.067812
vn -0.945306 0.109744 0.307169
vn -0.219413 0.975632 -4e-06
vn -0.993959 0.10975 -2.4e-05
vn -0.804125 0.109738 0.584244
vn -0.177515 0.97563 0.128974
vn -0.584249 0.109729 0.804123
vn -0.128976 0.975628 0.177523
vn -0.307157 0.109731 0.945312
vn -0.067811 0.97563 0.208679
vn 1.5e-05 0.109743 0.99396
vn 2e-06 0.975632 0.219415
vn 0.30715 0.109755 0.945311
vn 0.067804 0.975633 0.20867
vn 0.584222 0.109743 0.80414
vn 0.128969 0.97563 0.177518
vn 0.804129 0.109739 0.584238
vn 0.177519 0.975629 0.128978
vn 0.945315 0.10975 0.307141
vn 0.208682 0.97563 0.067807
vn 0.993959 0.109754 0
vn 0.219428 0.975629 -0
vn 0.945316 0.10975 -0.307136
vn 0.20868 0.975631 -0.067806
vn 0.804132 0.109739 -0.584234
vn 0.177514 0.975631 -0.128973
vn 0.584227 0.109738 -0.804137
vn 0.128969 0.975631 -0.177516
vn 0.307143 0.109745 -0.945315
vn 0.067807 0.975631 -0.20868
vn -0 0.109742 -0.99396
vn 0 0.975628 -0.219432
vn -0.30715 0.109742 -0.945313
vn -0.06781 0.975629 -0.208685
vn -0.584243 0.109735 -0.804126
vn -0.128973 0.975629 -0.177521
vn -0.804138 0.109745 -0.584224
vn -0.177509 0.975632 -0.128964
vn -0.945307 0.109753 -0.307164
vn -0.208679 0.975631 -0.06781
vt 0.753195 0.225356
vt 0.728436 0.212963
vt 0.779941 0.140946
vt 0.780835 0.229488
vt 0.808135 0.224878
vt 0.832671 0.212044
vt 0.85203 0.192259
vt 0.864325 0.16747
vt 0.868368 0.140113
vt 0.863761 0.11285
vt 0.850974 0.088343
vt 0.831249 0.068984
vt 0.806514 0.056664
vt 0.77918 0.052577
vt 0.751925 0.057128
vt 0.727398 0.069867
vt 0.708001 0.089563
vt 0.695629 0.114286
vt 0.691492 0.141635
vt 0.695997 0.168933
vt 0.708723 0.193513
vt 0.715002 0.231738
vt 0.746289 0.247407
vt 0.701353 0.250777
vt 0.739219 0.269785
vt 0.32882 0.092049
vt 0.306272 0.092049
vt 0.32882 0.047687
vt 0.306272 0.047687
vt 0.283493 0.092049
vt 0.283493 0.047687
vt 0.780993 0.252597
vt 0.781209 0.276065
vt 0.32882 0.004572
vt 0.306272 0.004572
vt 0.283493 0.004572
vt 0.815488 0.246764
vt 0.822975 0.268964
vt 0.32882 0.899204
vt 0.306272 0.899204
vt 0.32882 0.855968
vt 0.306272 0.855968
vt 0.283493 0.899204
vt 0.283493 0.855968
vt 0.846429 0.230552
vt 0.860398 0.249311
vt 0.32882 0.811659
vt 0.306272 0.811659
vt 0.283493 0.811659
vt 0.870822 0.205595
vt 0.889884 0.219111
vt 0.32882 0.766829
vt 0.306272 0.766829
vt 0.283493 0.766829
vt 0.886306 0.174351
vt 0.908595 0.181314
vt 0.32882 0.721918
vt 0.306272 0.721918
vt 0.283493 0.721918
vt 0.891381 0.139873
vt 0.914717 0.139624
vt 0.32882 0.677256
vt 0.306272 0.677256
vt 0.283493 0.677256
vt 0.885574 0.10552
vt 0.907691 0.098085
vt 0.32882 0.632812
vt 0.306272 0.632812
vt 0.283493 0.632812
vt 0.869451 0.074641
vt 0.888189 0.060746
vt 0.32882 0.588467
vt 0.306272 0.588467
vt 0.283493 0.588467
vt 0.844595 0.050251
vt 0.85813 0.031257
vt 0.32882 0.543845
vt 0.306272 0.543845
vt 0.283493 0.543845
vt 0.813428 0.034727
vt 0.82044 0.012485
vt 0.32882 0.4986
vt 0.306272 0.4986
vt 0.283493 0.4986
vt 0.77899 0.029581
vt 0.778791 0.00626
vt 0.32882 0.45266
vt 0.306272 0.45266
vt 0.283493 0.45266
vt 0.74464 0.035311
vt 0.737255 0.013189
vt 0.32882 0.406642
vt 0.306272 0.406642
vt 0.283493 0.406642
vt 0.713737 0.051363
vt 0.699883 0.032595
vt 0.32882 0.361135
vt 0.306272 0.361135
vt 0.283493 0.361135
vt 0.689292 0.076172
vt 0.670316 0.062592
vt 0.32882 0.315754
vt 0.306272 0.315754
vt 0.283493 0.315754
vt 0.673693 0.107327
vt 0.651454 0.100264
vt 0.32882 0.270199
vt 0.306272 0.270199
vt 0.283493 0.270199
vt 0.668463 0.141785
vt 0.645116 0.141927
vt 0.32882 0.224584
vt 0.306272 0.224584
vt 0.283493 0.224584
vt 0.674128 0.176193
vt 0.651947 0.183543
vt 0.32882 0.179556
vt 0.306272 0.179556
vt 0.283493 0.179556
vt 0.690153 0.207188
vt 0.671312 0.221043
vt 0.32882 0.135572
vt 0.306272 0.135572
vt 0.283493 0.135572
vt 0.738646 0.562879
vt 0.731319 0.543401
vt 0.763091 0.557948
vt 0.762221 0.537177
vt 0.723924 0.523604
vt 0.761365 0.516096
vt 0.568265 0.0439
vt 0.545208 0.0439
vt 0.568265 0.004003
vt 0.545208 0.004003
vt 0.524287 0.0439
vt 0.524287 0.004003
vt 0.766456 0.637614
vt 0.787859 0.560828
vt 0.810517 0.571216
vt 0.828853 0.588093
vt 0.841069 0.609794
vt 0.845999 0.634202
vt 0.843144 0.658932
vt 0.832807 0.681573
vt 0.815983 0.699908
vt 0.794323 0.712164
vt 0.769935 0.717126
vt 0.745206 0.714325
vt 0.72254 0.704021
vt 0.704165 0.687224
vt 0.691859 0.665568
vt 0.686851 0.641159
vt 0.689618 0.616385
vt 0.699916 0.593675
vt 0.716741 0.575268
vt 0.34018 0.0439
vt 0.34018 0.004003
vt 0.34018 0.828253
vt 0.34018 0.785954
vt 0.524287 0.828253
vt 0.524287 0.785954
vt 0.34018 0.744172
vt 0.524287 0.744172
vt 0.34018 0.702557
vt 0.524287 0.702557
vt 0.34018 0.661047
vt 0.524287 0.661047
vt 0.34018 0.619567
vt 0.524287 0.619567
vt 0.34018 0.578137
vt 0.524287 0.578137
vt 0.34018 0.536785
vt 0.524287 0.536785
vt 0.34018 0.495494
vt 0.524287 0.495494
vt 0.34018 0.454246
vt 0.524287 0.454246
vt 0.34018 0.413024
vt 0.524287 0.413024
vt 0.34018 0.371835
vt 0.524287 0.371835
vt 0.34018 0.330681
vt 0.524287 0.330681
vt 0.34018 0.289563
vt 0.524287 0.289563
vt 0.34018 0.248483
vt 0.524287 0.248483
vt 0.34018 0.207385
vt 0.524287 0.207385
vt 0.34018 0.166315
vt 0.524287 0.166315
vt 0.34018 0.125306
vt 0.524287 0.125306
vt 0.34018 0.084399
vt 0.524287 0.084399
vt 0.545208 0.828253
vt 0.545208 0.785954
vt 0.568265 0.828253
vt 0.568265 0.785954
vt 0.793451 0.540832
vt 0.79914 0.520557
vt 0.545208 0.744172
vt 0.568265 0.744172
vt 0.822012 0.553941
vt 0.833683 0.536425
vt 0.545208 0.702557
vt 0.568265 0.702557
vt 0.845115 0.575224
vt 0.861607 0.56218
vt 0.545208 0.661047
vt 0.568265 0.661047
vt 0.860495 0.602578
vt 0.88019 0.595266
vt 0.545208 0.619567
vt 0.568265 0.619567
vt 0.866708 0.633324
vt 0.887704 0.63243
vt 0.545208 0.578137
vt 0.568265 0.578137
vt 0.863096 0.664499
vt 0.883324 0.670147
vt 0.545208 0.536785
vt 0.568265 0.536785
vt 0.85007 0.693015
vt 0.867573 0.70461
vt 0.545208 0.495494
vt 0.568265 0.495494
vt 0.828877 0.716127
vt 0.841949 0.732565
vt 0.545208 0.454246
vt 0.568265 0.454246
vt 0.801566 0.73156
vt 0.808914 0.751226
vt 0.545208 0.413024
vt 0.568265 0.413024
vt 0.770852 0.737823
vt 0.771783 0.758797
vt 0.545208 0.371835
vt 0.568265 0.371835
vt 0.739687 0.734296
vt 0.734095 0.754549
vt 0.545208 0.330681
vt 0.568265 0.330681
vt 0.711119 0.721308
vt 0.699544 0.738829
vt 0.545208 0.289563
vt 0.568265 0.289563
vt 0.687967 0.700157
vt 0.67155 0.71328
vt 0.545208 0.248483
vt 0.568265 0.248483
vt 0.672444 0.672869
vt 0.65276 0.680274
vt 0.545208 0.207385
vt 0.568265 0.207385
vt 0.66613 0.642107
vt 0.645116 0.643083
vt 0.545208 0.166315
vt 0.568265 0.166315
vt 0.669595 0.610878
vt 0.649277 0.605309
vt 0.545208 0.125306
vt 0.568265 0.125306
vt 0.682569 0.582219
vt 0.66495 0.570612
vt 0.545208 0.084399
vt 0.568265 0.084399
vt 0.703826 0.55896
vt 0.690674 0.542433
vt 0.224852 0.731996
vt 0.241762 0.731996
vt 0.224852 0.778208
vt 0.241762 0.778208
vt 0.241762 0.6833
vt 0.224852 0.6833
vt 0.241762 0.635022
vt 0.224852 0.635022
vt 0.241762 0.592278
vt 0.224852 0.592278
vt 0.241762 0.549716
vt 0.224852 0.549716
vt 0.241762 0.507123
vt 0.224852 0.507123
vt 0.241762 0.46401
vt 0.224852 0.46401
vt 0.241762 0.415503
vt 0.224852 0.415503
vt 0.241762 0.366946
vt 0.224852 0.366946
vt 0.241762 0.318144
vt 0.224852 0.318144
vt 0.241762 0.26968
vt 0.224852 0.26968
vt 0.241762 0.221925
vt 0.224852 0.221925
vt 0.241762 0.165002
vt 0.224852 0.165002
vt 0.241762 0.117501
vt 0.224852 0.117501
vt 0.241762 0.07976
vt 0.224852 0.07976
vt 0.241762 0.042001
vt 0.224852 0.042001
vt 0.241762 0.004331
vt 0.224852 0.004331
vt 0.241762 0.900867
vt 0.224852 0.900867
vt 0.241762 0.862853
vt 0.224852 0.862853
vt 0.241762 0.821898
vt 0.224852 0.821898
vt 0.003968 0.052605
vt 0.003968 0.006201
vt 0.216764 0.052605
vt 0.216764 0.006201
vt 0.003968 0.934373
vt 0.003968 0.887975
vt 0.216764 0.934373
vt 0.216764 0.887975
vt 0.003968 0.841573
vt 0.216764 0.841573
vt 0.003968 0.79516
vt 0.216764 0.79516
vt 0.003968 0.748745
vt 0.216764 0.748745
vt 0.003968 0.702336
vt 0.216764 0.702336
vt 0.003968 0.655933
vt 0.216764 0.655933
vt 0.003968 0.609528
vt 0.216764 0.609528
vt 0.003968 0.563115
vt 0.216764 0.563115
vt 0.003968 0.516695
vt 0.216764 0.516695
vt 0.003968 0.470276
vt 0.216764 0.470276
vt 0.003968 0.423867
vt 0.216764 0.423867
vt 0.003968 0.377468
vt 0.216764 0.377468
vt 0.003968 0.331072
vt 0.216764 0.331072
vt 0.003968 0.284668
vt 0.216764 0.284668
vt 0.003968 0.23825
vt 0.216764 0.23825
vt 0.003968 0.191829
vt 0.216764 0.191829
vt 0.003968 0.145417
vt 0.216764 0.145417
vt 0.003968 0.099012
vt 0.216764 0.099012
vt 0.256554 0.731996
vt 0.256554 0.6833
vt 0.256554 0.635022
vt 0.256554 0.592278
vt 0.256554 0.549716
vt 0.256554 0.507123
vt 0.256554 0.46401
vt 0.256554 0.415503
vt 0.256554 0.366946
vt 0.256554 0.318144
vt 0.256554 0.26968
vt 0.256554 0.221925
vt 0.256554 0.165002
vt 0.256554 0.117501
vt 0.256554 0.07976
vt 0.256554 0.042001
vt 0.256554 0.004331
vt 0.256554 0.900867
vt 0.256554 0.862853
vt 0.256554 0.821898
vt 0.256554 0.778208
vt 0.611229 0.147748
vt 0.594134 0.147748
vt 0.611229 0.109533
vt 0.594134 0.109533
vt 0.594134 0.18618
vt 0.611229 0.18618
vt 0.594134 0.225903
vt 0.611229 0.225903
vt 0.594134 0.266274
vt 0.611229 0.266274
vt 0.594134 0.306666
vt 0.611229 0.306666
vt 0.594134 0.346435
vt 0.611229 0.346435
vt 0.594134 0.385499
vt 0.611229 0.385499
vt 0.594134 0.42459
vt 0.611229 0.42459
vt 0.594134 0.464205
vt 0.611229 0.464205
vt 0.594134 0.504336
vt 0.611229 0.504336
vt 0.594134 0.544812
vt 0.611229 0.544812
vt 0.594134 0.585212
vt 0.611229 0.585212
vt 0.594134 0.625146
vt 0.611229 0.625146
vt 0.594134 0.664365
vt 0.611229 0.664365
vt 0.594134 0.702659
vt 0.611229 0.702659
vt 0.594134 0.739687
vt 0.611229 0.739687
vt 0.594134 0.775051
vt 0.611229 0.775051
vt 0.594134 0.003723
vt 0.611229 0.003723
vt 0.594134 0.037552
vt 0.611229 0.037552
vt 0.594134 0.072771
vt 0.611229 0.072771
vt 0.578655 0.147748
vt 0.578655 0.18618
vt 0.578655 0.225903
vt 0.578655 0.266274
vt 0.578655 0.306666
vt 0.578655 0.346435
vt 0.578655 0.385499
vt 0.578655 0.42459
vt 0.578655 0.464205
vt 0.578655 0.504336
vt 0.578655 0.544812
vt 0.578655 0.585212
vt 0.578655 0.625146
vt 0.578655 0.664365
vt 0.578655 0.702659
vt 0.578655 0.739687
vt 0.578655 0.775051
vt 0.578655 0.003723
vt 0.578655 0.037552
vt 0.578655 0.072771
vt 0.578655 0.109533
vt 0.827749 0.523259
vt 0.828996 0.519426
vt 0.867521 0.529519
vt 0.86752 0.525476
vt 0.794272 0.501675
vt 0.791894 0.504945
vt 0.766759 0.47414
vt 0.763493 0.476513
vt 0.749073 0.439433
vt 0.745233 0.440682
vt 0.742979 0.400959
vt 0.738942 0.400959
vt 0.749074 0.362483
vt 0.745234 0.361236
vt 0.766759 0.327773
vt 0.763493 0.3254
vt 0.794304 0.300229
vt 0.79193 0.296962
vt 0.829013 0.282543
vt 0.827765 0.278704
vt 0.867487 0.276451
vt 0.867487 0.272414
vt 0.905962 0.282543
vt 0.90721 0.278704
vt 0.940672 0.300229
vt 0.943045 0.296962
vt 0.968216 0.327773
vt 0.971483 0.3254
vt 0.985901 0.362483
vt 0.989741 0.361236
vt 0.991995 0.400959
vt 0.996032 0.400959
vt 0.985901 0.439433
vt 0.989741 0.440681
vt 0.968216 0.474141
vt 0.971483 0.476515
vt 0.940672 0.501686
vt 0.943045 0.504953
vt 0.905963 0.51937
vt 0.907211 0.523209
vt 0.831556 0.511543
vt 0.832797 0.507726
vt 0.867519 0.517187
vt 0.867518 0.513184
vt 0.801497 0.491731
vt 0.799144 0.494969
vt 0.776692 0.466925
vt 0.773459 0.469272
vt 0.760752 0.435638
vt 0.756952 0.436874
vt 0.755259 0.400959
vt 0.751263 0.400959
vt 0.760752 0.366278
vt 0.756952 0.365043
vt 0.776694 0.334991
vt 0.773461 0.332643
vt 0.801521 0.310163
vt 0.799172 0.30693
vt 0.832807 0.294222
vt 0.831572 0.290421
vt 0.867487 0.28873
vt 0.867487 0.284734
vt 0.902167 0.294222
vt 0.903403 0.290421
vt 0.933454 0.310163
vt 0.935803 0.30693
vt 0.958282 0.334991
vt 0.961515 0.332643
vt 0.974223 0.366278
vt 0.978023 0.365043
vt 0.979715 0.400959
vt 0.983711 0.400959
vt 0.974223 0.435638
vt 0.978024 0.436874
vt 0.958282 0.466924
vt 0.961515 0.469272
vt 0.933454 0.491751
vt 0.935803 0.494985
vt 0.902168 0.507694
vt 0.903404 0.511493
vt 0.272741 0.731996
vt 0.272741 0.6833
vt 0.272741 0.635022
vt 0.272741 0.592278
vt 0.272741 0.549716
vt 0.272741 0.507123
vt 0.272742 0.46401
vt 0.272742 0.415503
vt 0.272742 0.366946
vt 0.272742 0.318144
vt 0.272742 0.26968
vt 0.272742 0.221925
vt 0.272742 0.165002
vt 0.272742 0.117501
vt 0.272742 0.07976
vt 0.272742 0.042001
vt 0.272742 0.004331
vt 0.272742 0.900867
vt 0.272741 0.862853
vt 0.272741 0.821898
vt 0.272741 0.778208
vt 0.635169 0.147748
vt 0.635169 0.18618
vt 0.635169 0.225903
vt 0.635169 0.266274
vt 0.635169 0.306666
vt 0.635169 0.346435
vt 0.635169 0.385499
vt 0.635169 0.42459
vt 0.635169 0.464205
vt 0.635169 0.504336
vt 0.635169 0.544812
vt 0.635169 0.585212
vt 0.635169 0.625146
vt 0.635169 0.664365
vt 0.635169 0.702659
vt 0.635169 0.739687
vt 0.635169 0.775051
vt 0.635169 0.003723
vt 0.635169 0.037552
vt 0.635169 0.072771
vt 0.635169 0.109533
usemtl Glass5SG
f 1/1/1 2/2/2 3/3/3
f 4/4/4 1/1/1 3/3/3
f 5/5/5 4/4/4 3/3/3
f 6/6/6 5/5/5 3/3/3
f 7/7/7 6/6/6 3/3/3
f 8/8/8 7/7/7 3/3/3
f 9/9/9 8/8/8 3/3/3
f 10/10/10 9/9/9 3/3/3
f 11/11/11 10/10/10 3/3/3
f 12/12/12 11/11/11 3/3/3
f 13/13/13 12/12/12 3/3/3
f 14/14/14 13/13/13 3/3/3
f 15/15/15 14/14/14 3/3/3
f 16/16/16 15/15/15 3/3/3
f 17/17/17 16/16/16 3/3/3
f 18/18/18 17/17/17 3/3/3
f 19/19/19 18/18/18 3/3/3
f 20/20/20 19/19/19 3/3/3
f 21/21/21 20/20/20 3/3/3
f 2/2/2 21/21/21 3/3/3
f 22/22/22 2/2/2 23/23/23
f 23/23/23 2/2/2 1/1/1
f 24/24/24 22/22/22 25/25/25
f 25/25/25 22/22/22 23/23/23
f 26/26/26 27/27/27 28/28/28
f 28/28/28 27/27/27 29/29/29
f 27/27/27 24/30/24 29/29/29
f 29/29/29 24/30/24 25/31/25
f 23/23/23 1/1/1 30/32/30
f 30/32/30 1/1/1 4/4/4
f 25/25/25 23/23/23 31/33/31
f 31/33/31 23/23/23 30/32/30
f 28/28/28 29/29/29 32/34/32
f 32/34/32 29/29/29 33/35/33
f 29/29/29 25/31/25 33/35/33
f 33/35/33 25/31/25 31/36/31
f 30/32/30 4/4/4 34/37/34
f 34/37/34 4/4/4 5/5/5
f 31/33/31 30/32/30 35/38/35
f 35/38/35 30/32/30 34/37/34
f 32/39/32 33/40/33 36/41/36
f 36/41/36 33/40/33 37/42/37
f 33/40/33 31/43/31 37/42/37
f 37/42/37 31/43/31 35/44/35
f 34/37/34 5/5/5 38/45/38
f 38/45/38 5/5/5 6/6/6
f 35/38/35 34/37/34 39/46/39
f 39/46/39 34/37/34 38/45/38
f 36/41/36 37/42/37 40/47/40
f 40/47/40 37/42/37 41/48/41
f 37/42/37 35/44/35 41/48/41
f 41/48/41 35/44/35 39/49/39
f 38/45/38 6/6/6 42/50/42
f 42/50/42 6/6/6 7/7/7
f 39/46/39 38/45/38 43/51/43
f 43/51/43 38/45/38 42/50/42
f 40/47/40 41/48/41 44/52/44
f 44/52/44 41/48/41 45/53/45
f 41/48/41 39/49/39 45/53/45
f 45/53/45 39/49/39 43/54/43
f 42/50/42 7/7/7 46/55/46
f 46/55/46 7/7/7 8/8/8
f 43/51/43 42/50/42 47/56/47
f 47/56/47 42/50/42 46/55/46
f 44/52/44 45/53/45 48/57/48
f 48/57/48 45/53/45 49/58/49
f 45/53/45 43/54/43 49/58/49
f 49/58/49 43/54/43 47/59/47
f 46/55/46 8/8/8 50/60/50
f 50/60/50 8/8/8 9/9/9
f 47/56/47 46/55/46 51/61/51
f 51/61/51 46/55/46 50/60/50
f 48/57/48 49/58/49 52/62/52
f 52/62/52 49/58/49 53/63/53
f 49/58/49 47/59/47 53/63/53
f 53/63/53 47/59/47 51/64/51
f 50/60/50 9/9/9 54/65/54
f 54/65/54 9/9/9 10/10/10
f 51/61/51 50/60/50 55/66/55
f 55/66/55 50/60/50 54/65/54
f 52/62/52 53/63/53 56/67/56
f 56/67/56 53/63/53 57/68/57
f 53/63/53 51/64/51 57/68/57
f 57/68/57 51/64/51 55/69/55
f 54/65/54 10/10/10 58/70/58
f 58/70/58 10/10/10 11/11/11
f 55/66/55 54/65/54 59/71/59
f 59/71/59 54/65/54 58/70/58
f 56/67/56 57/68/57 60/72/60
f 60/72/60 57/68/57 61/73/61
f 57/68/57 55/69/55 61/73/61
f 61/73/61 55/69/55 59/74/59
f 58/70/58 11/11/11 62/75/62
f 62/75/62 11/11/11 12/12/12
f 59/71/59 58/70/58 63/76/63
f 63/76/63 58/70/58 62/75/62
f 60/72/60 61/73/61 64/77/64
f 64/77/64 61/73/61 65/78/65
f 61/73/61 59/74/59 65/78/65
f 65/78/65 59/74/59 63/79/63
f 62/75/62 12/12/12 66/80/66
f 66/80/66 12/12/12 13/13/13
f 63/76/63 62/75/62 67/81/67
f 67/81/67 62/75/62 66/80/66
f 64/77/64 65/78/65 68/82/68
f 68/82/68 65/78/65 69/83/69
f 65/78/65 63/79/63 69/83/69
f 69/83/69 63/79/63 67/84/67
f 66/80/66 13/13/13 70/85/70
f 70/85/70 13/13/13 14/14/14
f 67/81/67 66/80/66 71/86/71
f 71/86/71 66/80/66 70/85/70
f 68/82/68 69/83/69 72/87/72
f 72/87/72 69/83/69 73/88/73
f 69/83/69 67/84/67 73/88/73
f 73/88/73 67/84/67 71/89/71
f 70/85/70 14/14/14 74/90/74
f 74/90/74 14/14/14 15/15/15
f 71/86/71 70/85/70 75/91/75
f 75/91/75 70/85/70 74/90/74
f 72/87/72 73/88/73 76/92/76
f 76/92/76 73/88/73 77/93/77
f 73/88/73 71/89/71 77/93/77
f 77/93/77 71/89/71 75/94/75
f 74/90/74 15/15/15 78/95/78
f 78/95/78 15/15/15 16/16/16
f 75/91/75 74/90/74 79/96/79
f 79/96/79 74/90/74 78/95/78
f 76/92/76 77/93/77 80/97/80
f 80/97/80 77/93/77 81/98/81
f 77/93/77 75/94/75 81/98/81
f 81/98/81 75/94/75 79/99/79
f 78/95/78 16/16/16 82/100/82
f 82/100/82 16/16/16 17/17/17
f 79/96/79 78/95/78 83/101/83
f 83/101/83 78/95/78 82/100/82
f 80/97/80 81/98/81 84/102/84
f 84/102/84 81/98/81 85/103/85
f 81/98/81 79/99/79 85/103/85
f 85/103/85 79/99/79 83/104/83
f 82/100/82 17/17/17 86/105/86
f 86/105/86 17/17/17 18/18/18
f 83/101/83 82/100/82 87/106/87
f 87/106/87 82/100/82 86/105/86
f 84/102/84 85/103/85 88/107/88
f 88/107/88 85/103/85 89/108/89
f 85/103/85 83/104/83 89/108/89
f 89/108/89 83/104/83 87/109/87
f 86/105/86 18/18/18 90/110/90
f 90/110/90 18/18/18 19/19/19
f 87/106/87 86/105/86 91/111/91
f 91/111/91 86/105/86 90/110/90
f 88/107/88 89/108/89 92/112/92
f 92/112/92 89/108/89 93/113/93
f 89/108/89 87/109/87 93/113/93
f 93/113/93 87/109/87 91/114/91
f 90/110/90 19/19/19 94/115/94
f 94/115/94 19/19/19 20/20/20
f 91/111/91 90/110/90 95/116/95
f 95/116/95 90/110/90 94/115/94
f 92/112/92 93/113/93 96/117/96
f 96/117/96 93/113/93 97/118/97
f 93/113/93 91/114/91 97/118/97
f 97/118/97 91/114/91 95/119/95
f 94/115/94 20/20/20 98/120/98
f 98/120/98 20/20/20 21/21/21
f 95/116/95 94/115/94 99/121/99
f 99/121/99 94/115/94 98/120/98
f 96/117/96 97/118/97 100/122/100
f 100/122/100 97/118/97 101/123/101
f 97/118/97 95/119/95 101/123/101
f 101/123/101 95/119/95 99/124/99
f 2/2/2 22/22/22 21/21/21
f 21/21/21 22/22/22 98/120/98
f 22/22/22 24/24/24 98/120/98
f 98/120/98 24/24/24 99/121/99
f 24/30/24 27/27/27 99/124/99
f 99/124/99 27/27/27 101/123/101
f 27/27/27 26/26/26 101/123/101
f 101/123/101 26/26/26 100/122/100
f 102/125/102 103/126/103 104/127/104
f 104/127/104 103/126/103 105/128/105
f 103/126/103 106/129/106 105/128/105
f 105/128/105 106/129/106 107/130/107
f 106/131/106 108/132/108 107/133/107
f 107/133/107 108/132/108 109/134/109
f 108/132/108 110/135/110 109/134/109
f 109/134/109 110/135/110 111/136/111
f 102/125/102 104/127/104 112/137/112
f 104/127/104 113/138/113 112/137/112
f 113/138/113 114/139/114 112/137/112
f 114/139/114 115/140/115 112/137/112
f 115/140/115 116/141/116 112/137/112
f 116/141/116 117/142/117 112/137/112
f 117/142/117 118/143/118 112/137/112
f 118/143/118 119/144/119 112/137/112
f 119/144/119 120/145/120 112/137/112
f 120/145/120 121/146/121 112/137/112
f 121/146/121 122/147/122 112/137/112
f 122/147/122 123/148/123 112/137/112
f 123/148/123 124/149/124 112/137/112
f 124/149/124 125/150/125 112/137/112
f 125/150/125 126/151/126 112/137/112
f 126/151/126 127/152/127 112/137/112
f 127/152/127 128/153/128 112/137/112
f 128/153/128 129/154/129 112/137/112
f 129/154/129 130/155/130 112/137/112
f 130/155/130 102/125/102 112/137/112
f 131/156/131 132/157/132 110/135/110
f 110/135/110 132/157/132 111/136/111
f 132/158/132 133/159/133 111/160/111
f 111/160/111 133/159/133 134/161/134
f 133/159/133 135/162/135 134/161/134
f 134/161/134 135/162/135 136/163/136
f 135/162/135 137/164/137 136/163/136
f 136/163/136 137/164/137 138/165/138
f 137/164/137 139/166/139 138/165/138
f 138/165/138 139/166/139 140/167/140
f 139/166/139 141/168/141 140/167/140
f 140/167/140 141/168/141 142/169/142
f 141/168/141 143/170/143 142/169/142
f 142/169/142 143/170/143 144/171/144
f 143/170/143 145/172/145 144/171/144
f 144/171/144 145/172/145 146/173/146
f 145/172/145 147/174/147 146/173/146
f 146/173/146 147/174/147 148/175/148
f 147/174/147 149/176/149 148/175/148
f 148/175/148 149/176/149 150/177/150
f 149/176/149 151/178/151 150/177/150
f 150/177/150 151/178/151 152/179/152
f 151/178/151 153/180/153 152/179/152
f 152/179/152 153/180/153 154/181/154
f 153/180/153 155/182/155 154/181/154
f 154/181/154 155/182/155 156/183/156
f 155/182/155 157/184/157 156/183/156
f 156/183/156 157/184/157 158/185/158
f 157/184/157 159/186/159 158/185/158
f 158/185/158 159/186/159 160/187/160
f 159/186/159 161/188/161 160/187/160
f 160/187/160 161/188/161 162/189/162
f 161/188/161 163/190/163 162/189/162
f 162/189/162 163/190/163 164/191/164
f 163/190/163 165/192/165 164/191/164
f 164/191/164 165/192/165 166/193/166
f 165/192/165 167/194/167 166/193/166
f 166/193/166 167/194/167 168/195/168
f 167/194/167 131/156/131 168/195/168
f 168/195/168 131/156/131 110/135/110
f 109/196/109 111/160/111 169/197/169
f 169/197/169 111/160/111 134/161/134
f 107/198/107 109/196/109 170/199/170
f 170/199/170 109/196/109 169/197/169
f 104/127/104 105/128/105 113/138/113
f 113/138/113 105/128/105 171/200/171
f 105/128/105 107/130/107 171/200/171
f 171/200/171 107/130/107 170/201/170
f 169/197/169 134/161/134 172/202/172
f 172/202/172 134/161/134 136/163/136
f 170/199/170 169/197/169 173/203/173
f 173/203/173 169/197/169 172/202/172
f 113/138/113 171/200/171 114/139/114
f 114/139/114 171/200/171 174/204/174
f 171/200/171 170/201/170 174/204/174
f 174/204/174 170/201/170 173/205/173
f 172/202/172 136/163/136 175/206/175
f 175/206/175 136/163/136 138/165/138
f 173/203/173 172/202/172 176/207/176
f 176/207/176 172/202/172 175/206/175
f 114/139/114 174/204/174 115/140/115
f 115/140/115 174/204/174 177/208/177
f 174/204/174 173/205/173 177/208/177
f 177/208/177 173/205/173 176/209/176
f 175/206/175 138/165/138 178/210/178
f 178/210/178 138/165/138 140/167/140
f 176/207/176 175/206/175 179/211/179
f 179/211/179 175/206/175 178/210/178
f 115/140/115 177/208/177 116/141/116
f 116/141/116 177/208/177 180/212/180
f 177/208/177 176/209/176 180/212/180
f 180/212/180 176/209/176 179/213/179
f 178/210/178 140/167/140 181/214/181
f 181/214/181 140/167/140 142/169/142
f 179/211/179 178/210/178 182/215/182
f 182/215/182 178/210/178 181/214/181
f 116/141/116 180/212/180 117/142/117
f 117/142/117 180/212/180 183/216/183
f 180/212/180 179/213/179 183/216/183
f 183/216/183 179/213/179 182/217/182
f 181/214/181 142/169/142 184/218/184
f 184/218/184 142/169/142 144/171/144
f 182/215/182 181/214/181 185/219/185
f 185/219/185 181/214/181 184/218/184
f 117/142/117 183/216/183 118/143/118
f 118/143/118 183/216/183 186/220/186
f 183/216/183 182/217/182 186/220/186
f 186/220/186 182/217/182 185/221/185
f 184/218/184 144/171/144 187/222/187
f 187/222/187 144/171/144 146/173/146
f 185/219/185 184/218/184 188/223/188
f 188/223/188 184/218/184 187/222/187
f 118/143/118 186/220/186 119/144/119
f 119/144/119 186/220/186 189/224/189
f 186/220/186 185/221/185 189/224/189
f 189/224/189 185/221/185 188/225/188
f 187/222/187 146/173/146 190/226/190
f 190/226/190 146/173/146 148/175/148
f 188/223/188 187/222/187 191/227/191
f 191/227/191 187/222/187 190/226/190
f 119/144/119 189/224/189 120/145/120
f 120/145/120 189/224/189 192/228/192
f 189/224/189 188/225/188 192/228/192
f 192/228/192 188/225/188 191/229/191
f 190/226/190 148/175/148 193/230/193
f 193/230/193 148/175/148 150/177/150
f 191/227/191 190/226/190 194/231/194
f 194/231/194 190/226/190 193/230/193
f 120/145/120 192/228/192 121/146/121
f 121/146/121 192/228/192 195/232/195
f 192/228/192 191/229/191 195/232/195
f 195/232/195 191/229/191 194/233/194
f 193/230/193 150/177/150 196/234/196
f 196/234/196 150/177/150 152/179/152
f 194/231/194 193/230/193 197/235/197
f 197/235/197 193/230/193 196/234/196
f 121/146/121 195/232/195 122/147/122
f 122/147/122 195/232/195 198/236/198
f 195/232/195 194/233/194 198/236/198
f 198/236/198 194/233/194 197/237/197
f 196/234/196 152/179/152 199/238/199
f 199/238/199 152/179/152 154/181/154
f 197/235/197 196/234/196 200/239/200
f 200/239/200 196/234/196 199/238/199
f 122/147/122 198/236/198 123/148/123
f 123/148/123 198/236/198 201/240/201
f 198/236/198 197/237/197 201/240/201
f 201/240/201 197/237/197 200/241/200
f 199/238/199 154/181/154 202/242/202
f 202/242/202 154/181/154 156/183/156
f 200/239/200 199/238/199 203/243/203
f 203/243/203 199/238/199 202/242/202
f 123/148/123 201/240/201 124/149/124
f 124/149/124 201/240/201 204/244/204
f 201/240/201 200/241/200 204/244/204
f 204/244/204 200/241/200 203/245/203
f 202/242/202 156/183/156 205/246/205
f 205/246/205 156/183/156 158/185/158
f 203/243/203 202/242/202 206/247/206
f 206/247/206 202/242/202 205/246/205
f 124/149/124 204/244/204 125/150/125
f 125/150/125 204/244/204 207/248/207
f 204/244/204 203/245/203 207/248/207
f 207/248/207 203/245/203 206/249/206
f 205/246/205 158/185/158 208/250/208
f 208/250/208 158/185/158 160/187/160
f 206/247/206 205/246/205 209/251/209
f 209/251/209 205/246/205 208/250/208
f 125/150/125 207/248/207 126/151/126
f 126/151/126 207/248/207 210/252/210
f 207/248/207 206/249/206 210/252/210
f 210/252/210 206/249/206 209/253/209
f 208/250/208 160/187/160 211/254/211
f 211/254/211 160/187/160 162/189/162
f 209/251/209 208/250/208 212/255/212
f 212/255/212 208/250/208 211/254/211
f 126/151/126 210/252/210 127/152/127
f 127/152/127 210/252/210 213/256/213
f 210/252/210 209/253/209 213/256/213
f 213/256/213 209/253/209 212/257/212
f 211/254/211 162/189/162 214/258/214
f 214/258/214 162/189/162 164/191/164
f 212/255/212 211/254/211 215/259/215
f 215/259/215 211/254/211 214/258/214
f 127/152/127 213/256/213 128/153/128
f 128/153/128 213/256/213 216/260/216
f 213/256/213 212/257/212 216/260/216
f 216/260/216 212/257/212 215/261/215
f 214/258/214 164/191/164 217/262/217
f 217/262/217 164/191/164 166/193/166
f 215/259/215 214/258/214 218/263/218
f 218/263/218 214/258/214 217/262/217
f 128/153/128 216/260/216 129/154/129
f 129/154/129 216/260/216 219/264/219
f 216/260/216 215/261/215 219/264/219
f 219/264/219 215/261/215 218/265/218
f 217/262/217 166/193/166 220/266/220
f 220/266/220 166/193/166 168/195/168
f 218/263/218 217/262/217 221/267/221
f 221/267/221 217/262/217 220/266/220
f 129/154/129 219/264/219 130/155/130
f 130/155/130 219/264/219 222/268/222
f 219/264/219 218/265/218 222/268/222
f 222/268/222 218/265/218 221/269/221
f 110/135/110 108/132/108 168/195/168
f 168/195/168 108/132/108 220/266/220
f 108/132/108 106/131/106 220/266/220
f 220/266/220 106/131/106 221/267/221
f 106/129/106 103/126/103 221/269/221
f 221/269/221 103/126/103 222/268/222
f 103/126/103 102/125/102 222/268/222
f 222/268/222 102/125/102 130/155/130
f 223/270/223 224/271/224 225/272/225
f 225/272/225 224/271/224 226/273/226
f 224/271/224 223/270/223 227/274/227
f 227/274/227 223/270/223 228/275/228
f 227/274/227 228/275/228 229/276/229
f 229/276/229 228/275/228 230/277/230
f 229/276/229 230/277/230 231/278/231
f 231/278/231 230/277/230 232/279/232
f 231/278/231 232/279/232 233/280/233
f 233/280/233 232/279/232 234/281/234
f 233/280/233 234/281/234 235/282/235
f 235/282/235 234/281/234 236/283/236
f 235/282/235 236/283/236 237/284/237
f 237/284/237 236/283/236 238/285/238
f 237/284/237 238/285/238 239/286/239
f 239/286/239 238/285/238 240/287/240
f 239/286/239 240/287/240 241/288/241
f 241/288/241 240/287/240 242/289/242
f 241/288/241 242/289/242 243/290/243
f 243/290/243 242/289/242 244/291/244
f 243/290/243 244/291/244 245/292/245
f 245/292/245 244/291/244 246/293/246
f 245/292/245 246/293/246 247/294/247
f 247/294/247 246/293/246 248/295/248
f 247/294/247 248/295/248 249/296/249
f 249/296/249 248/295/248 250/297/250
f 249/296/249 250/297/250 251/298/251
f 251/298/251 250/297/250 252/299/252
f 251/298/251 252/299/252 253/300/253
f 253/300/253 252/299/252 254/301/254
f 253/300/253 254/301/254 255/302/255
f 255/302/255 254/301/254 256/303/256
f 255/302/255 256/303/256 257/304/257
f 257/304/257 256/303/256 258/305/258
f 257/306/257 258/307/258 259/308/259
f 259/308/259 258/307/258 260/309/260
f 259/308/259 260/309/260 261/310/261
f 261/310/261 260/309/260 262/311/262
f 261/310/261 262/311/262 226/273/226
f 226/273/226 262/311/262 225/272/225
f 26/312/26 28/313/28 223/314/223
f 223/314/223 28/313/28 228/315/228
f 28/316/28 32/317/32 228/318/228
f 228/318/228 32/317/32 230/319/230
f 32/317/32 36/320/36 230/319/230
f 230/319/230 36/320/36 232/321/232
f 36/320/36 40/322/40 232/321/232
f 232/321/232 40/322/40 234/323/234
f 40/322/40 44/324/44 234/323/234
f 234/323/234 44/324/44 236/325/236
f 44/324/44 48/326/48 236/325/236
f 236/325/236 48/326/48 238/327/238
f 48/326/48 52/328/52 238/327/238
f 238/327/238 52/328/52 240/329/240
f 52/328/52 56/330/56 240/329/240
f 240/329/240 56/330/56 242/331/242
f 56/330/56 60/332/60 242/331/242
f 242/331/242 60/332/60 244/333/244
f 60/332/60 64/334/64 244/333/244
f 244/333/244 64/334/64 246/335/246
f 64/334/64 68/336/68 246/335/246
f 246/335/246 68/336/68 248/337/248
f 68/336/68 72/338/72 248/337/248
f 248/337/248 72/338/72 250/339/250
f 72/338/72 76/340/76 250/339/250
f 250/339/250 76/340/76 252/341/252
f 76/340/76 80/342/80 252/341/252
f 252/341/252 80/342/80 254/343/254
f 80/342/80 84/344/84 254/343/254
f 254/343/254 84/344/84 256/345/256
f 84/344/84 88/346/88 256/345/256
f 256/345/256 88/346/88 258/347/258
f 88/346/88 92/348/92 258/347/258
f 258/347/258 92/348/92 260/349/260
f 92/348/92 96/350/96 260/349/260
f 260/349/260 96/350/96 262/351/262
f 96/350/96 100/352/100 262/351/262
f 262/351/262 100/352/100 225/353/225
f 100/352/100 26/312/26 225/353/225
f 225/353/225 26/312/26 223/314/223
f 224/271/224 227/274/227 263/354/263
f 263/354/263 227/274/227 264/355/264
f 227/274/227 229/276/229 264/355/264
f 264/355/264 229/276/229 265/356/265
f 229/276/229 231/278/231 265/356/265
f 265/356/265 231/278/231 266/357/266
f 231/278/231 233/280/233 266/357/266
f 266/357/266 233/280/233 267/358/267
f 233/280/233 235/282/235 267/358/267
f 267/358/267 235/282/235 268/359/268
f 235/282/235 237/284/237 268/359/268
f 268/359/268 237/284/237 269/360/269
f 237/284/237 239/286/239 269/360/269
f 269/360/269 239/286/239 270/361/270
f 239/286/239 241/288/241 270/361/270
f 270/361/270 241/288/241 271/362/271
f 241/288/241 243/290/243 271/362/271
f 271/362/271 243/290/243 272/363/272
f 243/290/243 245/292/245 272/363/272
f 272/363/272 245/292/245 273/364/273
f 245/292/245 247/294/247 273/364/273
f 273/364/273 247/294/247 274/365/274
f 247/294/247 249/296/249 274/365/274
f 274/365/274 249/296/249 275/366/275
f 249/296/249 251/298/251 275/366/275
f 275/366/275 251/298/251 276/367/276
f 251/298/251 253/300/253 276/367/276
f 276/367/276 253/300/253 277/368/277
f 253/300/253 255/302/255 277/368/277
f 277/368/277 255/302/255 278/369/278
f 255/302/255 257/304/257 278/369/278
f 278/369/278 257/304/257 279/370/279
f 257/306/257 259/308/259 279/371/279
f 279/371/279 259/308/259 280/372/280
f 259/308/259 261/310/261 280/372/280
f 280/372/280 261/310/261 281/373/281
f 261/310/261 226/273/226 281/373/281
f 281/373/281 226/273/226 282/374/282
f 226/273/226 224/271/224 282/374/282
f 282/374/282 224/271/224 263/354/263
f 283/375/283 284/376/284 285/377/285
f 285/377/285 284/376/284 286/378/286
f 284/376/284 283/375/283 287/379/287
f 287/379/287 283/375/283 288/380/288
f 287/379/287 288/380/288 289/381/289
f 289/381/289 288/380/288 290/382/290
f 289/381/289 290/382/290 291/383/291
f 291/383/291 290/382/290 292/384/292
f 291/383/291 292/384/292 293/385/293
f 293/385/293 292/384/292 294/386/294
f 293/385/293 294/386/294 295/387/295
f 295/387/295 294/386/294 296/388/296
f 295/387/295 296/388/296 297/389/297
f 297/389/297 296/388/296 298/390/298
f 297/389/297 298/390/298 299/391/299
f 299/391/299 298/390/298 300/392/300
f 299/391/299 300/392/300 301/393/301
f 301/393/301 300/392/300 302/394/302
f 301/393/301 302/394/302 303/395/303
f 303/395/303 302/394/302 304/396/304
f 303/395/303 304/396/304 305/397/305
f 305/397/305 304/396/304 306/398/306
f 305/397/305 306/398/306 307/399/307
f 307/399/307 306/398/306 308/400/308
f 307/399/307 308/400/308 309/401/309
f 309/401/309 308/400/308 310/402/310
f 309/401/309 310/402/310 311/403/311
f 311/403/311 310/402/310 312/404/312
f 311/403/311 312/404/312 313/405/313
f 313/405/313 312/404/312 314/406/314
f 313/405/313 314/406/314 315/407/315
f 315/407/315 314/406/314 316/408/316
f 315/407/315 316/408/316 317/409/317
f 317/409/317 316/408/316 318/410/318
f 317/411/317 318/412/318 319/413/319
f 319/413/319 318/412/318 320/414/320
f 319/413/319 320/414/320 321/415/321
f 321/415/321 320/414/320 322/416/322
f 321/415/321 322/416/322 286/378/286
f 286/378/286 322/416/322 285/377/285
f 284/376/284 287/379/287 131/417/131
f 131/417/131 287/379/287 132/418/132
f 287/379/287 289/381/289 132/418/132
f 132/418/132 289/381/289 133/419/133
f 289/381/289 291/383/291 133/419/133
f 133/419/133 291/383/291 135/420/135
f 291/383/291 293/385/293 135/420/135
f 135/420/135 293/385/293 137/421/137
f 293/385/293 295/387/295 137/421/137
f 137/421/137 295/387/295 139/422/139
f 295/387/295 297/389/297 139/422/139
f 139/422/139 297/389/297 141/423/141
f 297/389/297 299/391/299 141/423/141
f 141/423/141 299/391/299 143/424/143
f 299/391/299 301/393/301 143/424/143
f 143/424/143 301/393/301 145/425/145
f 301/393/301 303/395/303 145/425/145
f 145/425/145 303/395/303 147/426/147
f 303/395/303 305/397/305 147/426/147
f 147/426/147 305/397/305 149/427/149
f 305/397/305 307/399/307 149/427/149
f 149/427/149 307/399/307 151/428/151
f 307/399/307 309/401/309 151/428/151
f 151/428/151 309/401/309 153/429/153
f 309/401/309 311/403/311 153/429/153
f 153/429/153 311/403/311 155/430/155
f 311/403/311 313/405/313 155/430/155
f 155/430/155 313/405/313 157/431/157
f 313/405/313 315/407/315 157/431/157
f 157/431/157 315/407/315 159/432/159
f 315/407/315 317/409/317 159/432/159
f 159/432/159 317/409/317 161/433/161
f 317/411/317 319/413/319 161/434/161
f 161/434/161 319/413/319 163/435/163
f 319/413/319 321/415/321 163/435/163
f 163/435/163 321/415/321 165/436/165
f 321/415/321 286/378/286 165/436/165
f 165/436/165 286/378/286 167/437/167
f 286/378/286 284/376/284 167/437/167
f 167/437/167 284/376/284 131/417/131
f 323/438/323 324/439/324 325/440/325
f 325/440/325 324/439/324 326/441/326
f 324/439/324 323/438/323 327/442/327
f 327/442/327 323/438/323 328/443/328
f 327/442/327 328/443/328 329/444/329
f 329/444/329 328/443/328 330/445/330
f 329/444/329 330/445/330 331/446/331
f 331/446/331 330/445/330 332/447/332
f 331/446/331 332/447/332 333/448/333
f 333/448/333 332/447/332 334/449/334
f 333/448/333 334/449/334 335/450/335
f 335/450/335 334/449/334 336/451/336
f 335/450/335 336/451/336 337/452/337
f 337/452/337 336/451/336 338/453/338
f 337/452/337 338/453/338 339/454/339
f 339/454/339 338/453/338 340/455/340
f 339/454/339 340/455/340 341/456/341
f 341/456/341 340/455/340 342/457/342
f 341/456/341 342/457/342 343/458/343
f 343/458/343 342/457/342 344/459/344
f 343/458/343 344/459/344 345/460/345
f 345/460/345 344/459/344 346/461/346
f 345/460/345 346/461/346 347/462/347
f 347/462/347 346/461/346 348/463/348
f 347/462/347 348/463/348 349/464/349
f 349/464/349 348/463/348 350/465/350
f 349/464/349 350/465/350 351/466/351
f 351/466/351 350/465/350 352/467/352
f 351/466/351 352/467/352 353/468/353
f 353/468/353 352/467/352 354/469/354
f 353/468/353 354/469/354 355/470/355
f 355/470/355 354/469/354 356/471/356
f 355/470/355 356/471/356 357/472/357
f 357/472/357 356/471/356 358/473/358
f 357/472/357 358/473/358 359/474/359
f 359/474/359 358/473/358 360/475/360
f 359/474/359 360/475/360 361/476/361
f 361/476/361 360/475/360 362/477/362
f 361/476/361 362/477/362 326/441/326
f 326/441/326 362/477/362 325/440/325
f 363/478/363 364/479/364 365/480/365
f 365/480/365 364/479/364 366/481/366
f 364/479/364 363/478/363 367/482/367
f 367/482/367 363/478/363 368/483/368
f 367/482/367 368/483/368 369/484/369
f 369/484/369 368/483/368 370/485/370
f 369/484/369 370/485/370 371/486/371
f 371/486/371 370/485/370 372/487/372
f 371/486/371 372/487/372 373/488/373
f 373/488/373 372/487/372 374/489/374
f 373/488/373 374/489/374 375/490/375
f 375/490/375 374/489/374 376/491/376
f 375/490/375 376/491/376 377/492/377
f 377/492/377 376/491/376 378/493/378
f 377/492/377 378/493/378 379/494/379
f 379/494/379 378/493/378 380/495/380
f 379/494/379 380/495/380 381/496/381
f 381/496/381 380/495/380 382/497/382
f 381/496/381 382/497/382 383/498/383
f 383/498/383 382/497/382 384/499/384
f 383/498/383 384/499/384 385/500/385
f 385/500/385 384/499/384 386/501/386
f 385/500/385 386/501/386 387/502/387
f 387/502/387 386/501/386 388/503/388
f 387/502/387 388/503/388 389/504/389
f 389/504/389 388/503/388 390/505/390
f 389/504/389 390/505/390 391/506/391
f 391/506/391 390/505/390 392/507/392
f 391/506/391 392/507/392 393/508/393
f 393/508/393 392/507/392 394/509/394
f 393/508/393 394/509/394 395/510/395
f 395/510/395 394/509/394 396/511/396
f 395/510/395 396/511/396 397/512/397
f 397/512/397 396/511/396 398/513/398
f 397/512/397 398/513/398 399/514/399
f 399/514/399 398/513/398 400/515/400
f 399/514/399 400/515/400 401/516/401
f 401/516/401 400/515/400 402/517/402
f 401/516/401 402/517/402 366/481/366
f 366/481/366 402/517/402 365/480/365
f 263/354/263 264/355/264 323/518/323
f 323/518/323 264/355/264 328/519/328
f 264/355/264 265/356/265 328/519/328
f 328/519/328 265/356/265 330/520/330
f 265/356/265 266/357/266 330/520/330
f 330/520/330 266/357/266 332/521/332
f 266/357/266 267/358/267 332/521/332
f 332/521/332 267/358/267 334/522/334
f 267/358/267 268/359/268 334/522/334
f 334/522/334 268/359/268 336/523/336
f 268/359/268 269/360/269 336/523/336
f 336/523/336 269/360/269 338/524/338
f 269/360/269 270/361/270 338/524/338
f 338/524/338 270/361/270 340/525/340
f 270/361/270 271/362/271 340/525/340
f 340/525/340 271/362/271 342/526/342
f 271/362/271 272/363/272 342/526/342
f 342/526/342 272/363/272 344/527/344
f 272/363/272 273/364/273 344/527/344
f 344/527/344 273/364/273 346/528/346
f 273/364/273 274/365/274 346/528/346
f 346/528/346 274/365/274 348/529/348
f 274/365/274 275/366/275 348/529/348
f 348/529/348 275/366/275 350/530/350
f 275/366/275 276/367/276 350/530/350
f 350/530/350 276/367/276 352/531/352
f 276/367/276 277/368/277 352/531/352
f 352/531/352 277/368/277 354/532/354
f 277/368/277 278/369/278 354/532/354
f 354/532/354 278/369/278 356/533/356
f 278/369/278 279/370/279 356/533/356
f 356/533/356 279/370/279 358/534/358
f 279/371/279 280/372/280 358/535/358
f 358/535/358 280/372/280 360/536/360
f 280/372/280 281/373/281 360/536/360
f 360/536/360 281/373/281 362/537/362
f 281/373/281 282/374/282 362/537/362
f 362/537/362 282/374/282 325/538/325
f 282/374/282 263/354/263 325/538/325
f 325/538/325 263/354/263 323/518/323
f 324/439/324 327/442/327 363/478/363
f 363/478/363 327/442/327 368/483/368
f 327/442/327 329/444/329 368/483/368
f 368/483/368 329/444/329 370/485/370
f 329/444/329 331/446/331 370/485/370
f 370/485/370 331/446/331 372/487/372
f 331/446/331 333/448/333 372/487/372
f 372/487/372 333/448/333 374/489/374
f 333/448/333 335/450/335 374/489/374
f 374/489/374 335/450/335 376/491/376
f 335/450/335 337/452/337 376/491/376
f 376/491/376 337/452/337 378/493/378
f 337/452/337 339/454/339 378/493/378
f 378/493/378 339/454/339 380/495/380
f 339/454/339 341/456/341 380/495/380
f 380/495/380 341/456/341 382/497/382
f 341/456/341 343/458/343 382/497/382
f 382/497/382 343/458/343 384/499/384
f 343/458/343 345/460/345 384/499/384
f 384/499/384 345/460/345 386/501/386
f 345/460/345 347/462/347 386/501/386
f 386/501/386 347/462/347 388/503/388
f 347/462/347 349/464/349 388/503/388
f 388/503/388 349/464/349 390/505/390
f 349/464/349 351/466/351 390/505/390
f 390/505/390 351/466/351 392/507/392
f 351/466/351 353/468/353 392/507/392
f 392/507/392 353/468/353 394/509/394
f 353/468/353 355/470/355 394/509/394
f 394/509/394 355/470/355 396/511/396
f 355/470/355 357/472/357 396/511/396
f 396/511/396 357/472/357 398/513/398
f 357/472/357 359/474/359 398/513/398
f 398/513/398 359/474/359 400/515/400
f 359/474/359 361/476/361 400/515/400
f 400/515/400 361/476/361 402/517/402
f 361/476/361 326/441/326 402/517/402
f 402/517/402 326/441/326 365/480/365
f 326/441/326 324/439/324 365/480/365
f 365/480/365 324/439/324 363/478/363
f 364/539/364 367/540/367 283/375/283
f 283/375/283 367/540/367 288/380/288
f 367/540/367 369/541/369 288/380/288
f 288/380/288 369/541/369 290/382/290
f 369/541/369 371/542/371 290/382/290
f 290/382/290 371/542/371 292/384/292
f 371/542/371 373/543/373 292/384/292
f 292/384/292 373/543/373 294/386/294
f 373/543/373 375/544/375 294/386/294
f 294/386/294 375/544/375 296/388/296
f 375/544/375 377/545/377 296/388/296
f 296/388/296 377/545/377 298/390/298
f 377/545/377 379/546/379 298/390/298
f 298/390/298 379/546/379 300/392/300
f 379/546/379 381/547/381 300/392/300
f 300/392/300 381/547/381 302/394/302
f 381/547/381 383/548/383 302/394/302
f 302/394/302 383/548/383 304/396/304
f 383/548/383 385/549/385 304/396/304
f 304/396/304 385/549/385 306/398/306
f 385/549/385 387/550/387 306/398/306
f 306/398/306 387/550/387 308/400/308
f 387/550/387 389/551/389 308/400/308
f 308/400/308 389/551/389 310/402/310
f 389/551/389 391/552/391 310/402/310
f 310/402/310 391/552/391 312/404/312
f 391/552/391 393/553/393 312/404/312
f 312/404/312 393/553/393 314/406/314
f 393/553/393 395/554/395 314/406/314
f 314/406/314 395/554/395 316/408/316
f 395/554/395 397/555/397 316/408/316
f 316/408/316 397/555/397 318/410/318
f 397/556/397 399/557/399 318/412/318
f 318/412/318 399/557/399 320/414/320
f 399/557/399 401/558/401 320/414/320
f 320/414/320 401/558/401 322/416/322
f 401/558/401 366/559/366 322/416/322
f 322/416/322 366/559/366 285/377/285
f 366/559/366 364/539/364 285/377/285
f 285/377/285 364/539/364 283/375/283
s off
g IchigoAme_SugarJar_TopSG
v 0.453794 0.668842 -0.147447
v 0.475993 0.658894 -0.154657
v 0.386022 0.668842 -0.280458
v 0.404903 0.658894 -0.294177
v 0.485186 0.634877 -0.157644
v 0.412724 0.634877 -0.299859
v 0.413453 0.531226 -0.134342
v 0.351703 0.531226 -0.255524
v 0.413453 0.569993 -0.134342
v 0.351703 0.569993 -0.255524
v 0.255524 0.531226 -0.351712
v 0.255524 0.569993 -0.351712
v 0.134333 0.531226 -0.413453
v 0.134333 0.569993 -0.413453
v -1.1e-05 0.531226 -0.434733
v -1.1e-05 0.569993 -0.434733
v -0.134352 0.531226 -0.413453
v -0.134352 0.569993 -0.413453
v -0.255543 0.531226 -0.351712
v -0.255543 0.569993 -0.351712
v -0.351723 0.531226 -0.255524
v -0.351723 0.569993 -0.255524
v -0.413472 0.531226 -0.134342
v -0.413472 0.569993 -0.134342
v -0.43475 0.531226 8e-06
v -0.43475 0.569993 8e-06
v -0.413472 0.531226 0.134345
v -0.413472 0.569993 0.134345
v -0.351723 0.531226 0.255538
v -0.351723 0.569993 0.255538
v -0.255543 0.531226 0.351716
v -0.255543 0.569993 0.351716
v -0.134352 0.531226 0.413467
v -0.134352 0.569993 0.413467
v -1.1e-05 0.531226 0.434749
v -1.1e-05 0.569993 0.434749
v 0.134333 0.531226 0.413467
v 0.134333 0.569993 0.413467
v 0.255524 0.531226 0.351716
v 0.255524 0.569993 0.351716
v 0.351702 0.531226 0.255538
v 0.351702 0.569993 0.255538
v 0.413453 0.531226 0.134345
v 0.413453 0.569993 0.134345
v 0.434733 0.531226 8e-06
v 0.434733 0.569993 8e-06
v 0.326631 0.497261 -0.237314
v 0.38398 0.497261 -0.124763
v -1.1e-05 0.497261 8e-06
v 0.237309 0.497261 -0.326637
v 0.124756 0.497261 -0.383982
v -1.1e-05 0.497261 -0.403742
v -0.124774 0.497261 -0.383982
v -0.237326 0.497261 -0.326637
v -0.326653 0.497261 -0.237314
v -0.383999 0.497261 -0.124763
v -0.40376 0.497261 8e-06
v -0.383999 0.497261 0.124772
v -0.326653 0.497261 0.237326
v -0.237326 0.497261 0.326645
v -0.124774 0.497261 0.383994
v -1.1e-05 0.497261 0.40376
v 0.124756 0.497261 0.383994
v 0.237309 0.497261 0.326645
v 0.326628 0.497261 0.237326
v 0.38398 0.497261 0.124772
v 0.403742 0.497261 8e-06
v -1.1e-05 0.668842 8e-06
v 0.280456 0.668842 -0.386023
v 0.147442 0.668842 -0.4538
v -1.1e-05 0.668842 -0.477153
v -0.147463 0.668842 -0.4538
v -0.280477 0.668842 -0.386023
v -0.386041 0.668842 -0.280458
v -0.453817 0.668842 -0.147447
v -0.47717 0.668842 8e-06
v -0.453817 0.668842 0.14746
v -0.386041 0.668842 0.280474
v -0.280477 0.668842 0.386034
v -0.147463 0.668842 0.453814
v -1.1e-05 0.668842 0.477169
v 0.147442 0.668842 0.453814
v 0.280456 0.668842 0.386034
v 0.386018 0.668842 0.280476
v 0.453794 0.668842 0.14746
v 0.477153 0.668842 8e-06
v 0.453796 0.569996 -0.147447
v 0.386025 0.569996 -0.28046
v 0.280458 0.569996 -0.386027
v 0.147442 0.569996 -0.4538
v -1.1e-05 0.569996 -0.477155
v -0.147463 0.569996 -0.4538
v -0.280479 0.569996 -0.386027
v -0.386044 0.569996 -0.28046
v -0.453817 0.569996 -0.147447
v -0.477172 0.569996 8e-06
v -0.453817 0.569996 0.14746
v -0.386044 0.569996 0.280476
v -0.280479 0.569996 0.386037
v -0.147463 0.569996 0.453817
v -1.1e-05 0.569996 0.47717
v 0.147442 0.569996 0.453817
v 0.280458 0.569996 0.386037
v 0.386023 0.569996 0.280479
v 0.453796 0.569996 0.14746
v 0.477155 0.569996 8e-06
v 0.485186 0.603964 -0.157644
v 0.412724 0.603964 -0.299859
v 0.299859 0.603964 -0.412724
v 0.299859 0.634877 -0.412724
v 0.15764 0.603964 -0.485189
v 0.15764 0.634877 -0.485189
v -1.1e-05 0.603964 -0.510162
v -1.1e-05 0.634877 -0.510162
v -0.157663 0.603964 -0.485189
v -0.157663 0.634877 -0.485189
v -0.299876 0.603964 -0.412724
v -0.299876 0.634877 -0.412724
v -0.412745 0.603964 -0.299859
v -0.412745 0.634877 -0.299859
v -0.485207 0.603964 -0.157644
v -0.485207 0.634877 -0.157644
v -0.510175 0.603964 8e-06
v -0.510175 0.634877 8e-06
v -0.485207 0.603964 0.157658
v -0.485207 0.634877 0.157658
v -0.412745 0.603964 0.299874
v -0.412745 0.634877 0.299874
v -0.299876 0.603964 0.412734
v -0.299876 0.634877 0.412734
v -0.157663 0.603964 0.485203
v -0.157663 0.634877 0.485203
v -1.1e-05 0.603964 0.510175
v -1.1e-05 0.634877 0.510175
v 0.15764 0.603964 0.485203
v 0.15764 0.634877 0.485203
v 0.299859 0.603964 0.412734
v 0.299859 0.634877 0.412734
v 0.412722 0.603964 0.299874
v 0.412722 0.634877 0.299874
v 0.485186 0.603964 0.157658
v 0.485186 0.634877 0.157658
v 0.510157 0.603964 8e-06
v 0.510157 0.634877 8e-06
v 0.40482 0.50721 -0.131537
v 0.344361 0.50721 -0.25019
v 0.25019 0.50721 -0.344365
v 0.13153 0.50721 -0.404825
v -1.1e-05 0.50721 -0.425658
v -0.131547 0.50721 -0.404825
v -0.250209 0.50721 -0.344365
v -0.344379 0.50721 -0.25019
v -0.404837 0.50721 -0.131537
v -0.425672 0.50721 8e-06
v -0.404837 0.50721 0.13154
v -0.344379 0.50721 0.250208
v -0.250209 0.50721 0.344375
v -0.131547 0.50721 0.404835
v -1.1e-05 0.50721 0.425672
v 0.13153 0.50721 0.404835
v 0.25019 0.50721 0.344375
v 0.344359 0.50721 0.250208
v 0.40482 0.50721 0.13154
v 0.425654 0.50721 8e-06
v 0.475994 0.579947 -0.154657
v 0.50049 0.579947 8e-06
v 0.404905 0.579947 -0.294177
v 0.294177 0.579947 -0.404906
v 0.154654 0.579947 -0.475993
v -1.1e-05 0.579947 -0.50049
v -0.154676 0.579947 -0.475993
v -0.294194 0.579947 -0.404906
v -0.404924 0.579947 -0.294177
v -0.476015 0.579947 -0.154657
v -0.500511 0.579947 8e-06
v -0.476015 0.579947 0.154671
v -0.404924 0.579947 0.294192
v -0.294194 0.579947 0.404917
v -0.154676 0.579947 0.476012
v -1.1e-05 0.579947 0.50051
v 0.154654 0.579947 0.476012
v 0.294177 0.579947 0.404917
v 0.404903 0.579947 0.294192
v 0.475994 0.579947 0.154671
v 0.294177 0.658894 -0.404905
v 0.154654 0.658894 -0.475993
v -1.1e-05 0.658894 -0.50049
v -0.154676 0.658894 -0.475993
v -0.294194 0.658894 -0.404905
v -0.404922 0.658894 -0.294177
v -0.476012 0.658894 -0.154657
v -0.500508 0.658894 8e-06
v -0.476012 0.658894 0.154671
v -0.404922 0.658894 0.294192
v -0.294194 0.658894 0.404915
v -0.154676 0.658894 0.476008
v -1.1e-05 0.658894 0.500508
v 0.154654 0.658894 0.476008
v 0.294177 0.658894 0.404915
v 0.404899 0.658894 0.294192
v 0.475993 0.658894 0.154671
v 0.50049 0.658894 8e-06
vn 0.042803 0.998987 -0.013908
vn 0.696915 0.680465 -0.226443
vn 0.036411 0.998987 -0.026454
vn 0.592828 0.680468 -0.430717
vn 0.937021 0.17116 -0.304459
vn 0.797078 0.171159 -0.579113
vn 0.941539 -0.141108 -0.30593
vn 0.800922 -0.1411 -0.581906
vn 0.590569 -0.78384 -0.191893
vn 0.502378 -0.783831 -0.365
vn 0.581906 -0.141098 -0.800923
vn 0.364988 -0.783847 -0.502362
vn 0.305904 -0.141071 -0.941553
vn 0.191874 -0.783835 -0.590582
vn 0 -0.141052 -0.990002
vn -0 -0.783855 -0.620944
vn -0.305909 -0.141075 -0.941551
vn -0.191875 -0.783839 -0.590577
vn -0.581905 -0.141106 -0.800922
vn -0.364984 -0.783852 -0.502357
vn -0.800921 -0.141117 -0.581903
vn -0.502373 -0.783836 -0.364996
vn -0.941538 -0.141127 -0.305924
vn -0.590561 -0.783848 -0.191886
vn -0.98999 -0.141134 -0
vn -0.620955 -0.783846 0
vn -0.941538 -0.141121 0.305926
vn -0.590552 -0.783855 0.191884
vn -0.800928 -0.141084 0.581902
vn -0.502344 -0.783865 0.364975
vn -0.581907 -0.141065 0.800928
vn -0.364973 -0.783867 0.502341
vn -0.305943 -0.141082 0.941538
vn -0.191889 -0.783867 0.590534
vn 0 -0.141093 0.989996
vn 0 -0.78387 0.620925
vn 0.305939 -0.141078 0.94154
vn 0.191889 -0.783863 0.59054
vn 0.581911 -0.141057 0.800926
vn 0.364975 -0.783867 0.50234
vn 0.800929 -0.141067 0.581905
vn 0.502343 -0.783866 0.364974
vn 0.941537 -0.141102 0.305938
vn 0.590552 -0.783853 0.191892
vn 0.989992 -0.14112 -0
vn 0.620959 -0.783843 -0
vn 0.042536 -0.998617 -0.030905
vn 0.050005 -0.998617 -0.016247
vn 0 -1 0
vn 0.030905 -0.998617 -0.042538
vn 0.016247 -0.998617 -0.050005
vn -0 -0.998617 -0.052579
vn -0.016247 -0.998617 -0.050005
vn -0.030905 -0.998617 -0.042538
vn -0.042537 -0.998617 -0.030906
vn -0.050006 -0.998617 -0.016247
vn -0.052579 -0.998617 0
vn -0.050006 -0.998617 0.016248
vn -0.042539 -0.998617 0.030906
vn -0.030904 -0.998617 0.042537
vn -0.016248 -0.998617 0.050005
vn -0 -0.998617 0.052581
vn 0.016248 -0.998617 0.050005
vn 0.030905 -0.998617 0.042537
vn 0.042537 -0.998617 0.030905
vn 0.050005 -0.998617 0.016249
vn 0.052579 -0.998617 0
vn 0 1 -0
vn 0.026454 0.998987 -0.036411
vn 0.013908 0.998987 -0.042804
vn -0 0.998987 -0.045007
vn -0.013908 0.998987 -0.042804
vn -0.026454 0.998987 -0.036411
vn -0.036411 0.998987 -0.026454
vn -0.042804 0.998987 -0.013908
vn -0.045006 0.998987 0
vn -0.042804 0.998987 0.013908
vn -0.036411 0.998987 0.026455
vn -0.026454 0.998987 0.03641
vn -0.013909 0.998987 0.042804
vn -0 0.998987 0.045007
vn 0.013909 0.998987 0.042804
vn 0.026454 0.998987 0.03641
vn 0.036411 0.998987 0.026455
vn 0.042803 0.998987 0.013908
vn 0.045007 0.998987 0
vn 0.163915 -0.985036 -0.05326
vn 0.139437 -0.985035 -0.101307
vn 0.101308 -0.985035 -0.139441
vn 0.053259 -0.985035 -0.163922
vn -0 -0.985035 -0.172356
vn -0.053259 -0.985035 -0.163921
vn -0.10131 -0.985035 -0.13944
vn -0.139437 -0.985035 -0.101308
vn -0.163912 -0.985036 -0.053259
vn -0.172345 -0.985037 0
vn -0.163908 -0.985037 0.053257
vn -0.139431 -0.985036 0.101305
vn -0.101304 -0.985037 0.139429
vn -0.05326 -0.985037 0.16391
vn -0 -0.985037 0.172343
vn 0.05326 -0.985036 0.16391
vn 0.101301 -0.985037 0.13943
vn 0.139432 -0.985036 0.101306
vn 0.163911 -0.985036 0.053259
vn 0.172354 -0.985035 0
vn 0.937025 -0.171141 -0.304459
vn 0.79708 -0.171137 -0.579116
vn 0.579115 -0.171151 -0.797078
vn 0.579114 0.171166 -0.797076
vn 0.304463 -0.171199 -0.937013
vn 0.304464 0.171204 -0.937012
vn 0 -0.171236 -0.98523
vn 0 0.171234 -0.98523
vn -0.304468 -0.171199 -0.937011
vn -0.304468 0.171204 -0.93701
vn -0.579118 -0.171155 -0.797075
vn -0.579116 0.171171 -0.797073
vn -0.797074 -0.171149 -0.579121
vn -0.797071 0.171178 -0.579117
vn -0.937028 -0.171133 -0.304453
vn -0.937021 0.171182 -0.304449
vn -0.985251 -0.171116 -0
vn -0.985241 0.171174 -0
vn -0.937028 -0.171133 0.304453
vn -0.937021 0.171181 0.304449
vn -0.79707 -0.171149 0.579127
vn -0.797067 0.171179 0.579122
vn -0.579119 -0.171135 0.797079
vn -0.579114 0.171164 0.797076
vn -0.304482 -0.171127 0.93702
vn -0.304479 0.171168 0.937014
vn 0 -0.171131 0.985248
vn 0 0.171174 0.985241
vn 0.304477 -0.171127 0.937022
vn 0.304474 0.171168 0.937015
vn 0.579119 -0.17113 0.79708
vn 0.579114 0.171164 0.797076
vn 0.797076 -0.171137 0.579121
vn 0.797072 0.171171 0.579116
vn 0.937023 -0.17114 0.304464
vn 0.937018 0.171167 0.304465
vn 0.985246 -0.171145 -0
vn 0.985243 0.171159 -0
vn 0.716849 -0.657172 -0.232921
vn 0.609794 -0.657165 -0.443041
vn 0.443043 -0.657173 -0.609784
vn 0.232908 -0.657171 -0.716854
vn 0 -0.657161 -0.753751
vn -0.232909 -0.657176 -0.716849
vn -0.44304 -0.657178 -0.60978
vn -0.609794 -0.657164 -0.443042
vn -0.716852 -0.65717 -0.232919
vn -0.753736 -0.657178 -0
vn -0.716858 -0.657163 0.232919
vn -0.609807 -0.657147 0.44305
vn -0.443041 -0.657159 0.609801
vn -0.232931 -0.657168 0.71685
vn 0 -0.657165 0.753747
vn 0.232931 -0.657162 0.716855
vn 0.443044 -0.657156 0.609801
vn 0.609801 -0.657157 0.443044
vn 0.71685 -0.65717 0.232924
vn 0.753737 -0.657176 -0
vn 0.696962 -0.680413 -0.226455
vn 0.732822 -0.68042 -0
vn 0.592875 -0.680407 -0.43075
vn 0.430748 -0.680406 -0.592877
vn 0.226452 -0.680433 -0.696944
vn 0 -0.680454 -0.732791
vn -0.226456 -0.680431 -0.696944
vn -0.430752 -0.680402 -0.592879
vn -0.592871 -0.680408 -0.430755
vn -0.696959 -0.680417 -0.226453
vn -0.732825 -0.680417 -0
vn -0.696957 -0.680419 0.226453
vn -0.592867 -0.680409 0.430758
vn -0.430759 -0.680393 0.592884
vn -0.226477 -0.680399 0.696969
vn 0 -0.680409 0.732833
vn 0.226472 -0.6804 0.696969
vn 0.43076 -0.68039 0.592887
vn 0.59288 -0.680399 0.430757
vn 0.696962 -0.680412 0.22646
vn 0.43072 0.680463 -0.592832
vn 0.226442 0.680475 -0.696906
vn 0 0.680489 -0.732758
vn -0.226447 0.680474 -0.696906
vn -0.430724 0.680459 -0.592834
vn -0.592827 0.680466 -0.430723
vn -0.696918 0.680463 -0.226439
vn -0.732788 0.680457 -0
vn -0.696916 0.680466 0.22644
vn -0.592823 0.680468 0.430726
vn -0.430722 0.680459 0.592835
vn -0.22646 0.680461 0.696913
vn 0 0.680466 0.73278
vn 0.226455 0.680463 0.696914
vn 0.430722 0.680463 0.592831
vn 0.592821 0.680474 0.430718
vn 0.696908 0.680471 0.226448
vn 0.73278 0.680465 -0
vt 0.961839 0.692522
vt 0.972706 0.698059
vt 0.919738 0.750444
vt 0.928363 0.759069
vt 0.075011 0.079843
vt 0.053398 0.079843
vt 0.075011 0.037667
vt 0.053398 0.037667
vt 0.105504 0.219324
vt 0.105504 0.183728
vt 0.14009 0.219324
vt 0.14009 0.183728
vt 0.105504 0.154759
vt 0.14009 0.154759
vt 0.105504 0.118445
vt 0.14009 0.118445
vt 0.105504 0.078983
vt 0.14009 0.078983
vt 0.105504 0.039523
vt 0.14009 0.039523
vt 0.105504 0.003925
vt 0.14009 0.003925
vt 0.105504 0.720781
vt 0.105504 0.692529
vt 0.14009 0.720781
vt 0.14009 0.692529
vt 0.105504 0.656933
vt 0.14009 0.656933
vt 0.105504 0.61747
vt 0.14009 0.61747
vt 0.105504 0.578011
vt 0.14009 0.578011
vt 0.105504 0.542412
vt 0.14009 0.542412
vt 0.105504 0.513486
vt 0.14009 0.513486
vt 0.105504 0.477212
vt 0.14009 0.477212
vt 0.105504 0.437751
vt 0.14009 0.437751
vt 0.105504 0.39829
vt 0.14009 0.39829
vt 0.105504 0.362393
vt 0.14009 0.362393
vt 0.105504 0.333845
vt 0.14009 0.333845
vt 0.105504 0.298246
vt 0.14009 0.298246
vt 0.105504 0.258786
vt 0.14009 0.258786
vt 0.373751 0.591205
vt 0.431375 0.60992
vt 0.343439 0.782521
vt 0.313128 0.591208
vt 0.255514 0.609948
vt 0.206476 0.645576
vt 0.170885 0.694587
vt 0.152171 0.752222
vt 0.152169 0.812813
vt 0.170896 0.870436
vt 0.206523 0.919446
vt 0.255533 0.955063
vt 0.313166 0.973772
vt 0.373758 0.973771
vt 0.431364 0.955047
vt 0.480391 0.919436
vt 0.515996 0.870418
vt 0.534723 0.812792
vt 0.53473 0.752203
vt 0.516018 0.694575
vt 0.480389 0.645569
vt 0.757901 0.588568
vt 0.861777 0.792533
vt 0.793682 0.81465
vt 0.722065 0.814631
vt 0.653962 0.7925
vt 0.596041 0.750397
vt 0.553951 0.692461
vt 0.531831 0.624358
vt 0.531842 0.552744
vt 0.553977 0.484643
vt 0.596073 0.426714
vt 0.654009 0.384629
vt 0.72211 0.362508
vt 0.793725 0.362502
vt 0.861823 0.384642
vt 0.919763 0.426732
vt 0.961843 0.484659
vt 0.983985 0.552779
vt 0.983986 0.62439
vt 0.327097 0.050229
vt 0.268006 0.080339
vt 0.320707 0.030557
vt 0.255847 0.063603
vt 0.221103 0.127238
vt 0.20437 0.11508
vt 0.190996 0.186334
vt 0.171323 0.179941
vt 0.18062 0.251843
vt 0.159934 0.251843
vt 0.190996 0.317351
vt 0.171323 0.323744
vt 0.221103 0.376446
vt 0.20437 0.388605
vt 0.268006 0.423345
vt 0.255847 0.440081
vt 0.327097 0.453456
vt 0.320707 0.473129
vt 0.392609 0.463831
vt 0.392609 0.484517
vt 0.458115 0.453456
vt 0.46451 0.473129
vt 0.517211 0.423345
vt 0.529371 0.440081
vt 0.564109 0.376446
vt 0.580845 0.388605
vt 0.594221 0.317351
vt 0.613896 0.323744
vt 0.604598 0.251843
vt 0.625284 0.251843
vt 0.594221 0.186334
vt 0.613896 0.179941
vt 0.564109 0.127238
vt 0.580845 0.11508
vt 0.517211 0.08034
vt 0.529373 0.063604
vt 0.458115 0.050229
vt 0.46451 0.030557
vt 0.392609 0.039852
vt 0.392609 0.019166
vt 0.025581 0.079843
vt 0.025581 0.037667
vt 0.025581 0.004195
vt 0.053398 0.004195
vt 0.025581 0.853392
vt 0.025581 0.811216
vt 0.053398 0.853392
vt 0.053398 0.811216
vt 0.025581 0.764462
vt 0.053398 0.764462
vt 0.025581 0.717709
vt 0.053398 0.717709
vt 0.025581 0.67479
vt 0.053398 0.67479
vt 0.025581 0.640573
vt 0.053398 0.640573
vt 0.025581 0.598397
vt 0.053398 0.598397
vt 0.025581 0.551643
vt 0.053398 0.551643
vt 0.025581 0.504889
vt 0.053398 0.504889
vt 0.025581 0.462713
vt 0.053398 0.462713
vt 0.025581 0.428437
vt 0.053398 0.428437
vt 0.025581 0.385457
vt 0.053398 0.385457
vt 0.025581 0.338703
vt 0.053398 0.338703
vt 0.025581 0.291948
vt 0.053398 0.291948
vt 0.025581 0.249384
vt 0.053398 0.249384
vt 0.025581 0.215527
vt 0.053398 0.215527
vt 0.025581 0.17335
vt 0.053398 0.17335
vt 0.025581 0.126597
vt 0.053398 0.126597
vt 0.084077 0.219324
vt 0.084077 0.183728
vt 0.436627 0.599603
vt 0.375559 0.579773
vt 0.084077 0.154759
vt 0.311317 0.579779
vt 0.084077 0.118445
vt 0.250268 0.599632
vt 0.084077 0.078983
vt 0.198279 0.637402
vt 0.084077 0.039523
vt 0.160579 0.689329
vt 0.084077 0.003925
vt 0.14074 0.750415
vt 0.084077 0.720781
vt 0.084077 0.692529
vt 0.140741 0.81463
vt 0.084077 0.656933
vt 0.160591 0.875692
vt 0.084077 0.61747
vt 0.198345 0.927628
vt 0.084077 0.578011
vt 0.250281 0.965374
vt 0.084077 0.542412
vt 0.31136 0.985193
vt 0.084077 0.513486
vt 0.375572 0.9852
vt 0.084077 0.477212
vt 0.436614 0.965358
vt 0.084077 0.437751
vt 0.488572 0.927612
vt 0.084077 0.39829
vt 0.526304 0.875668
vt 0.084077 0.362393
vt 0.546151 0.814605
vt 0.084077 0.333845
vt 0.546154 0.750391
vt 0.084077 0.298246
vt 0.526333 0.689316
vt 0.084077 0.258786
vt 0.48857 0.637394
vt 0.317191 0.019732
vt 0.392609 0.007787
vt 0.003968 0.079843
vt 0.003968 0.126597
vt 0.003968 0.037667
vt 0.249158 0.054397
vt 0.003968 0.004195
vt 0.195164 0.108391
vt 0.003968 0.853392
vt 0.003968 0.811216
vt 0.160501 0.176425
vt 0.003968 0.764462
vt 0.148555 0.251843
vt 0.003968 0.717709
vt 0.160501 0.327261
vt 0.003968 0.67479
vt 0.195164 0.395293
vt 0.003968 0.640573
vt 0.249158 0.449287
vt 0.003968 0.598397
vt 0.317191 0.483953
vt 0.003968 0.551643
vt 0.392609 0.495898
vt 0.003968 0.504889
vt 0.468026 0.483953
vt 0.003968 0.462713
vt 0.53606 0.449287
vt 0.003968 0.428437
vt 0.590051 0.395293
vt 0.003968 0.385457
vt 0.624719 0.327261
vt 0.003968 0.338703
vt 0.636665 0.251843
vt 0.003968 0.291948
vt 0.624719 0.176425
vt 0.003968 0.249384
vt 0.590051 0.108391
vt 0.003968 0.215527
vt 0.53606 0.054398
vt 0.003968 0.17335
vt 0.468026 0.019732
vt 0.867312 0.803401
vt 0.075011 0.004195
vt 0.795591 0.826699
vt 0.075011 0.853392
vt 0.075011 0.811216
vt 0.720155 0.826673
vt 0.075011 0.764462
vt 0.648424 0.803364
vt 0.075011 0.717709
vt 0.587417 0.759013
vt 0.075011 0.67479
vt 0.543088 0.697993
vt 0.075011 0.640573
vt 0.519792 0.626262
vt 0.075011 0.598397
vt 0.519799 0.550833
vt 0.075011 0.551643
vt 0.543112 0.479105
vt 0.075011 0.504889
vt 0.587449 0.418088
vt 0.075011 0.462713
vt 0.648468 0.373761
vt 0.075011 0.428437
vt 0.720207 0.350464
vt 0.075011 0.385457
vt 0.795629 0.350457
vt 0.075011 0.338703
vt 0.86736 0.373777
vt 0.075011 0.291948
vt 0.928393 0.418111
vt 0.075011 0.249384
vt 0.972707 0.479122
vt 0.075011 0.215527
vt 0.996032 0.550875
vt 0.075011 0.17335
vt 0.99603 0.6263
vt 0.075011 0.126597
usemtl TopSG
f 403/560/403 404/561/404 405/562/405
f 405/562/405 404/561/404 406/563/406
f 404/564/404 407/565/407 406/566/406
f 406/566/406 407/565/407 408/567/408
f 409/568/409 410/569/410 411/570/411
f 411/570/411 410/569/410 412/571/412
f 410/569/410 413/572/413 412/571/412
f 412/571/412 413/572/413 414/573/414
f 413/572/413 415/574/415 414/573/414
f 414/573/414 415/574/415 416/575/416
f 415/574/415 417/576/417 416/575/416
f 416/575/416 417/576/417 418/577/418
f 417/576/417 419/578/419 418/577/418
f 418/577/418 419/578/419 420/579/420
f 419/578/419 421/580/421 420/579/420
f 420/579/420 421/580/421 422/581/422
f 421/582/421 423/583/423 422/584/422
f 422/584/422 423/583/423 424/585/424
f 423/583/423 425/586/425 424/585/424
f 424/585/424 425/586/425 426/587/426
f 425/586/425 427/588/427 426/587/426
f 426/587/426 427/588/427 428/589/428
f 427/588/427 429/590/429 428/589/428
f 428/589/428 429/590/429 430/591/430
f 429/590/429 431/592/431 430/591/430
f 430/591/430 431/592/431 432/593/432
f 431/592/431 433/594/433 432/593/432
f 432/593/432 433/594/433 434/595/434
f 433/594/433 435/596/435 434/595/434
f 434/595/434 435/596/435 436/597/436
f 435/596/435 437/598/437 436/597/436
f 436/597/436 437/598/437 438/599/438
f 437/598/437 439/600/439 438/599/438
f 438/599/438 439/600/439 440/601/440
f 439/600/439 441/602/441 440/601/440
f 440/601/440 441/602/441 442/603/442
f 441/602/441 443/604/443 442/603/442
f 442/603/442 443/604/443 444/605/444
f 443/604/443 445/606/445 444/605/444
f 444/605/444 445/606/445 446/607/446
f 445/606/445 447/608/447 446/607/446
f 446/607/446 447/608/447 448/609/448
f 447/608/447 409/568/409 448/609/448
f 448/609/448 409/568/409 411/570/411
f 449/610/449 450/611/450 451/612/451
f 452/613/452 449/610/449 451/612/451
f 453/614/453 452/613/452 451/612/451
f 454/615/454 453/614/453 451/612/451
f 455/616/455 454/615/454 451/612/451
f 456/617/456 455/616/455 451/612/451
f 457/618/457 456/617/456 451/612/451
f 458/619/458 457/618/457 451/612/451
f 459/620/459 458/619/458 451/612/451
f 460/621/460 459/620/459 451/612/451
f 461/622/461 460/621/460 451/612/451
f 462/623/462 461/622/461 451/612/451
f 463/624/463 462/623/462 451/612/451
f 464/625/464 463/624/463 451/612/451
f 465/626/465 464/625/464 451/612/451
f 466/627/466 465/626/465 451/612/451
f 467/628/467 466/627/466 451/612/451
f 468/629/468 467/628/467 451/612/451
f 469/630/469 468/629/468 451/612/451
f 450/611/450 469/630/469 451/612/451
f 403/560/403 405/562/405 470/631/470
f 405/562/405 471/632/471 470/631/470
f 471/632/471 472/633/472 470/631/470
f 472/633/472 473/634/473 470/631/470
f 473/634/473 474/635/474 470/631/470
f 474/635/474 475/636/475 470/631/470
f 475/636/475 476/637/476 470/631/470
f 476/637/476 477/638/477 470/631/470
f 477/638/477 478/639/478 470/631/470
f 478/639/478 479/640/479 470/631/470
f 479/640/479 480/641/480 470/631/470
f 480/641/480 481/642/481 470/631/470
f 481/642/481 482/643/482 470/631/470
f 482/643/482 483/644/483 470/631/470
f 483/644/483 484/645/484 470/631/470
f 484/645/484 485/646/485 470/631/470
f 485/646/485 486/647/486 470/631/470
f 486/647/486 487/648/487 470/631/470
f 487/648/487 488/649/488 470/631/470
f 488/649/488 403/560/403 470/631/470
f 411/650/411 412/651/412 489/652/489
f 489/652/489 412/651/412 490/653/490
f 412/651/412 414/654/414 490/653/490
f 490/653/490 414/654/414 491/655/491
f 414/654/414 416/656/416 491/655/491
f 491/655/491 416/656/416 492/657/492
f 416/656/416 418/658/418 492/657/492
f 492/657/492 418/658/418 493/659/493
f 418/658/418 420/660/420 493/659/493
f 493/659/493 420/660/420 494/661/494
f 420/660/420 422/662/422 494/661/494
f 494/661/494 422/662/422 495/663/495
f 422/662/422 424/664/424 495/663/495
f 495/663/495 424/664/424 496/665/496
f 424/664/424 426/666/426 496/665/496
f 496/665/496 426/666/426 497/667/497
f 426/666/426 428/668/428 497/667/497
f 497/667/497 428/668/428 498/669/498
f 428/668/428 430/670/430 498/669/498
f 498/669/498 430/670/430 499/671/499
f 430/670/430 432/672/432 499/671/499
f 499/671/499 432/672/432 500/673/500
f 432/672/432 434/674/434 500/673/500
f 500/673/500 434/674/434 501/675/501
f 434/674/434 436/676/436 501/675/501
f 501/675/501 436/676/436 502/677/502
f 436/676/436 438/678/438 502/677/502
f 502/677/502 438/678/438 503/679/503
f 438/678/438 440/680/440 503/679/503
f 503/679/503 440/680/440 504/681/504
f 440/680/440 442/682/442 504/681/504
f 504/681/504 442/682/442 505/683/505
f 442/682/442 444/684/444 505/683/505
f 505/683/505 444/684/444 506/685/506
f 444/684/444 446/686/446 506/685/506
f 506/685/506 446/686/446 507/687/507
f 446/686/446 448/688/448 507/687/507
f 507/687/507 448/688/448 508/689/508
f 448/688/448 411/650/411 508/689/508
f 508/689/508 411/650/411 489/652/489
f 509/690/509 510/691/510 407/565/407
f 407/565/407 510/691/510 408/567/408
f 510/691/510 511/692/511 408/567/408
f 408/567/408 511/692/511 512/693/512
f 511/694/511 513/695/513 512/696/512
f 512/696/512 513/695/513 514/697/514
f 513/695/513 515/698/515 514/697/514
f 514/697/514 515/698/515 516/699/516
f 515/698/515 517/700/517 516/699/516
f 516/699/516 517/700/517 518/701/518
f 517/700/517 519/702/519 518/701/518
f 518/701/518 519/702/519 520/703/520
f 519/702/519 521/704/521 520/703/520
f 520/703/520 521/704/521 522/705/522
f 521/704/521 523/706/523 522/705/522
f 522/705/522 523/706/523 524/707/524
f 523/706/523 525/708/525 524/707/524
f 524/707/524 525/708/525 526/709/526
f 525/708/525 527/710/527 526/709/526
f 526/709/526 527/710/527 528/711/528
f 527/710/527 529/712/529 528/711/528
f 528/711/528 529/712/529 530/713/530
f 529/712/529 531/714/531 530/713/530
f 530/713/530 531/714/531 532/715/532
f 531/714/531 533/716/533 532/715/532
f 532/715/532 533/716/533 534/717/534
f 533/716/533 535/718/535 534/717/534
f 534/717/534 535/718/535 536/719/536
f 535/718/535 537/720/537 536/719/536
f 536/719/536 537/720/537 538/721/538
f 537/720/537 539/722/539 538/721/538
f 538/721/538 539/722/539 540/723/540
f 539/722/539 541/724/541 540/723/540
f 540/723/540 541/724/541 542/725/542
f 541/724/541 543/726/543 542/725/542
f 542/725/542 543/726/543 544/727/544
f 543/726/543 545/728/545 544/727/544
f 544/727/544 545/728/545 546/729/546
f 545/728/545 509/690/509 546/729/546
f 546/729/546 509/690/509 407/565/407
f 409/568/409 547/730/547 410/569/410
f 410/569/410 547/730/547 548/731/548
f 547/732/547 450/611/450 548/733/548
f 548/733/548 450/611/450 449/610/449
f 410/569/410 548/731/548 413/572/413
f 413/572/413 548/731/548 549/734/549
f 548/733/548 449/610/449 549/735/549
f 549/735/549 449/610/449 452/613/452
f 413/572/413 549/734/549 415/574/415
f 415/574/415 549/734/549 550/736/550
f 549/735/549 452/613/452 550/737/550
f 550/737/550 452/613/452 453/614/453
f 415/574/415 550/736/550 417/576/417
f 417/576/417 550/736/550 551/738/551
f 550/737/550 453/614/453 551/739/551
f 551/739/551 453/614/453 454/615/454
f 417/576/417 551/738/551 419/578/419
f 419/578/419 551/738/551 552/740/552
f 551/739/551 454/615/454 552/741/552
f 552/741/552 454/615/454 455/616/455
f 419/578/419 552/740/552 421/580/421
f 421/580/421 552/740/552 553/742/553
f 552/741/552 455/616/455 553/743/553
f 553/743/553 455/616/455 456/617/456
f 421/582/421 553/744/553 423/583/423
f 423/583/423 553/744/553 554/745/554
f 553/743/553 456/617/456 554/746/554
f 554/746/554 456/617/456 457/618/457
f 423/583/423 554/745/554 425/586/425
f 425/586/425 554/745/554 555/747/555
f 554/746/554 457/618/457 555/748/555
f 555/748/555 457/618/457 458/619/458
f 425/586/425 555/747/555 427/588/427
f 427/588/427 555/747/555 556/749/556
f 555/748/555 458/619/458 556/750/556
f 556/750/556 458/619/458 459/620/459
f 427/588/427 556/749/556 429/590/429
f 429/590/429 556/749/556 557/751/557
f 556/750/556 459/620/459 557/752/557
f 557/752/557 459/620/459 460/621/460
f 429/590/429 557/751/557 431/592/431
f 431/592/431 557/751/557 558/753/558
f 557/752/557 460/621/460 558/754/558
f 558/754/558 460/621/460 461/622/461
f 431/592/431 558/753/558 433/594/433
f 433/594/433 558/753/558 559/755/559
f 558/754/558 461/622/461 559/756/559
f 559/756/559 461/622/461 462/623/462
f 433/594/433 559/755/559 435/596/435
f 435/596/435 559/755/559 560/757/560
f 559/756/559 462/623/462 560/758/560
f 560/758/560 462/623/462 463/624/463
f 435/596/435 560/757/560 437/598/437
f 437/598/437 560/757/560 561/759/561
f 560/758/560 463/624/463 561/760/561
f 561/760/561 463/624/463 464/625/464
f 437/598/437 561/759/561 439/600/439
f 439/600/439 561/759/561 562/761/562
f 561/760/561 464/625/464 562/762/562
f 562/762/562 464/625/464 465/626/465
f 439/600/439 562/761/562 441/602/441
f 441/602/441 562/761/562 563/763/563
f 562/762/562 465/626/465 563/764/563
f 563/764/563 465/626/465 466/627/466
f 441/602/441 563/763/563 443/604/443
f 443/604/443 563/763/563 564/765/564
f 563/764/563 466/627/466 564/766/564
f 564/766/564 466/627/466 467/628/467
f 443/604/443 564/765/564 445/606/445
f 445/606/445 564/765/564 565/767/565
f 564/766/564 467/628/467 565/768/565
f 565/768/565 467/628/467 468/629/468
f 445/606/445 565/767/565 447/608/447
f 447/608/447 565/767/565 566/769/566
f 565/768/565 468/629/468 566/770/566
f 566/770/566 468/629/468 469/630/469
f 450/611/450 547/732/547 469/630/469
f 469/630/469 547/732/547 566/770/566
f 547/730/547 409/568/409 566/769/566
f 566/769/566 409/568/409 447/608/447
f 489/652/489 567/771/567 508/689/508
f 508/689/508 567/771/567 568/772/568
f 567/773/567 509/690/509 568/774/568
f 568/774/568 509/690/509 545/728/545
f 509/690/509 567/773/567 510/691/510
f 510/691/510 567/773/567 569/775/569
f 567/771/567 489/652/489 569/776/569
f 569/776/569 489/652/489 490/653/490
f 510/691/510 569/775/569 511/692/511
f 511/692/511 569/775/569 570/777/570
f 569/776/569 490/653/490 570/778/570
f 570/778/570 490/653/490 491/655/491
f 511/694/511 570/779/570 513/695/513
f 513/695/513 570/779/570 571/780/571
f 570/778/570 491/655/491 571/781/571
f 571/781/571 491/655/491 492/657/492
f 513/695/513 571/780/571 515/698/515
f 515/698/515 571/780/571 572/782/572
f 571/781/571 492/657/492 572/783/572
f 572/783/572 492/657/492 493/659/493
f 515/698/515 572/782/572 517/700/517
f 517/700/517 572/782/572 573/784/573
f 572/783/572 493/659/493 573/785/573
f 573/785/573 493/659/493 494/661/494
f 517/700/517 573/784/573 519/702/519
f 519/702/519 573/784/573 574/786/574
f 573/785/573 494/661/494 574/787/574
f 574/787/574 494/661/494 495/663/495
f 519/702/519 574/786/574 521/704/521
f 521/704/521 574/786/574 575/788/575
f 574/787/574 495/663/495 575/789/575
f 575/789/575 495/663/495 496/665/496
f 521/704/521 575/788/575 523/706/523
f 523/706/523 575/788/575 576/790/576
f 575/789/575 496/665/496 576/791/576
f 576/791/576 496/665/496 497/667/497
f 523/706/523 576/790/576 525/708/525
f 525/708/525 576/790/576 577/792/577
f 576/791/576 497/667/497 577/793/577
f 577/793/577 497/667/497 498/669/498
f 525/708/525 577/792/577 527/710/527
f 527/710/527 577/792/577 578/794/578
f 577/793/577 498/669/498 578/795/578
f 578/795/578 498/669/498 499/671/499
f 527/710/527 578/794/578 529/712/529
f 529/712/529 578/794/578 579/796/579
f 578/795/578 499/671/499 579/797/579
f 579/797/579 499/671/499 500/673/500
f 529/712/529 579/796/579 531/714/531
f 531/714/531 579/796/579 580/798/580
f 579/797/579 500/673/500 580/799/580
f 580/799/580 500/673/500 501/675/501
f 531/714/531 580/798/580 533/716/533
f 533/716/533 580/798/580 581/800/581
f 580/799/580 501/675/501 581/801/581
f 581/801/581 501/675/501 502/677/502
f 533/716/533 581/800/581 535/718/535
f 535/718/535 581/800/581 582/802/582
f 581/801/581 502/677/502 582/803/582
f 582/803/582 502/677/502 503/679/503
f 535/718/535 582/802/582 537/720/537
f 537/720/537 582/802/582 583/804/583
f 582/803/582 503/679/503 583/805/583
f 583/805/583 503/679/503 504/681/504
f 537/720/537 583/804/583 539/722/539
f 539/722/539 583/804/583 584/806/584
f 583/805/583 504/681/504 584/807/584
f 584/807/584 504/681/504 505/683/505
f 539/722/539 584/806/584 541/724/541
f 541/724/541 584/806/584 585/808/585
f 584/807/584 505/683/505 585/809/585
f 585/809/585 505/683/505 506/685/506
f 541/724/541 585/808/585 543/726/543
f 543/726/543 585/808/585 586/810/586
f 585/809/585 506/685/506 586/811/586
f 586/811/586 506/685/506 507/687/507
f 543/726/543 586/810/586 545/728/545
f 545/728/545 586/810/586 568/774/568
f 586/811/586 507/687/507 568/772/568
f 568/772/568 507/687/507 508/689/508
f 405/562/405 406/563/406 471/632/471
f 471/632/471 406/563/406 587/812/587
f 406/566/406 408/567/408 587/813/587
f 587/813/587 408/567/408 512/693/512
f 471/632/471 587/812/587 472/633/472
f 472/633/472 587/812/587 588/814/588
f 587/815/587 512/696/512 588/816/588
f 588/816/588 512/696/512 514/697/514
f 472/633/472 588/814/588 473/634/473
f 473/634/473 588/814/588 589/817/589
f 588/816/588 514/697/514 589/818/589
f 589/818/589 514/697/514 516/699/516
f 473/634/473 589/817/589 474/635/474
f 474/635/474 589/817/589 590/819/590
f 589/818/589 516/699/516 590/820/590
f 590/820/590 516/699/516 518/701/518
f 474/635/474 590/819/590 475/636/475
f 475/636/475 590/819/590 591/821/591
f 590/820/590 518/701/518 591/822/591
f 591/822/591 518/701/518 520/703/520
f 475/636/475 591/821/591 476/637/476
f 476/637/476 591/821/591 592/823/592
f 591/822/591 520/703/520 592/824/592
f 592/824/592 520/703/520 522/705/522
f 476/637/476 592/823/592 477/638/477
f 477/638/477 592/823/592 593/825/593
f 592/824/592 522/705/522 593/826/593
f 593/826/593 522/705/522 524/707/524
f 477/638/477 593/825/593 478/639/478
f 478/639/478 593/825/593 594/827/594
f 593/826/593 524/707/524 594/828/594
f 594/828/594 524/707/524 526/709/526
f 478/639/478 594/827/594 479/640/479
f 479/640/479 594/827/594 595/829/595
f 594/828/594 526/709/526 595/830/595
f 595/830/595 526/709/526 528/711/528
f 479/640/479 595/829/595 480/641/480
f 480/641/480 595/829/595 596/831/596
f 595/830/595 528/711/528 596/832/596
f 596/832/596 528/711/528 530/713/530
f 480/641/480 596/831/596 481/642/481
f 481/642/481 596/831/596 597/833/597
f 596/832/596 530/713/530 597/834/597
f 597/834/597 530/713/530 532/715/532
f 481/642/481 597/833/597 482/643/482
f 482/643/482 597/833/597 598/835/598
f 597/834/597 532/715/532 598/836/598
f 598/836/598 532/715/532 534/717/534
f 482/643/482 598/835/598 483/644/483
f 483/644/483 598/835/598 599/837/599
f 598/836/598 534/717/534 599/838/599
f 599/838/599 534/717/534 536/719/536
f 483/644/483 599/837/599 484/645/484
f 484/645/484 599/837/599 600/839/600
f 599/838/599 536/719/536 600/840/600
f 600/840/600 536/719/536 538/721/538
f 484/645/484 600/839/600 485/646/485
f 485/646/485 600/839/600 601/841/601
f 600/840/600 538/721/538 601/842/601
f 601/842/601 538/721/538 540/723/540
f 485/646/485 601/841/601 486/647/486
f 486/647/486 601/841/601 602/843/602
f 601/842/601 540/723/540 602/844/602
f 602/844/602 540/723/540 542/725/542
f 486/647/486 602/843/602 487/648/487
f 487/648/487 602/843/602 603/845/603
f 602/844/602 542/725/542 603/846/603
f 603/846/603 542/725/542 544/727/544
f 487/648/487 603/845/603 488/649/488
f 488/649/488 603/845/603 604/847/604
f 603/846/603 544/727/544 604/848/604
f 604/848/604 544/727/544 546/729/546
f 407/565/407 404/564/404 546/729/546
f 546/729/546 404/564/404 604/848/604
f 404/561/404 403/560/403 604/847/604
f 604/847/604 403/560/403 488/649/488
s off
