# Apple ModelIO OBJ File: StoreFloorTile
mtllib StoreFloorTile.mtl
g StoreFloorTile_FloorTile22SG
v -3.19546 -1.09595 3.09995
v -3.3008 -1.05232 3.09995
v -3.19546 -1.09595 -0.284501
v -3.3008 -1.05232 -0.284501
v -3.34443 -0.946981 3.09995
v -3.34443 -0.946981 -0.284501
v -3.19546 -0.946981 3.24892
v -3.19546 -1.05232 3.20529
v 0.188987 -0.946981 3.24892
v 0.188987 -1.05232 3.20529
v 0.188987 -1.09595 3.09995
v -3.3008 -0.946981 3.20529
v -3.34443 -0.648974 3.09995
v -3.3008 -0.648974 3.20529
v -3.19546 -0.648974 3.24892
v 0.337965 -0.946981 3.09995
v 0.29433 -1.05232 3.09995
v 0.337965 -0.946981 -0.284501
v 0.29433 -1.05232 -0.284501
v 0.188987 -1.09595 -0.284501
v 0.29433 -0.946981 3.20529
v 0.188987 -0.648974 3.24892
v 0.29433 -0.648974 3.20529
v 0.337965 -0.648974 3.09995
v -3.3008 -0.543633 3.09995
v -3.34443 -0.648974 -0.284501
v -3.3008 -0.543633 -0.284501
v -3.19546 -0.5 3.09995
v -3.19546 -0.5 -0.284501
v -3.19546 -0.543633 3.20529
v 0.188987 -0.5 3.09995
v 0.188987 -0.543633 3.20529
v 0.29433 -0.543633 3.09995
v 0.188987 -0.5 -0.284501
v 0.29433 -0.543633 -0.284501
v 0.337965 -0.648974 -0.284501
v -3.3008 -0.648974 -0.389842
v -3.3008 -0.946981 -0.389842
v -3.19546 -0.648974 -0.433475
v -3.19546 -0.946981 -0.433475
v -3.19546 -0.543633 -0.389842
v 0.188987 -0.648974 -0.433475
v 0.188987 -0.543633 -0.389842
v 0.29433 -0.648974 -0.389842
v 0.188987 -0.946981 -0.433475
v 0.29433 -0.946981 -0.389842
v -3.19546 -1.05232 -0.389842
v 0.188987 -1.05232 -0.389842
v -3.28144 -1.03296 3.18593
v 0.274966 -1.03296 3.18593
v -3.28144 -0.562994 3.18593
v 0.274966 -0.562994 3.18593
v -3.28144 -0.562994 -0.370481
v 0.274966 -0.562994 -0.370481
v -3.28144 -1.03296 -0.370481
v 0.274966 -1.03296 -0.370481
vn -0.012222 -0.999851 0.012222
vn -0.702817 -0.711318 0.008689
vn -0.012222 -0.999851 -0.012222
vn -0.702817 -0.711318 -0.008689
vn -0.994216 -0.106779 0.011508
vn -0.994216 -0.106779 -0.011508
vn -0.011508 -0.106778 0.994216
vn -0.008689 -0.711316 0.702819
vn 0.011508 -0.106778 0.994216
vn 0.008689 -0.711316 0.702819
vn 0.012222 -0.999851 0.012222
vn -0.704749 -0.081565 0.704753
vn -0.994216 0.106779 0.011508
vn -0.704749 0.081565 0.704753
vn -0.011508 0.106778 0.994216
vn 0.994216 -0.106779 0.011508
vn 0.702808 -0.711326 0.008689
vn 0.994216 -0.106779 -0.011508
vn 0.702808 -0.711326 -0.008689
vn 0.012222 -0.999851 -0.012222
vn 0.70474 -0.08157 0.704761
vn 0.011508 0.106778 0.994216
vn 0.70474 0.08157 0.704761
vn 0.994216 0.106779 0.011508
vn -0.702817 0.711317 0.008689
vn -0.994216 0.106779 -0.011508
vn -0.702817 0.711317 -0.008689
vn -0.012222 0.999851 0.012222
vn -0.012222 0.999851 -0.012222
vn -0.008689 0.711316 0.702819
vn 0.012222 0.999851 0.012222
vn 0.008689 0.711316 0.702819
vn 0.702809 0.711326 0.008689
vn 0.012222 0.999851 -0.012222
vn 0.702809 0.711326 -0.008689
vn 0.994216 0.106779 -0.011508
vn -0.704749 0.081565 -0.704752
vn -0.704749 -0.081565 -0.704752
vn -0.011508 0.106777 -0.994216
vn -0.011508 -0.106777 -0.994216
vn -0.008689 0.711316 -0.702819
vn 0.011508 0.106777 -0.994216
vn 0.008689 0.711316 -0.702819
vn 0.704741 0.08157 -0.70476
vn 0.011508 -0.106777 -0.994216
vn 0.704741 -0.08157 -0.70476
vn -0.008689 -0.711316 -0.702819
vn 0.008689 -0.711316 -0.702819
vn -0.623656 -0.471281 0.623656
vn 0.62364 -0.471294 0.623662
vn -0.623656 0.471281 0.623656
vn 0.62364 0.471295 0.623662
vn -0.623657 0.471282 -0.623655
vn 0.62364 0.471296 -0.623661
vn -0.623657 -0.471282 -0.623655
vn 0.623641 -0.471295 -0.623661
vt 0.924563 0.346172
vt 0.933799 0.355825
vt 0.636429 0.615577
vt 0.64547 0.62545
vt 0.932653 0.948144
vt 0.922302 0.957768
vt 0.645938 0.641881
vt 0.635674 0.651676
vt 0.944415 0.327611
vt 0.934745 0.336646
vt 0.674046 0.039984
vt 0.664421 0.049072
vt 0.654792 0.058131
vt 0.932341 0.967853
vt 0.895349 0.982998
vt 0.904743 0.993683
vt 0.953214 0.338487
vt 0.979475 0.313398
vt 0.969809 0.303821
vt 0.043933 0.020576
vt 0.054206 0.010864
vt 0.331031 0.326409
vt 0.34147 0.316795
vt 0.645767 0.048311
vt 0.357858 0.318348
vt 0.367117 0.328017
vt 0.663818 0.030574
vt 0.699354 0.016118
vt 0.69039 0.0059
vt 0.034513 0.009903
vt 0.00695 0.035799
vt 0.017013 0.045859
vt 0.885065 0.992692
vt 0.608799 0.676836
vt 0.59835 0.686433
vt 0.294204 0.954292
vt 0.285175 0.944561
vt 0.581958 0.68483
vt 0.572716 0.675166
vt 0.275531 0.953678
vt 0.015848 0.656981
vt 0.006119 0.666007
vt 0.979538 0.294736
vt 0.709021 0.006969
vt 0.006729 0.647334
vt 0.30349 0.387699
vt 0.294453 0.377843
vt 0.006675 0.055501
vt 0.293933 0.361424
vt 0.304185 0.351612
vt 0.600049 0.666863
vt 0.626311 0.64228
vt 0.591859 0.657048
vt 0.617065 0.633471
vt 0.582315 0.666114
vt 0.322821 0.369782
vt 0.313151 0.378712
vt 0.313566 0.360981
vt 0.347994 0.34617
vt 0.339802 0.33637
vt 0.626751 0.624552
vt 0.357528 0.337087
vt 0.939323 0.958117
vt 0.941972 0.345328
vt 0.656473 0.041272
vt 0.044689 0.003566
vt 0.284668 0.960368
vt 0.894554 1
vt 0.985947 0.304078
vt 0 0.045564
vt 4e-05 0.656452
vt 0.700089 0
vt 0.59053 0.674772
vt 0.305058 0.369959
vt 0.634834 0.633315
vt 0.349308 0.328446
usemtl FloorTile22SG
f 1/1/1 2/2/2 3/3/3
f 3/3/3 2/2/2 4/4/4
f 2/5/2 5/6/5 4/7/4
f 4/7/4 5/6/5 6/8/6
f 7/9/7 8/10/8 9/11/9
f 9/11/9 8/10/8 10/12/10
f 8/10/8 1/1/1 10/12/10
f 10/12/10 1/1/1 11/13/11
f 5/6/5 12/14/12 13/15/13
f 13/15/13 12/14/12 14/16/14
f 12/17/12 7/9/7 14/18/14
f 14/18/14 7/9/7 15/19/15
f 16/20/16 17/21/17 18/22/18
f 18/22/18 17/21/17 19/23/19
f 17/24/17 11/13/11 19/25/19
f 19/25/19 11/13/11 20/26/20
f 9/11/9 21/27/21 22/28/22
f 22/28/22 21/27/21 23/29/23
f 21/30/21 16/20/16 23/31/23
f 23/31/23 16/20/16 24/32/24
f 13/15/13 25/33/25 26/34/26
f 26/34/26 25/33/25 27/35/27
f 25/36/25 28/37/28 27/38/27
f 27/38/27 28/37/28 29/39/29
f 28/37/28 30/40/30 31/41/31
f 31/41/31 30/40/30 32/42/32
f 30/43/30 15/19/15 32/44/32
f 32/44/32 15/19/15 22/28/22
f 31/41/31 33/45/33 34/46/34
f 34/46/34 33/45/33 35/47/35
f 33/48/33 24/32/24 35/49/35
f 35/49/35 24/32/24 36/50/36
f 26/34/26 37/51/37 6/8/6
f 6/8/6 37/51/37 38/52/38
f 37/51/37 39/53/39 38/52/38
f 38/52/38 39/53/39 40/54/40
f 39/53/39 41/55/41 42/56/42
f 42/56/42 41/55/41 43/57/43
f 41/55/41 29/39/29 43/57/43
f 43/57/43 29/39/29 34/46/34
f 42/56/42 44/58/44 45/59/45
f 45/59/45 44/58/44 46/60/46
f 44/58/44 36/50/36 46/60/46
f 46/60/46 36/50/36 18/22/18
f 3/3/3 47/61/47 20/26/20
f 20/26/20 47/61/47 48/62/48
f 47/61/47 40/54/40 48/62/48
f 48/62/48 40/54/40 45/59/45
f 7/9/7 9/11/9 15/19/15
f 15/19/15 9/11/9 22/28/22
f 28/37/28 31/41/31 29/39/29
f 29/39/29 31/41/31 34/46/34
f 39/53/39 42/56/42 40/54/40
f 40/54/40 42/56/42 45/59/45
f 3/3/3 20/26/20 1/1/1
f 1/1/1 20/26/20 11/13/11
f 16/20/16 18/22/18 24/32/24
f 24/32/24 18/22/18 36/50/36
f 6/8/6 5/6/5 26/34/26
f 26/34/26 5/6/5 13/15/13
f 12/14/12 5/6/5 49/63/49
f 49/63/49 5/6/5 2/5/2
f 1/1/1 8/10/8 2/2/2
f 2/2/2 8/10/8 49/64/49
f 8/10/8 7/9/7 49/64/49
f 49/64/49 7/9/7 12/17/12
f 11/13/11 17/24/17 10/12/10
f 10/12/10 17/24/17 50/65/50
f 17/21/17 16/20/16 50/66/50
f 50/66/50 16/20/16 21/30/21
f 21/27/21 9/11/9 50/65/50
f 50/65/50 9/11/9 10/12/10
f 28/37/28 25/36/25 30/40/30
f 30/40/30 25/36/25 51/67/51
f 25/33/25 13/15/13 51/68/51
f 51/68/51 13/15/13 14/16/14
f 14/18/14 15/19/15 51/69/51
f 51/69/51 15/19/15 30/43/30
f 23/31/23 24/32/24 52/70/52
f 52/70/52 24/32/24 33/48/33
f 31/41/31 32/42/32 33/45/33
f 33/45/33 32/42/32 52/71/52
f 32/44/32 22/28/22 52/72/52
f 52/72/52 22/28/22 23/29/23
f 41/55/41 39/53/39 53/73/53
f 53/73/53 39/53/39 37/51/37
f 37/51/37 26/34/26 53/73/53
f 53/73/53 26/34/26 27/35/27
f 29/39/29 41/55/41 27/38/27
f 27/38/27 41/55/41 53/73/53
f 35/49/35 36/50/36 54/74/54
f 54/74/54 36/50/36 44/58/44
f 44/58/44 42/56/42 54/74/54
f 54/74/54 42/56/42 43/57/43
f 34/46/34 35/47/35 43/57/43
f 43/57/43 35/47/35 54/74/54
f 3/3/3 4/4/4 47/61/47
f 47/61/47 4/4/4 55/75/55
f 4/7/4 6/8/6 55/75/55
f 55/75/55 6/8/6 38/52/38
f 38/52/38 40/54/40 55/75/55
f 55/75/55 40/54/40 47/61/47
f 46/60/46 18/22/18 56/76/56
f 56/76/56 18/22/18 19/23/19
f 20/26/20 48/62/48 19/25/19
f 19/25/19 48/62/48 56/76/56
f 48/62/48 45/59/45 56/76/56
f 56/76/56 45/59/45 46/60/46
s off
g StoreFloorTile_FloorTile12SG
v 0.48694 -1.09595 3.09995
v 0.381599 -1.05232 3.09995
v 0.48694 -1.09595 -0.284501
v 0.381599 -1.05232 -0.284501
v 0.337965 -0.946981 3.09995
v 0.337965 -0.946981 -0.284501
v 0.48694 -0.946981 3.24892
v 0.48694 -1.05232 3.20529
v 3.87139 -0.946981 3.24892
v 3.87139 -1.05232 3.20529
v 3.87139 -1.09595 3.09995
v 0.381599 -0.946981 3.20529
v 0.337965 -0.648974 3.09995
v 0.381599 -0.648974 3.20529
v 0.48694 -0.648974 3.24892
v 4.02036 -0.946981 3.09995
v 3.97673 -1.05232 3.09995
v 4.02036 -0.946981 -0.284501
v 3.97673 -1.05232 -0.284501
v 3.87139 -1.09595 -0.284501
v 3.97673 -0.946981 3.20529
v 3.87139 -0.648974 3.24892
v 3.97673 -0.648974 3.20529
v 4.02036 -0.648974 3.09995
v 0.381599 -0.543633 3.09995
v 0.337965 -0.648974 -0.284501
v 0.381599 -0.543633 -0.284501
v 0.48694 -0.5 3.09995
v 0.48694 -0.5 -0.284501
v 0.48694 -0.543633 3.20529
v 3.87139 -0.5 3.09995
v 3.87139 -0.543633 3.20529
v 3.97673 -0.543633 3.09995
v 3.87139 -0.5 -0.284501
v 3.97673 -0.543633 -0.284501
v 4.02036 -0.648974 -0.284501
v 0.381599 -0.648974 -0.389842
v 0.381599 -0.946981 -0.389842
v 0.48694 -0.648974 -0.433475
v 0.48694 -0.946981 -0.433475
v 0.48694 -0.543633 -0.389842
v 3.87139 -0.648974 -0.433475
v 3.87139 -0.543633 -0.389842
v 3.97673 -0.648974 -0.389842
v 3.87139 -0.946981 -0.433475
v 3.97673 -0.946981 -0.389842
v 0.48694 -1.05232 -0.389842
v 3.87139 -1.05232 -0.389842
v 0.400956 -1.03296 3.18593
v 3.95737 -1.03296 3.18593
v 0.400956 -0.562994 3.18593
v 3.95737 -0.562994 3.18593
v 0.400956 -0.562994 -0.370481
v 3.95737 -0.562994 -0.370481
v 0.400956 -1.03296 -0.370481
v 3.95737 -1.03296 -0.370481
vn -0.012222 -0.999851 0.012222
vn -0.702817 -0.711318 0.008689
vn -0.012222 -0.999851 -0.012222
vn -0.702817 -0.711318 -0.008689
vn -0.994216 -0.106779 0.011508
vn -0.994216 -0.106779 -0.011508
vn -0.011508 -0.106778 0.994216
vn -0.008689 -0.711316 0.702819
vn 0.011508 -0.106778 0.994216
vn 0.008689 -0.711316 0.702819
vn 0.012222 -0.999851 0.012222
vn -0.704749 -0.081565 0.704753
vn -0.994216 0.106779 0.011508
vn -0.704749 0.081565 0.704753
vn -0.011508 0.106778 0.994216
vn 0.994216 -0.106779 0.011508
vn 0.702808 -0.711326 0.008689
vn 0.994216 -0.106779 -0.011508
vn 0.702808 -0.711326 -0.008689
vn 0.012222 -0.999851 -0.012222
vn 0.70474 -0.08157 0.704761
vn 0.011508 0.106778 0.994216
vn 0.70474 0.08157 0.704761
vn 0.994216 0.106779 0.011508
vn -0.702817 0.711317 0.008689
vn -0.994216 0.106779 -0.011508
vn -0.702817 0.711317 -0.008689
vn -0.012222 0.999851 0.012222
vn -0.012222 0.999851 -0.012222
vn -0.008689 0.711316 0.702819
vn 0.012222 0.999851 0.012222
vn 0.008689 0.711316 0.702819
vn 0.702809 0.711326 0.008689
vn 0.012222 0.999851 -0.012222
vn 0.702809 0.711326 -0.008689
vn 0.994216 0.106779 -0.011508
vn -0.704749 0.081565 -0.704752
vn -0.704749 -0.081565 -0.704752
vn -0.011508 0.106777 -0.994216
vn -0.011508 -0.106777 -0.994216
vn -0.008689 0.711316 -0.702819
vn 0.011508 0.106777 -0.994216
vn 0.008689 0.711316 -0.702819
vn 0.704741 0.08157 -0.70476
vn 0.011508 -0.106777 -0.994216
vn 0.704741 -0.08157 -0.70476
vn -0.008689 -0.711316 -0.702819
vn 0.008689 -0.711316 -0.702819
vn -0.623656 -0.471281 0.623656
vn 0.62364 -0.471294 0.623662
vn -0.623656 0.471281 0.623656
vn 0.62364 0.471295 0.623662
vn -0.623657 0.471282 -0.623655
vn 0.62364 0.471296 -0.623661
vn -0.623657 -0.471282 -0.623655
vn 0.623641 -0.471295 -0.623661
vt 0.924563 0.346172
vt 0.933799 0.355825
vt 0.636429 0.615577
vt 0.64547 0.62545
vt 0.932653 0.948144
vt 0.922302 0.957768
vt 0.645938 0.641881
vt 0.635674 0.651676
vt 0.944415 0.327611
vt 0.934745 0.336646
vt 0.674046 0.039984
vt 0.664421 0.049072
vt 0.654792 0.058131
vt 0.932341 0.967853
vt 0.895349 0.982998
vt 0.904743 0.993683
vt 0.953214 0.338487
vt 0.979475 0.313398
vt 0.969809 0.303821
vt 0.043933 0.020576
vt 0.054206 0.010864
vt 0.331031 0.326409
vt 0.34147 0.316795
vt 0.645767 0.048311
vt 0.357858 0.318348
vt 0.367117 0.328017
vt 0.663818 0.030574
vt 0.699354 0.016118
vt 0.69039 0.0059
vt 0.034513 0.009903
vt 0.00695 0.035799
vt 0.017013 0.045859
vt 0.885065 0.992692
vt 0.608799 0.676836
vt 0.59835 0.686433
vt 0.294204 0.954292
vt 0.285175 0.944561
vt 0.581958 0.68483
vt 0.572716 0.675166
vt 0.275531 0.953678
vt 0.015848 0.656981
vt 0.006119 0.666007
vt 0.979538 0.294736
vt 0.709021 0.006969
vt 0.006729 0.647334
vt 0.30349 0.387699
vt 0.294453 0.377843
vt 0.006675 0.055501
vt 0.293933 0.361424
vt 0.304185 0.351612
vt 0.600049 0.666863
vt 0.626311 0.64228
vt 0.591859 0.657048
vt 0.617065 0.633471
vt 0.582315 0.666114
vt 0.322821 0.369782
vt 0.313151 0.378712
vt 0.313566 0.360981
vt 0.347994 0.34617
vt 0.339802 0.33637
vt 0.626751 0.624552
vt 0.357528 0.337087
vt 0.939323 0.958117
vt 0.941972 0.345328
vt 0.656473 0.041272
vt 0.044689 0.003566
vt 0.284668 0.960368
vt 0.894554 1
vt 0.985947 0.304078
vt 0 0.045564
vt 4e-05 0.656452
vt 0.700089 0
vt 0.59053 0.674772
vt 0.305058 0.369959
vt 0.634834 0.633315
vt 0.349308 0.328446
usemtl FloorTile12SG
f 57/77/57 58/78/58 59/79/59
f 59/79/59 58/78/58 60/80/60
f 58/81/58 61/82/61 60/83/60
f 60/83/60 61/82/61 62/84/62
f 63/85/63 64/86/64 65/87/65
f 65/87/65 64/86/64 66/88/66
f 64/86/64 57/77/57 66/88/66
f 66/88/66 57/77/57 67/89/67
f 61/82/61 68/90/68 69/91/69
f 69/91/69 68/90/68 70/92/70
f 68/93/68 63/85/63 70/94/70
f 70/94/70 63/85/63 71/95/71
f 72/96/72 73/97/73 74/98/74
f 74/98/74 73/97/73 75/99/75
f 73/100/73 67/89/67 75/101/75
f 75/101/75 67/89/67 76/102/76
f 65/87/65 77/103/77 78/104/78
f 78/104/78 77/103/77 79/105/79
f 77/106/77 72/96/72 79/107/79
f 79/107/79 72/96/72 80/108/80
f 69/91/69 81/109/81 82/110/82
f 82/110/82 81/109/81 83/111/83
f 81/112/81 84/113/84 83/114/83
f 83/114/83 84/113/84 85/115/85
f 84/113/84 86/116/86 87/117/87
f 87/117/87 86/116/86 88/118/88
f 86/119/86 71/95/71 88/120/88
f 88/120/88 71/95/71 78/104/78
f 87/117/87 89/121/89 90/122/90
f 90/122/90 89/121/89 91/123/91
f 89/124/89 80/108/80 91/125/91
f 91/125/91 80/108/80 92/126/92
f 82/110/82 93/127/93 62/84/62
f 62/84/62 93/127/93 94/128/94
f 93/127/93 95/129/95 94/128/94
f 94/128/94 95/129/95 96/130/96
f 95/129/95 97/131/97 98/132/98
f 98/132/98 97/131/97 99/133/99
f 97/131/97 85/115/85 99/133/99
f 99/133/99 85/115/85 90/122/90
f 98/132/98 100/134/100 101/135/101
f 101/135/101 100/134/100 102/136/102
f 100/134/100 92/126/92 102/136/102
f 102/136/102 92/126/92 74/98/74
f 59/79/59 103/137/103 76/102/76
f 76/102/76 103/137/103 104/138/104
f 103/137/103 96/130/96 104/138/104
f 104/138/104 96/130/96 101/135/101
f 63/85/63 65/87/65 71/95/71
f 71/95/71 65/87/65 78/104/78
f 84/113/84 87/117/87 85/115/85
f 85/115/85 87/117/87 90/122/90
f 95/129/95 98/132/98 96/130/96
f 96/130/96 98/132/98 101/135/101
f 59/79/59 76/102/76 57/77/57
f 57/77/57 76/102/76 67/89/67
f 72/96/72 74/98/74 80/108/80
f 80/108/80 74/98/74 92/126/92
f 62/84/62 61/82/61 82/110/82
f 82/110/82 61/82/61 69/91/69
f 68/90/68 61/82/61 105/139/105
f 105/139/105 61/82/61 58/81/58
f 57/77/57 64/86/64 58/78/58
f 58/78/58 64/86/64 105/140/105
f 64/86/64 63/85/63 105/140/105
f 105/140/105 63/85/63 68/93/68
f 67/89/67 73/100/73 66/88/66
f 66/88/66 73/100/73 106/141/106
f 73/97/73 72/96/72 106/142/106
f 106/142/106 72/96/72 77/106/77
f 77/103/77 65/87/65 106/141/106
f 106/141/106 65/87/65 66/88/66
f 84/113/84 81/112/81 86/116/86
f 86/116/86 81/112/81 107/143/107
f 81/109/81 69/91/69 107/144/107
f 107/144/107 69/91/69 70/92/70
f 70/94/70 71/95/71 107/145/107
f 107/145/107 71/95/71 86/119/86
f 79/107/79 80/108/80 108/146/108
f 108/146/108 80/108/80 89/124/89
f 87/117/87 88/118/88 89/121/89
f 89/121/89 88/118/88 108/147/108
f 88/120/88 78/104/78 108/148/108
f 108/148/108 78/104/78 79/105/79
f 97/131/97 95/129/95 109/149/109
f 109/149/109 95/129/95 93/127/93
f 93/127/93 82/110/82 109/149/109
f 109/149/109 82/110/82 83/111/83
f 85/115/85 97/131/97 83/114/83
f 83/114/83 97/131/97 109/149/109
f 91/125/91 92/126/92 110/150/110
f 110/150/110 92/126/92 100/134/100
f 100/134/100 98/132/98 110/150/110
f 110/150/110 98/132/98 99/133/99
f 90/122/90 91/123/91 99/133/99
f 99/133/99 91/123/91 110/150/110
f 59/79/59 60/80/60 103/137/103
f 103/137/103 60/80/60 111/151/111
f 60/83/60 62/84/62 111/151/111
f 111/151/111 62/84/62 94/128/94
f 94/128/94 96/130/96 111/151/111
f 111/151/111 96/130/96 103/137/103
f 102/136/102 74/98/74 112/152/112
f 112/152/112 74/98/74 75/99/75
f 76/102/76 104/138/104 75/101/75
f 75/101/75 104/138/104 112/152/112
f 104/138/104 101/135/101 112/152/112
f 112/152/112 101/135/101 102/136/102
s off
g StoreFloorTile_FloorTile2SG
v 0.48694 -1.09595 6.78235
v 0.381599 -1.05232 6.78235
v 0.48694 -1.09595 3.3979
v 0.381599 -1.05232 3.3979
v 0.337965 -0.946981 6.78235
v 0.337965 -0.946981 3.3979
v 0.48694 -0.946981 6.93132
v 0.48694 -1.05232 6.88769
v 3.87139 -0.946981 6.93132
v 3.87139 -1.05232 6.88769
v 3.87139 -1.09595 6.78235
v 0.381599 -0.946981 6.88769
v 0.337965 -0.648974 6.78235
v 0.381599 -0.648974 6.88769
v 0.48694 -0.648974 6.93132
v 4.02036 -0.946981 6.78235
v 3.97673 -1.05232 6.78235
v 4.02036 -0.946981 3.3979
v 3.97673 -1.05232 3.3979
v 3.87139 -1.09595 3.3979
v 3.97673 -0.946981 6.88769
v 3.87139 -0.648974 6.93132
v 3.97673 -0.648974 6.88769
v 4.02036 -0.648974 6.78235
v 0.381599 -0.543633 6.78235
v 0.337965 -0.648974 3.3979
v 0.381599 -0.543633 3.3979
v 0.48694 -0.5 6.78235
v 0.48694 -0.5 3.3979
v 0.48694 -0.543633 6.88769
v 3.87139 -0.5 6.78235
v 3.87139 -0.543633 6.88769
v 3.97673 -0.543633 6.78235
v 3.87139 -0.5 3.3979
v 3.97673 -0.543633 3.3979
v 4.02036 -0.648974 3.3979
v 0.381599 -0.648974 3.29256
v 0.381599 -0.946981 3.29256
v 0.48694 -0.648974 3.24892
v 0.48694 -0.946981 3.24892
v 0.48694 -0.543633 3.29256
v 3.87139 -0.648974 3.24892
v 3.87139 -0.543633 3.29256
v 3.97673 -0.648974 3.29256
v 3.87139 -0.946981 3.24892
v 3.97673 -0.946981 3.29256
v 0.48694 -1.05232 3.29256
v 3.87139 -1.05232 3.29256
v 0.400956 -1.03296 6.86833
v 3.95737 -1.03296 6.86833
v 0.400956 -0.562994 6.86833
v 3.95737 -0.562994 6.86833
v 0.400956 -0.562994 3.31192
v 3.95737 -0.562994 3.31192
v 0.400956 -1.03296 3.31192
v 3.95737 -1.03296 3.31192
vn -0.012222 -0.999851 0.012222
vn -0.702817 -0.711318 0.008689
vn -0.012222 -0.999851 -0.012222
vn -0.702817 -0.711318 -0.008689
vn -0.994216 -0.106779 0.011508
vn -0.994216 -0.106779 -0.011508
vn -0.011508 -0.106778 0.994216
vn -0.008689 -0.711316 0.702819
vn 0.011508 -0.106778 0.994216
vn 0.008689 -0.711316 0.702819
vn 0.012222 -0.999851 0.012222
vn -0.704749 -0.081565 0.704753
vn -0.994216 0.106779 0.011508
vn -0.704749 0.081565 0.704753
vn -0.011508 0.106778 0.994216
vn 0.994216 -0.106779 0.011508
vn 0.702808 -0.711326 0.008689
vn 0.994216 -0.106779 -0.011508
vn 0.702808 -0.711326 -0.008689
vn 0.012222 -0.999851 -0.012222
vn 0.70474 -0.08157 0.704761
vn 0.011508 0.106778 0.994216
vn 0.70474 0.08157 0.704761
vn 0.994216 0.106779 0.011508
vn -0.702817 0.711317 0.008689
vn -0.994216 0.106779 -0.011508
vn -0.702817 0.711317 -0.008689
vn -0.012222 0.999851 0.012222
vn -0.012222 0.999851 -0.012222
vn -0.008689 0.711316 0.702819
vn 0.012222 0.999851 0.012222
vn 0.008689 0.711316 0.702819
vn 0.702809 0.711326 0.008689
vn 0.012222 0.999851 -0.012222
vn 0.702809 0.711326 -0.008689
vn 0.994216 0.106779 -0.011508
vn -0.704749 0.081565 -0.704752
vn -0.704749 -0.081565 -0.704752
vn -0.011508 0.106777 -0.994216
vn -0.011508 -0.106777 -0.994216
vn -0.008689 0.711316 -0.702819
vn 0.011508 0.106777 -0.994216
vn 0.008689 0.711316 -0.702819
vn 0.704741 0.08157 -0.70476
vn 0.011508 -0.106777 -0.994216
vn 0.704741 -0.08157 -0.70476
vn -0.008689 -0.711316 -0.702819
vn 0.008689 -0.711316 -0.702819
vn -0.623656 -0.471281 0.623656
vn 0.62364 -0.471294 0.623662
vn -0.623656 0.471281 0.623656
vn 0.62364 0.471295 0.623662
vn -0.623657 0.471282 -0.623655
vn 0.62364 0.471296 -0.623661
vn -0.623657 -0.471282 -0.623655
vn 0.623641 -0.471295 -0.623661
vt 0.924563 0.346172
vt 0.933799 0.355825
vt 0.636429 0.615577
vt 0.64547 0.62545
vt 0.932653 0.948144
vt 0.922302 0.957768
vt 0.645938 0.641881
vt 0.635674 0.651676
vt 0.944415 0.327611
vt 0.934745 0.336646
vt 0.674046 0.039984
vt 0.664421 0.049072
vt 0.654792 0.058131
vt 0.932341 0.967853
vt 0.895349 0.982998
vt 0.904743 0.993683
vt 0.953214 0.338487
vt 0.979475 0.313398
vt 0.969809 0.303821
vt 0.043933 0.020576
vt 0.054206 0.010864
vt 0.331031 0.326409
vt 0.34147 0.316795
vt 0.645767 0.048311
vt 0.357858 0.318348
vt 0.367117 0.328017
vt 0.663818 0.030574
vt 0.699354 0.016118
vt 0.69039 0.0059
vt 0.034513 0.009903
vt 0.00695 0.035799
vt 0.017013 0.045859
vt 0.885065 0.992692
vt 0.608799 0.676836
vt 0.59835 0.686433
vt 0.294204 0.954292
vt 0.285175 0.944561
vt 0.581958 0.68483
vt 0.572716 0.675166
vt 0.275531 0.953678
vt 0.015848 0.656981
vt 0.006119 0.666007
vt 0.979538 0.294736
vt 0.709021 0.006969
vt 0.006729 0.647334
vt 0.30349 0.387699
vt 0.294453 0.377843
vt 0.006675 0.055501
vt 0.293933 0.361424
vt 0.304185 0.351612
vt 0.600049 0.666863
vt 0.626311 0.64228
vt 0.591859 0.657048
vt 0.617065 0.633471
vt 0.582315 0.666114
vt 0.322821 0.369782
vt 0.313151 0.378712
vt 0.313566 0.360981
vt 0.347994 0.34617
vt 0.339802 0.33637
vt 0.626751 0.624552
vt 0.357528 0.337087
vt 0.939323 0.958117
vt 0.941972 0.345328
vt 0.656473 0.041272
vt 0.044689 0.003566
vt 0.284668 0.960368
vt 0.894554 1
vt 0.985947 0.304078
vt 0 0.045564
vt 4e-05 0.656452
vt 0.700089 0
vt 0.59053 0.674772
vt 0.305058 0.369959
vt 0.634834 0.633315
vt 0.349308 0.328446
usemtl FloorTile2SG
f 113/153/113 114/154/114 115/155/115
f 115/155/115 114/154/114 116/156/116
f 114/157/114 117/158/117 116/159/116
f 116/159/116 117/158/117 118/160/118
f 119/161/119 120/162/120 121/163/121
f 121/163/121 120/162/120 122/164/122
f 120/162/120 113/153/113 122/164/122
f 122/164/122 113/153/113 123/165/123
f 117/158/117 124/166/124 125/167/125
f 125/167/125 124/166/124 126/168/126
f 124/169/124 119/161/119 126/170/126
f 126/170/126 119/161/119 127/171/127
f 128/172/128 129/173/129 130/174/130
f 130/174/130 129/173/129 131/175/131
f 129/176/129 123/165/123 131/177/131
f 131/177/131 123/165/123 132/178/132
f 121/163/121 133/179/133 134/180/134
f 134/180/134 133/179/133 135/181/135
f 133/182/133 128/172/128 135/183/135
f 135/183/135 128/172/128 136/184/136
f 125/167/125 137/185/137 138/186/138
f 138/186/138 137/185/137 139/187/139
f 137/188/137 140/189/140 139/190/139
f 139/190/139 140/189/140 141/191/141
f 140/189/140 142/192/142 143/193/143
f 143/193/143 142/192/142 144/194/144
f 142/195/142 127/171/127 144/196/144
f 144/196/144 127/171/127 134/180/134
f 143/193/143 145/197/145 146/198/146
f 146/198/146 145/197/145 147/199/147
f 145/200/145 136/184/136 147/201/147
f 147/201/147 136/184/136 148/202/148
f 138/186/138 149/203/149 118/160/118
f 118/160/118 149/203/149 150/204/150
f 149/203/149 151/205/151 150/204/150
f 150/204/150 151/205/151 152/206/152
f 151/205/151 153/207/153 154/208/154
f 154/208/154 153/207/153 155/209/155
f 153/207/153 141/191/141 155/209/155
f 155/209/155 141/191/141 146/198/146
f 154/208/154 156/210/156 157/211/157
f 157/211/157 156/210/156 158/212/158
f 156/210/156 148/202/148 158/212/158
f 158/212/158 148/202/148 130/174/130
f 115/155/115 159/213/159 132/178/132
f 132/178/132 159/213/159 160/214/160
f 159/213/159 152/206/152 160/214/160
f 160/214/160 152/206/152 157/211/157
f 119/161/119 121/163/121 127/171/127
f 127/171/127 121/163/121 134/180/134
f 140/189/140 143/193/143 141/191/141
f 141/191/141 143/193/143 146/198/146
f 151/205/151 154/208/154 152/206/152
f 152/206/152 154/208/154 157/211/157
f 115/155/115 132/178/132 113/153/113
f 113/153/113 132/178/132 123/165/123
f 128/172/128 130/174/130 136/184/136
f 136/184/136 130/174/130 148/202/148
f 118/160/118 117/158/117 138/186/138
f 138/186/138 117/158/117 125/167/125
f 124/166/124 117/158/117 161/215/161
f 161/215/161 117/158/117 114/157/114
f 113/153/113 120/162/120 114/154/114
f 114/154/114 120/162/120 161/216/161
f 120/162/120 119/161/119 161/216/161
f 161/216/161 119/161/119 124/169/124
f 123/165/123 129/176/129 122/164/122
f 122/164/122 129/176/129 162/217/162
f 129/173/129 128/172/128 162/218/162
f 162/218/162 128/172/128 133/182/133
f 133/179/133 121/163/121 162/217/162
f 162/217/162 121/163/121 122/164/122
f 140/189/140 137/188/137 142/192/142
f 142/192/142 137/188/137 163/219/163
f 137/185/137 125/167/125 163/220/163
f 163/220/163 125/167/125 126/168/126
f 126/170/126 127/171/127 163/221/163
f 163/221/163 127/171/127 142/195/142
f 135/183/135 136/184/136 164/222/164
f 164/222/164 136/184/136 145/200/145
f 143/193/143 144/194/144 145/197/145
f 145/197/145 144/194/144 164/223/164
f 144/196/144 134/180/134 164/224/164
f 164/224/164 134/180/134 135/181/135
f 153/207/153 151/205/151 165/225/165
f 165/225/165 151/205/151 149/203/149
f 149/203/149 138/186/138 165/225/165
f 165/225/165 138/186/138 139/187/139
f 141/191/141 153/207/153 139/190/139
f 139/190/139 153/207/153 165/225/165
f 147/201/147 148/202/148 166/226/166
f 166/226/166 148/202/148 156/210/156
f 156/210/156 154/208/154 166/226/166
f 166/226/166 154/208/154 155/209/155
f 146/198/146 147/199/147 155/209/155
f 155/209/155 147/199/147 166/226/166
f 115/155/115 116/156/116 159/213/159
f 159/213/159 116/156/116 167/227/167
f 116/159/116 118/160/118 167/227/167
f 167/227/167 118/160/118 150/204/150
f 150/204/150 152/206/152 167/227/167
f 167/227/167 152/206/152 159/213/159
f 158/212/158 130/174/130 168/228/168
f 168/228/168 130/174/130 131/175/131
f 132/178/132 160/214/160 131/177/131
f 131/177/131 160/214/160 168/228/168
f 160/214/160 157/211/157 168/228/168
f 168/228/168 157/211/157 158/212/158
s off
g StoreFloorTile_FloorTile1SG
v -3.19546 -1.09595 6.78235
v -3.3008 -1.05232 6.78235
v -3.19546 -1.09595 3.3979
v -3.3008 -1.05232 3.3979
v -3.34443 -0.946981 6.78235
v -3.34443 -0.946981 3.3979
v -3.19546 -0.946981 6.93132
v -3.19546 -1.05232 6.88769
v 0.188987 -0.946981 6.93132
v 0.188987 -1.05232 6.88769
v 0.188987 -1.09595 6.78235
v -3.3008 -0.946981 6.88769
v -3.34443 -0.648974 6.78235
v -3.3008 -0.648974 6.88769
v -3.19546 -0.648974 6.93132
v 0.337965 -0.946981 6.78235
v 0.29433 -1.05232 6.78235
v 0.337965 -0.946981 3.3979
v 0.29433 -1.05232 3.3979
v 0.188987 -1.09595 3.3979
v 0.29433 -0.946981 6.88769
v 0.188987 -0.648974 6.93132
v 0.29433 -0.648974 6.88769
v 0.337965 -0.648974 6.78235
v -3.3008 -0.543633 6.78235
v -3.34443 -0.648974 3.3979
v -3.3008 -0.543633 3.3979
v -3.19546 -0.5 6.78235
v -3.19546 -0.5 3.3979
v -3.19546 -0.543633 6.88769
v 0.188987 -0.5 6.78235
v 0.188987 -0.543633 6.88769
v 0.29433 -0.543633 6.78235
v 0.188987 -0.5 3.3979
v 0.29433 -0.543633 3.3979
v 0.337965 -0.648974 3.3979
v -3.3008 -0.648974 3.29256
v -3.3008 -0.946981 3.29256
v -3.19546 -0.648974 3.24892
v -3.19546 -0.946981 3.24892
v -3.19546 -0.543633 3.29256
v 0.188987 -0.648974 3.24892
v 0.188987 -0.543633 3.29256
v 0.29433 -0.648974 3.29256
v 0.188987 -0.946981 3.24892
v 0.29433 -0.946981 3.29256
v -3.19546 -1.05232 3.29256
v 0.188987 -1.05232 3.29256
v -3.28144 -1.03296 6.86833
v 0.274966 -1.03296 6.86833
v -3.28144 -0.562994 6.86833
v 0.274966 -0.562994 6.86833
v -3.28144 -0.562994 3.31192
v 0.274966 -0.562994 3.31192
v -3.28144 -1.03296 3.31192
v 0.274966 -1.03296 3.31192
vn -0.012222 -0.999851 0.012222
vn -0.702817 -0.711318 0.008689
vn -0.012222 -0.999851 -0.012222
vn -0.702817 -0.711318 -0.008689
vn -0.994216 -0.106779 0.011508
vn -0.994216 -0.106779 -0.011508
vn -0.011508 -0.106778 0.994216
vn -0.008689 -0.711316 0.702819
vn 0.011508 -0.106778 0.994216
vn 0.008689 -0.711316 0.702819
vn 0.012222 -0.999851 0.012222
vn -0.704749 -0.081565 0.704753
vn -0.994216 0.106779 0.011508
vn -0.704749 0.081565 0.704753
vn -0.011508 0.106778 0.994216
vn 0.994216 -0.106779 0.011508
vn 0.702808 -0.711326 0.008689
vn 0.994216 -0.106779 -0.011508
vn 0.702808 -0.711326 -0.008689
vn 0.012222 -0.999851 -0.012222
vn 0.70474 -0.08157 0.704761
vn 0.011508 0.106778 0.994216
vn 0.70474 0.08157 0.704761
vn 0.994216 0.106779 0.011508
vn -0.702817 0.711317 0.008689
vn -0.994216 0.106779 -0.011508
vn -0.702817 0.711317 -0.008689
vn -0.012222 0.999851 0.012222
vn -0.012222 0.999851 -0.012222
vn -0.008689 0.711316 0.702819
vn 0.012222 0.999851 0.012222
vn 0.008689 0.711316 0.702819
vn 0.702809 0.711326 0.008689
vn 0.012222 0.999851 -0.012222
vn 0.702809 0.711326 -0.008689
vn 0.994216 0.106779 -0.011508
vn -0.704749 0.081565 -0.704752
vn -0.704749 -0.081565 -0.704752
vn -0.011508 0.106777 -0.994216
vn -0.011508 -0.106777 -0.994216
vn -0.008689 0.711316 -0.702819
vn 0.011508 0.106777 -0.994216
vn 0.008689 0.711316 -0.702819
vn 0.704741 0.08157 -0.70476
vn 0.011508 -0.106777 -0.994216
vn 0.704741 -0.08157 -0.70476
vn -0.008689 -0.711316 -0.702819
vn 0.008689 -0.711316 -0.702819
vn -0.623656 -0.471281 0.623656
vn 0.62364 -0.471294 0.623662
vn -0.623656 0.471281 0.623656
vn 0.62364 0.471295 0.623662
vn -0.623657 0.471282 -0.623655
vn 0.62364 0.471296 -0.623661
vn -0.623657 -0.471282 -0.623655
vn 0.623641 -0.471295 -0.623661
vt 0.924563 0.346172
vt 0.933799 0.355825
vt 0.636429 0.615577
vt 0.64547 0.62545
vt 0.932653 0.948144
vt 0.922302 0.957768
vt 0.645938 0.641881
vt 0.635674 0.651676
vt 0.944415 0.327611
vt 0.934745 0.336646
vt 0.674046 0.039984
vt 0.664421 0.049072
vt 0.654792 0.058131
vt 0.932341 0.967853
vt 0.895349 0.982998
vt 0.904743 0.993683
vt 0.953214 0.338487
vt 0.979475 0.313398
vt 0.969809 0.303821
vt 0.043933 0.020576
vt 0.054206 0.010864
vt 0.331031 0.326409
vt 0.34147 0.316795
vt 0.645767 0.048311
vt 0.357858 0.318348
vt 0.367117 0.328017
vt 0.663818 0.030574
vt 0.699354 0.016118
vt 0.69039 0.0059
vt 0.034513 0.009903
vt 0.00695 0.035799
vt 0.017013 0.045859
vt 0.885065 0.992692
vt 0.608799 0.676836
vt 0.59835 0.686433
vt 0.294204 0.954292
vt 0.285175 0.944561
vt 0.581958 0.68483
vt 0.572716 0.675166
vt 0.275531 0.953678
vt 0.015848 0.656981
vt 0.006119 0.666007
vt 0.979538 0.294736
vt 0.709021 0.006969
vt 0.006729 0.647334
vt 0.30349 0.387699
vt 0.294453 0.377843
vt 0.006675 0.055501
vt 0.293933 0.361424
vt 0.304185 0.351612
vt 0.600049 0.666863
vt 0.626311 0.64228
vt 0.591859 0.657048
vt 0.617065 0.633471
vt 0.582315 0.666114
vt 0.322821 0.369782
vt 0.313151 0.378712
vt 0.313566 0.360981
vt 0.347994 0.34617
vt 0.339802 0.33637
vt 0.626751 0.624552
vt 0.357528 0.337087
vt 0.939323 0.958117
vt 0.941972 0.345328
vt 0.656473 0.041272
vt 0.044689 0.003566
vt 0.284668 0.960368
vt 0.894554 1
vt 0.985947 0.304078
vt 0 0.045564
vt 4e-05 0.656452
vt 0.700089 0
vt 0.59053 0.674772
vt 0.305058 0.369959
vt 0.634834 0.633315
vt 0.349308 0.328446
usemtl FloorTile1SG
f 169/229/169 170/230/170 171/231/171
f 171/231/171 170/230/170 172/232/172
f 170/233/170 173/234/173 172/235/172
f 172/235/172 173/234/173 174/236/174
f 175/237/175 176/238/176 177/239/177
f 177/239/177 176/238/176 178/240/178
f 176/238/176 169/229/169 178/240/178
f 178/240/178 169/229/169 179/241/179
f 173/234/173 180/242/180 181/243/181
f 181/243/181 180/242/180 182/244/182
f 180/245/180 175/237/175 182/246/182
f 182/246/182 175/237/175 183/247/183
f 184/248/184 185/249/185 186/250/186
f 186/250/186 185/249/185 187/251/187
f 185/252/185 179/241/179 187/253/187
f 187/253/187 179/241/179 188/254/188
f 177/239/177 189/255/189 190/256/190
f 190/256/190 189/255/189 191/257/191
f 189/258/189 184/248/184 191/259/191
f 191/259/191 184/248/184 192/260/192
f 181/243/181 193/261/193 194/262/194
f 194/262/194 193/261/193 195/263/195
f 193/264/193 196/265/196 195/266/195
f 195/266/195 196/265/196 197/267/197
f 196/265/196 198/268/198 199/269/199
f 199/269/199 198/268/198 200/270/200
f 198/271/198 183/247/183 200/272/200
f 200/272/200 183/247/183 190/256/190
f 199/269/199 201/273/201 202/274/202
f 202/274/202 201/273/201 203/275/203
f 201/276/201 192/260/192 203/277/203
f 203/277/203 192/260/192 204/278/204
f 194/262/194 205/279/205 174/236/174
f 174/236/174 205/279/205 206/280/206
f 205/279/205 207/281/207 206/280/206
f 206/280/206 207/281/207 208/282/208
f 207/281/207 209/283/209 210/284/210
f 210/284/210 209/283/209 211/285/211
f 209/283/209 197/267/197 211/285/211
f 211/285/211 197/267/197 202/274/202
f 210/284/210 212/286/212 213/287/213
f 213/287/213 212/286/212 214/288/214
f 212/286/212 204/278/204 214/288/214
f 214/288/214 204/278/204 186/250/186
f 171/231/171 215/289/215 188/254/188
f 188/254/188 215/289/215 216/290/216
f 215/289/215 208/282/208 216/290/216
f 216/290/216 208/282/208 213/287/213
f 175/237/175 177/239/177 183/247/183
f 183/247/183 177/239/177 190/256/190
f 196/265/196 199/269/199 197/267/197
f 197/267/197 199/269/199 202/274/202
f 207/281/207 210/284/210 208/282/208
f 208/282/208 210/284/210 213/287/213
f 171/231/171 188/254/188 169/229/169
f 169/229/169 188/254/188 179/241/179
f 184/248/184 186/250/186 192/260/192
f 192/260/192 186/250/186 204/278/204
f 174/236/174 173/234/173 194/262/194
f 194/262/194 173/234/173 181/243/181
f 180/242/180 173/234/173 217/291/217
f 217/291/217 173/234/173 170/233/170
f 169/229/169 176/238/176 170/230/170
f 170/230/170 176/238/176 217/292/217
f 176/238/176 175/237/175 217/292/217
f 217/292/217 175/237/175 180/245/180
f 179/241/179 185/252/185 178/240/178
f 178/240/178 185/252/185 218/293/218
f 185/249/185 184/248/184 218/294/218
f 218/294/218 184/248/184 189/258/189
f 189/255/189 177/239/177 218/293/218
f 218/293/218 177/239/177 178/240/178
f 196/265/196 193/264/193 198/268/198
f 198/268/198 193/264/193 219/295/219
f 193/261/193 181/243/181 219/296/219
f 219/296/219 181/243/181 182/244/182
f 182/246/182 183/247/183 219/297/219
f 219/297/219 183/247/183 198/271/198
f 191/259/191 192/260/192 220/298/220
f 220/298/220 192/260/192 201/276/201
f 199/269/199 200/270/200 201/273/201
f 201/273/201 200/270/200 220/299/220
f 200/272/200 190/256/190 220/300/220
f 220/300/220 190/256/190 191/257/191
f 209/283/209 207/281/207 221/301/221
f 221/301/221 207/281/207 205/279/205
f 205/279/205 194/262/194 221/301/221
f 221/301/221 194/262/194 195/263/195
f 197/267/197 209/283/209 195/266/195
f 195/266/195 209/283/209 221/301/221
f 203/277/203 204/278/204 222/302/222
f 222/302/222 204/278/204 212/286/212
f 212/286/212 210/284/210 222/302/222
f 222/302/222 210/284/210 211/285/211
f 202/274/202 203/275/203 211/285/211
f 211/285/211 203/275/203 222/302/222
f 171/231/171 172/232/172 215/289/215
f 215/289/215 172/232/172 223/303/223
f 172/235/172 174/236/174 223/303/223
f 223/303/223 174/236/174 206/280/206
f 206/280/206 208/282/208 223/303/223
f 223/303/223 208/282/208 215/289/215
f 214/288/214 186/250/186 224/304/224
f 224/304/224 186/250/186 187/251/187
f 188/254/188 216/290/216 187/253/187
f 187/253/187 216/290/216 224/304/224
f 216/290/216 213/287/213 224/304/224
f 224/304/224 213/287/213 214/288/214
s off
