# Apple ModelIO OBJ File: TipsJar
mtllib TipsJar.mtl
g Jar_standardSurface6SG
v 7.5592 4.58677 -12.7486
v 7.42454 4.58677 -12.9174
v 7.5108 4.9138 -13.0256
v 7.68385 4.9138 -12.8086
v 7.22996 4.58677 -13.0111
v 7.26074 4.9138 -13.146
v 7.01399 4.58677 -13.0111
v 6.9832 4.9138 -13.146
v 6.8194 4.58677 -12.9174
v 6.73314 4.9138 -13.0256
v 6.68475 4.58677 -12.7486
v 6.56009 4.9138 -12.8086
v 6.63669 4.58677 -12.538
v 6.49833 4.9138 -12.538
v 6.68475 4.58677 -12.3274
v 6.56009 4.9138 -12.2674
v 6.8194 4.58677 -12.1586
v 6.73314 4.9138 -12.0504
v 7.01399 4.58677 -12.0649
v 6.9832 4.9138 -11.93
v 7.22996 4.58677 -12.0649
v 7.26074 4.9138 -11.93
v 7.42454 4.58677 -12.1586
v 7.5108 4.9138 -12.0504
v 7.5592 4.58677 -12.3274
v 7.68385 4.9138 -12.2674
v 7.60726 4.58677 -12.538
v 7.74561 4.9138 -12.538
v 7.58971 4.5601 -12.7632
v 7.64112 4.5601 -12.538
v 7.58971 4.5601 -12.3127
v 7.44566 4.5601 -12.1321
v 7.23749 4.5601 -12.0319
v 7.00645 4.5601 -12.0319
v 6.79829 4.5601 -12.1321
v 6.65423 4.5601 -12.3127
v 6.60282 4.5601 -12.538
v 6.65423 4.5601 -12.7632
v 6.79829 4.5601 -12.9439
v 7.00645 4.5601 -13.0441
v 7.23749 4.5601 -13.0441
v 7.44566 4.5601 -12.9439
v 7.64112 4.53316 -12.538
v 7.63303 4.51411 -12.538
v 7.58242 4.51411 -12.7597
v 7.58971 4.53316 -12.7632
v 7.61349 4.50623 -12.538
v 7.56482 4.50623 -12.7513
v 7.42843 4.50623 -12.9223
v 7.23135 4.50623 -13.0172
v 7.0126 4.50623 -13.0172
v 6.81551 4.50623 -12.9223
v 6.67912 4.50623 -12.7513
v 6.63045 4.50623 -12.538
v 6.67912 4.50623 -12.3247
v 6.81551 4.50623 -12.1537
v 7.0126 4.50623 -12.0588
v 7.23135 4.50623 -12.0588
v 7.42843 4.50623 -12.1537
v 7.56482 4.50623 -12.3247
v 7.58971 4.53316 -12.3127
v 7.44566 4.53316 -12.1321
v 7.23749 4.53316 -12.0319
v 7.00645 4.53316 -12.0319
v 6.79829 4.53316 -12.1321
v 6.65423 4.53316 -12.3127
v 6.60282 4.53316 -12.538
v 6.65423 4.53316 -12.7632
v 6.79829 4.53316 -12.9439
v 7.00645 4.53316 -13.0441
v 7.23749 4.53316 -13.0441
v 7.44566 4.53316 -12.9439
v 7.58242 4.51411 -12.3163
v 7.44061 4.51411 -12.1384
v 7.23569 4.51411 -12.0398
v 7.00825 4.51411 -12.0398
v 6.80333 4.51411 -12.1384
v 6.66152 4.51411 -12.3163
v 6.61092 4.51411 -12.538
v 6.66152 4.51411 -12.7597
v 6.80333 4.51411 -12.9376
v 7.00825 4.51411 -13.0362
v 7.23569 4.51411 -13.0362
v 7.44061 4.51411 -12.9376
v 7.5691 5.27603 -13.0987
v 7.76809 5.27603 -12.8491
v 7.28155 5.27603 -13.2371
v 6.9624 5.27603 -13.2371
v 6.67485 5.27603 -13.0987
v 6.47586 5.27603 -12.8491
v 6.40484 5.27603 -12.538
v 6.47586 5.27603 -12.2268
v 6.67485 5.27603 -11.9773
v 6.9624 5.27603 -11.8388
v 7.28155 5.27603 -11.8388
v 7.5691 5.27603 -11.9773
v 7.76809 5.27603 -12.2268
v 7.83911 5.27603 -12.538
v 7.79476 5.63506 -12.862
v 7.58756 5.63506 -13.1218
v 7.28814 5.63506 -13.266
v 6.95581 5.63506 -13.266
v 6.65638 5.63506 -13.1218
v 6.44918 5.63506 -12.862
v 6.37523 5.63506 -12.538
v 6.44918 5.63506 -12.214
v 6.65638 5.63506 -11.9542
v 6.95581 5.63506 -11.81
v 7.28814 5.63506 -11.81
v 7.58756 5.63506 -11.9542
v 7.79476 5.63506 -12.214
v 7.86872 5.63506 -12.538
v 7.70832 5.8161 -12.8204
v 7.52774 5.8161 -13.0468
v 7.26679 5.8161 -13.1725
v 6.97716 5.8161 -13.1725
v 6.71621 5.8161 -13.0468
v 6.53562 5.8161 -12.8204
v 6.47118 5.8161 -12.538
v 6.53562 5.8161 -12.2556
v 6.71621 5.8161 -12.0292
v 6.97716 5.8161 -11.9035
v 7.26679 5.8161 -11.9035
v 7.52774 5.8161 -12.0292
v 7.70832 5.8161 -12.2556
v 7.77277 5.8161 -12.538
v 7.54056 5.95226 -12.7396
v 7.41164 5.95226 -12.9012
v 7.22535 5.95226 -12.9909
v 7.01859 5.95226 -12.9909
v 6.8323 5.95226 -12.9012
v 6.70338 5.95226 -12.7396
v 6.65737 5.95226 -12.538
v 6.70338 5.95226 -12.3364
v 6.8323 5.95226 -12.1748
v 7.01859 5.95226 -12.085
v 7.22535 5.95226 -12.085
v 7.41164 5.95226 -12.1748
v 7.54056 5.95226 -12.3364
v 7.58657 5.95226 -12.538
v 7.41164 6.06542 -12.9012
v 7.54056 6.06542 -12.7396
v 7.22535 6.06542 -12.9909
v 7.01859 6.06542 -12.9909
v 6.8323 6.06542 -12.9012
v 6.70338 6.06542 -12.7396
v 6.65737 6.06542 -12.538
v 6.70338 6.06542 -12.3364
v 6.8323 6.06542 -12.1748
v 7.01859 6.06542 -12.085
v 7.22535 6.06542 -12.085
v 7.41164 6.06542 -12.1748
v 7.54056 6.06542 -12.3364
v 7.58657 6.06542 -12.538
v 7.4304 6.07801 -12.9248
v 7.56766 6.07801 -12.7526
v 7.23205 6.07801 -13.0203
v 7.0119 6.07801 -13.0203
v 6.81355 6.07801 -12.9248
v 6.67628 6.07801 -12.7526
v 6.6273 6.07801 -12.538
v 6.67628 6.07801 -12.3234
v 6.81355 6.07801 -12.1512
v 7.0119 6.07801 -12.0557
v 7.23205 6.07801 -12.0557
v 7.4304 6.07801 -12.1512
v 7.56766 6.07801 -12.3234
v 7.61665 6.07801 -12.538
v 7.50312 5.92284 -12.7215
v 7.38574 5.92284 -12.8687
v 7.54147 5.92284 -12.74
v 7.41227 5.92284 -12.902
v 7.21611 5.92284 -12.9504
v 7.22558 5.92284 -12.9919
v 7.02784 5.92284 -12.9504
v 7.01836 5.92284 -12.9919
v 6.85821 5.92284 -12.8687
v 6.83167 5.92284 -12.902
v 6.74082 5.92284 -12.7215
v 6.70247 5.92284 -12.74
v 6.69893 5.92284 -12.538
v 6.65636 5.92284 -12.538
v 6.74082 5.92284 -12.3544
v 6.70247 5.92284 -12.336
v 6.85821 5.92284 -12.2072
v 6.83167 5.92284 -12.174
v 7.02784 5.92284 -12.1256
v 7.01836 5.92284 -12.0841
v 7.21611 5.92284 -12.1256
v 7.22558 5.92284 -12.0841
v 7.38574 5.92284 -12.2072
v 7.41227 5.92284 -12.174
v 7.50312 5.92284 -12.3544
v 7.54147 5.92284 -12.336
v 7.54502 5.92284 -12.538
v 7.58758 5.92284 -12.538
v 7.49515 5.8161 -13.0059
v 7.66122 5.8161 -12.7977
v 7.25516 5.8161 -13.1215
v 6.98879 5.8161 -13.1215
v 6.7488 5.8161 -13.0059
v 6.58272 5.8161 -12.7977
v 6.52345 5.8161 -12.538
v 6.58272 5.8161 -12.2783
v 6.7488 5.8161 -12.0701
v 6.98879 5.8161 -11.9545
v 7.25516 5.8161 -11.9545
v 7.49515 5.8161 -12.0701
v 7.66122 5.8161 -12.2783
v 7.7205 5.8161 -12.538
v 7.75565 5.63506 -12.8432
v 7.56049 5.63506 -13.0879
v 7.27848 5.63506 -13.2237
v 6.96547 5.63506 -13.2237
v 6.68345 5.63506 -13.0879
v 6.48829 5.63506 -12.8432
v 6.41864 5.63506 -12.538
v 6.48829 5.63506 -12.2328
v 6.68345 5.63506 -11.9881
v 6.96547 5.63506 -11.8523
v 7.27848 5.63506 -11.8523
v 7.56049 5.63506 -11.9881
v 7.75565 5.63506 -12.2328
v 7.8253 5.63506 -12.538
v 7.54581 5.27603 -13.0695
v 7.73444 5.27603 -12.8329
v 7.27324 5.27603 -13.2007
v 6.97071 5.27603 -13.2007
v 6.69813 5.27603 -13.0695
v 6.50951 5.27603 -12.8329
v 6.44219 5.27603 -12.538
v 6.50951 5.27603 -12.243
v 6.69813 5.27603 -12.0065
v 6.97071 5.27603 -11.8753
v 7.27324 5.27603 -11.8753
v 7.54581 5.27603 -12.0065
v 7.73444 5.27603 -12.243
v 7.80175 5.27603 -12.538
v 7.48201 4.9138 -12.9895
v 7.64225 4.9138 -12.7885
v 7.25047 4.9138 -13.101
v 6.99347 4.9138 -13.101
v 6.76193 4.9138 -12.9895
v 6.6017 4.9138 -12.7885
v 6.54451 4.9138 -12.538
v 6.6017 4.9138 -12.2874
v 6.76193 4.9138 -12.0865
v 6.99347 4.9138 -11.975
v 7.25047 4.9138 -11.975
v 7.48201 4.9138 -12.0865
v 7.64225 4.9138 -12.2874
v 7.69943 4.9138 -12.538
v 7.56766 6.12265 -12.7526
v 7.55476 6.13662 -12.7464
v 7.61665 6.12265 -12.538
v 7.60232 6.13662 -12.538
v 7.4304 6.12265 -12.9248
v 7.42147 6.13662 -12.9136
v 7.23205 6.12265 -13.0203
v 7.22886 6.13662 -13.0063
v 7.0119 6.12265 -13.0203
v 7.01508 6.13662 -13.0063
v 6.81355 6.12265 -12.9248
v 6.82248 6.13662 -12.9136
v 6.67628 6.12265 -12.7526
v 6.68919 6.13662 -12.7464
v 6.64162 6.13662 -12.538
v 6.6273 6.12265 -12.538
v 6.67628 6.12265 -12.3234
v 6.68919 6.13662 -12.3296
v 6.82248 6.13662 -12.1624
v 6.81355 6.12265 -12.1512
v 7.01508 6.13662 -12.0697
v 7.0119 6.12265 -12.0557
v 7.23205 6.12265 -12.0557
v 7.22886 6.13662 -12.0697
v 7.4304 6.12265 -12.1512
v 7.42147 6.13662 -12.1624
v 7.55476 6.13662 -12.3296
v 7.56766 6.12265 -12.3234
v 7.51603 6.13662 -12.7278
v 7.50312 6.12265 -12.7215
v 7.54502 6.12265 -12.538
v 7.55934 6.13662 -12.538
v 7.38574 6.12265 -12.8687
v 7.39467 6.13662 -12.8799
v 7.2193 6.13662 -12.9644
v 7.21611 6.12265 -12.9504
v 7.02784 6.12265 -12.9504
v 7.02465 6.13662 -12.9644
v 6.85821 6.12265 -12.8687
v 6.84928 6.13662 -12.8799
v 6.72791 6.13662 -12.7278
v 6.74082 6.12265 -12.7215
v 6.69893 6.12265 -12.538
v 6.6846 6.13662 -12.538
v 6.72791 6.13662 -12.3482
v 6.74082 6.12265 -12.3544
v 6.85821 6.12265 -12.2072
v 6.84928 6.13662 -12.196
v 7.02465 6.13662 -12.1116
v 7.02784 6.12265 -12.1256
v 7.2193 6.13662 -12.1116
v 7.21611 6.12265 -12.1256
v 7.38574 6.12265 -12.2072
v 7.39467 6.13662 -12.196
v 7.51603 6.13662 -12.3482
v 7.50312 6.12265 -12.3544
v 7.37794 4.59616 -12.6613
v 7.48679 4.6306 -12.7137
v 7.29911 4.59616 -12.7601
v 7.37443 4.6306 -12.8546
v 7.5612 4.7232 -12.7495
v 7.42593 4.72321 -12.9191
v 7.40608 4.59616 -12.538
v 7.37794 4.59616 -12.4147
v 7.29911 4.59616 -12.3159
v 7.18519 4.59616 -12.261
v 7.05875 4.59616 -12.261
v 6.94484 4.59616 -12.3159
v 6.866 4.59616 -12.4147
v 6.83787 4.59616 -12.538
v 6.866 4.59616 -12.6613
v 6.94484 4.59616 -12.7601
v 7.05875 4.59616 -12.815
v 7.18519 4.59616 -12.815
v 7.23045 4.72321 -13.0133
v 7.01349 4.72321 -13.0133
v 6.81802 4.72321 -12.9191
v 6.68274 4.7232 -12.7495
v 6.63447 4.72321 -12.538
v 6.68274 4.7232 -12.3265
v 6.81802 4.72321 -12.1568
v 7.01349 4.72321 -12.0627
v 7.23045 4.72321 -12.0627
v 7.42593 4.72321 -12.1568
v 7.5612 4.7232 -12.3265
v 7.60948 4.72321 -12.538
v 7.21207 4.6306 -12.9328
v 7.03187 4.6306 -12.9328
v 6.86951 4.6306 -12.8546
v 6.75715 4.6306 -12.7137
v 6.71705 4.6306 -12.538
v 6.75715 4.6306 -12.3623
v 6.86951 4.6306 -12.2214
v 7.03187 4.6306 -12.1432
v 7.21207 4.6306 -12.1432
v 7.37443 4.6306 -12.2214
v 7.48679 4.6306 -12.3623
v 7.52689 4.6306 -12.538
vn 0.862777 -0.288066 -0.415492
vn 0.59706 -0.288064 -0.748691
vn 0.592967 -0.309046 -0.743559
vn 0.856864 -0.309046 -0.412643
vn 0.213086 -0.288064 -0.933603
vn 0.211626 -0.309045 -0.927203
vn -0.213085 -0.288064 -0.933603
vn -0.211626 -0.309045 -0.927203
vn -0.59706 -0.288064 -0.748691
vn -0.592967 -0.309046 -0.743559
vn -0.862778 -0.288064 -0.415492
vn -0.856864 -0.309046 -0.412644
vn -0.95761 -0.288067 0
vn -0.951047 -0.309047 0
vn -0.862777 -0.288066 0.415492
vn -0.856863 -0.309048 0.412644
vn -0.597062 -0.288065 0.748689
vn -0.592968 -0.309047 0.743558
vn -0.213086 -0.288065 0.933602
vn -0.211627 -0.309046 0.927203
vn 0.213087 -0.288064 0.933602
vn 0.211627 -0.309046 0.927202
vn 0.597062 -0.288064 0.74869
vn 0.592968 -0.309047 0.743558
vn 0.862777 -0.288066 0.415492
vn 0.856863 -0.309047 0.412644
vn 0.95761 -0.288068 -0
vn 0.951047 -0.309047 -0
vn 0.778136 0.504068 -0.374727
vn 0.863662 0.504072 -0
vn 0.778134 0.504072 0.374726
vn 0.538486 0.504074 0.675235
vn 0.192182 0.504076 0.842006
vn -0.192183 0.504073 0.842007
vn -0.538485 0.504068 0.675241
vn -0.778137 0.504064 0.37473
vn -0.863664 0.504068 0
vn -0.778136 0.504067 -0.374727
vn -0.538487 0.504066 -0.67524
vn -0.192183 0.504066 -0.842012
vn 0.192182 0.504066 -0.842012
vn 0.538489 0.504066 -0.675239
vn 0.985966 -0.166947 -1e-06
vn 0.730272 -0.683157 -1e-06
vn 0.657958 -0.683149 -0.316858
vn 0.888327 -0.166937 -0.427793
vn 0.003066 -0.999995 -0
vn 0.002763 -0.999995 -0.001331
vn 0.001912 -0.999995 -0.002397
vn 0.000682 -0.999995 -0.002989
vn -0.000682 -0.999995 -0.002989
vn -0.001912 -0.999995 -0.002397
vn -0.002763 -0.999995 -0.00133
vn -0.003066 -0.999995 -0
vn -0.002763 -0.999995 0.00133
vn -0.001912 -0.999995 0.002397
vn -0.000682 -0.999995 0.002989
vn 0.000682 -0.999995 0.002989
vn 0.001912 -0.999995 0.002397
vn 0.002763 -0.999995 0.00133
vn 0.888328 -0.166937 0.427791
vn 0.614743 -0.166939 0.770858
vn 0.219399 -0.16695 0.961245
vn -0.219399 -0.166948 0.961245
vn -0.614742 -0.166942 0.770858
vn -0.888328 -0.166931 0.427793
vn -0.985968 -0.166932 -1e-06
vn -0.888326 -0.166943 -0.427794
vn -0.614743 -0.166941 -0.770858
vn -0.219401 -0.166924 -0.961249
vn 0.2194 -0.166921 -0.96125
vn 0.614745 -0.166928 -0.770859
vn 0.657957 -0.683151 0.316856
vn 0.455317 -0.683149 0.570958
vn 0.162492 -0.683154 0.711967
vn -0.162494 -0.683152 0.711968
vn -0.455316 -0.683152 0.570955
vn -0.65796 -0.683147 0.316857
vn -0.730282 -0.683145 -1e-06
vn -0.657952 -0.683156 -0.316855
vn -0.455314 -0.683159 -0.57095
vn -0.162494 -0.683153 -0.711968
vn 0.162492 -0.683151 -0.711969
vn 0.455319 -0.683149 -0.570958
vn 0.615195 -0.162552 -0.771435
vn 0.888986 -0.162552 -0.428113
vn 0.219562 -0.162552 -0.961961
vn -0.219562 -0.162552 -0.961961
vn -0.615196 -0.162551 -0.771435
vn -0.888986 -0.162552 -0.428113
vn -0.9867 -0.162552 0
vn -0.888986 -0.162553 0.428112
vn -0.615197 -0.162552 0.771434
vn -0.219561 -0.162552 0.961962
vn 0.219561 -0.162552 0.961961
vn 0.615196 -0.162552 0.771434
vn 0.888986 -0.162552 0.428113
vn 0.9867 -0.162552 -0
vn 0.895667 0.108321 -0.431332
vn 0.619819 0.108321 -0.777233
vn 0.221212 0.108322 -0.969191
vn -0.221213 0.108322 -0.969191
vn -0.61982 0.108322 -0.777232
vn -0.895667 0.108321 -0.431332
vn -0.994116 0.108321 0
vn -0.895667 0.108322 0.431331
vn -0.61982 0.108322 0.777232
vn -0.221211 0.108322 0.969192
vn 0.221211 0.108322 0.969192
vn 0.619821 0.108322 0.777232
vn 0.895667 0.108322 0.431331
vn 0.994116 0.108322 -0
vn 0.700642 0.628692 -0.337413
vn 0.484858 0.62869 -0.607998
vn 0.173044 0.628691 -0.758158
vn -0.173044 0.628691 -0.758158
vn -0.484858 0.62869 -0.607998
vn -0.700643 0.62869 -0.337414
vn -0.777655 0.628691 0
vn -0.700643 0.628691 0.337412
vn -0.484858 0.628692 0.607996
vn -0.173043 0.628692 0.758157
vn 0.173044 0.628692 0.758157
vn 0.484859 0.628692 0.607996
vn 0.700642 0.628692 0.337411
vn 0.777654 0.628693 -0
vn 0.688646 0.644814 -0.331635
vn 0.476556 0.644812 -0.597588
vn 0.170079 0.64481 -0.74518
vn -0.17008 0.644811 -0.745179
vn -0.476556 0.644811 -0.597589
vn -0.688647 0.644812 -0.331638
vn -0.764341 0.644812 0
vn -0.688647 0.644812 0.331637
vn -0.476558 0.644813 0.597586
vn -0.170083 0.644812 0.745177
vn 0.170083 0.644812 0.745177
vn 0.476557 0.644813 0.597586
vn 0.688645 0.644815 0.331636
vn 0.76434 0.644814 -0
vn 0.601196 -0.264999 -0.753883
vn 0.868759 -0.264998 -0.41837
vn 0.214561 -0.265005 -0.940072
vn -0.214562 -0.265004 -0.940072
vn -0.601197 -0.264997 -0.753883
vn -0.868759 -0.264994 -0.418373
vn -0.96425 -0.264993 0
vn -0.868759 -0.264998 0.418371
vn -0.6012 -0.265001 0.753879
vn -0.214569 -0.264997 0.940073
vn 0.214569 -0.264999 0.940072
vn 0.601196 -0.265005 0.75388
vn 0.868755 -0.265008 0.418373
vn 0.964247 -0.265004 0
vn 0.566767 -0.416747 -0.710702
vn 0.819001 -0.416749 -0.394408
vn 0.202277 -0.416754 -0.886228
vn -0.202278 -0.416755 -0.886227
vn -0.56677 -0.416747 -0.7107
vn -0.819004 -0.416743 -0.394409
vn -0.909025 -0.416742 0
vn -0.819002 -0.416747 0.394408
vn -0.566765 -0.416754 0.7107
vn -0.202275 -0.416748 0.886232
vn 0.202274 -0.416748 0.886232
vn 0.566759 -0.416758 0.710702
vn 0.818995 -0.41676 0.394408
vn 0.909018 -0.416757 0
vn -0.872884 -0.247734 0.420358
vn -0.60405 -0.247737 0.757463
vn -0.499264 -0.832423 0.240432
vn -0.345499 -0.832423 0.433246
vn -0.215581 -0.247736 0.944538
vn -0.123307 -0.832423 0.540248
vn 0.215582 -0.247737 0.944538
vn 0.123307 -0.832423 0.540248
vn 0.604049 -0.247738 0.757463
vn 0.345499 -0.832423 0.433246
vn 0.872882 -0.247739 0.42036
vn 0.499263 -0.832423 0.240434
vn 0.968827 -0.247738 -0
vn 0.554141 -0.832423 -0
vn 0.872882 -0.24774 -0.42036
vn 0.499263 -0.832423 -0.240433
vn 0.604053 -0.247739 -0.75746
vn 0.345499 -0.832424 -0.433246
vn 0.215588 -0.247738 -0.944536
vn 0.123309 -0.832423 -0.540247
vn -0.215588 -0.247738 -0.944536
vn -0.123309 -0.832423 -0.540247
vn -0.604055 -0.247736 -0.75746
vn -0.3455 -0.832423 -0.433246
vn -0.872883 -0.247734 -0.42036
vn -0.499264 -0.832423 -0.240432
vn -0.968829 -0.247732 0
vn -0.55414 -0.832424 0
vn -0.494183 -0.609727 0.61969
vn -0.714116 -0.60973 0.343901
vn -0.176372 -0.609728 0.772738
vn 0.176373 -0.609728 0.772738
vn 0.494183 -0.609728 0.61969
vn 0.714116 -0.60973 0.343902
vn 0.792609 -0.609731 -0
vn 0.714115 -0.609731 -0.343902
vn 0.494182 -0.609728 -0.61969
vn 0.176373 -0.609726 -0.77274
vn -0.176373 -0.609726 -0.77274
vn -0.494182 -0.609728 -0.61969
vn -0.714115 -0.609731 -0.343902
vn -0.792608 -0.609732 -0
vn -0.893117 -0.131728 0.430105
vn -0.618055 -0.131728 0.77502
vn -0.220583 -0.131728 0.966432
vn 0.220584 -0.131727 0.966432
vn 0.618054 -0.131727 0.77502
vn 0.893116 -0.131728 0.430107
vn 0.991286 -0.13173 -0
vn 0.893116 -0.131729 -0.430106
vn 0.618055 -0.131727 -0.77502
vn 0.220584 -0.131727 -0.966432
vn -0.220584 -0.131728 -0.966432
vn -0.618055 -0.131729 -0.77502
vn -0.893116 -0.131729 -0.430105
vn -0.991286 -0.13173 0
vn -0.614999 0.164449 0.771189
vn -0.888702 0.164449 0.427979
vn -0.219493 0.16445 0.961654
vn 0.219493 0.16445 0.961654
vn 0.614998 0.164449 0.77119
vn 0.888701 0.16445 0.427981
vn 0.986385 0.16445 0
vn 0.888701 0.16445 -0.42798
vn 0.614999 0.164449 -0.771189
vn 0.219493 0.164449 -0.961655
vn -0.219493 0.164449 -0.961654
vn -0.615 0.164449 -0.771189
vn -0.888701 0.16445 -0.42798
vn -0.986386 0.164449 0
vn -0.590852 0.319289 0.74091
vn -0.853809 0.319289 0.411176
vn -0.210875 0.319289 0.923897
vn 0.210875 0.319289 0.923898
vn 0.590852 0.319288 0.740911
vn 0.853808 0.319289 0.411177
vn 0.947657 0.319291 0
vn 0.853809 0.319289 -0.411176
vn 0.590852 0.319288 -0.740911
vn 0.210874 0.319289 -0.923898
vn -0.210874 0.319289 -0.923898
vn -0.590852 0.319288 -0.740911
vn -0.853809 0.319289 -0.411176
vn -0.947658 0.319289 -0
vn 0.879477 0.217121 -0.423532
vn 0.262807 0.956512 -0.126562
vn 0.976145 0.217121 0
vn 0.291695 0.956511 -0
vn 0.608618 0.217122 -0.763179
vn 0.181868 0.956512 -0.228053
vn 0.217216 0.217129 -0.951668
vn 0.064908 0.956514 -0.284373
vn -0.217215 0.217127 -0.951669
vn -0.064909 0.956511 -0.284382
vn -0.608616 0.21712 -0.763181
vn -0.18187 0.95651 -0.228064
vn -0.879476 0.217117 -0.423535
vn -0.262812 0.95651 -0.126566
vn -0.291698 0.956511 -1e-06
vn -0.976146 0.217116 -0
vn -0.879477 0.217115 0.423535
vn -0.262812 0.95651 0.126563
vn -0.181872 0.95651 0.228062
vn -0.608613 0.217118 0.763184
vn -0.064909 0.956509 0.284388
vn -0.217213 0.217111 0.951673
vn 0.217214 0.21711 0.951673
vn 0.06491 0.956511 0.284382
vn 0.608611 0.217124 0.763184
vn 0.181869 0.956512 0.228054
vn 0.262808 0.956511 0.126563
vn 0.879475 0.217123 0.423535
vn -0.170055 0.982026 0.081891
vn -0.89848 0.07429 0.432684
vn -0.997237 0.074292 0
vn -0.188747 0.982026 -0
vn -0.621763 0.074291 0.779674
vn -0.117682 0.982027 0.147562
vn -0.042 0.982026 0.184012
vn -0.221903 0.074293 0.972234
vn 0.221903 0.074293 0.972234
vn 0.042 0.982026 0.184013
vn 0.621762 0.074292 0.779675
vn 0.117682 0.982026 0.147569
vn 0.170054 0.982026 0.081894
vn 0.898478 0.074295 0.432687
vn 0.997236 0.074296 0
vn 0.188746 0.982026 -1e-06
vn 0.17005 0.982026 -0.081897
vn 0.898478 0.074297 -0.432686
vn 0.621765 0.074294 -0.779672
vn 0.117681 0.982026 -0.14757
vn 0.042001 0.982027 -0.18401
vn 0.221909 0.074294 -0.972233
vn -0.042001 0.982027 -0.184008
vn -0.221909 0.074294 -0.972233
vn -0.621766 0.074292 -0.779671
vn -0.117683 0.982026 -0.147565
vn -0.170053 0.982026 -0.081895
vn -0.898478 0.074292 -0.432686
vn -0.022859 0.999678 0.011008
vn -0.246968 0.961697 0.118936
vn -0.015819 0.999678 0.019836
vn -0.170906 0.961697 0.214315
vn -0.672415 0.665581 0.323822
vn -0.77928 0.501881 0.375284
vn -0.539278 0.501879 0.676237
vn -0.465327 0.665579 0.583504
vn -0.025372 0.999678 -1e-06
vn -0.022859 0.999678 -0.011009
vn -0.015819 0.999678 -0.019837
vn -0.005646 0.999678 -0.024736
vn 0.005646 0.999678 -0.024736
vn 0.015819 0.999678 -0.019837
vn 0.022859 0.999678 -0.011009
vn 0.025372 0.999678 -1e-06
vn 0.022859 0.999678 0.011008
vn 0.015819 0.999678 0.019836
vn 0.005646 0.999678 0.024735
vn -0.005646 0.999678 0.024735
vn -0.192468 0.501878 0.843253
vn 0.192468 0.501878 0.843253
vn 0.539278 0.501879 0.676237
vn 0.779281 0.50188 0.375284
vn 0.864937 0.50188 -0
vn 0.779281 0.50188 -0.375282
vn 0.539278 0.501879 -0.676237
vn 0.192465 0.501878 -0.843253
vn -0.192466 0.501879 -0.843253
vn -0.539279 0.501878 -0.676237
vn -0.779281 0.50188 -0.375283
vn -0.864936 0.501882 -0
vn -0.060996 0.961697 0.267241
vn -0.166075 0.665576 0.727618
vn 0.060996 0.961698 0.267239
vn 0.166076 0.665574 0.727619
vn 0.170906 0.961697 0.214314
vn 0.465327 0.665577 0.583505
vn 0.246967 0.961697 0.118936
vn 0.672419 0.665576 0.323823
vn 0.274112 0.961698 0
vn 0.746328 0.665578 -1e-06
vn 0.246967 0.961697 -0.118935
vn 0.672416 0.66558 -0.323821
vn 0.170907 0.961697 -0.214314
vn 0.465325 0.665581 -0.583502
vn 0.060996 0.961697 -0.267242
vn 0.166072 0.665581 -0.727614
vn -0.060996 0.961696 -0.267244
vn -0.166071 0.665582 -0.727614
vn -0.170906 0.961697 -0.214315
vn -0.465325 0.66558 -0.583503
vn -0.246967 0.961697 -0.118934
vn -0.672415 0.665581 -0.32382
vn -0.274113 0.961697 -0
vn -0.746324 0.665583 1e-06
vt 0.354845 0.65931
vt 0.354845 0.725233
vt 0.264327 0.725233
vt 0.264327 0.65931
vt 0.354845 0.779439
vt 0.264327 0.779439
vt 0.354845 0.851942
vt 0.264327 0.851942
vt 0.354845 0.005073
vt 0.354845 0.083805
vt 0.264327 0.005073
vt 0.264327 0.083805
vt 0.354845 0.145575
vt 0.264327 0.145575
vt 0.354845 0.203755
vt 0.264327 0.203755
vt 0.354845 0.259449
vt 0.264327 0.259449
vt 0.354845 0.312962
vt 0.264327 0.312962
vt 0.354845 0.366914
vt 0.264327 0.366914
vt 0.354845 0.42445
vt 0.264327 0.42445
vt 0.354845 0.484532
vt 0.264327 0.484532
vt 0.354845 0.539545
vt 0.264327 0.539545
vt 0.354845 0.593483
vt 0.264327 0.593483
vt 0.366818 0.65931
vt 0.366818 0.593483
vt 0.366818 0.539545
vt 0.366818 0.484532
vt 0.366818 0.42445
vt 0.366818 0.366914
vt 0.366818 0.312962
vt 0.366818 0.259449
vt 0.366818 0.203755
vt 0.366818 0.145575
vt 0.366818 0.083805
vt 0.366818 0.005073
vt 0.366818 0.779439
vt 0.366818 0.851942
vt 0.366818 0.725233
vt 0.373654 0.593483
vt 0.378925 0.593483
vt 0.378925 0.65931
vt 0.373654 0.65931
vt 0.38427 0.593483
vt 0.38427 0.65931
vt 0.791055 0.98515
vt 0.752834 0.954665
vt 0.731625 0.910616
vt 0.838717 0.996032
vt 0.886382 0.985156
vt 0.924607 0.954677
vt 0.945823 0.910631
vt 0.945826 0.861741
vt 0.924617 0.817692
vt 0.886396 0.787207
vt 0.838733 0.776325
vt 0.791069 0.787201
vt 0.752844 0.81768
vt 0.731628 0.861727
vt 0.373654 0.539545
vt 0.373654 0.484532
vt 0.373654 0.42445
vt 0.373654 0.366914
vt 0.373654 0.312962
vt 0.373654 0.259449
vt 0.373654 0.203755
vt 0.373654 0.145575
vt 0.373654 0.083805
vt 0.373654 0.005073
vt 0.373654 0.779439
vt 0.373654 0.851942
vt 0.373654 0.725233
vt 0.378925 0.539545
vt 0.38427 0.539545
vt 0.378925 0.484532
vt 0.38427 0.484532
vt 0.38427 0.42445
vt 0.378925 0.42445
vt 0.378925 0.366914
vt 0.38427 0.366914
vt 0.378925 0.312962
vt 0.38427 0.312962
vt 0.38427 0.259449
vt 0.378925 0.259449
vt 0.378925 0.203755
vt 0.38427 0.203755
vt 0.38427 0.145575
vt 0.378925 0.145575
vt 0.378925 0.083805
vt 0.38427 0.083805
vt 0.38427 0.005073
vt 0.378925 0.005073
vt 0.38427 0.851942
vt 0.378925 0.851942
vt 0.38427 0.779439
vt 0.378925 0.779439
vt 0.38427 0.725233
vt 0.378925 0.725233
vt 0.174797 0.725233
vt 0.174797 0.65931
vt 0.174797 0.779439
vt 0.174797 0.851942
vt 0.174797 0.083805
vt 0.174797 0.005073
vt 0.174797 0.145575
vt 0.174797 0.203755
vt 0.174797 0.259449
vt 0.174797 0.312962
vt 0.174797 0.366914
vt 0.174797 0.42445
vt 0.174797 0.484532
vt 0.174797 0.539545
vt 0.174797 0.593483
vt 0.095749 0.65931
vt 0.095749 0.725233
vt 0.095749 0.779439
vt 0.095749 0.851942
vt 0.095749 0.005073
vt 0.095749 0.083805
vt 0.095749 0.145575
vt 0.095749 0.203755
vt 0.095749 0.259449
vt 0.095749 0.312962
vt 0.095749 0.366914
vt 0.095749 0.42445
vt 0.095749 0.484532
vt 0.095749 0.539545
vt 0.095749 0.593483
vt 0.052857 0.65931
vt 0.052857 0.725233
vt 0.052857 0.779439
vt 0.052857 0.851942
vt 0.052857 0.083805
vt 0.052857 0.005073
vt 0.052857 0.145575
vt 0.052857 0.203755
vt 0.052857 0.259449
vt 0.052857 0.312962
vt 0.052857 0.366914
vt 0.052857 0.42445
vt 0.052857 0.484532
vt 0.052857 0.539545
vt 0.052857 0.593483
vt 0.003768 0.65931
vt 0.003768 0.725233
vt 0.003768 0.779439
vt 0.003768 0.851942
vt 0.003768 0.005073
vt 0.003768 0.083805
vt 0.003768 0.145575
vt 0.003768 0.203755
vt 0.003768 0.259449
vt 0.003768 0.312962
vt 0.003768 0.366914
vt 0.003768 0.42445
vt 0.003768 0.484532
vt 0.003768 0.539545
vt 0.003768 0.593483
vt 0.831444 0.157683
vt 0.831444 0.211523
vt 0.805335 0.211523
vt 0.805335 0.157683
vt 0.831444 0.277231
vt 0.805335 0.277231
vt 0.831444 0.337848
vt 0.805335 0.337848
vt 0.831444 0.395536
vt 0.805335 0.395536
vt 0.831444 0.449072
vt 0.805335 0.449072
vt 0.831444 0.498859
vt 0.805335 0.498859
vt 0.831444 0.545565
vt 0.805335 0.545565
vt 0.831444 0.589686
vt 0.805335 0.589686
vt 0.831444 0.631979
vt 0.805335 0.631979
vt 0.831444 0.673211
vt 0.805335 0.673211
vt 0.831444 0.003968
vt 0.831444 0.039596
vt 0.805335 0.039596
vt 0.805335 0.003968
vt 0.831444 0.074594
vt 0.805335 0.074594
vt 0.831444 0.113244
vt 0.805335 0.113244
vt 0.798238 0.211523
vt 0.798238 0.157683
vt 0.798238 0.277231
vt 0.798238 0.337848
vt 0.798238 0.395536
vt 0.798238 0.449072
vt 0.798238 0.498859
vt 0.798238 0.545565
vt 0.798238 0.589686
vt 0.798238 0.631979
vt 0.798238 0.673211
vt 0.798238 0.039596
vt 0.798238 0.003968
vt 0.798238 0.074594
vt 0.798238 0.113244
vt 0.766767 0.599106
vt 0.766767 0.650844
vt 0.75219 0.599106
vt 0.75219 0.650844
vt 0.766767 0.719729
vt 0.75219 0.719729
vt 0.766767 0.792522
vt 0.75219 0.792522
vt 0.766767 0.007121
vt 0.766767 0.108003
vt 0.75219 0.007121
vt 0.75219 0.108003
vt 0.766767 0.158563
vt 0.75219 0.158563
vt 0.766767 0.206246
vt 0.75219 0.206246
vt 0.766767 0.254648
vt 0.75219 0.254648
vt 0.766767 0.294772
vt 0.75219 0.294772
vt 0.766767 0.334658
vt 0.75219 0.334658
vt 0.766767 0.398455
vt 0.75219 0.398455
vt 0.766767 0.455372
vt 0.75219 0.455372
vt 0.766767 0.502005
vt 0.75219 0.502005
vt 0.766767 0.548485
vt 0.75219 0.548485
vt 0.701166 0.650844
vt 0.701166 0.599106
vt 0.701166 0.719729
vt 0.701166 0.792522
vt 0.701166 0.007121
vt 0.701166 0.108003
vt 0.701166 0.158563
vt 0.701166 0.206246
vt 0.701166 0.254648
vt 0.701166 0.294772
vt 0.701166 0.334658
vt 0.701166 0.398455
vt 0.701166 0.455372
vt 0.701166 0.502005
vt 0.701166 0.548485
vt 0.647984 0.599106
vt 0.647984 0.650844
vt 0.647984 0.719729
vt 0.647984 0.792522
vt 0.647984 0.007121
vt 0.647984 0.108003
vt 0.647984 0.158563
vt 0.647984 0.206246
vt 0.647984 0.254648
vt 0.647984 0.294772
vt 0.647984 0.334658
vt 0.647984 0.398455
vt 0.647984 0.455372
vt 0.647984 0.502005
vt 0.647984 0.548485
vt 0.568671 0.650844
vt 0.568671 0.599106
vt 0.568671 0.719729
vt 0.568671 0.792522
vt 0.568671 0.108003
vt 0.568671 0.007121
vt 0.568671 0.158563
vt 0.568671 0.206246
vt 0.568671 0.254648
vt 0.568671 0.294772
vt 0.568671 0.334658
vt 0.568671 0.398455
vt 0.568671 0.455372
vt 0.568671 0.502005
vt 0.568671 0.548485
vt 0.489319 0.650844
vt 0.489319 0.599106
vt 0.489319 0.719729
vt 0.489319 0.792522
vt 0.489319 0.108003
vt 0.489319 0.007121
vt 0.489319 0.158563
vt 0.489319 0.206246
vt 0.489319 0.254648
vt 0.489319 0.294772
vt 0.489319 0.334658
vt 0.489319 0.398455
vt 0.489319 0.455372
vt 0.489319 0.502005
vt 0.489319 0.548485
vt 0.789009 0.157683
vt 0.7851 0.157683
vt 0.789009 0.113244
vt 0.7851 0.113244
vt 0.789009 0.211523
vt 0.7851 0.211523
vt 0.789009 0.277231
vt 0.7851 0.277231
vt 0.789009 0.337848
vt 0.7851 0.337848
vt 0.789009 0.395536
vt 0.7851 0.395536
vt 0.789009 0.449072
vt 0.7851 0.449072
vt 0.7851 0.498859
vt 0.789009 0.498859
vt 0.789009 0.545565
vt 0.7851 0.545565
vt 0.7851 0.589686
vt 0.789009 0.589686
vt 0.7851 0.631979
vt 0.789009 0.631979
vt 0.789009 0.673211
vt 0.7851 0.673211
vt 0.7851 0.003968
vt 0.789009 0.003968
vt 0.789009 0.039596
vt 0.7851 0.039596
vt 0.7851 0.074594
vt 0.789009 0.074594
vt 0.887297 0.182743
vt 0.883031 0.182743
vt 0.883031 0.13756
vt 0.887297 0.13756
vt 0.883031 0.224896
vt 0.887297 0.224896
vt 0.887297 0.265096
vt 0.883031 0.265096
vt 0.883031 0.308586
vt 0.887297 0.308586
vt 0.883031 0.359286
vt 0.887297 0.359286
vt 0.887297 0.403088
vt 0.883031 0.403088
vt 0.883031 0.445652
vt 0.887297 0.445652
vt 0.887297 0.487282
vt 0.883031 0.487282
vt 0.883031 0.528247
vt 0.887297 0.528247
vt 0.887297 0.568847
vt 0.883031 0.568847
vt 0.887297 0.609473
vt 0.883031 0.609473
vt 0.883031 0.006024
vt 0.887297 0.006024
vt 0.883031 0.049866
vt 0.887297 0.049866
vt 0.887297 0.093574
vt 0.883031 0.093574
vt 0.776188 0.211523
vt 0.776188 0.157683
vt 0.776188 0.277231
vt 0.776188 0.337848
vt 0.776188 0.395536
vt 0.776188 0.449072
vt 0.776188 0.498859
vt 0.776188 0.545565
vt 0.776188 0.589686
vt 0.776188 0.631979
vt 0.776188 0.673211
vt 0.776188 0.003968
vt 0.776188 0.039596
vt 0.776188 0.074594
vt 0.776188 0.113244
vt 0.839319 0.224896
vt 0.839319 0.182743
vt 0.839319 0.265096
vt 0.839319 0.308586
vt 0.839319 0.359286
vt 0.839319 0.403088
vt 0.839319 0.445652
vt 0.839319 0.487282
vt 0.839319 0.528247
vt 0.839319 0.568847
vt 0.839319 0.609473
vt 0.839319 0.049866
vt 0.839319 0.006024
vt 0.839319 0.093574
vt 0.839319 0.13756
vt 0.395547 0.599106
vt 0.420898 0.599106
vt 0.395547 0.650844
vt 0.420898 0.650844
vt 0.450514 0.599106
vt 0.450514 0.650844
vt 0.507269 0.828268
vt 0.519334 0.853779
vt 0.519151 0.881982
vt 0.485365 0.810192
vt 0.457718 0.803724
vt 0.430045 0.809944
vt 0.407873 0.8276
vt 0.395547 0.853087
vt 0.395553 0.88135
vt 0.407726 0.906807
vt 0.429713 0.924478
vt 0.4572 0.930853
vt 0.48467 0.924734
vt 0.506791 0.90728
vt 0.450514 0.719729
vt 0.450514 0.792522
vt 0.450514 0.007121
vt 0.450514 0.108003
vt 0.450514 0.158563
vt 0.450514 0.206246
vt 0.450514 0.254648
vt 0.450514 0.294772
vt 0.450514 0.334658
vt 0.450514 0.398455
vt 0.450514 0.455372
vt 0.450514 0.502005
vt 0.450514 0.548485
vt 0.420898 0.719729
vt 0.395547 0.719729
vt 0.420898 0.792522
vt 0.395547 0.792522
vt 0.395547 0.007121
vt 0.420898 0.007121
vt 0.395547 0.108003
vt 0.420898 0.108003
vt 0.420898 0.158563
vt 0.395547 0.158563
vt 0.420898 0.206246
vt 0.395547 0.206246
vt 0.395547 0.254648
vt 0.420898 0.254648
vt 0.395547 0.294772
vt 0.420898 0.294772
vt 0.395547 0.334658
vt 0.420898 0.334658
vt 0.420898 0.398455
vt 0.395547 0.398455
vt 0.420898 0.455372
vt 0.395547 0.455372
vt 0.420898 0.502005
vt 0.395547 0.502005
vt 0.395547 0.548485
vt 0.420898 0.548485
usemtl standardSurface6SG
f 1/1/1 2/2/2 3/3/3
f 1/1/1 3/3/3 4/4/4
f 2/2/2 5/5/5 6/6/6
f 2/2/2 6/6/6 3/3/3
f 5/5/5 7/7/7 8/8/8
f 5/5/5 8/8/8 6/6/6
f 7/9/7 9/10/9 8/11/8
f 9/10/9 10/12/10 8/11/8
f 9/10/9 11/13/11 12/14/12
f 9/10/9 12/14/12 10/12/10
f 11/13/11 13/15/13 12/14/12
f 13/15/13 14/16/14 12/14/12
f 13/15/13 15/17/15 16/18/16
f 13/15/13 16/18/16 14/16/14
f 15/17/15 17/19/17 16/18/16
f 17/19/17 18/20/18 16/18/16
f 17/19/17 19/21/19 20/22/20
f 17/19/17 20/22/20 18/20/18
f 19/21/19 21/23/21 22/24/22
f 19/21/19 22/24/22 20/22/20
f 21/23/21 23/25/23 22/24/22
f 23/25/23 24/26/24 22/24/22
f 23/25/23 25/27/25 26/28/26
f 23/25/23 26/28/26 24/26/24
f 25/27/25 27/29/27 26/28/26
f 27/29/27 28/30/28 26/28/26
f 27/29/27 1/1/1 4/4/4
f 27/29/27 4/4/4 28/30/28
f 1/1/1 27/29/27 29/31/29
f 27/29/27 30/32/30 29/31/29
f 27/29/27 25/27/25 31/33/31
f 27/29/27 31/33/31 30/32/30
f 25/27/25 23/25/23 31/33/31
f 23/25/23 32/34/32 31/33/31
f 23/25/23 21/23/21 33/35/33
f 23/25/23 33/35/33 32/34/32
f 21/23/21 19/21/19 34/36/34
f 21/23/21 34/36/34 33/35/33
f 19/21/19 17/19/17 34/36/34
f 17/19/17 35/37/35 34/36/34
f 17/19/17 15/17/15 36/38/36
f 17/19/17 36/38/36 35/37/35
f 15/17/15 13/15/13 36/38/36
f 13/15/13 37/39/37 36/38/36
f 13/15/13 11/13/11 38/40/38
f 13/15/13 38/40/38 37/39/37
f 11/13/11 9/10/9 39/41/39
f 11/13/11 39/41/39 38/40/38
f 9/10/9 7/9/7 40/42/40
f 9/10/9 40/42/40 39/41/39
f 7/7/7 5/5/5 41/43/41
f 7/7/7 41/43/41 40/44/40
f 5/5/5 2/2/2 42/45/42
f 5/5/5 42/45/42 41/43/41
f 2/2/2 1/1/1 42/45/42
f 1/1/1 29/31/29 42/45/42
f 43/46/43 44/47/44 45/48/45
f 43/46/43 45/48/45 46/49/46
f 44/47/44 47/50/47 45/48/45
f 47/50/47 48/51/48 45/48/45
f 49/52/49 48/53/48 47/54/47
f 50/55/50 49/52/49 47/54/47
f 51/56/51 50/55/50 47/54/47
f 52/57/52 51/56/51 47/54/47
f 53/58/53 52/57/52 47/54/47
f 54/59/54 53/58/53 47/54/47
f 55/60/55 54/59/54 47/54/47
f 56/61/56 55/60/55 47/54/47
f 57/62/57 56/61/56 47/54/47
f 58/63/58 57/62/57 47/54/47
f 59/64/59 58/63/58 47/54/47
f 60/65/60 59/64/59 47/54/47
f 29/31/29 30/32/30 43/46/43
f 29/31/29 43/46/43 46/49/46
f 30/32/30 31/33/31 61/66/61
f 30/32/30 61/66/61 43/46/43
f 31/33/31 32/34/32 62/67/62
f 31/33/31 62/67/62 61/66/61
f 32/34/32 33/35/33 63/68/63
f 32/34/32 63/68/63 62/67/62
f 33/35/33 34/36/34 64/69/64
f 33/35/33 64/69/64 63/68/63
f 34/36/34 35/37/35 65/70/65
f 34/36/34 65/70/65 64/69/64
f 35/37/35 36/38/36 66/71/66
f 35/37/35 66/71/66 65/70/65
f 36/38/36 37/39/37 67/72/67
f 36/38/36 67/72/67 66/71/66
f 37/39/37 38/40/38 68/73/68
f 37/39/37 68/73/68 67/72/67
f 38/40/38 39/41/39 69/74/69
f 38/40/38 69/74/69 68/73/68
f 39/41/39 40/42/40 70/75/70
f 39/41/39 70/75/70 69/74/69
f 40/44/40 41/43/41 71/76/71
f 40/44/40 71/76/71 70/77/70
f 41/43/41 42/45/42 72/78/72
f 41/43/41 72/78/72 71/76/71
f 42/45/42 29/31/29 46/49/46
f 42/45/42 46/49/46 72/78/72
f 47/50/47 44/47/44 73/79/73
f 47/50/47 73/79/73 60/80/60
f 44/47/44 43/46/43 73/79/73
f 43/46/43 61/66/61 73/79/73
f 60/80/60 73/79/73 74/81/74
f 60/80/60 74/81/74 59/82/59
f 73/79/73 61/66/61 62/67/62
f 73/79/73 62/67/62 74/81/74
f 59/82/59 74/81/74 58/83/58
f 74/81/74 75/84/75 58/83/58
f 74/81/74 62/67/62 63/68/63
f 74/81/74 63/68/63 75/84/75
f 58/83/58 75/84/75 76/85/76
f 58/83/58 76/85/76 57/86/57
f 75/84/75 63/68/63 76/85/76
f 63/68/63 64/69/64 76/85/76
f 57/86/57 76/85/76 77/87/77
f 57/86/57 77/87/77 56/88/56
f 76/85/76 64/69/64 77/87/77
f 64/69/64 65/70/65 77/87/77
f 56/88/56 77/87/77 55/89/55
f 77/87/77 78/90/78 55/89/55
f 77/87/77 65/70/65 78/90/78
f 65/70/65 66/71/66 78/90/78
f 55/89/55 78/90/78 79/91/79
f 55/89/55 79/91/79 54/92/54
f 78/90/78 66/71/66 67/72/67
f 78/90/78 67/72/67 79/91/79
f 54/92/54 79/91/79 53/93/53
f 79/91/79 80/94/80 53/93/53
f 79/91/79 67/72/67 80/94/80
f 67/72/67 68/73/68 80/94/80
f 53/93/53 80/94/80 81/95/81
f 53/93/53 81/95/81 52/96/52
f 80/94/80 68/73/68 69/74/69
f 80/94/80 69/74/69 81/95/81
f 52/96/52 81/95/81 51/97/51
f 81/95/81 82/98/82 51/97/51
f 81/95/81 69/74/69 82/98/82
f 69/74/69 70/75/70 82/98/82
f 51/99/51 82/100/82 50/101/50
f 82/100/82 83/102/83 50/101/50
f 82/100/82 70/77/70 83/102/83
f 70/77/70 71/76/71 83/102/83
f 50/101/50 83/102/83 49/103/49
f 83/102/83 84/104/84 49/103/49
f 83/102/83 71/76/71 72/78/72
f 83/102/83 72/78/72 84/104/84
f 46/49/46 45/48/45 72/78/72
f 45/48/45 84/104/84 72/78/72
f 45/48/45 48/51/48 84/104/84
f 48/51/48 49/103/49 84/104/84
f 4/4/4 3/3/3 85/105/85
f 4/4/4 85/105/85 86/106/86
f 3/3/3 6/6/6 85/105/85
f 6/6/6 87/107/87 85/105/85
f 6/6/6 8/8/8 88/108/88
f 6/6/6 88/108/88 87/107/87
f 8/11/8 10/12/10 89/109/89
f 8/11/8 89/109/89 88/110/88
f 10/12/10 12/14/12 90/111/90
f 10/12/10 90/111/90 89/109/89
f 12/14/12 14/16/14 90/111/90
f 14/16/14 91/112/91 90/111/90
f 14/16/14 16/18/16 92/113/92
f 14/16/14 92/113/92 91/112/91
f 16/18/16 18/20/18 92/113/92
f 18/20/18 93/114/93 92/113/92
f 18/20/18 20/22/20 93/114/93
f 20/22/20 94/115/94 93/114/93
f 20/22/20 22/24/22 95/116/95
f 20/22/20 95/116/95 94/115/94
f 22/24/22 24/26/24 96/117/96
f 22/24/22 96/117/96 95/116/95
f 24/26/24 26/28/26 97/118/97
f 24/26/24 97/118/97 96/117/96
f 26/28/26 28/30/28 98/119/98
f 26/28/26 98/119/98 97/118/97
f 28/30/28 4/4/4 98/119/98
f 4/4/4 86/106/86 98/119/98
f 86/106/86 85/105/85 99/120/99
f 85/105/85 100/121/100 99/120/99
f 85/105/85 87/107/87 101/122/101
f 85/105/85 101/122/101 100/121/100
f 87/107/87 88/108/88 102/123/102
f 87/107/87 102/123/102 101/122/101
f 88/110/88 89/109/89 102/124/102
f 89/109/89 103/125/103 102/124/102
f 89/109/89 90/111/90 104/126/104
f 89/109/89 104/126/104 103/125/103
f 90/111/90 91/112/91 105/127/105
f 90/111/90 105/127/105 104/126/104
f 91/112/91 92/113/92 105/127/105
f 92/113/92 106/128/106 105/127/105
f 92/113/92 93/114/93 106/128/106
f 93/114/93 107/129/107 106/128/106
f 93/114/93 94/115/94 108/130/108
f 93/114/93 108/130/108 107/129/107
f 94/115/94 95/116/95 109/131/109
f 94/115/94 109/131/109 108/130/108
f 95/116/95 96/117/96 109/131/109
f 96/117/96 110/132/110 109/131/109
f 96/117/96 97/118/97 111/133/111
f 96/117/96 111/133/111 110/132/110
f 97/118/97 98/119/98 112/134/112
f 97/118/97 112/134/112 111/133/111
f 98/119/98 86/106/86 112/134/112
f 86/106/86 99/120/99 112/134/112
f 99/120/99 100/121/100 113/135/113
f 100/121/100 114/136/114 113/135/113
f 100/121/100 101/122/101 114/136/114
f 101/122/101 115/137/115 114/136/114
f 101/122/101 102/123/102 116/138/116
f 101/122/101 116/138/116 115/137/115
f 102/124/102 103/125/103 117/139/117
f 102/124/102 117/139/117 116/140/116
f 103/125/103 104/126/104 118/141/118
f 103/125/103 118/141/118 117/139/117
f 104/126/104 105/127/105 118/141/118
f 105/127/105 119/142/119 118/141/118
f 105/127/105 106/128/106 120/143/120
f 105/127/105 120/143/120 119/142/119
f 106/128/106 107/129/107 121/144/121
f 106/128/106 121/144/121 120/143/120
f 107/129/107 108/130/108 121/144/121
f 108/130/108 122/145/122 121/144/121
f 108/130/108 109/131/109 123/146/123
f 108/130/108 123/146/123 122/145/122
f 109/131/109 110/132/110 124/147/124
f 109/131/109 124/147/124 123/146/123
f 110/132/110 111/133/111 124/147/124
f 111/133/111 125/148/125 124/147/124
f 111/133/111 112/134/112 125/148/125
f 112/134/112 126/149/126 125/148/125
f 112/134/112 99/120/99 113/135/113
f 112/134/112 113/135/113 126/149/126
f 113/135/113 114/136/114 127/150/127
f 114/136/114 128/151/128 127/150/127
f 114/136/114 115/137/115 128/151/128
f 115/137/115 129/152/129 128/151/128
f 115/137/115 116/138/116 130/153/130
f 115/137/115 130/153/130 129/152/129
f 116/140/116 117/139/117 130/154/130
f 117/139/117 131/155/131 130/154/130
f 117/139/117 118/141/118 132/156/132
f 117/139/117 132/156/132 131/155/131
f 118/141/118 119/142/119 133/157/133
f 118/141/118 133/157/133 132/156/132
f 119/142/119 120/143/120 133/157/133
f 120/143/120 134/158/134 133/157/133
f 120/143/120 121/144/121 134/158/134
f 121/144/121 135/159/135 134/158/134
f 121/144/121 122/145/122 136/160/136
f 121/144/121 136/160/136 135/159/135
f 122/145/122 123/146/123 137/161/137
f 122/145/122 137/161/137 136/160/136
f 123/146/123 124/147/124 137/161/137
f 124/147/124 138/162/138 137/161/137
f 124/147/124 125/148/125 139/163/139
f 124/147/124 139/163/139 138/162/138
f 125/148/125 126/149/126 139/163/139
f 126/149/126 140/164/140 139/163/139
f 126/149/126 113/135/113 127/150/127
f 126/149/126 127/150/127 140/164/140
f 127/165/127 128/166/128 141/167/141
f 127/165/127 141/167/141 142/168/142
f 128/166/128 129/169/129 143/170/143
f 128/166/128 143/170/143 141/167/141
f 129/169/129 130/171/130 144/172/144
f 129/169/129 144/172/144 143/170/143
f 130/171/130 131/173/131 145/174/145
f 130/171/130 145/174/145 144/172/144
f 131/173/131 132/175/132 146/176/146
f 131/173/131 146/176/146 145/174/145
f 132/175/132 133/177/133 147/178/147
f 132/175/132 147/178/147 146/176/146
f 133/177/133 134/179/134 148/180/148
f 133/177/133 148/180/148 147/178/147
f 134/179/134 135/181/135 149/182/149
f 134/179/134 149/182/149 148/180/148
f 135/181/135 136/183/136 150/184/150
f 135/181/135 150/184/150 149/182/149
f 136/183/136 137/185/137 151/186/151
f 136/183/136 151/186/151 150/184/150
f 137/187/137 138/188/138 152/189/152
f 137/187/137 152/189/152 151/190/151
f 138/188/138 139/191/139 153/192/153
f 138/188/138 153/192/153 152/189/152
f 139/191/139 140/193/140 154/194/154
f 139/191/139 154/194/154 153/192/153
f 140/193/140 127/165/127 142/168/142
f 140/193/140 142/168/142 154/194/154
f 142/168/142 141/167/141 155/195/155
f 142/168/142 155/195/155 156/196/156
f 141/167/141 143/170/143 157/197/157
f 141/167/141 157/197/157 155/195/155
f 143/170/143 144/172/144 158/198/158
f 143/170/143 158/198/158 157/197/157
f 144/172/144 145/174/145 158/198/158
f 145/174/145 159/199/159 158/198/158
f 145/174/145 146/176/146 159/199/159
f 146/176/146 160/200/160 159/199/159
f 146/176/146 147/178/147 160/200/160
f 147/178/147 161/201/161 160/200/160
f 147/178/147 148/180/148 162/202/162
f 147/178/147 162/202/162 161/201/161
f 148/180/148 149/182/149 163/203/163
f 148/180/148 163/203/163 162/202/162
f 149/182/149 150/184/150 163/203/163
f 150/184/150 164/204/164 163/203/163
f 150/184/150 151/186/151 165/205/165
f 150/184/150 165/205/165 164/204/164
f 151/190/151 152/189/152 166/206/166
f 151/190/151 166/206/166 165/207/165
f 152/189/152 153/192/153 166/206/166
f 153/192/153 167/208/167 166/206/166
f 153/192/153 154/194/154 168/209/168
f 153/192/153 168/209/168 167/208/167
f 154/194/154 142/168/142 168/209/168
f 142/168/142 156/196/156 168/209/168
f 169/210/169 170/211/170 171/212/171
f 170/211/170 172/213/172 171/212/171
f 170/211/170 173/214/173 174/215/174
f 170/211/170 174/215/174 172/213/172
f 173/214/173 175/216/175 176/217/176
f 173/214/173 176/217/176 174/215/174
f 175/218/175 177/219/177 176/220/176
f 177/219/177 178/221/178 176/220/176
f 177/219/177 179/222/179 178/221/178
f 179/222/179 180/223/180 178/221/178
f 179/222/179 181/224/181 182/225/182
f 179/222/179 182/225/182 180/223/180
f 181/224/181 183/226/183 182/225/182
f 183/226/183 184/227/184 182/225/182
f 183/226/183 185/228/185 186/229/186
f 183/226/183 186/229/186 184/227/184
f 185/228/185 187/230/187 186/229/186
f 187/230/187 188/231/188 186/229/186
f 187/230/187 189/232/189 190/233/190
f 187/230/187 190/233/190 188/231/188
f 189/232/189 191/234/191 192/235/192
f 189/232/189 192/235/192 190/233/190
f 191/234/191 193/236/193 194/237/194
f 191/234/191 194/237/194 192/235/192
f 193/236/193 195/238/195 194/237/194
f 195/238/195 196/239/196 194/237/194
f 195/238/195 169/210/169 171/212/171
f 195/238/195 171/212/171 196/239/196
f 171/212/171 172/213/172 197/240/197
f 171/212/171 197/240/197 198/241/198
f 172/213/172 174/215/174 199/242/199
f 172/213/172 199/242/199 197/240/197
f 174/215/174 176/217/176 200/243/200
f 174/215/174 200/243/200 199/242/199
f 176/220/176 178/221/178 200/244/200
f 178/221/178 201/245/201 200/244/200
f 178/221/178 180/223/180 202/246/202
f 178/221/178 202/246/202 201/245/201
f 180/223/180 182/225/182 202/246/202
f 182/225/182 203/247/203 202/246/202
f 182/225/182 184/227/184 204/248/204
f 182/225/182 204/248/204 203/247/203
f 184/227/184 186/229/186 204/248/204
f 186/229/186 205/249/205 204/248/204
f 186/229/186 188/231/188 206/250/206
f 186/229/186 206/250/206 205/249/205
f 188/231/188 190/233/190 207/251/207
f 188/231/188 207/251/207 206/250/206
f 190/233/190 192/235/192 207/251/207
f 192/235/192 208/252/208 207/251/207
f 192/235/192 194/237/194 209/253/209
f 192/235/192 209/253/209 208/252/208
f 194/237/194 196/239/196 210/254/210
f 194/237/194 210/254/210 209/253/209
f 196/239/196 171/212/171 210/254/210
f 171/212/171 198/241/198 210/254/210
f 198/241/198 197/240/197 211/255/211
f 197/240/197 212/256/212 211/255/211
f 197/240/197 199/242/199 213/257/213
f 197/240/197 213/257/213 212/256/212
f 199/242/199 200/243/200 214/258/214
f 199/242/199 214/258/214 213/257/213
f 200/244/200 201/245/201 214/259/214
f 201/245/201 215/260/215 214/259/214
f 201/245/201 202/246/202 216/261/216
f 201/245/201 216/261/216 215/260/215
f 202/246/202 203/247/203 217/262/217
f 202/246/202 217/262/217 216/261/216
f 203/247/203 204/248/204 217/262/217
f 204/248/204 218/263/218 217/262/217
f 204/248/204 205/249/205 218/263/218
f 205/249/205 219/264/219 218/263/218
f 205/249/205 206/250/206 219/264/219
f 206/250/206 220/265/220 219/264/219
f 206/250/206 207/251/207 221/266/221
f 206/250/206 221/266/221 220/265/220
f 207/251/207 208/252/208 222/267/222
f 207/251/207 222/267/222 221/266/221
f 208/252/208 209/253/209 223/268/223
f 208/252/208 223/268/223 222/267/222
f 209/253/209 210/254/210 223/268/223
f 210/254/210 224/269/224 223/268/223
f 210/254/210 198/241/198 211/255/211
f 210/254/210 211/255/211 224/269/224
f 211/255/211 212/256/212 225/270/225
f 211/255/211 225/270/225 226/271/226
f 212/256/212 213/257/213 225/270/225
f 213/257/213 227/272/227 225/270/225
f 213/257/213 214/258/214 228/273/228
f 213/257/213 228/273/228 227/272/227
f 214/259/214 215/260/215 229/274/229
f 214/259/214 229/274/229 228/275/228
f 215/260/215 216/261/216 229/274/229
f 216/261/216 230/276/230 229/274/229
f 216/261/216 217/262/217 231/277/231
f 216/261/216 231/277/231 230/276/230
f 217/262/217 218/263/218 231/277/231
f 218/263/218 232/278/232 231/277/231
f 218/263/218 219/264/219 233/279/233
f 218/263/218 233/279/233 232/278/232
f 219/264/219 220/265/220 234/280/234
f 219/264/219 234/280/234 233/279/233
f 220/265/220 221/266/221 235/281/235
f 220/265/220 235/281/235 234/280/234
f 221/266/221 222/267/222 235/281/235
f 222/267/222 236/282/236 235/281/235
f 222/267/222 223/268/223 237/283/237
f 222/267/222 237/283/237 236/282/236
f 223/268/223 224/269/224 237/283/237
f 224/269/224 238/284/238 237/283/237
f 224/269/224 211/255/211 226/271/226
f 224/269/224 226/271/226 238/284/238
f 226/271/226 225/270/225 239/285/239
f 226/271/226 239/285/239 240/286/240
f 225/270/225 227/272/227 239/285/239
f 227/272/227 241/287/241 239/285/239
f 227/272/227 228/273/228 242/288/242
f 227/272/227 242/288/242 241/287/241
f 228/275/228 229/274/229 243/289/243
f 228/275/228 243/289/243 242/290/242
f 229/274/229 230/276/230 243/289/243
f 230/276/230 244/291/244 243/289/243
f 230/276/230 231/277/231 244/291/244
f 231/277/231 245/292/245 244/291/244
f 231/277/231 232/278/232 246/293/246
f 231/277/231 246/293/246 245/292/245
f 232/278/232 233/279/233 247/294/247
f 232/278/232 247/294/247 246/293/246
f 233/279/233 234/280/234 247/294/247
f 234/280/234 248/295/248 247/294/247
f 234/280/234 235/281/235 249/296/249
f 234/280/234 249/296/249 248/295/248
f 235/281/235 236/282/236 250/297/250
f 235/281/235 250/297/250 249/296/249
f 236/282/236 237/283/237 250/297/250
f 237/283/237 251/298/251 250/297/250
f 237/283/237 238/284/238 252/299/252
f 237/283/237 252/299/252 251/298/251
f 238/284/238 226/271/226 252/299/252
f 226/271/226 240/286/240 252/299/252
f 253/300/253 254/301/254 255/302/255
f 254/301/254 256/303/256 255/302/255
f 254/301/254 253/300/253 257/304/257
f 254/301/254 257/304/257 258/305/258
f 258/305/258 257/304/257 259/306/259
f 258/305/258 259/306/259 260/307/260
f 260/307/260 259/306/259 261/308/261
f 260/307/260 261/308/261 262/309/262
f 262/309/262 261/308/261 263/310/263
f 262/309/262 263/310/263 264/311/264
f 264/311/264 263/310/263 265/312/265
f 264/311/264 265/312/265 266/313/266
f 266/313/266 265/312/265 267/314/267
f 265/312/265 268/315/268 267/314/267
f 267/314/267 268/315/268 269/316/269
f 267/314/267 269/316/269 270/317/270
f 270/317/270 269/316/269 271/318/271
f 269/316/269 272/319/272 271/318/271
f 271/318/271 272/319/272 273/320/273
f 272/319/272 274/321/274 273/320/273
f 273/320/273 274/321/274 275/322/275
f 273/320/273 275/322/275 276/323/276
f 276/324/276 275/325/275 277/326/277
f 276/324/276 277/326/277 278/327/278
f 278/327/278 277/326/277 279/328/279
f 277/326/277 280/329/280 279/328/279
f 279/328/279 280/329/280 255/302/255
f 279/328/279 255/302/255 256/303/256
f 281/330/281 282/331/282 283/332/283
f 281/330/281 283/332/283 284/333/284
f 282/331/282 281/330/281 285/334/285
f 281/330/281 286/335/286 285/334/285
f 285/334/285 286/335/286 287/336/287
f 285/334/285 287/336/287 288/337/288
f 288/337/288 287/336/287 289/338/289
f 287/336/287 290/339/290 289/338/289
f 289/338/289 290/339/290 291/340/291
f 290/339/290 292/341/292 291/340/291
f 291/340/291 292/341/292 293/342/293
f 291/340/291 293/342/293 294/343/294
f 294/343/294 293/342/293 295/344/295
f 293/342/293 296/345/296 295/344/295
f 295/344/295 296/345/296 297/346/297
f 295/344/295 297/346/297 298/347/298
f 298/347/298 297/346/297 299/348/299
f 297/346/297 300/349/300 299/348/299
f 299/348/299 300/349/300 301/350/301
f 299/348/299 301/350/301 302/351/302
f 302/351/302 301/350/301 303/352/303
f 302/351/302 303/352/303 304/353/304
f 304/354/304 303/355/303 305/356/305
f 303/355/303 306/357/306 305/356/305
f 305/356/305 306/357/306 307/358/307
f 305/356/305 307/358/307 308/359/308
f 308/359/308 307/358/307 283/332/283
f 307/358/307 284/333/284 283/332/283
f 156/196/156 155/195/155 257/304/257
f 156/196/156 257/304/257 253/300/253
f 155/195/155 157/197/157 259/306/259
f 155/195/155 259/306/259 257/304/257
f 157/197/157 158/198/158 261/308/261
f 157/197/157 261/308/261 259/306/259
f 158/198/158 159/199/159 263/310/263
f 158/198/158 263/310/263 261/308/261
f 159/199/159 160/200/160 265/312/265
f 159/199/159 265/312/265 263/310/263
f 160/200/160 161/201/161 268/315/268
f 160/200/160 268/315/268 265/312/265
f 161/201/161 162/202/162 269/316/269
f 161/201/161 269/316/269 268/315/268
f 162/202/162 163/203/163 272/319/272
f 162/202/162 272/319/272 269/316/269
f 163/203/163 164/204/164 274/321/274
f 163/203/163 274/321/274 272/319/272
f 164/204/164 165/205/165 275/322/275
f 164/204/164 275/322/275 274/321/274
f 165/207/165 166/206/166 277/326/277
f 165/207/165 277/326/277 275/325/275
f 166/206/166 167/208/167 280/329/280
f 166/206/166 280/329/280 277/326/277
f 167/208/167 168/209/168 255/302/255
f 167/208/167 255/302/255 280/329/280
f 168/209/168 156/196/156 253/300/253
f 168/209/168 253/300/253 255/302/255
f 254/301/254 258/305/258 286/360/286
f 254/301/254 286/360/286 281/361/281
f 258/305/258 260/307/260 286/360/286
f 260/307/260 287/362/287 286/360/286
f 260/307/260 262/309/262 290/363/290
f 260/307/260 290/363/290 287/362/287
f 262/309/262 264/311/264 292/364/292
f 262/309/262 292/364/292 290/363/290
f 264/311/264 266/313/266 293/365/293
f 264/311/264 293/365/293 292/364/292
f 266/313/266 267/314/267 293/365/293
f 267/314/267 296/366/296 293/365/293
f 267/314/267 270/317/270 297/367/297
f 267/314/267 297/367/297 296/366/296
f 270/317/270 271/318/271 297/367/297
f 271/318/271 300/368/300 297/367/297
f 271/318/271 273/320/273 300/368/300
f 273/320/273 301/369/301 300/368/300
f 273/320/273 276/323/276 303/370/303
f 273/320/273 303/370/303 301/369/301
f 276/324/276 278/327/278 303/371/303
f 278/327/278 306/372/306 303/371/303
f 278/327/278 279/328/279 306/372/306
f 279/328/279 307/373/307 306/372/306
f 279/328/279 256/303/256 284/374/284
f 279/328/279 284/374/284 307/373/307
f 256/303/256 254/301/254 284/374/284
f 254/301/254 281/361/281 284/374/284
f 282/331/282 285/334/285 170/375/170
f 282/331/282 170/375/170 169/376/169
f 285/334/285 288/337/288 173/377/173
f 285/334/285 173/377/173 170/375/170
f 288/337/288 289/338/289 175/378/175
f 288/337/288 175/378/175 173/377/173
f 289/338/289 291/340/291 177/379/177
f 289/338/289 177/379/177 175/378/175
f 291/340/291 294/343/294 179/380/179
f 291/340/291 179/380/179 177/379/177
f 294/343/294 295/344/295 181/381/181
f 294/343/294 181/381/181 179/380/179
f 295/344/295 298/347/298 183/382/183
f 295/344/295 183/382/183 181/381/181
f 298/347/298 299/348/299 185/383/185
f 298/347/298 185/383/185 183/382/183
f 299/348/299 302/351/302 187/384/187
f 299/348/299 187/384/187 185/383/185
f 302/351/302 304/353/304 189/385/189
f 302/351/302 189/385/189 187/384/187
f 304/354/304 305/356/305 191/386/191
f 304/354/304 191/386/191 189/387/189
f 305/356/305 308/359/308 193/388/193
f 305/356/305 193/388/193 191/386/191
f 308/359/308 283/332/283 195/389/195
f 308/359/308 195/389/195 193/388/193
f 283/332/283 282/331/282 169/376/169
f 283/332/283 169/376/169 195/389/195
f 309/390/309 310/391/310 311/392/311
f 310/391/310 312/393/312 311/392/311
f 310/391/313 313/394/314 314/395/315
f 310/391/313 314/395/315 312/393/316
f 315/396/317 309/397/309 311/398/311
f 316/399/318 315/396/317 311/398/311
f 317/400/319 316/399/318 311/398/311
f 318/401/320 317/400/319 311/398/311
f 319/402/321 318/401/320 311/398/311
f 320/403/322 319/402/321 311/398/311
f 321/404/323 320/403/322 311/398/311
f 322/405/324 321/404/323 311/398/311
f 323/406/325 322/405/324 311/398/311
f 324/407/326 323/406/325 311/398/311
f 325/408/327 324/407/326 311/398/311
f 326/409/328 325/408/327 311/398/311
f 240/286/240 239/285/239 314/395/315
f 240/286/240 314/395/315 313/394/314
f 239/285/239 241/287/241 327/410/329
f 239/285/239 327/410/329 314/395/315
f 241/287/241 242/288/242 328/411/330
f 241/287/241 328/411/330 327/410/329
f 242/290/242 243/289/243 328/412/330
f 243/289/243 329/413/331 328/412/330
f 243/289/243 244/291/244 329/413/331
f 244/291/244 330/414/332 329/413/331
f 244/291/244 245/292/245 331/415/333
f 244/291/244 331/415/333 330/414/332
f 245/292/245 246/293/246 331/415/333
f 246/293/246 332/416/334 331/415/333
f 246/293/246 247/294/247 333/417/335
f 246/293/246 333/417/335 332/416/334
f 247/294/247 248/295/248 334/418/336
f 247/294/247 334/418/336 333/417/335
f 248/295/248 249/296/249 335/419/337
f 248/295/248 335/419/337 334/418/336
f 249/296/249 250/297/250 335/419/337
f 250/297/250 336/420/338 335/419/337
f 250/297/250 251/298/251 336/420/338
f 251/298/251 337/421/339 336/420/338
f 251/298/251 252/299/252 338/422/340
f 251/298/251 338/422/340 337/421/339
f 252/299/252 240/286/240 338/422/340
f 240/286/240 313/394/314 338/422/340
f 311/392/311 312/393/312 339/423/341
f 311/392/311 339/423/341 326/424/328
f 312/393/316 314/395/315 339/423/342
f 314/395/315 327/410/329 339/423/342
f 326/424/328 339/423/341 340/425/343
f 326/424/328 340/425/343 325/426/327
f 339/423/342 327/410/329 328/411/330
f 339/423/342 328/411/330 340/425/344
f 325/427/327 340/428/343 324/429/326
f 340/428/343 341/430/345 324/429/326
f 340/428/344 328/412/330 329/413/331
f 340/428/344 329/413/331 341/430/346
f 324/429/326 341/430/345 342/431/347
f 324/429/326 342/431/347 323/432/325
f 341/430/346 329/413/331 342/431/348
f 329/413/331 330/414/332 342/431/348
f 323/432/325 342/431/347 343/433/349
f 323/432/325 343/433/349 322/434/324
f 342/431/348 330/414/332 331/415/333
f 342/431/348 331/415/333 343/433/350
f 322/434/324 343/433/349 321/435/323
f 343/433/349 344/436/351 321/435/323
f 343/433/350 331/415/333 344/436/352
f 331/415/333 332/416/334 344/436/352
f 321/435/323 344/436/351 320/437/322
f 344/436/351 345/438/353 320/437/322
f 344/436/352 332/416/334 333/417/335
f 344/436/352 333/417/335 345/438/354
f 320/437/322 345/438/353 319/439/321
f 345/438/353 346/440/355 319/439/321
f 345/438/354 333/417/335 334/418/336
f 345/438/354 334/418/336 346/440/356
f 319/439/321 346/440/355 347/441/357
f 319/439/321 347/441/357 318/442/320
f 346/440/356 334/418/336 347/441/358
f 334/418/336 335/419/337 347/441/358
f 318/442/320 347/441/357 348/443/359
f 318/442/320 348/443/359 317/444/319
f 347/441/358 335/419/337 348/443/360
f 335/419/337 336/420/338 348/443/360
f 317/444/319 348/443/359 349/445/361
f 317/444/319 349/445/361 316/446/318
f 348/443/360 336/420/338 349/445/362
f 336/420/338 337/421/339 349/445/362
f 316/446/318 349/445/361 315/447/317
f 349/445/361 350/448/363 315/447/317
f 349/445/362 337/421/339 338/422/340
f 349/445/362 338/422/340 350/448/364
f 313/394/314 310/391/313 338/422/340
f 310/391/313 350/448/364 338/422/340
f 310/391/310 309/390/309 315/447/317
f 310/391/310 315/447/317 350/448/363
s off
g Jar_standardSurface5SG
v 7.58628 6.16969 -12.7619
v 7.58218 6.15316 -12.76
v 7.44045 6.15316 -12.9377
v 7.44329 6.16969 -12.9412
v 7.57099 6.14105 -12.7546
v 7.43271 6.14105 -12.928
v 7.55571 6.13662 -12.7472
v 7.42213 6.13662 -12.9147
v 7.44329 6.19806 -12.9412
v 7.44045 6.21459 -12.9377
v 7.58628 6.19806 -12.7619
v 7.58218 6.21459 -12.76
v 7.43271 6.2267 -12.928
v 7.57099 6.2267 -12.7546
v 7.42213 6.23113 -12.9147
v 7.55571 6.23113 -12.7472
v 7.23666 6.16969 -13.0407
v 7.23666 6.19806 -13.0407
v 7.00733 6.16969 -13.0407
v 7.00733 6.19806 -13.0407
v 6.80071 6.16969 -12.9412
v 6.80071 6.19806 -12.9412
v 6.65772 6.16969 -12.7619
v 6.65772 6.19806 -12.7619
v 6.60669 6.16969 -12.5383
v 6.60669 6.19806 -12.5383
v 6.65772 6.16969 -12.3148
v 6.65772 6.19806 -12.3148
v 6.80071 6.16969 -12.1355
v 6.80071 6.19806 -12.1355
v 7.00733 6.16969 -12.036
v 7.00733 6.19806 -12.036
v 7.23666 6.16969 -12.036
v 7.23666 6.19806 -12.036
v 7.44329 6.16969 -12.1355
v 7.44329 6.19806 -12.1355
v 7.58628 6.16969 -12.3148
v 7.58628 6.19806 -12.3148
v 7.63731 6.16969 -12.5383
v 7.63731 6.19806 -12.5383
v 7.49386 6.13662 -12.7174
v 7.37934 6.13662 -12.861
v 7.37934 6.23113 -12.861
v 7.49386 6.23113 -12.7174
v 7.21384 6.13662 -12.9407
v 7.22912 6.13662 -13.0077
v 7.21384 6.23113 -12.9407
v 7.22912 6.23113 -13.0077
v 7.03015 6.13662 -12.9407
v 7.01488 6.13662 -13.0077
v 7.03015 6.23113 -12.9407
v 7.01488 6.23113 -13.0077
v 6.86466 6.13662 -12.861
v 6.82186 6.13662 -12.9147
v 6.86466 6.23113 -12.861
v 6.82186 6.23113 -12.9147
v 6.75013 6.13662 -12.7174
v 6.68828 6.13662 -12.7472
v 6.75013 6.23113 -12.7174
v 6.68828 6.23113 -12.7472
v 6.70926 6.13662 -12.5383
v 6.64061 6.13662 -12.5383
v 6.70926 6.23113 -12.5383
v 6.64061 6.23113 -12.5383
v 6.75013 6.13662 -12.3593
v 6.68828 6.13662 -12.3295
v 6.75013 6.23113 -12.3593
v 6.68828 6.23113 -12.3295
v 6.86466 6.13662 -12.2157
v 6.82186 6.13662 -12.162
v 6.86466 6.23113 -12.2157
v 6.82186 6.23113 -12.162
v 7.03015 6.13662 -12.136
v 7.01488 6.13662 -12.069
v 7.03015 6.23113 -12.136
v 7.01488 6.23113 -12.069
v 7.21384 6.13662 -12.136
v 7.22912 6.13662 -12.069
v 7.21384 6.23113 -12.136
v 7.22912 6.23113 -12.069
v 7.37934 6.13662 -12.2157
v 7.42213 6.13662 -12.162
v 7.37934 6.23113 -12.2157
v 7.42213 6.23113 -12.162
v 7.49386 6.13662 -12.3593
v 7.55571 6.13662 -12.3295
v 7.49386 6.23113 -12.3593
v 7.55571 6.23113 -12.3295
v 7.53474 6.13662 -12.5383
v 7.60338 6.13662 -12.5383
v 7.53474 6.23113 -12.5383
v 7.60338 6.23113 -12.5383
v 7.23289 6.14105 -13.0242
v 7.23565 6.15316 -13.0363
v 7.23565 6.21459 -13.0363
v 7.23289 6.2267 -13.0242
v 7.01111 6.14105 -13.0242
v 7.00834 6.15316 -13.0363
v 7.00834 6.21459 -13.0363
v 7.01111 6.2267 -13.0242
v 6.81128 6.14105 -12.928
v 6.80354 6.15316 -12.9377
v 6.80354 6.21459 -12.9377
v 6.81128 6.2267 -12.928
v 6.673 6.14105 -12.7546
v 6.66181 6.15316 -12.76
v 6.66181 6.21459 -12.76
v 6.673 6.2267 -12.7546
v 6.62365 6.14105 -12.5383
v 6.61123 6.15316 -12.5383
v 6.61123 6.21459 -12.5383
v 6.62365 6.2267 -12.5383
v 6.673 6.14105 -12.3221
v 6.66181 6.15316 -12.3167
v 6.66181 6.21459 -12.3167
v 6.673 6.2267 -12.3221
v 6.81128 6.14105 -12.1487
v 6.80354 6.15316 -12.139
v 6.80354 6.21459 -12.139
v 6.81128 6.2267 -12.1487
v 7.01111 6.14105 -12.0525
v 7.00834 6.15316 -12.0404
v 7.00834 6.21459 -12.0404
v 7.01111 6.2267 -12.0525
v 7.23289 6.14105 -12.0525
v 7.23565 6.15316 -12.0404
v 7.23565 6.21459 -12.0404
v 7.23289 6.2267 -12.0525
v 7.43271 6.14105 -12.1487
v 7.44045 6.15316 -12.139
v 7.44045 6.21459 -12.139
v 7.43271 6.2267 -12.1487
v 7.57099 6.14105 -12.3221
v 7.58218 6.15316 -12.3167
v 7.58218 6.21459 -12.3167
v 7.57099 6.2267 -12.3221
v 7.62035 6.14105 -12.5383
v 7.63276 6.15316 -12.5383
v 7.63276 6.21459 -12.5383
v 7.62035 6.2267 -12.5383
v 7.49386 6.04358 -12.7174
v 7.37934 6.04358 -12.861
v 7.21384 6.04358 -12.9407
v 7.03015 6.04358 -12.9407
v 6.86466 6.04358 -12.861
v 6.75013 6.04358 -12.7174
v 6.70926 6.04358 -12.5383
v 6.75013 6.04358 -12.3593
v 6.86466 6.04358 -12.2157
v 7.03015 6.04358 -12.136
v 7.21384 6.04358 -12.136
v 7.37934 6.04358 -12.2157
v 7.49386 6.04358 -12.3593
v 7.53474 6.04358 -12.5383
v 7.49098 6.03195 -12.716
v 7.53154 6.03195 -12.5383
v 7.47237 6.02032 -12.7071
v 7.48312 6.02344 -12.7123
v 7.51088 6.02032 -12.5383
v 7.52281 6.02344 -12.5383
v 7.37734 6.03195 -12.8585
v 7.3719 6.02344 -12.8517
v 7.36446 6.02032 -12.8424
v 7.21313 6.03195 -12.9376
v 7.21119 6.02344 -12.9291
v 7.20853 6.02032 -12.9175
v 7.03087 6.03195 -12.9376
v 7.03281 6.02344 -12.9291
v 7.03546 6.02032 -12.9175
v 6.86665 6.03195 -12.8585
v 6.8721 6.02344 -12.8517
v 6.87953 6.02032 -12.8424
v 6.75301 6.03195 -12.716
v 6.76088 6.02344 -12.7123
v 6.77163 6.02032 -12.7071
v 6.71245 6.03195 -12.5383
v 6.72119 6.02344 -12.5383
v 6.73312 6.02032 -12.5383
v 6.75301 6.03195 -12.3607
v 6.76088 6.02344 -12.3644
v 6.77163 6.02032 -12.3696
v 6.86665 6.03195 -12.2182
v 6.8721 6.02344 -12.225
v 6.87953 6.02032 -12.2343
v 7.03087 6.03195 -12.1391
v 7.03281 6.02344 -12.1476
v 7.03546 6.02032 -12.1592
v 7.21313 6.03195 -12.1391
v 7.21119 6.02344 -12.1476
v 7.20853 6.02032 -12.1592
v 7.37734 6.03195 -12.2182
v 7.3719 6.02344 -12.225
v 7.36446 6.02032 -12.2343
v 7.49098 6.03195 -12.3607
v 7.48312 6.02344 -12.3644
v 7.47237 6.02032 -12.3696
v 7.42053 6.23113 -12.5838
v 7.32859 6.23113 -12.5838
v 7.19573 6.23113 -12.5838
v 7.04826 6.23113 -12.5838
v 6.91541 6.23113 -12.5838
v 6.82346 6.23113 -12.5838
v 6.82346 6.23113 -12.5383
v 6.82346 6.23113 -12.4929
v 6.91541 6.23113 -12.4929
v 7.04826 6.23113 -12.4929
v 7.19573 6.23113 -12.4929
v 7.32859 6.23113 -12.4929
v 7.42053 6.23113 -12.4929
v 7.42053 6.23113 -12.5383
v 7.32859 6.02032 -12.5838
v 7.42053 6.02032 -12.5838
v 7.19573 6.02032 -12.5838
v 7.04826 6.02032 -12.5838
v 6.91541 6.02032 -12.5838
v 6.82346 6.02032 -12.5838
v 6.82346 6.02032 -12.5383
v 6.82346 6.02032 -12.4929
v 6.91541 6.02032 -12.4929
v 7.04826 6.02032 -12.4929
v 7.19573 6.02032 -12.4929
v 7.32859 6.02032 -12.4929
v 7.42053 6.02032 -12.4929
v 7.42053 6.02032 -12.5383
vn 0.896628 -0.098044 -0.431793
vn 0.785047 -0.490689 -0.378055
vn 0.543263 -0.490691 -0.681239
vn 0.620486 -0.098059 -0.778063
vn 0.47004 -0.853129 -0.22635
vn 0.32527 -0.853127 -0.40789
vn 0.062094 -0.997622 -0.029905
vn 0.042971 -0.997622 -0.053882
vn 0.620483 0.098059 -0.778066
vn 0.54326 0.490689 -0.681244
vn 0.896628 0.098045 -0.431793
vn 0.785044 0.490687 -0.378064
vn 0.325268 0.853131 -0.407883
vn 0.470036 0.853129 -0.226357
vn 0.042966 0.997623 -0.053871
vn 0.062088 0.997623 -0.029899
vn 0.22145 -0.098085 -0.970226
vn 0.221448 0.098084 -0.970227
vn -0.221443 -0.098086 -0.970228
vn -0.221442 0.098085 -0.970228
vn -0.620478 -0.098064 -0.778068
vn -0.620479 0.098064 -0.778068
vn -0.896626 -0.098044 -0.431797
vn -0.896626 0.098044 -0.431798
vn -0.995183 -0.098039 -0
vn -0.995183 0.098039 0
vn -0.896627 -0.098039 0.431797
vn -0.896626 0.098039 0.431798
vn -0.620484 -0.098033 0.778068
vn -0.620486 0.098034 0.778066
vn -0.221447 -0.09803 0.970233
vn -0.221448 0.09803 0.970233
vn 0.221452 -0.098039 0.970231
vn 0.221449 0.098037 0.970231
vn 0.620487 -0.098042 0.778064
vn 0.620485 0.098041 0.778066
vn 0.896627 -0.098045 0.431795
vn 0.896628 0.098045 0.431794
vn 0.995182 -0.09805 0
vn 0.995181 0.09805 -0
vn 0 -1 -1e-06
vn 0 -1 -2e-06
vn 0 1 2e-06
vn 0 1 1e-06
vn 0 -1 -4e-06
vn 0.015336 -0.997622 -0.067189
vn 0.015334 0.997623 -0.067175
vn -0.015336 -0.997622 -0.067189
vn 0 1 -1e-06
vn -0.015334 0.997623 -0.067177
vn -0.042971 -0.997622 -0.053886
vn 0 1 0
vn -0.042966 0.997623 -0.053877
vn 0 -1 0
vn -0.062094 -0.997622 -0.029905
vn -0.062087 0.997623 -0.029901
vn 0 -1 1e-06
vn -0.068919 -0.997622 -0
vn -0.068911 0.997623 -1e-06
vn -0.062093 -0.997622 0.029902
vn -0.062087 0.997623 0.029901
vn 0 -1 2e-06
vn -0.04297 -0.997622 0.053887
vn -0.042966 0.997623 0.053875
vn 0 -1 4e-06
vn -0.015336 -0.997622 0.067193
vn -0.015334 0.997623 0.067178
vn 0.015336 -0.997622 0.067189
vn 0.015334 0.997623 0.067179
vn 0 -1 3e-06
vn 0.04297 -0.997622 0.053883
vn 0.042966 0.997623 0.053875
vn 0.062094 -0.997622 0.029905
vn 0.062088 0.997623 0.0299
vn 0.068919 -0.997622 0
vn 0.068912 0.997623 0
vn 0.116092 -0.85312 -0.508635
vn 0.193885 -0.49069 -0.84949
vn 0.193885 0.490691 -0.849489
vn 0.116091 0.853133 -0.508613
vn -0.116088 -0.853117 -0.50864
vn -0.193895 -0.490689 -0.849487
vn -0.193893 0.490688 -0.849489
vn -0.116085 0.853123 -0.508631
vn -0.325285 -0.853115 -0.407904
vn -0.543274 -0.49069 -0.681232
vn -0.543272 0.490688 -0.681235
vn -0.325278 0.853117 -0.407903
vn -0.470052 -0.853119 -0.226359
vn -0.785046 -0.490687 -0.37806
vn -0.785045 0.490687 -0.378062
vn -0.470045 0.853124 -0.226356
vn -0.521714 -0.853121 -2e-06
vn -0.871339 -0.490681 -0
vn -0.871339 0.490681 -2e-06
vn -0.521705 0.853126 -3e-06
vn -0.470052 -0.853118 0.226363
vn -0.785048 -0.490681 0.378064
vn -0.785049 0.490681 0.378061
vn -0.470045 0.853124 0.226358
vn -0.325288 -0.853117 0.407895
vn -0.543269 -0.490678 0.681245
vn -0.543269 0.490678 0.681245
vn -0.32528 0.853121 0.407895
vn -0.116092 -0.853119 0.508636
vn -0.193894 -0.490676 0.849495
vn -0.193894 0.490674 0.849497
vn -0.116089 0.853126 0.508626
vn 0.116095 -0.853115 0.508643
vn 0.193882 -0.49068 0.849496
vn 0.193881 0.490678 0.849497
vn 0.116095 0.85313 0.508618
vn 0.325284 -0.853117 0.407898
vn 0.543269 -0.490684 0.68124
vn 0.543266 0.490681 0.681245
vn 0.325278 0.853124 0.40789
vn 0.470055 -0.853118 0.226359
vn 0.785049 -0.490683 0.378057
vn 0.785047 0.490682 0.378063
vn 0.470046 0.853122 0.226364
vn 0.521715 -0.85312 2e-06
vn 0.871338 -0.490683 2e-06
vn 0.871338 0.490683 -0
vn 0.521709 0.853123 0
vn 0.90058 -0.029397 -0.433696
vn 0.623217 -0.029398 -0.781496
vn 0.623487 0 -0.781834
vn 0.90097 0 -0.433881
vn 0.222422 -0.029399 -0.974507
vn 0.222517 0 -0.974929
vn -0.222421 -0.029399 -0.974507
vn -0.222517 0 -0.974929
vn -0.623218 -0.029397 -0.781496
vn -0.623487 0 -0.781834
vn -0.90058 -0.0294 -0.433695
vn -0.90097 0 -0.433881
vn -0.999568 -0.0294 0
vn -1 0 -0
vn -0.900581 -0.029392 0.433694
vn -0.900969 0 0.433883
vn -0.623218 -0.029383 0.781496
vn -0.623487 0 0.781834
vn -0.222423 -0.029374 0.974508
vn -0.222517 0 0.974929
vn 0.222423 -0.029375 0.974508
vn 0.222517 0 0.974929
vn 0.623217 -0.029384 0.781497
vn 0.623487 0 0.781834
vn 0.900581 -0.029392 0.433694
vn 0.900969 0 0.433883
vn 0.999568 -0.029397 -0
vn 1 0 -0
vn 0.784902 -0.49098 -0.377979
vn 0.871181 -0.490962 -2e-06
vn 0.227845 -0.967496 -0.109719
vn 0.469659 -0.853386 -0.22617
vn 0.252863 -0.967502 0
vn 0.521275 -0.853389 -0
vn 0.543154 -0.490982 -0.681117
vn 0.32502 -0.853383 -0.407552
vn 0.157677 -0.967494 -0.197719
vn 0.193848 -0.490957 -0.849343
vn 0.116001 -0.853374 -0.508229
vn 0.05627 -0.967495 -0.246551
vn -0.193858 -0.490965 -0.849337
vn -0.115992 -0.853375 -0.508229
vn -0.056271 -0.967494 -0.246554
vn -0.543168 -0.490967 -0.681117
vn -0.325031 -0.853375 -0.407562
vn -0.157677 -0.967492 -0.197732
vn -0.78492 -0.49095 -0.377979
vn -0.469694 -0.853363 -0.226183
vn -0.227848 -0.967493 -0.109737
vn -0.871198 -0.490932 1e-06
vn -0.521314 -0.853365 1e-06
vn -0.252877 -0.967498 -0
vn -0.784935 -0.4909 0.378014
vn -0.469676 -0.853373 0.226183
vn -0.227823 -0.967501 0.109716
vn -0.543199 -0.4909 0.68114
vn -0.325002 -0.853392 0.407549
vn -0.157657 -0.967502 0.197699
vn -0.193859 -0.490923 0.849361
vn -0.115987 -0.85341 0.508172
vn -0.056267 -0.967498 0.24654
vn 0.193844 -0.490916 0.849368
vn 0.115991 -0.853407 0.508176
vn 0.056263 -0.9675 0.246534
vn 0.543185 -0.490913 0.681142
vn 0.324994 -0.853397 0.407545
vn 0.157652 -0.967506 0.197681
vn 0.784913 -0.490941 0.378007
vn 0.469646 -0.853393 0.22617
vn 0.227818 -0.967505 0.109695
vn 0 1 3e-06
vn 0 1 -5e-06
vn 0 1 -3e-06
vn 0 1 5e-06
vn 0 0 1
vn 0 0 -1
vt 0.031857 0.576633
vt 0.038138 0.576633
vt 0.038138 0.673434
vt 0.031857 0.673434
vt 0.044588 0.576633
vt 0.044588 0.673434
vt 0.511954 0.211102
vt 0.50618 0.209791
vt 0.512138 0.135761
vt 0.506113 0.137046
vt 0.021652 0.673434
vt 0.015546 0.673434
vt 0.021652 0.576633
vt 0.015546 0.576633
vt 0.009469 0.673434
vt 0.009469 0.576633
vt 0.003333 0.673434
vt 0.003333 0.576633
vt 0.031857 0.753612
vt 0.021652 0.753612
vt 0.031857 0.822195
vt 0.021652 0.822195
vt 0.031857 0.883226
vt 0.021652 0.883226
vt 0.031857 0.939697
vt 0.021652 0.939697
vt 0.031857 0.996032
vt 0.021652 0.996032
vt 0.031857 0.006386
vt 0.031857 0.052683
vt 0.021652 0.052683
vt 0.021652 0.006386
vt 0.031857 0.099814
vt 0.021652 0.099814
vt 0.031857 0.151269
vt 0.021652 0.151269
vt 0.031857 0.209619
vt 0.021652 0.209619
vt 0.031857 0.277649
vt 0.021652 0.277649
vt 0.031857 0.358596
vt 0.021652 0.358596
vt 0.031857 0.456294
vt 0.021652 0.456294
vt 0.483558 0.204706
vt 0.483334 0.142248
vt 0.785288 0.255124
vt 0.813472 0.198641
vt 0.836515 0.204064
vt 0.803847 0.270518
vt 0.456225 0.085629
vt 0.474464 0.071016
vt 0.734349 0.292422
vt 0.743068 0.313619
vt 0.40744 0.046992
vt 0.417336 0.025993
vt 0.674231 0.30433
vt 0.673607 0.327034
vt 0.346991 0.033926
vt 0.346633 0.010817
vt 0.615155 0.289495
vt 0.604947 0.309758
vt 0.287093 0.048787
vt 0.27667 0.02819
vt 0.568181 0.250845
vt 0.550282 0.264753
vt 0.23962 0.088296
vt 0.221296 0.074251
vt 0.542385 0.195994
vt 0.520252 0.200931
vt 0.213769 0.144465
vt 0.191207 0.139664
vt 0.542494 0.135101
vt 0.520241 0.130082
vt 0.214489 0.206261
vt 0.192054 0.211593
vt 0.568962 0.079647
vt 0.550926 0.065394
vt 0.241608 0.26163
vt 0.223711 0.276101
vt 0.617046 0.041008
vt 0.606946 0.020235
vt 0.289928 0.299741
vt 0.280078 0.320491
vt 0.67733 0.027115
vt 0.67729 0.003968
vt 0.349843 0.313111
vt 0.349977 0.336028
vt 0.737742 0.040776
vt 0.747734 0.019886
vt 0.4095 0.299113
vt 0.419585 0.319709
vt 0.786412 0.079292
vt 0.804561 0.064684
vt 0.457199 0.260507
vt 0.475269 0.274722
vt 0.813771 0.135593
vt 0.836694 0.130341
vt 0.479129 0.067269
vt 0.038138 0.753612
vt 0.044588 0.753612
vt 0.015546 0.753612
vt 0.009469 0.753612
vt 0.003333 0.753612
vt 0.419863 0.020616
vt 0.038138 0.822195
vt 0.044588 0.822195
vt 0.015546 0.822195
vt 0.009469 0.822195
vt 0.003333 0.822195
vt 0.346539 0.004904
vt 0.038138 0.883226
vt 0.044588 0.883226
vt 0.015546 0.883226
vt 0.003333 0.883226
vt 0.009469 0.883226
vt 0.274005 0.022926
vt 0.038138 0.939697
vt 0.044588 0.939697
vt 0.015546 0.939697
vt 0.003333 0.939697
vt 0.009469 0.939697
vt 0.216617 0.070664
vt 0.038138 0.996032
vt 0.044588 0.996032
vt 0.015546 0.996032
vt 0.003333 0.996032
vt 0.009469 0.996032
vt 0.185446 0.138439
vt 0.038138 0.006386
vt 0.038138 0.052683
vt 0.044588 0.006386
vt 0.044588 0.052683
vt 0.015546 0.006386
vt 0.015546 0.052683
vt 0.003333 0.006386
vt 0.009469 0.006386
vt 0.009469 0.052683
vt 0.003333 0.052683
vt 0.186327 0.212957
vt 0.038138 0.099814
vt 0.044588 0.099814
vt 0.015546 0.099814
vt 0.003333 0.099814
vt 0.009469 0.099814
vt 0.21914 0.279799
vt 0.038138 0.151269
vt 0.044588 0.151269
vt 0.015546 0.151269
vt 0.009469 0.151269
vt 0.003333 0.151269
vt 0.277564 0.325794
vt 0.038138 0.209619
vt 0.044588 0.209619
vt 0.015546 0.209619
vt 0.009469 0.209619
vt 0.003333 0.209619
vt 0.350011 0.341885
vt 0.038138 0.277649
vt 0.044588 0.277649
vt 0.015546 0.277649
vt 0.003333 0.277649
vt 0.009469 0.277649
vt 0.42216 0.324971
vt 0.038138 0.358596
vt 0.044588 0.358596
vt 0.015546 0.358596
vt 0.009469 0.358596
vt 0.003333 0.358596
vt 0.479881 0.278359
vt 0.038138 0.456294
vt 0.044588 0.456294
vt 0.015546 0.456294
vt 0.009469 0.456294
vt 0.003333 0.456294
vt 0.085198 0.485188
vt 0.085198 0.554903
vt 0.053001 0.554903
vt 0.053001 0.485188
vt 0.085198 0.619525
vt 0.053001 0.619525
vt 0.085198 0.680116
vt 0.053001 0.680116
vt 0.085198 0.737599
vt 0.053001 0.737599
vt 0.085198 0.79263
vt 0.053001 0.79263
vt 0.085198 0.84726
vt 0.053001 0.84726
vt 0.085198 0.004226
vt 0.085198 0.05569
vt 0.053001 0.05569
vt 0.053001 0.004226
vt 0.085198 0.106609
vt 0.053001 0.106609
vt 0.085198 0.159797
vt 0.053001 0.159797
vt 0.085198 0.215753
vt 0.053001 0.215753
vt 0.085198 0.275267
vt 0.053001 0.275267
vt 0.085198 0.339112
vt 0.053001 0.339112
vt 0.085198 0.408187
vt 0.053001 0.408187
vt 0.089288 0.485188
vt 0.089288 0.408187
vt 0.097359 0.485188
vt 0.09332 0.485188
vt 0.097359 0.408187
vt 0.09332 0.408187
vt 0.089288 0.554903
vt 0.09332 0.554903
vt 0.097359 0.554903
vt 0.089288 0.619525
vt 0.09332 0.619525
vt 0.097359 0.619525
vt 0.089288 0.680116
vt 0.09332 0.680116
vt 0.097359 0.680116
vt 0.089288 0.737599
vt 0.09332 0.737599
vt 0.097359 0.737599
vt 0.089288 0.79263
vt 0.09332 0.79263
vt 0.097359 0.79263
vt 0.089288 0.84726
vt 0.09332 0.84726
vt 0.097359 0.84726
vt 0.089288 0.004226
vt 0.089288 0.05569
vt 0.09332 0.004226
vt 0.09332 0.05569
vt 0.097359 0.004226
vt 0.097359 0.05569
vt 0.089288 0.106609
vt 0.09332 0.106609
vt 0.097359 0.106609
vt 0.089288 0.159797
vt 0.09332 0.159797
vt 0.097359 0.159797
vt 0.089288 0.215753
vt 0.09332 0.215753
vt 0.097359 0.215753
vt 0.089288 0.275267
vt 0.09332 0.275267
vt 0.097359 0.275267
vt 0.089288 0.339112
vt 0.09332 0.339112
vt 0.097359 0.339112
vt 0.779119 0.159419
vt 0.748587 0.166199
vt 0.704463 0.17573
vt 0.655918 0.186253
vt 0.612461 0.195766
vt 0.582538 0.202428
vt 0.579347 0.187822
vt 0.576152 0.173137
vt 0.606246 0.166428
vt 0.649784 0.156604
vt 0.698229 0.145715
vt 0.74197 0.135809
vt 0.772288 0.129034
vt 0.775672 0.144205
vt 0.177319 0.251897
vt 0.177315 0.282833
vt 0.106362 0.282824
vt 0.106366 0.251882
vt 0.177311 0.32755
vt 0.106352 0.327541
vt 0.177302 0.377179
vt 0.106348 0.377175
vt 0.177303 0.421894
vt 0.10635 0.421889
vt 0.177302 0.45284
vt 0.106349 0.452832
vt 0.1773 0.468138
vt 0.106347 0.468125
vt 0.177332 0.005049
vt 0.177332 0.020341
vt 0.106393 0.020334
vt 0.106395 0.005045
vt 0.177333 0.051283
vt 0.106386 0.051274
vt 0.177329 0.096001
vt 0.106377 0.095991
vt 0.177329 0.145636
vt 0.10637 0.145628
vt 0.177328 0.190358
vt 0.106371 0.190349
vt 0.177326 0.221311
vt 0.106371 0.221297
vt 0.177322 0.236605
vt 0.106369 0.236589
vt 0.65036 0.450344
vt 0.625078 0.502822
vt 0.610845 0.471903
vt 0.601306 0.483858
vt 0.579532 0.539135
vt 0.591774 0.495818
vt 0.522741 0.552088
vt 0.567577 0.476518
vt 0.465954 0.539119
vt 0.53262 0.448635
vt 0.420417 0.502795
vt 0.493824 0.417683
vt 0.395153 0.450308
vt 0.458861 0.389803
vt 0.395159 0.392063
vt 0.434675 0.370497
vt 0.420437 0.339585
vt 0.444213 0.358548
vt 0.465985 0.303271
vt 0.453752 0.346596
vt 0.522774 0.290318
vt 0.477935 0.365886
vt 0.579564 0.303288
vt 0.512902 0.393773
vt 0.625101 0.339611
vt 0.551694 0.424724
vt 0.650368 0.392093
vt 0.586653 0.452604
usemtl standardSurface5SG
f 351/449/365 352/450/366 353/451/367
f 351/449/365 353/451/367 354/452/368
f 352/450/366 355/453/369 356/454/370
f 352/450/366 356/454/370 353/451/367
f 355/455/369 357/456/371 356/457/370
f 357/456/371 358/458/372 356/457/370
f 359/459/373 360/460/374 361/461/375
f 360/460/374 362/462/376 361/461/375
f 360/460/374 363/463/377 362/462/376
f 363/463/377 364/464/378 362/462/376
f 363/463/377 365/465/379 366/466/380
f 363/463/377 366/466/380 364/464/378
f 351/449/365 354/452/368 359/459/373
f 351/449/365 359/459/373 361/461/375
f 354/452/368 367/467/381 368/468/382
f 354/452/368 368/468/382 359/459/373
f 367/467/381 369/469/383 370/470/384
f 367/467/381 370/470/384 368/468/382
f 369/469/383 371/471/385 372/472/386
f 369/469/383 372/472/386 370/470/384
f 371/471/385 373/473/387 374/474/388
f 371/471/385 374/474/388 372/472/386
f 373/473/387 375/475/389 376/476/390
f 373/473/387 376/476/390 374/474/388
f 375/477/389 377/478/391 378/479/392
f 375/477/389 378/479/392 376/480/390
f 377/478/391 379/481/393 380/482/394
f 377/478/391 380/482/394 378/479/392
f 379/481/393 381/483/395 382/484/396
f 379/481/393 382/484/396 380/482/394
f 381/483/395 383/485/397 384/486/398
f 381/483/395 384/486/398 382/484/396
f 383/485/397 385/487/399 386/488/400
f 383/485/397 386/488/400 384/486/398
f 385/487/399 387/489/401 388/490/402
f 385/487/399 388/490/402 386/488/400
f 387/489/401 389/491/403 390/492/404
f 387/489/401 390/492/404 388/490/402
f 389/491/403 351/449/365 361/461/375
f 389/491/403 361/461/375 390/492/404
f 391/493/405 392/494/406 357/456/371
f 392/494/406 358/458/372 357/456/371
f 393/495/407 394/496/408 366/497/380
f 393/495/407 366/497/380 365/498/379
f 392/494/406 395/499/409 396/500/410
f 392/494/406 396/500/410 358/458/372
f 397/501/408 393/495/407 398/502/411
f 393/495/407 365/498/379 398/502/411
f 395/499/409 399/503/409 400/504/412
f 395/499/409 400/504/412 396/500/410
f 401/505/413 397/501/408 398/502/411
f 401/505/413 398/502/411 402/506/414
f 399/503/409 403/507/409 404/508/415
f 399/503/409 404/508/415 400/504/412
f 405/509/416 401/505/413 406/510/417
f 401/505/413 402/506/414 406/510/417
f 403/507/409 407/511/418 404/508/415
f 407/511/418 408/512/419 404/508/415
f 409/513/416 405/509/416 406/510/417
f 409/513/416 406/510/417 410/514/420
f 407/511/418 411/515/421 412/516/422
f 407/511/418 412/516/422 408/512/419
f 413/517/413 409/513/416 414/518/423
f 409/513/416 410/514/420 414/518/423
f 411/515/421 415/519/421 412/516/422
f 415/519/421 416/520/424 412/516/422
f 417/521/413 413/517/413 414/518/423
f 417/521/413 414/518/423 418/522/425
f 415/519/421 419/523/426 416/520/424
f 419/523/426 420/524/427 416/520/424
f 421/525/413 417/521/413 418/522/425
f 421/525/413 418/522/425 422/526/428
f 419/523/426 423/527/429 424/528/430
f 419/523/426 424/528/430 420/524/427
f 425/529/408 421/525/413 426/530/431
f 421/525/413 422/526/428 426/530/431
f 423/527/429 427/531/429 428/532/432
f 423/527/429 428/532/432 424/528/430
f 429/533/407 425/529/408 426/530/431
f 429/533/407 426/530/431 430/534/433
f 427/531/429 431/535/434 428/532/432
f 431/535/434 432/536/435 428/532/432
f 433/537/408 429/533/407 430/534/433
f 433/537/408 430/534/433 434/538/436
f 431/535/434 435/539/421 436/540/437
f 431/535/434 436/540/437 432/536/435
f 437/541/416 433/537/408 438/542/438
f 433/537/408 434/538/436 438/542/438
f 435/539/421 439/543/418 436/540/437
f 439/543/418 440/544/439 436/540/437
f 441/545/416 437/541/416 438/542/438
f 441/545/416 438/542/438 442/546/440
f 439/543/418 391/493/405 357/456/371
f 439/543/418 357/456/371 440/544/439
f 394/496/408 441/545/416 366/497/380
f 441/545/416 442/546/440 366/497/380
f 356/457/370 358/458/372 443/547/441
f 358/458/372 396/500/410 443/547/441
f 354/452/368 353/451/367 367/467/381
f 353/451/367 444/548/442 367/467/381
f 353/451/367 356/454/370 443/549/441
f 353/451/367 443/549/441 444/548/442
f 360/460/374 359/459/373 368/468/382
f 360/460/374 368/468/382 445/550/443
f 365/465/379 363/463/377 446/551/444
f 365/465/379 446/551/444 398/552/411
f 363/463/377 360/460/374 446/551/444
f 360/460/374 445/550/443 446/551/444
f 443/547/441 396/500/410 447/553/445
f 396/500/410 400/504/412 447/553/445
f 367/467/381 444/548/442 448/554/446
f 367/467/381 448/554/446 369/469/383
f 444/548/442 443/549/441 447/555/445
f 444/548/442 447/555/445 448/554/446
f 445/550/443 368/468/382 370/470/384
f 445/550/443 370/470/384 449/556/447
f 398/552/411 446/551/444 450/557/448
f 398/552/411 450/557/448 402/558/414
f 446/551/444 445/550/443 449/556/447
f 446/551/444 449/556/447 450/557/448
f 447/553/445 400/504/412 404/508/415
f 447/553/445 404/508/415 451/559/449
f 369/469/383 448/554/446 452/560/450
f 369/469/383 452/560/450 371/471/385
f 448/554/446 447/555/445 452/560/450
f 447/555/445 451/561/449 452/560/450
f 449/556/447 370/470/384 453/562/451
f 370/470/384 372/472/386 453/562/451
f 402/558/414 450/557/448 406/563/417
f 450/557/448 454/564/452 406/563/417
f 450/557/448 449/556/447 453/562/451
f 450/557/448 453/562/451 454/564/452
f 451/559/449 404/508/415 408/512/419
f 451/559/449 408/512/419 455/565/453
f 371/471/385 452/560/450 456/566/454
f 371/471/385 456/566/454 373/473/387
f 452/560/450 451/561/449 456/566/454
f 451/561/449 455/567/453 456/566/454
f 453/562/451 372/472/386 457/568/455
f 372/472/386 374/474/388 457/568/455
f 406/563/417 454/564/452 410/569/420
f 454/564/452 458/570/456 410/569/420
f 454/564/452 453/562/451 457/568/455
f 454/564/452 457/568/455 458/570/456
f 455/565/453 408/512/419 412/516/422
f 455/565/453 412/516/422 459/571/457
f 373/473/387 456/566/454 375/475/389
f 456/566/454 460/572/458 375/475/389
f 456/566/454 455/567/453 460/572/458
f 455/567/453 459/573/457 460/572/458
f 457/568/455 374/474/388 376/476/390
f 457/568/455 376/476/390 461/574/459
f 410/569/420 458/570/456 414/575/423
f 458/570/456 462/576/460 414/575/423
f 458/570/456 457/568/455 461/574/459
f 458/570/456 461/574/459 462/576/460
f 459/571/457 412/516/422 463/577/461
f 412/516/422 416/520/424 463/577/461
f 375/477/389 460/578/458 464/579/462
f 375/477/389 464/579/462 377/478/391
f 460/578/458 459/580/457 463/581/461
f 460/578/458 463/581/461 464/579/462
f 461/582/459 376/480/390 465/583/463
f 376/480/390 378/479/392 465/583/463
f 414/584/423 462/585/460 466/586/464
f 414/584/423 466/586/464 418/587/425
f 462/585/460 461/582/459 466/586/464
f 461/582/459 465/583/463 466/586/464
f 463/577/461 416/520/424 420/524/427
f 463/577/461 420/524/427 467/588/465
f 377/478/391 464/579/462 379/481/393
f 464/579/462 468/589/466 379/481/393
f 464/579/462 463/581/461 468/589/466
f 463/581/461 467/590/465 468/589/466
f 465/583/463 378/479/392 380/482/394
f 465/583/463 380/482/394 469/591/467
f 418/587/425 466/586/464 422/592/428
f 466/586/464 470/593/468 422/592/428
f 466/586/464 465/583/463 469/591/467
f 466/586/464 469/591/467 470/593/468
f 467/588/465 420/524/427 471/594/469
f 420/524/427 424/528/430 471/594/469
f 379/481/393 468/589/466 472/595/470
f 379/481/393 472/595/470 381/483/395
f 468/589/466 467/590/465 472/595/470
f 467/590/465 471/596/469 472/595/470
f 469/591/467 380/482/394 473/597/471
f 380/482/394 382/484/396 473/597/471
f 422/592/428 470/593/468 474/598/472
f 422/592/428 474/598/472 426/599/431
f 470/593/468 469/591/467 474/598/472
f 469/591/467 473/597/471 474/598/472
f 471/594/469 424/528/430 428/532/432
f 471/594/469 428/532/432 475/600/473
f 381/483/395 472/595/470 383/485/397
f 472/595/470 476/601/474 383/485/397
f 472/595/470 471/596/469 475/602/473
f 472/595/470 475/602/473 476/601/474
f 473/597/471 382/484/396 477/603/475
f 382/484/396 384/486/398 477/603/475
f 426/599/431 474/598/472 478/604/476
f 426/599/431 478/604/476 430/605/433
f 474/598/472 473/597/471 477/603/475
f 474/598/472 477/603/475 478/604/476
f 475/600/473 428/532/432 432/536/435
f 475/600/473 432/536/435 479/606/477
f 383/485/397 476/601/474 480/607/478
f 383/485/397 480/607/478 385/487/399
f 476/601/474 475/602/473 480/607/478
f 475/602/473 479/608/477 480/607/478
f 477/603/475 384/486/398 481/609/479
f 384/486/398 386/488/400 481/609/479
f 430/605/433 478/604/476 434/610/436
f 478/604/476 482/611/480 434/610/436
f 478/604/476 477/603/475 481/609/479
f 478/604/476 481/609/479 482/611/480
f 479/606/477 432/536/435 483/612/481
f 432/536/435 436/540/437 483/612/481
f 385/487/399 480/607/478 387/489/401
f 480/607/478 484/613/482 387/489/401
f 480/607/478 479/608/477 483/614/481
f 480/607/478 483/614/481 484/613/482
f 481/609/479 386/488/400 388/490/402
f 481/609/479 388/490/402 485/615/483
f 434/610/436 482/611/480 486/616/484
f 434/610/436 486/616/484 438/617/438
f 482/611/480 481/609/479 486/616/484
f 481/609/479 485/615/483 486/616/484
f 483/612/481 436/540/437 487/618/485
f 436/540/437 440/544/439 487/618/485
f 387/489/401 484/613/482 389/491/403
f 484/613/482 488/619/486 389/491/403
f 484/613/482 483/614/481 487/620/485
f 484/613/482 487/620/485 488/619/486
f 485/615/483 388/490/402 390/492/404
f 485/615/483 390/492/404 489/621/487
f 438/617/438 486/616/484 490/622/488
f 438/617/438 490/622/488 442/623/440
f 486/616/484 485/615/483 490/622/488
f 485/615/483 489/621/487 490/622/488
f 357/456/371 355/455/369 487/618/485
f 357/456/371 487/618/485 440/544/439
f 355/453/369 352/450/366 487/620/485
f 352/450/366 488/619/486 487/620/485
f 352/450/366 351/449/365 389/491/403
f 352/450/366 389/491/403 488/619/486
f 361/461/375 362/462/376 390/492/404
f 362/462/376 489/621/487 390/492/404
f 362/462/376 364/464/378 490/622/488
f 362/462/376 490/622/488 489/621/487
f 364/464/378 366/466/380 490/622/488
f 366/466/380 442/623/440 490/622/488
f 491/624/489 492/625/490 392/626/491
f 491/624/489 392/626/491 391/627/492
f 492/625/490 493/628/493 395/629/494
f 492/625/490 395/629/494 392/626/491
f 493/628/493 494/630/495 399/631/496
f 493/628/493 399/631/496 395/629/494
f 494/630/495 495/632/497 403/633/498
f 494/630/495 403/633/498 399/631/496
f 495/632/497 496/634/499 407/635/500
f 495/632/497 407/635/500 403/633/498
f 496/634/499 497/636/501 411/637/502
f 496/634/499 411/637/502 407/635/500
f 497/638/501 498/639/503 415/640/504
f 497/638/501 415/640/504 411/641/502
f 498/639/503 499/642/505 419/643/506
f 498/639/503 419/643/506 415/640/504
f 499/642/505 500/644/507 423/645/508
f 499/642/505 423/645/508 419/643/506
f 500/644/507 501/646/509 427/647/510
f 500/644/507 427/647/510 423/645/508
f 501/646/509 502/648/511 431/649/512
f 501/646/509 431/649/512 427/647/510
f 502/648/511 503/650/513 435/651/514
f 502/648/511 435/651/514 431/649/512
f 503/650/513 504/652/515 439/653/516
f 503/650/513 439/653/516 435/651/514
f 504/652/515 491/624/489 391/627/492
f 504/652/515 391/627/492 439/653/516
f 505/654/517 491/624/489 504/652/515
f 505/654/517 504/652/515 506/655/518
f 507/656/519 508/657/520 509/658/521
f 508/657/520 510/659/522 509/658/521
f 508/657/520 505/654/517 510/659/522
f 505/654/517 506/655/518 510/659/522
f 491/624/489 505/654/517 511/660/523
f 491/624/489 511/660/523 492/625/490
f 505/654/517 508/657/520 511/660/523
f 508/657/520 512/661/524 511/660/523
f 508/657/520 507/656/519 513/662/525
f 508/657/520 513/662/525 512/661/524
f 492/625/490 511/660/523 493/628/493
f 511/660/523 514/663/526 493/628/493
f 511/660/523 512/661/524 515/664/527
f 511/660/523 515/664/527 514/663/526
f 512/661/524 513/662/525 515/664/527
f 513/662/525 516/665/528 515/664/527
f 493/628/493 514/663/526 517/666/529
f 493/628/493 517/666/529 494/630/495
f 514/663/526 515/664/527 518/667/530
f 514/663/526 518/667/530 517/666/529
f 515/664/527 516/665/528 519/668/531
f 515/664/527 519/668/531 518/667/530
f 494/630/495 517/666/529 520/669/532
f 494/630/495 520/669/532 495/632/497
f 517/666/529 518/667/530 520/669/532
f 518/667/530 521/670/533 520/669/532
f 518/667/530 519/668/531 522/671/534
f 518/667/530 522/671/534 521/670/533
f 495/632/497 520/669/532 523/672/535
f 495/632/497 523/672/535 496/634/499
f 520/669/532 521/670/533 524/673/536
f 520/669/532 524/673/536 523/672/535
f 521/670/533 522/671/534 524/673/536
f 522/671/534 525/674/537 524/673/536
f 496/634/499 523/672/535 526/675/538
f 496/634/499 526/675/538 497/636/501
f 523/672/535 524/673/536 526/675/538
f 524/673/536 527/676/539 526/675/538
f 524/673/536 525/674/537 527/676/539
f 525/674/537 528/677/540 527/676/539
f 497/638/501 526/678/538 529/679/541
f 497/638/501 529/679/541 498/639/503
f 526/678/538 527/680/539 530/681/542
f 526/678/538 530/681/542 529/679/541
f 527/680/539 528/682/540 530/681/542
f 528/682/540 531/683/543 530/681/542
f 498/639/503 529/679/541 499/642/505
f 529/679/541 532/684/544 499/642/505
f 529/679/541 530/681/542 533/685/545
f 529/679/541 533/685/545 532/684/544
f 530/681/542 531/683/543 534/686/546
f 530/681/542 534/686/546 533/685/545
f 499/642/505 532/684/544 535/687/547
f 499/642/505 535/687/547 500/644/507
f 532/684/544 533/685/545 535/687/547
f 533/685/545 536/688/548 535/687/547
f 533/685/545 534/686/546 537/689/549
f 533/685/545 537/689/549 536/688/548
f 500/644/507 535/687/547 538/690/550
f 500/644/507 538/690/550 501/646/509
f 535/687/547 536/688/548 539/691/551
f 535/687/547 539/691/551 538/690/550
f 536/688/548 537/689/549 540/692/552
f 536/688/548 540/692/552 539/691/551
f 501/646/509 538/690/550 502/648/511
f 538/690/550 541/693/553 502/648/511
f 538/690/550 539/691/551 542/694/554
f 538/690/550 542/694/554 541/693/553
f 539/691/551 540/692/552 542/694/554
f 540/692/552 543/695/555 542/694/554
f 502/648/511 541/693/553 544/696/556
f 502/648/511 544/696/556 503/650/513
f 541/693/553 542/694/554 544/696/556
f 542/694/554 545/697/557 544/696/556
f 542/694/554 543/695/555 545/697/557
f 543/695/555 546/698/558 545/697/557
f 503/650/513 544/696/556 504/652/515
f 544/696/556 506/655/518 504/652/515
f 544/696/556 545/697/557 510/659/522
f 544/696/556 510/659/522 506/655/518
f 545/697/557 546/698/558 509/658/521
f 545/697/557 509/658/521 510/659/522
f 394/496/416 393/495/416 547/699/416
f 393/495/416 548/700/416 547/699/416
f 393/495/413 397/501/413 548/700/413
f 397/501/413 549/701/413 548/700/413
f 397/501/408 401/505/408 550/702/408
f 397/501/408 550/702/408 549/701/408
f 401/505/408 405/509/408 551/703/408
f 401/505/408 551/703/408 550/702/408
f 405/509/413 409/513/413 552/704/413
f 405/509/413 552/704/413 551/703/413
f 409/513/559 413/517/559 552/704/559
f 413/517/559 553/705/559 552/704/559
f 413/517/560 417/521/560 554/706/560
f 413/517/560 554/706/560 553/705/560
f 417/521/407 421/525/407 554/706/407
f 421/525/407 555/707/407 554/706/407
f 421/525/408 425/529/408 555/707/408
f 425/529/408 556/708/408 555/707/408
f 425/529/416 429/533/416 557/709/416
f 425/529/416 557/709/416 556/708/416
f 429/533/416 433/537/416 558/710/416
f 429/533/416 558/710/416 557/709/416
f 433/537/413 437/541/413 559/711/413
f 433/537/413 559/711/413 558/710/413
f 437/541/561 441/545/561 559/711/561
f 441/545/561 560/712/561 559/711/561
f 441/545/562 394/496/562 547/699/562
f 441/545/562 547/699/562 560/712/562
f 547/713/563 548/714/563 561/715/563
f 547/713/563 561/715/563 562/716/563
f 548/714/563 549/717/563 563/718/563
f 548/714/563 563/718/563 561/715/563
f 549/717/563 550/719/563 564/720/563
f 549/717/563 564/720/563 563/718/563
f 550/719/563 551/721/563 565/722/563
f 550/719/563 565/722/563 564/720/563
f 551/721/563 552/723/563 566/724/563
f 551/721/563 566/724/563 565/722/563
f 552/723/516 553/725/516 567/726/516
f 552/723/516 567/726/516 566/724/516
f 553/727/516 554/728/516 568/729/516
f 553/727/516 568/729/516 567/730/516
f 554/728/564 555/731/564 569/732/564
f 554/728/564 569/732/564 568/729/564
f 555/731/564 556/733/564 570/734/564
f 555/731/564 570/734/564 569/732/564
f 556/733/564 557/735/564 571/736/564
f 556/733/564 571/736/564 570/734/564
f 557/735/564 558/737/564 572/738/564
f 557/735/564 572/738/564 571/736/564
f 558/737/564 559/739/564 573/740/564
f 558/737/564 573/740/564 572/738/564
f 559/739/502 560/741/502 574/742/502
f 559/739/502 574/742/502 573/740/502
f 560/741/502 547/713/502 562/716/502
f 560/741/502 562/716/502 574/742/502
f 507/743/409 509/744/409 562/745/409
f 509/744/409 574/746/409 562/745/409
f 509/744/418 546/747/418 573/748/418
f 509/744/418 573/748/418 574/746/418
f 546/747/421 543/749/421 573/748/421
f 543/749/421 572/750/421 573/748/421
f 543/749/418 540/751/418 572/750/418
f 540/751/418 571/752/418 572/750/418
f 540/751/418 537/753/418 570/754/418
f 540/751/418 570/754/418 571/752/418
f 537/753/421 534/755/421 569/756/421
f 537/753/421 569/756/421 570/754/421
f 534/755/405 531/757/405 568/758/405
f 534/755/405 568/758/405 569/756/405
f 531/757/434 528/759/434 568/758/434
f 528/759/434 567/760/434 568/758/434
f 528/759/418 525/761/418 566/762/418
f 528/759/418 566/762/418 567/760/418
f 525/761/418 522/763/418 566/762/418
f 522/763/418 565/764/418 566/762/418
f 522/763/405 519/765/405 565/764/405
f 519/765/405 564/766/405 565/764/405
f 519/765/418 516/767/418 563/768/418
f 519/765/418 563/768/418 564/766/418
f 516/767/421 513/769/421 561/770/421
f 516/767/421 561/770/421 563/768/421
f 513/769/405 507/743/405 562/745/405
f 513/769/405 562/745/405 561/770/405
s off
g Jar_standardSurface4SG
v 7.17604 6.74356 -12.5707
v 7.26618 6.67807 -12.5707
v 7.30061 6.5721 -12.5707
v 7.06461 6.74356 -12.5707
v 6.97447 6.67807 -12.5707
v 6.94004 6.5721 -12.5707
v 6.97447 6.46613 -12.5707
v 7.06461 6.40064 -12.5707
v 7.17604 6.40064 -12.5707
v 7.26618 6.46613 -12.5707
v 7.30061 6.5721 -12.5005
v 7.26618 6.67807 -12.5005
v 7.17604 6.74356 -12.5005
v 7.26618 6.46613 -12.5005
v 7.17604 6.40064 -12.5005
v 7.06461 6.40064 -12.5005
v 6.97447 6.46613 -12.5005
v 6.94004 6.5721 -12.5005
v 6.97447 6.67807 -12.5005
v 7.06461 6.74356 -12.5005
v 7.27505 6.68451 -12.5548
v 7.31157 6.5721 -12.5548
v 7.27505 6.68451 -12.5164
v 7.31157 6.5721 -12.5164
v 7.17942 6.75399 -12.5548
v 7.17942 6.75399 -12.5164
v 7.06123 6.75399 -12.5548
v 7.06123 6.75399 -12.5164
v 6.9656 6.68451 -12.5548
v 6.9656 6.68451 -12.5164
v 6.92908 6.5721 -12.5548
v 6.92908 6.5721 -12.5164
v 6.9656 6.45969 -12.5548
v 6.9656 6.45969 -12.5164
v 7.06123 6.39021 -12.5548
v 7.06123 6.39021 -12.5164
v 7.17942 6.39021 -12.5548
v 7.17942 6.39021 -12.5164
v 7.27505 6.45969 -12.5548
v 7.27505 6.45969 -12.5164
vn 0.007677 0.023626 -0.999691
vn 0.020099 0.014601 -0.999691
vn 0.024842 -0 -0.999691
vn -0.007675 0.023626 -0.999691
vn -0.020097 0.014601 -0.999691
vn -0.02484 -0 -0.999691
vn -0.020095 -0.014601 -0.999691
vn -0.007675 -0.023625 -0.999691
vn 0.007677 -0.023625 -0.999691
vn 0.020097 -0.014601 -0.999691
vn 0.024844 0 0.999691
vn 0.0201 0.014603 0.999691
vn 0.007677 0.023628 0.999691
vn 0.020099 -0.014603 0.999691
vn 0.007677 -0.023628 0.999691
vn -0.007678 -0.023628 0.999691
vn -0.0201 -0.014603 0.999691
vn -0.024844 -0 0.999691
vn -0.0201 0.014603 0.999691
vn -0.007678 0.023628 0.999691
vn 0.796002 0.578322 -0.178676
vn 0.983909 -0 -0.178668
vn 0.796002 0.578323 0.178672
vn 0.983911 0 0.178662
vn 0.304044 0.935749 -0.178692
vn 0.304047 0.935749 0.178687
vn -0.304036 0.935753 -0.178687
vn -0.304039 0.935753 0.178682
vn -0.796 0.578324 -0.178678
vn -0.795999 0.578326 0.178674
vn -0.983907 -1e-06 -0.178684
vn -0.983908 -1e-06 0.178678
vn -0.795994 -0.57833 -0.178683
vn -0.796 -0.578324 0.178675
vn -0.304037 -0.935755 -0.178674
vn -0.30404 -0.935755 0.17867
vn 0.304045 -0.935751 -0.178679
vn 0.304048 -0.935751 0.178675
vn 0.795996 -0.578328 -0.178679
vn 0.796003 -0.578322 0.178672
vt 0.201953 0.020687
vt 0.293076 0.049692
vt 0.347999 0.125235
vt 0.113533 0.050505
vt 0.059477 0.126531
vt 0.060308 0.219791
vt 0.115673 0.294908
vt 0.204568 0.323312
vt 0.29326 0.294207
vt 0.34801 0.218616
vt 0.620299 0.050057
vt 0.676736 0.126799
vt 0.676806 0.220188
vt 0.531174 0.022162
vt 0.442667 0.051896
vt 0.388438 0.127895
vt 0.38911 0.221257
vt 0.444423 0.296471
vt 0.533343 0.32493
vt 0.62205 0.295811
vt 0.30273 0.036243
vt 0.363599 0.120171
vt 0.034948 0.298871
vt 0.034948 0.397863
vt 0.002759 0.397863
vt 0.002759 0.298871
vt 0.034948 0.497584
vt 0.002759 0.497584
vt 0.201861 0.004138
vt 0.034948 0.598113
vt 0.002759 0.598113
vt 0.103764 0.037368
vt 0.034948 0.698298
vt 0.002759 0.698298
vt 0.043878 0.121632
vt 0.034948 0.797811
vt 0.002759 0.797811
vt 0.044801 0.224956
vt 0.034948 0.897025
vt 0.002759 0.897025
vt 0.106135 0.308198
vt 0.034948 0.996032
vt 0.002759 0.996032
vt 0.204626 0.33967
vt 0.034948 0.003968
vt 0.034948 0.102127
vt 0.002759 0.102127
vt 0.002759 0.003968
vt 0.302912 0.307416
vt 0.034948 0.200365
vt 0.002759 0.200365
vt 0.363575 0.223673
vt 0.692416 0.121605
vt 0.692393 0.225235
vt 0.631702 0.309034
vt 0.533404 0.341299
vt 0.43487 0.309761
vt 0.373575 0.226416
vt 0.372832 0.12296
vt 0.432923 0.038741
vt 0.530998 0.005779
vt 0.62993 0.036628
usemtl standardSurface4SG
f 575/771/565 576/772/566 577/773/567
f 578/774/568 575/771/565 577/773/567
f 579/775/569 578/774/568 577/773/567
f 580/776/570 579/775/569 577/773/567
f 581/777/571 580/776/570 577/773/567
f 582/778/572 581/777/571 577/773/567
f 583/779/573 582/778/572 577/773/567
f 584/780/574 583/779/573 577/773/567
f 585/781/575 586/782/576 587/783/577
f 588/784/578 585/781/575 587/783/577
f 589/785/579 588/784/578 587/783/577
f 590/786/580 589/785/579 587/783/577
f 591/787/581 590/786/580 587/783/577
f 592/788/582 591/787/581 587/783/577
f 593/789/583 592/788/582 587/783/577
f 594/790/584 593/789/583 587/783/577
f 576/772/566 595/791/585 596/792/586
f 576/772/566 596/792/586 577/773/567
f 596/793/586 595/794/585 597/795/587
f 596/793/586 597/795/587 598/796/588
f 595/794/585 599/797/589 600/798/590
f 595/794/585 600/798/590 597/795/587
f 595/791/585 576/772/566 599/799/589
f 576/772/566 575/771/565 599/799/589
f 599/797/589 601/800/591 602/801/592
f 599/797/589 602/801/592 600/798/590
f 599/799/589 575/771/565 578/774/568
f 599/799/589 578/774/568 601/802/591
f 601/800/591 603/803/593 604/804/594
f 601/800/591 604/804/594 602/801/592
f 601/802/591 578/774/568 603/805/593
f 578/774/568 579/775/569 603/805/593
f 603/803/593 605/806/595 606/807/596
f 603/803/593 606/807/596 604/804/594
f 603/805/593 579/775/569 580/776/570
f 603/805/593 580/776/570 605/808/595
f 605/806/595 607/809/597 608/810/598
f 605/806/595 608/810/598 606/807/596
f 605/808/595 580/776/570 581/777/571
f 605/808/595 581/777/571 607/811/597
f 607/809/597 609/812/599 610/813/600
f 607/809/597 610/813/600 608/810/598
f 607/811/597 581/777/571 609/814/599
f 581/777/571 582/778/572 609/814/599
f 609/815/599 611/816/601 612/817/602
f 609/815/599 612/817/602 610/818/600
f 609/814/599 582/778/572 583/779/573
f 609/814/599 583/779/573 611/819/601
f 611/816/601 613/820/603 614/821/604
f 611/816/601 614/821/604 612/817/602
f 611/819/601 583/779/573 584/780/574
f 611/819/601 584/780/574 613/822/603
f 613/820/603 596/793/586 598/796/588
f 613/820/603 598/796/588 614/821/604
f 613/822/603 584/780/574 596/792/586
f 584/780/574 577/773/567 596/792/586
f 586/782/576 597/823/587 600/824/590
f 586/782/576 600/824/590 587/783/577
f 587/783/577 600/824/590 602/825/592
f 587/783/577 602/825/592 594/790/584
f 594/790/584 602/825/592 604/826/594
f 594/790/584 604/826/594 593/789/583
f 593/789/583 604/826/594 592/788/582
f 604/826/594 606/827/596 592/788/582
f 592/788/582 606/827/596 591/787/581
f 606/827/596 608/828/598 591/787/581
f 591/787/581 608/828/598 610/829/600
f 591/787/581 610/829/600 590/786/580
f 590/786/580 610/829/600 612/830/602
f 590/786/580 612/830/602 589/785/579
f 589/785/579 612/830/602 588/784/578
f 612/830/602 614/831/604 588/784/578
f 588/784/578 614/831/604 598/832/588
f 588/784/578 598/832/588 585/781/575
f 597/823/587 586/782/576 598/832/588
f 586/782/576 585/781/575 598/832/588
s off
