# Apple ModelIO OBJ File: Notes
mtllib Notes.mtl
g Notes_Tape1SG
v -1.52164 0.745717 -0.019943
v -0.320775 0.745717 -0.019943
v -1.52164 1.03312 -0.019943
v -0.320775 1.03312 -0.019943
v -1.52164 0.745717 -0.035339
v -1.52164 1.03312 -0.035339
v -0.320775 0.745717 -0.035339
v -0.320775 1.03312 -0.035339
vn 0 0 1
vn 0 0 -1
vn 0 -1 0
vn 1 0 0
vn 0 1 0
vn -1 0 0
vt 0.609372 0.008283
vt 0.609375 0.343298
vt 0.529201 0.008265
vt 0.529195 0.343299
vt 0.613668 0.008285
vt 0.69384 0.008288
vt 0.61367 0.343298
vt 0.693841 0.343301
vt 0.609376 0.347596
vt 0.529196 0.347596
vt 0.524899 0.343298
vt 0.524904 0.008265
vt 0.529202 0.003968
vt 0.609371 0.003985
usemtl Tape1SG
f 1/1/1 2/2/1 3/3/1
f 3/3/1 2/2/1 4/4/1
f 5/5/2 6/6/2 7/7/2
f 7/7/2 6/6/2 8/8/2
f 5/5/3 7/7/3 1/1/3
f 1/1/3 7/7/3 2/2/3
f 7/9/4 8/10/4 2/2/4
f 2/2/4 8/10/4 4/4/4
f 8/11/5 6/12/5 4/4/5
f 4/4/5 6/12/5 3/3/5
f 6/13/6 5/14/6 3/3/6
f 3/3/6 5/14/6 1/1/6
s off
g Notes_Note1SG
v -1.8372 -0.782676 -0.029198
v -0.005214 -0.782676 -0.029198
v -1.8372 0.868747 -0.029198
v -0.005214 0.868747 -0.029198
v -1.8372 -1.37058 0.035339
v -0.005214 -1.37058 0.035339
v -1.8372 -1.17547 0.003067
v -0.005214 -1.17547 0.003067
v -1.8372 -0.979733 -0.021116
v -0.005214 -0.979733 -0.021116
vn 0 0.004372 0.99999
vn 0 0 1
vn 0 0.163191 0.986595
vn 0 0.142961 0.989728
vn 0 0.081866 0.996643
vt 0.00438 0.168293
vt 0.516059 0.169423
vt 0.00326 0.631451
vt 0.516634 0.63217
vt 0.003571 0.010313
vt 0.514696 0.004147
vt 0.004202 0.065542
vt 0.515259 0.059346
vt 0.004828 0.12066
vt 0.51572 0.114403
usemtl Note1SG
f 9/15/7 10/16/7 11/17/8
f 11/17/8 10/16/7 12/18/8
f 13/19/9 14/20/9 15/21/10
f 15/21/10 14/20/9 16/22/10
f 9/15/7 17/23/11 10/16/7
f 10/16/7 17/23/11 18/24/11
f 17/23/11 15/21/10 18/24/11
f 18/24/11 15/21/10 16/22/10
s off
g Notes_Tape2SG
v 1.8372 1.06129 -0.022358
v 1.37993 1.37058 -0.022358
v 1.72657 0.897724 -0.022358
v 1.2693 1.20701 -0.022358
v 1.8372 1.06129 -0.032938
v 1.72657 0.897724 -0.032938
v 1.37993 1.37058 -0.032938
v 1.2693 1.20701 -0.032938
vn -0 -0 1
vn 0 0 -1
vn 0.560253 0.828322 0
vn -0.828319 0.560257 0
vn -0.560257 -0.828318 -0
vn 0.828319 -0.560257 -0
vt 0.76013 0.008087
vt 0.760131 0.162094
vt 0.705043 0.00809
vt 0.705043 0.162093
vt 0.763082 0.008087
vt 0.818175 0.008092
vt 0.763083 0.162094
vt 0.818175 0.162096
vt 0.760131 0.165045
vt 0.705042 0.165045
vt 0.702091 0.162093
vt 0.702092 0.00809
vt 0.705044 0.00514
vt 0.760129 0.005136
usemtl Tape2SG
f 19/25/12 20/26/12 21/27/12
f 21/27/12 20/26/12 22/28/12
f 23/29/13 24/30/13 25/31/13
f 25/31/13 24/30/13 26/32/13
f 23/29/14 25/31/14 19/25/14
f 19/25/14 25/31/14 20/26/14
f 25/33/15 26/34/15 20/26/15
f 20/26/15 26/34/15 22/28/15
f 26/35/16 24/36/16 22/28/16
f 22/28/16 24/36/16 21/27/16
f 24/37/17 23/38/17 21/27/17
f 21/27/17 23/38/17 19/25/17
s off
g Notes_Note2SG
v 0.45484 0.24687 -0.029762
v 1.65413 0.24687 -0.029762
v 0.45484 1.18963 -0.035282
v 1.65413 1.18963 -0.035282
v 1.65413 0.021436 -0.0075
v 0.45484 0.021436 -0.0075
v 1.65413 -0.090269 0.014101
v 0.45484 -0.090269 0.014101
v 0.45484 0.133637 -0.023855
v 1.65413 0.133637 -0.023855
vn 0 0.01082 0.999941
vn 0 0.005854 0.999983
vn 0 0.167133 0.985934
vn 0 0.189864 0.98181
vn 0 0.098274 0.995159
vt 0.003594 0.732242
vt 0.338347 0.732635
vt 0.00326 0.995729
vt 0.338336 0.996032
vt 0.338237 0.669347
vt 0.003572 0.670497
vt 0.338152 0.637592
vt 0.003464 0.638737
vt 0.00368 0.702154
vt 0.338306 0.700996
usemtl Note2SG
f 27/39/18 28/40/18 29/41/19
f 29/41/19 28/40/18 30/42/19
f 31/43/20 32/44/20 33/45/21
f 33/45/21 32/44/20 34/46/21
f 27/39/18 35/47/22 28/40/18
f 28/40/18 35/47/22 36/48/22
f 35/47/22 32/44/20 36/48/22
f 36/48/22 32/44/20 31/43/20
s off
