# Apple ModelIO OBJ File: TrainRailway
mtllib TrainRailway.mtl
g TrainRailway_polySurface16SG
v -39.4052 -4.26158 137.644
v -22.1976 -4.26158 137.644
v -39.4052 -2.90017 137.644
v -22.1976 -2.90017 137.644
v -39.4052 -2.74996 137.494
v -22.1976 -2.74996 137.494
v -39.4052 -2.74996 137.043
v -22.1976 -2.74996 137.043
v -39.4052 -2.90017 136.893
v -22.1976 -2.90017 136.893
v -39.4052 -4.26158 136.893
v -22.1976 -4.26158 136.893
v -39.4052 -2.79396 137.6
v -22.1976 -2.79396 137.6
v -39.4052 -2.79396 136.937
v -22.1976 -2.79396 136.937
vn 0 0 1
vn 0 0.029971 0.999551
vn 0 0.996894 0.078754
vn 0 0.996894 -0.078752
vn 0 0.029971 -0.999551
vn 0 0 -1
vn 0 0.707085 0.707129
vn 0 0.707121 -0.707093
vt 0.001713 0.996029
vt 0.001713 0.003968
vt 0.0802 0.996027
vt 0.0802 0.003971
vt 0.093455 0.996027
vt 0.093455 0.003971
vt 0.119439 0.996028
vt 0.119439 0.003969
vt 0.132695 0.996028
vt 0.132695 0.003969
vt 0.21118 0.99603
vt 0.21118 0.003968
vt 0.086828 0.996027
vt 0.086828 0.003971
vt 0.126067 0.996029
vt 0.126067 0.003969
usemtl polySurface16SG
f 1/1/1 2/2/1 3/3/2
f 3/3/2 2/2/1 4/4/2
f 5/5/3 6/6/3 7/7/4
f 7/7/4 6/6/3 8/8/4
f 9/9/5 10/10/5 11/11/6
f 11/11/6 10/10/5 12/12/6
f 5/5/3 13/13/7 6/6/3
f 6/6/3 13/13/7 14/14/7
f 13/13/7 3/3/2 14/14/7
f 14/14/7 3/3/2 4/4/2
f 9/9/5 15/15/8 10/10/5
f 10/10/5 15/15/8 16/16/8
f 15/15/8 7/7/4 16/16/8
f 16/16/8 7/7/4 8/8/4
s off
g TrainRailway_polySurface17SG
v -39.4052 -4.26158 128.675
v -22.1976 -4.26158 128.675
v -39.4052 -2.90017 128.675
v -22.1976 -2.90017 128.675
v -39.4052 -2.74996 128.525
v -22.1976 -2.74996 128.525
v -39.4052 -2.74996 128.074
v -22.1976 -2.74996 128.074
v -39.4052 -2.90017 127.924
v -22.1976 -2.90017 127.924
v -39.4052 -4.26158 127.924
v -22.1976 -4.26158 127.924
v -39.4052 -2.79396 128.631
v -22.1976 -2.79396 128.631
v -39.4052 -2.79396 127.968
v -22.1976 -2.79396 127.968
vn 0 0 1
vn 0 0.029971 0.999551
vn 0 0.996894 0.078754
vn 0 0.996894 -0.078752
vn 0 0.029971 -0.999551
vn 0 0 -1
vn 0 0.707085 0.707129
vn 0 0.707121 -0.707093
vt 0.220416 0.996032
vt 0.220416 0.003971
vt 0.298904 0.996029
vt 0.298904 0.003973
vt 0.312159 0.99603
vt 0.312159 0.003972
vt 0.338144 0.99603
vt 0.338144 0.003972
vt 0.351401 0.99603
vt 0.351401 0.003972
vt 0.429887 0.996031
vt 0.429887 0.003971
vt 0.305532 0.99603
vt 0.305532 0.003973
vt 0.344773 0.996031
vt 0.344772 0.003972
usemtl polySurface17SG
f 17/17/9 18/18/9 19/19/10
f 19/19/10 18/18/9 20/20/10
f 21/21/11 22/22/11 23/23/12
f 23/23/12 22/22/11 24/24/12
f 25/25/13 26/26/13 27/27/14
f 27/27/14 26/26/13 28/28/14
f 21/21/11 29/29/15 22/22/11
f 22/22/11 29/29/15 30/30/15
f 29/29/15 19/19/10 30/30/15
f 30/30/15 19/19/10 20/20/10
f 25/25/13 31/31/16 26/26/13
f 26/26/13 31/31/16 32/32/16
f 31/31/16 23/23/12 32/32/16
f 32/32/16 23/23/12 24/24/12
s off
g TrainRailway_polySurface13SG
v -32.1864 -3.87742 137.001
v -29.1245 -3.87742 137.001
v -32.1864 -3.87742 128.504
v -29.1245 -3.87742 128.504
v -29.1245 -4.26158 137.001
v -29.1245 -4.26158 128.504
v -32.1864 -4.26158 128.504
v -32.1864 -4.26158 137.001
vn 0 1 0
vn 1 0 0
vn -1 0 0
vt 0.62845 0.7173
vt 0.371645 0.717088
vt 0.628743 0.004217
vt 0.37169 0.004275
vt 0.339425 0.717076
vt 0.339445 0.00429
vt 0.660979 0.004183
vt 0.662313 0.716802
usemtl polySurface13SG
f 33/33/17 34/34/17 35/35/17
f 35/35/17 34/34/17 36/36/17
f 37/37/18 38/38/18 34/34/18
f 34/34/18 38/38/18 36/36/18
f 39/39/19 40/40/19 35/35/19
f 35/35/19 40/40/19 33/33/19
s off
g TrainRailway_polySurface14SG
v -26.6002 -3.87742 137.001
v -23.5382 -3.87742 137.001
v -26.6002 -3.87742 128.504
v -23.5382 -3.87742 128.504
v -23.5382 -4.26158 137.001
v -23.5382 -4.26158 128.504
v -26.6002 -4.26158 128.504
v -26.6002 -4.26158 137.001
vn 0 1 0
vn 1 0 0
vn -1 0 0
vt 0.961603 0.71822
vt 0.704951 0.717874
vt 0.961989 0.005422
vt 0.705028 0.00532
vt 0.672747 0.717852
vt 0.672786 0.005323
vt 0.994193 0.005389
vt 0.996032 0.717222
usemtl polySurface14SG
f 41/41/20 42/42/20 43/43/20
f 43/43/20 42/42/20 44/44/20
f 45/45/21 46/46/21 42/42/21
f 42/42/21 46/46/21 44/44/21
f 47/47/22 48/48/22 43/43/22
f 43/43/22 48/48/22 41/41/22
s off
g TrainRailway_polySurface15SG
v -38.0062 -3.87742 137.001
v -34.9442 -3.87742 137.001
v -38.0062 -3.87742 128.504
v -34.9442 -3.87742 128.504
v -34.9442 -4.26158 137.001
v -34.9442 -4.26158 128.504
v -38.0062 -4.26158 128.504
v -38.0062 -4.26158 137.001
vn 0 1 0
vn 1 0 0
vn -1 0 0
vt 0.29316 0.716235
vt 0.036206 0.716063
vt 0.293492 0.002883
vt 0.036401 0.002913
vt 0.003968 0.71605
vt 0.004147 0.00292
vt 0.325745 0.002861
vt 0.326505 0.716018
usemtl polySurface15SG
f 49/49/23 50/50/23 51/51/23
f 51/51/23 50/50/23 52/52/23
f 53/53/24 54/54/24 50/50/24
f 50/50/24 54/54/24 52/52/24
f 55/55/25 56/56/25 51/51/25
f 51/51/25 56/56/25 49/49/25
s off
