# Apple ModelIO OBJ File: Taiyaki_Tong
mtllib Taiyaki_Tong.mtl
g Taiyaki_Tong_Taiyaki_TongSG
v 0.252367 -0.842867 0.171648
v 0.251394 -0.685854 0.173136
v 0.244623 -0.842867 0.162806
v 0.243686 -0.685854 0.164373
v 0.20981 -0.338517 0.089163
v 0.218565 -0.338516 0.100039
v 0.025978 0.92354 0.116068
v 0.030063 0.925074 0.124632
v 0.28351 -0.842867 0.162897
v 0.28899 -0.685854 0.164457
v 0.281311 -0.685854 0.173143
v 0.275842 -0.842867 0.171648
v 0.276973 -0.338517 0.089437
v 0.121063 0.927034 0.116068
v 0.269285 -0.338516 0.100039
v 0.116911 0.926142 0.124601
v -0.281311 -0.685854 0.173155
v -0.28899 -0.685854 0.164465
v -0.283547 -0.842867 0.162897
v -0.275879 -0.842867 0.171648
v -0.277483 -0.338919 0.08943
v -0.269793 -0.338919 0.100039
v -0.1211 0.927034 0.116068
v -0.116948 0.926141 0.124601
v -0.244658 -0.842867 0.162806
v -0.243647 -0.685854 0.16437
v -0.251351 -0.685854 0.173143
v -0.252402 -0.842867 0.171648
v -0.030098 0.925076 0.124632
v -0.219656 -0.338919 0.100039
v -0.026015 0.92354 0.116068
v -0.210904 -0.33892 0.089479
v 0.121063 0.927034 -0.116068
v 0.116903 0.926141 -0.124601
v 0.109895 0.975968 -0.116076
v 0.106063 0.973678 -0.124636
v 0.269285 -0.338516 -0.100039
v 0.276973 -0.338517 -0.089437
v 0.278484 -0.489946 -0.127859
v 0.286243 -0.489946 -0.118208
v 0.281311 -0.685854 -0.173143
v 0.28899 -0.685854 -0.164457
v -0.116948 0.926141 -0.124601
v -0.269793 -0.338919 -0.100039
v -0.1211 0.927034 -0.116068
v -0.277483 -0.338919 -0.089434
v -0.1061 0.973678 -0.124636
v -0.109934 0.975968 -0.116076
v -0.28899 -0.685854 -0.164465
v -0.286517 -0.489946 -0.118216
v -0.281311 -0.685854 -0.173155
v -0.278759 -0.489946 -0.127867
v 0.109895 0.975968 0.116076
v 0.106063 0.973678 0.124632
v 0.084167 1.01737 0.124632
v 0.087354 1.02095 0.116076
v 0.05862 1.0464 0.124632
v 0.060924 1.05097 0.116076
v 0.087354 1.02095 -0.116076
v 0.084167 1.01737 -0.124636
v 0.05862 1.0464 -0.124636
v 0.060924 1.05097 -0.116076
v -0.109934 0.975968 0.116076
v -0.1061 0.973678 0.124632
v -0.084204 1.01737 0.124632
v -0.087391 1.02095 0.116076
v -0.084204 1.01737 -0.124636
v -0.087391 1.02095 -0.116076
v -0.058657 1.0464 0.124632
v -0.060961 1.05097 0.116076
v -0.058657 1.0464 -0.124636
v -0.060961 1.05097 -0.116076
v 0.02787 1.065 0.124632
v 0.029102 1.07023 0.116076
v 0.029102 1.07023 -0.116076
v 0.02787 1.065 -0.124636
v -0.029139 1.07023 0.116076
v -0.027907 1.065 0.124632
v -1.8e-05 1.07619 0.116076
v -1.8e-05 1.07071 0.124632
v -1.8e-05 1.07619 -0.116076
v -1.8e-05 1.07071 -0.124636
v -0.029139 1.07023 -0.116076
v -0.027907 1.065 -0.124636
v 0.20981 -0.338517 -0.089163
v 0.025978 0.92354 -0.116068
v 0.218565 -0.338516 -0.100039
v 0.030063 0.925074 -0.124636
v 0.01761 0.945532 -0.116076
v 0.020637 0.949815 -0.124636
v 0.243686 -0.685854 -0.164373
v 0.225181 -0.489946 -0.117914
v 0.251394 -0.685854 -0.173136
v 0.233591 -0.489946 -0.127851
v -0.017647 0.945532 -0.116076
v -0.026015 0.92354 -0.116068
v -0.030089 0.925071 -0.124636
v -0.020674 0.949815 -0.124636
v -0.219656 -0.338919 -0.100039
v -0.210904 -0.33892 -0.089167
v -0.234164 -0.489946 -0.127859
v -0.225756 -0.489946 -0.117922
v -0.251351 -0.685854 -0.173143
v -0.243647 -0.685854 -0.164385
v -1.8e-05 0.954419 0.116076
v 0.01761 0.945532 0.116076
v -1.8e-05 0.960228 0.124632
v 0.020637 0.949815 0.124632
v -1.8e-05 0.960227 -0.124636
v -1.8e-05 0.954418 -0.116076
v -0.017647 0.945532 0.116076
v -0.020674 0.949815 0.124632
v 0.244623 -0.842867 -0.162806
v 0.252367 -0.842867 -0.171648
v 0.28351 -0.842867 -0.162901
v 0.275842 -0.842867 -0.171648
v -0.252402 -0.842867 -0.171648
v -0.244658 -0.842867 -0.162806
v -0.283547 -0.842867 -0.162901
v -0.275879 -0.842867 -0.171648
v 0.240556 -0.982983 -0.136503
v 0.232311 -0.982983 -0.12636
v 0.240583 -0.893548 -0.153547
v 0.2486 -0.893439 -0.162901
v 0.276973 -0.893685 -0.153936
v 0.264955 -0.982983 -0.127611
v 0.257255 -0.982983 -0.136503
v 0.269197 -0.893649 -0.16276
v 0.257255 -0.982983 0.136503
v 0.264955 -0.982983 0.127611
v 0.276973 -0.893685 0.153936
v 0.269197 -0.893649 0.16276
v 0.240583 -0.893548 0.153547
v 0.232311 -0.982983 0.12636
v 0.240556 -0.982983 0.136503
v 0.2486 -0.893439 0.162901
v -0.257292 -0.982983 -0.136503
v -0.264992 -0.982983 -0.127611
v -0.277014 -0.893685 -0.153936
v -0.269242 -0.89365 -0.162756
v -0.240633 -0.893548 -0.153543
v -0.232348 -0.982983 -0.12636
v -0.240593 -0.982983 -0.136503
v -0.248648 -0.893439 -0.162901
v -0.240593 -0.982983 0.136503
v -0.232348 -0.982983 0.12636
v -0.240633 -0.893548 0.153547
v -0.248648 -0.893439 0.162901
v -0.277014 -0.893685 0.153936
v -0.264992 -0.982983 0.127611
v -0.257292 -0.982983 0.136503
v -0.269242 -0.89365 0.162756
v 0.226306 -1.05636 -0.071543
v 0.21948 -1.04808 -0.066454
v 0.240692 -1.04996 -0.067404
v 0.23172 -1.05636 -0.071543
v 0.240692 -1.04996 0.067404
v 0.23172 -1.05636 0.071543
v 0.226306 -1.05636 0.071543
v 0.21948 -1.04808 0.066454
v -0.240729 -1.04996 -0.067404
v -0.231757 -1.05636 -0.071543
v -0.226342 -1.05636 -0.071543
v -0.219517 -1.04808 -0.066454
v -0.226342 -1.05636 0.071543
v -0.219517 -1.04808 0.066454
v -0.240729 -1.04996 0.067404
v -0.231757 -1.05636 0.071543
v 0.21948 -1.06792 0.001188
v 0.226306 -1.07619 0.001276
v 0.23172 -1.07619 0.001276
v 0.240692 -1.06979 0.001204
v -0.240729 -1.06979 0.001204
v -0.231757 -1.07619 0.001276
v -0.226342 -1.07619 0.001276
v -0.219517 -1.06792 0.001188
v 0.029102 1.07023 0.002073
v 0.060924 1.05097 0.002073
v 0.121063 0.927034 0.002073
v 0.276973 -0.338517 0.001596
v 0.224922 -0.338516 0.001593
v 0.027849 0.92354 0.002073
v -0.029139 1.07023 0.002073
v -0.060961 1.05097 0.002073
v -0.027886 0.92354 0.002073
v -0.226092 -0.338919 0.001749
v -0.277483 -0.33892 0.001596
v -0.1211 0.927034 0.002073
v 0.087354 1.02095 0.002073
v 0.109895 0.975968 0.002073
v -0.109934 0.975968 0.002073
v -0.087391 1.02095 0.002073
v -1.8e-05 1.07619 0.002073
v 0.01761 0.945532 0.002073
v -1.8e-05 0.954419 0.002073
v -0.017647 0.945532 0.002073
v 0.255136 -0.685854 0.002932
v 0.241479 -0.489946 0.002108
v 0.278484 -0.489946 0.127859
v 0.233591 -0.489946 0.127851
v 0.288986 -0.685854 0.002932
v 0.286363 -0.489946 0.002111
v -0.288989 -0.685854 0.002935
v -0.286637 -0.489946 0.002111
v -0.234164 -0.489946 0.127855
v -0.278759 -0.489946 0.127867
v -0.255099 -0.685854 0.002924
v -0.242094 -0.489946 0.00218
v 0.28351 -0.842867 0.002909
v 0.251506 -0.842867 0.002905
v -0.251543 -0.842867 0.002905
v -0.283547 -0.842867 0.002909
v 0.27778 -0.910676 0.00279
v 0.264955 -0.982984 0.002283
v 0.245166 -0.910232 0.002787
v 0.232311 -0.982984 0.00226
v -0.245217 -0.910232 0.002787
v -0.232348 -0.982984 0.00226
v -0.277823 -0.910676 0.00279
v -0.264992 -0.982984 0.002283
v -0.286517 -0.489946 0.118216
v 0.286243 -0.489946 0.118208
v 0.225181 -0.489946 0.11791
v -0.225756 -0.489946 0.118074
vn -0.263144 -0.09588 0.95998
vn -0.197854 0.127577 0.971894
vn -0.998954 0.044726 0.009522
vn -0.999326 -0.03393 -0.014043
vn -0.989224 -0.144469 -0.023745
vn -0.119412 -0.021231 0.992618
vn -0.987953 -0.154345 -0.011274
vn -0.125456 -0.037515 0.99139
vn 0.995171 -0.081632 0.054501
vn 0.998447 -0.003807 0.055574
vn 0.208163 0.133482 0.968943
vn 0.269331 -0.12129 0.955379
vn 0.992012 0.115315 0.051137
vn 0.990724 0.12523 0.052765
vn 0.147109 0.015791 0.988994
vn 0.121992 -0.003515 0.992525
vn -0.208275 0.133168 0.968962
vn -0.998444 -0.004363 0.055594
vn -0.995183 -0.081492 0.054495
vn -0.269246 -0.121251 0.955408
vn -0.991995 0.115459 0.05113
vn -0.147817 0.015823 0.988888
vn -0.990684 0.125539 0.052773
vn -0.122475 -0.003409 0.992466
vn 0.998967 0.044447 0.009506
vn 0.999367 -0.0326 -0.014207
vn 0.19782 0.127595 0.971898
vn 0.263109 -0.095931 0.959985
vn 0.123984 -0.037381 0.99158
vn 0.11762 -0.021047 0.992836
vn 0.987827 -0.155123 -0.011648
vn 0.989166 -0.144826 -0.024016
vn 0.990804 0.12528 -0.051103
vn 0.122037 -0.003515 -0.992519
vn 0.94054 0.33807 -0.03305
vn 0.148843 0.052034 -0.987491
vn 0.147151 0.015792 -0.988988
vn 0.992094 0.115315 -0.049513
vn 0.191516 0.207235 -0.959362
vn 0.99782 0.039867 -0.052594
vn 0.208147 0.133484 -0.968946
vn 0.998546 -0.004062 -0.053752
vn -0.122472 -0.003411 -0.992466
vn -0.147806 0.015821 -0.98889
vn -0.990766 0.125593 -0.051083
vn -0.992079 0.115461 -0.049483
vn -0.148833 0.052034 -0.987492
vn -0.940541 0.33807 -0.033043
vn -0.998543 -0.004621 -0.05377
vn -0.997876 0.038461 -0.05258
vn -0.208275 0.133164 -0.968963
vn -0.192501 0.207271 -0.959157
vn 0.940498 0.338079 0.034163
vn 0.148791 0.052053 0.987498
vn 0.164628 0.105269 0.980722
vn 0.836443 0.546896 0.035604
vn 0.118186 0.136664 0.983542
vn 0.644798 0.763398 0.038189
vn 0.836489 0.546901 -0.034432
vn 0.164686 0.105306 -0.980708
vn 0.118294 0.13672 -0.983521
vn 0.644846 0.76342 -0.036934
vn -0.940498 0.338076 0.034164
vn -0.148734 0.052048 0.987507
vn -0.164567 0.105264 0.980733
vn -0.836436 0.546907 0.035603
vn -0.164666 0.105308 -0.980712
vn -0.836482 0.546911 -0.034434
vn -0.118168 0.136663 0.983544
vn -0.644788 0.763407 0.038187
vn -0.118263 0.136722 -0.983525
vn -0.644835 0.763429 -0.036933
vn 0.048856 0.115586 0.992095
vn 0.381549 0.923482 0.040027
vn 0.381592 0.92352 -0.038711
vn 0.048983 0.115634 -0.992083
vn -0.381537 0.923486 0.040027
vn -0.048865 0.115586 0.992095
vn -0 0.99916 0.040973
vn -1.5e-05 0.100581 0.994929
vn 0 0.999215 -0.039626
vn 1.5e-05 0.100623 -0.994925
vn -0.381576 0.923526 -0.038711
vn -0.048956 0.115631 -0.992085
vn -0.989249 -0.144428 0.022967
vn -0.987953 -0.154371 0.01092
vn -0.119396 -0.021232 -0.99262
vn -0.12545 -0.037519 -0.99139
vn -0.754853 -0.654492 -0.042869
vn -0.035095 -0.031997 -0.998872
vn -0.999337 -0.033787 0.013576
vn -0.994895 -0.088689 0.048158
vn -0.197828 0.127577 -0.971899
vn -0.191061 0.182146 -0.96453
vn 0.754829 -0.654522 -0.042836
vn 0.98783 -0.155129 0.011307
vn 0.125968 -0.037685 -0.991318
vn 0.035098 -0.031985 -0.998872
vn 0.119739 -0.021346 -0.992576
vn 0.989189 -0.144781 0.02332
vn 0.192077 0.182976 -0.964171
vn 0.99516 -0.085527 0.048396
vn 0.198509 0.127536 -0.971766
vn 0.999379 -0.03248 0.013696
vn -0 -0.998278 0.058661
vn -0.754874 -0.654371 0.044306
vn -1.6e-05 -0.0372 0.999308
vn -0.035127 -0.031962 0.998872
vn 1.3e-05 -0.037222 -0.999307
vn -7e-06 -0.998387 -0.056777
vn 0.754857 -0.654392 0.044301
vn 0.035137 -0.031962 0.998871
vn -0.998949 0.044906 -0.009204
vn -0.263139 -0.095882 -0.959982
vn 0.995288 -0.081396 -0.052686
vn 0.269284 -0.121287 -0.955393
vn 0.26303 -0.095934 -0.960006
vn 0.998961 0.044628 -0.00919
vn -0.995299 -0.081265 -0.052682
vn -0.269186 -0.121254 -0.955425
vn -0.344871 -0.316098 -0.883824
vn -0.995316 0.09224 -0.028947
vn -0.994818 0.099477 -0.021033
vn -0.314019 -0.203867 -0.92727
vn 0.988075 -0.142763 -0.057676
vn 0.980524 -0.185886 -0.063392
vn 0.307749 -0.388901 -0.868358
vn 0.294765 -0.266237 -0.917732
vn 0.307794 -0.388895 0.868345
vn 0.980169 -0.186993 0.065594
vn 0.987885 -0.143247 0.05969
vn 0.294827 -0.266235 0.917713
vn -0.994831 0.099188 0.021773
vn -0.99536 0.091435 0.029957
vn -0.344895 -0.316087 0.883819
vn -0.314039 -0.20386 0.927265
vn -0.307756 -0.388914 -0.868351
vn -0.980526 -0.185878 -0.06339
vn -0.988077 -0.142755 -0.05767
vn -0.294796 -0.266247 -0.917719
vn 0.994819 0.099465 -0.021027
vn 0.995317 0.092232 -0.02894
vn 0.344921 -0.316096 -0.883806
vn 0.314053 -0.203858 -0.927261
vn 0.344871 -0.31611 0.88382
vn 0.995361 0.091429 0.029945
vn 0.994832 0.099178 0.021762
vn 0.313976 -0.203874 0.927283
vn -0.987887 -0.143239 0.05968
vn -0.980171 -0.186986 0.06559
vn -0.307788 -0.38891 0.868341
vn -0.294839 -0.266243 0.917706
vn -0.47322 -0.678229 -0.5622
vn -0.995454 0.084853 -0.043264
vn 0.921239 -0.379686 -0.0846
vn 0.316151 -0.780756 -0.538952
vn 0.920363 -0.381172 0.087401
vn 0.315392 -0.777422 0.544191
vn -0.47248 -0.674333 0.567483
vn -0.995445 0.084267 0.044594
vn -0.92124 -0.379684 -0.084599
vn -0.316136 -0.780755 -0.538962
vn 0.473223 -0.678218 -0.562209
vn 0.995452 0.084873 -0.043256
vn 0.47247 -0.674351 0.567471
vn 0.995444 0.084278 0.044587
vn -0.920366 -0.381165 0.087402
vn -0.315368 -0.77743 0.544193
vn -0.997256 0.074037 0.00016
vn -0.560895 -0.827887 0.000408
vn 0.418841 -0.908059 0.000411
vn 0.925981 -0.377571 -0.000423
vn -0.925981 -0.377569 -0.000421
vn -0.418796 -0.90808 0.00042
vn 0.56089 -0.82789 0.00041
vn 0.997254 0.074062 0.000161
vn 0.382351 0.924017 -0
vn 0.645869 0.763449 -0
vn 0.991958 0.126564 -0
vn 0.993275 0.115775 -0
vn -0.989413 -0.145127 7e-05
vn -0.988159 -0.153432 -2.2e-05
vn -0.382338 0.924023 -0
vn -0.645857 0.763458 0
vn 0.988039 -0.154203 -1.5e-05
vn 0.989359 -0.145497 5.9e-05
vn -0.993257 0.115936 -0
vn -0.991919 0.126875 -0
vn 0.837338 0.546686 -0
vn 0.941209 0.337824 -0
vn -0.94121 0.337822 0
vn -0.837333 0.546694 0
vn 0 1 -0
vn -0.753643 -0.657284 2e-06
vn 0 -1 4e-06
vn 0.753618 -0.657313 2e-06
vn -0.999021 -0.044235 -0.000136
vn -0.994729 -0.102538 5.1e-05
vn 0.191506 0.207236 0.959364
vn -0.191106 0.182144 0.964522
vn 0.999953 -0.009663 1e-06
vn 0.999517 0.031089 -0
vn -0.999947 -0.010273 1e-06
vn -0.99956 0.029667 -0
vn 0.189554 0.183229 0.964622
vn -0.192475 0.207273 0.959162
vn 0.999084 -0.0428 -0.000122
vn 0.995053 -0.099346 5.4e-05
vn 0.996953 -0.077999 5e-06
vn -0.998445 0.055747 -1.2e-05
vn 0.99846 0.055482 -1.3e-05
vn -0.996964 -0.07787 5e-06
vn 0.991367 -0.131119 -0
vn 0.983653 -0.180076 3.2e-05
vn -0.993476 0.114039 -0
vn -0.991549 0.129731 7.1e-05
vn 0.993478 0.114026 0
vn 0.991551 0.129722 7.1e-05
vn -0.991368 -0.131112 0
vn -0.983654 -0.180072 3.2e-05
vn -0.997765 0.038855 0.054358
vn 0.997709 0.040265 0.054371
vn -0.994779 -0.089091 -0.049784
vn 0.995048 -0.085852 -0.050082
vt 0.301631 0.102816
vt 0.306227 0.167826
vt 0.296847 0.102957
vt 0.301296 0.168623
vt 0.300919 0.326552
vt 0.3072 0.326057
vt 0.294282 0.903116
vt 0.298586 0.903674
vt 0.31575 0.101397
vt 0.323852 0.166743
vt 0.318912 0.166738
vt 0.311076 0.102093
vt 0.335816 0.322573
vt 0.341853 0.898977
vt 0.329934 0.323065
vt 0.337546 0.89892
vt 0.909094 0.083466
vt 0.910289 0.054175
vt 0.912426 0.054321
vt 0.894261 0.200018
vt 0.900478 0.200509
vt 0.894676 0.817912
vt 0.899298 0.817795
vt 0.918958 0.054257
vt 0.918922 0.084053
vt 0.916166 0.083793
vt 0.916757 0.054337
vt 0.941098 0.822367
vt 0.924203 0.203337
vt 0.945705 0.82171
vt 0.930737 0.203726
vt 0.41801 0.899575
vt 0.422295 0.898993
vt 0.422861 0.922353
vt 0.426906 0.920577
vt 0.359477 0.324696
vt 0.353572 0.324912
vt 0.356251 0.257523
vt 0.351079 0.258384
vt 0.35539 0.174011
vt 0.350681 0.17444
vt 0.540071 0.888671
vt 0.602606 0.310193
vt 0.544384 0.889252
vt 0.608559 0.310404
vt 0.535417 0.910229
vt 0.539449 0.912011
vt 0.610763 0.157811
vt 0.610867 0.2429
vt 0.606029 0.157402
vt 0.605614 0.242046
vt 0.339774 0.921947
vt 0.335593 0.920679
vt 0.328661 0.941431
vt 0.332421 0.943802
vt 0.319277 0.955957
vt 0.3223 0.959329
vt 0.432878 0.94343
vt 0.436379 0.940588
vt 0.447609 0.954067
vt 0.444986 0.957845
vt 0.897401 0.842924
vt 0.901915 0.841428
vt 0.91023 0.863622
vt 0.906277 0.86636
vt 0.525922 0.930168
vt 0.529395 0.933004
vt 0.921017 0.8788
vt 0.917941 0.882565
vt 0.51475 0.94357
vt 0.517368 0.947318
vt 0.306941 0.966287
vt 0.308998 0.970367
vt 0.459727 0.967304
vt 0.461295 0.962938
vt 0.932755 0.893747
vt 0.934736 0.889264
vt 0.946762 0.89835
vt 0.947753 0.893485
vt 0.296191 0.975354
vt 0.294972 0.970818
vt 0.473236 0.970735
vt 0.473899 0.966019
vt 0.502695 0.956746
vt 0.48925 0.960133
vt 0.501134 0.952397
vt 0.488593 0.955436
vt 0.388705 0.324635
vt 0.466199 0.897907
vt 0.38241 0.324915
vt 0.46198 0.898993
vt 0.46933 0.907279
vt 0.466184 0.910442
vt 0.372333 0.174312
vt 0.380777 0.258203
vt 0.367576 0.17398
vt 0.375299 0.257547
vt 0.493137 0.896979
vt 0.496211 0.887587
vt 0.500458 0.888671
vt 0.496277 0.900121
vt 0.57976 0.31046
vt 0.573418 0.310195
vt 0.586413 0.242138
vt 0.580856 0.24283
vt 0.593769 0.1574
vt 0.588992 0.157743
vt 0.285847 0.917631
vt 0.292352 0.912732
vt 0.287433 0.921619
vt 0.29583 0.91545
vt 0.475384 0.91559
vt 0.47647 0.911373
vt 0.954963 0.836597
vt 0.953482 0.840898
vt 0.947861 0.83176
vt 0.944308 0.834729
vt 0.487122 0.905257
vt 0.486047 0.901062
vt 0.371271 0.110613
vt 0.366602 0.110854
vt 0.352718 0.110679
vt 0.357332 0.110943
vt 0.594816 0.094772
vt 0.590248 0.094502
vt 0.60838 0.094568
vt 0.60387 0.094858
vt 0.369132 0.059851
vt 0.373015 0.058289
vt 0.371606 0.090599
vt 0.367281 0.091499
vt 0.355757 0.090561
vt 0.360343 0.058364
vt 0.363798 0.059918
vt 0.359889 0.091528
vt 0.300917 0.053226
vt 0.304081 0.051553
vt 0.310693 0.081843
vt 0.306772 0.083105
vt 0.295328 0.083002
vt 0.292124 0.052222
vt 0.295878 0.053475
vt 0.29959 0.083605
vt 0.597833 0.048892
vt 0.600797 0.047576
vt 0.604956 0.075719
vt 0.601235 0.076624
vt 0.590665 0.075675
vt 0.589957 0.047423
vt 0.593263 0.048797
vt 0.594548 0.076563
vt 0.918348 0.029908
vt 0.920257 0.02911
vt 0.919348 0.044826
vt 0.917266 0.045223
vt 0.91175 0.044722
vt 0.914024 0.029217
vt 0.915727 0.029966
vt 0.913714 0.045195
vt 0.373146 0.029798
vt 0.376679 0.030092
vt 0.36797 0.029607
vt 0.371529 0.029756
vt 0.295354 0.02516
vt 0.292059 0.025464
vt 0.290562 0.025584
vt 0.287305 0.026063
vt 0.594458 0.023438
vt 0.591526 0.023524
vt 0.590196 0.023541
vt 0.587294 0.023751
vt 0.919953 0.014658
vt 0.921716 0.014799
vt 0.917376 0.014609
vt 0.919136 0.014648
vt 0.377991 0.008227
vt 0.374791 0.007288
vt 0.373111 0.007167
vt 0.369699 0.007469
vt 0.59323 0.005707
vt 0.5905 0.005433
vt 0.589153 0.005511
vt 0.586579 0.00622
vt 0.067073 0.021337
vt 0.067113 0.039112
vt 0.010767 0.039162
vt 0.010744 0.021417
vt 0.06716 0.106285
vt 0.0655 0.712867
vt 0.022759 0.713009
vt 0.010915 0.106191
vt 0.773717 0.300403
vt 0.816365 0.298581
vt 0.830171 0.896179
vt 0.774883 0.8976
vt 0.203054 0.97401
vt 0.150726 0.973795
vt 0.150726 0.957351
vt 0.203168 0.957507
vt 0.678723 0.026295
vt 0.675423 0.629283
vt 0.632434 0.628215
vt 0.622951 0.025838
vt 0.164156 0.321133
vt 0.205002 0.321307
vt 0.203493 0.894828
vt 0.150416 0.89468
vt 0.01086 0.082259
vt 0.010801 0.058254
vt 0.067164 0.058209
vt 0.067153 0.082277
vt 0.203399 0.917278
vt 0.20328 0.939718
vt 0.150668 0.939623
vt 0.150556 0.917202
vt 0.010738 0.007249
vt 0.067061 0.007138
vt 0.775089 0.908649
vt 0.830427 0.907548
vt 0.830623 0.916806
vt 0.77527 0.917902
vt 0.622972 0.005369
vt 0.678838 0.00546
vt 0.678786 0.014815
vt 0.622958 0.014705
vt 0.202956 0.98718
vt 0.150688 0.986934
vt 0.815245 0.152089
vt 0.815374 0.2319
vt 0.748319 0.150562
vt 0.763818 0.231938
vt 0.325962 0.254498
vt 0.306226 0.25655
vt 0.067609 0.85451
vt 0.003805 0.857128
vt 0.065703 0.778494
vt 0.016254 0.780354
vt 0.206905 0.169426
vt 0.205641 0.25426
vt 0.134941 0.167935
vt 0.152843 0.253458
vt 0.920573 0.139152
vt 0.905754 0.137974
vt 0.676981 0.773626
vt 0.610838 0.775647
vt 0.675448 0.6953
vt 0.624638 0.696181
vt 0.007545 0.915073
vt 0.068574 0.912131
vt 0.752128 0.088811
vt 0.816964 0.092005
vt 0.61404 0.836092
vt 0.677723 0.833673
vt 0.20833 0.102949
vt 0.137658 0.100771
vt 0.011914 0.933647
vt 0.069461 0.936847
vt 0.023322 0.965901
vt 0.070501 0.963436
vt 0.756845 0.069066
vt 0.818167 0.065982
vt 0.819541 0.037439
vt 0.769475 0.034601
vt 0.618418 0.855428
vt 0.678407 0.85935
vt 0.630189 0.889259
vt 0.679171 0.887371
vt 0.142248 0.079027
vt 0.209153 0.074162
vt 0.210005 0.043106
vt 0.154884 0.041105
vt 0.046525 0.990493
vt 0.071741 0.996032
vt 0.794332 0.010124
vt 0.821124 0.004149
vt 0.653987 0.913556
vt 0.680003 0.91996
vt 0.181594 0.011909
vt 0.210978 0.00502
vt 0.272587 0.083336
vt 0.275644 0.105052
vt 0.262843 0.045049
vt 0.275644 0.169313
vt 0.256441 0.254176
vt 0.24442 0.321407
vt 0.254722 0.895009
vt 0.254477 0.917646
vt 0.254144 0.940184
vt 0.253873 0.958008
vt 0.253639 0.974512
vt 0.253484 0.987681
vt 0.121567 0.021228
vt 0.121532 0.006998
vt 0.121622 0.039035
vt 0.121628 0.058202
vt 0.121591 0.082343
vt 0.121439 0.10642
vt 0.106732 0.713202
vt 0.124105 0.854511
vt 0.112707 0.780377
vt 0.125683 0.910148
vt 0.123323 0.928521
vt 0.115512 0.961176
vt 0.095297 0.987885
vt 0.289541 0.005522
vt 0.292688 0.005602
vt 0.288009 0.00572
vt 0.285113 0.006715
vt 0.845948 0.013382
vt 0.86736 0.040549
vt 0.875508 0.075761
vt 0.877698 0.095421
vt 0.877698 0.150074
vt 0.86471 0.230372
vt 0.857568 0.298547
vt 0.883561 0.895143
vt 0.883875 0.906229
vt 0.884115 0.915513
vt 0.73272 0.005925
vt 0.732644 0.015258
vt 0.732546 0.026407
vt 0.716935 0.628637
vt 0.736563 0.773626
vt 0.723882 0.696353
vt 0.737691 0.832138
vt 0.734932 0.851322
vt 0.726025 0.885512
vt 0.704438 0.911555
vt 0.920848 0.004044
vt 0.922396 0.004505
vt 0.92007 0.003968
vt 0.91841 0.004072
vt 0.238636 0.014125
vt 0.924867 0.139737
vt 0.901656 0.138087
vt 0.331396 0.25487
vt 0.300609 0.25783
usemtl Taiyaki_TongSG
f 1/1/1 2/2/2 3/3/3
f 2/2/2 4/4/4 3/3/3
f 5/5/5 6/6/6 7/7/7
f 7/7/7 6/6/6 8/8/8
f 9/9/9 10/10/10 11/11/11
f 9/9/9 11/11/11 12/12/12
f 13/13/13 14/14/14 15/15/15
f 15/15/15 14/14/14 16/16/16
f 17/17/17 18/17/18 19/18/19
f 17/17/17 19/18/19 20/19/20
f 21/20/21 22/21/22 23/22/23
f 23/22/23 22/21/22 24/23/24
f 25/24/25 26/25/26 27/26/27
f 25/24/25 27/26/27 28/27/28
f 29/28/29 30/29/30 31/30/31
f 30/29/30 32/31/32 31/30/31
f 33/32/33 34/33/34 35/34/35
f 34/33/34 36/35/36 35/34/35
f 34/33/34 33/32/33 37/36/37
f 37/36/37 33/32/33 38/37/38
f 39/38/39 40/39/40 41/40/41
f 40/39/40 42/41/42 41/40/41
f 43/42/43 44/43/44 45/44/45
f 45/44/45 44/43/44 46/45/46
f 47/46/47 43/42/43 48/47/48
f 43/42/43 45/44/45 48/47/48
f 49/48/49 50/49/50 51/50/51
f 50/49/50 52/51/52 51/50/51
f 14/14/14 53/52/53 16/16/16
f 53/52/53 54/53/54 16/16/16
f 55/54/55 54/53/54 56/55/56
f 54/53/54 53/52/53 56/55/56
f 57/56/57 55/54/55 56/55/56
f 57/56/57 56/55/56 58/57/58
f 35/34/35 36/35/36 59/58/59
f 36/35/36 60/59/60 59/58/59
f 59/58/59 60/59/60 61/60/61
f 59/58/59 61/60/61 62/61/62
f 63/62/63 64/63/64 65/64/65
f 63/62/63 65/64/65 66/65/66
f 64/63/64 63/62/63 24/23/24
f 63/62/63 23/22/23 24/23/24
f 67/66/67 47/46/47 48/47/48
f 67/66/67 48/47/48 68/67/68
f 66/65/66 65/64/65 69/68/69
f 66/65/66 69/68/69 70/69/70
f 71/70/71 67/66/67 68/67/68
f 71/70/71 68/67/68 72/71/72
f 73/72/73 57/56/57 74/73/74
f 57/56/57 58/57/58 74/73/74
f 62/61/62 61/60/61 75/74/75
f 61/60/61 76/75/76 75/74/75
f 77/76/77 78/77/78 79/78/79
f 78/77/78 80/79/80 79/78/79
f 78/77/78 77/76/77 69/68/69
f 77/76/77 70/69/70 69/68/69
f 74/73/74 79/80/79 73/72/73
f 79/80/79 80/81/80 73/72/73
f 75/74/75 76/75/76 81/82/81
f 76/75/76 82/83/82 81/82/81
f 83/84/83 81/85/81 84/86/84
f 81/85/81 82/87/82 84/86/84
f 84/86/84 71/70/71 83/84/83
f 71/70/71 72/71/72 83/84/83
f 85/88/85 86/89/86 87/90/87
f 86/89/86 88/91/88 87/90/87
f 88/91/88 86/89/86 89/92/89
f 88/91/88 89/92/89 90/93/90
f 91/94/91 92/95/92 93/96/93
f 92/95/92 94/97/94 93/96/93
f 95/98/95 96/99/96 97/100/97
f 95/98/95 97/100/97 98/101/98
f 99/102/99 97/100/97 96/99/96
f 99/102/99 96/99/96 100/103/100
f 101/104/101 102/105/102 103/106/103
f 102/105/102 104/107/104 103/106/103
f 105/108/105 106/109/106 107/110/107
f 106/109/106 108/111/108 107/110/107
f 8/8/8 108/111/108 106/109/106
f 8/8/8 106/109/106 7/7/7
f 90/93/90 89/92/89 109/112/109
f 89/92/89 110/113/110 109/112/109
f 105/114/105 107/115/107 111/116/111
f 107/115/107 112/117/112 111/116/111
f 98/101/98 109/118/109 95/98/95
f 109/118/109 110/119/110 95/98/95
f 111/116/111 112/117/112 29/28/29
f 111/116/111 29/28/29 31/30/31
f 113/120/113 91/94/91 93/96/93
f 113/120/113 93/96/93 114/121/114
f 41/40/41 42/41/42 115/122/115
f 41/40/41 115/122/115 116/123/116
f 117/124/117 103/106/103 118/125/118
f 103/106/103 104/107/104 118/125/118
f 119/126/119 49/48/49 51/50/51
f 119/126/119 51/50/51 120/127/120
f 121/128/121 122/129/122 123/130/123
f 121/128/121 123/130/123 124/131/124
f 124/131/124 123/130/123 114/121/114
f 123/130/123 113/120/113 114/121/114
f 125/132/125 126/133/126 127/134/127
f 125/132/125 127/134/127 128/135/128
f 115/122/115 125/132/125 116/123/116
f 125/132/125 128/135/128 116/123/116
f 129/136/129 130/137/130 131/138/131
f 129/136/129 131/138/131 132/139/132
f 132/139/132 131/138/131 12/12/12
f 131/138/131 9/9/9 12/12/12
f 133/140/133 134/141/134 135/142/135
f 133/140/133 135/142/135 136/143/136
f 3/3/3 133/140/133 1/1/1
f 133/140/133 136/143/136 1/1/1
f 137/144/137 138/145/138 139/146/139
f 137/144/137 139/146/139 140/147/140
f 140/147/140 139/146/139 120/127/120
f 139/146/139 119/126/119 120/127/120
f 141/148/141 142/149/142 143/150/143
f 141/148/141 143/150/143 144/151/144
f 118/125/118 141/148/141 117/124/117
f 141/148/141 144/151/144 117/124/117
f 145/152/145 146/153/146 147/154/147
f 145/152/145 147/154/147 148/155/148
f 148/155/148 147/154/147 28/27/28
f 147/154/147 25/24/25 28/27/28
f 149/156/149 150/157/150 151/158/151
f 149/156/149 151/158/151 152/159/152
f 19/18/19 149/156/149 20/19/20
f 149/156/149 152/159/152 20/19/20
f 122/129/122 121/128/121 153/160/153
f 122/129/122 153/160/153 154/161/154
f 127/134/127 126/133/126 155/162/155
f 127/134/127 155/162/155 156/163/156
f 157/164/157 130/137/130 129/136/129
f 157/164/157 129/136/129 158/165/158
f 159/166/159 135/142/135 134/141/134
f 159/166/159 134/141/134 160/167/160
f 161/168/161 138/145/138 137/144/137
f 161/168/161 137/144/137 162/169/162
f 163/170/163 143/150/143 142/149/142
f 163/170/163 142/149/142 164/171/164
f 146/153/146 145/152/145 165/172/165
f 146/153/146 165/172/165 166/173/166
f 151/158/151 150/157/150 167/174/167
f 151/158/151 167/174/167 168/175/168
f 154/161/154 153/160/153 169/176/169
f 153/160/153 170/177/170 169/176/169
f 171/178/171 156/163/156 172/179/172
f 156/163/156 155/162/155 172/179/172
f 161/168/161 162/169/162 173/180/173
f 162/169/162 174/181/174 173/180/173
f 175/182/175 163/170/163 176/183/176
f 163/170/163 164/171/164 176/183/176
f 177/184/177 178/185/178 62/186/62
f 177/184/177 62/186/62 75/187/75
f 170/177/170 153/160/153 156/163/156
f 170/177/170 156/163/156 171/178/171
f 179/188/179 180/189/180 38/190/38
f 179/188/179 38/190/38 33/191/33
f 85/192/85 181/193/181 182/194/182
f 85/192/85 182/194/182 86/195/86
f 183/196/183 83/197/83 72/198/72
f 183/196/183 72/198/72 184/199/184
f 174/181/174 162/169/162 163/170/163
f 174/181/174 163/170/163 175/182/175
f 185/200/185 186/201/186 100/202/100
f 185/200/185 100/202/100 96/203/96
f 46/204/46 187/205/187 188/206/188
f 46/204/46 188/206/188 45/207/45
f 35/208/35 59/209/59 189/210/189
f 35/208/35 189/210/189 190/211/190
f 191/212/191 192/213/192 68/214/68
f 191/212/191 68/214/68 48/215/48
f 33/191/33 35/208/35 190/211/190
f 33/191/33 190/211/190 179/188/179
f 48/215/48 45/207/45 188/206/188
f 48/215/48 188/206/188 191/212/191
f 59/209/59 62/186/62 178/185/178
f 59/209/59 178/185/178 189/210/189
f 75/187/75 81/216/81 193/217/193
f 75/187/75 193/217/193 177/184/177
f 72/198/72 68/214/68 192/213/192
f 72/198/72 192/213/192 184/199/184
f 90/93/90 60/59/60 36/35/36
f 90/93/90 36/35/36 88/91/88
f 65/64/65 64/63/64 112/117/112
f 55/54/55 57/56/57 108/111/108
f 76/75/76 61/60/61 90/93/90
f 67/66/67 71/70/71 98/101/98
f 73/72/73 80/81/80 107/110/107
f 73/72/73 107/110/107 108/111/108
f 109/112/109 82/83/82 76/75/76
f 109/112/109 76/75/76 90/93/90
f 69/68/69 65/64/65 112/117/112
f 54/53/54 55/54/55 108/111/108
f 54/53/54 108/111/108 8/8/8
f 24/23/24 22/21/22 30/29/30
f 24/23/24 30/29/30 29/28/29
f 61/60/61 60/59/60 90/93/90
f 47/46/47 67/66/67 98/101/98
f 86/195/86 182/194/182 89/218/89
f 182/194/182 194/219/194 89/218/89
f 89/218/89 194/219/194 195/220/195
f 89/218/89 195/220/195 110/221/110
f 110/222/110 195/223/195 196/224/196
f 110/222/110 196/224/196 95/225/95
f 196/224/196 185/200/185 95/225/95
f 185/200/185 96/203/96 95/225/95
f 73/72/73 108/111/108 57/56/57
f 16/16/16 54/53/54 8/8/8
f 87/90/87 88/91/88 34/33/34
f 87/90/87 34/33/34 37/36/37
f 84/86/84 98/101/98 71/70/71
f 97/100/97 43/42/43 47/46/47
f 97/100/97 47/46/47 98/101/98
f 34/33/34 88/91/88 36/35/36
f 43/42/43 97/100/97 99/102/99
f 43/42/43 99/102/99 44/43/44
f 64/63/64 24/23/24 29/28/29
f 64/63/64 29/28/29 112/117/112
f 16/16/16 8/8/8 6/6/6
f 16/16/16 6/6/6 15/15/15
f 84/86/84 82/87/82 109/118/109
f 84/86/84 109/118/109 98/101/98
f 83/197/83 183/196/183 193/226/193
f 83/197/83 193/226/193 81/227/81
f 107/115/107 80/79/80 78/77/78
f 107/115/107 78/77/78 112/117/112
f 197/228/197 198/229/198 91/230/91
f 198/229/198 92/231/92 91/230/91
f 2/2/2 11/11/11 199/232/199
f 2/2/2 199/232/199 200/233/200
f 201/234/201 42/235/42 202/236/202
f 42/235/42 40/237/40 202/236/202
f 93/96/93 94/97/94 39/38/39
f 93/96/93 39/38/39 41/40/41
f 103/106/103 51/50/51 52/51/52
f 103/106/103 52/51/52 101/104/101
f 203/238/203 204/239/204 49/240/49
f 204/239/204 50/241/50 49/240/49
f 27/26/27 205/242/205 206/243/206
f 27/26/27 206/243/206 17/17/17
f 207/244/207 104/245/104 208/246/208
f 104/245/104 102/247/102 208/246/208
f 93/96/93 41/40/41 114/121/114
f 41/40/41 116/123/116 114/121/114
f 115/248/115 42/235/42 209/249/209
f 42/235/42 201/234/201 209/249/209
f 12/12/12 11/11/11 1/1/1
f 11/11/11 2/2/2 1/1/1
f 197/228/197 91/230/91 113/250/113
f 197/228/197 113/250/113 210/251/210
f 120/127/120 51/50/51 117/124/117
f 51/50/51 103/106/103 117/124/117
f 118/252/118 104/245/104 207/244/207
f 118/252/118 207/244/207 211/253/211
f 27/26/27 17/17/17 28/27/28
f 17/17/17 20/19/20 28/27/28
f 203/238/203 49/240/49 212/254/212
f 49/240/49 119/255/119 212/254/212
f 114/121/114 116/123/116 124/131/124
f 116/123/116 128/135/128 124/131/124
f 124/131/124 128/135/128 127/134/127
f 124/131/124 127/134/127 121/128/121
f 125/256/125 115/248/115 209/249/209
f 125/256/125 209/249/209 213/257/213
f 126/258/126 125/256/125 214/259/214
f 125/256/125 213/257/213 214/259/214
f 132/139/132 12/12/12 136/143/136
f 12/12/12 1/1/1 136/143/136
f 129/136/129 132/139/132 136/143/136
f 129/136/129 136/143/136 135/142/135
f 210/251/210 113/250/113 123/260/123
f 210/251/210 123/260/123 215/261/215
f 215/261/215 123/260/123 216/262/216
f 123/260/123 122/263/122 216/262/216
f 140/147/140 120/127/120 144/151/144
f 120/127/120 117/124/117 144/151/144
f 137/144/137 140/147/140 144/151/144
f 137/144/137 144/151/144 143/150/143
f 141/264/141 118/252/118 211/253/211
f 141/264/141 211/253/211 217/265/217
f 142/266/142 141/264/141 218/267/218
f 141/264/141 217/265/217 218/267/218
f 28/27/28 20/19/20 148/155/148
f 20/19/20 152/159/152 148/155/148
f 148/155/148 152/159/152 151/158/151
f 148/155/148 151/158/151 145/152/145
f 212/254/212 119/255/119 139/268/139
f 212/254/212 139/268/139 219/269/219
f 219/269/219 139/268/139 220/270/220
f 139/268/139 138/271/138 220/270/220
f 121/128/121 127/134/127 156/163/156
f 121/128/121 156/163/156 153/160/153
f 155/272/155 126/258/126 214/259/214
f 155/272/155 214/259/214 172/273/172
f 158/165/158 129/136/129 135/142/135
f 158/165/158 135/142/135 159/166/159
f 216/262/216 122/263/122 154/274/154
f 216/262/216 154/274/154 169/275/169
f 164/276/164 142/266/142 218/267/218
f 164/276/164 218/267/218 176/277/176
f 145/152/145 151/158/151 168/175/168
f 145/152/145 168/175/168 165/172/165
f 161/278/161 173/279/173 220/270/220
f 161/278/161 220/270/220 138/271/138
f 149/280/149 19/281/19 212/254/212
f 149/280/149 212/254/212 219/269/219
f 150/282/150 149/280/149 220/270/220
f 149/280/149 219/269/219 220/270/220
f 19/281/19 18/283/18 212/254/212
f 18/283/18 203/238/203 212/254/212
f 203/238/203 18/283/18 204/239/204
f 18/283/18 221/284/221 204/239/204
f 188/206/188 187/205/187 21/285/21
f 188/206/188 21/285/21 23/286/23
f 63/287/63 191/212/191 188/206/188
f 63/287/63 188/206/188 23/286/23
f 63/287/63 66/288/66 192/213/192
f 63/287/63 192/213/192 191/212/191
f 70/289/70 184/199/184 192/213/192
f 70/289/70 192/213/192 66/288/66
f 77/290/77 183/196/183 184/199/184
f 77/290/77 184/199/184 70/289/70
f 183/196/183 77/290/77 79/291/79
f 183/196/183 79/291/79 193/226/193
f 74/292/74 177/184/177 193/217/193
f 74/292/74 193/217/193 79/293/79
f 74/292/74 58/294/58 178/185/178
f 74/292/74 178/185/178 177/184/177
f 56/295/56 189/210/189 178/185/178
f 56/295/56 178/185/178 58/294/58
f 53/296/53 190/211/190 189/210/189
f 53/296/53 189/210/189 56/295/56
f 14/297/14 179/188/179 190/211/190
f 14/297/14 190/211/190 53/296/53
f 13/298/13 180/189/180 179/188/179
f 13/298/13 179/188/179 14/297/14
f 201/234/201 202/236/202 10/299/10
f 202/236/202 222/300/222 10/299/10
f 9/301/9 209/249/209 10/299/10
f 209/249/209 201/234/201 10/299/10
f 209/249/209 9/301/9 131/302/131
f 209/249/209 131/302/131 213/257/213
f 213/257/213 131/302/131 214/259/214
f 131/302/131 130/303/130 214/259/214
f 157/304/157 172/273/172 214/259/214
f 157/304/157 214/259/214 130/303/130
f 171/305/171 172/306/172 158/165/158
f 172/306/172 157/164/157 158/165/158
f 159/166/159 170/307/170 171/305/171
f 159/166/159 171/305/171 158/165/158
f 160/167/160 169/308/169 159/166/159
f 169/308/169 170/307/170 159/166/159
f 160/309/160 134/310/134 216/262/216
f 160/309/160 216/262/216 169/275/169
f 133/311/133 3/312/3 210/251/210
f 133/311/133 210/251/210 215/261/215
f 134/310/134 133/311/133 216/262/216
f 133/311/133 215/261/215 216/262/216
f 3/312/3 4/313/4 197/228/197
f 3/312/3 197/228/197 210/251/210
f 197/228/197 4/313/4 198/229/198
f 4/313/4 223/314/223 198/229/198
f 182/194/182 181/193/181 5/315/5
f 182/194/182 5/315/5 7/316/7
f 7/316/7 106/317/106 182/194/182
f 106/317/106 194/219/194 182/194/182
f 194/219/194 106/317/106 105/318/105
f 194/219/194 105/318/105 195/220/195
f 195/223/195 105/319/105 111/320/111
f 195/223/195 111/320/111 196/224/196
f 196/224/196 111/320/111 185/200/185
f 111/320/111 31/321/31 185/200/185
f 32/322/32 186/201/186 185/200/185
f 32/322/32 185/200/185 31/321/31
f 207/244/207 208/246/208 26/323/26
f 208/246/208 224/324/224 26/323/26
f 25/325/25 211/253/211 207/244/207
f 25/325/25 207/244/207 26/323/26
f 211/253/211 25/325/25 147/326/147
f 211/253/211 147/326/147 217/265/217
f 217/265/217 147/326/147 218/267/218
f 147/326/147 146/327/146 218/267/218
f 166/328/166 176/277/176 218/267/218
f 166/328/166 218/267/218 146/327/146
f 175/329/175 176/330/176 165/172/165
f 176/330/176 166/173/166 165/172/165
f 168/175/168 174/331/174 175/329/175
f 168/175/168 175/329/175 165/172/165
f 167/174/167 173/332/173 168/175/168
f 173/332/173 174/331/174 168/175/168
f 167/333/167 150/282/150 220/270/220
f 167/333/167 220/270/220 173/279/173
f 205/242/205 27/26/27 224/334/224
f 27/26/27 26/25/26 224/334/224
f 18/17/18 17/17/17 221/335/221
f 17/17/17 206/243/206 221/335/221
f 199/232/199 11/11/11 222/336/222
f 11/11/11 10/10/10 222/336/222
f 4/4/4 2/2/2 223/337/223
f 2/2/2 200/233/200 223/337/223
f 85/192/85 92/231/92 181/193/181
f 92/231/92 198/229/198 181/193/181
f 92/95/92 85/88/85 94/97/94
f 85/88/85 87/90/87 94/97/94
f 94/97/94 87/90/87 37/36/37
f 94/97/94 37/36/37 39/38/39
f 37/36/37 38/37/38 39/38/39
f 38/37/38 40/39/40 39/38/39
f 202/236/202 40/237/40 38/190/38
f 202/236/202 38/190/38 180/189/180
f 13/298/13 222/300/222 202/236/202
f 13/298/13 202/236/202 180/189/180
f 15/15/15 199/232/199 13/13/13
f 199/232/199 222/336/222 13/13/13
f 15/15/15 6/6/6 200/233/200
f 15/15/15 200/233/200 199/232/199
f 223/337/223 200/233/200 5/5/5
f 200/233/200 6/6/6 5/5/5
f 5/315/5 181/193/181 223/314/223
f 181/193/181 198/229/198 223/314/223
f 46/204/46 50/241/50 204/239/204
f 46/204/46 204/239/204 187/205/187
f 50/49/50 46/45/46 52/51/52
f 46/45/46 44/43/44 52/51/52
f 44/43/44 99/102/99 101/104/101
f 44/43/44 101/104/101 52/51/52
f 99/102/99 100/103/100 101/104/101
f 100/103/100 102/105/102 101/104/101
f 208/246/208 102/247/102 186/201/186
f 102/247/102 100/202/100 186/201/186
f 32/322/32 224/324/224 186/201/186
f 224/324/224 208/246/208 186/201/186
f 30/29/30 205/242/205 32/31/32
f 205/242/205 224/334/224 32/31/32
f 205/242/205 30/29/30 22/21/22
f 205/242/205 22/21/22 206/243/206
f 221/335/221 206/243/206 21/20/21
f 206/243/206 22/21/22 21/20/21
f 21/285/21 187/205/187 204/239/204
f 21/285/21 204/239/204 221/284/221
f 78/77/78 69/68/69 112/117/112
f 162/169/162 137/144/137 143/150/143
f 162/169/162 143/150/143 163/170/163
s off
