# Apple ModelIO OBJ File: Chair
mtllib Chair.mtl
g Chair_TopSG
v 0.795816 1.1587 -0.794208
v 0.51144 1.1587 -1.00126
v 0.795816 1.2295 -0.794208
v 0.51144 1.2295 -1.00126
v 0.177002 1.1587 -1.1103
v 0.177002 1.2295 -1.1103
v -0.174759 1.1587 -1.11065
v -0.174759 1.2295 -1.11065
v -0.509417 1.1587 -1.00229
v -0.509417 1.2295 -1.00229
v -0.794207 1.1587 -0.795815
v -0.794207 1.2295 -0.795815
v -1.00126 1.1587 -0.51144
v -1.00126 1.2295 -0.51144
v -1.11029 1.1587 -0.177003
v -1.11029 1.2295 -0.177003
v -1.11065 1.1587 0.174759
v -1.11065 1.2295 0.174759
v -1.00229 1.1587 0.509416
v -1.00229 1.2295 0.509416
v -0.795813 1.1587 0.794207
v -0.795813 1.2295 0.794207
v -0.511438 1.1587 1.00126
v -0.511438 1.2295 1.00126
v -0.177002 1.1587 1.1103
v -0.177002 1.2295 1.1103
v 0.174759 1.1587 1.11065
v 0.174759 1.2295 1.11065
v 0.509415 1.1587 1.00229
v 0.509415 1.2295 1.00229
v 0.794205 1.1587 0.795814
v 0.794205 1.2295 0.795814
v 1.00126 1.1587 0.511441
v 1.00126 1.2295 0.511441
v 1.1103 1.1587 0.177004
v 1.1103 1.2295 0.177004
v 1.11065 1.1587 -0.17476
v 1.11065 1.2295 -0.17476
v 1.00229 1.1587 -0.509415
v 1.00229 1.2295 -0.509415
v 0.473412 1.07612 -0.926802
v 0.736639 1.07612 -0.73515
v 2e-06 1.07612 0
v 0.163843 1.07612 -1.02773
v -0.161766 1.07612 -1.02806
v -0.471535 1.07612 -0.927757
v -0.735149 1.07612 -0.736638
v -0.926802 1.07612 -0.473409
v -1.02773 1.07612 -0.163842
v -1.02806 1.07612 0.161765
v -0.927755 1.07612 0.471534
v -0.736637 1.07612 0.73515
v -0.47341 1.07612 0.926802
v -0.163839 1.07612 1.02773
v 0.161764 1.07612 1.02806
v 0.471535 1.07612 0.927757
v 0.735151 1.07612 0.736636
v 0.9268 1.07612 0.47341
v 1.02773 1.07612 0.163843
v 1.02806 1.07612 -0.161765
v 0.927759 1.07612 -0.471535
v 0.736639 1.31208 -0.73515
v 0.473412 1.31208 -0.926802
v 2e-06 1.31208 0
v 0.163843 1.31208 -1.02773
v -0.161766 1.31208 -1.02806
v -0.471535 1.31208 -0.927757
v -0.735149 1.31208 -0.736638
v -0.926802 1.31208 -0.473409
v -1.02773 1.31208 -0.163842
v -1.02806 1.31208 0.161765
v -0.927755 1.31208 0.471534
v -0.736637 1.31208 0.73515
v -0.47341 1.31208 0.926802
v -0.163839 1.31208 1.02773
v 0.161764 1.31208 1.02806
v 0.471535 1.31208 0.927757
v 0.735151 1.31208 0.736636
v 0.9268 1.31208 0.47341
v 1.02773 1.31208 0.163843
v 1.02806 1.31208 -0.161765
v 0.927759 1.31208 -0.471535
v 0.778481 1.10031 -0.77691
v 0.500301 1.10031 -0.979449
v 0.173149 1.10031 -1.08611
v -0.170952 1.10031 -1.08646
v -0.49832 1.10031 -0.980458
v -0.776909 1.10031 -0.778482
v -0.979448 1.10031 -0.5003
v -1.08611 1.10031 -0.173148
v -1.08646 1.10031 0.170953
v -0.980457 1.10031 0.498321
v -0.778479 1.10031 0.776909
v -0.500299 1.10031 0.979449
v -0.173147 1.10031 1.08611
v 0.170954 1.10031 1.08646
v 0.498322 1.10031 0.980458
v 0.776911 1.10031 0.778481
v 0.979448 1.10031 0.500301
v 1.08611 1.10031 0.173149
v 1.08646 1.10031 -0.170954
v 0.980459 1.10031 -0.498321
v 0.778481 1.28789 -0.77691
v 0.980459 1.28789 -0.498321
v 0.500301 1.28789 -0.979449
v 0.173149 1.28789 -1.08611
v -0.170952 1.28789 -1.08646
v -0.49832 1.28789 -0.980458
v -0.776909 1.28789 -0.778482
v -0.979448 1.28789 -0.5003
v -1.08611 1.28789 -0.173148
v -1.08646 1.28789 0.170953
v -0.980457 1.28789 0.498321
v -0.778479 1.28789 0.776909
v -0.500299 1.28789 0.979449
v -0.173147 1.28789 1.08611
v 0.170954 1.28789 1.08646
v 0.498322 1.28789 0.980458
v 0.776911 1.28789 0.778481
v 0.979448 1.28789 0.500301
v 1.08611 1.28789 0.173149
v 1.08646 1.28789 -0.170954
vn 0.696094 -0.181285 -0.694687
vn 0.447353 -0.181281 -0.875793
vn 0.696094 0.181286 -0.694686
vn 0.447353 0.181282 -0.875793
vn 0.154824 -0.181281 -0.971168
vn 0.154823 0.181282 -0.971168
vn -0.152862 -0.181281 -0.971479
vn -0.152862 0.181281 -0.971478
vn -0.445582 -0.181281 -0.876695
vn -0.445582 0.181282 -0.876695
vn -0.694687 -0.181284 -0.696093
vn -0.694687 0.181285 -0.696093
vn -0.875792 -0.181287 -0.447352
vn -0.875792 0.181288 -0.447351
vn -0.971169 -0.181278 -0.154821
vn -0.971169 0.181278 -0.15482
vn -0.971481 -0.181269 0.152859
vn -0.971481 0.18127 0.15286
vn -0.876695 -0.181281 0.445581
vn -0.876695 0.181282 0.445581
vn -0.696091 -0.181285 0.694689
vn -0.696092 0.181286 0.694689
vn -0.447354 -0.181277 0.875793
vn -0.447354 0.181278 0.875792
vn -0.154825 -0.181279 0.971168
vn -0.154825 0.18128 0.971168
vn 0.152861 -0.181283 0.971478
vn 0.152862 0.181282 0.971478
vn 0.445584 -0.181278 0.876695
vn 0.445584 0.181277 0.876695
vn 0.694687 -0.181275 0.696096
vn 0.694687 0.181277 0.696095
vn 0.875789 -0.18129 0.447356
vn 0.875789 0.181292 0.447355
vn 0.971165 -0.181297 0.154823
vn 0.971165 0.181298 0.154823
vn 0.971479 -0.181282 -0.152861
vn 0.971478 0.181282 -0.152861
vn 0.876696 -0.181282 -0.44558
vn 0.876696 0.181282 -0.44558
vn 0.023086 -0.998711 -0.045196
vn 0.035923 -0.998711 -0.03585
vn -0 -1 -0
vn 0.00799 -0.998711 -0.050118
vn -0.007889 -0.998711 -0.050134
vn -0.022995 -0.998711 -0.045242
vn -0.03585 -0.998711 -0.035922
vn -0.045196 -0.998711 -0.023086
vn -0.050118 -0.998711 -0.007989
vn -0.050135 -0.998711 0.007889
vn -0.045243 -0.998711 0.022994
vn -0.035923 -0.998711 0.03585
vn -0.023086 -0.998711 0.045196
vn -0.00799 -0.998711 0.050118
vn 0.007889 -0.998711 0.050134
vn 0.022995 -0.998711 0.045242
vn 0.03585 -0.998711 0.035922
vn 0.045196 -0.998711 0.023086
vn 0.050118 -0.998711 0.00799
vn 0.050133 -0.998711 -0.007888
vn 0.045243 -0.998711 -0.022995
vn 0.035923 0.998711 -0.03585
vn 0.023086 0.998711 -0.045196
vn -0 1 -0
vn 0.00799 0.998711 -0.050117
vn -0.007889 0.998711 -0.050134
vn -0.022995 0.998711 -0.045243
vn -0.03585 0.998711 -0.035922
vn -0.045196 0.998711 -0.023086
vn -0.050118 0.998711 -0.007991
vn -0.050135 0.998711 0.007889
vn -0.045243 0.998711 0.022994
vn -0.035923 0.998711 0.03585
vn -0.023086 0.998711 0.045196
vn -0.00799 0.998711 0.050117
vn 0.007889 0.998711 0.050134
vn 0.022995 0.998711 0.045243
vn 0.03585 0.998711 0.035923
vn 0.045196 0.998711 0.023086
vn 0.050119 0.998711 0.007991
vn 0.050134 0.998711 -0.007888
vn 0.045242 0.998711 -0.022995
vn 0.515095 -0.685875 -0.514056
vn 0.331035 -0.685871 -0.648072
vn 0.114568 -0.685878 -0.718642
vn -0.113112 -0.685881 -0.71887
vn -0.329718 -0.685881 -0.648732
vn -0.514051 -0.685882 -0.515091
vn -0.648062 -0.685884 -0.331028
vn -0.718643 -0.685877 -0.114563
vn -0.71888 -0.685869 0.113114
vn -0.648735 -0.685876 0.329723
vn -0.515091 -0.685879 0.514054
vn -0.331033 -0.685873 0.648071
vn -0.114566 -0.685878 0.718642
vn 0.113113 -0.685883 0.718867
vn 0.32972 -0.685879 0.648733
vn 0.514056 -0.685876 0.515093
vn 0.648065 -0.68588 0.33103
vn 0.718636 -0.685884 0.114567
vn 0.718873 -0.685877 -0.113113
vn 0.648735 -0.685876 -0.329723
vn 0.515093 0.685877 -0.514055
vn 0.648733 0.685878 -0.329722
vn 0.331033 0.685874 -0.64807
vn 0.114568 0.685881 -0.718639
vn -0.113112 0.685883 -0.718867
vn -0.329717 0.685882 -0.648732
vn -0.514049 0.685884 -0.515089
vn -0.64806 0.685887 -0.331026
vn -0.718641 0.685879 -0.114563
vn -0.718878 0.685871 0.113113
vn -0.648733 0.685878 0.329722
vn -0.515089 0.685881 0.514053
vn -0.331033 0.685875 0.648069
vn -0.114566 0.68588 0.71864
vn 0.113114 0.685883 0.718867
vn 0.32972 0.68588 0.648732
vn 0.514053 0.68588 0.515091
vn 0.648061 0.685884 0.331028
vn 0.718634 0.685886 0.114567
vn 0.718871 0.685879 -0.113112
vt 0.021499 0.894271
vt 0.021499 0.945038
vt 0.011592 0.894271
vt 0.011592 0.945038
vt 0.021499 0.996032
vt 0.011592 0.996032
vt 0.021499 0.003968
vt 0.021499 0.07101
vt 0.011592 0.003968
vt 0.011592 0.07101
vt 0.021499 0.138378
vt 0.011592 0.138378
vt 0.021499 0.206982
vt 0.011592 0.206982
vt 0.021499 0.275395
vt 0.011592 0.275395
vt 0.021499 0.341956
vt 0.011592 0.341956
vt 0.021499 0.4051
vt 0.011592 0.4051
vt 0.021499 0.463394
vt 0.011592 0.463394
vt 0.021499 0.515833
vt 0.011592 0.515833
vt 0.021499 0.562123
vt 0.011592 0.562123
vt 0.021499 0.602737
vt 0.011592 0.602737
vt 0.021499 0.638592
vt 0.011592 0.638592
vt 0.021499 0.670756
vt 0.011592 0.670756
vt 0.021499 0.700731
vt 0.011592 0.700731
vt 0.021499 0.730562
vt 0.011592 0.730562
vt 0.021499 0.762699
vt 0.011592 0.762699
vt 0.021499 0.79959
vt 0.011592 0.79959
vt 0.021499 0.843049
vt 0.011592 0.843049
vt 0.53464 0.307455
vt 0.488589 0.307448
vt 0.511631 0.162072
vt 0.578453 0.293222
vt 0.615709 0.266153
vt 0.642775 0.228898
vt 0.657006 0.185102
vt 0.657006 0.139052
vt 0.642777 0.095256
vt 0.615711 0.058001
vt 0.578457 0.030934
vt 0.534663 0.016702
vt 0.488614 0.0167
vt 0.444819 0.030927
vt 0.407564 0.057992
vt 0.380494 0.095243
vt 0.366261 0.139037
vt 0.366256 0.185085
vt 0.380481 0.228882
vt 0.407545 0.26614
vt 0.444795 0.293212
vt 0.062776 0.227533
vt 0.048895 0.183284
vt 0.194491 0.161355
vt 0.049414 0.137017
vt 0.063955 0.093664
vt 0.091101 0.056876
vt 0.128242 0.030196
vt 0.171827 0.016235
vt 0.217593 0.016344
vt 0.261141 0.030519
vt 0.298226 0.057449
vt 0.325262 0.094511
vt 0.339585 0.138139
vt 0.339788 0.184098
vt 0.325748 0.227947
vt 0.298865 0.265373
vt 0.261722 0.292737
vt 0.21787 0.307313
vt 0.171374 0.307285
vt 0.127226 0.292776
vt 0.089775 0.2653
vt 0.030439 0.894271
vt 0.030439 0.945038
vt 0.487172 0.316389
vt 0.536056 0.316398
vt 0.030439 0.996032
vt 0.582563 0.30129
vt 0.030439 0.003968
vt 0.030439 0.07101
vt 0.62211 0.272555
vt 0.030439 0.138378
vt 0.650842 0.233007
vt 0.030439 0.206982
vt 0.665948 0.186518
vt 0.030439 0.275395
vt 0.665947 0.137636
vt 0.030439 0.341956
vt 0.650843 0.091146
vt 0.030439 0.4051
vt 0.622112 0.051601
vt 0.030439 0.463394
vt 0.582567 0.022868
vt 0.030439 0.515833
vt 0.53608 0.007761
vt 0.030439 0.562123
vt 0.487199 0.007759
vt 0.030439 0.602737
vt 0.44071 0.022861
vt 0.030439 0.638592
vt 0.401163 0.05159
vt 0.030439 0.670756
vt 0.372428 0.091133
vt 0.030439 0.700731
vt 0.35732 0.137619
vt 0.030439 0.730562
vt 0.357315 0.186501
vt 0.030439 0.762699
vt 0.372415 0.23299
vt 0.030439 0.79959
vt 0.401142 0.272541
vt 0.030439 0.843049
vt 0.440684 0.301277
vt 0.002653 0.894271
vt 0.002653 0.843049
vt 0.054604 0.231603
vt 0.083276 0.271724
vt 0.039893 0.184597
vt 0.002653 0.945038
vt 0.040586 0.135503
vt 0.002653 0.996032
vt 0.055983 0.089518
vt 0.002653 0.003968
vt 0.002653 0.07101
vt 0.084787 0.050483
vt 0.002653 0.138378
vt 0.124189 0.022168
vt 0.002653 0.206982
vt 0.170445 0.00735
vt 0.002653 0.275395
vt 0.219005 0.007462
vt 0.002653 0.341956
vt 0.265227 0.022492
vt 0.002653 0.4051
vt 0.304583 0.05107
vt 0.002653 0.463394
vt 0.333281 0.090394
vt 0.002653 0.515833
vt 0.348489 0.136693
vt 0.002653 0.562123
vt 0.348732 0.185466
vt 0.002653 0.602737
vt 0.333828 0.232015
vt 0.002653 0.638592
vt 0.305303 0.271734
vt 0.002653 0.670756
vt 0.265898 0.300795
vt 0.002653 0.700731
vt 0.219357 0.316277
vt 0.002653 0.730562
vt 0.169928 0.316323
vt 0.002653 0.762699
vt 0.12304 0.300896
vt 0.002653 0.79959
usemtl TopSG
f 1/1/1 2/2/2 3/3/3
f 3/3/3 2/2/2 4/4/4
f 2/2/2 5/5/5 4/4/4
f 4/4/4 5/5/5 6/6/6
f 5/7/5 7/8/7 6/9/6
f 6/9/6 7/8/7 8/10/8
f 7/8/7 9/11/9 8/10/8
f 8/10/8 9/11/9 10/12/10
f 9/11/9 11/13/11 10/12/10
f 10/12/10 11/13/11 12/14/12
f 11/13/11 13/15/13 12/14/12
f 12/14/12 13/15/13 14/16/14
f 13/15/13 15/17/15 14/16/14
f 14/16/14 15/17/15 16/18/16
f 15/17/15 17/19/17 16/18/16
f 16/18/16 17/19/17 18/20/18
f 17/19/17 19/21/19 18/20/18
f 18/20/18 19/21/19 20/22/20
f 19/21/19 21/23/21 20/22/20
f 20/22/20 21/23/21 22/24/22
f 21/23/21 23/25/23 22/24/22
f 22/24/22 23/25/23 24/26/24
f 23/25/23 25/27/25 24/26/24
f 24/26/24 25/27/25 26/28/26
f 25/27/25 27/29/27 26/28/26
f 26/28/26 27/29/27 28/30/28
f 27/29/27 29/31/29 28/30/28
f 28/30/28 29/31/29 30/32/30
f 29/31/29 31/33/31 30/32/30
f 30/32/30 31/33/31 32/34/32
f 31/33/31 33/35/33 32/34/32
f 32/34/32 33/35/33 34/36/34
f 33/35/33 35/37/35 34/36/34
f 34/36/34 35/37/35 36/38/36
f 35/37/35 37/39/37 36/38/36
f 36/38/36 37/39/37 38/40/38
f 37/39/37 39/41/39 38/40/38
f 38/40/38 39/41/39 40/42/40
f 39/41/39 1/1/1 40/42/40
f 40/42/40 1/1/1 3/3/3
f 41/43/41 42/44/42 43/45/43
f 44/46/44 41/43/41 43/45/43
f 45/47/45 44/46/44 43/45/43
f 46/48/46 45/47/45 43/45/43
f 47/49/47 46/48/46 43/45/43
f 48/50/48 47/49/47 43/45/43
f 49/51/49 48/50/48 43/45/43
f 50/52/50 49/51/49 43/45/43
f 51/53/51 50/52/50 43/45/43
f 52/54/52 51/53/51 43/45/43
f 53/55/53 52/54/52 43/45/43
f 54/56/54 53/55/53 43/45/43
f 55/57/55 54/56/54 43/45/43
f 56/58/56 55/57/55 43/45/43
f 57/59/57 56/58/56 43/45/43
f 58/60/58 57/59/57 43/45/43
f 59/61/59 58/60/58 43/45/43
f 60/62/60 59/61/59 43/45/43
f 61/63/61 60/62/60 43/45/43
f 42/44/42 61/63/61 43/45/43
f 62/64/62 63/65/63 64/66/64
f 63/65/63 65/67/65 64/66/64
f 65/67/65 66/68/66 64/66/64
f 66/68/66 67/69/67 64/66/64
f 67/69/67 68/70/68 64/66/64
f 68/70/68 69/71/69 64/66/64
f 69/71/69 70/72/70 64/66/64
f 70/72/70 71/73/71 64/66/64
f 71/73/71 72/74/72 64/66/64
f 72/74/72 73/75/73 64/66/64
f 73/75/73 74/76/74 64/66/64
f 74/76/74 75/77/75 64/66/64
f 75/77/75 76/78/76 64/66/64
f 76/78/76 77/79/77 64/66/64
f 77/79/77 78/80/78 64/66/64
f 78/80/78 79/81/79 64/66/64
f 79/81/79 80/82/80 64/66/64
f 80/82/80 81/83/81 64/66/64
f 81/83/81 82/84/82 64/66/64
f 82/84/82 62/64/62 64/66/64
f 1/1/1 83/85/83 2/2/2
f 2/2/2 83/85/83 84/86/84
f 83/87/83 42/44/42 84/88/84
f 84/88/84 42/44/42 41/43/41
f 2/2/2 84/86/84 5/5/5
f 5/5/5 84/86/84 85/89/85
f 84/88/84 41/43/41 85/90/85
f 85/90/85 41/43/41 44/46/44
f 5/7/5 85/91/85 7/8/7
f 7/8/7 85/91/85 86/92/86
f 85/90/85 44/46/44 86/93/86
f 86/93/86 44/46/44 45/47/45
f 7/8/7 86/92/86 9/11/9
f 9/11/9 86/92/86 87/94/87
f 86/93/86 45/47/45 87/95/87
f 87/95/87 45/47/45 46/48/46
f 9/11/9 87/94/87 11/13/11
f 11/13/11 87/94/87 88/96/88
f 87/95/87 46/48/46 88/97/88
f 88/97/88 46/48/46 47/49/47
f 11/13/11 88/96/88 13/15/13
f 13/15/13 88/96/88 89/98/89
f 88/97/88 47/49/47 89/99/89
f 89/99/89 47/49/47 48/50/48
f 13/15/13 89/98/89 15/17/15
f 15/17/15 89/98/89 90/100/90
f 89/99/89 48/50/48 90/101/90
f 90/101/90 48/50/48 49/51/49
f 15/17/15 90/100/90 17/19/17
f 17/19/17 90/100/90 91/102/91
f 90/101/90 49/51/49 91/103/91
f 91/103/91 49/51/49 50/52/50
f 17/19/17 91/102/91 19/21/19
f 19/21/19 91/102/91 92/104/92
f 91/103/91 50/52/50 92/105/92
f 92/105/92 50/52/50 51/53/51
f 19/21/19 92/104/92 21/23/21
f 21/23/21 92/104/92 93/106/93
f 92/105/92 51/53/51 93/107/93
f 93/107/93 51/53/51 52/54/52
f 21/23/21 93/106/93 23/25/23
f 23/25/23 93/106/93 94/108/94
f 93/107/93 52/54/52 94/109/94
f 94/109/94 52/54/52 53/55/53
f 23/25/23 94/108/94 25/27/25
f 25/27/25 94/108/94 95/110/95
f 94/109/94 53/55/53 95/111/95
f 95/111/95 53/55/53 54/56/54
f 25/27/25 95/110/95 27/29/27
f 27/29/27 95/110/95 96/112/96
f 95/111/95 54/56/54 96/113/96
f 96/113/96 54/56/54 55/57/55
f 27/29/27 96/112/96 29/31/29
f 29/31/29 96/112/96 97/114/97
f 96/113/96 55/57/55 97/115/97
f 97/115/97 55/57/55 56/58/56
f 29/31/29 97/114/97 31/33/31
f 31/33/31 97/114/97 98/116/98
f 97/115/97 56/58/56 98/117/98
f 98/117/98 56/58/56 57/59/57
f 31/33/31 98/116/98 33/35/33
f 33/35/33 98/116/98 99/118/99
f 98/117/98 57/59/57 99/119/99
f 99/119/99 57/59/57 58/60/58
f 33/35/33 99/118/99 35/37/35
f 35/37/35 99/118/99 100/120/100
f 99/119/99 58/60/58 100/121/100
f 100/121/100 58/60/58 59/61/59
f 35/37/35 100/120/100 37/39/37
f 37/39/37 100/120/100 101/122/101
f 100/121/100 59/61/59 101/123/101
f 101/123/101 59/61/59 60/62/60
f 37/39/37 101/122/101 39/41/39
f 39/41/39 101/122/101 102/124/102
f 101/123/101 60/62/60 102/125/102
f 102/125/102 60/62/60 61/63/61
f 42/44/42 83/87/83 61/63/61
f 61/63/61 83/87/83 102/125/102
f 83/85/83 1/1/1 102/124/102
f 102/124/102 1/1/1 39/41/39
f 3/3/3 103/126/103 40/42/40
f 40/42/40 103/126/103 104/127/104
f 103/128/103 62/64/62 104/129/104
f 104/129/104 62/64/62 82/84/82
f 62/64/62 103/128/103 63/65/63
f 63/65/63 103/128/103 105/130/105
f 103/126/103 3/3/3 105/131/105
f 105/131/105 3/3/3 4/4/4
f 63/65/63 105/130/105 65/67/65
f 65/67/65 105/130/105 106/132/106
f 105/131/105 4/4/4 106/133/106
f 106/133/106 4/4/4 6/6/6
f 65/67/65 106/132/106 66/68/66
f 66/68/66 106/132/106 107/134/107
f 106/135/106 6/9/6 107/136/107
f 107/136/107 6/9/6 8/10/8
f 66/68/66 107/134/107 67/69/67
f 67/69/67 107/134/107 108/137/108
f 107/136/107 8/10/8 108/138/108
f 108/138/108 8/10/8 10/12/10
f 67/69/67 108/137/108 68/70/68
f 68/70/68 108/137/108 109/139/109
f 108/138/108 10/12/10 109/140/109
f 109/140/109 10/12/10 12/14/12
f 68/70/68 109/139/109 69/71/69
f 69/71/69 109/139/109 110/141/110
f 109/140/109 12/14/12 110/142/110
f 110/142/110 12/14/12 14/16/14
f 69/71/69 110/141/110 70/72/70
f 70/72/70 110/141/110 111/143/111
f 110/142/110 14/16/14 111/144/111
f 111/144/111 14/16/14 16/18/16
f 70/72/70 111/143/111 71/73/71
f 71/73/71 111/143/111 112/145/112
f 111/144/111 16/18/16 112/146/112
f 112/146/112 16/18/16 18/20/18
f 71/73/71 112/145/112 72/74/72
f 72/74/72 112/145/112 113/147/113
f 112/146/112 18/20/18 113/148/113
f 113/148/113 18/20/18 20/22/20
f 72/74/72 113/147/113 73/75/73
f 73/75/73 113/147/113 114/149/114
f 113/148/113 20/22/20 114/150/114
f 114/150/114 20/22/20 22/24/22
f 73/75/73 114/149/114 74/76/74
f 74/76/74 114/149/114 115/151/115
f 114/150/114 22/24/22 115/152/115
f 115/152/115 22/24/22 24/26/24
f 74/76/74 115/151/115 75/77/75
f 75/77/75 115/151/115 116/153/116
f 115/152/115 24/26/24 116/154/116
f 116/154/116 24/26/24 26/28/26
f 75/77/75 116/153/116 76/78/76
f 76/78/76 116/153/116 117/155/117
f 116/154/116 26/28/26 117/156/117
f 117/156/117 26/28/26 28/30/28
f 76/78/76 117/155/117 77/79/77
f 77/79/77 117/155/117 118/157/118
f 117/156/117 28/30/28 118/158/118
f 118/158/118 28/30/28 30/32/30
f 77/79/77 118/157/118 78/80/78
f 78/80/78 118/157/118 119/159/119
f 118/158/118 30/32/30 119/160/119
f 119/160/119 30/32/30 32/34/32
f 78/80/78 119/159/119 79/81/79
f 79/81/79 119/159/119 120/161/120
f 119/160/119 32/34/32 120/162/120
f 120/162/120 32/34/32 34/36/34
f 79/81/79 120/161/120 80/82/80
f 80/82/80 120/161/120 121/163/121
f 120/162/120 34/36/34 121/164/121
f 121/164/121 34/36/34 36/38/36
f 80/82/80 121/163/121 81/83/81
f 81/83/81 121/163/121 122/165/122
f 121/164/121 36/38/36 122/166/122
f 122/166/122 36/38/36 38/40/38
f 81/83/81 122/165/122 82/84/82
f 82/84/82 122/165/122 104/129/104
f 122/166/122 38/40/38 104/127/104
f 104/127/104 38/40/38 40/42/40
s off
g Chair_LegSG
v -0.87101 -1.31208 0.553705
v -0.930603 -1.28266 0.583935
v -0.960688 -1.31208 0.377264
v -1.02024 -1.28266 0.407564
v -0.951466 -1.21352 0.594596
v -1.04114 -1.21352 0.418156
v -0.82239 -1.21758 0.639981
v -0.838959 -1.28434 0.615911
v 1.00173 -1.21758 -0.287134
v 0.99205 -1.28434 -0.314706
v 0.960691 -1.31208 -0.377264
v -0.8951 -1.21557 0.644444
v -0.690657 1.13236 0.471395
v -0.636932 1.13061 0.515976
v -0.565372 1.12812 0.50935
v 1.04115 -1.21352 -0.418154
v 1.02024 -1.28266 -0.407584
v 0.951469 -1.21352 -0.594594
v 0.930595 -1.28266 -0.583955
v 0.871014 -1.31208 -0.553704
v 1.04819 -1.21557 -0.343238
v 0.792242 1.13061 -0.210406
v 0.744715 1.12812 -0.156505
v 0.787895 1.13236 -0.280084
v -0.791988 1.12794 0.211596
v -1.04819 -1.21557 0.343239
v -0.786428 1.12848 0.28371
v -0.744707 1.12812 0.156504
v -1.00172 -1.21758 0.287134
v 0.56538 1.12812 -0.509352
v 0.637749 1.12794 -0.515072
v 0.822395 -1.21758 -0.639981
v 0.895102 -1.21557 -0.644443
v 0.692728 1.12848 -0.468076
v -0.992048 -1.28434 0.314706
v 0.838963 -1.28434 -0.615911
v -0.893238 -1.27088 0.629054
v 1.03467 -1.27088 -0.35081
v -1.03466 -1.27088 0.3508
v 0.893242 -1.27088 -0.629063
v 0.553703 -1.31208 0.871014
v 0.583935 -1.28266 0.930604
v 0.37726 -1.31208 0.960691
v 0.407564 -1.28266 1.02024
v 0.594595 -1.21352 0.95147
v 0.418152 -1.21352 1.04115
v 0.639982 -1.21758 0.822392
v 0.61591 -1.28434 0.838963
v -0.287132 -1.21758 -1.00173
v -0.314709 -1.28434 -0.992048
v -0.377264 -1.31208 -0.960687
v 0.644444 -1.21557 0.895103
v 0.471395 1.13236 0.690658
v 0.515976 1.13061 0.636935
v 0.509352 1.12812 0.565375
v -0.418156 -1.21352 -1.04114
v -0.407583 -1.28266 -1.02023
v -0.594599 -1.21352 -0.951466
v -0.583954 -1.28266 -0.930591
v -0.553707 -1.31208 -0.87101
v -0.343241 -1.21557 -1.04819
v -0.210405 1.13061 -0.79224
v -0.156502 1.12812 -0.744709
v -0.280083 1.13236 -0.787893
v 0.211594 1.12794 0.791994
v 0.343237 -1.21557 1.04819
v 0.28371 1.12848 0.786434
v 0.156502 1.12812 0.74471
v 0.287132 -1.21758 1.00173
v -0.509352 1.12812 -0.565373
v -0.515076 1.12794 -0.637745
v -0.639982 -1.21758 -0.82239
v -0.644447 -1.21557 -0.895099
v -0.468077 1.12848 -0.692727
v 0.314703 -1.28434 0.992053
v -0.615913 -1.28434 -0.83896
v 0.629051 -1.27088 0.893243
v -0.350811 -1.27088 -1.03466
v 0.3508 -1.27088 1.03467
v -0.629063 -1.27088 -0.893236
vn 0.034918 -0.994721 0.09649
vn -0.621998 -0.673469 0.399447
vn -0.057366 -0.994721 -0.085079
vn -0.689312 -0.673468 0.267001
vn -0.836547 0.109527 0.536836
vn -0.926673 0.109686 0.359509
vn 0.437848 -0.013176 0.898952
vn 0.301834 -0.728302 0.615202
vn 0.468122 -0.013176 0.883566
vn 0.31907 -0.728302 0.606441
vn 0.057366 -0.994721 0.08508
vn -0.321342 0.07779 0.943763
vn -0.833044 0.121116 0.539786
vn -0.294973 0.084592 0.951754
vn 0.441056 0.001637 0.897478
vn 0.926748 0.109527 -0.359364
vn 0.689298 -0.673471 -0.267029
vn 0.836617 0.109687 -0.536694
vn 0.621981 -0.673473 -0.399467
vn -0.034917 -0.994722 -0.096489
vn 0.951805 0.07779 0.296675
vn 0.942719 0.084591 0.322685
vn 0.465041 0.001637 0.885288
vn 0.927067 0.121115 -0.354794
vn -0.943868 0.085283 -0.319122
vn -0.954633 0.079083 -0.287093
vn -0.926491 0.121256 0.356246
vn -0.464998 0.001639 -0.88531
vn -0.468425 -0.013123 -0.883406
vn -0.441099 0.001639 -0.897457
vn 0.298569 0.085286 -0.95057
vn -0.43754 -0.013123 -0.899103
vn 0.330785 0.079086 -0.940387
vn 0.833874 0.121256 -0.538471
vn -0.319069 -0.7283 -0.606443
vn -0.301839 -0.728295 -0.615207
vn -0.290581 -0.559327 0.776348
vn 0.798437 -0.559318 0.222849
vn -0.798435 -0.559285 -0.22294
vn 0.290538 -0.55928 -0.776398
vn 0.096491 -0.994721 -0.034918
vn 0.399443 -0.673477 0.621992
vn -0.08508 -0.994721 0.057366
vn 0.267006 -0.673475 0.689304
vn 0.536839 0.109527 0.836545
vn 0.359512 0.109687 0.926671
vn 0.898953 -0.013177 -0.437847
vn 0.615207 -0.728296 -0.301836
vn 0.883565 -0.013177 -0.468123
vn 0.606445 -0.728297 -0.319073
vn 0.085082 -0.994721 -0.057366
vn 0.943758 0.07779 0.321355
vn 0.53979 0.121116 0.833041
vn 0.95175 0.084592 0.294986
vn 0.897479 0.001636 -0.441055
vn -0.35936 0.109526 -0.926749
vn -0.267026 -0.673472 -0.689299
vn -0.536687 0.109686 -0.836622
vn -0.399461 -0.67347 -0.621987
vn -0.09649 -0.994721 0.034917
vn 0.29668 0.077787 -0.951804
vn 0.322692 0.084589 -0.942716
vn 0.885287 0.001636 -0.465042
vn -0.35479 0.121116 -0.927068
vn -0.319134 0.085281 0.943865
vn -0.287104 0.079081 0.95463
vn 0.356249 0.121257 0.92649
vn -0.885311 0.001638 0.464997
vn -0.883406 -0.013123 0.468425
vn -0.897457 0.001639 0.4411
vn -0.950579 0.085283 -0.298541
vn -0.899103 -0.013123 0.437541
vn -0.940395 0.079082 -0.330761
vn -0.538464 0.121257 -0.833879
vn -0.606453 -0.72829 0.319074
vn -0.615212 -0.72829 0.301841
vn 0.776335 -0.559339 0.290594
vn 0.222849 -0.559324 -0.798433
vn -0.222926 -0.559292 0.798434
vn -0.77639 -0.559291 -0.290537
vt 0.02553 0.452153
vt 0.023044 0.442233
vt 0.053838 0.447615
vt 0.052953 0.437546
vt 0.019523 0.43107
vt 0.052879 0.425943
vt 0.003484 0.456016
vt 0.013938 0.453963
vt 0.052199 0.751197
vt 0.062759 0.749803
vt 0.073468 0.747979
vt 0.072093 0.394038
vt 0.071865 0.383044
vt 0.417051 0.37955
vt 0.416892 0.369354
vt 0.07235 0.372408
vt 0.417306 0.358861
vt 0.074544 0.769528
vt 0.074395 0.757998
vt 0.107576 0.76415
vt 0.104058 0.75316
vt 0.101747 0.743358
vt 0.098498 0.063996
vt 0.436419 0.134596
vt 0.097212 0.074562
vt 0.435096 0.145011
vt 0.100544 0.053194
vt 0.438259 0.124567
vt 0.418499 0.420852
vt 0.073816 0.433909
vt 0.417676 0.41032
vt 0.073201 0.42293
vt 0.420124 0.431331
vt 0.075116 0.444475
vt 0.44984 0.074017
vt 0.446507 0.08408
vt 0.111885 0.003968
vt 0.108852 0.014169
vt 0.443956 0.094328
vt 0.106425 0.024891
vt 0.064553 0.445829
vt 0.112475 0.741678
vt 0.122923 0.739636
vt 0.45447 0.643254
vt 0.006718 0.440886
vt 0.01468 0.445711
vt 0.065721 0.757282
vt 0.059756 0.764177
vt 0.061636 0.43832
vt 0.067655 0.431452
vt 0.119911 0.754371
vt 0.112056 0.749724
vt 0.447255 0.678331
vt 0.444823 0.668383
vt 0.475589 0.674009
vt 0.47478 0.663908
vt 0.441367 0.657183
vt 0.474793 0.652287
vt 0.425182 0.682008
vt 0.435651 0.680046
vt 0.471254 0.977503
vt 0.481824 0.976204
vt 0.492548 0.974475
vt 0.494281 0.620596
vt 0.494143 0.609603
vt 0.839325 0.608876
vt 0.839249 0.598674
vt 0.494713 0.598973
vt 0.839747 0.588181
vt 0.493424 0.996032
vt 0.493378 0.984502
vt 0.526496 0.990941
vt 0.523081 0.979925
vt 0.520869 0.970105
vt 0.52327 0.290846
vt 0.86061 0.364016
vt 0.521905 0.301399
vt 0.859208 0.374423
vt 0.525399 0.280064
vt 0.862526 0.353999
vt 0.840437 0.650209
vt 0.495673 0.660469
vt 0.8397 0.639666
vt 0.495149 0.649486
vt 0.841976 0.660706
vt 0.496886 0.671044
vt 0.874488 0.303532
vt 0.87108 0.31357
vt 0.537112 0.230937
vt 0.534001 0.241113
vt 0.868451 0.3238
vt 0.531493 0.251814
vt 0.486316 0.672311
vt 0.531614 0.968519
vt 0.542084 0.96657
vt 0.874527 0.872974
vt 0.428501 0.666924
vt 0.436435 0.671799
vt 0.484712 0.983709
vt 0.478683 0.990552
vt 0.483465 0.664755
vt 0.489552 0.657924
vt 0.538918 0.981279
vt 0.53111 0.976559
usemtl LegSG
f 123/167/123 124/168/124 125/169/125
f 125/169/125 124/168/124 126/170/126
f 124/168/124 127/171/127 126/170/126
f 126/170/126 127/171/127 128/172/128
f 129/173/129 130/174/130 131/175/131
f 131/175/131 130/174/130 132/176/132
f 130/174/130 123/167/123 132/176/132
f 132/176/132 123/167/123 133/177/133
f 127/178/127 134/179/134 135/180/135
f 135/180/135 134/179/134 136/181/136
f 134/179/134 129/182/129 136/181/136
f 136/181/136 129/182/129 137/183/137
f 138/184/138 139/185/139 140/186/140
f 140/186/140 139/185/139 141/187/141
f 139/185/139 133/177/133 141/187/141
f 141/187/141 133/177/133 142/188/142
f 143/189/143 144/190/144 131/191/131
f 131/191/131 144/190/144 145/192/145
f 138/193/138 146/194/146 143/189/143
f 143/189/143 146/194/146 144/190/144
f 147/195/147 148/196/148 149/197/149
f 149/197/149 148/196/148 128/198/128
f 150/199/150 151/200/151 147/195/147
f 147/195/147 151/200/151 148/196/148
f 152/201/152 153/202/153 154/203/154
f 154/203/154 153/202/153 155/204/155
f 153/202/153 156/205/156 155/204/155
f 155/204/155 156/205/156 140/206/140
f 125/169/125 157/207/157 142/188/142
f 142/188/142 157/207/157 158/208/158
f 157/207/157 151/200/151 158/208/158
f 158/208/158 151/200/151 154/209/154
f 129/182/129 131/191/131 137/183/137
f 137/183/137 131/191/131 145/192/145
f 150/199/150 152/210/152 151/200/151
f 151/200/151 152/210/152 154/209/154
f 125/169/125 142/188/142 123/167/123
f 123/167/123 142/188/142 133/177/133
f 140/206/140 156/205/156 138/193/138
f 138/193/138 156/205/156 146/194/146
f 128/198/128 127/178/127 149/197/149
f 149/197/149 127/178/127 135/180/135
f 134/211/134 127/171/127 159/212/159
f 159/212/159 127/171/127 124/168/124
f 124/168/124 123/167/123 159/212/159
f 159/212/159 123/167/123 130/174/130
f 130/174/130 129/173/129 159/212/159
f 159/212/159 129/173/129 134/211/134
f 132/176/132 133/177/133 160/213/160
f 160/213/160 133/177/133 139/185/139
f 139/185/139 138/184/138 160/213/160
f 160/213/160 138/184/138 143/214/143
f 143/214/143 131/175/131 160/213/160
f 160/213/160 131/175/131 132/176/132
f 157/207/157 125/169/125 161/215/161
f 161/215/161 125/169/125 126/170/126
f 126/170/126 128/172/128 161/215/161
f 161/215/161 128/172/128 148/216/148
f 148/216/148 151/200/151 161/215/161
f 161/215/161 151/200/151 157/207/157
f 155/217/155 140/186/140 162/218/162
f 162/218/162 140/186/140 141/187/141
f 141/187/141 142/188/142 162/218/162
f 162/218/162 142/188/142 158/208/158
f 158/208/158 154/209/154 162/218/162
f 162/218/162 154/209/154 155/217/155
f 163/219/163 164/220/164 165/221/165
f 165/221/165 164/220/164 166/222/166
f 164/220/164 167/223/167 166/222/166
f 166/222/166 167/223/167 168/224/168
f 169/225/169 170/226/170 171/227/171
f 171/227/171 170/226/170 172/228/172
f 170/226/170 163/219/163 172/228/172
f 172/228/172 163/219/163 173/229/173
f 167/230/167 174/231/174 175/232/175
f 175/232/175 174/231/174 176/233/176
f 174/231/174 169/234/169 176/233/176
f 176/233/176 169/234/169 177/235/177
f 178/236/178 179/237/179 180/238/180
f 180/238/180 179/237/179 181/239/181
f 179/237/179 173/229/173 181/239/181
f 181/239/181 173/229/173 182/240/182
f 183/241/183 184/242/184 171/243/171
f 171/243/171 184/242/184 185/244/185
f 178/245/178 186/246/186 183/241/183
f 183/241/183 186/246/186 184/242/184
f 187/247/187 188/248/188 189/249/189
f 189/249/189 188/248/188 168/250/168
f 190/251/190 191/252/191 187/247/187
f 187/247/187 191/252/191 188/248/188
f 192/253/192 193/254/193 194/255/194
f 194/255/194 193/254/193 195/256/195
f 193/254/193 196/257/196 195/256/195
f 195/256/195 196/257/196 180/258/180
f 165/221/165 197/259/197 182/240/182
f 182/240/182 197/259/197 198/260/198
f 197/259/197 191/252/191 198/260/198
f 198/260/198 191/252/191 194/261/194
f 169/234/169 171/243/171 177/235/177
f 177/235/177 171/243/171 185/244/185
f 190/251/190 192/262/192 191/252/191
f 191/252/191 192/262/192 194/261/194
f 165/221/165 182/240/182 163/219/163
f 163/219/163 182/240/182 173/229/173
f 180/258/180 196/257/196 178/245/178
f 178/245/178 196/257/196 186/246/186
f 168/250/168 167/230/167 189/249/189
f 189/249/189 167/230/167 175/232/175
f 174/263/174 167/223/167 199/264/199
f 199/264/199 167/223/167 164/220/164
f 164/220/164 163/219/163 199/264/199
f 199/264/199 163/219/163 170/226/170
f 170/226/170 169/225/169 199/264/199
f 199/264/199 169/225/169 174/263/174
f 172/228/172 173/229/173 200/265/200
f 200/265/200 173/229/173 179/237/179
f 179/237/179 178/236/178 200/265/200
f 200/265/200 178/236/178 183/266/183
f 183/266/183 171/227/171 200/265/200
f 200/265/200 171/227/171 172/228/172
f 197/259/197 165/221/165 201/267/201
f 201/267/201 165/221/165 166/222/166
f 166/222/166 168/224/168 201/267/201
f 201/267/201 168/224/168 188/268/188
f 188/268/188 191/252/191 201/267/201
f 201/267/201 191/252/191 197/259/197
f 195/269/195 180/238/180 202/270/202
f 202/270/202 180/238/180 181/239/181
f 181/239/181 182/240/182 202/270/202
f 202/270/202 182/240/182 198/260/198
f 198/260/198 194/261/194 202/270/202
f 202/270/202 194/261/194 195/269/195
s off
