# Apple ModelIO OBJ File: IchigoAme_Stick
mtllib IchigoAme_Stick.mtl
g IchigoAme_Stick_IchigoAme_StickSG
v 0 0 0
v -0.018938 0.022459 0.010227
v -0.018938 0.022459 -0.010227
v -0.007574 0.022459 0.021589
v 0.007576 0.022459 0.021589
v -0.009251 1.34277 0.026361
v -0.023127 1.34593 0.012489
v 0.01894 0.022459 0.010227
v 0.01894 0.022459 -0.010227
v 0.009253 1.34277 0.026361
v 0.023129 1.34593 0.012489
v -0.023127 2.06634 0.08379
v -0.009251 2.08022 0.08379
v -0.023127 2.06634 -0.012489
v -0.009251 2.08022 -0.012489
v -0.023127 1.4941 0.08379
v -0.009251 2.06634 0.097666
v -0.009251 1.49093 0.097666
v 0.009253 2.08022 0.08379
v 0.009253 2.06634 0.097666
v 0.023129 2.06634 0.08379
v 0.009253 2.08022 -0.012489
v 0.023129 2.06634 -0.012489
v 0.023129 1.4941 0.08379
v 0.009253 1.49093 0.097666
v -0.009251 2.06634 -0.02636
v -0.023127 1.49093 -0.012489
v -0.009251 1.49093 -0.02636
v 0.009253 2.06634 -0.02636
v 0.009253 1.49093 -0.02636
v 0.023129 1.49093 -0.012489
v -0.007574 0.022459 -0.021585
v -0.009251 1.34277 -0.02636
v -0.023127 1.34277 -0.012489
v 0.007576 0.022459 -0.021585
v 0.023129 1.34277 -0.012489
v 0.009253 1.34277 -0.02636
vn -1.6e-05 -1 1.5e-05
vn -0.94168 -0.009482 0.336375
vn -0.941793 -0.009488 -0.33606
vn -0.3942 -0.01016 0.918968
vn 0.3942 -0.01016 0.918968
vn -0.416041 -0.051393 0.907893
vn -0.958584 -0.017729 0.284258
vn 0.94168 -0.009483 0.336375
vn 0.941793 -0.00949 -0.33606
vn 0.416041 -0.051394 0.907892
vn 0.958584 -0.01773 0.284258
vn -0.992141 0.021501 0.123262
vn -0.375716 0.922725 0.086118
vn -0.992104 0.021494 -0.123562
vn -0.375719 0.922724 -0.086119
vn -0.988904 -0.014599 0.147835
vn -0.390321 0.015604 0.920547
vn -0.378557 -0.090849 0.921109
vn 0.375716 0.922725 0.086118
vn 0.390321 0.015604 0.920547
vn 0.992141 0.021501 0.123262
vn 0.375717 0.922725 -0.086118
vn 0.992104 0.021494 -0.123562
vn 0.988904 -0.014599 0.147835
vn 0.378557 -0.09085 0.921108
vn -0.390686 0.015578 -0.920392
vn -0.990718 0 -0.13593
vn -0.393745 0 -0.91922
vn 0.390686 0.01558 -0.920392
vn 0.393745 0 -0.91922
vn 0.990718 0 -0.13593
vn -0.39372 -0.010166 -0.919174
vn -0.393717 -0.003403 -0.919225
vn -0.953646 -0.002961 -0.300918
vn 0.39372 -0.010166 -0.919174
vn 0.953646 -0.002962 -0.300918
vn 0.393717 -0.003404 -0.919225
vt 0.066879 0.994725
vt 0.061591 0.980649
vt 0.07147 0.980406
vt 0.053829 0.980861
vt 0.050669 0.996032
vt 0.046512 0.981082
vt 0.035321 0.342867
vt 0.044761 0.341048
vt 0.104188 0.979845
vt 0.099432 0.994109
vt 0.094308 0.979975
vt 0.111839 0.979846
vt 0.106151 0.341818
vt 0.096732 0.340284
vt 0.017269 0.021068
vt 0.016532 0.012552
vt 0.059481 0.021035
vt 0.060207 0.012516
vt 0.017322 0.271815
vt 0.008679 0.020938
vt 0.008823 0.273273
vt 0.127754 0.004007
vt 0.136658 0.003968
vt 0.127766 0.012414
vt 0.136691 0.012371
vt 0.127043 0.020945
vt 0.084054 0.012475
vt 0.084803 0.021007
vt 0.135639 0.020793
vt 0.127398 0.272382
vt 0.13602 0.273955
vt 0.068071 0.020889
vt 0.059407 0.27388
vt 0.068061 0.273938
vt 0.075137 0.004054
vt 0.084047 0.004071
vt 0.075129 0.012462
vt 0.076209 0.02088
vt 0.076232 0.273972
vt 0.084904 0.273988
vt 0.07923 0.980237
vt 0.066341 0.34221
vt 0.056869 0.342363
vt 0.08319 0.995224
vt 0.086548 0.980099
vt 0.084718 0.341955
vt 0.075264 0.34208
vt 0.026476 0.34344
vt 0.00083 0.273913
vt 0.000545 0.020947
vt 0.059047 0.995453
vt 0.10714 0.994363
vt 0.074788 0.995062
vt 0.091573 0.994745
usemtl IchigoAme_StickSG
f 1/1/1 2/2/2 3/3/3
f 4/4/4 1/5/1 5/6/5
f 4/4/4 6/7/6 2/2/2
f 2/2/2 6/7/6 7/8/7
f 8/9/8 1/10/1 9/11/9
f 5/12/5 8/9/8 10/13/10
f 10/13/10 8/9/8 11/14/11
f 12/15/12 13/16/13 14/17/14
f 14/17/14 13/16/13 15/18/15
f 12/15/12 16/19/16 17/20/17
f 17/20/17 16/19/16 18/21/18
f 13/22/13 17/23/17 19/24/19
f 19/24/19 17/23/17 20/25/20
f 19/24/19 21/26/21 22/27/22
f 22/27/22 21/26/21 23/28/23
f 21/26/21 20/29/20 24/30/24
f 24/30/24 20/29/20 25/31/25
f 14/17/14 26/32/26 27/33/27
f 27/33/27 26/32/26 28/34/28
f 26/35/26 15/36/15 29/37/29
f 29/37/29 15/36/15 22/27/22
f 29/38/29 23/28/23 30/39/30
f 30/39/30 23/28/23 31/40/31
f 32/41/32 3/3/3 33/42/33
f 33/42/33 3/3/3 34/43/34
f 1/44/1 32/41/32 35/45/35
f 9/11/9 35/45/35 36/46/36
f 36/46/36 35/45/35 37/47/37
f 7/8/7 6/7/6 16/19/16
f 16/19/16 6/7/6 18/21/18
f 11/14/11 24/30/24 10/13/10
f 10/13/10 24/30/24 25/31/25
f 27/33/27 28/34/28 34/43/34
f 34/43/34 28/34/28 33/42/33
f 30/39/30 31/40/31 37/47/37
f 37/47/37 31/40/31 36/46/36
f 4/4/4 5/6/5 6/7/6
f 6/7/6 5/6/5 10/48/10
f 6/7/6 10/48/10 18/21/18
f 18/21/18 10/48/10 25/49/25
f 18/21/18 25/49/25 17/20/17
f 17/20/17 25/49/25 20/50/20
f 13/22/13 19/24/19 15/36/15
f 15/36/15 19/24/19 22/27/22
f 26/32/26 29/38/29 28/34/28
f 28/34/28 29/38/29 30/39/30
f 28/34/28 30/39/30 33/42/33
f 33/42/33 30/39/30 37/47/37
f 33/42/33 37/47/37 32/41/32
f 32/41/32 37/47/37 35/45/35
f 9/11/9 36/46/36 8/9/8
f 8/9/8 36/46/36 11/14/11
f 36/46/36 31/40/31 11/14/11
f 11/14/11 31/40/31 24/30/24
f 31/40/31 23/28/23 24/30/24
f 24/30/24 23/28/23 21/26/21
f 3/3/3 2/2/2 34/43/34
f 34/43/34 2/2/2 7/8/7
f 34/43/34 7/8/7 27/33/27
f 27/33/27 7/8/7 16/19/16
f 27/33/27 16/19/16 14/17/14
f 14/17/14 16/19/16 12/15/12
f 1/51/1 4/4/4 2/2/2
f 8/9/8 5/12/5 1/52/1
f 12/15/12 17/20/17 13/16/13
f 19/24/19 20/29/20 21/26/21
f 14/17/14 15/18/15 26/32/26
f 29/38/29 22/27/22 23/28/23
f 3/3/3 32/41/32 1/53/1
f 1/54/1 35/45/35 9/11/9
s off
