# Apple ModelIO OBJ File: Counter
mtllib Counter.mtl
g Counter2_FrontCounterSG
v 0.5334 0.229164 -10.3882
v 33.8043 0.229164 -10.3882
v 0.5334 4.16171 -10.3882
v 33.8043 4.16171 -10.3882
v 0.5334 4.16171 -15.0224
v 33.8043 4.16171 -15.0224
v 0.5334 0.229164 -15.0224
v 33.8043 0.229164 -15.0224
vn 0 0 1
vn 0 0 -1
vt 0.000975 0.996032
vt 0.000975 0.004241
vt 0.118203 0.996032
vt 0.118203 0.004241
vt 0.127621 0.995759
vt 0.127621 0.003968
vt 0.244849 0.995759
vt 0.244849 0.003968
usemtl FrontCounterSG
f 1/1/1 2/2/1 3/3/1
f 3/3/1 2/2/1 4/4/1
f 5/5/2 6/6/2 7/7/2
f 7/7/2 6/6/2 8/8/2
s off
g Counter2_FrontTopSG
v 0.533407 4.07873 -10.0701
v 33.8043 4.07873 -10.0701
v 0.533407 4.39936 -10.0701
v 33.8043 4.39936 -10.0701
v 0.533407 4.50623 -10.1769
v 33.8043 4.50623 -10.1769
v 0.533407 4.50623 -15.2337
v 33.8043 4.50623 -15.2337
v 0.533407 4.39936 -15.3405
v 33.8043 4.39936 -15.3405
v 0.533407 4.07873 -15.3405
v 33.8043 4.07873 -15.3405
v 33.8043 3.97187 -10.1769
v 0.533407 3.97187 -10.1769
v 33.8043 3.97187 -15.2337
v 0.533407 3.97187 -15.2337
v 0.533407 4.00317 -10.1014
v 33.8043 4.00317 -10.1014
v 0.533407 4.47493 -10.1014
v 33.8043 4.47493 -10.1014
v 0.533407 4.47493 -15.3092
v 33.8043 4.47493 -15.3092
v 0.533407 4.00317 -15.3092
v 33.8043 4.00317 -15.3092
vn 0 -0.078748 0.996895
vn 0 0.078748 0.996895
vn 0 0.999981 0.006098
vn 0 0.999981 -0.006098
vn 0 0.078754 -0.996894
vn 0 -0.078754 -0.996894
vn 0 -0.999981 0.006098
vn 0 -0.999981 -0.006098
vn 0 -0.707104 0.70711
vn 0 0.707104 0.70711
vn 0 0.707109 -0.707105
vn 0 -0.707109 -0.707105
vt 0.006051 0.996032
vt 0.006051 0.003968
vt 0.015612 0.996032
vt 0.015612 0.003968
vt 0.020489 0.996032
vt 0.020489 0.003968
vt 0.171276 0.996032
vt 0.171276 0.003968
vt 0.176154 0.996032
vt 0.176154 0.003968
vt 0.185716 0.996032
vt 0.185716 0.003968
vt 0.34139 0.003968
vt 0.34139 0.996032
vt 0.190594 0.003968
vt 0.190594 0.996032
vt 0.003799 0.996032
vt 0.003799 0.003968
vt 0.00136 0.996032
vt 0.00136 0.003968
vt 0.01805 0.996032
vt 0.01805 0.003968
vt 0.173715 0.996032
vt 0.173715 0.003968
vt 0.188155 0.996032
vt 0.188155 0.003968
usemtl FrontTopSG
f 9/9/3 10/10/3 11/11/4
f 11/11/4 10/10/3 12/12/4
f 13/13/5 14/14/5 15/15/6
f 15/15/6 14/14/5 16/16/6
f 17/17/7 18/18/7 19/19/8
f 19/19/8 18/18/7 20/20/8
f 21/21/9 22/22/9 23/23/10
f 23/23/10 22/22/9 24/24/10
f 9/9/3 25/25/11 10/10/3
f 10/10/3 25/25/11 26/26/11
f 25/25/11 22/27/9 26/26/11
f 26/26/11 22/27/9 21/28/9
f 13/13/5 27/29/12 14/14/5
f 14/14/5 27/29/12 28/30/12
f 27/29/12 11/11/4 28/30/12
f 28/30/12 11/11/4 12/12/4
f 17/17/7 29/31/13 18/18/7
f 18/18/7 29/31/13 30/32/13
f 29/31/13 15/15/6 30/32/13
f 30/32/13 15/15/6 16/16/6
f 24/24/10 31/33/14 23/23/10
f 23/23/10 31/33/14 32/34/14
f 31/33/14 19/19/8 32/34/14
f 32/34/14 19/19/8 20/20/8
s off
