# Apple ModelIO OBJ File: TrainFootPath
mtllib TrainFootPath.mtl
g TrainFootPath_FootPath57SG
v 115.464 -4.26158 89.7649
v -56.6128 -4.26158 89.7649
v 115.464 -0.955519 89.7649
v -56.6128 -0.955519 89.7649
v 115.464 -0.955519 124.18
v -56.6128 -0.955519 124.18
v 115.464 -4.26158 124.18
v -56.6128 -4.26158 124.18
vn 0 0 -1
vn 0 1 0
vn -0 0 1
vt 0.000946 0.996032
vt 0.000946 0.003968
vt 0.020006 0.996032
vt 0.020006 0.003968
vt 0.218419 0.996032
vt 0.218419 0.003968
vt 0.237479 0.996032
vt 0.237479 0.003968
usemtl FootPath57SG
f 1/1/1 2/2/1 3/3/1
f 3/3/1 2/2/1 4/4/1
f 3/3/2 4/4/2 5/5/2
f 5/5/2 4/4/2 6/6/2
f 5/5/3 6/6/3 7/7/3
f 7/7/3 6/6/3 8/8/3
s off
