# This file uses centimeters as units for non-parametric coordinates.

mtllib Redbean.mtl
g default
v 0.507107 1.301305 -0.429567
v 0.417855 1.317006 -0.585318
v 0.129070 1.077567 -0.446854
v 0.214375 1.063730 -0.305119
v 0.323751 0.972711 -0.225872
v 0.619949 1.198807 -0.349453
v 0.405381 1.237173 -0.725791
v 0.113396 1.014799 -0.609019
v 0.069508 0.866740 -0.436096
v 0.146739 0.862973 -0.291499
v 0.240045 0.859040 -0.254981
v 0.096771 0.886226 -0.522600
v 0.666086 1.213460 -0.446276
v 0.651894 1.284756 -0.547572
v 0.565784 1.293502 -0.662724
v 0.501054 1.240774 -0.713891
v 0.508820 1.211248 -0.706383
v 0.431835 1.177151 -0.725719
v 0.166525 0.956125 -0.636788
v 0.121356 0.868357 -0.529372
v 0.125351 0.825422 -0.450548
v 0.190974 0.817886 -0.332074
v 0.258015 0.844477 -0.278307
v 0.369658 0.917853 -0.253777
v 0.635605 1.135858 -0.382967
v 0.659099 1.183154 -0.460092
v 0.643884 1.215881 -0.552237
v 0.578201 1.228828 -0.655891
v 0.627339 1.166008 -0.553935
v 0.570957 1.177282 -0.648171
v 0.648269 1.159202 -0.476073
v 0.622800 1.097860 -0.430071
v 0.389826 0.885675 -0.310670
v 0.272978 0.837009 -0.302466
v 0.233865 0.811549 -0.365502
v 0.177565 0.817196 -0.470599
v 0.147686 0.856379 -0.532815
v 0.225748 0.920490 -0.619801
v 0.459741 1.134419 -0.702787
v 0.514176 1.185850 -0.696669
v 0.371604 0.865663 -0.432140
v 0.579339 1.074486 -0.531137
v 0.520987 1.087822 -0.627954
v 0.312844 0.880489 -0.539585
v 0.361904 1.274777 -0.556123
v 0.448489 1.258485 -0.399858
v 0.572772 1.172166 -0.296272
v 0.605577 1.092250 -0.335898
v 0.595344 1.052110 -0.396775
v 0.547773 1.028005 -0.513358
v 0.484460 1.045603 -0.614889
v 0.416551 1.097427 -0.701413
v 0.378963 1.146903 -0.728466
v 0.336671 1.220082 -0.704898
v 0.383793 1.221568 -0.367139
v 0.298035 1.242355 -0.527568
v 0.274269 1.183624 -0.690353
v 0.319890 1.107464 -0.723385
v 0.369182 1.053534 -0.694097
v 0.444796 1.001827 -0.600580
v 0.509969 0.981743 -0.493107
v 0.552285 1.004055 -0.363902
v 0.550004 1.043181 -0.296209
v 0.510288 1.120435 -0.250080
v 0.263607 1.114129 -0.322154
v 0.165274 1.146767 -0.461155
v 0.152211 1.078231 -0.643064
v 0.207678 1.006105 -0.677644
v 0.268347 0.961630 -0.652681
v 0.356599 0.918031 -0.562046
v 0.419179 0.899436 -0.451639
v 0.445201 0.918962 -0.320184
v 0.430890 0.952964 -0.254348
v 0.376633 1.016808 -0.214396
v 0.456731 1.323308 -0.502850
v 0.398077 1.277532 -0.474103
v 0.336414 1.240775 -0.444198
v 0.221733 1.130637 -0.400420
v 0.175752 1.070049 -0.380855
v 0.094529 0.865579 -0.346555
v 0.151595 0.811380 -0.388231
v 0.204982 0.805962 -0.416515
v 0.345410 0.870341 -0.488246
v 0.390255 0.906306 -0.508995
v 0.477931 0.988928 -0.548577
v 0.516482 1.033887 -0.565443
v 0.551033 1.077802 -0.580921
v 0.602962 1.171768 -0.602948
v 0.614529 1.229954 -0.606738
v 0.613114 1.295006 -0.597869
v 0.268021 1.027896 -0.247102
v 0.306217 1.081253 -0.251399
v 0.445486 1.211850 -0.281269
v 0.502105 1.243340 -0.329298
v 0.564390 1.269567 -0.365430
v 0.671062 1.237824 -0.461768
v 0.658045 1.199441 -0.499639
v 0.642351 1.160415 -0.506457
v 0.604013 1.079485 -0.480052
v 0.575734 1.032345 -0.456625
v 0.536373 0.985055 -0.431314
v 0.438897 0.902439 -0.388563
v 0.387994 0.869985 -0.372249
v 0.258455 0.824815 -0.326393
v 0.228119 0.830064 -0.297854
v 0.200433 0.859908 -0.261851
v 0.391830 1.292716 -0.660665
v 0.339460 1.257091 -0.633494
v 0.277286 1.221158 -0.609590
v 0.131703 1.136566 -0.563052
v 0.093542 1.060959 -0.543857
v 0.081289 0.880029 -0.493853
v 0.119305 0.848587 -0.499456
v 0.158941 0.838303 -0.510667
v 0.273134 0.896662 -0.585204
v 0.317279 0.934020 -0.611418
v 0.409384 1.021107 -0.650922
v 0.451974 1.065163 -0.661481
v 0.489836 1.105773 -0.669548
v 0.537884 1.181199 -0.679488
v 0.540001 1.221961 -0.689359
v 0.524571 1.265086 -0.701605
v 0.652645 1.216262 -0.399913
v 0.628212 1.277516 -0.410261
v 0.574558 1.331173 -0.465649
v 0.532684 1.361864 -0.536970
v 0.486839 1.350733 -0.630362
v 0.468714 1.303583 -0.700004
v 0.465382 1.244169 -0.724373
v 0.476292 1.198909 -0.717561
v 0.493618 1.164683 -0.700114
v 0.519886 1.144490 -0.674816
v 0.550844 1.130487 -0.638817
v 0.580585 1.122986 -0.594269
v 0.605650 1.119423 -0.545400
v 0.625554 1.122138 -0.498422
v 0.639803 1.134763 -0.457362
v 0.652748 1.164135 -0.426439
v 0.092633 1.018187 -0.433166
v 0.135199 1.009967 -0.364843
v 0.164806 1.008155 -0.291107
v 0.225719 0.975264 -0.232034
v 0.287756 0.926808 -0.230528
v 0.323041 0.889712 -0.260040
v 0.340028 0.862589 -0.305702
v 0.339644 0.845548 -0.357939
v 0.325106 0.837586 -0.412648
v 0.300710 0.839068 -0.466571
v 0.269231 0.848874 -0.516791
v 0.232916 0.865721 -0.557447
v 0.190370 0.888580 -0.585492
v 0.140255 0.917610 -0.593063
v 0.094426 0.958851 -0.569320
v 0.074337 0.997609 -0.511054
v 0.254382 0.887397 -0.238093
v 0.200085 0.911744 -0.240046
v 0.139400 0.938350 -0.283431
v 0.098885 0.955735 -0.346535
v 0.061611 0.951899 -0.422757
v 0.065075 0.933764 -0.500223
v 0.091773 0.914530 -0.540386
v 0.127403 0.889173 -0.557323
v 0.164126 0.866995 -0.553914
v 0.194986 0.845772 -0.531640
v 0.225088 0.826563 -0.492850
v 0.254070 0.816394 -0.443656
v 0.279279 0.818380 -0.390987
v 0.295548 0.830293 -0.343708
v 0.299870 0.846169 -0.303696
v 0.286554 0.862816 -0.267703
v 0.228160 1.210226 -0.501135
v 0.272291 1.190721 -0.412999
v 0.317735 1.175090 -0.339616
v 0.357780 1.153208 -0.250278
v 0.455678 1.067354 -0.224573
v 0.492595 0.999231 -0.271130
v 0.500631 0.960085 -0.338500
v 0.489506 0.941616 -0.408056
v 0.466146 0.938464 -0.472235
v 0.435292 0.945990 -0.529629
v 0.401266 0.958491 -0.582642
v 0.363549 0.976418 -0.634466
v 0.317761 1.007029 -0.678341
v 0.260906 1.059775 -0.706456
v 0.210586 1.135846 -0.670773
v 0.211253 1.190961 -0.590443
vt 0.424157 0.770720
vt 0.347049 0.767768
vt 0.345971 0.705650
vt 0.426273 0.707968
vt 0.504574 0.716636
vt 0.501522 0.780407
vt 0.199920 0.778076
vt 0.192815 0.719325
vt 0.265987 0.710195
vt 0.269961 0.770770
vt 0.421906 0.444820
vt 0.345777 0.446456
vt 0.344252 0.386551
vt 0.413181 0.384699
vt 0.491073 0.375953
vt 0.499911 0.434589
vt 0.182346 0.436350
vt 0.200742 0.375875
vt 0.273383 0.385956
vt 0.273660 0.443010
vt 0.497365 0.845945
vt 0.421294 0.837543
vt 0.351407 0.838699
vt 0.270564 0.842904
vt 0.204790 0.854291
vt 0.132597 0.807545
vt 0.155589 0.865960
vt 0.123435 0.887137
vt 0.083958 0.834480
vt 0.049431 0.764671
vt 0.120965 0.734897
vt 0.088309 0.331985
vt 0.138594 0.357913
vt 0.114413 0.423999
vt 0.047236 0.398591
vt 0.263892 0.256852
vt 0.207199 0.269417
vt 0.198718 0.227983
vt 0.260262 0.198564
vt 0.350175 0.256571
vt 0.343333 0.181982
vt 0.428565 0.194694
vt 0.420269 0.261485
vt 0.489409 0.223495
vt 0.478360 0.268427
vt 0.573153 0.415697
vt 0.557050 0.358147
vt 0.602461 0.332451
vt 0.640198 0.390634
vt 0.575855 0.804896
vt 0.595750 0.734253
vt 0.672744 0.760315
vt 0.629221 0.836865
vt 0.585998 0.892606
vt 0.549023 0.861432
vt 0.408530 0.936707
vt 0.501248 0.911773
vt 0.495727 0.959650
vt 0.430844 0.988577
vt 0.203443 0.951829
vt 0.210440 0.912130
vt 0.271603 0.925201
vt 0.265011 0.983405
vt 0.345160 0.994000
vt 0.347965 0.938755
vt 0.810467 0.431563
vt 0.814723 0.470132
vt 0.770567 0.465547
vt 0.773431 0.431235
vt 0.732238 0.454347
vt 0.739740 0.427320
vt 0.696020 0.375206
vt 0.708920 0.405458
vt 0.684493 0.421896
vt 0.659312 0.392683
vt 0.636288 0.348295
vt 0.682667 0.335330
vt 0.641996 0.133708
vt 0.660318 0.099602
vt 0.693214 0.114448
vt 0.683280 0.150006
vt 0.761857 0.057763
vt 0.730190 0.064121
vt 0.719337 0.039090
vt 0.752722 0.023461
vt 0.801100 0.014942
vt 0.800967 0.054802
vt 0.841927 0.056944
vt 0.850076 0.021294
vt 0.885559 0.037604
vt 0.874256 0.062604
vt 0.923429 0.151976
vt 0.912838 0.114231
vt 0.946562 0.096780
vt 0.967884 0.136940
vt 0.913826 0.369984
vt 0.924295 0.333529
vt 0.966463 0.346249
vt 0.947763 0.384311
vt 0.927603 0.412824
vt 0.903924 0.398785
vt 0.856359 0.461253
vt 0.847687 0.428147
vt 0.877748 0.421779
vt 0.888933 0.446717
vt 0.732091 0.366678
vt 0.725007 0.328559
vt 0.766026 0.324974
vt 0.769240 0.362681
vt 0.772136 0.397415
vt 0.738328 0.399502
vt 0.844927 0.323842
vt 0.884071 0.326824
vt 0.879851 0.363094
vt 0.843921 0.360707
vt 0.876713 0.395048
vt 0.844100 0.394942
vt 0.841061 0.126146
vt 0.877611 0.122539
vt 0.883184 0.159594
vt 0.842977 0.163408
vt 0.723383 0.158722
vt 0.727812 0.122641
vt 0.764475 0.126157
vt 0.763286 0.162972
vt 0.802505 0.127153
vt 0.803275 0.164424
vt 0.805736 0.323620
vt 0.806782 0.360782
vt 0.808480 0.396493
vt 0.425196 0.503393
vt 0.345755 0.510113
vt 0.504565 0.490291
vt 0.677423 0.469802
vt 0.595803 0.480857
vt 0.674307 0.192587
vt 0.626556 0.181130
vt 0.762107 0.202163
vt 0.719518 0.198955
vt 0.803811 0.203285
vt 0.887150 0.200500
vt 0.845109 0.202893
vt 0.983399 0.188732
vt 0.932157 0.196128
vt 0.099673 0.502011
vt 0.017738 0.487220
vt 0.273962 0.506536
vt 0.183051 0.508097
vt 0.345572 0.644271
vt 0.426352 0.642321
vt 0.185598 0.654715
vt 0.263855 0.648699
vt 0.020948 0.681118
vt 0.106681 0.664426
vt 0.931189 0.290844
vt 0.981769 0.299140
vt 0.845832 0.284770
vt 0.887674 0.286572
vt 0.763250 0.284703
vt 0.804981 0.284210
vt 0.719739 0.285886
vt 0.622227 0.290578
vt 0.673237 0.288023
vt 0.612169 0.645942
vt 0.699520 0.661144
vt 0.516700 0.651927
vt 0.349143 0.574149
vt 0.424738 0.572420
vt 0.181266 0.591289
vt 0.261988 0.584232
vt 0.010350 0.585900
vt 0.096389 0.585672
vt 0.934629 0.243765
vt 0.988351 0.245289
vt 0.845938 0.243684
vt 0.889007 0.243731
vt 0.762010 0.243226
vt 0.804404 0.243719
vt 0.717812 0.242073
vt 0.619654 0.236504
vt 0.670643 0.239951
vt 0.621601 0.569732
vt 0.696045 0.565479
vt 0.509073 0.562452
vt 0.528789 0.906343
vt 0.545629 0.927979
vt 0.705664 0.439852
vt 0.718819 0.424683
vt 0.710052 0.068843
vt 0.696950 0.054983
vt 0.531778 0.253277
vt 0.516871 0.276071
vt 0.174994 0.277201
vt 0.160531 0.255088
vt 0.906911 0.052656
vt 0.894556 0.066815
vt 0.897317 0.417586
vt 0.909495 0.430879
vt 0.175429 0.900703
vt 0.160393 0.922025
vt 0.346747 0.331545
vt 0.273240 0.326517
vt 0.412837 0.323795
vt 0.480995 0.317164
vt 0.531682 0.309941
vt 0.566751 0.285867
vt 0.703244 0.086931
vt 0.679406 0.073276
vt 0.731044 0.091002
vt 0.764435 0.091467
vt 0.802230 0.091146
vt 0.839688 0.091092
vt 0.873857 0.090247
vt 0.901775 0.084993
vt 0.925486 0.070290
vt 0.159831 0.308707
vt 0.126475 0.286274
vt 0.204019 0.319126
vn -0.183303 0.853937 0.487022
vn -0.380795 0.874468 0.300503
vn -0.405318 0.855616 0.321931
vn -0.293076 0.856425 0.425021
vn 0.028330 0.763280 0.645447
vn 0.169339 0.743967 0.646404
vn -0.489032 0.788431 -0.373127
vn -0.549379 0.801057 -0.237676
vn -0.510646 0.856463 0.075581
vn -0.487573 0.873056 0.006800
vn -0.564781 0.613097 0.552390
vn -0.645590 0.601159 0.470980
vn -0.714822 0.548316 0.434027
vn -0.628417 0.495151 0.599930
vn -0.340040 0.265606 0.902123
vn -0.339577 0.386168 0.857649
vn -0.923409 0.367960 -0.109187
vn -0.960591 0.263749 -0.087751
vn -0.829190 0.476745 0.291818
vn -0.773398 0.517704 0.365839
vn 0.540895 0.723529 0.428881
vn 0.314660 0.906606 0.281166
vn 0.128253 0.991483 0.022654
vn -0.018370 0.958147 -0.285686
vn -0.101896 0.757238 -0.645142
vn -0.286204 0.412736 -0.864718
vn -0.038696 0.333859 -0.941829
vn 0.238421 -0.147239 -0.959936
vn 0.067470 -0.109353 -0.991711
vn -0.056487 -0.060776 -0.996552
vn -0.437744 0.515283 -0.736793
vn -0.497723 -0.487220 -0.717558
vn -0.838572 -0.134476 -0.527933
vn -0.793469 0.024007 -0.608137
vn -0.439271 -0.380735 -0.813684
vn -0.895387 -0.432290 0.106809
vn -0.867441 -0.429191 -0.251679
vn -0.504939 -0.783874 -0.361356
vn -0.491154 -0.867518 -0.078616
vn -0.806314 -0.411281 0.425096
vn -0.398035 -0.901981 0.167326
vn -0.257349 -0.896219 0.361336
vn -0.614194 -0.468761 0.634846
vn -0.097966 -0.885134 0.454908
vn -0.384166 -0.535859 0.751845
vn -0.016230 -0.075309 0.997028
vn 0.061367 -0.158199 0.985498
vn 0.313789 -0.578882 0.752617
vn 0.308616 -0.551554 0.774948
vn 0.654277 0.294475 0.696567
vn 0.516771 0.291125 0.805105
vn 0.798024 -0.272270 0.537611
vn 0.898637 -0.218995 0.380121
vn 0.942091 -0.244778 0.229236
vn 0.806412 0.232903 0.543558
vn 0.786636 0.604235 -0.126902
vn 0.873116 0.478331 0.094171
vn 0.951145 -0.172868 -0.255812
vn 0.905213 -0.124177 -0.406411
vn 0.630341 -0.075306 -0.772657
vn 0.433713 0.440840 -0.785846
vn 0.548370 0.634049 -0.545226
vn 0.756891 -0.034054 -0.652654
vn 0.827098 -0.048378 -0.559971
vn 0.654052 0.671879 -0.347555
vn 0.793722 -0.317264 -0.518989
vn 0.845241 -0.345825 -0.407398
vn 0.884074 -0.373082 -0.281465
vn 0.874746 -0.484529 0.007138
vn 0.895191 -0.441692 -0.059510
vn 0.816254 -0.566998 0.110647
vn 0.412323 -0.811085 0.414886
vn 0.479351 -0.790153 0.381943
vn 0.094016 -0.987612 0.125631
vn 0.177636 -0.949998 0.256806
vn -0.004365 -0.998245 -0.059050
vn -0.110489 -0.957697 -0.265723
vn -0.202311 -0.876751 -0.436323
vn -0.020634 -0.662592 -0.748696
vn -0.115666 -0.710121 -0.694514
vn 0.337999 -0.394048 -0.854683
vn 0.283849 -0.428507 -0.857795
vn 0.400483 -0.346243 -0.848368
vn 0.716890 -0.301092 -0.628819
vn 0.606512 -0.296100 -0.737881
vn 0.800670 -0.559611 -0.213925
vn 0.753450 -0.637669 -0.160288
vn 0.664832 -0.655602 -0.358030
vn 0.715608 -0.592025 -0.370691
vn 0.774967 -0.505137 -0.379818
vn 0.833604 -0.491753 -0.251563
vn 0.528376 -0.637659 -0.560545
vn 0.439925 -0.573444 -0.691107
vn 0.469335 -0.530580 -0.705840
vn 0.563211 -0.594006 -0.574413
vn 0.530600 -0.447691 -0.719747
vn 0.633983 -0.489966 -0.598330
vn 0.275189 -0.849440 -0.450247
vn 0.126165 -0.799862 -0.586774
vn 0.218447 -0.754830 -0.618476
vn 0.363174 -0.794815 -0.486183
vn 0.513924 -0.855384 0.064814
vn 0.437021 -0.890464 0.126835
vn 0.417922 -0.902228 -0.106424
vn 0.487384 -0.854095 -0.181598
vn 0.366414 -0.882717 -0.294197
vn 0.439322 -0.824316 -0.357070
vn 0.589957 -0.654606 -0.472696
vn 0.638692 -0.606888 -0.473033
vn 0.713068 -0.505242 -0.486071
vn -0.597589 0.610945 0.519263
vn -0.579525 0.640850 0.503451
vn -0.387384 0.396408 0.832343
vn 0.425698 -0.503635 0.751753
vn 0.015063 -0.020877 0.999669
vn 0.579806 -0.742822 0.334725
vn 0.528793 -0.815540 -0.235102
vn 0.580036 -0.814503 0.011948
vn 0.472607 -0.786433 -0.397700
vn 0.287589 -0.716151 -0.635940
vn 0.411982 -0.759058 -0.504085
vn -0.355591 -0.247322 -0.901325
vn 0.063515 -0.598622 -0.798510
vn -0.690321 0.247271 -0.679936
vn -0.677253 0.655599 0.333943
vn -0.787894 0.597022 -0.150957
vn -0.380738 0.861751 0.335297
vn -0.356394 0.846350 0.395823
vn -0.518724 0.820721 -0.239464
vn -0.443008 0.892199 0.087895
vn -0.157057 -0.064941 -0.985452
vn -0.488117 0.498591 -0.716344
vn 0.220079 -0.472744 -0.853275
vn 0.497756 -0.674505 -0.545235
vn 0.405070 -0.615632 -0.675955
vn 0.615084 -0.719116 -0.323333
vn 0.548633 -0.698647 -0.459232
vn 0.691972 -0.715774 -0.094032
vn 0.687149 -0.354870 0.633950
vn 0.734053 -0.645215 0.211810
vn 0.363837 0.204598 0.908715
vn -0.063982 0.688647 0.722268
vn -0.484356 0.757293 0.438071
vn -0.507933 0.730906 0.455829
vn -0.601020 0.762953 -0.238071
vn -0.525775 0.830961 0.181839
vn -0.262047 -0.134144 -0.955687
vn -0.573980 0.407045 -0.710536
vn 0.142033 -0.531732 -0.834918
vn 0.453943 -0.721470 -0.522893
vn 0.348400 -0.669538 -0.656000
vn 0.568875 -0.773460 -0.279537
vn 0.505524 -0.747557 -0.430818
vn 0.635515 -0.771260 -0.035759
vn 0.566775 -0.436656 0.698640
vn 0.662097 -0.694392 0.281865
vn 0.205317 0.069063 0.976256
vn -0.282533 0.543667 0.790317
vn 0.976631 0.032968 0.212379
vn 0.964952 -0.262420 0.001624
vn 0.914797 -0.379844 -0.137352
vn 0.266482 -0.883768 0.384632
vn 0.153671 -0.812059 0.562979
vn -0.032330 -0.623354 0.781272
vn -0.711234 -0.495546 -0.498579
vn -0.508513 -0.665914 -0.545869
vn -0.301314 -0.770384 -0.561889
vn 0.480774 -0.275236 -0.832527
vn 0.438030 -0.151227 -0.886149
vn 0.333051 0.122172 -0.934961
vn -0.852638 0.222678 0.472677
vn -0.959526 0.161939 0.230404
vn -0.712523 0.127926 0.689888
vn -0.432411 -0.050430 0.900265
vn 0.017296 -0.323508 0.946067
vn 0.318573 -0.651695 0.688335
vn 0.365353 -0.835248 0.410949
vn 0.332711 -0.924645 0.185296
vn 0.285192 -0.958467 -0.002493
vn 0.217313 -0.956478 -0.194744
vn 0.124256 -0.919337 -0.373337
vn 0.001607 -0.850275 -0.526337
vn -0.203663 -0.743587 -0.636868
vn -0.510705 -0.563825 -0.649062
vn -0.809100 -0.278372 -0.517558
vn -0.984685 0.006349 -0.174229
s 1
g redbean
usemtl pasted__standardSurface6SG
f 1/1/1 75/2/2 76/3/3 46/4/4
f 1/1/1 46/4/4 94/5/5 95/6/6
f 107/7/7 108/8/8 45/9/9 2/10/10
f 4/11/11 79/12/12 140/13/13 141/14/14
f 141/14/14 142/15/15 91/16/16 4/11/11
f 111/17/17 154/18/18 139/19/19 3/20/20
f 95/6/6 124/21/21 125/22/22 1/1/1
f 125/22/22 126/23/23 75/2/2 1/1/1
f 2/10/10 127/24/24 128/25/25 107/7/7
f 7/26/26 129/27/27 130/28/28 18/29/29
f 53/30/30 54/31/31 7/26/26 18/29/29
f 152/32/32 153/33/33 8/34/34 19/35/35
f 9/36/36 112/37/37 113/38/38 21/39/39
f 80/40/40 81/41/41 22/42/42 10/43/43
f 22/42/42 105/44/44 106/45/45 10/43/43
f 5/46/46 143/47/47 144/48/48 24/49/49
f 6/50/50 47/51/51 48/52/52 25/53/53
f 25/53/53 138/54/54 123/55/55 6/50/50
f 14/56/56 96/57/57 97/58/58 27/59/59
f 121/60/60 122/61/61 15/62/62 28/63/63
f 27/59/59 89/64/64 90/65/65 14/56/56
f 88/66/66 89/67/64 27/68/59 29/69/67
f 97/70/58 98/71/68 29/69/67 27/68/59
f 32/72/69 137/73/70 138/74/54 25/75/53
f 48/76/52 49/77/71 32/72/69 25/75/53
f 24/78/49 144/79/48 145/80/72 33/81/73
f 35/82/74 104/83/75 105/84/44 22/85/42
f 81/86/41 82/87/76 35/82/74 22/85/42
f 36/88/77 21/89/39 113/90/38 114/91/78
f 38/92/79 151/93/80 152/94/32 19/95/35
f 39/96/81 52/97/82 53/98/30 18/99/29
f 130/100/28 131/101/83 39/96/81 18/99/29
f 28/102/63 30/103/84 120/104/85 121/105/60
f 99/106/86 100/107/87 50/108/88 42/109/89
f 135/110/90 136/111/91 99/106/86 42/109/89
f 51/112/92 118/113/93 119/114/94 43/115/95
f 119/114/94 132/116/96 133/117/97 43/115/95
f 149/118/98 150/119/99 115/120/100 44/121/101
f 103/122/102 146/123/103 147/124/104 41/125/105
f 147/124/104 148/126/106 83/127/107 41/125/105
f 50/108/88 86/128/108 87/129/109 42/109/89
f 42/109/89 87/129/109 134/130/110 135/110/90
f 65/131/111 78/132/112 79/12/12 4/11/11
f 91/16/16 92/133/113 65/131/111 4/11/11
f 73/134/114 74/135/115 5/46/46 24/49/49
f 33/81/73 72/136/116 73/137/114 24/78/49
f 71/138/117 102/139/118 103/122/102 41/125/105
f 83/127/107 84/140/119 71/138/117 41/125/105
f 115/120/100 116/141/120 70/142/121 44/121/101
f 68/143/122 69/144/123 38/92/79 19/95/35
f 8/34/34 67/145/124 68/146/122 19/35/35
f 3/20/20 66/147/125 110/148/126 111/17/17
f 46/4/4 76/3/3 77/149/127 55/150/128
f 108/8/8 109/151/129 56/152/130 45/9/9
f 58/153/131 57/154/132 54/31/31 53/30/30
f 53/98/30 52/97/82 59/155/133 58/156/131
f 60/157/134 117/158/135 118/113/93 51/112/92
f 61/159/136 85/160/137 86/128/108 50/108/88
f 50/108/88 100/107/87 101/161/138 61/159/136
f 63/162/139 62/163/140 49/77/71 48/76/52
f 48/52/52 47/51/51 64/164/141 63/165/139
f 93/166/142 94/5/5 46/4/4 55/150/128
f 55/150/128 77/149/127 172/167/143 173/168/144
f 109/151/129 186/169/145 171/170/146 56/152/130
f 184/171/147 185/172/148 57/154/132 58/153/131
f 58/156/131 59/155/133 183/173/149 184/174/147
f 181/175/150 182/176/151 117/158/135 60/157/134
f 179/177/152 180/178/153 85/160/137 61/159/136
f 61/159/136 101/161/138 178/179/154 179/177/152
f 176/180/155 177/181/156 62/163/140 63/162/139
f 63/165/139 64/164/141 175/182/157 176/183/155
f 173/168/144 174/184/158 93/166/142 55/150/128
f 76/3/3 75/2/2 2/10/10 45/9/9
f 77/149/127 76/3/3 45/9/9 56/152/130
f 171/170/146 172/167/143 77/149/127 56/152/130
f 79/12/12 78/132/112 66/147/125 3/20/20
f 139/19/19 140/13/13 79/12/12 3/20/20
f 21/39/39 81/41/41 80/40/40 9/36/36
f 36/88/77 82/87/76 81/86/41 21/89/39
f 148/126/106 149/118/98 44/121/101 83/127/107
f 44/121/101 70/142/121 84/140/119 83/127/107
f 85/160/137 180/178/153 181/175/150 60/157/134
f 86/128/108 85/160/137 60/157/134 51/112/92
f 87/129/109 86/128/108 51/112/92 43/115/95
f 133/117/97 134/130/110 87/129/109 43/115/95
f 28/102/63 89/67/64 88/66/66 30/103/84
f 90/65/65 89/64/64 28/63/63 15/62/62
f 75/2/2 126/23/23 127/24/24 2/10/10
f 74/135/115 92/133/113 91/16/16 5/46/46
f 64/164/141 93/166/142 174/184/158 175/182/157
f 47/51/51 94/5/5 93/166/142 64/164/141
f 95/6/6 94/5/5 47/51/51 6/50/50
f 6/50/50 123/55/55 124/21/21 95/6/6
f 97/58/58 96/57/57 13/185/159 26/186/160
f 26/187/160 31/188/161 98/71/68 97/70/58
f 136/111/91 137/73/70 32/72/69 99/106/86
f 32/72/69 49/77/71 100/107/87 99/106/86
f 101/161/138 100/107/87 49/77/71 62/163/140
f 177/181/156 178/179/154 101/161/138 62/163/140
f 103/122/102 102/139/118 72/136/116 33/81/73
f 33/81/73 145/80/72 146/123/103 103/122/102
f 105/84/44 104/83/75 34/189/162 23/190/163
f 106/45/45 105/44/44 23/191/163 11/192/164
f 142/15/15 143/47/47 5/46/46 91/16/16
f 54/31/31 108/8/8 107/7/7 7/26/26
f 57/154/132 109/151/129 108/8/8 54/31/31
f 185/172/148 186/169/145 109/151/129 57/154/132
f 111/17/17 110/148/126 67/145/124 8/34/34
f 153/33/33 154/18/18 111/17/17 8/34/34
f 113/38/38 112/37/37 12/193/165 20/194/166
f 114/91/78 113/90/38 20/195/166 37/196/167
f 150/119/99 151/93/80 38/92/79 115/120/100
f 38/92/79 69/144/123 116/141/120 115/120/100
f 117/158/135 182/176/151 183/173/149 59/155/133
f 118/113/93 117/158/135 59/155/133 52/97/82
f 119/114/94 118/113/93 52/97/82 39/96/81
f 39/96/81 131/101/83 132/116/96 119/114/94
f 121/105/60 120/104/85 40/197/168 17/198/169
f 16/199/170 122/61/61 121/60/60 17/200/169
f 107/7/7 128/25/25 129/27/27 7/26/26
f 124/21/21 123/55/55 13/185/159 96/57/57
f 125/22/22 124/21/21 96/57/57 14/56/56
f 14/56/56 90/65/65 126/23/23 125/22/22
f 127/24/24 126/23/23 90/65/65 15/62/62
f 128/25/25 127/24/24 15/62/62 122/61/61
f 129/27/27 128/25/25 122/61/61 16/199/170
f 130/28/28 129/27/27 16/199/170 17/200/169
f 40/197/168 131/101/83 130/100/28 17/198/169
f 132/116/96 131/101/83 40/197/168 120/104/85
f 133/117/97 132/116/96 120/104/85 30/103/84
f 88/66/66 134/130/110 133/117/97 30/103/84
f 135/110/90 134/130/110 88/66/66 29/69/67
f 98/71/68 136/111/91 135/110/90 29/69/67
f 31/188/161 137/73/70 136/111/91 98/71/68
f 138/74/54 137/73/70 31/188/161 26/187/160
f 123/55/55 138/54/54 26/186/160 13/185/159
f 80/40/40 158/201/171 159/202/172 9/36/36
f 157/203/173 158/201/171 80/40/40 10/43/43
f 106/45/45 156/204/174 157/203/173 10/43/43
f 11/192/164 155/205/175 156/204/174 106/45/45
f 170/206/176 155/205/175 11/192/164 23/191/163
f 169/207/177 170/208/176 23/190/163 34/189/162
f 168/209/178 169/207/177 34/189/162 104/83/75
f 167/210/179 168/209/178 104/83/75 35/82/74
f 82/87/76 166/211/180 167/210/179 35/82/74
f 36/88/77 165/212/181 166/211/180 82/87/76
f 114/91/78 164/213/182 165/212/181 36/88/77
f 37/196/167 163/214/183 164/213/182 114/91/78
f 162/215/184 163/214/183 37/196/167 20/195/166
f 12/193/165 161/216/185 162/217/184 20/194/166
f 12/193/165 112/37/37 160/218/186 161/216/185
f 159/202/172 160/218/186 112/37/37 9/36/36
f 156/204/174 155/205/175 143/47/47 142/15/15
f 157/203/173 156/204/174 142/15/15 141/14/14
f 141/14/14 140/13/13 158/201/171 157/203/173
f 159/202/172 158/201/171 140/13/13 139/19/19
f 139/19/19 154/18/18 160/218/186 159/202/172
f 161/216/185 160/218/186 154/18/18 153/33/33
f 162/217/184 161/216/185 153/33/33 152/32/32
f 152/94/32 151/93/80 163/214/183 162/215/184
f 164/213/182 163/214/183 151/93/80 150/119/99
f 165/212/181 164/213/182 150/119/99 149/118/98
f 166/211/180 165/212/181 149/118/98 148/126/106
f 167/210/179 166/211/180 148/126/106 147/124/104
f 147/124/104 146/123/103 168/209/178 167/210/179
f 146/123/103 145/80/72 169/207/177 168/209/178
f 145/80/72 144/79/48 170/208/176 169/207/177
f 144/48/48 143/47/47 155/205/175 170/206/176
f 78/132/112 172/167/143 171/170/146 66/147/125
f 173/168/144 172/167/143 78/132/112 65/131/111
f 92/133/113 174/184/158 173/168/144 65/131/111
f 175/182/157 174/184/158 92/133/113 74/135/115
f 176/183/155 175/182/157 74/135/115 73/134/114
f 73/137/114 72/136/116 177/181/156 176/180/155
f 102/139/118 178/179/154 177/181/156 72/136/116
f 179/177/152 178/179/154 102/139/118 71/138/117
f 71/138/117 84/140/119 180/178/153 179/177/152
f 181/175/150 180/178/153 84/140/119 70/142/121
f 70/142/121 116/141/120 182/176/151 181/175/150
f 183/173/149 182/176/151 116/141/120 69/144/123
f 184/174/147 183/173/149 69/144/123 68/143/122
f 68/146/122 67/145/124 185/172/148 184/171/147
f 67/145/124 110/148/126 186/169/145 185/172/148
f 171/170/146 186/169/145 110/148/126 66/147/125
