# Apple ModelIO OBJ File: Takoyaki_Picks
mtllib Takoyaki_Picks.mtl
g Takoyaki_Picks1_Handle1SG
v 0.345036 0.315465 -0.046815
v 0.305212 0.315465 -0.075748
v 0.337959 0.40227 -0.041673
v 0.302507 0.40227 -0.067428
v 0.255987 0.315465 -0.075748
v 0.258692 0.40227 -0.067428
v 0.216166 0.315465 -0.046814
v 0.223242 0.40227 -0.041672
v 0.200956 0.315465 0
v 0.209702 0.40227 0
v 0.216166 0.315465 0.046815
v 0.223242 0.40227 0.041673
v 0.255987 0.315465 0.075747
v 0.258692 0.40227 0.067428
v 0.305212 0.315465 0.075747
v 0.302507 0.40227 0.067428
v 0.345036 0.315465 0.046814
v 0.337959 0.40227 0.041671
v 0.360245 0.315465 0
v 0.351498 0.40227 0
v 0.295368 0.260145 -0.045453
v 0.319263 0.260145 -0.02809
v 0.2806 0.260145 0
v 0.265833 0.260145 -0.045453
v 0.241936 0.260145 -0.02809
v 0.232809 0.260145 0
v 0.241936 0.260145 0.02809
v 0.265833 0.260145 0.045452
v 0.295368 0.260145 0.045452
v 0.319263 0.260145 0.02809
v 0.32839 0.260145 0
v 0.336298 1.01249 -0.040467
v 0.301874 1.01249 -0.065477
v 0.2806 1.01249 0
v 0.259325 1.01249 -0.065477
v 0.224901 1.01249 -0.040466
v 0.211752 1.01249 0
v 0.224901 1.01249 0.040466
v 0.259325 1.01249 0.065477
v 0.301874 1.01249 0.065477
v 0.336298 1.01249 0.040466
v 0.349449 1.01249 0
v 0.337488 0.276348 -0.041331
v 0.30233 0.276348 -0.066875
v 0.258871 0.276348 -0.066875
v 0.223713 0.276348 -0.04133
v 0.210283 0.276348 0
v 0.223713 0.276348 0.04133
v 0.258871 0.276348 0.066874
v 0.30233 0.276348 0.066874
v 0.337488 0.276348 0.041329
v 0.350916 0.276348 0
v 0.373423 0.932791 -0.067441
v 0.362549 0.989143 -0.059541
v 0.395334 0.932791 0
v 0.381897 0.989143 0
v 0.311905 0.989143 -0.096338
v 0.316055 0.932791 -0.10912
v 0.249296 0.989143 -0.096338
v 0.245144 0.932791 -0.10912
v 0.198652 0.989143 -0.05954
v 0.187778 0.932791 -0.06744
v 0.179304 0.989143 0
v 0.165865 0.932791 0
v 0.198652 0.989143 0.059541
v 0.187778 0.932791 0.067441
v 0.249296 0.989143 0.096335
v 0.245144 0.932791 0.10912
v 0.311905 0.989143 0.096335
v 0.316055 0.932791 0.10912
v 0.362549 0.989143 0.05954
v 0.373423 0.932791 0.06744
vn 0.809017 0.000434 -0.587785
vn 0.309023 0.000437 -0.951054
vn 0.807517 -0.060845 -0.586698
vn 0.308439 -0.060844 -0.949296
vn -0.309032 0.000437 -0.951052
vn -0.308447 -0.060845 -0.949294
vn -0.809016 0.000437 -0.587787
vn -0.80752 -0.060845 -0.586694
vn -1 0.000434 0
vn -0.998147 -0.060844 -0
vn -0.809015 0.000435 0.587787
vn -0.807523 -0.060845 0.58669
vn -0.309021 0.00043 0.951055
vn -0.308439 -0.060846 0.949296
vn 0.309033 0.000432 0.951051
vn 0.30845 -0.060845 0.949293
vn 0.809014 0.000433 0.587789
vn 0.80752 -0.060845 0.586693
vn 1 0.000429 0
vn 0.998147 -0.060844 0
vn 0.128407 -0.909577 -0.395199
vn 0.336175 -0.90958 -0.244236
vn 0 -1 0
vn -0.12841 -0.909575 -0.395201
vn -0.336174 -0.909578 -0.244244
vn -0.415527 -0.909581 -0
vn -0.336173 -0.909579 0.24424
vn -0.128407 -0.909576 0.3952
vn 0.12841 -0.909576 0.3952
vn 0.336176 -0.909578 0.24424
vn 0.415532 -0.909578 0
vn 0.336165 0.909582 -0.244239
vn 0.128395 0.909584 -0.395185
vn 0 1 0
vn -0.128406 0.909581 -0.395188
vn -0.33617 0.909581 -0.244238
vn -0.415535 0.909577 -0
vn -0.33617 0.909581 0.244237
vn -0.128401 0.909577 0.3952
vn 0.128399 0.909579 0.395197
vn 0.336164 0.909583 0.244237
vn 0.415532 0.909579 0
vn 0.735913 -0.415412 -0.534663
vn 0.281087 -0.415417 -0.865112
vn -0.281096 -0.415414 -0.865111
vn -0.73591 -0.415409 -0.534669
vn -0.909637 -0.415404 -0
vn -0.735911 -0.415415 0.534664
vn -0.281084 -0.41542 0.865112
vn 0.281092 -0.415417 0.86511
vn 0.735917 -0.415414 0.534656
vn 0.909634 -0.415411 0
vn 0.808018 -0.049613 -0.587065
vn 0.735913 0.415404 -0.534669
vn 0.998769 -0.04961 -0
vn 0.909641 0.415396 0
vn 0.281104 0.415406 -0.865112
vn 0.308631 -0.049613 -0.949887
vn -0.281101 0.415408 -0.865112
vn -0.308643 -0.049613 -0.949883
vn -0.735916 0.415405 -0.534665
vn -0.808021 -0.049612 -0.58706
vn -0.909641 0.415396 -0
vn -0.998769 -0.04961 0
vn -0.735913 0.415407 0.534667
vn -0.808024 -0.049612 0.587057
vn -0.28109 0.415418 0.865111
vn -0.308634 -0.04961 0.949886
vn 0.281106 0.415417 0.865106
vn 0.308639 -0.049611 0.949885
vn 0.73591 0.415407 0.534671
vn 0.80802 -0.049612 0.587063
vt 0.375534 0.071588
vt 0.421555 0.055848
vt 0.397616 0.15997
vt 0.438414 0.141957
vt 0.002826 0.166343
vt 0.046669 0.165215
vt 0.009771 0.245692
vt 0.053214 0.244629
vt 0.08816 0.162934
vt 0.096817 0.241467
vt 0.128139 0.158865
vt 0.14037 0.236148
vt 0.166848 0.152464
vt 0.183746 0.228633
vt 0.204502 0.143212
vt 0.226857 0.218894
vt 0.241429 0.130558
vt 0.269755 0.206954
vt 0.278993 0.114328
vt 0.312527 0.192965
vt 0.317535 0.096275
vt 0.355156 0.177207
vt 0.191557 0.023878
vt 0.211195 0.02939
vt 0.19285 0.057123
vt 0.172268 0.030844
vt 0.160567 0.047871
vt 0.161124 0.068683
vt 0.173967 0.085248
vt 0.19426 0.091013
vt 0.214177 0.08336
vt 0.225292 0.065778
vt 0.224056 0.045274
vt 0.490131 0.914183
vt 0.46367 0.945768
vt 0.427852 0.889258
vt 0.42381 0.955991
vt 0.385456 0.94109
vt 0.362884 0.906554
vt 0.364657 0.865094
vt 0.390735 0.832173
vt 0.432371 0.821288
vt 0.471397 0.837344
vt 0.493205 0.8729
vt 0.354779 0.031374
vt 0.401985 0.013598
vt 0.222102 0.012793
vt 0.190885 0.003968
vt 0.006007 0.129121
vt 0.046207 0.129814
vt 0.160046 0.014932
vt 0.085783 0.12861
vt 0.141107 0.04206
vt 0.123843 0.125677
vt 0.141801 0.075523
vt 0.160184 0.120359
vt 0.162324 0.102323
vt 0.194972 0.111929
vt 0.227719 0.099084
vt 0.262484 0.079981
vt 0.244898 0.070615
vt 0.302139 0.056015
vt 0.242649 0.037989
vt 0.617988 0.647944
vt 0.640191 0.704083
vt 0.5528 0.674966
vt 0.57464 0.731901
vt 0.527427 0.92939
vt 0.532653 0.863455
vt 0.485062 0.979741
vt 0.702911 0.677583
vt 0.682705 0.617949
vt 0.421405 0.996032
vt 0.011088 0.840672
vt 0.0028 0.778427
vt 0.078847 0.836439
vt 0.073825 0.776494
vt 0.360172 0.97231
vt 0.149733 0.832234
vt 0.143983 0.771649
vt 0.323982 0.917342
vt 0.222084 0.824697
vt 0.213759 0.763685
vt 0.326217 0.851125
vt 0.294746 0.813209
vt 0.283125 0.752408
vt 0.366928 0.797399
vt 0.351828 0.737783
vt 0.435929 0.779206
vt 0.419576 0.720007
vt 0.498269 0.806212
vt 0.50626 0.757447
vt 0.486662 0.699049
usemtl Handle1SG
f 1/1/1 2/2/2 3/3/3
f 3/3/3 2/2/2 4/4/4
f 2/5/2 5/6/5 4/7/4
f 4/7/4 5/6/5 6/8/6
f 5/6/5 7/9/7 6/8/6
f 6/8/6 7/9/7 8/10/8
f 7/9/7 9/11/9 8/10/8
f 8/10/8 9/11/9 10/12/10
f 9/11/9 11/13/11 10/12/10
f 10/12/10 11/13/11 12/14/12
f 11/13/11 13/15/13 12/14/12
f 12/14/12 13/15/13 14/16/14
f 13/15/13 15/17/15 14/16/14
f 14/16/14 15/17/15 16/18/16
f 15/17/15 17/19/17 16/18/16
f 16/18/16 17/19/17 18/20/18
f 17/19/17 19/21/19 18/20/18
f 18/20/18 19/21/19 20/22/20
f 19/21/19 1/1/1 20/22/20
f 20/22/20 1/1/1 3/3/3
f 21/23/21 22/24/22 23/25/23
f 24/26/24 21/23/21 23/25/23
f 25/27/25 24/26/24 23/25/23
f 26/28/26 25/27/25 23/25/23
f 27/29/27 26/28/26 23/25/23
f 28/30/28 27/29/27 23/25/23
f 29/31/29 28/30/28 23/25/23
f 30/32/30 29/31/29 23/25/23
f 31/33/31 30/32/30 23/25/23
f 22/24/22 31/33/31 23/25/23
f 32/34/32 33/35/33 34/36/34
f 33/35/33 35/37/35 34/36/34
f 35/37/35 36/38/36 34/36/34
f 36/38/36 37/39/37 34/36/34
f 37/39/37 38/40/38 34/36/34
f 38/40/38 39/41/39 34/36/34
f 39/41/39 40/42/40 34/36/34
f 40/42/40 41/43/41 34/36/34
f 41/43/41 42/44/42 34/36/34
f 42/44/42 32/34/32 34/36/34
f 1/1/1 43/45/43 2/2/2
f 2/2/2 43/45/43 44/46/44
f 43/47/43 22/24/22 44/48/44
f 44/48/44 22/24/22 21/23/21
f 2/5/2 44/49/44 5/6/5
f 5/6/5 44/49/44 45/50/45
f 44/48/44 21/23/21 45/51/45
f 45/51/45 21/23/21 24/26/24
f 5/6/5 45/50/45 7/9/7
f 7/9/7 45/50/45 46/52/46
f 45/51/45 24/26/24 46/53/46
f 46/53/46 24/26/24 25/27/25
f 7/9/7 46/52/46 9/11/9
f 9/11/9 46/52/46 47/54/47
f 46/53/46 25/27/25 47/55/47
f 47/55/47 25/27/25 26/28/26
f 9/11/9 47/54/47 11/13/11
f 11/13/11 47/54/47 48/56/48
f 47/55/47 26/28/26 48/57/48
f 48/57/48 26/28/26 27/29/27
f 11/13/11 48/56/48 13/15/13
f 13/15/13 48/56/48 49/58/49
f 48/57/48 27/29/27 49/58/49
f 49/58/49 27/29/27 28/30/28
f 13/15/13 49/58/49 15/17/15
f 15/17/15 49/58/49 50/59/50
f 49/58/49 28/30/28 50/59/50
f 50/59/50 28/30/28 29/31/29
f 15/17/15 50/59/50 17/19/17
f 17/19/17 50/59/50 51/60/51
f 50/59/50 29/31/29 51/61/51
f 51/61/51 29/31/29 30/32/30
f 17/19/17 51/60/51 19/21/19
f 19/21/19 51/60/51 52/62/52
f 51/61/51 30/32/30 52/63/52
f 52/63/52 30/32/30 31/33/31
f 22/24/22 43/47/43 31/33/31
f 31/33/31 43/47/43 52/63/52
f 43/45/43 1/1/1 52/62/52
f 52/62/52 1/1/1 19/21/19
f 53/64/53 54/65/54 55/66/55
f 55/66/55 54/65/54 56/67/56
f 54/68/54 32/34/32 56/69/56
f 56/69/56 32/34/32 42/44/42
f 32/34/32 54/68/54 33/35/33
f 33/35/33 54/68/54 57/70/57
f 54/65/54 53/64/53 57/71/57
f 57/71/57 53/64/53 58/72/58
f 33/35/33 57/70/57 35/37/35
f 35/37/35 57/70/57 59/73/59
f 57/74/57 58/75/58 59/76/59
f 59/76/59 58/75/58 60/77/60
f 35/37/35 59/73/59 36/38/36
f 36/38/36 59/73/59 61/78/61
f 59/76/59 60/77/60 61/79/61
f 61/79/61 60/77/60 62/80/62
f 36/38/36 61/78/61 37/39/37
f 37/39/37 61/78/61 63/81/63
f 61/79/61 62/80/62 63/82/63
f 63/82/63 62/80/62 64/83/64
f 37/39/37 63/81/63 38/40/38
f 38/40/38 63/81/63 65/84/65
f 63/82/63 64/83/64 65/85/65
f 65/85/65 64/83/64 66/86/66
f 38/40/38 65/84/65 39/41/39
f 39/41/39 65/84/65 67/87/67
f 65/85/65 66/86/66 67/87/67
f 67/87/67 66/86/66 68/88/68
f 39/41/39 67/87/67 40/42/40
f 40/42/40 67/87/67 69/89/69
f 67/87/67 68/88/68 69/89/69
f 69/89/69 68/88/68 70/90/70
f 40/42/40 69/89/69 41/43/41
f 41/43/41 69/89/69 71/91/71
f 69/89/69 70/90/70 71/92/71
f 71/92/71 70/90/70 72/93/72
f 41/43/41 71/91/71 42/44/42
f 42/44/42 71/91/71 56/69/56
f 71/92/71 72/93/72 56/67/56
f 56/67/56 72/93/72 55/66/55
f 3/3/3 4/4/4 53/64/53
f 53/64/53 4/4/4 58/72/58
f 20/22/20 3/3/3 55/66/55
f 55/66/55 3/3/3 53/64/53
f 18/20/18 20/22/20 72/93/72
f 72/93/72 20/22/20 55/66/55
f 16/18/16 18/20/18 70/90/70
f 70/90/70 18/20/18 72/93/72
f 14/16/14 16/18/16 68/88/68
f 68/88/68 16/18/16 70/90/70
f 12/14/12 14/16/14 66/86/66
f 66/86/66 14/16/14 68/88/68
f 10/12/10 12/14/12 64/83/64
f 64/83/64 12/14/12 66/86/66
f 8/10/8 10/12/10 62/80/62
f 62/80/62 10/12/10 64/83/64
f 6/8/6 8/10/8 60/77/60
f 60/77/60 8/10/8 62/80/62
f 4/7/4 6/8/6 58/75/58
f 58/75/58 6/8/6 60/77/60
s off
g Takoyaki_Picks1_Picker1SG
v 0.294832 -0.980083 -0.010343
v 0.286037 -0.980083 -0.016734
v 0.317234 0.557727 -0.026619
v 0.294594 0.557727 -0.043069
v 0.27516 -0.980083 -0.016734
v 0.266603 0.557727 -0.043069
v 0.266363 -0.980083 -0.010343
v 0.243961 0.557727 -0.026619
v 0.263002 -0.980083 -2e-06
v 0.235313 0.557727 -2e-06
v 0.266363 -0.980083 0.01034
v 0.243961 0.557727 0.026616
v 0.27516 -0.980083 0.016733
v 0.266603 0.557727 0.043069
v 0.286037 -0.980083 0.016733
v 0.294594 0.557727 0.043069
v 0.294832 -0.980083 0.01034
v 0.317234 0.557727 0.026616
v 0.298193 -0.980083 -2e-06
v 0.325884 0.557727 -2e-06
v 0.285219 -1.00845 -0.014216
v 0.292688 -1.00845 -0.008787
v 0.280598 -1.01249 -2e-06
v 0.275978 -1.00845 -0.014216
v 0.268505 -1.00845 -0.008787
v 0.265656 -1.00845 -2e-06
v 0.268505 -1.00845 0.008783
v 0.275978 -1.00845 0.014212
v 0.285219 -1.00845 0.014212
v 0.292688 -1.00845 0.008783
v 0.295542 -1.00845 -2e-06
v 0.29678 -0.98772 -0.011759
v 0.296423 -0.99918 -0.0115
v 0.286781 -0.98772 -0.019024
v 0.286646 -0.99918 -0.018607
v 0.274416 -0.98772 -0.019024
v 0.274551 -0.99918 -0.018607
v 0.264414 -0.98772 -0.011759
v 0.264771 -0.99918 -0.0115
v 0.260595 -0.98772 -2e-06
v 0.261038 -0.99918 -2e-06
v 0.264414 -0.98772 0.011757
v 0.264771 -0.99918 0.011497
v 0.274416 -0.98772 0.019022
v 0.274551 -0.99918 0.018604
v 0.286781 -0.98772 0.019022
v 0.286646 -0.99918 0.018604
v 0.29678 -0.98772 0.011757
v 0.296423 -0.99918 0.011497
v 0.300602 -0.98772 -2e-06
v 0.300159 -0.99918 -2e-06
vn 0.808913 -0.016891 -0.587686
vn 0.308961 -0.016891 -0.950925
vn 0.808896 -0.018003 -0.587675
vn 0.308954 -0.018003 -0.950906
vn -0.308948 -0.016891 -0.950929
vn -0.308942 -0.018003 -0.950911
vn -0.808892 -0.016891 -0.587715
vn -0.808876 -0.018003 -0.587703
vn -0.999857 -0.016891 -0
vn -0.999838 -0.018003 0
vn -0.808918 -0.016891 0.587678
vn -0.808902 -0.018003 0.587668
vn -0.308998 -0.016892 0.950913
vn -0.30899 -0.018004 0.950895
vn 0.309011 -0.016892 0.950909
vn 0.309003 -0.018004 0.950891
vn 0.808939 -0.016891 0.58765
vn 0.808922 -0.018003 0.58764
vn 0.999857 -0.016891 -0
vn 0.999838 -0.018003 0
vn 0.233766 -0.654038 -0.719435
vn 0.612025 -0.654064 -0.444551
vn -3e-06 -1 2e-06
vn -0.233723 -0.654045 -0.719443
vn -0.612045 -0.654042 -0.444556
vn -0.756422 -0.654084 3e-06
vn -0.612042 -0.654058 0.444537
vn -0.233706 -0.654105 0.719394
vn 0.233748 -0.654098 0.719387
vn 0.612022 -0.654081 0.444531
vn 0.756436 -0.654068 -0
vn 0.805914 0.087847 -0.585478
vn 0.792449 -0.201571 -0.575668
vn 0.307794 0.087888 -0.947385
vn 0.302683 -0.201508 -0.931546
vn -0.307761 0.087899 -0.947395
vn -0.302642 -0.201512 -0.931558
vn -0.805919 0.087853 -0.585472
vn -0.792444 -0.201575 -0.575674
vn -0.996136 0.087826 2e-06
vn -0.979464 -0.201619 1e-06
vn -0.805917 0.087835 0.585477
vn -0.792456 -0.20161 0.575645
vn -0.307769 0.087844 0.947397
vn -0.302632 -0.201594 0.931544
vn 0.307803 0.087833 0.947387
vn 0.302669 -0.201591 0.931532
vn 0.805912 0.087828 0.585484
vn 0.79246 -0.201609 0.57564
vn 0.996137 0.087815 2e-06
vn 0.979465 -0.201613 -3e-06
vt 0.113531 0.977144
vt 0.106711 0.977852
vt 0.018263 0.01163
vt 0.000705 0.013461
vt 0.175149 0.974161
vt 0.16829 0.97419
vt 0.176905 0.003968
vt 0.159249 0.004035
vt 0.161432 0.974292
vt 0.141596 0.004297
vt 0.154577 0.974467
vt 0.123948 0.004756
vt 0.147727 0.974719
vt 0.106306 0.005412
vt 0.140885 0.97505
vt 0.088671 0.006264
vt 0.134041 0.975461
vt 0.071047 0.007312
vt 0.1272 0.975948
vt 0.053437 0.008555
vt 0.120362 0.97651
vt 0.035841 0.009995
vt 0.146059 0.993808
vt 0.144301 0.993888
vt 0.145052 0.99106
vt 0.147491 0.992761
vt 0.148114 0.991058
vt 0.147644 0.989236
vt 0.146081 0.987976
vt 0.143751 0.988082
vt 0.142307 0.989481
vt 0.142005 0.99134
vt 0.14278 0.992978
vt 0.113857 0.981952
vt 0.114484 0.988515
vt 0.106687 0.982604
vt 0.107469 0.989263
vt 0.143765 0.996032
vt 0.146788 0.995895
vt 0.175675 0.978904
vt 0.175608 0.985647
vt 0.168448 0.979026
vt 0.168495 0.985668
vt 0.149282 0.994129
vt 0.161456 0.979107
vt 0.161439 0.985692
vt 0.150462 0.991215
vt 0.154526 0.979181
vt 0.154371 0.985632
vt 0.149854 0.987955
vt 0.147713 0.979245
vt 0.147394 0.985267
vt 0.141328 0.979547
vt 0.142201 0.985504
vt 0.134549 0.980126
vt 0.135308 0.986502
vt 0.139988 0.988407
vt 0.127675 0.980708
vt 0.128326 0.9872
vt 0.139681 0.991712
vt 0.120787 0.981306
vt 0.121402 0.987827
vt 0.141124 0.994505
usemtl Picker1SG
f 73/94/73 74/95/74 75/96/75
f 75/96/75 74/95/74 76/97/76
f 74/98/74 77/99/77 76/100/76
f 76/100/76 77/99/77 78/101/78
f 77/99/77 79/102/79 78/101/78
f 78/101/78 79/102/79 80/103/80
f 79/102/79 81/104/81 80/103/80
f 80/103/80 81/104/81 82/105/82
f 81/104/81 83/106/83 82/105/82
f 82/105/82 83/106/83 84/107/84
f 83/106/83 85/108/85 84/107/84
f 84/107/84 85/108/85 86/109/86
f 85/108/85 87/110/87 86/109/86
f 86/109/86 87/110/87 88/111/88
f 87/110/87 89/112/89 88/111/88
f 88/111/88 89/112/89 90/113/90
f 89/112/89 91/114/91 90/113/90
f 90/113/90 91/114/91 92/115/92
f 91/114/91 73/94/73 92/115/92
f 92/115/92 73/94/73 75/96/75
f 93/116/93 94/117/94 95/118/95
f 96/119/96 93/116/93 95/118/95
f 97/120/97 96/119/96 95/118/95
f 98/121/98 97/120/97 95/118/95
f 99/122/99 98/121/98 95/118/95
f 100/123/100 99/122/99 95/118/95
f 101/124/101 100/123/100 95/118/95
f 102/125/102 101/124/101 95/118/95
f 103/126/103 102/125/102 95/118/95
f 94/117/94 103/126/103 95/118/95
f 104/127/104 105/128/105 106/129/106
f 106/129/106 105/128/105 107/130/107
f 105/131/105 94/117/94 107/132/107
f 107/132/107 94/117/94 93/116/93
f 106/133/106 107/134/107 108/135/108
f 108/135/108 107/134/107 109/136/109
f 107/132/107 93/116/93 109/137/109
f 109/137/109 93/116/93 96/119/96
f 108/135/108 109/136/109 110/138/110
f 110/138/110 109/136/109 111/139/111
f 109/137/109 96/119/96 111/140/111
f 111/140/111 96/119/96 97/120/97
f 110/138/110 111/139/111 112/141/112
f 112/141/112 111/139/111 113/142/113
f 111/140/111 97/120/97 113/143/113
f 113/143/113 97/120/97 98/121/98
f 112/141/112 113/142/113 114/144/114
f 114/144/114 113/142/113 115/145/115
f 113/143/113 98/121/98 115/145/115
f 115/145/115 98/121/98 99/122/99
f 114/144/114 115/145/115 116/146/116
f 116/146/116 115/145/115 117/147/117
f 115/145/115 99/122/99 117/147/117
f 117/147/117 99/122/99 100/123/100
f 116/146/116 117/147/117 118/148/118
f 118/148/118 117/147/117 119/149/119
f 117/147/117 100/123/100 119/150/119
f 119/150/119 100/123/100 101/124/101
f 118/148/118 119/149/119 120/151/120
f 120/151/120 119/149/119 121/152/121
f 119/150/119 101/124/101 121/153/121
f 121/153/121 101/124/101 102/125/102
f 120/151/120 121/152/121 122/154/122
f 122/154/122 121/152/121 123/155/123
f 121/153/121 102/125/102 123/156/123
f 123/156/123 102/125/102 103/126/103
f 94/117/94 105/131/105 103/126/103
f 103/126/103 105/131/105 123/156/123
f 105/128/105 104/127/104 123/155/123
f 123/155/123 104/127/104 122/154/122
f 74/95/74 73/94/73 106/129/106
f 106/129/106 73/94/73 104/127/104
f 77/99/77 74/98/74 108/135/108
f 108/135/108 74/98/74 106/133/106
f 79/102/79 77/99/77 110/138/110
f 110/138/110 77/99/77 108/135/108
f 81/104/81 79/102/79 112/141/112
f 112/141/112 79/102/79 110/138/110
f 83/106/83 81/104/81 114/144/114
f 114/144/114 81/104/81 112/141/112
f 85/108/85 83/106/83 116/146/116
f 116/146/116 83/106/83 114/144/114
f 87/110/87 85/108/85 118/148/118
f 118/148/118 85/108/85 116/146/116
f 89/112/89 87/110/87 120/151/120
f 120/151/120 87/110/87 118/148/118
f 91/114/91 89/112/89 122/154/122
f 122/154/122 89/112/89 120/151/120
f 73/94/73 91/114/91 104/127/104
f 104/127/104 91/114/91 122/154/122
s off
g Takoyaki_Picks1_Handle5SG
v -0.216162 0.315465 -0.046815
v -0.255985 0.315465 -0.075748
v -0.223238 0.40227 -0.041673
v -0.25869 0.40227 -0.067428
v -0.30521 0.315465 -0.075748
v -0.302505 0.40227 -0.067428
v -0.345032 0.315465 -0.046814
v -0.337955 0.40227 -0.041672
v -0.360241 0.315465 0
v -0.351496 0.40227 0
v -0.345032 0.315465 0.046815
v -0.337955 0.40227 0.041673
v -0.30521 0.315465 0.075747
v -0.302505 0.40227 0.067428
v -0.255985 0.315465 0.075747
v -0.25869 0.40227 0.067428
v -0.216162 0.315465 0.046814
v -0.223238 0.40227 0.041671
v -0.200953 0.315465 0
v -0.2097 0.40227 0
v -0.265829 0.260145 -0.045453
v -0.241934 0.260145 -0.02809
v -0.280598 0.260145 0
v -0.295364 0.260145 -0.045453
v -0.319262 0.260145 -0.02809
v -0.328388 0.260145 0
v -0.319262 0.260145 0.02809
v -0.295364 0.260145 0.045452
v -0.265829 0.260145 0.045452
v -0.241934 0.260145 0.02809
v -0.232807 0.260145 0
v -0.224899 1.01249 -0.040467
v -0.259323 1.01249 -0.065477
v -0.280598 1.01249 0
v -0.301872 1.01249 -0.065477
v -0.336296 1.01249 -0.040466
v -0.349445 1.01249 0
v -0.336296 1.01249 0.040466
v -0.301872 1.01249 0.065477
v -0.259323 1.01249 0.065477
v -0.224899 1.01249 0.040466
v -0.211748 1.01249 0
v -0.223709 0.276348 -0.041331
v -0.258867 0.276348 -0.066875
v -0.302326 0.276348 -0.066875
v -0.337484 0.276348 -0.04133
v -0.350914 0.276348 0
v -0.337484 0.276348 0.04133
v -0.302326 0.276348 0.066874
v -0.258867 0.276348 0.066874
v -0.223709 0.276348 0.041329
v -0.210281 0.276348 0
v -0.187775 0.932791 -0.067441
v -0.198648 0.989143 -0.059541
v -0.165863 0.932791 0
v -0.1793 0.989143 0
v -0.249292 0.989143 -0.096338
v -0.245142 0.932791 -0.10912
v -0.311901 0.989143 -0.096338
v -0.316053 0.932791 -0.10912
v -0.362545 0.989143 -0.05954
v -0.373419 0.932791 -0.06744
v -0.381893 0.989143 0
v -0.395332 0.932791 0
v -0.362545 0.989143 0.059541
v -0.373419 0.932791 0.067441
v -0.311901 0.989143 0.096335
v -0.316053 0.932791 0.10912
v -0.249292 0.989143 0.096335
v -0.245142 0.932791 0.10912
v -0.198648 0.989143 0.05954
v -0.187775 0.932791 0.06744
vn 0.809017 0.000434 -0.587785
vn 0.309023 0.000437 -0.951054
vn 0.807517 -0.060845 -0.586698
vn 0.308439 -0.060844 -0.949296
vn -0.309032 0.000437 -0.951052
vn -0.308447 -0.060845 -0.949294
vn -0.809016 0.000437 -0.587787
vn -0.80752 -0.060845 -0.586694
vn -1 0.000434 0
vn -0.998147 -0.060844 -0
vn -0.809015 0.000435 0.587787
vn -0.807523 -0.060845 0.58669
vn -0.309021 0.00043 0.951055
vn -0.308439 -0.060846 0.949296
vn 0.309033 0.000432 0.951051
vn 0.30845 -0.060845 0.949293
vn 0.809014 0.000433 0.587789
vn 0.80752 -0.060845 0.586693
vn 1 0.000429 0
vn 0.998147 -0.060844 0
vn 0.128407 -0.909577 -0.395199
vn 0.336175 -0.90958 -0.244236
vn 0 -1 0
vn -0.12841 -0.909575 -0.395201
vn -0.336174 -0.909578 -0.244244
vn -0.415527 -0.909581 -0
vn -0.336173 -0.909579 0.24424
vn -0.128407 -0.909576 0.3952
vn 0.12841 -0.909576 0.3952
vn 0.336176 -0.909578 0.24424
vn 0.415532 -0.909578 0
vn 0.336165 0.909582 -0.244239
vn 0.128395 0.909584 -0.395185
vn 0 1 0
vn -0.128406 0.909581 -0.395188
vn -0.33617 0.909581 -0.244238
vn -0.415535 0.909577 -0
vn -0.33617 0.909581 0.244237
vn -0.128401 0.909577 0.3952
vn 0.128399 0.909579 0.395197
vn 0.336164 0.909583 0.244237
vn 0.415532 0.909579 0
vn 0.735913 -0.415412 -0.534663
vn 0.281087 -0.415417 -0.865112
vn -0.281096 -0.415414 -0.865111
vn -0.73591 -0.415409 -0.534669
vn -0.909637 -0.415404 -0
vn -0.735911 -0.415415 0.534664
vn -0.281084 -0.41542 0.865112
vn 0.281092 -0.415417 0.86511
vn 0.735917 -0.415414 0.534656
vn 0.909634 -0.415411 0
vn 0.808018 -0.049613 -0.587065
vn 0.735913 0.415404 -0.534669
vn 0.998769 -0.04961 -0
vn 0.909641 0.415396 0
vn 0.281104 0.415406 -0.865112
vn 0.308631 -0.049613 -0.949887
vn -0.281101 0.415408 -0.865112
vn -0.308643 -0.049613 -0.949883
vn -0.735916 0.415405 -0.534665
vn -0.808021 -0.049612 -0.58706
vn -0.909641 0.415396 -0
vn -0.998769 -0.04961 0
vn -0.735913 0.415407 0.534667
vn -0.808024 -0.049612 0.587057
vn -0.28109 0.415418 0.865111
vn -0.308634 -0.04961 0.949886
vn 0.281106 0.415417 0.865106
vn 0.308639 -0.049611 0.949885
vn 0.73591 0.415407 0.534671
vn 0.80802 -0.049612 0.587063
vt 0.375534 0.071588
vt 0.421555 0.055848
vt 0.397616 0.15997
vt 0.438414 0.141957
vt 0.002826 0.166343
vt 0.046669 0.165215
vt 0.009771 0.245692
vt 0.053214 0.244629
vt 0.08816 0.162934
vt 0.096817 0.241467
vt 0.128139 0.158865
vt 0.14037 0.236148
vt 0.166848 0.152464
vt 0.183746 0.228633
vt 0.204502 0.143212
vt 0.226857 0.218894
vt 0.241429 0.130558
vt 0.269755 0.206954
vt 0.278993 0.114328
vt 0.312527 0.192965
vt 0.317535 0.096275
vt 0.355156 0.177207
vt 0.191557 0.023878
vt 0.211195 0.02939
vt 0.19285 0.057123
vt 0.172268 0.030844
vt 0.160567 0.047871
vt 0.161124 0.068683
vt 0.173967 0.085248
vt 0.19426 0.091013
vt 0.214177 0.08336
vt 0.225292 0.065778
vt 0.224056 0.045274
vt 0.490131 0.914183
vt 0.46367 0.945768
vt 0.427852 0.889258
vt 0.42381 0.955991
vt 0.385456 0.94109
vt 0.362884 0.906554
vt 0.364657 0.865094
vt 0.390735 0.832173
vt 0.432371 0.821288
vt 0.471397 0.837344
vt 0.493205 0.8729
vt 0.354779 0.031374
vt 0.401985 0.013598
vt 0.222102 0.012793
vt 0.190885 0.003968
vt 0.006007 0.129121
vt 0.046207 0.129814
vt 0.160046 0.014932
vt 0.085783 0.12861
vt 0.141107 0.04206
vt 0.123843 0.125677
vt 0.141801 0.075523
vt 0.160184 0.120359
vt 0.162324 0.102323
vt 0.194972 0.111929
vt 0.227719 0.099084
vt 0.262484 0.079981
vt 0.244898 0.070615
vt 0.302139 0.056015
vt 0.242649 0.037989
vt 0.617988 0.647944
vt 0.640191 0.704083
vt 0.5528 0.674966
vt 0.57464 0.731901
vt 0.527427 0.92939
vt 0.532653 0.863455
vt 0.485062 0.979741
vt 0.702911 0.677583
vt 0.682705 0.617949
vt 0.421405 0.996032
vt 0.011088 0.840672
vt 0.0028 0.778427
vt 0.078847 0.836439
vt 0.073825 0.776494
vt 0.360172 0.97231
vt 0.149733 0.832234
vt 0.143983 0.771649
vt 0.323982 0.917342
vt 0.222084 0.824697
vt 0.213759 0.763685
vt 0.326217 0.851125
vt 0.294746 0.813209
vt 0.283125 0.752408
vt 0.366928 0.797399
vt 0.351828 0.737783
vt 0.435929 0.779206
vt 0.419576 0.720007
vt 0.498269 0.806212
vt 0.50626 0.757447
vt 0.486662 0.699049
usemtl Handle5SG
f 124/157/124 125/158/125 126/159/126
f 126/159/126 125/158/125 127/160/127
f 125/161/125 128/162/128 127/163/127
f 127/163/127 128/162/128 129/164/129
f 128/162/128 130/165/130 129/164/129
f 129/164/129 130/165/130 131/166/131
f 130/165/130 132/167/132 131/166/131
f 131/166/131 132/167/132 133/168/133
f 132/167/132 134/169/134 133/168/133
f 133/168/133 134/169/134 135/170/135
f 134/169/134 136/171/136 135/170/135
f 135/170/135 136/171/136 137/172/137
f 136/171/136 138/173/138 137/172/137
f 137/172/137 138/173/138 139/174/139
f 138/173/138 140/175/140 139/174/139
f 139/174/139 140/175/140 141/176/141
f 140/175/140 142/177/142 141/176/141
f 141/176/141 142/177/142 143/178/143
f 142/177/142 124/157/124 143/178/143
f 143/178/143 124/157/124 126/159/126
f 144/179/144 145/180/145 146/181/146
f 147/182/147 144/179/144 146/181/146
f 148/183/148 147/182/147 146/181/146
f 149/184/149 148/183/148 146/181/146
f 150/185/150 149/184/149 146/181/146
f 151/186/151 150/185/150 146/181/146
f 152/187/152 151/186/151 146/181/146
f 153/188/153 152/187/152 146/181/146
f 154/189/154 153/188/153 146/181/146
f 145/180/145 154/189/154 146/181/146
f 155/190/155 156/191/156 157/192/157
f 156/191/156 158/193/158 157/192/157
f 158/193/158 159/194/159 157/192/157
f 159/194/159 160/195/160 157/192/157
f 160/195/160 161/196/161 157/192/157
f 161/196/161 162/197/162 157/192/157
f 162/197/162 163/198/163 157/192/157
f 163/198/163 164/199/164 157/192/157
f 164/199/164 165/200/165 157/192/157
f 165/200/165 155/190/155 157/192/157
f 124/157/124 166/201/166 125/158/125
f 125/158/125 166/201/166 167/202/167
f 166/203/166 145/180/145 167/204/167
f 167/204/167 145/180/145 144/179/144
f 125/161/125 167/205/167 128/162/128
f 128/162/128 167/205/167 168/206/168
f 167/204/167 144/179/144 168/207/168
f 168/207/168 144/179/144 147/182/147
f 128/162/128 168/206/168 130/165/130
f 130/165/130 168/206/168 169/208/169
f 168/207/168 147/182/147 169/209/169
f 169/209/169 147/182/147 148/183/148
f 130/165/130 169/208/169 132/167/132
f 132/167/132 169/208/169 170/210/170
f 169/209/169 148/183/148 170/211/170
f 170/211/170 148/183/148 149/184/149
f 132/167/132 170/210/170 134/169/134
f 134/169/134 170/210/170 171/212/171
f 170/211/170 149/184/149 171/213/171
f 171/213/171 149/184/149 150/185/150
f 134/169/134 171/212/171 136/171/136
f 136/171/136 171/212/171 172/214/172
f 171/213/171 150/185/150 172/214/172
f 172/214/172 150/185/150 151/186/151
f 136/171/136 172/214/172 138/173/138
f 138/173/138 172/214/172 173/215/173
f 172/214/172 151/186/151 173/215/173
f 173/215/173 151/186/151 152/187/152
f 138/173/138 173/215/173 140/175/140
f 140/175/140 173/215/173 174/216/174
f 173/215/173 152/187/152 174/217/174
f 174/217/174 152/187/152 153/188/153
f 140/175/140 174/216/174 142/177/142
f 142/177/142 174/216/174 175/218/175
f 174/217/174 153/188/153 175/219/175
f 175/219/175 153/188/153 154/189/154
f 145/180/145 166/203/166 154/189/154
f 154/189/154 166/203/166 175/219/175
f 166/201/166 124/157/124 175/218/175
f 175/218/175 124/157/124 142/177/142
f 176/220/176 177/221/177 178/222/178
f 178/222/178 177/221/177 179/223/179
f 177/224/177 155/190/155 179/225/179
f 179/225/179 155/190/155 165/200/165
f 155/190/155 177/224/177 156/191/156
f 156/191/156 177/224/177 180/226/180
f 177/221/177 176/220/176 180/227/180
f 180/227/180 176/220/176 181/228/181
f 156/191/156 180/226/180 158/193/158
f 158/193/158 180/226/180 182/229/182
f 180/230/180 181/231/181 182/232/182
f 182/232/182 181/231/181 183/233/183
f 158/193/158 182/229/182 159/194/159
f 159/194/159 182/229/182 184/234/184
f 182/232/182 183/233/183 184/235/184
f 184/235/184 183/233/183 185/236/185
f 159/194/159 184/234/184 160/195/160
f 160/195/160 184/234/184 186/237/186
f 184/235/184 185/236/185 186/238/186
f 186/238/186 185/236/185 187/239/187
f 160/195/160 186/237/186 161/196/161
f 161/196/161 186/237/186 188/240/188
f 186/238/186 187/239/187 188/241/188
f 188/241/188 187/239/187 189/242/189
f 161/196/161 188/240/188 162/197/162
f 162/197/162 188/240/188 190/243/190
f 188/241/188 189/242/189 190/243/190
f 190/243/190 189/242/189 191/244/191
f 162/197/162 190/243/190 163/198/163
f 163/198/163 190/243/190 192/245/192
f 190/243/190 191/244/191 192/245/192
f 192/245/192 191/244/191 193/246/193
f 163/198/163 192/245/192 164/199/164
f 164/199/164 192/245/192 194/247/194
f 192/245/192 193/246/193 194/248/194
f 194/248/194 193/246/193 195/249/195
f 164/199/164 194/247/194 165/200/165
f 165/200/165 194/247/194 179/225/179
f 194/248/194 195/249/195 179/223/179
f 179/223/179 195/249/195 178/222/178
f 126/159/126 127/160/127 176/220/176
f 176/220/176 127/160/127 181/228/181
f 143/178/143 126/159/126 178/222/178
f 178/222/178 126/159/126 176/220/176
f 141/176/141 143/178/143 195/249/195
f 195/249/195 143/178/143 178/222/178
f 139/174/139 141/176/141 193/246/193
f 193/246/193 141/176/141 195/249/195
f 137/172/137 139/174/139 191/244/191
f 191/244/191 139/174/139 193/246/193
f 135/170/135 137/172/137 189/242/189
f 189/242/189 137/172/137 191/244/191
f 133/168/133 135/170/135 187/239/187
f 187/239/187 135/170/135 189/242/189
f 131/166/131 133/168/133 185/236/185
f 185/236/185 133/168/133 187/239/187
f 129/164/129 131/166/131 183/233/183
f 183/233/183 131/166/131 185/236/185
f 127/163/127 129/164/129 181/231/181
f 181/231/181 129/164/129 183/233/183
s off
g Takoyaki_Picks1_Picker2SG
v -0.266365 -0.980083 -0.010343
v -0.27516 -0.980083 -0.016734
v -0.243963 0.557727 -0.026619
v -0.266603 0.557727 -0.043069
v -0.286037 -0.980083 -0.016734
v -0.294594 0.557727 -0.043069
v -0.294834 -0.980083 -0.010343
v -0.317236 0.557727 -0.026619
v -0.298195 -0.980083 -2e-06
v -0.325884 0.557727 -2e-06
v -0.294834 -0.980083 0.01034
v -0.317236 0.557727 0.026616
v -0.286037 -0.980083 0.016733
v -0.294594 0.557727 0.043069
v -0.27516 -0.980083 0.016733
v -0.266603 0.557727 0.043069
v -0.266365 -0.980083 0.01034
v -0.243963 0.557727 0.026616
v -0.263004 -0.980083 -2e-06
v -0.235313 0.557727 -2e-06
v -0.275978 -1.00845 -0.014216
v -0.268509 -1.00845 -0.008787
v -0.2806 -1.01249 -2e-06
v -0.285219 -1.00845 -0.014216
v -0.292692 -1.00845 -0.008787
v -0.295542 -1.00845 -2e-06
v -0.292692 -1.00845 0.008783
v -0.285219 -1.00845 0.014212
v -0.275978 -1.00845 0.014212
v -0.268509 -1.00845 0.008783
v -0.265656 -1.00845 -2e-06
v -0.264418 -0.98772 -0.011759
v -0.264774 -0.99918 -0.0115
v -0.274416 -0.98772 -0.019024
v -0.274551 -0.99918 -0.018607
v -0.286781 -0.98772 -0.019024
v -0.286646 -0.99918 -0.018607
v -0.296783 -0.98772 -0.011759
v -0.296427 -0.99918 -0.0115
v -0.300602 -0.98772 -2e-06
v -0.300159 -0.99918 -2e-06
v -0.296783 -0.98772 0.011757
v -0.296427 -0.99918 0.011497
v -0.286781 -0.98772 0.019022
v -0.286646 -0.99918 0.018604
v -0.274416 -0.98772 0.019022
v -0.274551 -0.99918 0.018604
v -0.264418 -0.98772 0.011757
v -0.264774 -0.99918 0.011497
v -0.260595 -0.98772 -2e-06
v -0.261038 -0.99918 -2e-06
vn 0.808913 -0.016891 -0.587686
vn 0.308961 -0.016891 -0.950925
vn 0.808896 -0.018003 -0.587675
vn 0.308954 -0.018003 -0.950906
vn -0.308948 -0.016891 -0.950929
vn -0.308942 -0.018003 -0.950911
vn -0.808892 -0.016891 -0.587715
vn -0.808876 -0.018003 -0.587703
vn -0.999857 -0.016891 -0
vn -0.999838 -0.018003 0
vn -0.808918 -0.016891 0.587678
vn -0.808902 -0.018003 0.587668
vn -0.308998 -0.016892 0.950913
vn -0.30899 -0.018004 0.950895
vn 0.309011 -0.016892 0.950909
vn 0.309003 -0.018004 0.950891
vn 0.808939 -0.016891 0.58765
vn 0.808922 -0.018003 0.58764
vn 0.999857 -0.016891 -0
vn 0.999838 -0.018003 0
vn 0.233766 -0.654038 -0.719435
vn 0.612025 -0.654064 -0.444551
vn -3e-06 -1 2e-06
vn -0.233723 -0.654045 -0.719443
vn -0.612045 -0.654042 -0.444556
vn -0.756422 -0.654084 3e-06
vn -0.612042 -0.654058 0.444537
vn -0.233706 -0.654105 0.719394
vn 0.233748 -0.654098 0.719387
vn 0.612022 -0.654081 0.444531
vn 0.756436 -0.654068 -0
vn 0.805914 0.087847 -0.585478
vn 0.792449 -0.201571 -0.575668
vn 0.307794 0.087888 -0.947385
vn 0.302683 -0.201508 -0.931546
vn -0.307761 0.087899 -0.947395
vn -0.302642 -0.201512 -0.931558
vn -0.805919 0.087853 -0.585472
vn -0.792444 -0.201575 -0.575674
vn -0.996136 0.087826 2e-06
vn -0.979464 -0.201619 1e-06
vn -0.805917 0.087835 0.585477
vn -0.792456 -0.20161 0.575645
vn -0.307769 0.087844 0.947397
vn -0.302632 -0.201594 0.931544
vn 0.307803 0.087833 0.947387
vn 0.302669 -0.201591 0.931532
vn 0.805912 0.087828 0.585484
vn 0.79246 -0.201609 0.57564
vn 0.996137 0.087815 2e-06
vn 0.979465 -0.201613 -3e-06
vt 0.113531 0.977144
vt 0.106711 0.977852
vt 0.018263 0.01163
vt 0.000705 0.013461
vt 0.175149 0.974161
vt 0.16829 0.97419
vt 0.176905 0.003968
vt 0.159249 0.004035
vt 0.161432 0.974292
vt 0.141596 0.004297
vt 0.154577 0.974467
vt 0.123948 0.004756
vt 0.147727 0.974719
vt 0.106306 0.005412
vt 0.140885 0.97505
vt 0.088671 0.006264
vt 0.134041 0.975461
vt 0.071047 0.007312
vt 0.1272 0.975948
vt 0.053437 0.008555
vt 0.120362 0.97651
vt 0.035841 0.009995
vt 0.146059 0.993808
vt 0.144301 0.993888
vt 0.145052 0.99106
vt 0.147491 0.992761
vt 0.148114 0.991058
vt 0.147644 0.989236
vt 0.146081 0.987976
vt 0.143751 0.988082
vt 0.142307 0.989481
vt 0.142005 0.99134
vt 0.14278 0.992978
vt 0.113857 0.981952
vt 0.114484 0.988515
vt 0.106687 0.982604
vt 0.107469 0.989263
vt 0.143765 0.996032
vt 0.146788 0.995895
vt 0.175675 0.978904
vt 0.175608 0.985647
vt 0.168448 0.979026
vt 0.168495 0.985668
vt 0.149282 0.994129
vt 0.161456 0.979107
vt 0.161439 0.985692
vt 0.150462 0.991215
vt 0.154526 0.979181
vt 0.154371 0.985632
vt 0.149854 0.987955
vt 0.147713 0.979245
vt 0.147394 0.985267
vt 0.141328 0.979547
vt 0.142201 0.985504
vt 0.134549 0.980126
vt 0.135308 0.986502
vt 0.139988 0.988407
vt 0.127675 0.980708
vt 0.128326 0.9872
vt 0.139681 0.991712
vt 0.120787 0.981306
vt 0.121402 0.987827
vt 0.141124 0.994505
usemtl Picker2SG
f 196/250/196 197/251/197 198/252/198
f 198/252/198 197/251/197 199/253/199
f 197/254/197 200/255/200 199/256/199
f 199/256/199 200/255/200 201/257/201
f 200/255/200 202/258/202 201/257/201
f 201/257/201 202/258/202 203/259/203
f 202/258/202 204/260/204 203/259/203
f 203/259/203 204/260/204 205/261/205
f 204/260/204 206/262/206 205/261/205
f 205/261/205 206/262/206 207/263/207
f 206/262/206 208/264/208 207/263/207
f 207/263/207 208/264/208 209/265/209
f 208/264/208 210/266/210 209/265/209
f 209/265/209 210/266/210 211/267/211
f 210/266/210 212/268/212 211/267/211
f 211/267/211 212/268/212 213/269/213
f 212/268/212 214/270/214 213/269/213
f 213/269/213 214/270/214 215/271/215
f 214/270/214 196/250/196 215/271/215
f 215/271/215 196/250/196 198/252/198
f 216/272/216 217/273/217 218/274/218
f 219/275/219 216/272/216 218/274/218
f 220/276/220 219/275/219 218/274/218
f 221/277/221 220/276/220 218/274/218
f 222/278/222 221/277/221 218/274/218
f 223/279/223 222/278/222 218/274/218
f 224/280/224 223/279/223 218/274/218
f 225/281/225 224/280/224 218/274/218
f 226/282/226 225/281/225 218/274/218
f 217/273/217 226/282/226 218/274/218
f 227/283/227 228/284/228 229/285/229
f 229/285/229 228/284/228 230/286/230
f 228/287/228 217/273/217 230/288/230
f 230/288/230 217/273/217 216/272/216
f 229/289/229 230/290/230 231/291/231
f 231/291/231 230/290/230 232/292/232
f 230/288/230 216/272/216 232/293/232
f 232/293/232 216/272/216 219/275/219
f 231/291/231 232/292/232 233/294/233
f 233/294/233 232/292/232 234/295/234
f 232/293/232 219/275/219 234/296/234
f 234/296/234 219/275/219 220/276/220
f 233/294/233 234/295/234 235/297/235
f 235/297/235 234/295/234 236/298/236
f 234/296/234 220/276/220 236/299/236
f 236/299/236 220/276/220 221/277/221
f 235/297/235 236/298/236 237/300/237
f 237/300/237 236/298/236 238/301/238
f 236/299/236 221/277/221 238/301/238
f 238/301/238 221/277/221 222/278/222
f 237/300/237 238/301/238 239/302/239
f 239/302/239 238/301/238 240/303/240
f 238/301/238 222/278/222 240/303/240
f 240/303/240 222/278/222 223/279/223
f 239/302/239 240/303/240 241/304/241
f 241/304/241 240/303/240 242/305/242
f 240/303/240 223/279/223 242/306/242
f 242/306/242 223/279/223 224/280/224
f 241/304/241 242/305/242 243/307/243
f 243/307/243 242/305/242 244/308/244
f 242/306/242 224/280/224 244/309/244
f 244/309/244 224/280/224 225/281/225
f 243/307/243 244/308/244 245/310/245
f 245/310/245 244/308/244 246/311/246
f 244/309/244 225/281/225 246/312/246
f 246/312/246 225/281/225 226/282/226
f 217/273/217 228/287/228 226/282/226
f 226/282/226 228/287/228 246/312/246
f 228/284/228 227/283/227 246/311/246
f 246/311/246 227/283/227 245/310/245
f 197/251/197 196/250/196 229/285/229
f 229/285/229 196/250/196 227/283/227
f 200/255/200 197/254/197 231/291/231
f 231/291/231 197/254/197 229/289/229
f 202/258/202 200/255/200 233/294/233
f 233/294/233 200/255/200 231/291/231
f 204/260/204 202/258/202 235/297/235
f 235/297/235 202/258/202 233/294/233
f 206/262/206 204/260/204 237/300/237
f 237/300/237 204/260/204 235/297/235
f 208/264/208 206/262/206 239/302/239
f 239/302/239 206/262/206 237/300/237
f 210/266/210 208/264/208 241/304/241
f 241/304/241 208/264/208 239/302/239
f 212/268/212 210/266/210 243/307/243
f 243/307/243 210/266/210 241/304/241
f 214/270/214 212/268/212 245/310/245
f 245/310/245 212/268/212 243/307/243
f 196/250/196 214/270/214 227/283/227
f 227/283/227 214/270/214 245/310/245
s off
