# Apple ModelIO OBJ File: Wire1
mtllib Wire1.mtl
g Wire1_Wire1SG
v 15.1099 40.277 -3.95203
v 15.0864 40.2587 -3.88152
v 15.4906 39.8031 -3.94871
v 15.4672 39.7847 -3.8782
v 15.031 40.2145 -3.85272
v 15.4119 39.7403 -3.8494
v 14.9761 40.1702 -3.88249
v 15.3571 39.6959 -3.87917
v 14.9538 40.1519 -3.9534
v 15.3349 39.6776 -3.95008
v 14.9773 40.1702 -4.0239
v 15.3584 39.6959 -4.02058
v 15.0327 40.2145 -4.05271
v 15.4137 39.7403 -4.04939
v 15.0876 40.2587 -4.02294
v 15.4684 39.7847 -4.01962
v 15.8738 39.3318 -3.94548
v 15.8505 39.3132 -3.87497
v 15.7956 39.2683 -3.84616
v 15.7412 39.2234 -3.87593
v 15.7192 39.2049 -3.94684
v 15.7424 39.2235 -4.01735
v 15.7973 39.2683 -4.04616
v 15.8517 39.3132 -4.01639
v 16.2621 38.8652 -3.94243
v 16.2392 38.8462 -3.87192
v 16.1849 38.8006 -3.84311
v 16.1312 38.7549 -3.87287
v 16.1094 38.736 -3.94377
v 16.1324 38.755 -4.01428
v 16.1866 38.8007 -4.0431
v 16.2403 38.8463 -4.01334
v 16.6578 38.4067 -3.93966
v 16.6352 38.3872 -3.86914
v 16.582 38.3404 -3.84032
v 16.5292 38.2937 -3.87007
v 16.5078 38.2744 -3.94098
v 16.5303 38.2938 -4.01149
v 16.5835 38.3406 -4.04031
v 16.6363 38.3874 -4.01056
v 17.0642 37.958 -3.93725
v 17.0423 37.9379 -3.86673
v 16.9904 37.8896 -3.8379
v 16.9389 37.8414 -3.86765
v 16.918 37.8216 -3.93855
v 16.9399 37.8417 -4.00907
v 16.9918 37.89 -4.0379
v 17.0433 37.9382 -4.00815
v 17.484 37.5228 -3.93532
v 17.4629 37.5019 -3.8648
v 17.4127 37.4518 -3.83596
v 17.3629 37.4019 -3.86571
v 17.3426 37.3814 -3.9366
v 17.3638 37.4023 -4.00712
v 17.414 37.4523 -4.03596
v 17.4638 37.5023 -4.00622
v 17.9199 37.1048 -3.934
v 17.8997 37.0829 -3.86347
v 17.8517 37.0307 -3.83463
v 17.8041 36.9787 -3.86436
v 17.7847 36.9574 -3.93525
v 17.8048 36.9792 -4.00578
v 17.8528 37.0314 -4.03462
v 17.9005 37.0834 -4.00489
v 18.3742 36.7083 -3.93339
v 18.3552 36.6854 -3.86286
v 18.31 36.6308 -3.83402
v 18.2651 36.5764 -3.86375
v 18.2467 36.5542 -3.93464
v 18.2657 36.5771 -4.00517
v 18.3109 36.6317 -4.03401
v 18.3558 36.6861 -4.00428
v 18.8492 36.3383 -3.93364
v 18.8317 36.3143 -3.86312
v 18.79 36.257 -3.83427
v 18.7483 36.2001 -3.864
v 18.7313 36.1768 -3.9349
v 18.7487 36.2009 -4.00542
v 18.7905 36.2582 -4.03427
v 18.8321 36.3151 -4.00453
v 19.3464 36.0004 -3.93488
v 19.3307 35.9752 -3.86436
v 19.293 35.9151 -3.83553
v 19.2554 35.8555 -3.86527
v 19.2399 35.8312 -3.93617
v 19.2555 35.8565 -4.00669
v 19.2932 35.9165 -4.03552
v 19.3308 35.9762 -4.00578
v 19.8662 35.7005 -3.93724
v 19.8527 35.674 -3.86673
v 19.8199 35.6111 -3.83792
v 19.7869 35.5488 -3.86768
v 19.7732 35.5234 -3.93859
v 19.7867 35.5499 -4.0091
v 19.8196 35.6128 -4.03791
v 19.8525 35.6751 -4.00815
v 20.4086 35.4439 -3.94082
v 20.3974 35.4162 -3.87033
v 20.3701 35.3508 -3.84155
v 20.3425 35.2859 -3.87135
v 20.3309 35.2596 -3.94227
v 20.342 35.2873 -4.01276
v 20.3693 35.3527 -4.04154
v 20.3969 35.4176 -4.01174
v 20.9699 35.2362 -3.94567
v 20.9615 35.2076 -3.8752
v 20.9401 35.1399 -3.84648
v 20.9184 35.0729 -3.87633
v 20.909 35.0457 -3.94726
v 20.9175 35.0743 -4.01774
v 20.9388 35.142 -4.04646
v 20.9606 35.209 -4.01661
v 21.548 35.0804 -3.95182
v 21.5423 35.051 -3.88138
v 21.5273 34.9816 -3.85272
v 21.5118 34.9129 -3.88264
v 21.5049 34.8851 -3.9536
v 21.5105 34.9145 -4.02405
v 21.5255 34.9838 -4.0527
v 21.541 35.0525 -4.02279
v 22.1421 34.9759 -3.9592
v 22.139 34.9461 -3.88878
v 22.13 34.8757 -3.8602
v 22.1202 34.8059 -3.89019
v 22.1155 34.7777 -3.96118
v 22.1186 34.8076 -4.03159
v 22.1277 34.878 -4.06017
v 22.1374 34.9477 -4.03019
v 22.745 34.9172 -3.9673
v 22.744 34.8871 -3.89691
v 22.7399 34.8162 -3.8684
v 22.7351 34.746 -3.89845
v 22.7323 34.7176 -3.96947
v 22.7332 34.7476 -4.03985
v 22.7373 34.8185 -4.06837
v 22.7422 34.8888 -4.03831
v 23.3515 34.8968 -3.97563
v 23.3523 34.8667 -3.90527
v 23.3523 34.7957 -3.87681
v 23.3515 34.7253 -3.90691
v 23.3504 34.6969 -3.97795
v 23.3496 34.727 -4.04831
v 23.3496 34.798 -4.07677
v 23.3504 34.8684 -4.04667
v 23.9582 34.9087 -3.98376
v 23.9604 34.8786 -3.91342
v 23.9638 34.8076 -3.885
v 23.9665 34.7373 -3.91516
v 23.9668 34.7089 -3.98622
v 23.9646 34.739 -4.05655
v 23.9611 34.81 -4.08497
v 23.9585 34.8802 -4.05482
v 24.5653 34.9475 -3.99136
v 24.5687 34.9175 -3.92103
v 24.5749 34.8467 -3.89265
v 24.5805 34.7766 -3.92284
v 24.582 34.7482 -3.99392
v 24.5786 34.7783 -4.06424
v 24.5724 34.8491 -4.09262
v 24.5668 34.9192 -4.06243
v 25.1711 35.0091 -3.99808
v 25.1753 34.9791 -3.92776
v 25.184 34.9086 -3.89941
v 25.1919 34.8387 -3.92963
v 25.1946 34.8105 -4.00071
v 25.1903 34.8404 -4.07103
v 25.1817 34.9109 -4.09938
v 25.1737 34.9808 -4.06917
v 25.7751 35.0897 -4.0036
v 25.7801 35.0599 -3.93329
v 25.7907 34.9896 -3.90496
v 25.8008 34.92 -3.93519
v 25.8044 34.8918 -4.00629
v 25.7994 34.9217 -4.07659
v 25.7888 34.992 -4.10493
v 25.7787 35.0616 -4.0747
v 26.3774 35.1864 -4.00758
v 26.3828 35.1566 -3.93727
v 26.3951 35.0866 -3.90894
v 26.4069 35.0173 -3.93919
v 26.4113 34.9893 -4.01029
v 26.4059 35.019 -4.0806
v 26.3936 35.0891 -4.10892
v 26.3818 35.1584 -4.07868
v 26.9777 35.2964 -4.00962
v 26.9835 35.2667 -3.93932
v 26.9971 35.1969 -3.911
v 27.0104 35.1279 -3.94125
v 27.0156 35.1 -4.01235
v 27.0098 35.1297 -4.08265
v 26.9963 35.1995 -4.11098
v 26.983 35.2685 -4.08072
v 27.5763 35.4173 -4.00929
v 27.5824 35.3877 -3.93898
v 27.5969 35.3181 -3.91066
v 27.6114 35.2493 -3.94091
v 27.6175 35.2216 -4.01201
v 27.6114 35.2512 -4.08232
v 27.5969 35.3208 -4.11064
v 27.5824 35.3896 -4.08039
v 28.1738 35.5468 -4.00601
v 28.1798 35.5172 -3.9357
v 28.195 35.4478 -3.90738
v 28.2106 35.3792 -3.93762
v 28.2173 35.3517 -4.00873
v 28.2113 35.3813 -4.07903
v 28.196 35.4508 -4.10736
v 28.1805 35.5193 -4.07711
v 28.7706 35.6827 -3.99905
v 28.7764 35.653 -3.92875
v 28.792 35.5836 -3.90042
v 28.8083 35.5152 -3.93065
v 28.8157 35.4879 -4.00174
v 28.8099 35.5175 -4.07204
v 28.7943 35.5869 -4.10038
v 28.778 35.6553 -4.07014
v 29.3659 35.8217 -3.9874
v 29.3712 35.7919 -3.91711
v 29.3867 35.7226 -3.88878
v 29.4035 35.6543 -3.91901
v 29.4116 35.6271 -3.99009
v 29.4063 35.6569 -4.06038
v 29.3907 35.7262 -4.08871
v 29.374 35.7945 -4.05848
v 29.9623 35.9611 -3.96953
v 29.9667 35.9311 -3.89926
v 29.9817 35.8616 -3.87095
v 29.9986 35.7933 -3.90118
v 30.0075 35.7663 -3.97223
v 30.0031 35.7963 -4.04249
v 29.988 35.8658 -4.07081
v 29.9712 35.9341 -4.04058
v 30.5602 36.0957 -3.94301
v 30.5631 36.0653 -3.87281
v 30.5767 35.9955 -3.84456
v 30.5932 35.9272 -3.87481
v 30.6028 35.9003 -3.94583
v 30.5999 35.9307 -4.01602
v 30.5863 36.0005 -4.04427
v 30.5698 36.0689 -4.01403
v 31.1607 36.2203 -3.90559
v 31.1617 36.1896 -3.83551
v 31.1736 36.1194 -3.80737
v 31.1892 36.0509 -3.83766
v 31.1995 36.0241 -3.90864
v 31.1984 36.0549 -3.97873
v 31.1866 36.1251 -4.00686
v 31.171 36.1936 -3.97657
v 31.7634 36.3317 -3.85813
v 31.7628 36.3007 -3.78818
v 31.7725 36.2301 -3.7602
v 31.7869 36.1614 -3.79059
v 31.7975 36.1347 -3.86154
v 31.7982 36.1658 -3.93149
v 31.7884 36.2363 -3.95947
v 31.774 36.3051 -3.92908
v 32.3692 36.4265 -3.80427
v 32.3673 36.3953 -3.73443
v 32.3747 36.3243 -3.70666
v 32.3871 36.2553 -3.73722
v 32.3972 36.2285 -3.80822
v 32.3991 36.2598 -3.87806
v 32.3917 36.3307 -3.90583
v 32.3793 36.3998 -3.87526
v 33.0052 36.4553 -3.70804
v 33.0114 36.4244 -3.6376
v 33.02 36.3533 -3.60975
v 33.0259 36.2836 -3.64079
v 33.0257 36.2562 -3.71255
v 33.0195 36.2871 -3.78302
v 33.0109 36.3582 -3.8109
v 33.005 36.4279 -3.77984
v 33.6328 36.3777 -3.63059
v 33.6475 36.3472 -3.56148
v 33.6574 36.2761 -3.53432
v 33.6566 36.2061 -3.565
v 33.6457 36.1781 -3.63556
v 33.631 36.2086 -3.70469
v 33.6212 36.2797 -3.73189
v 33.6219 36.3497 -3.70119
v 34.2286 36.1776 -3.64541
v 34.258 36.1467 -3.58109
v 34.2727 36.0754 -3.55608
v 34.2638 36.0054 -3.585
v 34.2368 35.9777 -3.65091
v 34.2073 36.0086 -3.71525
v 34.1927 36.08 -3.7403
v 34.2015 36.15 -3.71137
v 34.7789 36.0034 -3.82189
v 34.8216 35.9721 -3.76575
v 34.8404 35.9006 -3.74413
v 34.8241 35.8308 -3.76969
v 34.7823 35.8035 -3.82745
v 34.7396 35.8347 -3.88359
v 34.7208 35.9063 -3.90523
v 34.7371 35.9761 -3.87967
v 35.2046 36.0029 -4.17197
v 35.2591 35.9715 -4.1271
v 35.2818 35.9 -4.11004
v 35.2593 35.8302 -4.13079
v 35.2049 35.803 -4.17718
v 35.1504 35.8344 -4.22204
v 35.1277 35.906 -4.2391
v 35.1502 35.9757 -4.21836
v 35.5731 36.0573 -4.60827
v 35.51 36.0882 -4.63926
v 35.5985 35.9859 -4.59659
v 35.5715 35.9159 -4.61107
v 35.5078 35.8884 -4.6432
v 35.4447 35.9193 -4.67416
v 35.4193 35.9907 -4.68582
v 35.4463 36.0607 -4.67137
v 35.7322 36.1513 -5.15481
v 35.6638 36.1819 -5.17049
v 35.7595 36.0801 -5.14905
v 35.7298 36.01 -5.1566
v 35.6603 35.9821 -5.17302
v 35.5918 36.0127 -5.18866
v 35.5645 36.084 -5.19439
v 35.5943 36.1541 -5.18687
v 35.759 36.2606 -5.72645
v 35.6889 36.2909 -5.72591
v 35.7869 36.1895 -5.72689
v 35.7563 36.1192 -5.72701
v 35.685 36.091 -5.7267
v 35.6148 36.1212 -5.72611
v 35.5869 36.1923 -5.72561
v 35.6176 36.2626 -5.72555
v 35.6957 36.3484 -6.31575
v 35.6265 36.3788 -6.29945
v 35.7232 36.2773 -6.32239
v 35.6929 36.207 -6.31549
v 35.6225 36.1788 -6.29907
v 35.5533 36.2092 -6.28272
v 35.5258 36.2803 -6.27605
v 35.5561 36.3506 -6.28299
v 35.5036 36.3957 -6.87105
v 35.4391 36.4263 -6.84005
v 35.5292 36.3245 -6.88345
v 35.501 36.2544 -6.87
v 35.4354 36.2263 -6.83856
v 35.3709 36.2569 -6.80755
v 35.3453 36.3281 -6.79514
v 35.3735 36.3983 -6.8086
v 35.1763 36.3911 -7.33398
v 35.1207 36.4218 -7.29062
v 35.1985 36.3198 -7.35125
v 35.1742 36.2497 -7.3323
v 35.1176 36.2218 -7.28825
v 35.062 36.2525 -7.24492
v 35.0398 36.3237 -7.22768
v 35.0641 36.3939 -7.24659
v 34.7393 36.3775 -7.63962
v 34.6965 36.4081 -7.58796
v 34.7564 36.3062 -7.66019
v 34.7377 36.2361 -7.63758
v 34.6943 36.2082 -7.58508
v 34.6515 36.2388 -7.53351
v 34.6344 36.3101 -7.51301
v 34.6531 36.3802 -7.53553
v 34.246 36.3775 -7.75125
v 34.224 36.4081 -7.69605
v 34.2547 36.3062 -7.77324
v 34.2452 36.2361 -7.74911
v 34.2229 36.2081 -7.69303
v 34.2009 36.2388 -7.63789
v 34.1922 36.31 -7.61595
v 34.2017 36.3802 -7.64002
v 33.7261 36.3776 -7.79252
v 33.7261 36.4082 -7.73709
v 33.7261 36.3063 -7.8146
v 33.7261 36.2362 -7.79041
v 33.7261 36.2083 -7.73412
v 33.7261 36.2389 -7.6787
v 33.7261 36.3102 -7.65661
v 33.7261 36.3803 -7.6808
vn 0.779524 0.626335 0.006829
vn 0.544903 0.442774 0.712062
vn 0.777725 0.628567 0.00683
vn 0.543459 0.444132 0.71232
vn -0.008985 -0.000216 0.99996
vn -0.009342 -0.000624 0.999956
vn -0.557496 -0.442992 0.702108
vn -0.556386 -0.444784 0.701856
vn -0.779523 -0.626336 -0.006831
vn -0.777725 -0.628568 -0.006806
vn -0.545148 -0.442966 -0.711755
vn -0.544128 -0.444667 -0.711474
vn 0.008504 -0.000169 -0.999964
vn 0.008034 -0.000435 -0.999968
vn 0.557269 0.442804 -0.702408
vn 0.555764 0.444274 -0.702671
vn 0.772247 0.635286 0.006817
vn 0.539366 0.448446 0.712727
vn -0.009823 -0.001387 0.999951
vn -0.552704 -0.44995 0.701472
vn -0.772247 -0.635286 -0.006727
vn -0.540718 -0.449551 -0.711005
vn 0.007208 -0.000769 -0.999974
vn 0.55146 0.448915 -0.703112
vn 0.762856 0.646533 0.006765
vn 0.532586 0.455837 0.713137
vn -0.010188 -0.002341 0.999945
vn -0.546166 -0.458446 0.701092
vn -0.762853 -0.646538 -0.006621
vn -0.534634 -0.457563 -0.710495
vn 0.006246 -0.00101 -0.99998
vn 0.544291 0.456832 -0.7036
vn 0.749121 0.662399 0.006694
vn 0.522829 0.466351 0.713559
vn -0.010424 -0.003513 0.99994
vn -0.536468 -0.470347 0.700696
vn -0.749116 -0.662407 -0.006502
vn -0.525576 -0.468772 -0.709946
vn 0.005133 -0.001178 -0.999986
vn 0.533944 0.468082 -0.704133
vn 0.730462 0.682921 0.006636
vn 0.509697 0.479997 0.714011
vn -0.010512 -0.004936 0.999933
vn -0.523191 -0.485698 0.700263
vn -0.730457 -0.682929 -0.006359
vn -0.513158 -0.483227 -0.709338
vn 0.003864 -0.001297 -0.999992
vn 0.520006 0.482684 -0.704705
vn 0.706083 0.708099 0.006556
vn 0.49266 0.496771 0.714496
vn -0.010411 -0.006639 0.999924
vn -0.505725 -0.504502 0.6998
vn -0.706074 -0.708111 -0.006203
vn -0.496817 -0.500941 -0.708682
vn 0.00242 -0.0014 -0.999996
vn 0.501897 0.500618 -0.705324
vn 0.675029 0.737763 0.006512
vn 0.471074 0.516535 0.715039
vn -0.010056 -0.008634 0.999912
vn -0.48336 -0.526639 0.699296
vn -0.675014 -0.73778 -0.006076
vn -0.475873 -0.521796 -0.708007
vn 0.000804 -0.001512 -0.999999
vn 0.47893 0.521747 -0.705979
vn 0.636222 0.771478 0.00653
vn 0.444222 0.538982 0.715658
vn -0.009362 -0.010915 0.999897
vn -0.455315 -0.551827 0.698695
vn -0.636202 -0.771499 -0.005991
vn -0.449577 -0.545516 -0.707313
vn -0.000967 -0.001655 -0.999998
vn 0.45036 0.54577 -0.706619
vn 0.588596 0.808401 0.006585
vn 0.411422 0.563552 0.716338
vn -0.008232 -0.013448 0.999876
vn -0.420768 -0.579432 0.698006
vn -0.588571 -0.808423 -0.005994
vn -0.417165 -0.571515 -0.706643
vn -0.002858 -0.001841 -0.999994
vn 0.415432 0.572066 -0.707218
vn 0.531323 0.847142 0.006753
vn 0.372149 0.589322 0.717081
vn -0.006554 -0.01613 0.999848
vn -0.379051 -0.608378 0.697277
vn -0.531297 -0.847163 -0.006107
vn -0.378011 -0.598794 -0.706083
vn -0.004815 -0.002064 -0.999986
vn 0.37357 0.599634 -0.707732
vn 0.464122 0.885743 0.007092
vn 0.326247 0.615003 0.717867
vn -0.004234 -0.018785 0.999815
vn -0.329943 -0.637213 0.696489
vn -0.464095 -0.885763 -0.006343
vn -0.331893 -0.625978 -0.70569
vn -0.00676 -0.002271 -0.999975
vn 0.324619 0.62711 -0.708065
vn 0.387765 0.921727 0.007619
vn 0.274276 0.639 0.718646
vn -0.001251 -0.021164 0.999775
vn -0.273983 -0.664055 0.695676
vn -0.38774 -0.921744 -0.006821
vn -0.279309 -0.65126 -0.705583
vn -0.008624 -0.002371 -0.99996
vn 0.269172 0.652779 -0.708115
vn 0.30401 0.952632 0.008369
vn 0.217421 0.659697 0.719394
vn 0.002316 -0.023018 0.999732
vn -0.212467 -0.68701 0.694892
vn -0.303998 -0.952643 -0.007542
vn -0.22148 -0.672866 -0.705832
vn -0.010371 -0.002257 -0.999944
vn 0.208494 0.674919 -0.707824
vn 0.216866 0.976157 0.009261
vn 0.158359 0.675784 0.719888
vn 0.006228 -0.02379 0.999698
vn -0.14839 -0.704172 0.694351
vn -0.216896 -0.976158 -0.008477
vn -0.161176 -0.688982 -0.70663
vn -0.011899 -0.001557 -0.999928
vn 0.145509 0.692039 -0.707043
vn 0.135247 0.99076 0.010146
vn 0.102939 0.686685 0.71963
vn 0.009805 -0.022614 0.999696
vn -0.088459 -0.714074 0.694459
vn -0.135299 -0.990758 -0.009613
vn -0.10442 -0.698169 -0.708277
vn -0.012894 0.000448 -0.999917
vn 0.086799 0.703393 -0.705481
vn 0.065438 0.997796 0.010979
vn 0.055078 0.692516 0.719297
vn 0.012188 -0.020952 0.999706
vn -0.037602 -0.718326 0.69469
vn -0.065475 -0.997797 -0.010675
vn -0.055617 -0.702053 -0.70995
vn -0.013446 0.00242 -0.999907
vn 0.036844 0.709308 -0.703935
vn 0.007162 0.999906 0.01168
vn 0.014618 0.694814 0.719041
vn 0.013414 -0.019446 0.999721
vn 0.004368 -0.719126 0.694866
vn -0.007187 -0.999907 -0.011557
vn -0.014596 -0.702698 -0.711339
vn -0.013553 0.003987 -0.9999
vn -0.004554 0.711512 -0.702659
vn -0.041548 0.999062 0.012231
vn -0.019696 0.694909 0.718828
vn 0.013707 -0.018184 0.999741
vn 0.038964 -0.717948 0.695005
vn 0.04153 -0.999061 -0.012311
vn 0.020031 -0.701409 -0.712478
vn -0.013189 0.005258 -0.999899
vn -0.038799 0.711505 -0.701609
vn -0.082316 0.996526 0.012637
vn -0.048918 0.693663 0.718636
vn 0.013222 -0.017194 0.999765
vn 0.067425 -0.715721 0.695124
vn 0.082299 -0.996524 -0.012927
vn 0.049408 -0.699 -0.713413
vn -0.012339 0.00634 -0.999904
vn -0.067049 0.710223 -0.700777
vn -0.116562 0.993099 0.012941
vn -0.073998 0.691615 0.718465
vn 0.012046 -0.016459 0.999792
vn 0.090808 -0.71301 0.695248
vn 0.116547 -0.993095 -0.013415
vn 0.074547 -0.695994 -0.714168
vn -0.010985 0.007339 -0.999913
vn -0.090311 0.708278 -0.700133
vn -0.145301 0.989301 0.013098
vn -0.09564 0.689165 0.718265
vn 0.010213 -0.01597 0.99982
vn 0.109847 -0.710174 0.695404
vn 0.145289 -0.989293 -0.013763
vn 0.096182 -0.692716 -0.714768
vn -0.009097 0.008325 -0.999924
vn -0.109286 0.706084 -0.699644
vn -0.169309 0.985475 0.013164
vn -0.114404 0.686547 0.718028
vn 0.007705 -0.015725 0.999847
vn 0.125073 -0.70748 0.695578
vn 0.169298 -0.985465 -0.014007
vn 0.114894 -0.689351 -0.715259
vn -0.006619 0.009373 -0.999934
vn -0.124486 0.703925 -0.69928
vn -0.189105 0.981869 0.013136
vn -0.130711 0.683926 0.717747
vn 0.004456 -0.015733 0.999866
vn 0.136807 -0.705111 0.695775
vn 0.189099 -0.981856 -0.014176
vn 0.131117 -0.686035 -0.715656
vn -0.003461 0.010548 -0.999938
vn -0.136221 0.702033 -0.698994
vn -0.204989 0.978678 0.012975
vn -0.144875 0.681465 0.717368
vn 0.00033 -0.015994 0.999872
vn 0.145164 -0.703226 0.695989
vn 0.204988 -0.97866 -0.014288
vn 0.14516 -0.682858 -0.715984
vn 0.000519 0.011922 -0.999929
vn -0.144601 0.700569 -0.69878
vn -0.217005 0.976088 0.012732
vn -0.157076 0.679227 0.716923
vn -0.004897 -0.016538 0.999851
vn 0.150017 -0.701988 0.696209
vn 0.217012 -0.976063 -0.01442
vn 0.15721 -0.679859 -0.716294
vn 0.005547 0.013603 -0.999892
vn -0.149496 0.69972 -0.698601
vn -0.224861 0.974312 0.012391
vn -0.16737 0.677345 0.716374
vn -0.011593 -0.017391 0.999782
vn 0.150908 -0.701584 0.696424
vn 0.224885 -0.974276 -0.014592
vn 0.167313 -0.677087 -0.716631
vn 0.011974 0.01574 -0.999804
vn -0.150447 0.699713 -0.698403
vn -0.227773 0.973641 0.011966
vn -0.17567 0.676035 0.715623
vn -0.020411 -0.0186 0.999619
vn 0.14683 -0.702294 0.696581
vn 0.227835 -0.973586 -0.014905
vn 0.175367 -0.674585 -0.717065
vn 0.020423 0.018558 -0.999619
vn -0.146458 0.700876 -0.698086
vn -0.223982 0.974526 0.011485
vn -0.181531 0.675576 0.714593
vn -0.032496 -0.020209 0.999268
vn 0.135751 -0.704574 0.696525
vn 0.224123 -0.974436 -0.015629
vn 0.180922 -0.672369 -0.717765
vn 0.031987 0.022464 -0.999236
vn -0.13551 0.703715 -0.69744
vn -0.211978 0.977206 0.011518
vn -0.184258 0.675884 0.713603
vn -0.048405 -0.022486 0.998575
vn 0.116142 -0.708598 0.695988
vn 0.212234 -0.977076 -0.016727
vn 0.183444 -0.67087 -0.718527
vn 0.047392 0.027193 -0.998506
vn -0.116083 0.708409 -0.696191
vn -0.193363 0.981043 0.012889
vn -0.183023 0.676418 0.713415
vn -0.065413 -0.025276 0.997538
vn 0.090925 -0.713363 0.694871
vn 0.193679 -0.980905 -0.017705
vn 0.182311 -0.670813 -0.718869
vn 0.064204 0.031413 -0.997442
vn -0.091104 0.714034 -0.694158
vn -0.169479 0.98541 0.015643
vn -0.175532 0.677757 0.714027
vn -0.078959 -0.026912 0.996514
vn 0.064274 -0.717419 0.693671
vn 0.169726 -0.985314 -0.018721
vn 0.175033 -0.672129 -0.719449
vn 0.077609 0.034783 -0.996377
vn -0.064871 0.719736 -0.691211
vn -0.101196 0.994735 0.01619
vn -0.153189 0.687957 0.709401
vn -0.117463 -0.021506 0.992844
vn -0.012604 -0.7234 0.690314
vn 0.101905 -0.994357 -0.029479
vn 0.155564 -0.666259 -0.729314
vn 0.115734 0.049702 -0.992036
vn 0.009185 0.730539 -0.682809
vn 0.031497 0.999207 0.024362
vn -0.067989 0.6936 0.717145
vn -0.130973 -0.016109 0.991255
vn -0.124357 -0.707173 0.696019
vn -0.04049 -0.999126 -0.010422
vn 0.079075 -0.677873 -0.730914
vn 0.144596 0.057904 -0.987795
vn 0.118568 0.73458 -0.668083
vn 0.208222 0.978056 -0.007044
vn 0.122426 0.699789 0.70378
vn -0.034349 -0.006324 0.99939
vn -0.180564 -0.666502 0.723306
vn -0.231239 -0.970992 0.060859
vn -0.118493 -0.699195 -0.705043
vn 0.081259 0.05294 -0.995286
vn 0.198118 0.710604 -0.675123
vn 0.292773 0.954322 -0.059616
vn 0.316744 0.678131 0.663183
vn 0.172331 -0.02494 0.984723
vn -0.067856 -0.664218 0.744452
vn -0.288273 -0.947227 0.140216
vn -0.348452 -0.716083 -0.604819
vn -0.145599 0.018633 -0.989168
vn 0.124585 0.690033 -0.712975
vn 0.17066 0.985267 -0.011133
vn 0.439323 0.648788 0.621345
vn 0.473703 -0.052177 0.879138
vn 0.249749 -0.712188 0.656059
vn -0.121535 -0.987549 0.099881
vn -0.431798 -0.733359 -0.525105
vn -0.475055 -0.018489 -0.879762
vn -0.205809 0.725489 -0.656741
vn 0.00927 0.993688 0.111795
vn 0.529386 0.658201 0.535278
vn 0.749873 -0.033708 0.660722
vn 0.556279 -0.714147 0.424909
vn 0.052828 -0.997245 -0.052073
vn -0.479243 -0.7184 -0.504211
vn -0.744009 -0.002049 -0.668167
vn -0.538502 0.739975 -0.403054
vn 0.62674 0.66949 0.398724
vn -0.009818 0.985663 0.168441
vn 0.909165 -0.018267 0.416035
vn 0.688677 -0.696701 0.200829
vn 0.086645 -0.986912 -0.136006
vn -0.579461 -0.710751 -0.398822
vn -0.910786 0.016615 -0.412544
vn -0.657703 0.735352 -0.163351
vn 0.702421 0.67246 0.233244
vn 0.014222 0.983127 0.182372
vn 0.98659 -0.021083 0.161851
vn 0.719089 -0.694917 -0.001617
vn 0.054751 -0.983296 -0.173581
vn -0.661812 -0.708322 -0.245531
vn -0.987752 0.016064 -0.155202
vn -0.689031 0.724142 0.02922
vn 0.72603 0.681788 0.089695
vn 0.039094 0.985063 0.1677
vn 0.999374 -0.014425 -0.032308
vn 0.703586 -0.697143 -0.13769
vn 0.01052 -0.985078 -0.171788
vn -0.705852 -0.701004 -0.101816
vn -0.998872 0.023865 0.041045
vn -0.672189 0.724207 0.1539
vn 0.723586 0.685049 -0.084446
vn 0.069514 0.992297 0.102545
vn 0.975864 -0.010556 -0.218124
vn 0.67654 -0.69958 -0.22996
vn -0.006258 -0.99297 -0.118198
vn -0.70182 -0.709085 0.068175
vn -0.974099 0.028715 0.224292
vn -0.630723 0.739319 0.235791
vn 0.657718 0.687431 -0.307972
vn 0.061663 0.998052 0.009442
vn 0.891307 -0.007246 -0.453342
vn 0.62609 -0.698094 -0.347385
vn 0.006513 -0.998863 -0.047219
vn -0.634374 -0.715858 0.291747
vn -0.888945 0.031874 0.456904
vn -0.576825 0.748077 0.328108
vn 0.519944 0.669089 -0.531017
vn 0.031891 0.9975 -0.06306
vn 0.712914 -0.0162 -0.701065
vn 0.517277 -0.694673 -0.499854
vn 0.026978 -0.999581 -0.010473
vn -0.488502 -0.712819 0.503244
vn -0.707033 0.021971 0.706839
vn -0.485261 0.742764 0.461328
vn 0.309188 0.634206 -0.70865
vn 0.008134 0.996217 -0.086522
vn 0.420657 -0.020114 -0.906997
vn 0.312044 -0.669165 -0.674424
vn 0.011294 -0.999556 -0.027559
vn -0.292442 -0.68597 0.666275
vn -0.405328 0.015169 0.914045
vn -0.299228 0.714673 0.632222
vn 0.118824 0.608196 -0.784843
vn 0.003322 0.998426 -0.055979
vn 0.152165 -0.01545 -0.988234
vn 0.11508 -0.636958 -0.762261
vn -0.003979 -0.999945 -0.009693
vn -0.119441 -0.634056 0.764007
vn -0.152321 0.016086 0.9882
vn -0.115601 0.663461 0.739227
vn 0.063752 0.59524 -0.801015
vn 0.004355 0.998225 -0.0594
vn 0.078589 -0.014732 -0.996798
vn 0.061752 -0.623837 -0.779111
vn -0.000156 -0.999934 -0.011474
vn -0.067002 -0.624347 0.778268
vn -0.086199 0.015647 0.996155
vn -0.064438 0.653936 0.753801
vt 0 0
vt 0.002737 0
vt 0 0.02174
vt 0.002737 0.02174
vt 0.005474 0
vt 0.005474 0.02174
vt 0.008211 0
vt 0.008211 0.02174
vt 0.010948 0
vt 0.010948 0.02174
vt 0.013685 0
vt 0.013685 0.02174
vt 0.016422 0
vt 0.016422 0.02174
vt 0.019159 0
vt 0.019159 0.02174
vt 0.021896 0
vt 0.021896 0.02174
vt 0 0.043463
vt 0.002737 0.043463
vt 0.005474 0.043463
vt 0.008211 0.043463
vt 0.010948 0.043463
vt 0.013685 0.043463
vt 0.016422 0.043463
vt 0.019159 0.043463
vt 0.021896 0.043463
vt 0 0.065172
vt 0.002737 0.065172
vt 0.005474 0.065172
vt 0.008211 0.065172
vt 0.010948 0.065172
vt 0.013685 0.065172
vt 0.016422 0.065172
vt 0.019159 0.065172
vt 0.021896 0.065172
vt 0 0.086829
vt 0.002737 0.086829
vt 0.005474 0.086829
vt 0.008211 0.086829
vt 0.010948 0.086829
vt 0.013685 0.086829
vt 0.016422 0.086829
vt 0.019159 0.086829
vt 0.021896 0.086829
vt 0 0.10848
vt 0.002737 0.10848
vt 0.005474 0.10848
vt 0.008211 0.10848
vt 0.010948 0.10848
vt 0.013685 0.10848
vt 0.016422 0.10848
vt 0.019159 0.10848
vt 0.021896 0.10848
vt 0 0.130104
vt 0.002737 0.130104
vt 0.005474 0.130104
vt 0.008211 0.130104
vt 0.010948 0.130104
vt 0.013685 0.130104
vt 0.016422 0.130104
vt 0.019159 0.130104
vt 0.021896 0.130104
vt 0 0.1517
vt 0.002737 0.1517
vt 0.005474 0.1517
vt 0.008211 0.1517
vt 0.010948 0.1517
vt 0.013685 0.1517
vt 0.016422 0.1517
vt 0.019159 0.1517
vt 0.021896 0.1517
vt 0 0.173264
vt 0.002737 0.173264
vt 0.005474 0.173264
vt 0.008211 0.173264
vt 0.010948 0.173264
vt 0.013685 0.173264
vt 0.016422 0.173264
vt 0.019159 0.173264
vt 0.021896 0.173264
vt 0 0.194795
vt 0.002737 0.194795
vt 0.005474 0.194795
vt 0.008211 0.194795
vt 0.010948 0.194795
vt 0.013685 0.194795
vt 0.016422 0.194795
vt 0.019159 0.194795
vt 0.021896 0.194795
vt 0 0.216291
vt 0.002737 0.216291
vt 0.005474 0.216291
vt 0.008211 0.216291
vt 0.010948 0.216291
vt 0.013685 0.216291
vt 0.016422 0.216291
vt 0.019159 0.216291
vt 0.021896 0.216291
vt 0 0.237756
vt 0.002737 0.237756
vt 0.005474 0.237756
vt 0.008211 0.237756
vt 0.010948 0.237756
vt 0.013685 0.237756
vt 0.016422 0.237756
vt 0.019159 0.237756
vt 0.021896 0.237756
vt 0 0.259211
vt 0.002737 0.259211
vt 0.005474 0.259211
vt 0.008211 0.259211
vt 0.010948 0.259211
vt 0.013685 0.259211
vt 0.016422 0.259211
vt 0.019159 0.259211
vt 0.021896 0.259211
vt 0 0.280616
vt 0.002737 0.280616
vt 0.005474 0.280616
vt 0.008211 0.280616
vt 0.010948 0.280616
vt 0.013685 0.280616
vt 0.016422 0.280616
vt 0.019159 0.280616
vt 0.021896 0.280616
vt 0 0.302029
vt 0.002737 0.302029
vt 0.005474 0.302029
vt 0.008211 0.302029
vt 0.010948 0.302029
vt 0.013685 0.302029
vt 0.016422 0.302029
vt 0.019159 0.302029
vt 0.021896 0.302029
vt 0 0.323601
vt 0.002737 0.323601
vt 0.005474 0.323601
vt 0.008211 0.323601
vt 0.010948 0.323601
vt 0.013685 0.323601
vt 0.016422 0.323601
vt 0.019159 0.323601
vt 0.021896 0.323601
vt 0 0.345265
vt 0.002737 0.345265
vt 0.005474 0.345265
vt 0.008211 0.345265
vt 0.010948 0.345265
vt 0.013685 0.345265
vt 0.016422 0.345265
vt 0.019159 0.345265
vt 0.021896 0.345265
vt 0 0.366968
vt 0.002737 0.366968
vt 0.005474 0.366968
vt 0.008211 0.366968
vt 0.010948 0.366968
vt 0.013685 0.366968
vt 0.016422 0.366968
vt 0.019159 0.366968
vt 0.021896 0.366968
vt 0 0.388671
vt 0.002737 0.388671
vt 0.005474 0.388671
vt 0.008211 0.388671
vt 0.010948 0.388671
vt 0.013685 0.388671
vt 0.016422 0.388671
vt 0.019159 0.388671
vt 0.021896 0.388671
vt 0 0.410428
vt 0.002737 0.410428
vt 0.005474 0.410428
vt 0.008211 0.410428
vt 0.010948 0.410428
vt 0.013685 0.410428
vt 0.016422 0.410428
vt 0.019159 0.410428
vt 0.021896 0.410428
vt 0 0.432203
vt 0.002737 0.432203
vt 0.005474 0.432203
vt 0.008211 0.432203
vt 0.010948 0.432203
vt 0.013685 0.432203
vt 0.016422 0.432203
vt 0.019159 0.432203
vt 0.021896 0.432203
vt 0 0.453998
vt 0.002737 0.453998
vt 0.005474 0.453998
vt 0.008211 0.453998
vt 0.010948 0.453998
vt 0.013685 0.453998
vt 0.016422 0.453998
vt 0.019159 0.453998
vt 0.021896 0.453998
vt 0 0.47581
vt 0.002737 0.47581
vt 0.005474 0.47581
vt 0.008211 0.47581
vt 0.010948 0.47581
vt 0.013685 0.47581
vt 0.016422 0.47581
vt 0.019159 0.47581
vt 0.021896 0.47581
vt 0 0.497636
vt 0.002737 0.497636
vt 0.005474 0.497636
vt 0.008211 0.497636
vt 0.010948 0.497636
vt 0.013685 0.497636
vt 0.016422 0.497636
vt 0.019159 0.497636
vt 0.021896 0.497636
vt 0 0.519477
vt 0.002737 0.519477
vt 0.005474 0.519477
vt 0.008211 0.519477
vt 0.010948 0.519477
vt 0.013685 0.519477
vt 0.016422 0.519477
vt 0.019159 0.519477
vt 0.021896 0.519477
vt 0 0.541338
vt 0.002737 0.541338
vt 0.005474 0.541338
vt 0.008211 0.541338
vt 0.010948 0.541338
vt 0.013685 0.541338
vt 0.016422 0.541338
vt 0.019159 0.541338
vt 0.021896 0.541338
vt 0 0.563227
vt 0.002737 0.563227
vt 0.005474 0.563227
vt 0.008211 0.563227
vt 0.010948 0.563227
vt 0.013685 0.563227
vt 0.016422 0.563227
vt 0.019159 0.563227
vt 0.021896 0.563227
vt 0 0.585093
vt 0.002737 0.585093
vt 0.005474 0.585093
vt 0.008211 0.585093
vt 0.010948 0.585093
vt 0.013685 0.585093
vt 0.016422 0.585093
vt 0.019159 0.585093
vt 0.021896 0.585093
vt 0 0.607007
vt 0.002737 0.607007
vt 0.005474 0.607007
vt 0.008211 0.607007
vt 0.010948 0.607007
vt 0.013685 0.607007
vt 0.016422 0.607007
vt 0.019159 0.607007
vt 0.021896 0.607007
vt 0 0.628943
vt 0.002737 0.628943
vt 0.005474 0.628943
vt 0.008211 0.628943
vt 0.010948 0.628943
vt 0.013685 0.628943
vt 0.016422 0.628943
vt 0.019159 0.628943
vt 0.021896 0.628943
vt 0 0.650915
vt 0.002737 0.650915
vt 0.005474 0.650915
vt 0.008211 0.650915
vt 0.010948 0.650915
vt 0.013685 0.650915
vt 0.016422 0.650915
vt 0.019159 0.650915
vt 0.021896 0.650915
vt 0 0.6729
vt 0.002737 0.6729
vt 0.005474 0.6729
vt 0.008211 0.6729
vt 0.010948 0.6729
vt 0.013685 0.6729
vt 0.016422 0.6729
vt 0.019159 0.6729
vt 0.021896 0.6729
vt 0 0.694911
vt 0.002737 0.694911
vt 0.005474 0.694911
vt 0.008211 0.694911
vt 0.010948 0.694911
vt 0.013685 0.694911
vt 0.016422 0.694911
vt 0.019159 0.694911
vt 0.021896 0.694911
vt 0 0.716959
vt 0.002737 0.716959
vt 0.005474 0.716959
vt 0.008211 0.716959
vt 0.010948 0.716959
vt 0.013685 0.716959
vt 0.016422 0.716959
vt 0.019159 0.716959
vt 0.021896 0.716959
vt 0 0.739047
vt 0.002737 0.739047
vt 0.005474 0.739047
vt 0.008211 0.739047
vt 0.010948 0.739047
vt 0.013685 0.739047
vt 0.016422 0.739047
vt 0.019159 0.739047
vt 0.021896 0.739047
vt 0 0.761076
vt 0.002737 0.761076
vt 0.005474 0.761076
vt 0.008211 0.761076
vt 0.010948 0.761076
vt 0.013685 0.761076
vt 0.016422 0.761076
vt 0.019159 0.761076
vt 0.021896 0.761076
vt 0 0.782804
vt 0.002737 0.782804
vt 0.005474 0.782804
vt 0.008211 0.782804
vt 0.010948 0.782804
vt 0.013685 0.782804
vt 0.016422 0.782804
vt 0.019159 0.782804
vt 0.021896 0.782804
vt 0 0.804651
vt 0.002737 0.804651
vt 0.005474 0.804651
vt 0.008211 0.804651
vt 0.010948 0.804651
vt 0.013685 0.804651
vt 0.016422 0.804651
vt 0.019159 0.804651
vt 0.021896 0.804651
vt 0.002737 0.826533
vt 0 0.826533
vt 0.005474 0.826533
vt 0.008211 0.826533
vt 0.010948 0.826533
vt 0.013685 0.826533
vt 0.016422 0.826533
vt 0.019159 0.826533
vt 0.021896 0.826533
vt 0.002737 0.848393
vt 0 0.848393
vt 0.005474 0.848393
vt 0.008211 0.848393
vt 0.010948 0.848393
vt 0.013685 0.848393
vt 0.016422 0.848393
vt 0.019159 0.848393
vt 0.021896 0.848393
vt 0.002737 0.870288
vt 0 0.870288
vt 0.005474 0.870288
vt 0.008211 0.870288
vt 0.010948 0.870288
vt 0.013685 0.870288
vt 0.016422 0.870288
vt 0.019159 0.870288
vt 0.021896 0.870288
vt 0.002737 0.891918
vt 0 0.891918
vt 0.005474 0.891918
vt 0.008211 0.891918
vt 0.010948 0.891918
vt 0.013685 0.891918
vt 0.016422 0.891918
vt 0.019159 0.891918
vt 0.021896 0.891918
vt 0.002737 0.91348
vt 0 0.91348
vt 0.005474 0.91348
vt 0.008211 0.91348
vt 0.010948 0.91348
vt 0.013685 0.91348
vt 0.016422 0.91348
vt 0.019159 0.91348
vt 0.021896 0.91348
vt 0.002737 0.935092
vt 0 0.935092
vt 0.005474 0.935092
vt 0.008211 0.935092
vt 0.010948 0.935092
vt 0.013685 0.935092
vt 0.016422 0.935092
vt 0.019159 0.935092
vt 0.021896 0.935092
vt 0.002737 0.956721
vt 0 0.956721
vt 0.005474 0.956721
vt 0.008211 0.956721
vt 0.010948 0.956721
vt 0.013685 0.956721
vt 0.016422 0.956721
vt 0.019159 0.956721
vt 0.021896 0.956721
vt 0.002737 0.97836
vt 0 0.97836
vt 0.005474 0.97836
vt 0.008211 0.97836
vt 0.010948 0.97836
vt 0.013685 0.97836
vt 0.016422 0.97836
vt 0.019159 0.97836
vt 0.021896 0.97836
vt 0.002737 1
vt 0 1
vt 0.005474 1
vt 0.008211 1
vt 0.010948 1
vt 0.013685 1
vt 0.016422 1
vt 0.019159 1
vt 0.021896 1
usemtl Wire1SG
f 1/1/1 2/2/2 3/3/3
f 3/3/3 2/2/2 4/4/4
f 2/2/2 5/5/5 4/4/4
f 4/4/4 5/5/5 6/6/6
f 5/5/5 7/7/7 6/6/6
f 6/6/6 7/7/7 8/8/8
f 7/7/7 9/9/9 8/8/8
f 8/8/8 9/9/9 10/10/10
f 9/9/9 11/11/11 10/10/10
f 10/10/10 11/11/11 12/12/12
f 11/11/11 13/13/13 12/12/12
f 12/12/12 13/13/13 14/14/14
f 13/13/13 15/15/15 14/14/14
f 14/14/14 15/15/15 16/16/16
f 15/15/15 1/17/1 16/16/16
f 16/16/16 1/17/1 3/18/3
f 3/3/3 4/4/4 17/19/17
f 17/19/17 4/4/4 18/20/18
f 4/4/4 6/6/6 18/20/18
f 18/20/18 6/6/6 19/21/19
f 6/6/6 8/8/8 19/21/19
f 19/21/19 8/8/8 20/22/20
f 8/8/8 10/10/10 20/22/20
f 20/22/20 10/10/10 21/23/21
f 10/10/10 12/12/12 21/23/21
f 21/23/21 12/12/12 22/24/22
f 12/12/12 14/14/14 22/24/22
f 22/24/22 14/14/14 23/25/23
f 14/14/14 16/16/16 23/25/23
f 23/25/23 16/16/16 24/26/24
f 16/16/16 3/18/3 24/26/24
f 24/26/24 3/18/3 17/27/17
f 17/19/17 18/20/18 25/28/25
f 25/28/25 18/20/18 26/29/26
f 18/20/18 19/21/19 26/29/26
f 26/29/26 19/21/19 27/30/27
f 19/21/19 20/22/20 27/30/27
f 27/30/27 20/22/20 28/31/28
f 20/22/20 21/23/21 28/31/28
f 28/31/28 21/23/21 29/32/29
f 21/23/21 22/24/22 29/32/29
f 29/32/29 22/24/22 30/33/30
f 22/24/22 23/25/23 30/33/30
f 30/33/30 23/25/23 31/34/31
f 23/25/23 24/26/24 31/34/31
f 31/34/31 24/26/24 32/35/32
f 24/26/24 17/27/17 32/35/32
f 32/35/32 17/27/17 25/36/25
f 25/28/25 26/29/26 33/37/33
f 33/37/33 26/29/26 34/38/34
f 26/29/26 27/30/27 34/38/34
f 34/38/34 27/30/27 35/39/35
f 27/30/27 28/31/28 35/39/35
f 35/39/35 28/31/28 36/40/36
f 28/31/28 29/32/29 36/40/36
f 36/40/36 29/32/29 37/41/37
f 29/32/29 30/33/30 37/41/37
f 37/41/37 30/33/30 38/42/38
f 30/33/30 31/34/31 38/42/38
f 38/42/38 31/34/31 39/43/39
f 31/34/31 32/35/32 39/43/39
f 39/43/39 32/35/32 40/44/40
f 32/35/32 25/36/25 40/44/40
f 40/44/40 25/36/25 33/45/33
f 33/37/33 34/38/34 41/46/41
f 41/46/41 34/38/34 42/47/42
f 34/38/34 35/39/35 42/47/42
f 42/47/42 35/39/35 43/48/43
f 35/39/35 36/40/36 43/48/43
f 43/48/43 36/40/36 44/49/44
f 36/40/36 37/41/37 44/49/44
f 44/49/44 37/41/37 45/50/45
f 37/41/37 38/42/38 45/50/45
f 45/50/45 38/42/38 46/51/46
f 38/42/38 39/43/39 46/51/46
f 46/51/46 39/43/39 47/52/47
f 39/43/39 40/44/40 47/52/47
f 47/52/47 40/44/40 48/53/48
f 40/44/40 33/45/33 48/53/48
f 48/53/48 33/45/33 41/54/41
f 41/46/41 42/47/42 49/55/49
f 49/55/49 42/47/42 50/56/50
f 42/47/42 43/48/43 50/56/50
f 50/56/50 43/48/43 51/57/51
f 43/48/43 44/49/44 51/57/51
f 51/57/51 44/49/44 52/58/52
f 44/49/44 45/50/45 52/58/52
f 52/58/52 45/50/45 53/59/53
f 45/50/45 46/51/46 53/59/53
f 53/59/53 46/51/46 54/60/54
f 46/51/46 47/52/47 54/60/54
f 54/60/54 47/52/47 55/61/55
f 47/52/47 48/53/48 55/61/55
f 55/61/55 48/53/48 56/62/56
f 48/53/48 41/54/41 56/62/56
f 56/62/56 41/54/41 49/63/49
f 49/55/49 50/56/50 57/64/57
f 57/64/57 50/56/50 58/65/58
f 50/56/50 51/57/51 58/65/58
f 58/65/58 51/57/51 59/66/59
f 51/57/51 52/58/52 59/66/59
f 59/66/59 52/58/52 60/67/60
f 52/58/52 53/59/53 60/67/60
f 60/67/60 53/59/53 61/68/61
f 53/59/53 54/60/54 61/68/61
f 61/68/61 54/60/54 62/69/62
f 54/60/54 55/61/55 62/69/62
f 62/69/62 55/61/55 63/70/63
f 55/61/55 56/62/56 63/70/63
f 63/70/63 56/62/56 64/71/64
f 56/62/56 49/63/49 64/71/64
f 64/71/64 49/63/49 57/72/57
f 57/64/57 58/65/58 65/73/65
f 65/73/65 58/65/58 66/74/66
f 58/65/58 59/66/59 66/74/66
f 66/74/66 59/66/59 67/75/67
f 59/66/59 60/67/60 67/75/67
f 67/75/67 60/67/60 68/76/68
f 60/67/60 61/68/61 68/76/68
f 68/76/68 61/68/61 69/77/69
f 61/68/61 62/69/62 69/77/69
f 69/77/69 62/69/62 70/78/70
f 62/69/62 63/70/63 70/78/70
f 70/78/70 63/70/63 71/79/71
f 63/70/63 64/71/64 71/79/71
f 71/79/71 64/71/64 72/80/72
f 64/71/64 57/72/57 72/80/72
f 72/80/72 57/72/57 65/81/65
f 65/73/65 66/74/66 73/82/73
f 73/82/73 66/74/66 74/83/74
f 66/74/66 67/75/67 74/83/74
f 74/83/74 67/75/67 75/84/75
f 67/75/67 68/76/68 75/84/75
f 75/84/75 68/76/68 76/85/76
f 68/76/68 69/77/69 76/85/76
f 76/85/76 69/77/69 77/86/77
f 69/77/69 70/78/70 77/86/77
f 77/86/77 70/78/70 78/87/78
f 70/78/70 71/79/71 78/87/78
f 78/87/78 71/79/71 79/88/79
f 71/79/71 72/80/72 79/88/79
f 79/88/79 72/80/72 80/89/80
f 72/80/72 65/81/65 80/89/80
f 80/89/80 65/81/65 73/90/73
f 73/82/73 74/83/74 81/91/81
f 81/91/81 74/83/74 82/92/82
f 74/83/74 75/84/75 82/92/82
f 82/92/82 75/84/75 83/93/83
f 75/84/75 76/85/76 83/93/83
f 83/93/83 76/85/76 84/94/84
f 76/85/76 77/86/77 84/94/84
f 84/94/84 77/86/77 85/95/85
f 77/86/77 78/87/78 85/95/85
f 85/95/85 78/87/78 86/96/86
f 78/87/78 79/88/79 86/96/86
f 86/96/86 79/88/79 87/97/87
f 79/88/79 80/89/80 87/97/87
f 87/97/87 80/89/80 88/98/88
f 80/89/80 73/90/73 88/98/88
f 88/98/88 73/90/73 81/99/81
f 81/91/81 82/92/82 89/100/89
f 89/100/89 82/92/82 90/101/90
f 82/92/82 83/93/83 90/101/90
f 90/101/90 83/93/83 91/102/91
f 83/93/83 84/94/84 91/102/91
f 91/102/91 84/94/84 92/103/92
f 84/94/84 85/95/85 92/103/92
f 92/103/92 85/95/85 93/104/93
f 85/95/85 86/96/86 93/104/93
f 93/104/93 86/96/86 94/105/94
f 86/96/86 87/97/87 94/105/94
f 94/105/94 87/97/87 95/106/95
f 87/97/87 88/98/88 95/106/95
f 95/106/95 88/98/88 96/107/96
f 88/98/88 81/99/81 96/107/96
f 96/107/96 81/99/81 89/108/89
f 89/100/89 90/101/90 97/109/97
f 97/109/97 90/101/90 98/110/98
f 90/101/90 91/102/91 98/110/98
f 98/110/98 91/102/91 99/111/99
f 91/102/91 92/103/92 99/111/99
f 99/111/99 92/103/92 100/112/100
f 92/103/92 93/104/93 100/112/100
f 100/112/100 93/104/93 101/113/101
f 93/104/93 94/105/94 101/113/101
f 101/113/101 94/105/94 102/114/102
f 94/105/94 95/106/95 102/114/102
f 102/114/102 95/106/95 103/115/103
f 95/106/95 96/107/96 103/115/103
f 103/115/103 96/107/96 104/116/104
f 96/107/96 89/108/89 104/116/104
f 104/116/104 89/108/89 97/117/97
f 97/109/97 98/110/98 105/118/105
f 105/118/105 98/110/98 106/119/106
f 98/110/98 99/111/99 106/119/106
f 106/119/106 99/111/99 107/120/107
f 99/111/99 100/112/100 107/120/107
f 107/120/107 100/112/100 108/121/108
f 100/112/100 101/113/101 108/121/108
f 108/121/108 101/113/101 109/122/109
f 101/113/101 102/114/102 109/122/109
f 109/122/109 102/114/102 110/123/110
f 102/114/102 103/115/103 110/123/110
f 110/123/110 103/115/103 111/124/111
f 103/115/103 104/116/104 111/124/111
f 111/124/111 104/116/104 112/125/112
f 104/116/104 97/117/97 112/125/112
f 112/125/112 97/117/97 105/126/105
f 105/118/105 106/119/106 113/127/113
f 113/127/113 106/119/106 114/128/114
f 106/119/106 107/120/107 114/128/114
f 114/128/114 107/120/107 115/129/115
f 107/120/107 108/121/108 115/129/115
f 115/129/115 108/121/108 116/130/116
f 108/121/108 109/122/109 116/130/116
f 116/130/116 109/122/109 117/131/117
f 109/122/109 110/123/110 117/131/117
f 117/131/117 110/123/110 118/132/118
f 110/123/110 111/124/111 118/132/118
f 118/132/118 111/124/111 119/133/119
f 111/124/111 112/125/112 119/133/119
f 119/133/119 112/125/112 120/134/120
f 112/125/112 105/126/105 120/134/120
f 120/134/120 105/126/105 113/135/113
f 113/127/113 114/128/114 121/136/121
f 121/136/121 114/128/114 122/137/122
f 114/128/114 115/129/115 122/137/122
f 122/137/122 115/129/115 123/138/123
f 115/129/115 116/130/116 123/138/123
f 123/138/123 116/130/116 124/139/124
f 116/130/116 117/131/117 124/139/124
f 124/139/124 117/131/117 125/140/125
f 117/131/117 118/132/118 125/140/125
f 125/140/125 118/132/118 126/141/126
f 118/132/118 119/133/119 126/141/126
f 126/141/126 119/133/119 127/142/127
f 119/133/119 120/134/120 127/142/127
f 127/142/127 120/134/120 128/143/128
f 120/134/120 113/135/113 128/143/128
f 128/143/128 113/135/113 121/144/121
f 121/136/121 122/137/122 129/145/129
f 129/145/129 122/137/122 130/146/130
f 122/137/122 123/138/123 130/146/130
f 130/146/130 123/138/123 131/147/131
f 123/138/123 124/139/124 131/147/131
f 131/147/131 124/139/124 132/148/132
f 124/139/124 125/140/125 132/148/132
f 132/148/132 125/140/125 133/149/133
f 125/140/125 126/141/126 133/149/133
f 133/149/133 126/141/126 134/150/134
f 126/141/126 127/142/127 134/150/134
f 134/150/134 127/142/127 135/151/135
f 127/142/127 128/143/128 135/151/135
f 135/151/135 128/143/128 136/152/136
f 128/143/128 121/144/121 136/152/136
f 136/152/136 121/144/121 129/153/129
f 129/145/129 130/146/130 137/154/137
f 137/154/137 130/146/130 138/155/138
f 130/146/130 131/147/131 138/155/138
f 138/155/138 131/147/131 139/156/139
f 131/147/131 132/148/132 139/156/139
f 139/156/139 132/148/132 140/157/140
f 132/148/132 133/149/133 140/157/140
f 140/157/140 133/149/133 141/158/141
f 133/149/133 134/150/134 141/158/141
f 141/158/141 134/150/134 142/159/142
f 134/150/134 135/151/135 142/159/142
f 142/159/142 135/151/135 143/160/143
f 135/151/135 136/152/136 143/160/143
f 143/160/143 136/152/136 144/161/144
f 136/152/136 129/153/129 144/161/144
f 144/161/144 129/153/129 137/162/137
f 137/154/137 138/155/138 145/163/145
f 145/163/145 138/155/138 146/164/146
f 138/155/138 139/156/139 146/164/146
f 146/164/146 139/156/139 147/165/147
f 139/156/139 140/157/140 147/165/147
f 147/165/147 140/157/140 148/166/148
f 140/157/140 141/158/141 148/166/148
f 148/166/148 141/158/141 149/167/149
f 141/158/141 142/159/142 149/167/149
f 149/167/149 142/159/142 150/168/150
f 142/159/142 143/160/143 150/168/150
f 150/168/150 143/160/143 151/169/151
f 143/160/143 144/161/144 151/169/151
f 151/169/151 144/161/144 152/170/152
f 144/161/144 137/162/137 152/170/152
f 152/170/152 137/162/137 145/171/145
f 145/163/145 146/164/146 153/172/153
f 153/172/153 146/164/146 154/173/154
f 146/164/146 147/165/147 154/173/154
f 154/173/154 147/165/147 155/174/155
f 147/165/147 148/166/148 155/174/155
f 155/174/155 148/166/148 156/175/156
f 148/166/148 149/167/149 156/175/156
f 156/175/156 149/167/149 157/176/157
f 149/167/149 150/168/150 157/176/157
f 157/176/157 150/168/150 158/177/158
f 150/168/150 151/169/151 158/177/158
f 158/177/158 151/169/151 159/178/159
f 151/169/151 152/170/152 159/178/159
f 159/178/159 152/170/152 160/179/160
f 152/170/152 145/171/145 160/179/160
f 160/179/160 145/171/145 153/180/153
f 153/172/153 154/173/154 161/181/161
f 161/181/161 154/173/154 162/182/162
f 154/173/154 155/174/155 162/182/162
f 162/182/162 155/174/155 163/183/163
f 155/174/155 156/175/156 163/183/163
f 163/183/163 156/175/156 164/184/164
f 156/175/156 157/176/157 164/184/164
f 164/184/164 157/176/157 165/185/165
f 157/176/157 158/177/158 165/185/165
f 165/185/165 158/177/158 166/186/166
f 158/177/158 159/178/159 166/186/166
f 166/186/166 159/178/159 167/187/167
f 159/178/159 160/179/160 167/187/167
f 167/187/167 160/179/160 168/188/168
f 160/179/160 153/180/153 168/188/168
f 168/188/168 153/180/153 161/189/161
f 161/181/161 162/182/162 169/190/169
f 169/190/169 162/182/162 170/191/170
f 162/182/162 163/183/163 170/191/170
f 170/191/170 163/183/163 171/192/171
f 163/183/163 164/184/164 171/192/171
f 171/192/171 164/184/164 172/193/172
f 164/184/164 165/185/165 172/193/172
f 172/193/172 165/185/165 173/194/173
f 165/185/165 166/186/166 173/194/173
f 173/194/173 166/186/166 174/195/174
f 166/186/166 167/187/167 174/195/174
f 174/195/174 167/187/167 175/196/175
f 167/187/167 168/188/168 175/196/175
f 175/196/175 168/188/168 176/197/176
f 168/188/168 161/189/161 176/197/176
f 176/197/176 161/189/161 169/198/169
f 169/190/169 170/191/170 177/199/177
f 177/199/177 170/191/170 178/200/178
f 170/191/170 171/192/171 178/200/178
f 178/200/178 171/192/171 179/201/179
f 171/192/171 172/193/172 179/201/179
f 179/201/179 172/193/172 180/202/180
f 172/193/172 173/194/173 180/202/180
f 180/202/180 173/194/173 181/203/181
f 173/194/173 174/195/174 181/203/181
f 181/203/181 174/195/174 182/204/182
f 174/195/174 175/196/175 182/204/182
f 182/204/182 175/196/175 183/205/183
f 175/196/175 176/197/176 183/205/183
f 183/205/183 176/197/176 184/206/184
f 176/197/176 169/198/169 184/206/184
f 184/206/184 169/198/169 177/207/177
f 177/199/177 178/200/178 185/208/185
f 185/208/185 178/200/178 186/209/186
f 178/200/178 179/201/179 186/209/186
f 186/209/186 179/201/179 187/210/187
f 179/201/179 180/202/180 187/210/187
f 187/210/187 180/202/180 188/211/188
f 180/202/180 181/203/181 188/211/188
f 188/211/188 181/203/181 189/212/189
f 181/203/181 182/204/182 189/212/189
f 189/212/189 182/204/182 190/213/190
f 182/204/182 183/205/183 190/213/190
f 190/213/190 183/205/183 191/214/191
f 183/205/183 184/206/184 191/214/191
f 191/214/191 184/206/184 192/215/192
f 184/206/184 177/207/177 192/215/192
f 192/215/192 177/207/177 185/216/185
f 185/208/185 186/209/186 193/217/193
f 193/217/193 186/209/186 194/218/194
f 186/209/186 187/210/187 194/218/194
f 194/218/194 187/210/187 195/219/195
f 187/210/187 188/211/188 195/219/195
f 195/219/195 188/211/188 196/220/196
f 188/211/188 189/212/189 196/220/196
f 196/220/196 189/212/189 197/221/197
f 189/212/189 190/213/190 197/221/197
f 197/221/197 190/213/190 198/222/198
f 190/213/190 191/214/191 198/222/198
f 198/222/198 191/214/191 199/223/199
f 191/214/191 192/215/192 199/223/199
f 199/223/199 192/215/192 200/224/200
f 192/215/192 185/216/185 200/224/200
f 200/224/200 185/216/185 193/225/193
f 193/217/193 194/218/194 201/226/201
f 201/226/201 194/218/194 202/227/202
f 194/218/194 195/219/195 202/227/202
f 202/227/202 195/219/195 203/228/203
f 195/219/195 196/220/196 203/228/203
f 203/228/203 196/220/196 204/229/204
f 196/220/196 197/221/197 204/229/204
f 204/229/204 197/221/197 205/230/205
f 197/221/197 198/222/198 205/230/205
f 205/230/205 198/222/198 206/231/206
f 198/222/198 199/223/199 206/231/206
f 206/231/206 199/223/199 207/232/207
f 199/223/199 200/224/200 207/232/207
f 207/232/207 200/224/200 208/233/208
f 200/224/200 193/225/193 208/233/208
f 208/233/208 193/225/193 201/234/201
f 201/226/201 202/227/202 209/235/209
f 209/235/209 202/227/202 210/236/210
f 202/227/202 203/228/203 210/236/210
f 210/236/210 203/228/203 211/237/211
f 203/228/203 204/229/204 211/237/211
f 211/237/211 204/229/204 212/238/212
f 204/229/204 205/230/205 212/238/212
f 212/238/212 205/230/205 213/239/213
f 205/230/205 206/231/206 213/239/213
f 213/239/213 206/231/206 214/240/214
f 206/231/206 207/232/207 214/240/214
f 214/240/214 207/232/207 215/241/215
f 207/232/207 208/233/208 215/241/215
f 215/241/215 208/233/208 216/242/216
f 208/233/208 201/234/201 216/242/216
f 216/242/216 201/234/201 209/243/209
f 209/235/209 210/236/210 217/244/217
f 217/244/217 210/236/210 218/245/218
f 210/236/210 211/237/211 218/245/218
f 218/245/218 211/237/211 219/246/219
f 211/237/211 212/238/212 219/246/219
f 219/246/219 212/238/212 220/247/220
f 212/238/212 213/239/213 220/247/220
f 220/247/220 213/239/213 221/248/221
f 213/239/213 214/240/214 221/248/221
f 221/248/221 214/240/214 222/249/222
f 214/240/214 215/241/215 222/249/222
f 222/249/222 215/241/215 223/250/223
f 215/241/215 216/242/216 223/250/223
f 223/250/223 216/242/216 224/251/224
f 216/242/216 209/243/209 224/251/224
f 224/251/224 209/243/209 217/252/217
f 217/244/217 218/245/218 225/253/225
f 225/253/225 218/245/218 226/254/226
f 218/245/218 219/246/219 226/254/226
f 226/254/226 219/246/219 227/255/227
f 219/246/219 220/247/220 227/255/227
f 227/255/227 220/247/220 228/256/228
f 220/247/220 221/248/221 228/256/228
f 228/256/228 221/248/221 229/257/229
f 221/248/221 222/249/222 229/257/229
f 229/257/229 222/249/222 230/258/230
f 222/249/222 223/250/223 230/258/230
f 230/258/230 223/250/223 231/259/231
f 223/250/223 224/251/224 231/259/231
f 231/259/231 224/251/224 232/260/232
f 224/251/224 217/252/217 232/260/232
f 232/260/232 217/252/217 225/261/225
f 225/253/225 226/254/226 233/262/233
f 233/262/233 226/254/226 234/263/234
f 226/254/226 227/255/227 234/263/234
f 234/263/234 227/255/227 235/264/235
f 227/255/227 228/256/228 235/264/235
f 235/264/235 228/256/228 236/265/236
f 228/256/228 229/257/229 236/265/236
f 236/265/236 229/257/229 237/266/237
f 229/257/229 230/258/230 237/266/237
f 237/266/237 230/258/230 238/267/238
f 230/258/230 231/259/231 238/267/238
f 238/267/238 231/259/231 239/268/239
f 231/259/231 232/260/232 239/268/239
f 239/268/239 232/260/232 240/269/240
f 232/260/232 225/261/225 240/269/240
f 240/269/240 225/261/225 233/270/233
f 233/262/233 234/263/234 241/271/241
f 241/271/241 234/263/234 242/272/242
f 234/263/234 235/264/235 242/272/242
f 242/272/242 235/264/235 243/273/243
f 235/264/235 236/265/236 243/273/243
f 243/273/243 236/265/236 244/274/244
f 236/265/236 237/266/237 244/274/244
f 244/274/244 237/266/237 245/275/245
f 237/266/237 238/267/238 245/275/245
f 245/275/245 238/267/238 246/276/246
f 238/267/238 239/268/239 246/276/246
f 246/276/246 239/268/239 247/277/247
f 239/268/239 240/269/240 247/277/247
f 247/277/247 240/269/240 248/278/248
f 240/269/240 233/270/233 248/278/248
f 248/278/248 233/270/233 241/279/241
f 241/271/241 242/272/242 249/280/249
f 249/280/249 242/272/242 250/281/250
f 242/272/242 243/273/243 250/281/250
f 250/281/250 243/273/243 251/282/251
f 243/273/243 244/274/244 251/282/251
f 251/282/251 244/274/244 252/283/252
f 244/274/244 245/275/245 252/283/252
f 252/283/252 245/275/245 253/284/253
f 245/275/245 246/276/246 253/284/253
f 253/284/253 246/276/246 254/285/254
f 246/276/246 247/277/247 254/285/254
f 254/285/254 247/277/247 255/286/255
f 247/277/247 248/278/248 255/286/255
f 255/286/255 248/278/248 256/287/256
f 248/278/248 241/279/241 256/287/256
f 256/287/256 241/279/241 249/288/249
f 249/280/249 250/281/250 257/289/257
f 257/289/257 250/281/250 258/290/258
f 250/281/250 251/282/251 258/290/258
f 258/290/258 251/282/251 259/291/259
f 251/282/251 252/283/252 259/291/259
f 259/291/259 252/283/252 260/292/260
f 252/283/252 253/284/253 260/292/260
f 260/292/260 253/284/253 261/293/261
f 253/284/253 254/285/254 261/293/261
f 261/293/261 254/285/254 262/294/262
f 254/285/254 255/286/255 262/294/262
f 262/294/262 255/286/255 263/295/263
f 255/286/255 256/287/256 263/295/263
f 263/295/263 256/287/256 264/296/264
f 256/287/256 249/288/249 264/296/264
f 264/296/264 249/288/249 257/297/257
f 257/289/257 258/290/258 265/298/265
f 265/298/265 258/290/258 266/299/266
f 258/290/258 259/291/259 266/299/266
f 266/299/266 259/291/259 267/300/267
f 259/291/259 260/292/260 267/300/267
f 267/300/267 260/292/260 268/301/268
f 261/293/261 269/302/269 260/292/260
f 260/292/260 269/302/269 268/301/268
f 262/294/262 270/303/270 261/293/261
f 261/293/261 270/303/270 269/302/269
f 263/295/263 271/304/271 262/294/262
f 262/294/262 271/304/271 270/303/270
f 264/296/264 272/305/272 263/295/263
f 263/295/263 272/305/272 271/304/271
f 264/296/264 257/297/257 272/305/272
f 272/305/272 257/297/257 265/306/265
f 265/298/265 266/299/266 273/307/273
f 273/307/273 266/299/266 274/308/274
f 266/299/266 267/300/267 274/308/274
f 274/308/274 267/300/267 275/309/275
f 267/300/267 268/301/268 275/309/275
f 275/309/275 268/301/268 276/310/276
f 269/302/269 277/311/277 268/301/268
f 268/301/268 277/311/277 276/310/276
f 270/303/270 278/312/278 269/302/269
f 269/302/269 278/312/278 277/311/277
f 271/304/271 279/313/279 270/303/270
f 270/303/270 279/313/279 278/312/278
f 272/305/272 280/314/280 271/304/271
f 271/304/271 280/314/280 279/313/279
f 272/305/272 265/306/265 280/314/280
f 280/314/280 265/306/265 273/315/273
f 273/307/273 274/308/274 281/316/281
f 281/316/281 274/308/274 282/317/282
f 274/308/274 275/309/275 282/317/282
f 282/317/282 275/309/275 283/318/283
f 275/309/275 276/310/276 283/318/283
f 283/318/283 276/310/276 284/319/284
f 277/311/277 285/320/285 276/310/276
f 276/310/276 285/320/285 284/319/284
f 278/312/278 286/321/286 277/311/277
f 277/311/277 286/321/286 285/320/285
f 279/313/279 287/322/287 278/312/278
f 278/312/278 287/322/287 286/321/286
f 280/314/280 288/323/288 279/313/279
f 279/313/279 288/323/288 287/322/287
f 280/314/280 273/315/273 288/323/288
f 288/323/288 273/315/273 281/324/281
f 281/316/281 282/317/282 289/325/289
f 289/325/289 282/317/282 290/326/290
f 282/317/282 283/318/283 290/326/290
f 290/326/290 283/318/283 291/327/291
f 283/318/283 284/319/284 291/327/291
f 291/327/291 284/319/284 292/328/292
f 285/320/285 293/329/293 284/319/284
f 284/319/284 293/329/293 292/328/292
f 286/321/286 294/330/294 285/320/285
f 285/320/285 294/330/294 293/329/293
f 287/322/287 295/331/295 286/321/286
f 286/321/286 295/331/295 294/330/294
f 288/323/288 296/332/296 287/322/287
f 287/322/287 296/332/296 295/331/295
f 288/323/288 281/324/281 296/332/296
f 296/332/296 281/324/281 289/333/289
f 289/325/289 290/326/290 297/334/297
f 297/334/297 290/326/290 298/335/298
f 290/326/290 291/327/291 298/335/298
f 298/335/298 291/327/291 299/336/299
f 291/327/291 292/328/292 299/336/299
f 299/336/299 292/328/292 300/337/300
f 293/329/293 301/338/301 292/328/292
f 292/328/292 301/338/301 300/337/300
f 294/330/294 302/339/302 293/329/293
f 293/329/293 302/339/302 301/338/301
f 295/331/295 303/340/303 294/330/294
f 294/330/294 303/340/303 302/339/302
f 295/331/295 296/332/296 303/340/303
f 303/340/303 296/332/296 304/341/304
f 296/332/296 289/333/289 304/341/304
f 304/341/304 289/333/289 297/342/297
f 298/335/298 305/343/305 297/334/297
f 297/334/297 305/343/305 306/344/306
f 299/336/299 307/345/307 298/335/298
f 298/335/298 307/345/307 305/343/305
f 300/337/300 308/346/308 299/336/299
f 299/336/299 308/346/308 307/345/307
f 301/338/301 309/347/309 300/337/300
f 300/337/300 309/347/309 308/346/308
f 301/338/301 302/339/302 309/347/309
f 309/347/309 302/339/302 310/348/310
f 302/339/302 303/340/303 310/348/310
f 310/348/310 303/340/303 311/349/311
f 303/340/303 304/341/304 311/349/311
f 311/349/311 304/341/304 312/350/312
f 304/341/304 297/342/297 312/350/312
f 312/350/312 297/342/297 306/351/306
f 305/343/305 313/352/313 306/344/306
f 306/344/306 313/352/313 314/353/314
f 307/345/307 315/354/315 305/343/305
f 305/343/305 315/354/315 313/352/313
f 308/346/308 316/355/316 307/345/307
f 307/345/307 316/355/316 315/354/315
f 308/346/308 309/347/309 316/355/316
f 316/355/316 309/347/309 317/356/317
f 309/347/309 310/348/310 317/356/317
f 317/356/317 310/348/310 318/357/318
f 310/348/310 311/349/311 318/357/318
f 318/357/318 311/349/311 319/358/319
f 311/349/311 312/350/312 319/358/319
f 319/358/319 312/350/312 320/359/320
f 312/350/312 306/351/306 320/359/320
f 320/359/320 306/351/306 314/360/314
f 313/352/313 321/361/321 314/353/314
f 314/353/314 321/361/321 322/362/322
f 315/354/315 323/363/323 313/352/313
f 313/352/313 323/363/323 321/361/321
f 316/355/316 324/364/324 315/354/315
f 315/354/315 324/364/324 323/363/323
f 317/356/317 325/365/325 316/355/316
f 316/355/316 325/365/325 324/364/324
f 317/356/317 318/357/318 325/365/325
f 325/365/325 318/357/318 326/366/326
f 318/357/318 319/358/319 326/366/326
f 326/366/326 319/358/319 327/367/327
f 319/358/319 320/359/320 327/367/327
f 327/367/327 320/359/320 328/368/328
f 320/359/320 314/360/314 328/368/328
f 328/368/328 314/360/314 322/369/322
f 321/361/321 329/370/329 322/362/322
f 322/362/322 329/370/329 330/371/330
f 323/363/323 331/372/331 321/361/321
f 321/361/321 331/372/331 329/370/329
f 324/364/324 332/373/332 323/363/323
f 323/363/323 332/373/332 331/372/331
f 325/365/325 333/374/333 324/364/324
f 324/364/324 333/374/333 332/373/332
f 325/365/325 326/366/326 333/374/333
f 333/374/333 326/366/326 334/375/334
f 326/366/326 327/367/327 334/375/334
f 334/375/334 327/367/327 335/376/335
f 327/367/327 328/368/328 335/376/335
f 335/376/335 328/368/328 336/377/336
f 328/368/328 322/369/322 336/377/336
f 336/377/336 322/369/322 330/378/330
f 329/370/329 337/379/337 330/371/330
f 330/371/330 337/379/337 338/380/338
f 331/372/331 339/381/339 329/370/329
f 329/370/329 339/381/339 337/379/337
f 332/373/332 340/382/340 331/372/331
f 331/372/331 340/382/340 339/381/339
f 333/374/333 341/383/341 332/373/332
f 332/373/332 341/383/341 340/382/340
f 333/374/333 334/375/334 341/383/341
f 341/383/341 334/375/334 342/384/342
f 334/375/334 335/376/335 342/384/342
f 342/384/342 335/376/335 343/385/343
f 335/376/335 336/377/336 343/385/343
f 343/385/343 336/377/336 344/386/344
f 336/377/336 330/378/330 344/386/344
f 344/386/344 330/378/330 338/387/338
f 337/379/337 345/388/345 338/380/338
f 338/380/338 345/388/345 346/389/346
f 339/381/339 347/390/347 337/379/337
f 337/379/337 347/390/347 345/388/345
f 339/381/339 340/382/340 347/390/347
f 347/390/347 340/382/340 348/391/348
f 340/382/340 341/383/341 348/391/348
f 348/391/348 341/383/341 349/392/349
f 341/383/341 342/384/342 349/392/349
f 349/392/349 342/384/342 350/393/350
f 342/384/342 343/385/343 350/393/350
f 350/393/350 343/385/343 351/394/351
f 344/386/344 352/395/352 343/385/343
f 343/385/343 352/395/352 351/394/351
f 338/387/338 346/396/346 344/386/344
f 344/386/344 346/396/346 352/395/352
f 345/388/345 353/397/353 346/389/346
f 346/389/346 353/397/353 354/398/354
f 347/390/347 355/399/355 345/388/345
f 345/388/345 355/399/355 353/397/353
f 347/390/347 348/391/348 355/399/355
f 355/399/355 348/391/348 356/400/356
f 348/391/348 349/392/349 356/400/356
f 356/400/356 349/392/349 357/401/357
f 349/392/349 350/393/350 357/401/357
f 357/401/357 350/393/350 358/402/358
f 350/393/350 351/394/351 358/402/358
f 358/402/358 351/394/351 359/403/359
f 352/395/352 360/404/360 351/394/351
f 351/394/351 360/404/360 359/403/359
f 346/396/346 354/405/354 352/395/352
f 352/395/352 354/405/354 360/404/360
f 353/397/353 361/406/361 354/398/354
f 354/398/354 361/406/361 362/407/362
f 355/399/355 363/408/363 353/397/353
f 353/397/353 363/408/363 361/406/361
f 355/399/355 356/400/356 363/408/363
f 363/408/363 356/400/356 364/409/364
f 356/400/356 357/401/357 364/409/364
f 364/409/364 357/401/357 365/410/365
f 357/401/357 358/402/358 365/410/365
f 365/410/365 358/402/358 366/411/366
f 358/402/358 359/403/359 366/411/366
f 366/411/366 359/403/359 367/412/367
f 360/404/360 368/413/368 359/403/359
f 359/403/359 368/413/368 367/412/367
f 354/405/354 362/414/362 360/404/360
f 360/404/360 362/414/362 368/413/368
f 361/406/361 369/415/369 362/407/362
f 362/407/362 369/415/369 370/416/370
f 363/408/363 371/417/371 361/406/361
f 361/406/361 371/417/371 369/415/369
f 363/408/363 364/409/364 371/417/371
f 371/417/371 364/409/364 372/418/372
f 364/409/364 365/410/365 372/418/372
f 372/418/372 365/410/365 373/419/373
f 365/410/365 366/411/366 373/419/373
f 373/419/373 366/411/366 374/420/374
f 366/411/366 367/412/367 374/420/374
f 374/420/374 367/412/367 375/421/375
f 368/413/368 376/422/376 367/412/367
f 367/412/367 376/422/376 375/421/375
f 362/414/362 370/423/370 368/413/368
f 368/413/368 370/423/370 376/422/376
s off
g Wire1_Wire4SG
v 31.5681 35.8179 -3.78
v 31.5709 35.7887 -3.85071
v 30.5474 35.7232 -3.78
v 30.55 35.694 -3.85071
v 31.5775 35.7183 -3.88
v 30.5563 35.6236 -3.88
v 31.5841 35.6479 -3.85071
v 30.5626 35.5531 -3.85071
v 31.5869 35.6188 -3.78
v 30.5652 35.524 -3.78
v 31.5841 35.6479 -3.70929
v 30.5626 35.5531 -3.70929
v 31.5775 35.7183 -3.68
v 30.5563 35.6236 -3.68
v 31.5709 35.7887 -3.70929
v 30.55 35.694 -3.70929
v 29.5265 35.6382 -3.78
v 29.5287 35.609 -3.85071
v 29.534 35.5385 -3.88
v 29.5393 35.468 -3.85071
v 29.5415 35.4388 -3.78
v 29.5393 35.468 -3.70929
v 29.534 35.5385 -3.68
v 29.5287 35.609 -3.70929
v 28.505 35.5732 -3.78
v 28.5064 35.5439 -3.85071
v 28.51 35.4733 -3.88
v 28.5136 35.4027 -3.85071
v 28.515 35.3734 -3.78
v 28.5136 35.4027 -3.70929
v 28.51 35.4733 -3.68
v 28.5064 35.5439 -3.70929
v 27.4845 35.5388 -3.78
v 27.4849 35.5095 -3.85071
v 27.4859 35.4388 -3.88
v 27.487 35.3681 -3.85071
v 27.4874 35.3388 -3.78
v 27.487 35.3681 -3.70929
v 27.4859 35.4388 -3.68
v 27.4849 35.5095 -3.70929
v 26.4638 35.5469 -3.78
v 26.4628 35.5176 -3.85071
v 26.4605 35.4469 -3.88
v 26.4582 35.3763 -3.85071
v 26.4572 35.347 -3.78
v 26.4582 35.3763 -3.70929
v 26.4605 35.4469 -3.68
v 26.4628 35.5176 -3.70929
v 25.4465 35.6103 -3.78
v 25.4437 35.5811 -3.85071
v 25.4371 35.5107 -3.88
v 25.4304 35.4403 -3.85071
v 25.4277 35.4112 -3.78
v 25.4304 35.4403 -3.70929
v 25.4371 35.5107 -3.68
v 25.4437 35.5811 -3.70929
v 24.4374 35.7428 -3.78
v 24.4325 35.7139 -3.85071
v 24.4205 35.6442 -3.88
v 24.4086 35.5745 -3.85071
v 24.4037 35.5456 -3.78
v 24.4086 35.5745 -3.70929
v 24.4205 35.6442 -3.68
v 24.4325 35.7139 -3.70929
v 23.4444 35.9581 -3.78
v 23.4369 35.9298 -3.85071
v 23.4187 35.8615 -3.88
v 23.4005 35.7931 -3.85071
v 23.393 35.7648 -3.78
v 23.4005 35.7931 -3.70929
v 23.4187 35.8615 -3.68
v 23.4369 35.9298 -3.70929
v 22.4883 36.26 -3.78
v 22.4783 36.2325 -3.85071
v 22.4541 36.166 -3.88
v 22.4299 36.0996 -3.85071
v 22.4198 36.0721 -3.78
v 22.4299 36.0996 -3.70929
v 22.4541 36.166 -3.68
v 22.4783 36.2325 -3.70929
v 21.5577 36.6415 -3.78
v 21.5456 36.6149 -3.85071
v 21.5164 36.5505 -3.88
v 21.4872 36.4861 -3.85071
v 21.4751 36.4594 -3.78
v 21.4872 36.4861 -3.70929
v 21.5164 36.5505 -3.68
v 21.5456 36.6149 -3.70929
v 20.6553 37.087 -3.78
v 20.6416 37.0612 -3.85071
v 20.6084 36.9987 -3.88
v 20.5752 36.9363 -3.85071
v 20.5614 36.9105 -3.78
v 20.5752 36.9363 -3.70929
v 20.6084 36.9987 -3.68
v 20.6416 37.0612 -3.70929
v 19.778 37.5829 -3.78
v 19.7629 37.5578 -3.85071
v 19.7267 37.4971 -3.88
v 19.6905 37.4363 -3.85071
v 19.6755 37.4112 -3.78
v 19.6905 37.4363 -3.70929
v 19.7267 37.4971 -3.68
v 19.7629 37.5578 -3.70929
v 18.9222 38.1164 -3.78
v 18.9063 38.0918 -3.85071
v 18.8678 38.0325 -3.88
v 18.8294 37.9731 -3.85071
v 18.8134 37.9486 -3.78
v 18.8294 37.9731 -3.70929
v 18.8678 38.0325 -3.68
v 18.9063 38.0918 -3.70929
v 18.0816 38.6775 -3.78
v 18.0651 38.6534 -3.85071
v 18.0251 38.595 -3.88
v 17.9852 38.5367 -3.85071
v 17.9686 38.5125 -3.78
v 17.9852 38.5367 -3.70929
v 18.0251 38.595 -3.68
v 18.0651 38.6534 -3.70929
v 17.2519 39.2561 -3.78
v 17.235 39.2321 -3.85071
v 17.1942 39.1744 -3.88
v 17.1534 39.1167 -3.85071
v 17.1364 39.0928 -3.78
v 17.1534 39.1167 -3.70929
v 17.1942 39.1744 -3.68
v 17.235 39.2321 -3.70929
v 16.4274 39.8433 -3.78
v 16.4103 39.8195 -3.85071
v 16.3692 39.7619 -3.88
v 16.3281 39.7044 -3.85071
v 16.3111 39.6806 -3.78
v 16.3281 39.7044 -3.70929
v 16.3692 39.7619 -3.68
v 16.4103 39.8195 -3.70929
vn -0.092396 0.995722 0
vn -0.065311 0.703841 -0.707348
vn -0.087655 0.996151 0
vn -0.061925 0.703738 -0.707755
vn 4.1e-05 -0.000445 -1
vn 0.000111 -0.001289 -0.999999
vn 0.065352 -0.704298 -0.70689
vn 0.062035 -0.705026 -0.706463
vn 0.092394 -0.995723 0
vn 0.087653 -0.996151 0
vn 0.065352 -0.704298 0.70689
vn 0.062035 -0.705026 0.706463
vn 4.1e-05 -0.000445 1
vn 0.000111 -0.001288 0.999999
vn -0.065311 0.703841 0.707348
vn -0.061925 0.703738 0.707755
vn -0.073238 0.997315 0
vn -0.051694 0.703905 -0.708411
vn 0.000189 -0.002635 -0.999997
vn 0.051879 -0.706513 -0.705796
vn 0.073236 -0.997315 0
vn 0.051879 -0.706513 0.705796
vn 0.000189 -0.002635 0.999997
vn -0.051694 0.703904 0.708411
vn -0.048614 0.998818 0
vn -0.03428 0.704249 -0.709125
vn 0.00019 -0.004074 -0.999992
vn 0.034467 -0.708308 -0.705061
vn 0.048608 -0.998818 1.3e-05
vn 0.034467 -0.708308 0.705061
vn 0.00019 -0.004074 0.999992
vn -0.03428 0.704249 0.709125
vn -0.012865 0.999917 -0
vn -0.009066 0.704234 -0.70991
vn 6e-05 -0.005653 -0.999984
vn 0.009121 -0.709886 -0.704258
vn 0.012856 -0.999917 2.6e-05
vn 0.009121 -0.709885 0.704259
vn 6e-05 -0.005652 0.999984
vn -0.009066 0.704235 0.709909
vn 0.035059 0.999385 0
vn 0.024654 0.702987 -0.710775
vn -0.000277 -0.00739 -0.999973
vn -0.024935 -0.710368 -0.703389
vn -0.035068 -0.999385 1.3e-05
vn -0.024935 -0.710368 0.703389
vn -0.000277 -0.007389 0.999973
vn 0.024654 0.702987 0.710775
vn 0.096249 0.995357 0
vn 0.067601 0.699203 -0.71172
vn -0.000919 -0.00925 -0.999957
vn -0.068528 -0.708464 -0.702412
vn -0.096262 -0.995356 0
vn -0.068528 -0.708464 0.702412
vn -0.000919 -0.00925 0.999957
vn 0.067601 0.699203 0.71172
vn 0.171196 0.985237 0
vn 0.120076 0.691116 -0.712699
vn -0.001963 -0.011119 -0.999936
vn -0.12205 -0.70224 -0.7014
vn -0.171215 -0.985234 0
vn -0.12205 -0.70224 0.7014
vn -0.001963 -0.011119 0.999936
vn 0.120076 0.691116 0.712699
vn 0.256481 0.966549 0
vn 0.179753 0.677394 -0.713321
vn -0.003214 -0.012118 -0.999922
vn -0.182971 -0.689511 -0.700783
vn -0.256489 -0.966547 1.1e-05
vn -0.182969 -0.689503 0.700791
vn -0.003213 -0.012117 0.999922
vn 0.179753 0.677394 0.71332
vn 0.340555 0.940225 0
vn 0.238891 0.65951 -0.712726
vn -0.003836 -0.010672 -0.999936
vn -0.242724 -0.670202 -0.701366
vn -0.340538 -0.940231 1.1e-05
vn -0.242721 -0.670194 0.701375
vn -0.003835 -0.010672 0.999936
vn 0.238891 0.65951 0.712726
vn 0.411254 0.911521 0
vn 0.288864 0.640227 -0.711806
vn -0.003874 -0.008645 -0.999955
vn -0.29273 -0.648872 -0.702335
vn -0.411241 -0.911527 -0
vn -0.29273 -0.648872 0.702335
vn -0.003874 -0.008645 0.999955
vn 0.288864 0.640227 0.711806
vn 0.467549 0.883967 0
vn 0.328838 0.621699 -0.710884
vn -0.003544 -0.006741 -0.999971
vn -0.332373 -0.628433 -0.703279
vn -0.467539 -0.883972 0
vn -0.332373 -0.628433 0.703279
vn -0.003544 -0.00674 0.999971
vn 0.328838 0.621699 0.710884
vn 0.510641 0.859794 0
vn 0.359592 0.605453 -0.710014
vn -0.00298 -0.005045 -0.999983
vn -0.362567 -0.610498 -0.704157
vn -0.510633 -0.859799 0
vn -0.362568 -0.610499 0.704156
vn -0.002984 -0.005051 0.999983
vn 0.359592 0.605453 0.710014
vn 0.542191 0.840255 -0
vn 0.382246 0.592375 -0.709211
vn -0.002295 -0.003573 -0.999991
vn -0.384534 -0.595944 -0.704971
vn -0.542186 -0.840259 0
vn -0.384534 -0.595944 0.704971
vn -0.002294 -0.003573 0.999991
vn 0.382246 0.592375 0.709211
vn 0.563617 0.826036 0
vn 0.39776 0.582952 -0.708487
vn -0.001554 -0.002287 -0.999996
vn -0.399311 -0.58524 -0.705723
vn -0.563614 -0.826038 0
vn -0.399311 -0.585238 0.705725
vn -0.001546 -0.002275 0.999996
vn 0.397761 0.582954 0.708485
vn 0.576035 0.817425 0
vn 0.406926 0.577447 -0.70779
vn -0.000782 -0.001114 -0.999999
vn -0.407705 -0.57856 -0.706431
vn -0.576034 -0.817426 0
vn -0.407706 -0.578561 0.70643
vn -0.000778 -0.001108 0.999999
vn 0.406927 0.57745 0.707787
vn 0.5801 0.814545 -0
vn 0.410057 0.575781 -0.707339
vn -0.000275 -0.000387 -1
vn -0.410331 -0.576165 -0.706868
vn -0.580099 -0.814546 0
vn -0.410333 -0.576168 0.706865
vn -0.000275 -0.000386 1
vn 0.41006 0.575783 0.707336
vt 0 0
vt 0.004715 0
vt 0 0.063148
vt 0.004715 0.063148
vt 0.00943 0
vt 0.00943 0.063148
vt 0.014144 0
vt 0.014144 0.063148
vt 0.018859 0
vt 0.018859 0.063148
vt 0.023574 0
vt 0.023574 0.063148
vt 0.028288 0
vt 0.028288 0.063148
vt 0.033003 0
vt 0.033003 0.063148
vt 0.037718 0
vt 0.037718 0.063148
vt 0 0.12625
vt 0.004715 0.12625
vt 0.00943 0.12625
vt 0.014144 0.12625
vt 0.018859 0.12625
vt 0.023574 0.12625
vt 0.028288 0.12625
vt 0.033003 0.12625
vt 0.037718 0.12625
vt 0 0.189308
vt 0.004715 0.189308
vt 0.00943 0.189308
vt 0.014144 0.189308
vt 0.018859 0.189308
vt 0.023574 0.189308
vt 0.028288 0.189308
vt 0.033003 0.189308
vt 0.037718 0.189308
vt 0 0.252208
vt 0.004715 0.252208
vt 0.00943 0.252208
vt 0.014144 0.252208
vt 0.018859 0.252208
vt 0.023574 0.252208
vt 0.028288 0.252208
vt 0.033003 0.252208
vt 0.037718 0.252208
vt 0 0.315085
vt 0.004715 0.315085
vt 0.00943 0.315085
vt 0.014144 0.315085
vt 0.018859 0.315085
vt 0.023574 0.315085
vt 0.028288 0.315085
vt 0.033003 0.315085
vt 0.037718 0.315085
vt 0 0.377874
vt 0.004715 0.377874
vt 0.00943 0.377874
vt 0.014144 0.377874
vt 0.018859 0.377874
vt 0.023574 0.377874
vt 0.028288 0.377874
vt 0.033003 0.377874
vt 0.037718 0.377874
vt 0 0.440567
vt 0.004715 0.440567
vt 0.00943 0.440567
vt 0.014144 0.440567
vt 0.018859 0.440567
vt 0.023574 0.440567
vt 0.028288 0.440567
vt 0.033003 0.440567
vt 0.037718 0.440567
vt 0 0.503159
vt 0.004715 0.503159
vt 0.00943 0.503159
vt 0.014144 0.503159
vt 0.018859 0.503159
vt 0.023574 0.503159
vt 0.028288 0.503159
vt 0.033003 0.503159
vt 0.037718 0.503159
vt 0 0.56492
vt 0.004715 0.56492
vt 0.00943 0.56492
vt 0.014144 0.56492
vt 0.018859 0.56492
vt 0.023574 0.56492
vt 0.028288 0.56492
vt 0.033003 0.56492
vt 0.037718 0.56492
vt 0 0.626877
vt 0.004715 0.626877
vt 0.00943 0.626877
vt 0.014144 0.626877
vt 0.018859 0.626877
vt 0.023574 0.626877
vt 0.028288 0.626877
vt 0.033003 0.626877
vt 0.037718 0.626877
vt 0 0.688872
vt 0.004715 0.688872
vt 0.00943 0.688872
vt 0.014144 0.688872
vt 0.018859 0.688872
vt 0.023574 0.688872
vt 0.028288 0.688872
vt 0.033003 0.688872
vt 0.037718 0.688872
vt 0 0.750955
vt 0.004715 0.750955
vt 0.00943 0.750955
vt 0.014144 0.750955
vt 0.018859 0.750955
vt 0.023574 0.750955
vt 0.028288 0.750955
vt 0.033003 0.750955
vt 0.037718 0.750955
vt 0 0.813075
vt 0.004715 0.813075
vt 0.00943 0.813075
vt 0.014144 0.813075
vt 0.018859 0.813075
vt 0.023574 0.813075
vt 0.028288 0.813075
vt 0.033003 0.813075
vt 0.037718 0.813075
vt 0 0.875332
vt 0.004715 0.875332
vt 0.00943 0.875332
vt 0.014144 0.875332
vt 0.018859 0.875332
vt 0.023574 0.875332
vt 0.028288 0.875332
vt 0.033003 0.875332
vt 0.037718 0.875332
vt 0 0.937641
vt 0.004715 0.937641
vt 0.00943 0.937641
vt 0.014144 0.937641
vt 0.018859 0.937641
vt 0.023574 0.937641
vt 0.028288 0.937641
vt 0.033003 0.937641
vt 0.037718 0.937641
vt 0 1
vt 0.004715 1
vt 0.00943 1
vt 0.014144 1
vt 0.018859 1
vt 0.023574 1
vt 0.028288 1
vt 0.033003 1
vt 0.037718 1
usemtl Wire4SG
f 377/424/377 378/425/378 379/426/379
f 379/426/379 378/425/378 380/427/380
f 378/425/378 381/428/381 380/427/380
f 380/427/380 381/428/381 382/429/382
f 381/428/381 383/430/383 382/429/382
f 382/429/382 383/430/383 384/431/384
f 383/430/383 385/432/385 384/431/384
f 384/431/384 385/432/385 386/433/386
f 385/432/385 387/434/387 386/433/386
f 386/433/386 387/434/387 388/435/388
f 387/434/387 389/436/389 388/435/388
f 388/435/388 389/436/389 390/437/390
f 389/436/389 391/438/391 390/437/390
f 390/437/390 391/438/391 392/439/392
f 391/438/391 377/440/377 392/439/392
f 392/439/392 377/440/377 379/441/379
f 379/426/379 380/427/380 393/442/393
f 393/442/393 380/427/380 394/443/394
f 380/427/380 382/429/382 394/443/394
f 394/443/394 382/429/382 395/444/395
f 382/429/382 384/431/384 395/444/395
f 395/444/395 384/431/384 396/445/396
f 384/431/384 386/433/386 396/445/396
f 396/445/396 386/433/386 397/446/397
f 386/433/386 388/435/388 397/446/397
f 397/446/397 388/435/388 398/447/398
f 388/435/388 390/437/390 398/447/398
f 398/447/398 390/437/390 399/448/399
f 390/437/390 392/439/392 399/448/399
f 399/448/399 392/439/392 400/449/400
f 392/439/392 379/441/379 400/449/400
f 400/449/400 379/441/379 393/450/393
f 393/442/393 394/443/394 401/451/401
f 401/451/401 394/443/394 402/452/402
f 394/443/394 395/444/395 402/452/402
f 402/452/402 395/444/395 403/453/403
f 395/444/395 396/445/396 403/453/403
f 403/453/403 396/445/396 404/454/404
f 396/445/396 397/446/397 404/454/404
f 404/454/404 397/446/397 405/455/405
f 397/446/397 398/447/398 405/455/405
f 405/455/405 398/447/398 406/456/406
f 398/447/398 399/448/399 406/456/406
f 406/456/406 399/448/399 407/457/407
f 399/448/399 400/449/400 407/457/407
f 407/457/407 400/449/400 408/458/408
f 400/449/400 393/450/393 408/458/408
f 408/458/408 393/450/393 401/459/401
f 401/451/401 402/452/402 409/460/409
f 409/460/409 402/452/402 410/461/410
f 402/452/402 403/453/403 410/461/410
f 410/461/410 403/453/403 411/462/411
f 403/453/403 404/454/404 411/462/411
f 411/462/411 404/454/404 412/463/412
f 404/454/404 405/455/405 412/463/412
f 412/463/412 405/455/405 413/464/413
f 405/455/405 406/456/406 413/464/413
f 413/464/413 406/456/406 414/465/414
f 406/456/406 407/457/407 414/465/414
f 414/465/414 407/457/407 415/466/415
f 407/457/407 408/458/408 415/466/415
f 415/466/415 408/458/408 416/467/416
f 408/458/408 401/459/401 416/467/416
f 416/467/416 401/459/401 409/468/409
f 409/460/409 410/461/410 417/469/417
f 417/469/417 410/461/410 418/470/418
f 410/461/410 411/462/411 418/470/418
f 418/470/418 411/462/411 419/471/419
f 411/462/411 412/463/412 419/471/419
f 419/471/419 412/463/412 420/472/420
f 412/463/412 413/464/413 420/472/420
f 420/472/420 413/464/413 421/473/421
f 413/464/413 414/465/414 421/473/421
f 421/473/421 414/465/414 422/474/422
f 414/465/414 415/466/415 422/474/422
f 422/474/422 415/466/415 423/475/423
f 415/466/415 416/467/416 423/475/423
f 423/475/423 416/467/416 424/476/424
f 416/467/416 409/468/409 424/476/424
f 424/476/424 409/468/409 417/477/417
f 417/469/417 418/470/418 425/478/425
f 425/478/425 418/470/418 426/479/426
f 418/470/418 419/471/419 426/479/426
f 426/479/426 419/471/419 427/480/427
f 419/471/419 420/472/420 427/480/427
f 427/480/427 420/472/420 428/481/428
f 420/472/420 421/473/421 428/481/428
f 428/481/428 421/473/421 429/482/429
f 421/473/421 422/474/422 429/482/429
f 429/482/429 422/474/422 430/483/430
f 422/474/422 423/475/423 430/483/430
f 430/483/430 423/475/423 431/484/431
f 423/475/423 424/476/424 431/484/431
f 431/484/431 424/476/424 432/485/432
f 424/476/424 417/477/417 432/485/432
f 432/485/432 417/477/417 425/486/425
f 425/478/425 426/479/426 433/487/433
f 433/487/433 426/479/426 434/488/434
f 426/479/426 427/480/427 434/488/434
f 434/488/434 427/480/427 435/489/435
f 427/480/427 428/481/428 435/489/435
f 435/489/435 428/481/428 436/490/436
f 428/481/428 429/482/429 436/490/436
f 436/490/436 429/482/429 437/491/437
f 429/482/429 430/483/430 437/491/437
f 437/491/437 430/483/430 438/492/438
f 430/483/430 431/484/431 438/492/438
f 438/492/438 431/484/431 439/493/439
f 431/484/431 432/485/432 439/493/439
f 439/493/439 432/485/432 440/494/440
f 432/485/432 425/486/425 440/494/440
f 440/494/440 425/486/425 433/495/433
f 433/487/433 434/488/434 441/496/441
f 441/496/441 434/488/434 442/497/442
f 434/488/434 435/489/435 442/497/442
f 442/497/442 435/489/435 443/498/443
f 435/489/435 436/490/436 443/498/443
f 443/498/443 436/490/436 444/499/444
f 436/490/436 437/491/437 444/499/444
f 444/499/444 437/491/437 445/500/445
f 437/491/437 438/492/438 445/500/445
f 445/500/445 438/492/438 446/501/446
f 438/492/438 439/493/439 446/501/446
f 446/501/446 439/493/439 447/502/447
f 439/493/439 440/494/440 447/502/447
f 447/502/447 440/494/440 448/503/448
f 440/494/440 433/495/433 448/503/448
f 448/503/448 433/495/433 441/504/441
f 441/496/441 442/497/442 449/505/449
f 449/505/449 442/497/442 450/506/450
f 442/497/442 443/498/443 450/506/450
f 450/506/450 443/498/443 451/507/451
f 443/498/443 444/499/444 451/507/451
f 451/507/451 444/499/444 452/508/452
f 444/499/444 445/500/445 452/508/452
f 452/508/452 445/500/445 453/509/453
f 445/500/445 446/501/446 453/509/453
f 453/509/453 446/501/446 454/510/454
f 446/501/446 447/502/447 454/510/454
f 454/510/454 447/502/447 455/511/455
f 447/502/447 448/503/448 455/511/455
f 455/511/455 448/503/448 456/512/456
f 448/503/448 441/504/441 456/512/456
f 456/512/456 441/504/441 449/513/449
f 449/505/449 450/506/450 457/514/457
f 457/514/457 450/506/450 458/515/458
f 450/506/450 451/507/451 458/515/458
f 458/515/458 451/507/451 459/516/459
f 451/507/451 452/508/452 459/516/459
f 459/516/459 452/508/452 460/517/460
f 452/508/452 453/509/453 460/517/460
f 460/517/460 453/509/453 461/518/461
f 453/509/453 454/510/454 461/518/461
f 461/518/461 454/510/454 462/519/462
f 454/510/454 455/511/455 462/519/462
f 462/519/462 455/511/455 463/520/463
f 455/511/455 456/512/456 463/520/463
f 463/520/463 456/512/456 464/521/464
f 456/512/456 449/513/449 464/521/464
f 464/521/464 449/513/449 457/522/457
f 457/514/457 458/515/458 465/523/465
f 465/523/465 458/515/458 466/524/466
f 458/515/458 459/516/459 466/524/466
f 466/524/466 459/516/459 467/525/467
f 459/516/459 460/517/460 467/525/467
f 467/525/467 460/517/460 468/526/468
f 460/517/460 461/518/461 468/526/468
f 468/526/468 461/518/461 469/527/469
f 461/518/461 462/519/462 469/527/469
f 469/527/469 462/519/462 470/528/470
f 462/519/462 463/520/463 470/528/470
f 470/528/470 463/520/463 471/529/471
f 463/520/463 464/521/464 471/529/471
f 471/529/471 464/521/464 472/530/472
f 464/521/464 457/522/457 472/530/472
f 472/530/472 457/522/457 465/531/465
f 465/523/465 466/524/466 473/532/473
f 473/532/473 466/524/466 474/533/474
f 466/524/466 467/525/467 474/533/474
f 474/533/474 467/525/467 475/534/475
f 467/525/467 468/526/468 475/534/475
f 475/534/475 468/526/468 476/535/476
f 468/526/468 469/527/469 476/535/476
f 476/535/476 469/527/469 477/536/477
f 469/527/469 470/528/470 477/536/477
f 477/536/477 470/528/470 478/537/478
f 470/528/470 471/529/471 478/537/478
f 478/537/478 471/529/471 479/538/479
f 471/529/471 472/530/472 479/538/479
f 479/538/479 472/530/472 480/539/480
f 472/530/472 465/531/465 480/539/480
f 480/539/480 465/531/465 473/540/473
f 473/532/473 474/533/474 481/541/481
f 481/541/481 474/533/474 482/542/482
f 474/533/474 475/534/475 482/542/482
f 482/542/482 475/534/475 483/543/483
f 475/534/475 476/535/476 483/543/483
f 483/543/483 476/535/476 484/544/484
f 476/535/476 477/536/477 484/544/484
f 484/544/484 477/536/477 485/545/485
f 477/536/477 478/537/478 485/545/485
f 485/545/485 478/537/478 486/546/486
f 478/537/478 479/538/479 486/546/486
f 486/546/486 479/538/479 487/547/487
f 479/538/479 480/539/480 487/547/487
f 487/547/487 480/539/480 488/548/488
f 480/539/480 473/540/473 488/548/488
f 488/548/488 473/540/473 481/549/481
f 481/541/481 482/542/482 489/550/489
f 489/550/489 482/542/482 490/551/490
f 482/542/482 483/543/483 490/551/490
f 490/551/490 483/543/483 491/552/491
f 483/543/483 484/544/484 491/552/491
f 491/552/491 484/544/484 492/553/492
f 484/544/484 485/545/485 492/553/492
f 492/553/492 485/545/485 493/554/493
f 485/545/485 486/546/486 493/554/493
f 493/554/493 486/546/486 494/555/494
f 486/546/486 487/547/487 494/555/494
f 494/555/494 487/547/487 495/556/495
f 487/547/487 488/548/488 495/556/495
f 495/556/495 488/548/488 496/557/496
f 488/548/488 481/549/481 496/557/496
f 496/557/496 481/549/481 489/558/489
f 489/550/489 490/551/490 497/559/497
f 497/559/497 490/551/490 498/560/498
f 490/551/490 491/552/491 498/560/498
f 498/560/498 491/552/491 499/561/499
f 491/552/491 492/553/492 499/561/499
f 499/561/499 492/553/492 500/562/500
f 492/553/492 493/554/493 500/562/500
f 500/562/500 493/554/493 501/563/501
f 493/554/493 494/555/494 501/563/501
f 501/563/501 494/555/494 502/564/502
f 494/555/494 495/556/495 502/564/502
f 502/564/502 495/556/495 503/565/503
f 495/556/495 496/557/496 503/565/503
f 503/565/503 496/557/496 504/566/504
f 496/557/496 489/558/489 504/566/504
f 504/566/504 489/558/489 497/567/497
f 497/559/497 498/560/498 505/568/505
f 505/568/505 498/560/498 506/569/506
f 498/560/498 499/561/499 506/569/506
f 506/569/506 499/561/499 507/570/507
f 499/561/499 500/562/500 507/570/507
f 507/570/507 500/562/500 508/571/508
f 500/562/500 501/563/501 508/571/508
f 508/571/508 501/563/501 509/572/509
f 501/563/501 502/564/502 509/572/509
f 509/572/509 502/564/502 510/573/510
f 502/564/502 503/565/503 510/573/510
f 510/573/510 503/565/503 511/574/511
f 503/565/503 504/566/504 511/574/511
f 511/574/511 504/566/504 512/575/512
f 504/566/504 497/567/497 512/575/512
f 512/575/512 497/567/497 505/576/505
s off
