# Apple ModelIO OBJ File: Posters
mtllib Posters.mtl
g Posters_PostersSG
v -0.752393 -2.06073 -0.093343
v -0.752393 1.62334 -0.093343
v -2.3851 -2.06073 -0.093343
v -3.37423 -1.16349 -0.093343
v -3.37423 1.62334 -0.093343
v -3.37423 -2.06073 0.093343
v -2.95949 -2.06073 -0.018676
v -3.37423 -1.68452 -0.018676
v -3.37423 -1.42885 -0.074578
v -2.67622 -2.06073 -0.074931
v 0.053475 0.175737 -0.093343
v 1.98054 0.175737 -0.093343
v 0.053475 2.89744 -0.093343
v 2.2801 0.435504 -0.093343
v 2.2801 2.89744 -0.093343
v 2.2801 0.237532 -0.055564
v 2.20884 0.175737 -0.055564
v 2.2801 0.175737 -0.030372
v 2.09731 0.175737 -0.084132
v 2.2801 0.333391 -0.08381
v -0.323562 -2.61429 -0.093343
v 3.37423 -2.39598 -0.093343
v -0.323562 -0.17574 -0.093343
v 3.37423 -0.17574 -0.093343
v -0.323562 -2.89744 -0.03773
v 3.37423 -2.89744 0.008965
v -0.323562 -2.82794 -0.059979
v 3.37423 -2.74285 -0.051852
v -0.323562 -2.72241 -0.084952
v 3.37423 -2.56396 -0.084952
vn 0 0 1
vn 0.000471 0.000518 1
vn 0.000555 0.00061 1
vn 0.250605 0.276268 0.927833
vn 0.199828 0.220242 0.954758
vn 0.201175 0.221728 0.954131
vn 0.088817 0.097759 0.991239
vn 0.085617 0.094227 0.991862
vn 1e-06 0 1
vn -9.5e-05 0.00011 1
vn -0.000121 0.00014 1
vn -0.243828 0.280899 0.928248
vn -0.2428 0.279708 0.928877
vn -0.311092 0.358787 0.880053
vn -0.102281 0.11741 0.987802
vn -0.107456 0.123386 0.986524
vn -0.000186 0.003649 0.999993
vn -0.000161 0.003167 0.999995
vn -0.01095 0.347546 0.937599
vn -0.009198 0.268443 0.963252
vn -0.009153 0.266434 0.96381
vn -0.005508 0.134241 0.990934
vn -0.005385 0.13048 0.991436
vt 0.833467 0.003968
vt 0.833467 0.5698
vt 0.582701 0.003968
vt 0.430782 0.141775
vt 0.430782 0.5698
vt 0.430782 0.003968
vt 0.494481 0.003968
vt 0.430782 0.06175
vt 0.430782 0.101018
vt 0.537989 0.003968
vt 0.430782 0.578245
vt 0.72659 0.578245
vt 0.430782 0.996032
vt 0.772572 0.61812
vt 0.772572 0.996032
vt 0.772572 0.587731
vt 0.761634 0.578245
vt 0.772572 0.578245
vt 0.744515 0.578245
vt 0.772572 0.602445
vt 0.046865 0.573239
vt 0.080529 0.004582
vt 0.421876 0.5733
vt 0.421967 0.004637
vt 0.003321 0.573232
vt 0.003412 0.00457
vt 0.014008 0.573234
vt 0.027186 0.004574
vt 0.030237 0.573237
vt 0.054696 0.004578
usemtl PostersSG
f 1/1/1 2/2/1 3/3/2
f 3/3/2 2/2/1 4/4/3
f 4/4/3 2/2/1 5/5/1
f 6/6/4 7/7/5 8/8/6
f 9/9/7 10/10/8 4/4/3
f 4/4/3 10/10/8 3/3/2
f 8/8/6 7/7/5 9/9/7
f 9/9/7 7/7/5 10/10/8
f 11/11/9 12/12/10 13/13/9
f 12/12/10 14/14/11 13/13/9
f 14/14/11 15/15/9 13/13/9
f 16/16/12 17/17/13 18/18/14
f 12/12/10 19/19/15 14/14/11
f 14/14/11 19/19/15 20/20/16
f 19/19/15 17/17/13 20/20/16
f 20/20/16 17/17/13 16/16/12
f 21/21/17 22/22/18 23/23/1
f 23/23/1 22/22/18 24/24/1
f 25/25/19 26/26/19 27/27/20
f 27/27/20 26/26/19 28/28/21
f 29/29/22 30/30/23 21/21/17
f 21/21/17 30/30/23 22/22/18
f 27/27/20 28/28/21 29/29/22
f 29/29/22 28/28/21 30/30/23
s off
